<svg xmlns="http://www.w3.org/2000/svg" viewBox="0 0 357.8 560.16"><rect x="2.5" y="2.5" width="352.8" height="555.16" rx="22.38" ry="22.38" fill="#fff"/><path d="M332.92 5a19.88 19.88 0 0 1 19.88 19.88v510.4a19.88 19.88 0 0 1-19.88 19.88h-308A19.88 19.88 0 0 1 5 535.28V24.88A19.88 19.88 0 0 1 24.88 5h308m0-5h-308A24.91 24.91 0 0 0 0 24.88v510.4a24.91 24.91 0 0 0 24.88 24.88h308a24.91 24.91 0 0 0 24.88-24.88V24.88A24.91 24.91 0 0 0 332.92 0z" fill="#1d1d1b"/><rect x="21.7" y="20.34" width="314.41" height="519.48" rx="19.88" ry="19.88" fill="#e4f3f9"/><rect x="32.52" y="30.89" width="292.75" height="498.38" rx="19.88" ry="19.88" fill="none" stroke="#fff" stroke-miterlimit="10" stroke-width="2" stroke-dasharray="11.91 11.91"/><path fill="#fff" stroke="#e4f3f9" stroke-linecap="round" stroke-linejoin="round" stroke-width="5" d="M175.87 399.6l20.11-2.4-1.42 22.17-18.69 10.76V399.6z"/><path d="M227.78 384.94s-34.11 32-31 49.31l-33.49 13.85s-11.51 3.41-19.21-1.31c0 0 21.72-16.77-11.62-52.09-19.13-20.26 49.34-7.2 49.34-7.2l.56 31.4 1.36 7.08 7.16-37.44z" fill="#fff" stroke="#e4f3f9" stroke-linecap="round" stroke-linejoin="round" stroke-width="5"/><path d="M155.08 399s58.54 7.72 82.29-4.43 49.7-32.58 58.53-76.21-34.23-89.46-29.82-102.71zM62.45 191.75s5.84-22.37 1.78-30.75 8.64-8.39 15.5-9.16 10.17.77 15 .77 9.66 13.21 9.66 13.21zM267.38 146.3a505.94 505.94 0 0 1-54.82-14.57c-26.83-9-40 1.85-40 1.85s10.18 1.62 16.66 8.09 35.39 14.12 43.49 12.73 34.67-8.1 34.67-8.1z" fill="#fff" stroke="#e4f3f9" stroke-linecap="round" stroke-linejoin="round" stroke-width="5"/><path d="M79.73 151.84s40.52-11.06 56-16.94 22.89-5.73 36.82-2.71 28.16 13.86 28.16 13.86l-80.76 13.3z" fill="#fff" stroke="#e4f3f9" stroke-linecap="round" stroke-linejoin="round" stroke-width="5"/><path d="M135.65 157.69s23.66-14.17 42-15.3c11.57-.72 17.29 1.6 24.82 4.35 9.94 3.64 30.24 7.66 30.24 7.66l-30.05 20.69-53.66-5.77zM135.65 163S114 144 97.3 145.32s-37.19 9.18-29.44 17.19c6.22 6.42 25.16 9 25.16 9z" fill="#fff" stroke="#e4f3f9" stroke-linecap="round" stroke-linejoin="round" stroke-width="5"/><path d="M209.48 164.72s-12.83-9-25.19-9-22.58 6.66-25.19 9 38 17.11 38 17.11z" fill="#fff" stroke="#e4f3f9" stroke-linecap="round" stroke-linejoin="round" stroke-width="5"/><path fill="#fff" stroke="#e4f3f9" stroke-linecap="round" stroke-linejoin="round" stroke-width="5" d="M80.84 174.61l57.63 12.35h81.07l34.2-30.47 22.16-8.55 18.9-2.39-58.8 68.32-36.09 73.15-19.64-11.08-91.19-81.7-8.24-19.63z"/><path d="M86.11 245.22S70.82 293.87 71.52 321s18.07 59.08 43.78 70.89c26.1 8.11 39.78 7.11 39.78 7.11l38.07-50.24 4.17-69.32s-12.12-18.22-26.74-24.56-78.29-14.96-84.47-9.66z" fill="#fff" stroke="#e4f3f9" stroke-linecap="round" stroke-linejoin="round" stroke-width="5"/><path d="M294.8 145.55s6.63 6.62-.55 20.43-25.41 38.09-28.17 49.69-32.58 167.89-111 183.33c0 0 33.14-125.92 76.76-185s54.16-66.24 62.96-68.45zM200.36 171.59s-18.8 1.55-30.83-4.24-25.44-12.49-38.86-10.64-31.46 5.78-31.46 5.78l31.92 16.43 48.58 3.93 18-3.24z" fill="#fff" stroke="#e4f3f9" stroke-linecap="round" stroke-linejoin="round" stroke-width="5"/><path d="M174.28 177.21s14 4 26.08-5.62 37.17-29.18 94.44-26c0 0-29 6.6-40.66 16-11.8 9.52-22.79 46.36-56.19 29.73z" fill="#fff" stroke="#e4f3f9" stroke-linecap="round" stroke-linejoin="round" stroke-width="5"/><path d="M68.24 179.36S76 165.57 88.79 162s37.73 12 48.56 13.65 25.69-2 34.12 0S198 191.26 198 191.26s-38.17 4.81-58.62 3.21c-18.55-1.47-45.14-24.19-71.14-15.11z" fill="#fff" stroke="#e4f3f9" stroke-linecap="round" stroke-linejoin="round" stroke-width="5"/><path d="M63.11 155.53c4.24 21.19-10 47.23-3.64 65.75s17.71 20.11 26.64 23.94 54.74 2.37 84.47 9.68c0 0-42.46-16.34-58.63-46.78-19.23-36.21-52.5-70.88-48.84-52.59z" fill="#fff" stroke="#e4f3f9" stroke-linecap="round" stroke-linejoin="round" stroke-width="5"/></svg>