<svg xmlns="http://www.w3.org/2000/svg" viewBox="0 0 357.8 560.16"><rect x="2.5" y="2.5" width="352.8" height="555.16" rx="22.38" ry="22.38" fill="#fff"/><path d="M332.92 5a19.88 19.88 0 0 1 19.88 19.88v510.4a19.88 19.88 0 0 1-19.88 19.88h-308A19.88 19.88 0 0 1 5 535.28V24.88A19.88 19.88 0 0 1 24.88 5h308m0-5h-308A24.91 24.91 0 0 0 0 24.88v510.4a24.91 24.91 0 0 0 24.88 24.88h308a24.91 24.91 0 0 0 24.88-24.88V24.88A24.91 24.91 0 0 0 332.92 0z" fill="#1d1d1b"/><rect x="21.7" y="20.34" width="314.41" height="519.48" rx="19.88" ry="19.88" fill="#e4f3f9"/><ellipse cx="178.19" cy="285.81" rx="130.37" ry="194.61" fill="#fff"/><ellipse cx="178.19" cy="285.81" rx="136.96" ry="201.65" fill="none" stroke="#fff" stroke-linecap="round" stroke-linejoin="round" stroke-width="2" stroke-dasharray="11.93 11.93"/><path d="M51.88 530.81c-2.21 3.46 0 4.64 0 4.64s8.42-5.38 12.72-4.71c4.86.76 7.62 4 11.63 4.37s6.76-1.49 12.58-2.64c-5.39-3.72-7.27-7.91-15.7-7.73-6.9.14-17.5.26-21.23 6.07zm-11.12-3.7a17.1 17.1 0 0 1-5.95 4.69s2.13-8.13.17-9.72c-2.22-1.78-6.11-1.34-7.68-3s-2.2-9.7-2.2-9.7 10.85.34 12 5.19c.7 3.25 7.77 7.23 3.66 12.54z" fill="#fff" stroke="#e4f3f9" stroke-linejoin="round" stroke-width="2"/><path d="M66.32 524.07s-13.72 4.9-15 10.21l-11.27-.21s-3.71-.46-5.32-2.76c0 0 8.29-2.09 3.17-16.32-2.94-8.16 16.18 4.62 16.18 4.62l-3.61 6.8 4.26-6.17zM306 530.81c2.21 3.46 0 4.64 0 4.64s-8.42-5.38-12.72-4.71c-4.86.76-7.62 4-11.63 4.37s-6.75-1.49-12.58-2.64c5.4-3.72 7.28-7.91 15.71-7.73 6.88.14 17.48.26 21.22 6.07zm11.11-3.7a17.1 17.1 0 0 0 5.95 4.69s-2.13-8.13-.17-9.72c2.22-1.78 6.12-1.34 7.68-3s2.2-9.7 2.2-9.7-10.85.34-12 5.19c-.7 3.25-7.77 7.23-3.66 12.54z" fill="#fff" stroke="#e4f3f9" stroke-linejoin="round" stroke-width="2"/><path d="M291.55 524.07s13.72 4.9 15 10.21l11.28-.21s3.7-.46 5.31-2.76c0 0-8.28-2.09-3.16-16.32 2.93-8.16-16.19 4.62-16.19 4.62l3.62 6.8-4.27-6.17zM51.88 29.64c-2.21-3.46 0-4.64 0-4.64s8.42 5.39 12.72 4.71c4.86-.76 7.62-4 11.63-4.37S83 26.84 88.79 28c-5.39 3.73-7.27 7.91-15.7 7.73-6.88-.16-17.48-.25-21.21-6.09zm-11.12 3.7a17.1 17.1 0 0 0-5.95-4.69s2.13 8.14.17 9.72c-2.22 1.79-6.11 1.34-7.68 3s-2.2 9.71-2.2 9.71 10.85-.35 12-5.2c.7-3.25 7.77-7.23 3.66-12.54z" fill="#fff" stroke="#e4f3f9" stroke-linejoin="round" stroke-width="2"/><path d="M66.32 36.38s-13.72-4.89-15-10.21l-11.27.21s-3.71.46-5.32 2.77c0 0 8.29 2.08 3.17 16.31-2.9 8.17 16.19-4.61 16.19-4.61L50.48 34l4.26 6.17zM306 29.64c2.21-3.46 0-4.64 0-4.64s-8.42 5.39-12.72 4.71c-4.86-.76-7.62-4-11.63-4.37s-6.75 1.5-12.58 2.64c5.4 3.73 7.28 7.91 15.71 7.73 6.88-.14 17.48-.23 21.22-6.07zm11.11 3.7a17.1 17.1 0 0 1 5.95-4.69s-2.13 8.14-.17 9.72c2.22 1.79 6.12 1.34 7.68 3s2.2 9.71 2.2 9.71-10.85-.35-12-5.2c-.7-3.25-7.77-7.23-3.66-12.54z" fill="#fff" stroke="#e4f3f9" stroke-linejoin="round" stroke-width="2"/><path d="M291.55 36.38s13.72-4.89 15-10.21l11.28.21s3.7.46 5.31 2.77c0 0-8.28 2.08-3.16 16.31 2.93 8.17-16.19-4.61-16.19-4.61L307.4 34l-4.27 6.17zM48.42 522.2s14.13 5.86 20.88 4.41 14.62-4.82 19.76-15.14-2.57-24.68-.58-27.7zm-9.28-58.06s3-5.21 2.51-7.58 2.72-1.52 4.49-1.25a21.77 21.77 0 0 1 3.7 1.2c1.21.32 1.53 3.95 1.53 3.95zm54.32 2.36a130.1 130.1 0 0 1-12.74-7.32c-6.11-4.05-10.14-2.18-10.14-2.18a8.91 8.91 0 0 1 3.63 3.14c1.18 2.06 7.91 5.91 10 6.1s9.25.26 9.25.26z" fill="#fff" stroke="#e4f3f9" stroke-linejoin="round" stroke-width="2"/><path d="M46.14 455.31s10.88-.05 15.14-.48a13.81 13.81 0 0 1 9.4 1.79 22.05 22.05 0 0 1 6.11 5.38l-21.09-2.11z" fill="#fff" stroke="#e4f3f9" stroke-linejoin="round" stroke-width="2"/><path d="M59.74 460.52s6.87-2 11.53-1a13.29 13.29 0 0 1 5.91 2.75 72 72 0 0 0 7.06 3.94l-8.91 3.16-13-5zm-.35 1.32s-4.16-6.21-8.42-7-9.92-.2-8.52 2.32c1.13 2 5.7 3.94 5.7 3.94z" fill="#fff" stroke="#e4f3f9" stroke-linejoin="round" stroke-width="2"/><path d="M77.74 467.23s-2.61-3.12-5.7-4a10.88 10.88 0 0 0-6.91.57c-.81.42 8.37 6.83 8.37 6.83z" fill="#fff" stroke="#e4f3f9" stroke-linejoin="round" stroke-width="2"/><path fill="#fff" stroke="#e4f3f9" stroke-linejoin="round" stroke-width="2" d="M44.89 461.08l13.59 6.95 20.28 5.44 10.6-5.33 6.12-.66 4.89.67-19.29 13.16-13.94 15.88-4.16-4.09-17.35-26.56-.74-5.46z"/><path d="M41.48 479.1s-7.09 11.15-8.73 18 .56 16 6.2 20.68c6 3.77 9.47 4.45 9.47 4.45l12.89-10L67 495.12s-1.81-5.37-5-7.94-18.62-8.99-20.52-8.08z" fill="#fff" stroke="#e4f3f9" stroke-linejoin="round" stroke-width="2"/><path d="M100.37 468.15s1.21 2.11-1.51 5.08-8.86 7.82-10.38 10.54-19.4 39.82-40.06 38.43c0 0 16.73-29.28 31.61-41.14s17.97-12.95 20.34-12.91zm-25.37.19s-4.81-.88-7.43-3.13-5.53-4.83-9-5.27-8.26-.66-8.26-.66l6.88 6.25 11.89 4.24 4.74.4z" fill="#fff" stroke="#e4f3f9" stroke-linejoin="round" stroke-width="2"/><path d="M68.09 468a8.07 8.07 0 0 0 6.91.34c3.65-1.6 11.25-4.81 25.37-.19 0 0-7.71-.29-11.24 1.28s-8.82 10.07-16.06 3.67z" fill="#fff" stroke="#e4f3f9" stroke-linejoin="round" stroke-width="2"/><path d="M41.42 461.43s2.85-2.94 6.31-3S56.36 464 59 465.12s6.56 1.22 8.54 2.29 5.57 5.69 5.57 5.69-9.91-1.36-14.92-3.1c-4.53-1.63-9.66-9.11-16.77-8.57z" fill="#fff" stroke="#e4f3f9" stroke-linejoin="round" stroke-width="2"/><path d="M41.73 455.12c-.36 5.58-5.66 11.14-5.32 16.2s3.09 6.22 5.07 7.78S55 483.36 62 487.18c0 0-9.53-6.93-11.53-15.63-2.47-10.35-8.42-21.25-8.74-16.43zm267.72 67.08s-14.13 5.86-20.88 4.41-14.62-4.82-19.76-15.14 2.57-24.68.58-27.7zm9.28-58.06s-3-5.21-2.5-7.58-2.73-1.52-4.5-1.25a21.77 21.77 0 0 0-3.7 1.2c-1.21.32-1.53 3.95-1.53 3.95zm-54.32 2.36a130.1 130.1 0 0 0 12.74-7.32c6.11-4.05 10.14-2.22 10.14-2.22a8.85 8.85 0 0 0-3.62 3.14c-1.19 2.06-7.91 5.91-10 6.1s-9.26.3-9.26.3z" fill="#fff" stroke="#e4f3f9" stroke-linejoin="round" stroke-width="2"/><path d="M311.73 455.31s-10.88-.05-15.14-.48a13.79 13.79 0 0 0-9.39 1.79 22.17 22.17 0 0 0-6.12 5.35l21.1-2.08z" fill="#fff" stroke="#e4f3f9" stroke-linejoin="round" stroke-width="2"/><path d="M298.13 460.52s-6.87-2-11.52-1a13.39 13.39 0 0 0-5.92 2.75 71.1 71.1 0 0 1-7.05 3.94l8.9 3.16 13-5zm.36 1.32s4.15-6.21 8.41-7 9.92-.2 8.52 2.32c-1.13 2-5.69 3.94-5.69 3.94z" fill="#fff" stroke="#e4f3f9" stroke-linejoin="round" stroke-width="2"/><path d="M280.14 467.23s2.6-3.12 5.69-4a10.86 10.86 0 0 1 6.91.57c.81.42-8.37 6.83-8.37 6.83z" fill="#fff" stroke="#e4f3f9" stroke-linejoin="round" stroke-width="2"/><path fill="#fff" stroke="#e4f3f9" stroke-linejoin="round" stroke-width="2" d="M312.98 461.08l-13.59 6.95-20.28 5.44-10.6-5.33-6.12-.66-4.89.67 19.29 13.16 13.94 15.88 4.17-4.09 17.34-26.56.74-5.46z"/><path d="M316.4 479.1s7.08 11.15 8.73 18-.56 16-6.21 20.68c-6 3.77-9.47 4.45-9.47 4.45l-12.89-10-5.69-17.06s1.81-5.37 5-7.94 18.63-9.04 20.53-8.13z" fill="#fff" stroke="#e4f3f9" stroke-linejoin="round" stroke-width="2"/><path d="M257.5 468.15s-1.21 2.11 1.51 5.08 8.91 7.82 10.38 10.54 19.41 39.82 40.06 38.43c0 0-16.73-29.28-31.61-41.14s-17.98-12.95-20.34-12.91zm25.38.19s4.8-.88 7.43-3.13 5.52-4.83 9-5.27 8.25-.66 8.25-.66l-6.88 6.25-11.89 4.24-4.73.4z" fill="#fff" stroke="#e4f3f9" stroke-linejoin="round" stroke-width="2"/><path d="M289.78 468a8.05 8.05 0 0 1-6.9.34c-3.66-1.6-11.26-4.81-25.38-.19 0 0 7.71-.29 11.25 1.28s8.81 10.07 16.05 3.67z" fill="#fff" stroke="#e4f3f9" stroke-linejoin="round" stroke-width="2"/><path d="M316.45 461.43s-2.85-2.94-6.31-3-8.63 5.54-11.23 6.67-6.56 1.22-8.53 2.29-5.58 5.69-5.58 5.69 9.87-1.36 14.88-3.13c4.53-1.58 9.66-9.06 16.77-8.52z" fill="#fff" stroke="#e4f3f9" stroke-linejoin="round" stroke-width="2"/><path d="M316.14 455.12c.36 5.58 5.66 11.14 5.32 16.2s-3.09 6.22-5.06 7.78-13.54 4.26-20.49 8.08c0 0 9.53-6.93 11.53-15.63 2.39-10.35 8.39-21.25 8.7-16.43zM48.42 38.25s14.13-5.85 20.88-4.41S83.92 38.66 89.06 49s-2.57 24.67-.58 27.69zm-9.28 58.07s3 5.2 2.51 7.57 2.72 1.52 4.49 1.25a22.8 22.8 0 0 0 3.7-1.19c1.21-.33 1.53-4 1.53-4zM93.46 94a130.1 130.1 0 0 0-12.74 7.32c-6.11 4.06-10.14 2.22-10.14 2.22a8.91 8.91 0 0 0 3.63-3.14c1.18-2.06 7.91-5.9 10-6.1s9.25-.3 9.25-.3z" fill="#fff" stroke="#e4f3f9" stroke-linejoin="round" stroke-width="2"/><path d="M46.14 105.14s10.88 0 15.14.49a13.87 13.87 0 0 0 9.4-1.79 22.19 22.19 0 0 0 6.11-5.36l-21.09 2.09z" fill="#fff" stroke="#e4f3f9" stroke-linejoin="round" stroke-width="2"/><path d="M59.74 99.93s6.87 2 11.53 1a13.29 13.29 0 0 0 5.91-2.75 74.35 74.35 0 0 1 7.06-3.94l-8.91-3.16-13 5zm-.35-1.32s-4.16 6.21-8.42 7-9.92.19-8.52-2.33c1.13-2 5.7-3.94 5.7-3.94z" fill="#fff" stroke="#e4f3f9" stroke-linejoin="round" stroke-width="2"/><path d="M77.74 93.22s-2.61 3.12-5.7 4a10.88 10.88 0 0 1-6.91-.57c-.81-.42 8.37-6.83 8.37-6.83z" fill="#fff" stroke="#e4f3f9" stroke-linejoin="round" stroke-width="2"/><path fill="#fff" stroke="#e4f3f9" stroke-linejoin="round" stroke-width="2" d="M44.89 99.37l13.59-6.95 20.28-5.44 10.6 5.34 6.12.65 4.89-.67-19.29-13.15-13.94-15.88-4.16 4.09-17.35 26.55-.74 5.46z"/><path d="M41.48 81.35s-7.09-11.14-8.73-18 .56-16 6.2-20.67c6-3.78 9.47-4.46 9.47-4.46l12.89 10L67 65.33s-1.81 5.37-5 7.94-18.62 8.99-20.52 8.08z" fill="#fff" stroke="#e4f3f9" stroke-linejoin="round" stroke-width="2"/><path d="M100.37 92.3s1.21-2.1-1.51-5.08S90 79.4 88.48 76.68s-19.4-39.82-40.06-38.43c0 0 16.73 29.28 31.61 41.14S98 92.34 100.37 92.3zM75 92.11s-4.81.88-7.43 3.13-5.53 4.83-9 5.27-8.26.66-8.26.66l6.88-6.25 11.89-4.24 4.74-.4z" fill="#fff" stroke="#e4f3f9" stroke-linejoin="round" stroke-width="2"/><path d="M68.09 92.46a8.05 8.05 0 0 1 6.91-.35c3.65 1.61 11.25 4.81 25.37.19 0 0-7.71.29-11.24-1.27S80.31 81 73.07 87.36z" fill="#fff" stroke="#e4f3f9" stroke-linejoin="round" stroke-width="2"/><path d="M41.42 99s2.85 2.93 6.31 3 8.63-5.54 11.27-6.67 6.56-1.22 8.54-2.28 5.57-5.69 5.57-5.69-9.87 1.35-14.88 3.12c-4.57 1.6-9.7 9.08-16.81 8.52z" fill="#fff" stroke="#e4f3f9" stroke-linejoin="round" stroke-width="2"/><path d="M41.73 105.33c-.36-5.58-5.66-11.14-5.32-16.2s3.09-6.22 5.07-7.78S55 77.09 62 73.27c0 0-9.53 6.93-11.53 15.63-2.47 10.35-8.42 21.26-8.74 16.43zm267.72-67.08s-14.13-5.85-20.88-4.41S274 38.66 268.81 49s2.57 24.67.58 27.69zm9.28 58.07s-3 5.2-2.5 7.57-2.73 1.52-4.5 1.25A22.8 22.8 0 0 1 308 104c-1.21-.33-1.53-4-1.53-4zM264.41 94a130.1 130.1 0 0 1 12.74 7.32c6.11 4.06 10.14 2.22 10.14 2.22a8.85 8.85 0 0 1-3.62-3.14c-1.19-2.06-7.91-5.9-10-6.1s-9.26-.3-9.26-.3z" fill="#fff" stroke="#e4f3f9" stroke-linejoin="round" stroke-width="2"/><path d="M311.73 105.14s-10.88 0-15.14.49a13.84 13.84 0 0 1-9.39-1.79 22.3 22.3 0 0 1-6.12-5.36l21.1 2.09z" fill="#fff" stroke="#e4f3f9" stroke-linejoin="round" stroke-width="2"/><path d="M298.13 99.93s-6.87 2-11.52 1a13.39 13.39 0 0 1-5.92-2.75 73.35 73.35 0 0 0-7.05-3.94l8.9-3.16 13 5zm.36-1.32s4.15 6.21 8.41 7 9.92.19 8.52-2.33c-1.13-2-5.69-3.94-5.69-3.94z" fill="#fff" stroke="#e4f3f9" stroke-linejoin="round" stroke-width="2"/><path d="M280.14 93.22s2.6 3.12 5.69 4a10.86 10.86 0 0 0 6.91-.57c.81-.42-8.37-6.83-8.37-6.83z" fill="#fff" stroke="#e4f3f9" stroke-linejoin="round" stroke-width="2"/><path fill="#fff" stroke="#e4f3f9" stroke-linejoin="round" stroke-width="2" d="M312.98 99.37l-13.59-6.95-20.28-5.44-10.6 5.34-6.12.65-4.89-.67 19.29-13.15 13.94-15.88 4.17 4.09 17.34 26.55.74 5.46z"/><path d="M316.4 81.35s7.08-11.14 8.73-18-.56-16-6.21-20.67c-6-3.78-9.47-4.46-9.47-4.46l-12.89 10-5.69 17.06s1.81 5.37 5 7.94 18.63 9.04 20.53 8.13z" fill="#fff" stroke="#e4f3f9" stroke-linejoin="round" stroke-width="2"/><path d="M257.5 92.3s-1.21-2.1 1.51-5.08 8.91-7.82 10.38-10.54 19.41-39.82 40.06-38.43c0 0-16.73 29.28-31.61 41.14S259.86 92.34 257.5 92.3zm25.38-.19s4.8.88 7.43 3.13 5.52 4.83 9 5.27 8.25.66 8.25.66l-6.88-6.25-11.88-4.24-4.73-.4z" fill="#fff" stroke="#e4f3f9" stroke-linejoin="round" stroke-width="2"/><path d="M289.78 92.46a8 8 0 0 0-6.9-.35c-3.66 1.61-11.26 4.81-25.38.19 0 0 7.71.29 11.25-1.27s8.81-10.03 16.05-3.67z" fill="#fff" stroke="#e4f3f9" stroke-linejoin="round" stroke-width="2"/><path d="M316.45 99s-2.85 2.93-6.31 3-8.63-5.54-11.23-6.67-6.56-1.22-8.53-2.28-5.58-5.69-5.58-5.69 9.87 1.35 14.88 3.12c4.53 1.6 9.66 9.08 16.77 8.52z" fill="#fff" stroke="#e4f3f9" stroke-linejoin="round" stroke-width="2"/><path d="M316.14 105.33c.36-5.58 5.66-11.14 5.32-16.2s-3.09-6.22-5.06-7.78-13.54-4.26-20.49-8.08c0 0 9.53 6.93 11.53 15.63 2.39 10.35 8.39 21.26 8.7 16.43z" fill="#fff" stroke="#e4f3f9" stroke-linejoin="round" stroke-width="2"/></svg>