<svg version="1" xmlns="http://www.w3.org/2000/svg" width="1506.667" height="1506.667" viewBox="0 0 1130 1130"><path d="M601.6 31.7c-2.6.4-1.8 1 8.4 6.5 12.1 6.4 22.7 12.8 35.4 21.4 5.6 3.9 10.8 6.3 18.6 8.8 12.5 4.1 63.6 16.9 74.3 18.7l7.2 1.2 13.5-4.5c7.4-2.5 17.4-5.6 22.3-6.8 4.8-1.3 8.6-2.4 8.5-2.5-.2-.2-7.5-2.2-16.3-4.5-22.4-5.8-57.4-16-81-23.6-22.6-7.3-36.1-11-48.5-13.1-8.7-1.4-37.1-2.6-42.4-1.6zm-121.1 7c-7.7.9-24.9 4.9-34 7.8-5.5 1.8-21 7.1-34.5 11.8-13.5 4.6-30.9 10.4-38.7 12.8-7.9 2.3-14.3 4.7-14.3 5.1 0 .4.5.8 1.1.8 1.5 0 20 10.3 29.6 16.6l8.3 5.3 13.2-.6 13.3-.6 20-9.7c32.1-15.7 56.2-25 81-31.5 10.6-2.8 29.4-6.2 35.6-6.6 2.9-.1-10-4-21.1-6.4-22.2-4.6-45.3-6.5-59.5-4.8zm88 40.9c-20.2 1.9-37.5 5.7-56.7 12.3-16.1 5.6-37 14.3-36.1 15.1.5.4 3.1 1.5 5.8 2.5 2.8.9 9.5 3.5 15.1 5.6l10.1 3.9 9.4-4.9c10.9-5.7 21.6-9.9 34.4-13.5 13.3-3.8 21.4-4.8 37-4.8 23.5-.1 42.4 5.1 71.1 19.3l16.2 8 8.8-5.2c15.4-9.1 15-8.7 13.4-9.3-.8-.3-8.7-2.3-17.4-4.6-8.8-2.3-23.2-6.6-32-9.7-23.5-8.1-34.1-11.2-43.1-12.8-8.4-1.4-29.2-2.6-36-1.9zm-293 12c-18.3 2.7-48.5 10.9-50.1 13.6-.4.5 3.1 4.8 7.7 9.4l8.5 8.4 6.4-2.6c12.8-5.2 24.1-6.3 43-4.3l10.5 1.1 22.9-4.6c12.6-2.5 23.7-4.6 24.7-4.6 9.7 0-16.3-11.9-35.1-16.1-10.1-2.2-25.2-2.4-38.5-.3zM852 93.7c-17.1 1.8-49.1 8.3-69 14-47.9 13.7-81.2 30.9-127.3 66.1-14 10.6-26.1 17.5-37.5 21.3-6.6 2.2-6.6 2.2-4.2 3.8 1.3.9 7.6 5.3 14 9.9 20.9 15 37 21.1 57.7 21.9 14.7.6 23.4-1 34.9-6.6 19.3-9.4 34.6-24.7 60.2-60.3 30.1-41.8 38-49.2 68.7-64.4 13.4-6.6 13.5-6.9 2.5-5.7zm100.2 4c-25.1 15.4-63.1 56.6-123.7 134.3-21.8 27.9-71.5 94.7-81.1 109-60.5 89.9-122.7 227.6-183.1 405-18.6 54.7-54.3 169.6-54.3 174.9 0 2.1 26.3-9 40.5-17.1 83.3-47.2 156.1-148.2 217.5-301.9 30.9-77.3 59.6-172.5 81-269.2 6.2-28 7.6-32.5 16-49.6 8.5-17.4 18-33.7 36.5-63.1 33.6-53.5 39.5-63.1 46.3-75.5 9.8-17.9 12.5-26.3 12.6-38.7.1-5.6-.3-10.1-1-10.8-.7-.7-2.8.1-7.2 2.7zm-762.9 19.4c.4 1.3.9 8.2 1.3 15.4 1 19.3-1.4 41.4-8.1 77-12.6 66.8-14.3 82.3-11.1 104.5 3 20.5 13.5 42.8 27 56.8 10.8 11.3 22.6 18 50.6 28.5 20.5 7.7 25.6 8.4 116.5 14.2 21.5 1.4 49.1 3.4 61.4 4.6 12.3 1.1 22.5 1.8 22.8 1.5.2-.2-2.7-2.5-6.6-5-21.8-14.1-44.9-32.5-64-51.1-22.9-22.3-36.7-40-51.6-66.5-31.2-55.2-56.7-92.9-90.2-133.3-12.7-15.3-41.8-45.3-46.2-47.6-2.3-1.3-2.4-1.2-1.8 1z"/><path d="M872.3 121.8c-13.1 5.7-26.3 13.1-33.6 18.8-7.6 5.9-14.6 14.3-31.2 37.4-24.5 34.1-39.7 50.9-57 63.3-9 6.4-24.8 14-34.8 16.7-21.6 5.9-48.3 3.5-73.9-6.7l-9.3-3.6-33 3.1c-94.7 9.2-152.4 10.7-182.4 4.6-12.3-2.5-34.4-10.4-69.1-24.8-17.8-7.4-32.6-13.3-32.8-13.2-.2.2 3.2 6 7.6 12.7 9.9 15.6 15.6 25.2 27.2 45.9 14.9 26.5 23 37.8 40.4 56.5 33.6 36.1 88.4 73.3 144.6 98.2 24.2 10.7 35 17 50.5 29.3 10.3 8.2 25.9 23.4 34.3 33.3 3.6 4.2 6.9 7.4 7.3 7 .4-.5 6.2-12.5 12.9-26.8C667 416 694.6 366 721.4 326c10.9-16.3 52.2-72.1 78.5-106 28.5-36.9 53.8-67.8 73.8-90.3 6.3-7 11.1-12.7 10.6-12.7-.4 0-5.8 2.2-12 4.8zm-297.2 4.3c-8 .9-23.4 4.9-29.7 7.5l-3.8 1.6 2.8 1.5c6.5 3.4 20.9 7.5 34.6 10 11.6 2 18.9 2.6 36.5 3l22 .5 4.9-3.8 4.9-3.9-7.9-3.7c-22.4-10.6-45.2-15.1-64.3-12.7zM407 128.5c-.8.2-12 2.1-24.8 4.1-12.8 2-23 4-22.5 4.5 1.4 1.3 44.4 18.6 55.6 22.4 17.3 5.8 33.9 6.6 72.7 3.5 6.3-.5 17.1-1.2 24-1.6l12.5-.7-13.5-6.4c-23.8-11.4-45.2-19.3-63-23.5-7.9-1.8-36.7-3.4-41-2.3z"/><path d="M266.5 145.9c-1.6.3-2.9 1-2.9 1.5.1.4 5 7 10.9 14.6l10.7 13.8 6.1 1.7c17.6 4.9 35 11.5 77.8 29.3 47.3 19.8 58 22.2 99.3 22.2 33.8 0 123.6-5.9 123.6-8.1 0-1-14.9-10.3-28.5-17.8-19.4-10.8-31.2-13.1-58.5-11.2-42.7 3-56.8 3.4-69.1 2.3-20.2-1.9-27.8-4.3-72.9-23-54.2-22.4-79.3-29-96.5-25.3zm598 251.4C822.6 564.9 764.1 706.8 697.6 802c-40.7 58.3-87.3 103.5-131.3 127.2-7.1 3.9-7.5 4.2-5.2 5.1 3.8 1.6 99.7 1.5 114.9-.1 40-4.1 65.1-9.7 84.5-18.6 9.8-4.6 33.6-18.2 47.1-27.2 74.1-48.8 121.6-116.8 143.8-205.9 6.2-24.7 7.1-32.3 7.1-58.5-.1-21-.4-26.3-2.4-37.5-7.1-40.7-20.1-77-46.2-130-11.4-23.2-39-77-40.1-78-.2-.3-2.6 8.2-5.3 18.8zm-602.9 39.4c-6.1 19.9-18.7 68-24.6 94.3-21.8 96.5-24.9 146.3-12.5 196.7 18.4 74.8 65.3 139.8 124.5 172.6 16.8 9.3 81.3 24 120 27.3l7.5.6 7.4-25.9c33.5-117 74.8-237.4 115.6-336.3 6.5-15.7 12.2-29.7 12.8-31.1.9-2.4.5-3.3-5.4-10.5-14.9-18.3-34.1-36.9-49.2-47.8-14.2-10.1-19.9-12.4-41.2-16.7-37.3-7.4-78.8-11.7-167-17.4-48.3-3.1-70.6-5-83.7-7.1-2.9-.4-3.7-.2-4.2 1.3zm203.2 527.6c20.7 30.6 31.2 62.3 29.9 90.1-.7 14.3-3.2 24.8-8.6 36.3-4.5 9.4-4.6 9.3 6.4 9.3 15.7 0 20.9-1.6 75-24.1 28.1-11.6 51.5-21.3 52.1-21.6.7-.2 1.5-3 1.9-6.1 2.4-20.4 11.9-42.1 30.7-70.6 4.4-6.5 7.8-11.9 7.6-12.1-.2-.1-9.1.1-19.8.4l-19.4.6-6.9 36c-3.8 19.8-7.5 37.5-8.4 39.3-3.5 7.4-13.8 10.4-20.2 6-5.6-3.8-7-6.6-9.8-20.3-2.3-11.4-2.7-16-3-37.8-.5-24.5-.5-24.7-2.6-24.7-4.4 0-43.7-3-64.2-4.9-11.5-1.1-26.5-2.2-33.3-2.5l-12.3-.6 4.9 7.3z"/></svg>