<svg xmlns="http://www.w3.org/2000/svg" viewBox="0 0 566.93 566.93"><linearGradient id="a" gradientUnits="userSpaceOnUse" x1="110.384" y1="285.56" x2="455.175" y2="285.56"><stop offset="0" stop-color="#27789d"/><stop offset=".003" stop-color="#27799e"/><stop offset=".056" stop-color="#2d89b3"/><stop offset=".113" stop-color="#3095c5"/><stop offset=".177" stop-color="#339ed1"/><stop offset=".25" stop-color="#35a5da"/><stop offset=".341" stop-color="#36a8df"/><stop offset=".503" stop-color="#36a9e1"/><stop offset=".613" stop-color="#36a8df"/><stop offset=".709" stop-color="#35a3d8"/><stop offset=".8" stop-color="#329bcc"/><stop offset=".887" stop-color="#2f8fbc"/><stop offset=".971" stop-color="#297ea6"/><stop offset="1" stop-color="#27789d"/></linearGradient><path d="M110.384 526.033s-.002 34.31 171.603 34.34c172.527.03 171.814-33.262 171.814-33.262l1.374-437.73s-5.284-78.64-171.533-78.635c-173.24.006-171.884 77.557-171.884 77.557l-1.374 437.73z" fill="url(#a)"/><linearGradient id="b" gradientUnits="userSpaceOnUse" x1="44.516" y1="419.903" x2="522.768" y2="419.903"><stop offset="0" stop-color="#1d619d"/><stop offset=".01" stop-color="#1d629f"/><stop offset=".098" stop-color="#1e68aa"/><stop offset=".196" stop-color="#1e6db2"/><stop offset=".31" stop-color="#1d70b7"/><stop offset=".479" stop-color="#1d71b8"/><stop offset=".634" stop-color="#1d70b6"/><stop offset=".772" stop-color="#1e6cb0"/><stop offset=".904" stop-color="#1d67a7"/><stop offset="1" stop-color="#1d619d"/></linearGradient><path d="M522.722 438.703c-14.533-62.865-49.191-97.892-60.434-107.893a6.352 6.352 0 0 0-7.471-.713l-171.175 100.21-171.175-100.21a6.352 6.352 0 0 0-7.471.713c-11.243 10.001-45.901 45.028-60.434 107.893 0 0-1.685 15.87 15.404 22.138 21.924 8.042 38.016 4.259 61.823 10.06 13.401 3.264 22.323 17.263 36.705 22.058 14.383 4.794 34.475-1.75 57.647.647 22.955 2.374 23.857 16.998 67.501 16.998 43.644 0 44.546-14.624 67.501-16.998 23.172-2.397 43.264 4.147 57.647-.647 14.382-4.795 23.304-18.794 36.705-22.059 23.807-5.8 39.899-2.017 61.823-10.059 17.09-6.268 15.404-22.138 15.404-22.138z" fill="url(#b)"/><linearGradient id="c" gradientUnits="userSpaceOnUse" x1="109.973" y1="259.037" x2="454.779" y2="259.037"><stop offset="0" stop-color="#1d71b8"/><stop offset=".859" stop-color="#1d71b8"/><stop offset="1" stop-color="#1d71b8"/></linearGradient><path fill="url(#c)" d="M454.779 192.207l-.236 95.371-36.087 54.6-300.689-27.366-7.794-27.234 1.67-95.371 6.739-16.311h329.457z"/><linearGradient id="d" gradientUnits="userSpaceOnUse" x1="87.419" y1="388.479" x2="479.866" y2="388.479"><stop offset="0" stop-color="#f4f4f4"/><stop offset=".479" stop-color="#f8f8f8"/><stop offset=".901" stop-color="#f6f6f6"/><stop offset="1" stop-color="#f4f4f4"/></linearGradient><path d="M450.216 329.203l-166.574 26.794-166.574-26.794s-25.309 32.365-29.65 72.229c10.302 10.764 32.392-1.681 53.476 23.837 12.543 15.18 60.197 29.145 84.292 19.07 15.485-6.475 46.015-11.063 58.456-11.063 12.441 0 42.495 6.025 58.456 11.063 24.831 7.838 70.358-1.955 84.292-19.07 12.437-15.277 50.467-11.188 53.476-23.837-9.7-49.727-29.65-72.229-29.65-72.229z" fill="url(#d)"/><linearGradient id="e" gradientUnits="userSpaceOnUse" x1="29.712" y1="148.886" x2="536.71" y2="148.886"><stop offset="0" stop-color="#1c5d97"/><stop offset=".004" stop-color="#1c5e99"/><stop offset=".046" stop-color="#1d65a4"/><stop offset=".095" stop-color="#1e6aad"/><stop offset=".156" stop-color="#1e6eb3"/><stop offset=".241" stop-color="#1d70b7"/><stop offset=".479" stop-color="#1d71b8"/><stop offset=".738" stop-color="#1d70b7"/><stop offset=".831" stop-color="#1e6eb3"/><stop offset=".897" stop-color="#1e6aad"/><stop offset=".95" stop-color="#1d65a4"/><stop offset=".996" stop-color="#1c5e99"/><stop offset="1" stop-color="#1c5d97"/></linearGradient><path d="M282.78 130.503s-74.614 10.29-196.224-35.662c-16.16 4.521-58.977 24.758-51.158 75.935 0 0-5.686-.71-5.686 9.24 0 0 65.111 34.666 81.93 12.191 18.13-24.224 162.682 1.482 171.569.069 8.887 1.413 157.01-26.593 171.568-.069 16.405 29.89 81.93-12.19 81.93-12.19 0-9.952-5.685-9.24-5.685-9.24 7.818-51.178-34.998-71.415-51.158-75.936-121.61 45.953-196.224 35.662-196.224 35.662" fill="url(#e)"/><linearGradient id="f" gradientUnits="userSpaceOnUse" x1="479.866" y1="140.794" x2="363.413" y2="140.794"><stop offset="0" stop-color="#fff"/><stop offset=".928" stop-color="#fff"/><stop offset="1" stop-color="#fff"/></linearGradient><path fill="url(#f)" d="M363.413 167.73l91.762-78.35 24.69 5.461-37.22 65.07-33.458 32.296z"/><linearGradient id="g" gradientUnits="userSpaceOnUse" x1="86.556" y1="140.794" x2="207.083" y2="140.794"><stop offset="0" stop-color="#fff"/><stop offset=".125" stop-color="#fff"/><stop offset="1" stop-color="#fff"/></linearGradient><path fill="url(#g)" d="M207.083 171.989L111.247 89.38l-24.69 5.46 37.22 65.07 33.457 32.296z"/><linearGradient id="h" gradientUnits="userSpaceOnUse" x1="123.776" y1="261.814" x2="442.645" y2="261.814"><stop offset="0" stop-color="#f4f4f4"/><stop offset=".479" stop-color="#f8f8f8"/><stop offset=".901" stop-color="#f6f6f6"/><stop offset="1" stop-color="#f4f4f4"/></linearGradient><path d="M283.577 372.334c145.49 0 145.49-53.365 145.49-53.365 0-35.108-3.886-47.106.337-75.82 11.419-77.63 13.241-83.238 13.241-83.238-43.827-30.157-90.059 28.116-159.068 33.195-65.382-2.538-107.818-52.312-159.8-33.195 0 0 3.512 8.413 13.24 83.239 3.496 26.882-.078 40.6-.078 75.707 0 0 10.729 53.479 146.638 53.477z" fill="url(#h)"/><linearGradient id="i" gradientUnits="userSpaceOnUse" x1="283.642" y1="114.618" x2="455.175" y2="114.618"><stop offset="0" stop-color="#2585c7"/><stop offset=".368" stop-color="#2584c5"/><stop offset=".571" stop-color="#2581c1"/><stop offset=".733" stop-color="#247cb9"/><stop offset=".873" stop-color="#2375ae"/><stop offset=".999" stop-color="#216b9f"/><stop offset="1" stop-color="#216b9f"/></linearGradient><path d="M455.175 89.38s-3.626-18.297-8.954-22.672c-10.649-7.649-68.078 53.186-162.579 63.795l54.853 32.688s61.762-14.162 116.68-73.81z" fill="url(#i)"/><linearGradient id="j" gradientUnits="userSpaceOnUse" x1="111.22" y1="114.949" x2="282.78" y2="114.949"><stop offset="0" stop-color="#1f6596"/><stop offset=".068" stop-color="#226fa5"/><stop offset=".15" stop-color="#2477b1"/><stop offset=".247" stop-color="#247dbb"/><stop offset=".366" stop-color="#2582c2"/><stop offset=".534" stop-color="#2584c6"/><stop offset="1" stop-color="#2585c7"/></linearGradient><path d="M111.247 89.38s-.863-16.359 7.158-22.233c11.626-6.073 69.874 52.747 164.375 63.356l-53.99 32.688s-62.625-14.162-117.543-73.81z" fill="url(#j)"/><linearGradient id="k" gradientUnits="userSpaceOnUse" x1="106.337" y1="329.956" x2="458.297" y2="329.956"><stop offset="0" stop-color="#fff"/><stop offset=".068" stop-color="#fff"/><stop offset=".479" stop-color="#fff"/><stop offset=".926" stop-color="#fff"/><stop offset="1" stop-color="#fff"/></linearGradient><path d="M454.543 287.578s-4.164 35.069-172.285 35.069-172.285-35.069-172.285-35.069l-3.636 41.595s2.84 43.161 175.92 43.161 176.04-43.123 176.04-43.123l-3.754-41.633z" fill="url(#k)"/><path d="M283.66 10.746c107.264 0 147.511 32.741 162.57 55.97 2.46 2.027 4.555 7.02 6.099 11.806 2.557 6.572 2.846 10.859 2.846 10.859l24.69 5.46c16.161 4.521 58.977 24.758 51.159 75.935 0 0 .088-.01.244-.01 1.089 0 5.442.544 5.442 9.25 0 0-35.678 22.911-60.97 22.911-8.936 0-16.576-2.86-20.888-10.598l-.3 95.359 3.745 41.523v.015a6.326 6.326 0 0 1 3.991 1.584c11.243 10 45.901 45.028 60.434 107.893 0 0 1.686 15.87-15.404 22.138-19.218 7.05-33.955 5.014-53.335 8.31l-.182 57.96s.725 33.263-171.58 33.263h-.234c-171.605-.03-171.603-34.34-171.603-34.34l.18-57.317c-18.055-2.687-32.295-1.163-50.598-7.876-17.09-6.268-15.404-22.138-15.404-22.138 14.533-62.865 49.191-97.892 60.434-107.893.445-.396.94-.705 1.457-.956-.1-.44-.116-.68-.116-.68l3.636-41.595s.04.335.268.939l-.268-.94 1.413-80.7.045-14.41c-4.144 5.302-11.06 7.312-19.17 7.312-25.423 0-62.55-19.763-62.55-19.763 0-8.708 4.354-9.252 5.443-9.252.155 0 .244.011.244.011C27.58 119.6 70.395 99.362 86.556 94.841l24.69-5.46s-.862-16.36 7.159-22.234c13.013-22.963 51.49-56.397 165.237-56.4h.018m0-5h-.018c-51.112.001-92.297 6.735-122.411 20.015-21.825 9.624-37.525 22.427-46.683 38.063-6.53 5.547-8.002 15.694-8.28 21.536L85.477 89.96c-.09.02-.18.042-.268.067-5.006 1.4-22.455 7.111-36.8 21.792-14.415 14.752-20.762 33.907-18.484 55.603-2.616 1.74-5.213 5.305-5.213 12.596a5 5 0 0 0 2.65 4.413c1.561.831 38.531 20.35 64.9 20.35 5.467 0 10.19-.835 14.138-2.494l-.014 4.54-1.41 80.491-3.49 39.923c-5.983 5.346-17.62 16.864-29.636 34.923-14.974 22.505-25.794 47.878-32.16 75.414-.045.197-.079.397-.1.598-.726 6.83 2.24 21.34 18.654 27.36 12.897 4.73 23.627 5.558 34.986 6.433 3.987.307 8.076.622 12.32 1.125l-.166 52.925c0 2.013 1.185 12.452 24.592 21.817 29.06 11.625 80.203 17.526 152.01 17.539h.234c54.782 0 97.895-3.357 128.14-9.977 21.399-4.684 36.01-10.902 43.427-18.483 4.591-4.692 5.013-8.553 5.014-9.795l.169-53.675c5.252-.721 10.236-1.105 15.09-1.478 11.357-.875 22.084-1.7 34.98-6.43 16.414-6.02 19.38-20.53 18.655-27.361a5.01 5.01 0 0 0-.101-.598c-6.366-27.536-17.186-52.91-32.16-75.414-12.142-18.249-23.896-29.817-29.823-35.089a11.21 11.21 0 0 0-2.644-1.749l-3.414-37.853.262-83.275c5.223 2.926 11.074 3.73 15.924 3.73 26.456 0 62.165-22.735 63.673-23.703a5 5 0 0 0 2.298-4.207c0-7.292-2.597-10.856-5.213-12.596 2.278-21.696-4.07-40.851-18.484-55.603-14.346-14.68-31.794-20.392-36.8-21.792a4.998 4.998 0 0 0-.268-.067l-21.371-4.726c-.443-2.098-1.21-4.964-2.532-8.385-2.149-6.625-4.384-10.927-6.985-13.415-10.33-15.644-26.654-28.425-48.531-37.994C371.65 12.372 331.994 5.746 283.66 5.746z"/></svg>