<?xml version="1.0" encoding="utf-8"?>
<!-- Generator: Adobe Illustrator 22.1.0, SVG Export Plug-In . SVG Version: 6.00 Build 0)  -->
<svg version="1.1" id="Laag_1" xmlns="http://www.w3.org/2000/svg" xmlns:xlink="http://www.w3.org/1999/xlink" x="0px" y="0px"
	 viewBox="0 0 566.9299927 566.9299927" style="enable-background:new 0 0 566.9299927 566.9299927;" xml:space="preserve">
<style type="text/css">
	.st0{fill:url(#SVGID_1_);}
	.st1{fill:url(#SVGID_2_);}
	.st2{fill:url(#SVGID_3_);}
	.st3{fill:url(#SVGID_4_);}
	.st4{fill:url(#SVGID_5_);}
	.st5{fill:url(#SVGID_6_);}
	.st6{fill:url(#SVGID_7_);}
	.st7{fill:url(#SVGID_8_);}
	.st8{fill:url(#SVGID_9_);}
	.st9{fill:url(#SVGID_10_);}
	.st10{fill:url(#SVGID_11_);}
</style>
<linearGradient id="SVGID_1_" gradientUnits="userSpaceOnUse" x1="110.3843384" y1="285.5601196" x2="455.1747742" y2="285.5601196">
	<stop  offset="0" style="stop-color:#27789D"/>
	<stop  offset="0.0029675" style="stop-color:#27799E"/>
	<stop  offset="0.0556613" style="stop-color:#2D89B3"/>
	<stop  offset="0.1128737" style="stop-color:#3095C5"/>
	<stop  offset="0.1767667" style="stop-color:#339ED1"/>
	<stop  offset="0.2500187" style="stop-color:#35A5DA"/>
	<stop  offset="0.3408282" style="stop-color:#36A8DF"/>
	<stop  offset="0.502544" style="stop-color:#36A9E1"/>
	<stop  offset="0.6129945" style="stop-color:#36A8DF"/>
	<stop  offset="0.7090034" style="stop-color:#35A3D8"/>
	<stop  offset="0.7996323" style="stop-color:#329BCC"/>
	<stop  offset="0.8869733" style="stop-color:#2F8FBC"/>
	<stop  offset="0.9712157" style="stop-color:#297EA6"/>
	<stop  offset="1" style="stop-color:#27789D"/>
</linearGradient>
<path class="st0" d="M110.3843384,526.0334473c0,0-0.0026169,34.3103638,171.602417,34.340332
	c172.5274658,0.0300903,171.8145142-33.2627563,171.8145142-33.2627563l1.3735046-437.7301941
	c0,0-5.2840271-78.6401825-171.5326843-78.6343918c-173.2400208,0.0060282-171.8842468,77.5568085-171.8842468,77.5568085
	L110.3843384,526.0334473z"/>
<linearGradient id="SVGID_2_" gradientUnits="userSpaceOnUse" x1="44.515976" y1="419.9034424" x2="522.7681885" y2="419.9034424">
	<stop  offset="0" style="stop-color:#1D619D"/>
	<stop  offset="0.0100566" style="stop-color:#1D629F"/>
	<stop  offset="0.0979543" style="stop-color:#1E68AA"/>
	<stop  offset="0.195563" style="stop-color:#1E6DB2"/>
	<stop  offset="0.3095654" style="stop-color:#1D70B7"/>
	<stop  offset="0.479387" style="stop-color:#1D71B8"/>
	<stop  offset="0.6341881" style="stop-color:#1D70B6"/>
	<stop  offset="0.7724612" style="stop-color:#1E6CB0"/>
	<stop  offset="0.9039925" style="stop-color:#1D67A7"/>
	<stop  offset="1" style="stop-color:#1D619D"/>
</linearGradient>
<path class="st1" d="M522.7224731,438.7028503c-14.5330811-62.8647461-49.1914673-97.8918457-60.4342651-107.8925171
	c-2.0705566-1.8417969-5.088501-2.1287842-7.4711914-0.7137451L283.6420898,430.3069153L112.4671021,330.0965881
	c-2.3826904-1.4150391-5.4006348-1.1280518-7.4711914,0.7137451
	c-11.2427979,10.0006714-45.9011879,45.027771-60.4342079,107.8925171c0,0-1.6851807,15.8705444,15.4042969,22.1385498
	c21.9244423,8.0412598,38.0157509,4.2583618,61.8228798,10.0587158
	c13.4011841,3.2650757,22.3231201,17.2643433,36.7054443,22.0585327c14.3823853,4.7941284,34.4749146-1.75,57.6464233,0.6470337
	c22.9555054,2.3746948,23.8569336,16.9978638,67.5013428,16.9978638c43.6443481,0,44.5458374-14.6231689,67.5012817-16.9978638
	c23.1715088-2.3970337,43.2640381,4.1470947,57.6464233-0.6470337c14.3823242-4.7941895,23.3042603-18.793457,36.7054443-22.0585327
	c23.8071289-5.800354,39.8984375-2.0174561,61.822876-10.0587158
	C524.4075928,454.5733948,522.7224731,438.7028503,522.7224731,438.7028503z"/>
<linearGradient id="SVGID_3_" gradientUnits="userSpaceOnUse" x1="109.9726334" y1="259.0365601" x2="454.7790222" y2="259.0365601">
	<stop  offset="0" style="stop-color:#1D71B8"/>
	<stop  offset="0.85866" style="stop-color:#1D71B8"/>
	<stop  offset="1" style="stop-color:#1D71B8"/>
</linearGradient>
<polygon class="st2" points="454.7790222,192.207016 454.5426331,287.5784912 418.4557495,342.1771545 117.767334,314.811676 
	109.9726334,287.5784912 111.6426773,192.207016 118.3815918,175.8959808 447.8389587,175.8959808 "/>
<linearGradient id="SVGID_4_" gradientUnits="userSpaceOnUse" x1="87.4185867" y1="388.479248" x2="479.8655701" y2="388.479248">
	<stop  offset="0" style="stop-color:#F4F4F4"/>
	<stop  offset="0.479387" style="stop-color:#F8F8F8"/>
	<stop  offset="0.90065" style="stop-color:#F6F6F6"/>
	<stop  offset="1" style="stop-color:#F4F4F4"/>
</linearGradient>
<path class="st3" d="M450.2162781,329.2033691l-166.5742188,26.7933655l-166.5741882-26.7933655
	c0,0-25.3084793,32.3645325-29.649292,72.2281494c10.301506,10.7641907,32.3916931-1.6807861,53.4756393,23.8374023
	c12.542984,15.1809692,60.1971741,29.1445923,84.2921143,19.0699158c15.4850616-6.4747009,46.014679-11.062561,58.455719-11.062561
	c12.4410706,0,42.4953308,6.0247803,58.4557495,11.062561c24.8313599,7.8377991,70.3580627-1.9547119,84.2921143-19.0699158
	c12.4373474-15.2767944,50.4672852-11.1876831,53.475647-23.8374023
	C470.1665649,351.7050171,450.2162781,329.2033691,450.2162781,329.2033691z"/>
<linearGradient id="SVGID_5_" gradientUnits="userSpaceOnUse" x1="29.7117367" y1="148.8859863" x2="536.7098999" y2="148.8859863">
	<stop  offset="0" style="stop-color:#1C5D97"/>
	<stop  offset="0.0037317" style="stop-color:#1C5E99"/>
	<stop  offset="0.0455935" style="stop-color:#1D65A4"/>
	<stop  offset="0.0946488" style="stop-color:#1E6AAD"/>
	<stop  offset="0.1557352" style="stop-color:#1E6EB3"/>
	<stop  offset="0.241435" style="stop-color:#1D70B7"/>
	<stop  offset="0.479387" style="stop-color:#1D71B8"/>
	<stop  offset="0.7378023" style="stop-color:#1D70B7"/>
	<stop  offset="0.8308719" style="stop-color:#1E6EB3"/>
	<stop  offset="0.8972116" style="stop-color:#1E6AAD"/>
	<stop  offset="0.9504856" style="stop-color:#1D65A4"/>
	<stop  offset="0.9959474" style="stop-color:#1C5E99"/>
	<stop  offset="1" style="stop-color:#1C5D97"/>
</linearGradient>
<path class="st4" d="M282.7795715,130.502594c0,0-74.6131592,10.2913361-196.2234802-35.6615753
	c-16.160675,4.5213165-58.9767532,24.7581558-51.1580276,75.9352417c0,0-5.686327-0.7108002-5.686327,9.2403259
	c0,0,65.1114273,34.664978,81.9309387,12.1904297c18.1285019-24.2236328,162.6814575,1.4820099,171.5681458,0.0690155
	c8.8866882,1.4129944,157.0110474-26.5929413,171.5682068-0.0690155
	c16.4048462,29.8905182,81.9308777-12.1904297,81.9308777-12.1904297c0-9.9511261-5.6863403-9.2403259-5.6863403-9.2403259
	c7.8187256-51.1770859-34.997345-71.4139252-51.15802-75.9352417
	c-121.610321,45.9529114-196.2234802,35.6615753-196.2234802,35.6615753"/>
<linearGradient id="SVGID_6_" gradientUnits="userSpaceOnUse" x1="479.8655701" y1="140.7939453" x2="363.4126587" y2="140.7939453">
	<stop  offset="0" style="stop-color:#FFFFFF"/>
	<stop  offset="0.9277115" style="stop-color:#FFFFFF"/>
	<stop  offset="1" style="stop-color:#FFFFFF"/>
</linearGradient>
<polygon class="st5" points="363.4126587,167.7306061 455.1747742,89.3808289 479.8655701,94.8410645 442.6454773,159.9107056 
	409.1873474,192.2070618 "/>
<linearGradient id="SVGID_7_" gradientUnits="userSpaceOnUse" x1="86.5560837" y1="140.7939453" x2="207.0826263" y2="140.7939453">
	<stop  offset="0" style="stop-color:#FFFFFF"/>
	<stop  offset="0.1254415" style="stop-color:#FFFFFF"/>
	<stop  offset="1" style="stop-color:#FFFFFF"/>
</linearGradient>
<polygon class="st6" points="207.0826263,171.9886322 111.2468643,89.3808289 86.5560837,94.8410645 123.7761841,159.9107056 
	157.234314,192.2070618 "/>
<linearGradient id="SVGID_8_" gradientUnits="userSpaceOnUse" x1="123.7761841" y1="261.8136597" x2="442.6454773" y2="261.8136597">
	<stop  offset="0" style="stop-color:#F4F4F4"/>
	<stop  offset="0.479387" style="stop-color:#F8F8F8"/>
	<stop  offset="0.90065" style="stop-color:#F6F6F6"/>
	<stop  offset="1" style="stop-color:#F4F4F4"/>
</linearGradient>
<path class="st7" d="M283.5774231,372.3344116c145.4902039-0.0012817,145.4902344-53.3659058,145.4902344-53.3659058
	c0-35.1070557-3.8868713-47.1058044,0.3364258-75.8188324c11.418457-77.6309662,13.241394-83.2389679,13.241394-83.2389679
	c-43.8270569-30.1563263-90.0593567,28.1167297-159.0680542,33.1955719
	c-65.3820953-2.5387726-107.818161-52.3123322-159.801239-33.1955719c0,0,3.5129318,8.4129944,13.241333,83.2389679
	c3.4950714,26.88237-0.0784454,40.6002045-0.0784454,75.7072601
	C136.9390717,318.8569336,147.667923,372.3356323,283.5774231,372.3344116z"/>
<linearGradient id="SVGID_9_" gradientUnits="userSpaceOnUse" x1="283.6420898" y1="114.6179657" x2="455.1747742" y2="114.6179657">
	<stop  offset="0" style="stop-color:#2585C7"/>
	<stop  offset="0.3682471" style="stop-color:#2584C5"/>
	<stop  offset="0.5706201" style="stop-color:#2581C1"/>
	<stop  offset="0.7327792" style="stop-color:#247CB9"/>
	<stop  offset="0.8726767" style="stop-color:#2375AE"/>
	<stop  offset="0.9985124" style="stop-color:#216B9F"/>
	<stop  offset="1" style="stop-color:#216B9F"/>
</linearGradient>
<path class="st8" d="M455.1747742,89.3808289c0,0-3.6260681-18.298233-8.9536743-22.6727905
	c-10.6486816-7.6488266-68.078186,53.1863556-162.57901,63.7945709l54.8526306,32.688324
	C338.4947205,163.1909332,400.2566833,149.0286713,455.1747742,89.3808289z"/>
<linearGradient id="SVGID_10_" gradientUnits="userSpaceOnUse" x1="111.219841" y1="114.9494858" x2="282.7795715" y2="114.9494858">
	<stop  offset="0" style="stop-color:#1F6596"/>
	<stop  offset="0.0683684" style="stop-color:#226FA5"/>
	<stop  offset="0.1502272" style="stop-color:#2477B1"/>
	<stop  offset="0.2469175" style="stop-color:#247DBB"/>
	<stop  offset="0.3664917" style="stop-color:#2582C2"/>
	<stop  offset="0.5342257" style="stop-color:#2584C6"/>
	<stop  offset="1" style="stop-color:#2585C7"/>
</linearGradient>
<path class="st9" d="M111.2468643,89.3808289c0,0-0.8625259-16.3596573,7.1581039-22.2341614
	c11.6262054-6.0731621,69.873764,52.7477264,164.3746033,63.3559418l-53.9901428,32.688324
	C228.7894287,163.1909332,166.1649628,149.0286713,111.2468643,89.3808289z"/>
<linearGradient id="SVGID_11_" gradientUnits="userSpaceOnUse" x1="106.3368301" y1="329.9564514" x2="458.2973938" y2="329.9564514">
	<stop  offset="0" style="stop-color:#FFFFFF"/>
	<stop  offset="0.0677565" style="stop-color:#FFFFFF"/>
	<stop  offset="0.479387" style="stop-color:#FFFFFF"/>
	<stop  offset="0.9264165" style="stop-color:#FFFFFF"/>
	<stop  offset="1" style="stop-color:#FFFFFF"/>
</linearGradient>
<path class="st10" d="M454.5426331,287.5784912c0,0-4.163269,35.0682373-172.2850342,35.0682373
	s-172.2849731-35.0682373-172.2849731-35.0682373l-3.6358032,41.5948486c0,0,2.8405762,43.1610718,175.9207764,43.1610718
	s176.0397949-43.1232605,176.0397949-43.1232605L454.5426331,287.5784912z"/>
<g>
	<path d="M283.6604919,10.746439c107.2631836,0,147.5109863,32.7405853,162.5689087,55.9691696
		c2.4598999,2.0273361,4.5556641,7.020668,6.0994873,11.8066635c2.5570984,6.5713348,2.8459167,10.8585052,2.8459167,10.8585052
		l24.6905823,5.4603271c0.0000916,0,0.0000916-0.0000763,0.0001831-0.0000763
		c16.160675,4.5212479,58.9767151,24.7581635,51.1579895,75.9352493c0,0,0.0887451-0.0111237,0.2443848-0.0111084
		c1.0887451,0.000061,5.4419556,0.5447693,5.4419556,9.251358c0,0-35.6774597,22.9108276-60.9706421,22.9108276
		c-8.9352417,0-16.5750122-2.8594971-20.8875122-10.5983276l-0.2991943,95.3589935l3.7448425,41.5231018
		c0,0-0.0004883,0.0058289-0.0011597,0.0144958c1.4411621,0.0524902,2.8588257,0.5767517,3.9920044,1.5846558
		c11.2427368,10.0006714,45.9011536,45.027832,60.4342346,107.8925781c0,0,1.6851196,15.8705139-15.4043274,22.1385193
		c-19.2182617,7.0487366-33.9552612,5.0131531-53.3349915,8.3096619l-0.1819153,57.9599915
		c0,0,0.7249756,33.2627563-171.5808716,33.2627563c-0.0736389,0-0.1599121,0-0.2336426,0
		c-171.6049957-0.0300293-171.602417-34.3403931-171.602417-34.3403931l0.1799164-57.3162842
		c-18.0548325-2.686676-32.2955856-1.1628418-50.5982513-7.8757324
		c-17.0894165-6.2680054-15.4042473-22.1385193-15.4042473-22.1385193
		c14.5329971-62.8647461,49.1914177-97.8919067,60.4341621-107.8925781
		c0.4451675-0.3959961,0.9402542-0.7051697,1.4573364-0.9559937c-0.0999985-0.4410095-0.1164169-0.6809082-0.1164169-0.6809082
		l3.6358337-41.5948486c0,0,0.0405807,0.3356628,0.268837,0.9390869l-0.268837-0.9390869l1.4131699-80.7009125l0.0452499-14.4104156
		c-4.1439972,5.3027954-11.0608749,7.3125763-19.1697235,7.3125763c-25.4235458,0-62.549614-19.7632446-62.549614-19.7632446
		c0-8.7071991,4.3535748-9.2513733,5.4419727-9.251358c0.1554871,0,0.2443581,0.0111084,0.2443581,0.0111084
		c-7.8187485-51.1770859,34.9974213-71.4140015,51.1580048-75.9352493c0.0000839,0,0.0000839,0.0000763,0.0001602,0.0000763
		l24.6906738-5.4603271c0,0-0.8625031-16.3590851,7.1577454-22.2338333
		c13.0131683-22.9629211,51.4905853-56.3965874,165.2374115-56.4005051
		C283.6486206,10.746439,283.6539612,10.746439,283.6604919,10.746439 M283.6604919,5.7464395h-0.0184326
		c-51.1121674,0.00175-92.2972412,6.7359996-122.4112396,20.015667
		c-21.8246002,9.6242542-37.5250702,22.4272976-46.6828842,38.0633698
		c-6.530838,5.5463715-8.0017014,15.6934662-8.2799606,21.535614l-20.7914124,4.5980148
		c-0.0897446,0.0198364-0.1789169,0.0420837-0.2674103,0.0669174c-5.0060883,1.4004974-22.4547539,7.1110001-36.8005028,21.7922516
		c-14.4141541,14.7513351-20.7616978,33.906395-18.4836864,55.6025314
		c-2.6158867,1.740509-5.2132301,5.3047791-5.2132301,12.5957184c0,1.8479919,1.019249,3.5452423,2.6504993,4.4135742
		c1.5609169,0.8309174,38.5308342,20.3496704,64.8990784,20.3496704c5.4681244,0,10.1907578-0.8349609,14.1388702-2.4933167
		l-0.0142593,4.5400391l-1.4094849,80.4905548l-3.4897079,39.9232178
		c-5.9838028,5.3461609-17.6209869,16.8632812-29.6368332,34.9225159
		c-14.9739189,22.5050659-25.7939987,47.8779907-32.159668,75.4139099
		c-0.0455818,0.1971741-0.0791664,0.3969116-0.1005821,0.5982361c-0.7252502,6.8309326,2.2400818,21.3401794,18.654583,27.3606873
		c12.8971634,4.7302551,23.6265869,5.5570068,34.9860001,6.4321594c3.9871597,0.3072205,8.0761795,0.6222839,12.3202133,1.1253967
		l-0.1661301,52.92453c-0.0001678,2.0128784,1.1847534,12.4525146,24.5921707,21.8168945
		c29.0593262,11.6256104,80.2026672,17.5266113,152.0094147,17.5391846h0.2344971
		c54.7819214,0,97.8943481-3.3566895,128.13974-9.9767456c21.3987732-4.6836548,36.0095825-10.9021606,43.4266663-18.482666
		c4.591156-4.6923828,5.0133972-8.5532837,5.0144653-9.7953491l0.168457-53.6747131
		c5.2527161-0.7213745,10.2366333-1.1050415,15.0895996-1.4786987c11.3573303-0.8743286,22.0847473-1.7001648,34.9805603-6.4299927
		c16.4145203-6.0205078,19.3799133-20.5297546,18.6546936-27.3606873c-0.0214233-0.2012329-0.0549927-0.401062-0.1005859-0.5982361
		c-6.3657837-27.5359192-17.1858521-52.908844-32.1597595-75.4139099
		c-12.1418457-18.2485962-23.8966675-29.8168335-29.8228455-35.0883484c-0.79599-0.7080383-1.6878052-1.2952576-2.6441956-1.7492065
		l-3.4139099-37.8536682l0.261261-83.2750092c5.223114,2.9265289,11.0744629,3.7308044,15.9246826,3.7308044
		c26.4562683,0,62.1652527-22.7357483,63.6723938-23.7035828c1.432251-0.9198303,2.2982788-2.5050812,2.2982788-4.2072449
		c0-7.2913818-2.597168-10.8551788-5.2132568-12.5955811c2.2780151-21.6960754-4.069458-40.8513336-18.4836426-55.6026688
		c-14.3456116-14.6811676-31.794281-20.3918381-36.800354-21.7923355c-0.088501-0.0248337-0.1776733-0.047081-0.2674255-0.0670013
		l-21.3712158-4.7261505c-0.442749-2.0974426-1.2095032-4.9635925-2.5315552-8.3846893
		c-2.1489563-6.6255569-4.3848572-10.9267807-6.9856873-13.4150467
		c-10.3291626-15.6437302-26.653595-28.4246902-48.531189-37.9936981
		C371.6499939,12.3721056,331.9943848,5.7464395,283.6604919,5.7464395L283.6604919,5.7464395z"/>
</g>
</svg>
