<svg id="Laag_1" xmlns="http://www.w3.org/2000/svg" viewBox="0 0 566.93 566.93"><style>.st1{display:none;fill:#be1622}</style><linearGradient id="SVGID_1_" gradientUnits="userSpaceOnUse" x1="122.432" y1="304.863" x2="440.495" y2="304.863"><stop offset="0" stop-color="#7e1210"/><stop offset=".003" stop-color="#7f1210"/><stop offset=".056" stop-color="#931417"/><stop offset=".113" stop-color="#a3151b"/><stop offset=".177" stop-color="#af161e"/><stop offset=".25" stop-color="#b81620"/><stop offset=".341" stop-color="#bd1621"/><stop offset=".503" stop-color="#be1622"/><stop offset=".613" stop-color="#bc1621"/><stop offset=".709" stop-color="#b61620"/><stop offset=".8" stop-color="#ab151d"/><stop offset=".887" stop-color="#9b1419"/><stop offset=".971" stop-color="#861313"/><stop offset="1" stop-color="#7e1210"/></linearGradient><path d="M122.432 526.695s-.003 31.651 158.3 31.679c159.154.028 158.496-30.685 158.496-30.685l1.267-403.798s-4.874-72.545-158.236-72.54c-159.811.006-158.56 71.545-158.56 71.545l-1.267 403.8z" fill="url(#SVGID_1_)"/><ellipse transform="rotate(-83.43 296.541 201.979)" class="st1" cx="296.541" cy="201.979" rx="63.839" ry="165.601"/><ellipse transform="rotate(-83.43 303.994 140.348)" class="st1" cx="303.994" cy="140.348" rx="51.463" ry="165.601"/><linearGradient id="SVGID_2_" gradientUnits="userSpaceOnUse" x1="122.809" y1="112.358" x2="450.218" y2="167.149" gradientTransform="matrix(1.03968 -.16514 .16298 .98683 -36.095 55.76)"><stop offset="0" stop-color="#e79a16"/><stop offset=".502" stop-color="#fab511"/><stop offset=".753" stop-color="#f3aa14"/><stop offset="1" stop-color="#e79a16"/></linearGradient><path d="M145.076 212.569S18.686-30.027 248.851 63.416l70.74 2.1S520.393-47.586 441.174 198.95l-60.478 54.141-210.842-4.1-24.778-36.422z" fill="url(#SVGID_2_)"/><linearGradient id="SVGID_3_" gradientUnits="userSpaceOnUse" x1="296.158" y1="73.623" x2="307.302" y2="4.795" gradientTransform="rotate(-9.197 326.443 148.463)"><stop offset="0" stop-color="#fab511"/><stop offset=".505" stop-color="#f9ae14"/><stop offset="1" stop-color="#f6a317"/></linearGradient><path d="M296.291 79.426l-48.024-.894s-2.604-59.749 35.942-68.83c0 0 33.65 3.444 36.731 69.095l-24.649.629z" fill="url(#SVGID_3_)"/><linearGradient id="SVGID_4_" gradientUnits="userSpaceOnUse" x1="85.447" y1="155.527" x2="207.658" y2="84.969" gradientTransform="rotate(-9.197 326.443 148.463)"><stop offset="0" stop-color="#951812"/><stop offset="1" stop-color="#c21b1c"/></linearGradient><path d="M101.085 166.923c-3.619-17.599-20.26-59.728-10.296-82.27s85.385-7.916 85.385-7.916l-10.43 27.197s-41.254-13.917-51.459.876c-11.677 16.928 38.525 101.282 38.525 101.282l18.244 31.708-65.49-24.359s-4.795-29.64-4.479-46.518z" fill="url(#SVGID_4_)"/><linearGradient id="SVGID_5_" gradientUnits="userSpaceOnUse" x1="266.631" y1="46.551" x2="153.812" y2="241.958" gradientTransform="rotate(-9.197 326.443 148.463)"><stop offset="0" stop-color="#c21b1c"/><stop offset=".4" stop-color="#c01b1c"/><stop offset=".677" stop-color="#ba1b1b"/><stop offset=".917" stop-color="#b11a19"/><stop offset="1" stop-color="#ad1a18"/></linearGradient><path d="M247.89 274.596c.004 14.536-37.373 32.002-42.247-21.569-6.406-70.405-42.468-119.28-46.13-139.695-7.174-40.005 14.858-62.73 95.682-50.016 81.546 12.828 12.212 31.119 12.212 31.119s-26.783-1.74-40.786-3.163c-16.116-1.637-37.983 5.172-30.934 28.273 6.307 20.668 52.181 76.33 52.203 155.05z" fill="url(#SVGID_5_)"/><linearGradient id="SVGID_6_" gradientUnits="userSpaceOnUse" x1="382.827" y1="122.257" x2="480.704" y2="178.766" gradientTransform="rotate(-9.197 326.443 148.463)"><stop offset="0" stop-color="#c21b1c"/><stop offset=".207" stop-color="#be1b1c"/><stop offset=".48" stop-color="#b41a19"/><stop offset=".789" stop-color="#a31915"/><stop offset="1" stop-color="#951812"/></linearGradient><path d="M461.865 167.111c5.115-23.68 19.107-49.892 17.102-72.027C474.95 50.759 391.18 78.66 391.18 78.66l15.827 29.265s39.89-17.186 48.408-.669c5.613 10.883-30.53 96.504-30.53 96.504l36.117 9.347.863-45.997z" fill="url(#SVGID_6_)"/><linearGradient id="SVGID_7_" gradientUnits="userSpaceOnUse" x1="260.948" y1="95.724" x2="382.367" y2="217.142" gradientTransform="rotate(-9.197 326.443 148.463)"><stop offset="0" stop-color="#c21b1c"/><stop offset=".4" stop-color="#c01b1c"/><stop offset=".677" stop-color="#ba1b1b"/><stop offset=".917" stop-color="#b11a19"/><stop offset="1" stop-color="#ad1a18"/></linearGradient><path d="M304.364 273.79c-1.375 14.46 34.16 35.944 44.061-16.812 13.011-69.335 53.494-113.992 59.061-133.898 10.91-39.008-9.138-74.983-90.468-60.276s-24.274 31.322-24.274 31.322 45.935-7.045 59.71-3.945c13.774 3.1 22.281 10.515 22.445 27.623.21 21.81-63.091 77.676-70.535 155.985z" fill="url(#SVGID_7_)"/><linearGradient id="SVGID_8_" gradientUnits="userSpaceOnUse" x1="254.966" y1="170.328" x2="322.019" y2="170.328" gradientTransform="matrix(.99229 -.12362 .11932 .93181 -15.504 43.942)"><stop offset="0" stop-color="#ad1a18"/><stop offset=".042" stop-color="#b21a19"/><stop offset=".153" stop-color="#bb1b1b"/><stop offset=".284" stop-color="#c01b1c"/><stop offset=".479" stop-color="#c21b1c"/><stop offset=".664" stop-color="#bf1b1c"/><stop offset=".829" stop-color="#b91b1b"/><stop offset=".986" stop-color="#ae1a18"/><stop offset="1" stop-color="#ad1a18"/></linearGradient><path d="M282.385 297.763s31.375-102.387 31.127-186.535c-.163-55.429-.78-72.703-29.9-72.755-31.009-.056-31.577 45.52-32.32 69.407-.743 23.888 19.21 153.12 31.093 189.883z" fill="url(#SVGID_8_)"/><linearGradient id="SVGID_9_" gradientUnits="userSpaceOnUse" x1="90.085" y1="192.745" x2="445.352" y2="255.388" gradientTransform="rotate(-9.197 326.443 148.463)"><stop offset="0" stop-color="#4e140b"/><stop offset=".075" stop-color="#581309"/><stop offset=".172" stop-color="#641307"/><stop offset=".27" stop-color="#6b1306"/><stop offset=".372" stop-color="#701205"/><stop offset=".479" stop-color="#711205"/><stop offset=".64" stop-color="#701205"/><stop offset=".763" stop-color="#6b1205"/><stop offset=".873" stop-color="#621206"/><stop offset=".976" stop-color="#561106"/><stop offset="1" stop-color="#521106"/></linearGradient><path d="M461.865 167.111c-.463 34.052-81.602 45.496-181.228 44.063s-180.015-10.199-179.552-44.251l.606 74.37c-.575 42.24 77.723 57.644 177.35 59.077 99.626 1.433 180.855-16.649 181.43-58.89l1.394-74.369z" fill="url(#SVGID_9_)"/><path d="M282.462 210.978c-6.664-65.044-72.66-61.197-73.3-4.152-.765 68.248 72.99 93.09 72.99 93.09l.302.272s87.476-39.57 77.233-106.864c-6.987-45.9-77.515-47.814-77.225 17.654z" fill="#e30613"/><path d="M284.21 9.702s24.124 2.475 33.389 43.088c8.082.692 15.634 1.617 22.69 2.743 17-7.292 41.883-15.908 64.538-15.908 21.428 0 40.862 7.708 49.747 31.536 12.931 2.457 23.06 9.207 24.393 23.923 2.005 22.135-11.987 48.347-17.102 72.027l-.863 45.997-.532 28.372c-.171 12.616-7.542 23.075-20.443 31.504l-.799 254.705s.669 30.685-158.28 30.685h-.216c-158.303-.028-158.3-31.679-158.3-31.679l.793-252.84c-13.916-8.418-21.717-19.132-21.534-32.563l-.564-69.193a106.39 106.39 0 0 1-.042-5.176c-3.619-17.599-20.26-59.728-10.296-82.27 2.99-6.765 11.878-10.18 22.852-11.65 5.849-18.377 20.458-30.994 49.564-30.993 16.177.001 36.836 3.9 62.948 12.876 7.592-1.059 15.745-1.907 24.504-2.506 3.573-17.296 12.317-37.675 33.552-42.678m-.327-5.06l-.82.193c-18.118 4.269-30.675 19.044-36.47 42.83a353.997 353.997 0 0 0-19.944 2.106c-24.892-8.467-46.233-12.76-63.443-12.76-14.85-.002-27.067 3.184-36.314 9.468-7.718 5.245-13.42 12.65-16.981 22.039-12.552 2.184-20.517 6.925-23.694 14.114-8.46 19.14-.038 48.9 6.111 70.63 1.58 5.583 2.955 10.44 3.75 14.143-.018 1.465 0 3.072.05 4.788l.563 69.09c-.169 13.972 7.07 25.846 21.526 35.326l-.784 250.07c0 2.666 1.652 11.975 22.929 20.487 26.853 10.743 74.08 16.196 140.37 16.208h.216c109.714 0 146.774-14.34 158.545-26.37 4.322-4.418 4.732-8.097 4.736-9.299l.791-252.066c13.394-9.439 20.271-20.897 20.45-34.09l.532-28.347.853-45.505c1.764-7.983 4.64-16.54 7.423-24.82 5.437-16.177 11.06-32.904 9.67-48.244-.925-10.207-6.2-23.083-25.712-27.797-4.646-11.004-11.823-19.315-21.364-24.727-8.754-4.966-19.535-7.484-32.044-7.484-22.942 0-47.866 8.429-65.18 15.747a317.11 317.11 0 0 0-18.041-2.239C311.06 7.897 285.819 4.841 284.72 4.728l-.838-.086z"/></svg>