<svg id="Laag_1" xmlns="http://www.w3.org/2000/svg" viewBox="0 0 566.9 566.9"><style>.st1,.st2{display:none}.st2{fill:#fff}</style><linearGradient id="SVGID_1_" gradientUnits="userSpaceOnUse" x1="139.431" y1="306.863" x2="457.495" y2="306.863"><stop offset="0" stop-color="#5d7b14"/><stop offset=".029" stop-color="#698916"/><stop offset=".079" stop-color="#779b1a"/><stop offset=".134" stop-color="#83a91c"/><stop offset=".194" stop-color="#8bb41d"/><stop offset=".264" stop-color="#91bc1e"/><stop offset=".349" stop-color="#94c01f"/><stop offset=".502" stop-color="#95c11f"/><stop offset=".594" stop-color="#94bf1f"/><stop offset=".674" stop-color="#8fba1e"/><stop offset=".749" stop-color="#88b01d"/><stop offset=".821" stop-color="#7da21b"/><stop offset=".892" stop-color="#6e8f17"/><stop offset=".96" stop-color="#5a7713"/><stop offset="1" stop-color="#4c660f"/></linearGradient><path d="M139.4 528.7s0 31.7 158.3 31.7c159.2 0 158.5-30.7 158.5-30.7l1.3-403.8s-4.9-72.5-158.2-72.5c-159.8 0-158.6 71.5-158.6 71.5l-1.3 403.8z" fill="url(#SVGID_1_)"/><path class="st1" d="M178.7 247.7s-70.4-2.9-61.4 35.8 138 80.2 204.2 79.4c66.2-.7 172.5-6 141.6-80.2 0 0-26.5-66.7-75-46.4l.2-72.9v-32.6s-2.4-18.4-104.3-15.2c-101.9 3.2-101.2 10.7-105.3 17.5v114.6z"/><path class="st1" d="M369 266.9c-1.2-.6-3-.8-3.6-1.8-6.9-9.8-16.3-16.2-27.4-20.4-.5-.2-.6-1.2-1-1.8l-.1.1c3.5 1 7.6 1.1 10.3 3.1 7.2 5.2 13.8 11.1 20.5 17 .9.8.9 2.6 1.3 3.8-.1.1 0 0 0 0z"/><path class="st1" d="M418.4 216c3.4-2.2 6.6-4.1 9.6-6.4 4.3-3.2 8.2-7 12.6-10.1 3.5-2.5 7.2-4.8 11.1-6.6 1.3-.6 3.8.2 5 1.2 1 .9 1.5 3.4 1.1 4.8-2 5.7-4.6 11.3-6.7 17-2.8 7.6-5.6 15.3-7.9 23.1-2.1 6.9-3.8 14-5.4 21-1.4 5.9-2.4 11.8-3.6 17.7-1.5 7.6-3.1 15.3-4.7 22.9-.9 4.4 1.4 7.4 4.2 10.3 12.1 12 24.3 23.8 36.1 36.1 3.7 3.9 6.1 9.1 9.2 13.6 2.8 4.1 6.1 7.8 8.4 12.1 6.2 11.6 6.2 28.2-4.1 39.1-5.7 6-12.5 9.5-20.1 12-5.2 1.7-10.4 3.3-15.4 5.4-4.8 2-9.2.8-13.6-1.1-1-.4-2.1-1.1-3-.8-8.9 2-17.5-.3-25.9-2.3-5.3-1.2-10-4.7-15.2-6.5-5.2-1.9-10.6-3.1-16-4.4-6.2-1.5-12.4-3-18.7-4.3-3.9-.8-7.9-1.5-11.9-2-11-1.2-22-2.4-33.1-3.3-10.9-.9-21.8-1.2-32.6-2.1-9.9-.8-19.8-2-29.8-2.9-1.6-.2-3.3-.2-4.9-.2-17.6-.6-35.1-1.2-52.7-1.9-8.4-.3-16.8-.9-25.2-1.4-.8 0-2.1.2-2.4-.3-2.6-4.4-7-2.4-10.6-3-4.9-.8-9.8-2.6-14.6-2.6-7.1.1-13.2-2.2-18.9-5.6-2.9-1.7-5.8-3.9-8-6.4-7.2-8.2-15.2-16.1-20.9-25.3-4.6-7.4-6.8-16.4-9.3-24.9-1.7-5.9-2.7-12.1-3.1-18.2-1.1-16.3 5.5-29.4 17.9-39.8 10-8.4 21.6-12.7 34.6-13.5 3.5-.2 7-1.7 10.4-1.3 6.3.7 12.5 2.2 18.7 3.6 2 .4 4 1.4 7 2.5.5-8.4 1-16.1 1.3-23.7.6-17 1.5-34 1.4-51 0-9.5-1.7-19.1-2.7-28.6-.1-1.2-.2-2.5-.3-3.7-.6-8.4-.8-16.8-2.1-25.1-.5-3.1-.3-5.7.2-8.6.3-1.4 0-3.3-.7-4.6-4.3-7.7-2.5-14.9 4.7-20 6.2-4.4 13.1-4.6 20.3-5 7.5-.4 14.9-1.9 22.3-2.8 3.5-.4 7.1-.7 10.6-.7 13.8 0 27.6 0 41.4.4 4.5.1 8.9 1.6 13.4 2.5.8.2 1.6.5 2.4.5 6.6.6 13.3.8 19.8 1.9 9 1.6 17.8 4 26.7 6 6.1 1.4 12.3 2.5 18.5 4 4 .9 8 2.1 11.9 3.2 4.9 1.5 9.9 3.1 14.8 4.8 6.3 2.1 12.5 4.5 18.8 6.6 5.2 1.8 10.7 3.1 15.8 5.1 5.7 2.2 10.7 5.3 15.6 9.2 5.7 4.5 8.6 9.6 7.9 16.8 0 .3-.1.6 0 .8 3.5 4.7-.2 8.4-1.7 12.4-1.7 4.5-3.6 8.9-4.5 13.6-2.6 12.9-4 26-3.7 39.2-.2.1 0 .5.3 1.6zm-244.2 30.6c-.7 9.4-1.4 18.4-2.2 27.5-.2 2-.5 4-1 6-1 3.9-1.3 7.4 1.5 11.1 4.6 6.2 9.4 12 15.6 16.8 7.5 5.9 14.8 11.9 23.6 15.8 6.1 2.6 12.6 4.2 18.7 6.9 9.5 4.2 18.3 10 29 11.5 10.3 1.4 20.4 5.2 30.6 5.7 13.3.7 26.6-.7 39.9-1.4.8 0 2.1-1.3 2.4-2.2.9-2.6 1.5-5.4 2-8.1 1.3-8 2.3-16 3.5-24 .6-3.6 1-7.2 2.1-10.7 2.6-8.3 4.7-16.6 4-25.4-.4-5.4.9-10.1 5.6-12.8 8.2-4.8 17-8.6 25.1-13.6 7.4-4.5 14.1-10 21.1-15.1 4.4-3.2 8.7-6.3 12.9-9.7.8-.6.9-2.4.8-3.5-.2-1.9-1.3-3.8-1.2-5.7.3-4.2 1.8-8.4 1.5-12.5-.9-12.7 2.2-24.7 5.1-36.8.4-1.7 1.2-3.4 2.1-6.1-3.3 1.2-5.7 1.8-7.9 2.9-9.9 5-20.7 7.4-31.4 9.7-4 .9-8 1.3-12 2-6 1-11.9 2.4-17.9 2.7-8.3.4-16.7.1-25-.1-5.5-.2-11.1-.7-16.6-1.5-9.2-1.3-18.4-2.7-27.6-4.6-7.6-1.5-15.4-3-22.6-5.8-14-5.3-27.7-11.4-41.5-17.4-8.4-3.6-17.1-6.3-24.9-11.4-5.3-3.5-11.1-6.3-17.4-9.8 0 7.1-.3 13.4.1 19.8.8 12.9 2.5 25.8 2.9 38.8.5 15.4.1 30.9.1 46.3 0 2.6-.1 4.9 3.6 5.2 1.1.1 2.8 1.6 3 2.7 2.2 10.2 9.5 17.2 16 24.4 6.1 6.7 13.9 11.7 22.3 15.4 6.3 2.8 12.7 5.4 19.2 7.8 7.9 3 15.8 6.8 24.1 8.2 12.1 2.1 24.5 2.5 36.8 3.6 1.8.2 3.5.3 5.3.4 9.3.2 18.6.3 27.8.5 1.2 0 2.9.2 3.6 1 .7.8.8 2.6.3 3.7-1.1 2.7-2.9 4.8-6.4 4.3-9-1.1-18-2.2-27-3-13.6-1.3-27.2-2.1-40.7-3.7-5.3-.6-10.5-2.2-15.5-4.1-8.3-3.2-16.1-7.8-24.5-10.3-13.2-3.9-24.1-10.7-32.9-21-5.6-6.5-10.6-13.4-16-20.4zM329 169.5v-.2c7.2 0 14.5.6 21.7-.1 9.7-1 19.3-2.8 28.9-4.6 5.2-1 10.4-2.2 15.3-4 7-2.7 13.8-6.2 20.7-9.3 2-.9 2.9-2.1 2.9-4.6 0-6.5-4.1-10.2-8.8-13-3.5-2.1-7.9-2.8-11.9-4.3-5.8-2.3-11.4-5.1-17.3-7.1-7.9-2.7-16-4.9-23.9-7.3-8.5-2.5-16.9-5.3-25.4-7.6-5.9-1.6-12-2.2-18-3.7-9.9-2.5-19.8-4.6-30-4.8-.7 0-1.4 0-2-.1-6.6-1-13.2-2.9-19.9-2.9-19.5 0-39-1.3-58.3 3-6.3 1.4-13 1.4-19.6 1.8-5.3.3-9.4 2.9-13.1 6.3-.6.5-1.3 1.6-1.1 2.1 1.9 4.6 3.8 9.3 8.1 12.3 11.1 7.9 23.5 13.3 35.8 18.7 8 3.6 16.3 6.5 24.5 9.9 6.2 2.5 12.1 5.8 18.5 7.8 10 3.2 20.2 6.1 30.5 8.1 10.1 1.9 20.5 2.6 30.8 3.6 3.6.3 7.6 0 11.6 0zM86 310.1c.8 4.6 1.6 9.2 2.3 13.8 1.4 9.4 5 18 9.9 26 3.2 5.1 7.7 9.3 11.2 14.3 6.9 10.1 16.3 16.5 28.1 18.1 10.2 1.4 20.6 1.4 30.8 1.6 3.9.1 7.8-.9 11.6-1.9 6.5-1.8 12.9-4.1 19.4-6.1 5-1.5 10.1-3 15.2-4.3 7.3-1.9 14.5-3.7 21.8-5.4 3.5-.8 7.1-1.2 10.6-1.9 8.4-1.6 16.8-3.4 25.3-4.7 3.3-.5 6.8-.1 10.2-.3 4.3-.3 8.6-1.3 12.8-1.2 9.3.2 18.7.9 28 1.4 1.5.1 3.1.7 4.5.3 1.1-.3 1.9-1.8 2.9-2.7-1.1-.6-2.2-1.7-3.4-1.8-1.4-.1-2.9.9-4.3.9-12.8-.2-25.5.9-38.3-1-9.6-1.4-19.3-1.4-28.5-5.1-7.1-2.9-14.5-5-21.7-7.7-4.8-1.8-9.5-3.9-14.3-5.9-5.6-2.3-11.7-4-16.9-7.1-6.4-3.9-12-9-18.1-13.5-8.2-6-14-14-20-22-2.6-3.5-3.5-6.7-2.9-10.8.6-3.4 1.4-6.9 1.7-10.3.1-1-.7-3-1.4-3.2-9.1-2.8-17.8-6.7-28-5.5-9.4 1.1-18.3 3.6-26.3 8.1-14.4 8-22.6 20.5-22.2 37.9zm358.9-101.9c-2 .8-3 1-3.8 1.6-3.8 2.4-7.6 4.7-11.2 7.4-8.9 6.7-18.1 13.1-26.4 20.5-12.9 11.4-27.1 20.4-42.9 27.1-3.8 1.6-8 3.7-8.3 9.2-.1 2.9-1.1 5.8-1.5 8.7-1.2 7.7-2.3 15.5-3.5 23.2-.5 2.9-1.2 5.8-1.9 8.7-2 7.4-4.3 14.6-4.5 22.5-.1 7.4-1 14.8-2 22.2-.3 2.5.4 2.9 2.3 4.1 5.8 3.6 13.6 3.1 18.4 8.9.6.8 2.9.7 4.2.3 4.3-1.3 8.5-3.3 12.8-4.3 9.6-2.3 19.4-3.7 28-9 .5-.3 1.4 0 2.2.1 3.7.5 7.5-1.7 7.8-4.9.7-6.3 1.2-12.6 1.8-19 .2-2.6.1-5.2.5-7.7.8-5 2.1-10 2.8-15 .6-4.5-2-9.6 3.1-13 .2-.2.2-.8.2-1.2 1.1-6.2 2.3-12.5 3.4-18.7.7-3.7 1.1-7.5 1.9-11.1 1.4-6.4 3-12.8 4.6-19.1 1.7-6.6 3.6-13.2 5.5-19.8 2-6.9 4.1-13.6 6.5-21.7zm-17.3 110.3c-.5.2-1 .3-1.4.5-.6 3.7-1.2 7.3-1.6 11-.3 3.3-.3 6.6-.5 9.9-.3 5.7-.7 11.4-1.1 17.1-.1 1.1-.3 2.4-.9 3.4-1 1.8-2.4 3.5-4.1 6-2.9.4-6.9.9-10.9 1.7-3.4.7-6.8 1.4-10.1 2.5-8.1 2.7-16.2 5.7-24.7 8.7 0 .1.2 1.3.8 1.8 2.5 2.3 5.1 4.5 7.9 6.4 5.7 3.9 11.8 7.5 17.4 11.5 2.8 2 4.9 5.1 7.8 7.1 3.8 2.7 7.8 5 11.9 7.2 9 4.8 18.3 8.2 28.7 7 2.3-.3 4.6-.8 6.8-1.7 5.6-2.1 11.5-3.8 16.5-6.9 5.7-3.6 10.6-8.9 11.4-16.1.5-5.1.8-10.8-.8-15.5-1.8-5.2-5.6-9.8-8.8-14.5-4.3-6.3-8.1-13.1-13.4-18.5-9.9-10-20.6-19.1-30.9-28.6zm-26.5 93.8c.2-.5.4-1 .6-1.4-3.2-2.3-6.5-4.6-9.7-6.9-6-4.2-11.9-8.4-17.9-12.6-6.4-4.5-12.3-9.8-19.2-13.3-7.5-3.8-14.9-8.2-23.8-8.8-6-.4-11.8-2.5-17.7-2.7-12.1-.5-24.2-.6-36.2 1.2-2.9.5-6 0-9 .5-7.3 1.3-14.5 2.9-21.7 4.3-3.5.7-7 1.3-10.5 2-6.3 1.2-12.6 2.3-18.8 3.8-4.8 1.2-9.4 2.8-14 4.4-3.5 1.1-7 2.4-10.5 3.6 4.3 1.4 8.3 2.4 12.4 2.6 8.8.4 17.6.1 26.4.6 10 .6 19.9 2 29.9 2.8 8.9.7 17.9.9 26.8 1.7 10.1.9 20.2 2.2 30.4 3.2 8 .8 16.2 1 24.2 1.9 7.6.9 15.2 2.4 22.7 4.3 9.6 2.4 19.5 3 28.8 7 1.9.9 4.4 1.2 6.8 1.8z"/><path class="st2" d="M174.2 246.6c5.4 6.9 10.4 13.8 15.9 20.3 8.8 10.3 19.8 17.1 32.9 21 8.4 2.5 16.2 7.1 24.5 10.3 5 1.9 10.2 3.5 15.5 4.1 13.5 1.5 27.1 2.4 40.7 3.7 9 .9 18 1.9 27 3 3.5.4 5.3-1.6 6.4-4.3.4-1 .3-2.9-.3-3.7-.7-.8-2.3-1-3.6-1-9.3-.2-18.6-.3-27.8-.5-1.8 0-3.5-.2-5.3-.4-12.3-1.1-24.7-1.5-36.8-3.6-8.2-1.5-16.1-5.2-24.1-8.2-6.5-2.4-12.9-5.1-19.2-7.8-8.4-3.7-16.2-8.7-22.3-15.4-6.5-7.2-13.8-14.1-16-24.4-.2-1.1-1.9-2.6-3-2.7-3.6-.3-3.6-2.5-3.6-5.2 0-15.4.4-30.9-.1-46.3-.4-12.9-2.1-25.8-2.9-38.8-.4-6.3-.1-12.7-.1-19.8 6.3 3.5 12.1 6.3 17.4 9.8 7.7 5.1 16.5 7.8 24.9 11.4 13.8 6 27.5 12.1 41.5 17.4 7.2 2.7 15 4.3 22.6 5.8 9.1 1.8 18.4 3.3 27.6 4.6 5.5.8 11.1 1.3 16.6 1.5 8.3.3 16.7.6 25 .1 6-.3 12-1.8 17.9-2.7 4-.6 8-1.1 12-2 10.7-2.3 21.5-4.7 31.4-9.7 2.2-1.1 4.6-1.7 7.9-2.9-.9 2.7-1.7 4.3-2.1 6.1-2.9 12.1-6 24.1-5.1 36.8.3 4.1-1.2 8.3-1.5 12.5-.1 1.9 1 3.8 1.2 5.7.1 1.2-.1 2.9-.8 3.5-4.2 3.4-8.6 6.6-12.9 9.7-7 5.1-13.8 10.6-21.1 15.1-8.1 5-16.9 8.8-25.1 13.6-4.6 2.7-6 7.4-5.6 12.8.7 8.8-1.4 17.1-4 25.4-1.1 3.4-1.5 7.1-2.1 10.7-1.2 8-2.3 16-3.5 24-.4 2.8-1.1 5.5-2 8.1-.3.9-1.5 2.1-2.4 2.2-13.3.7-26.7 2.1-39.9 1.4-10.3-.5-20.4-4.3-30.6-5.7-10.7-1.5-19.5-7.3-29-11.5-6.1-2.7-12.6-4.3-18.7-6.9-8.8-3.8-16.1-9.8-23.6-15.8-6.1-4.9-10.9-10.7-15.6-16.8-2.8-3.7-2.5-7.2-1.5-11.1.5-2 .9-4 1-6 .9-8.9 1.6-17.9 2.3-27.4z"/><path class="st2" d="M329 169.5c-4 0-8 .3-11.9-.1-10.3-1-20.6-1.7-30.8-3.6-10.3-2-20.5-4.9-30.5-8.1-6.4-2-12.3-5.3-18.5-7.8-8.1-3.4-16.4-6.3-24.5-9.9-12.3-5.4-24.7-10.8-35.8-18.7-4.3-3-6.1-7.7-8.1-12.3-.2-.5.5-1.6 1.1-2.1 3.7-3.4 7.8-6 13.1-6.3 6.5-.4 13.2-.4 19.6-1.8 19.3-4.3 38.9-2.9 58.3-3 6.6 0 13.2 1.9 19.9 2.9.7.1 1.4.1 2 .1 10.2.2 20.1 2.3 30 4.8 5.9 1.5 12.1 2.1 18 3.7 8.5 2.3 16.9 5 25.4 7.6 8 2.4 16.1 4.6 23.9 7.3 5.9 2 11.5 4.8 17.3 7.1 3.9 1.5 8.3 2.2 11.9 4.3 4.7 2.8 8.8 6.5 8.8 13 0 2.5-.9 3.7-2.9 4.6-6.9 3.1-13.6 6.6-20.7 9.3-4.9 1.9-10.1 3.1-15.3 4-9.6 1.8-19.2 3.6-28.9 4.6-7.2.7-14.4.1-21.7.1.3.2.3.3.3.3zM86 310.1c-.4-17.4 7.9-29.9 22.3-37.9 7.9-4.4 16.8-7 26.3-8.1 10.2-1.2 18.9 2.8 28 5.5.8.2 1.5 2.1 1.4 3.2-.4 3.5-1.1 6.9-1.7 10.3-.7 4 .3 7.3 2.9 10.8 5.9 8 11.8 16 20 22 6.1 4.5 11.7 9.6 18.1 13.5 5.2 3.1 11.2 4.8 16.9 7.1 4.8 2 9.4 4.1 14.3 5.9 7.2 2.7 14.6 4.8 21.7 7.7 9.2 3.8 19 3.7 28.5 5.1 12.8 1.9 25.6.8 38.3 1 1.4 0 2.9-1 4.3-.9 1.2.1 2.3 1.2 3.4 1.8-.9.9-1.7 2.4-2.9 2.7-1.3.4-3-.2-4.5-.3-9.3-.5-18.7-1.2-28-1.4-4.3-.1-8.6.9-12.8 1.2-3.4.2-6.9-.2-10.2.3-8.5 1.4-16.9 3.2-25.3 4.7-3.5.7-7.1 1-10.6 1.9-7.3 1.7-14.6 3.5-21.8 5.4-5.1 1.3-10.2 2.8-15.2 4.3-6.5 2-12.9 4.3-19.4 6.1-3.8 1-7.7 2-11.6 1.9-10.3-.2-20.7-.2-30.8-1.6-11.8-1.7-21.3-8.1-28.1-18.1-3.4-5-8-9.2-11.2-14.3-4.9-8-8.5-16.6-9.9-26-.8-4.6-1.7-9.2-2.4-13.8zM444.9 208.2c-2.5 8-4.6 14.7-6.6 21.5-1.9 6.6-3.8 13.2-5.5 19.8-1.7 6.3-3.2 12.7-4.6 19.1-.8 3.7-1.3 7.4-1.9 11.1-1.1 6.2-2.3 12.5-3.4 18.7-.1.4 0 1-.2 1.2-5 3.4-2.5 8.6-3.1 13-.7 5-2 10-2.8 15-.4 2.5-.3 5.2-.5 7.7-.5 6.3-1.1 12.6-1.8 19-.4 3.2-4.1 5.4-7.8 4.9-.7-.1-1.7-.4-2.2-.1-8.6 5.3-18.4 6.7-28 9-4.4 1.1-8.5 3-12.8 4.3-1.3.4-3.6.5-4.2-.3-4.8-5.8-12.6-5.3-18.4-8.9-1.9-1.2-2.6-1.6-2.3-4.1 1-7.4 1.9-14.8 2-22.2.2-7.8 2.5-15.1 4.5-22.5.8-2.9 1.5-5.8 1.9-8.7 1.3-7.7 2.3-15.5 3.5-23.2.5-2.9 1.4-5.8 1.5-8.7.2-5.5 4.5-7.6 8.3-9.2 15.8-6.7 30-15.7 42.9-27.1 8.3-7.4 17.5-13.8 26.4-20.5 3.6-2.7 7.4-5 11.2-7.4.9-.3 1.9-.6 3.9-1.4z"/><path class="st2" d="M427.6 318.5c10.3 9.5 21 18.6 30.8 28.6 5.3 5.4 9.1 12.2 13.4 18.5 3.2 4.7 7.1 9.3 8.8 14.5 1.6 4.8 1.3 10.4.8 15.5-.7 7.2-5.6 12.5-11.4 16.1-5 3.1-10.9 4.8-16.5 6.9-2.2.8-4.5 1.4-6.8 1.7-10.4 1.2-19.8-2.2-28.7-7-4.1-2.2-8.2-4.5-11.9-7.2-2.8-2-4.9-5.1-7.8-7.1-5.7-4-11.7-7.6-17.4-11.5-2.8-1.9-5.4-4.2-7.9-6.4-.7-.6-.8-1.7-.8-1.8 8.5-3 16.6-6 24.7-8.7 3.3-1.1 6.7-1.8 10.1-2.5 3.9-.8 7.9-1.3 10.9-1.7 1.7-2.5 3-4.2 4.1-6 .6-1 .8-2.2.9-3.4.4-5.7.8-11.4 1.1-17.1.2-3.3.2-6.6.5-9.9.4-3.7 1.1-7.3 1.6-11 .5-.1 1-.3 1.5-.5zM401.1 412.3c-2.4-.6-4.8-.9-7.1-1.9-9.2-4-19.2-4.6-28.8-7-7.5-1.9-15.1-3.4-22.7-4.3-8-1-16.1-1.2-24.2-1.9-10.1-1-20.2-2.3-30.4-3.2-8.9-.8-17.9-.9-26.8-1.7-10-.8-19.9-2.2-29.9-2.8-8.8-.6-17.6-.2-26.4-.6-4.1-.2-8.1-1.2-12.4-2.6 3.5-1.2 7-2.5 10.5-3.6 4.7-1.5 9.3-3.2 14-4.4 6.2-1.5 12.5-2.6 18.8-3.8 3.5-.7 7-1.3 10.5-2 7.2-1.4 14.5-3.1 21.7-4.3 2.9-.5 6 0 9-.5 12-1.9 24.1-1.7 36.2-1.2 5.9.2 11.8 2.3 17.7 2.7 8.9.6 16.3 5 23.8 8.8 6.9 3.5 12.8 8.8 19.2 13.3 6 4.2 11.9 8.4 17.9 12.6 3.3 2.3 6.5 4.6 9.7 6.9.1.6-.1 1-.3 1.5z"/><linearGradient id="SVGID_2_" gradientUnits="userSpaceOnUse" x1="218.733" y1="449.404" x2="359.918" y2="204.863"><stop offset="0" stop-color="#3aaa35"/><stop offset="1" stop-color="#20671f"/></linearGradient><path d="M300.4 218.3C147.8 196.9 16.7 232.6 7.5 298c-1.5 10.4.3 21 4.8 31.5 0 0 21.4 21.9 90.3 12.3 68.9-9.6 78.7-30.6 162.1-24.1 83.4 6.5 145.2 103.6 234.7 119.4h-.1c34.8-14.9 57-35.9 60.6-61.4 9.2-65.5-107-135.9-259.5-157.4z" fill="url(#SVGID_2_)"/><linearGradient id="SVGID_3_" gradientUnits="userSpaceOnUse" x1="125.269" y1="288.691" x2="467.842" y2="288.691"><stop offset="0" stop-color="#7a110f"/><stop offset=".006" stop-color="#7d1210"/><stop offset=".058" stop-color="#921416"/><stop offset=".115" stop-color="#a2151b"/><stop offset=".177" stop-color="#af161e"/><stop offset=".248" stop-color="#b71620"/><stop offset=".334" stop-color="#bd1621"/><stop offset=".479" stop-color="#be1622"/><stop offset=".57" stop-color="#bc1621"/><stop offset=".655" stop-color="#b51620"/><stop offset=".739" stop-color="#a9151d"/><stop offset=".821" stop-color="#981418"/><stop offset=".902" stop-color="#821211"/><stop offset=".981" stop-color="#670f07"/><stop offset="1" stop-color="#5f0d04"/></linearGradient><path d="M135.8 201.8s-1.2 24.5-9.8 63c-4.1 11.8 6.5 67.4 147.9 101.8s189.4-39.7 192.8-57.5c0 0-4.6-7.6 1.1-44.3s-332-63-332-63z" fill="url(#SVGID_3_)"/><linearGradient id="SVGID_4_" gradientUnits="userSpaceOnUse" x1="125.943" y1="155.502" x2="486.838" y2="155.502"><stop offset="0" stop-color="#20651e"/><stop offset=".018" stop-color="#257022"/><stop offset=".052" stop-color="#2c8028"/><stop offset=".091" stop-color="#328e2c"/><stop offset=".134" stop-color="#359830"/><stop offset=".185" stop-color="#38a032"/><stop offset=".248" stop-color="#39a634"/><stop offset=".337" stop-color="#3aa935"/><stop offset=".583" stop-color="#3aaa35"/><stop offset=".676" stop-color="#3aa935"/><stop offset=".74" stop-color="#39a433"/><stop offset=".796" stop-color="#379d31"/><stop offset=".847" stop-color="#34932e"/><stop offset=".895" stop-color="#2e8529"/><stop offset=".94" stop-color="#267323"/><stop offset=".983" stop-color="#1b5d1b"/><stop offset="1" stop-color="#155216"/></linearGradient><path d="M467.8 256.5S456.9 163 486.9 75.6l-361-46.7s15.2 114.4 9.8 172.9c0 0 4.5 47.4 140.8 71.3 65.7 11.6 139.3 16.8 186.2-14.7" fill="url(#SVGID_4_)"/><ellipse transform="rotate(-81.999 306.385 54.223)" cx="306.4" cy="54.2" rx="39.4" ry="182.2" fill="#063"/><path d="M369.4 418.4s77.4-46.7 104.8-55.2c0 0 25.1-143.4 53.4-197.7 0 0-88.7 53.9-136.3 75 .1.1-29.7 126.3-21.9 177.9z" fill="#fef5fa"/><linearGradient id="SVGID_5_" gradientUnits="userSpaceOnUse" x1="267.44" y1="317.599" x2="251.211" y2="409.639"><stop offset="0" stop-color="#063"/><stop offset="1" stop-color="#003314"/></linearGradient><path d="M264.7 317.7c-83.4-6.5-93.2 14.4-162.1 24.1-68.9 9.6-90.3-12.3-90.3-12.3 24 55.2 75.9 48.9 204.1 66.9 106.4 15 228.7 63.9 283 40.7-89.5-15.8-151.4-112.9-234.7-119.4z" fill="url(#SVGID_5_)"/><path d="M398.9 269c6.2-10.2 14.1-19.1 23.4-26.5-.9.1-1.8.2-2.7.4-6.8 24.8-14.3 49.3-22.4 73.7-.2.5 2.6.2 2.9-.5 8.1-24.4 15.5-49 22.4-73.7.2-.8-2.5.2-2.7.4-9.4 7.5-17.4 16.5-23.7 26.8-.2.2 2.4.1 2.8-.6zM434.6 248.8c-10.5 10-16.9 23.8-17.7 38.3-.4 7 .1 15.2 3.1 21.6 2.3 5.1 7.5 4.3 11.9 2.2 14.6-7 14.3-25.6 15-39.4.3-6 1.3-13.1-5.3-16.1-5-2.3-10.3 0-13.2 4.2-.9 1.3 2.1 1.2 2.8.3 2.1-1.1 4.3-2.2 6.4-3.4 1.7.2 3.1.9 4.2 2.2 1.3 1.3 2 2.7 2.4 4.6.5 2.7 0 5.8-.2 8.5-.3 5.1-.4 10.3-1 15.4-.7 5.8-2.2 11.8-5.8 16.6-1.6 2.1-3.7 4.2-6.1 5.3-6.7 3-8.5-1.3-9.7-5.8-5-19.2 1.3-40.2 15.6-53.8 1.3-1.2-1.5-1.6-2.4-.7z"/><path d="M464.9 271c-16.3 21.3-25 48.8-46.8 65.6-1.2.9 1.7.8 2.3.3 22-16.9 30.8-44.5 47.2-66 .7-.9-2.2-.6-2.7.1zM465.4 310.8c-9.4 6.2-15.4 15.8-20.6 25.7-3.4 6.6-9.8 21.6 1.3 24.9 3.4 1 7.2.1 10.2-1.6 2.2-1.2 8-4.6 7.9-7.5-.2-3.3-8.2-6.7-10.8-7.1-3.6-.6-7 .5-9.8 2.9-1.3 1.1 1.6 1.3 2.4.6 3.7-3.4 7.9-1.6 11.1.5.7.5 3.3 2 3.6 3 .6 1.9-1.1 2.8-2.4 3.9-2.7 2.3-5 3.6-8.7 3.4-9.9-.6-6.7-12.9-4-18.9 4.9-10.8 11.6-22.1 21.7-28.8 1.6-1.1-.9-1.7-1.9-1z"/><path d="M212.7 7.7c28.8 0 62.9 2.4 99.1 7.5 93.6 13.2 168.4 39.4 174.6 60.3h.3c-.1.2-.1.4-.2.6.3 1.2.3 2.3.2 3.4-.3 2.1-1.4 4.1-3.2 5.9-12.8 41.7-16.9 84-17.6 116.1 33.3-18.8 61.7-36 61.7-36-13.7 26.3-26.7 73.5-36.4 115.2 46.7 28.4 73.2 62.3 68.7 94.9-3.6 25.6-25.8 46.6-60.6 61.4h.1c-9.9 4.2-22.4 6-36.9 6-2 0-4 0-6-.1l-.3 86.7s.7 30.7-158.3 30.7h-.2c-158.3 0-158.3-31.7-158.3-31.7l.4-141.9c-74-8.8-109.1-14.7-127.6-57.3C7.8 319 6 308.5 7.5 298c5.5-39.3 55-67.9 126.7-79.8 1.3-10.6 1.6-16.5 1.6-16.5 4.7-51.4-6.4-145.9-9.2-168.1-.6-1.6-.8-3.2-.6-4.8 1.9-13.6 36.3-21.1 86.7-21.1m0-5c-25.6 0-47.3 1.9-62.7 5.6-18.2 4.3-27.7 10.8-29 19.9-.3 2.2-.1 4.4.7 6.6 2.5 20.1 13.8 115.6 9.2 166.5v.2s-.2 4.5-1.1 12.4c-34.9 6.1-64.6 16.4-86.2 29.7-23.9 14.7-38 33.2-40.9 53.7-1.7 11.2 0 22.7 5 34.2 9.5 21.8 23.6 35.4 45.8 44 20.1 7.8 46.6 11.6 81.4 15.8l-.4 137.4c0 2.7 1.7 12 22.9 20.5 26.9 10.7 74.1 16.2 140.4 16.2h.2c109.7 0 146.8-14.3 158.5-26.4 4.3-4.4 4.7-8.1 4.7-9.3l.3-81.6h1c16 0 28.7-2.1 38.7-6.3 37.9-16.2 59.9-38.8 63.6-65.4 4.6-32.9-19.5-67.6-67.9-97.9 12.2-51.6 24.3-89.7 35.1-110.6l8.3-15.9-15.3 9.3c-.3.2-24.4 14.8-53.8 31.6 1.2-28.1 5.2-66.6 16.8-104.8 2.1-2.4 3.3-5 3.7-7.8.2-1.2.2-2.4 0-3.7l1.8-5.1-3.5-.5c-5.8-11.1-24.7-22.2-56.4-33.2-32.7-11.3-75.6-21.1-121-27.5-35.3-5-69.8-7.6-99.9-7.6z"/></svg>