<?xml version="1.0" encoding="utf-8"?>
<!-- Generator: Adobe Illustrator 22.1.0, SVG Export Plug-In . SVG Version: 6.00 Build 0)  -->
<svg version="1.1" id="Laag_1" xmlns="http://www.w3.org/2000/svg" xmlns:xlink="http://www.w3.org/1999/xlink" x="0px" y="0px"
	 viewBox="0 0 566.9 566.9" style="enable-background:new 0 0 566.9 566.9;" xml:space="preserve">
<style type="text/css">
	.st0{fill:url(#SVGID_1_);}
	.st1{display:none;}
	.st2{display:none;fill:#FFFFFF;}
	.st3{fill:url(#SVGID_2_);}
	.st4{fill:url(#SVGID_3_);}
	.st5{fill:url(#SVGID_4_);}
	.st6{fill:#006633;}
	.st7{fill:#FEF5FA;}
	.st8{fill:url(#SVGID_5_);}
</style>
<linearGradient id="SVGID_1_" gradientUnits="userSpaceOnUse" x1="139.4315" y1="306.8627" x2="457.4951" y2="306.8627">
	<stop  offset="0" style="stop-color:#5D7B14"/>
	<stop  offset="2.931849e-02" style="stop-color:#698916"/>
	<stop  offset="7.911766e-02" style="stop-color:#779B1A"/>
	<stop  offset="0.1338" style="stop-color:#83A91C"/>
	<stop  offset="0.1943" style="stop-color:#8BB41D"/>
	<stop  offset="0.2636" style="stop-color:#91BC1E"/>
	<stop  offset="0.3495" style="stop-color:#94C01F"/>
	<stop  offset="0.5025" style="stop-color:#95C11F"/>
	<stop  offset="0.5941" style="stop-color:#94BF1F"/>
	<stop  offset="0.6737" style="stop-color:#8FBA1E"/>
	<stop  offset="0.7489" style="stop-color:#88B01D"/>
	<stop  offset="0.8214" style="stop-color:#7DA21B"/>
	<stop  offset="0.8919" style="stop-color:#6E8F17"/>
	<stop  offset="0.96" style="stop-color:#5A7713"/>
	<stop  offset="1" style="stop-color:#4C660F"/>
</linearGradient>
<path class="st0" d="M139.4,528.7c0,0,0,31.7,158.3,31.7c159.2,0,158.5-30.7,158.5-30.7l1.3-403.8c0,0-4.9-72.5-158.2-72.5
	c-159.8,0-158.6,71.5-158.6,71.5L139.4,528.7z"/>
<path class="st1" d="M178.7,247.7c0,0-70.4-2.9-61.4,35.8s138,80.2,204.2,79.4c66.2-0.7,172.5-6,141.6-80.2c0,0-26.5-66.7-75-46.4
	l0.2-72.9v-32.6c0,0-2.4-18.4-104.3-15.2c-101.9,3.2-101.2,10.7-105.3,17.5V247.7z"/>
<path class="st1" d="M369,266.9c-1.2-0.6-3-0.8-3.6-1.8c-6.9-9.8-16.3-16.2-27.4-20.4c-0.5-0.2-0.6-1.2-1-1.8c0,0-0.1,0.1-0.1,0.1
	c3.5,1,7.6,1.1,10.3,3.1c7.2,5.2,13.8,11.1,20.5,17C368.6,263.9,368.6,265.7,369,266.9C368.9,267,369,266.9,369,266.9z"/>
<path class="st1" d="M418.4,216c3.4-2.2,6.6-4.1,9.6-6.4c4.3-3.2,8.2-7,12.6-10.1c3.5-2.5,7.2-4.8,11.1-6.6c1.3-0.6,3.8,0.2,5,1.2
	c1,0.9,1.5,3.4,1.1,4.8c-2,5.7-4.6,11.3-6.7,17c-2.8,7.6-5.6,15.3-7.9,23.1c-2.1,6.9-3.8,14-5.4,21c-1.4,5.9-2.4,11.8-3.6,17.7
	c-1.5,7.6-3.1,15.3-4.7,22.9c-0.9,4.4,1.4,7.4,4.2,10.3c12.1,12,24.3,23.8,36.1,36.1c3.7,3.9,6.1,9.1,9.2,13.6
	c2.8,4.1,6.1,7.8,8.4,12.1c6.2,11.6,6.2,28.2-4.1,39.1c-5.7,6-12.5,9.5-20.1,12c-5.2,1.7-10.4,3.3-15.4,5.4c-4.8,2-9.2,0.8-13.6-1.1
	c-1-0.4-2.1-1.1-3-0.8c-8.9,2-17.5-0.3-25.9-2.3c-5.3-1.2-10-4.7-15.2-6.5c-5.2-1.9-10.6-3.1-16-4.4c-6.2-1.5-12.4-3-18.7-4.3
	c-3.9-0.8-7.9-1.5-11.9-2c-11-1.2-22-2.4-33.1-3.3c-10.9-0.9-21.8-1.2-32.6-2.1c-9.9-0.8-19.8-2-29.8-2.9c-1.6-0.2-3.3-0.2-4.9-0.2
	c-17.6-0.6-35.1-1.2-52.7-1.9c-8.4-0.3-16.8-0.9-25.2-1.4c-0.8,0-2.1,0.2-2.4-0.3c-2.6-4.4-7-2.4-10.6-3c-4.9-0.8-9.8-2.6-14.6-2.6
	c-7.1,0.1-13.2-2.2-18.9-5.6c-2.9-1.7-5.8-3.9-8-6.4c-7.2-8.2-15.2-16.1-20.9-25.3c-4.6-7.4-6.8-16.4-9.3-24.9
	c-1.7-5.9-2.7-12.1-3.1-18.2c-1.1-16.3,5.5-29.4,17.9-39.8c10-8.4,21.6-12.7,34.6-13.5c3.5-0.2,7-1.7,10.4-1.3
	c6.3,0.7,12.5,2.2,18.7,3.6c2,0.4,4,1.4,7,2.5c0.5-8.4,1-16.1,1.3-23.7c0.6-17,1.5-34,1.4-51c0-9.5-1.7-19.1-2.7-28.6
	c-0.1-1.2-0.2-2.5-0.3-3.7c-0.6-8.4-0.8-16.8-2.1-25.1c-0.5-3.1-0.3-5.7,0.2-8.6c0.3-1.4,0-3.3-0.7-4.6c-4.3-7.7-2.5-14.9,4.7-20
	c6.2-4.4,13.1-4.6,20.3-5c7.5-0.4,14.9-1.9,22.3-2.8c3.5-0.4,7.1-0.7,10.6-0.7c13.8,0,27.6,0,41.4,0.4c4.5,0.1,8.9,1.6,13.4,2.5
	c0.8,0.2,1.6,0.5,2.4,0.5c6.6,0.6,13.3,0.8,19.8,1.9c9,1.6,17.8,4,26.7,6c6.1,1.4,12.3,2.5,18.5,4c4,0.9,8,2.1,11.9,3.2
	c4.9,1.5,9.9,3.1,14.8,4.8c6.3,2.1,12.5,4.5,18.8,6.6c5.2,1.8,10.7,3.1,15.8,5.1c5.7,2.2,10.7,5.3,15.6,9.2
	c5.7,4.5,8.6,9.6,7.9,16.8c0,0.3-0.1,0.6,0,0.8c3.5,4.7-0.2,8.4-1.7,12.4c-1.7,4.5-3.6,8.9-4.5,13.6c-2.6,12.9-4,26-3.7,39.2
	C417.9,214.5,418.1,214.9,418.4,216z M174.2,246.6c-0.7,9.4-1.4,18.4-2.2,27.5c-0.2,2-0.5,4-1,6c-1,3.9-1.3,7.4,1.5,11.1
	c4.6,6.2,9.4,12,15.6,16.8c7.5,5.9,14.8,11.9,23.6,15.8c6.1,2.6,12.6,4.2,18.7,6.9c9.5,4.2,18.3,10,29,11.5
	c10.3,1.4,20.4,5.2,30.6,5.7c13.3,0.7,26.6-0.7,39.9-1.4c0.8,0,2.1-1.3,2.4-2.2c0.9-2.6,1.5-5.4,2-8.1c1.3-8,2.3-16,3.5-24
	c0.6-3.6,1-7.2,2.1-10.7c2.6-8.3,4.7-16.6,4-25.4c-0.4-5.4,0.9-10.1,5.6-12.8c8.2-4.8,17-8.6,25.1-13.6c7.4-4.5,14.1-10,21.1-15.1
	c4.4-3.2,8.7-6.3,12.9-9.7c0.8-0.6,0.9-2.4,0.8-3.5c-0.2-1.9-1.3-3.8-1.2-5.7c0.3-4.2,1.8-8.4,1.5-12.5c-0.9-12.7,2.2-24.7,5.1-36.8
	c0.4-1.7,1.2-3.4,2.1-6.1c-3.3,1.2-5.7,1.8-7.9,2.9c-9.9,5-20.7,7.4-31.4,9.7c-4,0.9-8,1.3-12,2c-6,1-11.9,2.4-17.9,2.7
	c-8.3,0.4-16.7,0.1-25-0.1c-5.5-0.2-11.1-0.7-16.6-1.5c-9.2-1.3-18.4-2.7-27.6-4.6c-7.6-1.5-15.4-3-22.6-5.8
	c-14-5.3-27.7-11.4-41.5-17.4c-8.4-3.6-17.1-6.3-24.9-11.4c-5.3-3.5-11.1-6.3-17.4-9.8c0,7.1-0.3,13.4,0.1,19.8
	c0.8,12.9,2.5,25.8,2.9,38.8c0.5,15.4,0.1,30.9,0.1,46.3c0,2.6-0.1,4.9,3.6,5.2c1.1,0.1,2.8,1.6,3,2.7c2.2,10.2,9.5,17.2,16,24.4
	c6.1,6.7,13.9,11.7,22.3,15.4c6.3,2.8,12.7,5.4,19.2,7.8c7.9,3,15.8,6.8,24.1,8.2c12.1,2.1,24.5,2.5,36.8,3.6
	c1.8,0.2,3.5,0.3,5.3,0.4c9.3,0.2,18.6,0.3,27.8,0.5c1.2,0,2.9,0.2,3.6,1c0.7,0.8,0.8,2.6,0.3,3.7c-1.1,2.7-2.9,4.8-6.4,4.3
	c-9-1.1-18-2.2-27-3c-13.6-1.3-27.2-2.1-40.7-3.7c-5.3-0.6-10.5-2.2-15.5-4.1c-8.3-3.2-16.1-7.8-24.5-10.3
	c-13.2-3.9-24.1-10.7-32.9-21C184.6,260.5,179.6,253.6,174.2,246.6z M329,169.5c0-0.1,0-0.1,0-0.2c7.2,0,14.5,0.6,21.7-0.1
	c9.7-1,19.3-2.8,28.9-4.6c5.2-1,10.4-2.2,15.3-4c7-2.7,13.8-6.2,20.7-9.3c2-0.9,2.9-2.1,2.9-4.6c0-6.5-4.1-10.2-8.8-13
	c-3.5-2.1-7.9-2.8-11.9-4.3c-5.8-2.3-11.4-5.1-17.3-7.1c-7.9-2.7-16-4.9-23.9-7.3c-8.5-2.5-16.9-5.3-25.4-7.6
	c-5.9-1.6-12-2.2-18-3.7c-9.9-2.5-19.8-4.6-30-4.8c-0.7,0-1.4,0-2-0.1c-6.6-1-13.2-2.9-19.9-2.9c-19.5,0-39-1.3-58.3,3
	c-6.3,1.4-13,1.4-19.6,1.8c-5.3,0.3-9.4,2.9-13.1,6.3c-0.6,0.5-1.3,1.6-1.1,2.1c1.9,4.6,3.8,9.3,8.1,12.3
	c11.1,7.9,23.5,13.3,35.8,18.7c8,3.6,16.3,6.5,24.5,9.9c6.2,2.5,12.1,5.8,18.5,7.8c10,3.2,20.2,6.1,30.5,8.1
	c10.1,1.9,20.5,2.6,30.8,3.6C321,169.8,325,169.5,329,169.5z M86,310.1c0.8,4.6,1.6,9.2,2.3,13.8c1.4,9.4,5,18,9.9,26
	c3.2,5.1,7.7,9.3,11.2,14.3c6.9,10.1,16.3,16.5,28.1,18.1c10.2,1.4,20.6,1.4,30.8,1.6c3.9,0.1,7.8-0.9,11.6-1.9
	c6.5-1.8,12.9-4.1,19.4-6.1c5-1.5,10.1-3,15.2-4.3c7.3-1.9,14.5-3.7,21.8-5.4c3.5-0.8,7.1-1.2,10.6-1.9c8.4-1.6,16.8-3.4,25.3-4.7
	c3.3-0.5,6.8-0.1,10.2-0.3c4.3-0.3,8.6-1.3,12.8-1.2c9.3,0.2,18.7,0.9,28,1.4c1.5,0.1,3.1,0.7,4.5,0.3c1.1-0.3,1.9-1.8,2.9-2.7
	c-1.1-0.6-2.2-1.7-3.4-1.8c-1.4-0.1-2.9,0.9-4.3,0.9c-12.8-0.2-25.5,0.9-38.3-1c-9.6-1.4-19.3-1.4-28.5-5.1
	c-7.1-2.9-14.5-5-21.7-7.7c-4.8-1.8-9.5-3.9-14.3-5.9c-5.6-2.3-11.7-4-16.9-7.1c-6.4-3.9-12-9-18.1-13.5c-8.2-6-14-14-20-22
	c-2.6-3.5-3.5-6.7-2.9-10.8c0.6-3.4,1.4-6.9,1.7-10.3c0.1-1-0.7-3-1.4-3.2c-9.1-2.8-17.8-6.7-28-5.5c-9.4,1.1-18.3,3.6-26.3,8.1
	C93.8,280.2,85.6,292.7,86,310.1z M444.9,208.2c-2,0.8-3,1-3.8,1.6c-3.8,2.4-7.6,4.7-11.2,7.4c-8.9,6.7-18.1,13.1-26.4,20.5
	c-12.9,11.4-27.1,20.4-42.9,27.1c-3.8,1.6-8,3.7-8.3,9.2c-0.1,2.9-1.1,5.8-1.5,8.7c-1.2,7.7-2.3,15.5-3.5,23.2
	c-0.5,2.9-1.2,5.8-1.9,8.7c-2,7.4-4.3,14.6-4.5,22.5c-0.1,7.4-1,14.8-2,22.2c-0.3,2.5,0.4,2.9,2.3,4.1c5.8,3.6,13.6,3.1,18.4,8.9
	c0.6,0.8,2.9,0.7,4.2,0.3c4.3-1.3,8.5-3.3,12.8-4.3c9.6-2.3,19.4-3.7,28-9c0.5-0.3,1.4,0,2.2,0.1c3.7,0.5,7.5-1.7,7.8-4.9
	c0.7-6.3,1.2-12.6,1.8-19c0.2-2.6,0.1-5.2,0.5-7.7c0.8-5,2.1-10,2.8-15c0.6-4.5-2-9.6,3.1-13c0.2-0.2,0.2-0.8,0.2-1.2
	c1.1-6.2,2.3-12.5,3.4-18.7c0.7-3.7,1.1-7.5,1.9-11.1c1.4-6.4,3-12.8,4.6-19.1c1.7-6.6,3.6-13.2,5.5-19.8
	C440.4,223,442.5,216.3,444.9,208.2z M427.6,318.5c-0.5,0.2-1,0.3-1.4,0.5c-0.6,3.7-1.2,7.3-1.6,11c-0.3,3.3-0.3,6.6-0.5,9.9
	c-0.3,5.7-0.7,11.4-1.1,17.1c-0.1,1.1-0.3,2.4-0.9,3.4c-1,1.8-2.4,3.5-4.1,6c-2.9,0.4-6.9,0.9-10.9,1.7c-3.4,0.7-6.8,1.4-10.1,2.5
	c-8.1,2.7-16.2,5.7-24.7,8.7c0,0.1,0.2,1.3,0.8,1.8c2.5,2.3,5.1,4.5,7.9,6.4c5.7,3.9,11.8,7.5,17.4,11.5c2.8,2,4.9,5.1,7.8,7.1
	c3.8,2.7,7.8,5,11.9,7.2c9,4.8,18.3,8.2,28.7,7c2.3-0.3,4.6-0.8,6.8-1.7c5.6-2.1,11.5-3.8,16.5-6.9c5.7-3.6,10.6-8.9,11.4-16.1
	c0.5-5.1,0.8-10.8-0.8-15.5c-1.8-5.2-5.6-9.8-8.8-14.5c-4.3-6.3-8.1-13.1-13.4-18.5C448.6,337.1,437.9,328,427.6,318.5z
	 M401.1,412.3c0.2-0.5,0.4-1,0.6-1.4c-3.2-2.3-6.5-4.6-9.7-6.9c-6-4.2-11.9-8.4-17.9-12.6c-6.4-4.5-12.3-9.8-19.2-13.3
	c-7.5-3.8-14.9-8.2-23.8-8.8c-6-0.4-11.8-2.5-17.7-2.7c-12.1-0.5-24.2-0.6-36.2,1.2c-2.9,0.5-6,0-9,0.5c-7.3,1.3-14.5,2.9-21.7,4.3
	c-3.5,0.7-7,1.3-10.5,2c-6.3,1.2-12.6,2.3-18.8,3.8c-4.8,1.2-9.4,2.8-14,4.4c-3.5,1.1-7,2.4-10.5,3.6c4.3,1.4,8.3,2.4,12.4,2.6
	c8.8,0.4,17.6,0.1,26.4,0.6c10,0.6,19.9,2,29.9,2.8c8.9,0.7,17.9,0.9,26.8,1.7c10.1,0.9,20.2,2.2,30.4,3.2c8,0.8,16.2,1,24.2,1.9
	c7.6,0.9,15.2,2.4,22.7,4.3c9.6,2.4,19.5,3,28.8,7C396.2,411.4,398.7,411.7,401.1,412.3z"/>
<path class="st2" d="M174.2,246.6c5.4,6.9,10.4,13.8,15.9,20.3c8.8,10.3,19.8,17.1,32.9,21c8.4,2.5,16.2,7.1,24.5,10.3
	c5,1.9,10.2,3.5,15.5,4.1c13.5,1.5,27.1,2.4,40.7,3.7c9,0.9,18,1.9,27,3c3.5,0.4,5.3-1.6,6.4-4.3c0.4-1,0.3-2.9-0.3-3.7
	c-0.7-0.8-2.3-1-3.6-1c-9.3-0.2-18.6-0.3-27.8-0.5c-1.8,0-3.5-0.2-5.3-0.4c-12.3-1.1-24.7-1.5-36.8-3.6c-8.2-1.5-16.1-5.2-24.1-8.2
	c-6.5-2.4-12.9-5.1-19.2-7.8c-8.4-3.7-16.2-8.7-22.3-15.4c-6.5-7.2-13.8-14.1-16-24.4c-0.2-1.1-1.9-2.6-3-2.7
	c-3.6-0.3-3.6-2.5-3.6-5.2c0-15.4,0.4-30.9-0.1-46.3c-0.4-12.9-2.1-25.8-2.9-38.8c-0.4-6.3-0.1-12.7-0.1-19.8
	c6.3,3.5,12.1,6.3,17.4,9.8c7.7,5.1,16.5,7.8,24.9,11.4c13.8,6,27.5,12.1,41.5,17.4c7.2,2.7,15,4.3,22.6,5.8
	c9.1,1.8,18.4,3.3,27.6,4.6c5.5,0.8,11.1,1.3,16.6,1.5c8.3,0.3,16.7,0.6,25,0.1c6-0.3,12-1.8,17.9-2.7c4-0.6,8-1.1,12-2
	c10.7-2.3,21.5-4.7,31.4-9.7c2.2-1.1,4.6-1.7,7.9-2.9c-0.9,2.7-1.7,4.3-2.1,6.1c-2.9,12.1-6,24.1-5.1,36.8c0.3,4.1-1.2,8.3-1.5,12.5
	c-0.1,1.9,1,3.8,1.2,5.7c0.1,1.2-0.1,2.9-0.8,3.5c-4.2,3.4-8.6,6.6-12.9,9.7c-7,5.1-13.8,10.6-21.1,15.1c-8.1,5-16.9,8.8-25.1,13.6
	c-4.6,2.7-6,7.4-5.6,12.8c0.7,8.8-1.4,17.1-4,25.4c-1.1,3.4-1.5,7.1-2.1,10.7c-1.2,8-2.3,16-3.5,24c-0.4,2.8-1.1,5.5-2,8.1
	c-0.3,0.9-1.5,2.1-2.4,2.2c-13.3,0.7-26.7,2.1-39.9,1.4c-10.3-0.5-20.4-4.3-30.6-5.7c-10.7-1.5-19.5-7.3-29-11.5
	c-6.1-2.7-12.6-4.3-18.7-6.9c-8.8-3.8-16.1-9.8-23.6-15.8c-6.1-4.9-10.9-10.7-15.6-16.8c-2.8-3.7-2.5-7.2-1.5-11.1c0.5-2,0.9-4,1-6
	C172.8,265.1,173.5,256.1,174.2,246.6z"/>
<path class="st2" d="M329,169.5c-4,0-8,0.3-11.9-0.1c-10.3-1-20.6-1.7-30.8-3.6c-10.3-2-20.5-4.9-30.5-8.1c-6.4-2-12.3-5.3-18.5-7.8
	c-8.1-3.4-16.4-6.3-24.5-9.9c-12.3-5.4-24.7-10.8-35.8-18.7c-4.3-3-6.1-7.7-8.1-12.3c-0.2-0.5,0.5-1.6,1.1-2.1
	c3.7-3.4,7.8-6,13.1-6.3c6.5-0.4,13.2-0.4,19.6-1.8c19.3-4.3,38.9-2.9,58.3-3c6.6,0,13.2,1.9,19.9,2.9c0.7,0.1,1.4,0.1,2,0.1
	c10.2,0.2,20.1,2.3,30,4.8c5.9,1.5,12.1,2.1,18,3.7c8.5,2.3,16.9,5,25.4,7.6c8,2.4,16.1,4.6,23.9,7.3c5.9,2,11.5,4.8,17.3,7.1
	c3.9,1.5,8.3,2.2,11.9,4.3c4.7,2.8,8.8,6.5,8.8,13c0,2.5-0.9,3.7-2.9,4.6c-6.9,3.1-13.6,6.6-20.7,9.3c-4.9,1.9-10.1,3.1-15.3,4
	c-9.6,1.8-19.2,3.6-28.9,4.6c-7.2,0.7-14.4,0.1-21.7,0.1C329,169.4,329,169.5,329,169.5z"/>
<path class="st2" d="M86,310.1c-0.4-17.4,7.9-29.9,22.3-37.9c7.9-4.4,16.8-7,26.3-8.1c10.2-1.2,18.9,2.8,28,5.5
	c0.8,0.2,1.5,2.1,1.4,3.2c-0.4,3.5-1.1,6.9-1.7,10.3c-0.7,4,0.3,7.3,2.9,10.8c5.9,8,11.8,16,20,22c6.1,4.5,11.7,9.6,18.1,13.5
	c5.2,3.1,11.2,4.8,16.9,7.1c4.8,2,9.4,4.1,14.3,5.9c7.2,2.7,14.6,4.8,21.7,7.7c9.2,3.8,19,3.7,28.5,5.1c12.8,1.9,25.6,0.8,38.3,1
	c1.4,0,2.9-1,4.3-0.9c1.2,0.1,2.3,1.2,3.4,1.8c-0.9,0.9-1.7,2.4-2.9,2.7c-1.3,0.4-3-0.2-4.5-0.3c-9.3-0.5-18.7-1.2-28-1.4
	c-4.3-0.1-8.6,0.9-12.8,1.2c-3.4,0.2-6.9-0.2-10.2,0.3c-8.5,1.4-16.9,3.2-25.3,4.7c-3.5,0.7-7.1,1-10.6,1.9
	c-7.3,1.7-14.6,3.5-21.8,5.4c-5.1,1.3-10.2,2.8-15.2,4.3c-6.5,2-12.9,4.3-19.4,6.1c-3.8,1-7.7,2-11.6,1.9
	c-10.3-0.2-20.7-0.2-30.8-1.6c-11.8-1.7-21.3-8.1-28.1-18.1c-3.4-5-8-9.2-11.2-14.3c-4.9-8-8.5-16.6-9.9-26
	C87.6,319.3,86.7,314.7,86,310.1z"/>
<path class="st2" d="M444.9,208.2c-2.5,8-4.6,14.7-6.6,21.5c-1.9,6.6-3.8,13.2-5.5,19.8c-1.7,6.3-3.2,12.7-4.6,19.1
	c-0.8,3.7-1.3,7.4-1.9,11.1c-1.1,6.2-2.3,12.5-3.4,18.7c-0.1,0.4,0,1-0.2,1.2c-5,3.4-2.5,8.6-3.1,13c-0.7,5-2,10-2.8,15
	c-0.4,2.5-0.3,5.2-0.5,7.7c-0.5,6.3-1.1,12.6-1.8,19c-0.4,3.2-4.1,5.4-7.8,4.9c-0.7-0.1-1.7-0.4-2.2-0.1c-8.6,5.3-18.4,6.7-28,9
	c-4.4,1.1-8.5,3-12.8,4.3c-1.3,0.4-3.6,0.5-4.2-0.3c-4.8-5.8-12.6-5.3-18.4-8.9c-1.9-1.2-2.6-1.6-2.3-4.1c1-7.4,1.9-14.8,2-22.2
	c0.2-7.8,2.5-15.1,4.5-22.5c0.8-2.9,1.5-5.8,1.9-8.7c1.3-7.7,2.3-15.5,3.5-23.2c0.5-2.9,1.4-5.8,1.5-8.7c0.2-5.5,4.5-7.6,8.3-9.2
	c15.8-6.7,30-15.7,42.9-27.1c8.3-7.4,17.5-13.8,26.4-20.5c3.6-2.7,7.4-5,11.2-7.4C441.9,209.3,442.9,209,444.9,208.2z"/>
<path class="st2" d="M427.6,318.5c10.3,9.5,21,18.6,30.8,28.6c5.3,5.4,9.1,12.2,13.4,18.5c3.2,4.7,7.1,9.3,8.8,14.5
	c1.6,4.8,1.3,10.4,0.8,15.5c-0.7,7.2-5.6,12.5-11.4,16.1c-5,3.1-10.9,4.8-16.5,6.9c-2.2,0.8-4.5,1.4-6.8,1.7
	c-10.4,1.2-19.8-2.2-28.7-7c-4.1-2.2-8.2-4.5-11.9-7.2c-2.8-2-4.9-5.1-7.8-7.1c-5.7-4-11.7-7.6-17.4-11.5c-2.8-1.9-5.4-4.2-7.9-6.4
	c-0.7-0.6-0.8-1.7-0.8-1.8c8.5-3,16.6-6,24.7-8.7c3.3-1.1,6.7-1.8,10.1-2.5c3.9-0.8,7.9-1.3,10.9-1.7c1.7-2.5,3-4.2,4.1-6
	c0.6-1,0.8-2.2,0.9-3.4c0.4-5.7,0.8-11.4,1.1-17.1c0.2-3.3,0.2-6.6,0.5-9.9c0.4-3.7,1.1-7.3,1.6-11
	C426.6,318.9,427.1,318.7,427.6,318.5z"/>
<path class="st2" d="M401.1,412.3c-2.4-0.6-4.8-0.9-7.1-1.9c-9.2-4-19.2-4.6-28.8-7c-7.5-1.9-15.1-3.4-22.7-4.3
	c-8-1-16.1-1.2-24.2-1.9c-10.1-1-20.2-2.3-30.4-3.2c-8.9-0.8-17.9-0.9-26.8-1.7c-10-0.8-19.9-2.2-29.9-2.8
	c-8.8-0.6-17.6-0.2-26.4-0.6c-4.1-0.2-8.1-1.2-12.4-2.6c3.5-1.2,7-2.5,10.5-3.6c4.7-1.5,9.3-3.2,14-4.4c6.2-1.5,12.5-2.6,18.8-3.8
	c3.5-0.7,7-1.3,10.5-2c7.2-1.4,14.5-3.1,21.7-4.3c2.9-0.5,6,0,9-0.5c12-1.9,24.1-1.7,36.2-1.2c5.9,0.2,11.8,2.3,17.7,2.7
	c8.9,0.6,16.3,5,23.8,8.8c6.9,3.5,12.8,8.8,19.2,13.3c6,4.2,11.9,8.4,17.9,12.6c3.3,2.3,6.5,4.6,9.7,6.9
	C401.5,411.4,401.3,411.8,401.1,412.3z"/>
<linearGradient id="SVGID_2_" gradientUnits="userSpaceOnUse" x1="218.7327" y1="449.4038" x2="359.9185" y2="204.8628">
	<stop  offset="0" style="stop-color:#3AAA35"/>
	<stop  offset="1" style="stop-color:#20671F"/>
</linearGradient>
<path class="st3" d="M300.4,218.3C147.8,196.9,16.7,232.6,7.5,298c-1.5,10.4,0.3,21,4.8,31.5c0,0,0,0,0,0c0,0,21.4,21.9,90.3,12.3
	c68.9-9.6,78.7-30.6,162.1-24.1c83.4,6.5,145.2,103.6,234.7,119.4c0,0-0.1,0-0.1,0c34.8-14.9,57-35.9,60.6-61.4
	C569.1,310.2,452.9,239.8,300.4,218.3z"/>
<linearGradient id="SVGID_3_" gradientUnits="userSpaceOnUse" x1="125.2691" y1="288.6909" x2="467.8425" y2="288.6909">
	<stop  offset="0" style="stop-color:#7A110F"/>
	<stop  offset="6.083873e-03" style="stop-color:#7D1210"/>
	<stop  offset="5.813157e-02" style="stop-color:#921416"/>
	<stop  offset="0.1149" style="stop-color:#A2151B"/>
	<stop  offset="0.1772" style="stop-color:#AF161E"/>
	<stop  offset="0.2478" style="stop-color:#B71620"/>
	<stop  offset="0.3338" style="stop-color:#BD1621"/>
	<stop  offset="0.4788" style="stop-color:#BE1622"/>
	<stop  offset="0.5697" style="stop-color:#BC1621"/>
	<stop  offset="0.6552" style="stop-color:#B51620"/>
	<stop  offset="0.7386" style="stop-color:#A9151D"/>
	<stop  offset="0.8207" style="stop-color:#981418"/>
	<stop  offset="0.9019" style="stop-color:#821211"/>
	<stop  offset="0.9814" style="stop-color:#670F07"/>
	<stop  offset="1" style="stop-color:#5F0D04"/>
</linearGradient>
<path class="st4" d="M135.8,201.8c0,0-1.2,24.5-9.8,63c-4.1,11.8,6.5,67.4,147.9,101.8s189.4-39.7,192.8-57.5c0,0-4.6-7.6,1.1-44.3
	S135.8,201.8,135.8,201.8z"/>
<linearGradient id="SVGID_4_" gradientUnits="userSpaceOnUse" x1="125.9431" y1="155.502" x2="486.8379" y2="155.502">
	<stop  offset="0" style="stop-color:#20651E"/>
	<stop  offset="1.776071e-02" style="stop-color:#257022"/>
	<stop  offset="5.186104e-02" style="stop-color:#2C8028"/>
	<stop  offset="9.054974e-02" style="stop-color:#328E2C"/>
	<stop  offset="0.1342" style="stop-color:#359830"/>
	<stop  offset="0.1852" style="stop-color:#38A032"/>
	<stop  offset="0.2483" style="stop-color:#39A634"/>
	<stop  offset="0.3368" style="stop-color:#3AA935"/>
	<stop  offset="0.5825" style="stop-color:#3AAA35"/>
	<stop  offset="0.6756" style="stop-color:#3AA935"/>
	<stop  offset="0.7403" style="stop-color:#39A433"/>
	<stop  offset="0.7962" style="stop-color:#379D31"/>
	<stop  offset="0.8473" style="stop-color:#34932E"/>
	<stop  offset="0.8951" style="stop-color:#2E8529"/>
	<stop  offset="0.9403" style="stop-color:#267323"/>
	<stop  offset="0.9829" style="stop-color:#1B5D1B"/>
	<stop  offset="1" style="stop-color:#155216"/>
</linearGradient>
<path class="st5" d="M467.8,256.5c0,0-10.9-93.5,19.1-180.9L125.9,28.9c0,0,15.2,114.4,9.8,172.9c0,0,4.5,47.4,140.8,71.3
	c65.7,11.6,139.3,16.8,186.2-14.7"/>
<ellipse transform="matrix(0.1392 -0.9903 0.9903 0.1392 210.0496 350.0903)" class="st6" cx="306.4" cy="54.2" rx="39.4" ry="182.2"/>
<path class="st7" d="M369.4,418.4c0,0,77.4-46.7,104.8-55.2c0,0,25.1-143.4,53.4-197.7c0,0-88.7,53.9-136.3,75
	C391.4,240.6,361.6,366.8,369.4,418.4z"/>
<linearGradient id="SVGID_5_" gradientUnits="userSpaceOnUse" x1="267.4398" y1="317.5992" x2="251.2106" y2="409.6393">
	<stop  offset="0" style="stop-color:#006633"/>
	<stop  offset="1" style="stop-color:#003314"/>
</linearGradient>
<path class="st8" d="M264.7,317.7c-83.4-6.5-93.2,14.4-162.1,24.1c-68.9,9.6-90.3-12.3-90.3-12.3l0,0c24,55.2,75.9,48.9,204.1,66.9
	c106.4,15,228.7,63.9,283,40.7C409.9,421.3,348,324.2,264.7,317.7z"/>
<g>
	<g>
		<path d="M398.9,269c6.2-10.2,14.1-19.1,23.4-26.5c-0.9,0.1-1.8,0.2-2.7,0.4c-6.8,24.8-14.3,49.3-22.4,73.7
			c-0.2,0.5,2.6,0.2,2.9-0.5c8.1-24.4,15.5-49,22.4-73.7c0.2-0.8-2.5,0.2-2.7,0.4c-9.4,7.5-17.4,16.5-23.7,26.8
			C395.9,269.8,398.5,269.7,398.9,269L398.9,269z"/>
	</g>
</g>
<g>
	<g>
		<path d="M434.6,248.8c-10.5,10-16.9,23.8-17.7,38.3c-0.4,7,0.1,15.2,3.1,21.6c2.3,5.1,7.5,4.3,11.9,2.2c14.6-7,14.3-25.6,15-39.4
			c0.3-6,1.3-13.1-5.3-16.1c-5-2.3-10.3,0-13.2,4.2c-0.9,1.3,2.1,1.2,2.8,0.3c2.1-1.1,4.3-2.2,6.4-3.4c1.7,0.2,3.1,0.9,4.2,2.2
			c1.3,1.3,2,2.7,2.4,4.6c0.5,2.7,0,5.8-0.2,8.5c-0.3,5.1-0.4,10.3-1,15.4c-0.7,5.8-2.2,11.8-5.8,16.6c-1.6,2.1-3.7,4.2-6.1,5.3
			c-6.7,3-8.5-1.3-9.7-5.8c-5-19.2,1.3-40.2,15.6-53.8C438.3,248.3,435.5,247.9,434.6,248.8L434.6,248.8z"/>
	</g>
</g>
<g>
	<g>
		<path d="M464.9,271c-16.3,21.3-25,48.8-46.8,65.6c-1.2,0.9,1.7,0.8,2.3,0.3c22-16.9,30.8-44.5,47.2-66
			C468.3,270,465.4,270.3,464.9,271L464.9,271z"/>
	</g>
</g>
<g>
	<g>
		<path d="M465.4,310.8c-9.4,6.2-15.4,15.8-20.6,25.7c-3.4,6.6-9.8,21.6,1.3,24.9c3.4,1,7.2,0.1,10.2-1.6c2.2-1.2,8-4.6,7.9-7.5
			c-0.2-3.3-8.2-6.7-10.8-7.1c-3.6-0.6-7,0.5-9.8,2.9c-1.3,1.1,1.6,1.3,2.4,0.6c3.7-3.4,7.9-1.6,11.1,0.5c0.7,0.5,3.3,2,3.6,3
			c0.6,1.9-1.1,2.8-2.4,3.9c-2.7,2.3-5,3.6-8.7,3.4c-9.9-0.6-6.7-12.9-4-18.9c4.9-10.8,11.6-22.1,21.7-28.8
			C468.9,310.7,466.4,310.1,465.4,310.8L465.4,310.8z"/>
	</g>
</g>
<g>
	<path d="M212.7,7.7c28.8,0,62.9,2.4,99.1,7.5c93.6,13.2,168.4,39.4,174.6,60.3l0.3,0c-0.1,0.2-0.1,0.4-0.2,0.6
		c0.3,1.2,0.3,2.3,0.2,3.4c-0.3,2.1-1.4,4.1-3.2,5.9c-12.8,41.7-16.9,84-17.6,116.1c33.3-18.8,61.7-36,61.7-36
		c-13.7,26.3-26.7,73.5-36.4,115.2c46.7,28.4,73.2,62.3,68.7,94.9c-3.6,25.6-25.8,46.6-60.6,61.4c0,0,0.1,0,0.1,0
		c-9.9,4.2-22.4,6-36.9,6c-2,0-4,0-6-0.1l-0.3,86.7c0,0,0.7,30.7-158.3,30.7c-0.1,0-0.1,0-0.2,0c-158.3,0-158.3-31.7-158.3-31.7
		l0.4-141.9c-74-8.8-109.1-14.7-127.6-57.3c0,0,0,0,0,0C7.8,319,6,308.5,7.5,298c5.5-39.3,55-67.9,126.7-79.8
		c1.3-10.6,1.6-16.5,1.6-16.5c4.7-51.4-6.4-145.9-9.2-168.1c-0.6-1.6-0.8-3.2-0.6-4.8C127.9,15.2,162.3,7.7,212.7,7.7 M12.3,329.5
		C12.3,329.5,12.3,329.5,12.3,329.5 M212.7,2.7c-25.6,0-47.3,1.9-62.7,5.6c-18.2,4.3-27.7,10.8-29,19.9c-0.3,2.2-0.1,4.4,0.7,6.6
		c2.5,20.1,13.8,115.6,9.2,166.5l0,0.1l0,0.1c0,0-0.2,4.5-1.1,12.4c-34.9,6.1-64.6,16.4-86.2,29.7c-23.9,14.7-38,33.2-40.9,53.7
		C1,308.5,2.7,320,7.7,331.5c9.5,21.8,23.6,35.4,45.8,44c20.1,7.8,46.6,11.6,81.4,15.8l-0.4,137.4c0,2.7,1.7,12,22.9,20.5
		c26.9,10.7,74.1,16.2,140.4,16.2h0.2c109.7,0,146.8-14.3,158.5-26.4c4.3-4.4,4.7-8.1,4.7-9.3h0l0.3-81.6c0.3,0,0.7,0,1,0
		c16,0,28.7-2.1,38.7-6.3l0,0c37.9-16.2,59.9-38.8,63.6-65.4c4.6-32.9-19.5-67.6-67.9-97.9c12.2-51.6,24.3-89.7,35.1-110.6l8.3-15.9
		l-15.3,9.3c-0.3,0.2-24.4,14.8-53.8,31.6c1.2-28.1,5.2-66.6,16.8-104.8c2.1-2.4,3.3-5,3.7-7.8c0.2-1.2,0.2-2.4,0-3.7l1.8-5.1
		L490,71c-5.8-11.1-24.7-22.2-56.4-33.2c-32.7-11.3-75.6-21.1-121-27.5C277.3,5.3,242.8,2.7,212.7,2.7L212.7,2.7z"/>
</g>
</svg>
