<?xml version="1.0" encoding="utf-8"?>
<!-- Generator: Adobe Illustrator 22.1.0, SVG Export Plug-In . SVG Version: 6.00 Build 0)  -->
<svg version="1.1" xmlns="http://www.w3.org/2000/svg" xmlns:xlink="http://www.w3.org/1999/xlink" x="0px" y="0px"
	 viewBox="0 0 566.9299927 566.9299927" style="enable-background:new 0 0 566.9299927 566.9299927;" xml:space="preserve">
<style type="text/css">
	.st0{display:none;}
	.st1{fill:#FFFFFF;}
	.st2{fill:url(#SVGID_1_);}
	.st3{fill:url(#SVGID_2_);}
	.st4{fill:url(#SVGID_3_);}
	.st5{fill:url(#SVGID_4_);}
	.st6{fill:url(#SVGID_5_);}
	.st7{fill:url(#SVGID_6_);}
	.st8{fill:#E6332A;}
	.st9{fill:url(#SVGID_7_);}
	.st10{fill:url(#SVGID_8_);}
	.st11{fill:url(#SVGID_9_);}
	.st12{fill:url(#SVGID_10_);}
	.st13{fill:url(#SVGID_11_);}
	.st14{fill:url(#SVGID_12_);}
	.st15{fill:url(#SVGID_13_);}
</style>
<g id="Laag_2" class="st0">
</g>
<g id="Laag_1">
	<path class="st1" d="M94.0197906,52.3202934c0,0-3.9931641-4.332962,12.7481689-9.1161995
		s46.6280365-11.4079723,46.6280365-11.4079723L110.9651489,86.733429l-4.3849945-24.6415901L94.0197906,52.3202934z"/>
	<path class="st1" d="M471.9417114,52.3202934c0,0,3.9931641-4.332962-12.7481689-9.1161995
		s-48.7826843-10.5198021-48.7826843-10.5198021l44.5854797,54.0491371l4.3849792-24.6415901L471.9417114,52.3202934z"/>
	
		<linearGradient id="SVGID_1_" gradientUnits="userSpaceOnUse" x1="109.2352371" y1="283.4649963" x2="454.9963379" y2="283.4649963">
		<stop  offset="0" style="stop-color:#C6C6C6"/>
		<stop  offset="0.502544" style="stop-color:#F2F2F2"/>
		<stop  offset="0.6437621" style="stop-color:#F0F0F0"/>
		<stop  offset="0.7664943" style="stop-color:#E8E8E8"/>
		<stop  offset="0.8823374" style="stop-color:#DBDBDB"/>
		<stop  offset="0.9933507" style="stop-color:#C8C8C7"/>
		<stop  offset="1" style="stop-color:#C6C6C6"/>
	</linearGradient>
	<path class="st2" d="M109.2352371,524.6152954c0,0-0.0026245,34.4069824,172.0855103,34.4370728
		c173.0131836,0.0301514,172.2982178-33.3564453,172.2982178-33.3564453l1.3773804-438.9624939
		c0,0-5.2988892-78.8615723-172.0155945-78.8557663C109.2530212,7.8837061,110.6126099,85.6528091,110.6126099,85.6528091
		L109.2352371,524.6152954z"/>
	
		<linearGradient id="SVGID_2_" gradientUnits="userSpaceOnUse" x1="111.2527847" y1="244.7780151" x2="454.7087402" y2="244.7780151">
		<stop  offset="0" style="stop-color:#EFEEEE"/>
		<stop  offset="0.479387" style="stop-color:#FFFFFF"/>
		<stop  offset="1" style="stop-color:#E3E3E3"/>
	</linearGradient>
	<path class="st3" d="M282.9807434,144.846405c0,0-136.1791687,1.5800018-171.7279663-32.388855l0.8283157,223.8955383
		c0,0,35.3280945,40.7453918,170.8996429,40.7453918s170.8996277-40.7453918,170.8996277-40.7453918l0.8283691-223.8955383
		C419.1599731,146.4264069,282.9807434,144.846405,282.9807434,144.846405z"/>
	
		<linearGradient id="SVGID_3_" gradientUnits="userSpaceOnUse" x1="268.1558838" y1="244.7779999" x2="454.7087708" y2="244.7779999">
		<stop  offset="0" style="stop-color:#F4F4F4"/>
		<stop  offset="0.0273189" style="stop-color:#F6F5F5"/>
		<stop  offset="0.2347803" style="stop-color:#FDFDFD"/>
		<stop  offset="0.489363" style="stop-color:#FFFFFF"/>
	</linearGradient>
	<path class="st4" d="M282.9807129,144.8464203c0,0-5.5550537,0.0641022-14.7070618-0.1126251l-0.1177673,0.1126251v232.0776215
		c4.8085022,0.1104431,9.7374878,0.174408,14.8248291,0.174408c135.5715942,0,170.8996582-40.7453918,170.8996582-40.7453918
		l0.8283997-223.8955231C419.1600037,146.4264069,282.9807129,144.8464203,282.9807129,144.8464203z"/>
	<linearGradient id="SVGID_4_" gradientUnits="userSpaceOnUse" x1="317.857666" y1="123.2635651" x2="317.857666" y2="176.6148376">
		<stop  offset="0" style="stop-color:#A2151B"/>
		<stop  offset="0.0837169" style="stop-color:#AE151E"/>
		<stop  offset="0.184735" style="stop-color:#B71620"/>
		<stop  offset="0.3030956" style="stop-color:#BC1621"/>
		<stop  offset="0.479387" style="stop-color:#BE1622"/>
		<stop  offset="0.616774" style="stop-color:#BC1621"/>
		<stop  offset="0.739527" style="stop-color:#B51620"/>
		<stop  offset="0.8566591" style="stop-color:#AA151D"/>
		<stop  offset="0.969715" style="stop-color:#9A1419"/>
		<stop  offset="1" style="stop-color:#951417"/>
	</linearGradient>
	<path class="st5" d="M295.8735657,137.7053528l37.1003113-14.1242447c2.5937195-0.9874496,5.4969482,0.409317,6.3084717,3.0633698
		c2.3509521,7.6889725,5.8358459,24.1395645,1.8374634,45.9958115c-0.5482178,2.9967957-3.693634,4.7575989-6.5245667,3.6319122
		l-38.7876587-15.4234161c-1.83255-0.7286987-3.0353394-2.5013733-3.0353394-4.4734802v-14.1707916
		C292.7722473,140.206543,294.0063171,138.416214,295.8735657,137.7053528z"/>
	
		<linearGradient id="SVGID_5_" gradientUnits="userSpaceOnUse" x1="-19.2783909" y1="73.2866364" x2="-113.4449692" y2="107.5604706" gradientTransform="matrix(-1 0 0 1 344.5523987 0)">
		<stop  offset="0" style="stop-color:#FFFFFF"/>
		<stop  offset="0.3642769" style="stop-color:#FDFDFD"/>
		<stop  offset="0.6216056" style="stop-color:#F6F6F6"/>
		<stop  offset="0.8452619" style="stop-color:#EBEBEB"/>
		<stop  offset="1" style="stop-color:#E0E0E0"/>
	</linearGradient>
	<path class="st6" d="M344.4457703,126.5465546c0,0,48.9014893-46.3433228,66.3999634-79.1879044
		c0,0,45.8805237,17.2328796,61.0959778,4.9616432c-11.2446899,18.8265114-16.9453735,34.4131355-16.9453735,34.4131355
		l-10.2424011,57.2130737L344.4457703,126.5465546z"/>
	
		<linearGradient id="SVGID_6_" gradientUnits="userSpaceOnUse" x1="343.7199707" y1="291.6846313" x2="507.8495178" y2="231.9463654">
		<stop  offset="0" style="stop-color:#BE1622"/>
		<stop  offset="0.2636172" style="stop-color:#BC1621"/>
		<stop  offset="0.4510806" style="stop-color:#B71620"/>
		<stop  offset="0.6150081" style="stop-color:#AD151E"/>
		<stop  offset="0.7653342" style="stop-color:#9F151A"/>
		<stop  offset="0.905122" style="stop-color:#8D1315"/>
		<stop  offset="1" style="stop-color:#7E1210"/>
	</linearGradient>
	<path class="st7" d="M454.9963379,86.733429c0,0-6.4189148,34.5628204-110.5505676,39.8131561
		c0,0,9.9191589,245.0156403,55.2752991,308.0196533c0,0,100.7194214-25.1339417,130.6934204-74.6722107
		c6.1213379-10.1167908,5.553894-22.8895569-1.4143066-32.4427795
		C511.6177063,303.6204224,474.1452637,236.9056091,454.9963379,86.733429z"/>
	<path class="st8" d="M375.2153625,373.265625c-4.1627502-56.215271,18.1319275-127.2466278,18.1319275-127.2466278
		l-16.7630615-5.587677l16.7630615-26.0757599l-48.9015198-87.8090057
		C344.4457703,126.5465546,350.5740051,277.8838806,375.2153625,373.265625L375.2153625,373.265625z"/>
	
		<linearGradient id="SVGID_7_" gradientUnits="userSpaceOnUse" x1="107.9641037" y1="107.5604706" x2="202.1306915" y2="73.2866364">
		<stop  offset="0" style="stop-color:#E0E0E0"/>
		<stop  offset="0.1547381" style="stop-color:#EBEBEB"/>
		<stop  offset="0.3783944" style="stop-color:#F6F6F6"/>
		<stop  offset="0.6357231" style="stop-color:#FDFDFD"/>
		<stop  offset="1" style="stop-color:#FFFFFF"/>
	</linearGradient>
	<path class="st9" d="M221.5157166,126.5465546c0,0-48.9015045-46.3433228-66.3999634-79.1879044
		c0,0-45.8805161,17.2328796-61.0959625,4.9616432c11.2446823,18.8265114,16.9453583,34.4131355,16.9453583,34.4131355
		l10.2423935,57.2130737L221.5157166,126.5465546z"/>
	
		<linearGradient id="SVGID_8_" gradientUnits="userSpaceOnUse" x1="58.1119614" y1="231.9463654" x2="222.2415314" y2="291.6846313">
		<stop  offset="0" style="stop-color:#7E1210"/>
		<stop  offset="0.094878" style="stop-color:#8D1315"/>
		<stop  offset="0.2346658" style="stop-color:#9F151A"/>
		<stop  offset="0.3849919" style="stop-color:#AD151E"/>
		<stop  offset="0.5489194" style="stop-color:#B71620"/>
		<stop  offset="0.7363828" style="stop-color:#BC1621"/>
		<stop  offset="1" style="stop-color:#BE1622"/>
	</linearGradient>
	<path class="st10" d="M110.9651489,86.733429c0,0,6.4189224,34.5628204,110.5505676,39.8131561
		c0,0-9.9191437,245.0156403-55.2752838,308.0196533c0,0-94.6966171-23.6309814-127.7725983-70.2277832
		c-8.2832012-11.66922-8.2090206-27.3162537,0.0221443-39.0222168
		C56.4573631,299.7638245,92.3600311,232.6408386,110.9651489,86.733429z"/>
	<path class="st8" d="M190.7461395,373.265625c4.162735-56.215271-18.1319275-127.2466278-18.1319275-127.2466278
		l16.7630463-5.587677l-16.7630463-26.0757599l48.9015045-87.8090057
		C221.5157166,126.5465546,215.3874817,277.8838806,190.7461395,373.265625L190.7461395,373.265625z"/>
	
		<linearGradient id="SVGID_9_" gradientUnits="userSpaceOnUse" x1="248.1038208" y1="123.2505798" x2="248.1038208" y2="176.6305542">
		<stop  offset="0" style="stop-color:#A2151B"/>
		<stop  offset="0.0837169" style="stop-color:#AE151E"/>
		<stop  offset="0.184735" style="stop-color:#B71620"/>
		<stop  offset="0.3030956" style="stop-color:#BC1621"/>
		<stop  offset="0.479387" style="stop-color:#BE1622"/>
		<stop  offset="0.616774" style="stop-color:#BC1621"/>
		<stop  offset="0.739527" style="stop-color:#B51620"/>
		<stop  offset="0.8566591" style="stop-color:#AA151D"/>
		<stop  offset="0.969715" style="stop-color:#9A1419"/>
		<stop  offset="1" style="stop-color:#951417"/>
	</linearGradient>
	<path class="st11" d="M270.1144714,137.7154541l-37.1677856-14.1499329
		c-2.5715485-0.9790039-5.447937,0.4049301-6.254303,3.0357285c-2.3528595,7.6762466-5.861908,24.1667557-1.8415833,46.0889206
		c0.5448456,2.9709015,3.6618347,4.7167358,6.4685364,3.6006775l38.8605347-15.4523926
		c1.816864-0.7224579,3.0093689-2.4799652,3.0093689-4.4352112v-14.2271271
		C273.1892395,140.1952362,271.9657288,138.4202423,270.1144714,137.7154541z"/>
	
		<linearGradient id="SVGID_10_" gradientUnits="userSpaceOnUse" x1="267.7652283" y1="149.7926483" x2="298.1962891" y2="149.7926483">
		<stop  offset="0" style="stop-color:#A2151B"/>
		<stop  offset="0.0837169" style="stop-color:#AE151E"/>
		<stop  offset="0.184735" style="stop-color:#B71620"/>
		<stop  offset="0.3030956" style="stop-color:#BC1621"/>
		<stop  offset="0.479387" style="stop-color:#BE1622"/>
		<stop  offset="0.616774" style="stop-color:#BC1621"/>
		<stop  offset="0.739527" style="stop-color:#B51620"/>
		<stop  offset="0.8566591" style="stop-color:#AA151D"/>
		<stop  offset="0.969715" style="stop-color:#9A1419"/>
		<stop  offset="1" style="stop-color:#951417"/>
	</linearGradient>
	<path class="st12" d="M296.2533569,137.9450531c-2.117218-4.2819672-13.2726135-3.5269012-13.2726135-3.5269012
		s-11.1553955-0.7550659-13.272583,3.5269012c-2.117157,4.2820435-3.0245667,22.9670563,0,25.3027191
		c3.0245972,2.3356628,13.272583,1.9463806,13.272583,1.9463806s10.2480469,0.3892822,13.2726135-1.9463806
		C299.2778625,160.9121094,298.3705444,142.2270966,296.2533569,137.9450531z"/>
	<radialGradient id="SVGID_11_" cx="285.6901855" cy="326.3532104" r="8.8019886" gradientUnits="userSpaceOnUse">
		<stop  offset="0" style="stop-color:#BE1622"/>
		<stop  offset="0.4923211" style="stop-color:#BD1622"/>
		<stop  offset="0.6696343" style="stop-color:#B91621"/>
		<stop  offset="0.7960435" style="stop-color:#B2161F"/>
		<stop  offset="0.8979896" style="stop-color:#A7151C"/>
		<stop  offset="0.9845067" style="stop-color:#991418"/>
		<stop  offset="1" style="stop-color:#961418"/>
	</radialGradient>
	<circle class="st13" cx="285.6901855" cy="326.3532104" r="8.8019886"/>
	<radialGradient id="SVGID_12_" cx="285.6901855" cy="267.0538635" r="8.8019886" gradientUnits="userSpaceOnUse">
		<stop  offset="0" style="stop-color:#BE1622"/>
		<stop  offset="0.4923211" style="stop-color:#BD1622"/>
		<stop  offset="0.6696343" style="stop-color:#B91621"/>
		<stop  offset="0.7960435" style="stop-color:#B2161F"/>
		<stop  offset="0.8979896" style="stop-color:#A7151C"/>
		<stop  offset="0.9845067" style="stop-color:#991418"/>
		<stop  offset="1" style="stop-color:#961418"/>
	</radialGradient>
	<circle class="st14" cx="285.6901855" cy="267.0538635" r="8.8019886"/>
	<radialGradient id="SVGID_13_" cx="285.6901855" cy="208.8949127" r="8.8019886" gradientUnits="userSpaceOnUse">
		<stop  offset="0" style="stop-color:#BE1622"/>
		<stop  offset="0.4923211" style="stop-color:#BD1622"/>
		<stop  offset="0.6696343" style="stop-color:#B91621"/>
		<stop  offset="0.7960435" style="stop-color:#B2161F"/>
		<stop  offset="0.8979896" style="stop-color:#A7151C"/>
		<stop  offset="0.9845067" style="stop-color:#991418"/>
		<stop  offset="1" style="stop-color:#961418"/>
	</radialGradient>
	<circle class="st15" cx="285.6901855" cy="208.8949127" r="8.8019886"/>
	<path class="st8" d="M417.1785278,296.4239197c0,0,61.4612732,1.9623718,50.8383179-29.3700562
		c0,0,28.8336792,84.0022583,4.5527039,87.7961731C448.2885437,358.6439514,424.0075684,331.3278198,417.1785278,296.4239197z"/>
	<g>
		<path d="M282.999115,7.8776717c62.2999573,0,102.0551147,11.0162678,127.4164429,24.8123302l-0.0046692-0.0057487
			c0,0,32.0413513,5.7365837,48.7826843,10.5198326c16.7412415,4.7832527,12.7481689,9.116169,12.7481689,9.116169
			c-11.2446899,18.8264961-16.945343,34.413166-16.945343,34.413166
			c19.1489258,150.1721802,56.6213379,216.8869934,74.0037231,240.7178345
			c6.9682617,9.5531616,7.5356445,22.3259888,1.4143677,32.442749
			c-14.963501,24.7303162-47.5575867,43.3778381-76.4505005,55.8533936l-0.3450928,109.9485168
			c0,0,0.7277222,33.3564453-172.0632324,33.3564453c-0.0738525,0-0.1610107,0-0.2349243,0
			c-172.0881958-0.0300903-172.0855103-34.4370117-172.0855103-34.4370117l0.3449173-109.9222717
			c-26.505249-11.6828308-55.5922508-28.4902344-71.1123352-50.3546753
			c-8.283165-11.6691589-8.2089977-27.3162537,0.0221672-39.0221558
			c17.8515854-25.3878479,53.4051704-91.8263397,72.1104126-235.7870789l0.0117493-3.7249985
			c-1.3939972-3.6026611-6.9549179-17.3484116-16.5923309-33.4839134c0,0-3.9931641-4.3329163,12.7481689-9.116169
			s46.6280823-11.407999,46.6280823-11.407999l-0.0154877,0.0200005
			c25.2933197-13.3539162,65.5303192-23.9362488,129.600174-23.9384155
			C282.9883423,7.8776717,282.9915161,7.8776717,282.999115,7.8776717 M282.9991455,2.877672h-0.0184021
			C226.6465149,2.879575,182.483551,11.012536,151.7013245,27.0508823
			c-4.4620056,0.9950314-30.7368088,6.8969784-46.3069382,11.3456211
			c-10.1549149,2.9013329-15.2479172,6.2039986-16.5137482,10.7085838c-0.6915436,2.4610558-0.006485,4.6210289,0.9905853,6.0205231
			c8.6677856,14.5525131,13.9147797,27.0154877,15.7379074,31.6153793l-0.0077438,2.4565964
			c-8.131012,62.4492188-20.2715149,116.6177826-36.0864105,161.012085
			c-13.3029213,37.3428192-26.4383354,59.8908234-35.1150856,72.2305756
			c-9.4666691,13.4630127-9.4704189,31.4636841-0.0093346,44.7923279
			c13.1710739,18.5551453,36.7721176,35.6032104,70.1793671,50.6997681l-0.3347015,106.6673889
			c-0.0001678,2.0169678,1.1876678,12.4777222,24.652504,21.8651123
			c29.1395111,11.6575928,80.4250946,17.5749512,152.4321594,17.5875244h0.2357483
			c54.9350891,0,98.1678467-3.3660278,128.497345-10.0045166c21.4561768-4.6962891,36.1056824-10.9309692,43.5415039-18.5308228
			c4.6036072-4.7050781,5.0239868-8.5743408,5.0244446-9.8156128l0.3348083-106.6782837
			c37.633606-16.6523132,63.1083984-35.6666565,75.7385864-56.5407104
			c7.1748047-11.8578491,6.526123-26.7650146-1.6525879-37.9776611
			c-8.7684326-12.0212708-22.0760193-34.2254944-35.6784973-71.7388458
			c-16.4260559-45.3003845-28.9558105-100.9519196-37.245575-165.4198151
			c1.4898071-3.8057327,6.8922424-16.9708023,15.9746704-32.2205086c0.9970703-1.3994942,1.6820984-3.5594482,0.9905701-6.020504
			c-1.2658386-4.5045853-6.3588257-7.807251-16.5137634-10.7085838
			c-15.5309753-4.4374886-43.3577881-9.5614929-48.4917297-10.492651C381.1138,11.2969666,337.693573,2.877672,282.9991455,2.877672
			L282.9991455,2.877672z"/>
	</g>
</g>
</svg>
