<svg id="Laag_1" data-name="Laag 1" xmlns="http://www.w3.org/2000/svg" viewBox="0 0 566.93 566.93"><defs><style>.cls-8{fill:#1d1d1b}</style><linearGradient id="Naamloos_verloop_19" data-name="Naamloos verloop 19" x1="139.432" y1="306.863" x2="457.495" y2="306.863" gradientUnits="userSpaceOnUse"><stop offset="0" stop-color="#688816"/><stop offset=".038" stop-color="#729518"/><stop offset=".114" stop-color="#82a91b"/><stop offset=".201" stop-color="#8db61d"/><stop offset=".31" stop-color="#93bf1f"/><stop offset=".503" stop-color="#95c11f"/><stop offset=".646" stop-color="#92be1e"/><stop offset=".77" stop-color="#8ab31d"/><stop offset=".887" stop-color="#7ca11a"/><stop offset=".999" stop-color="#688816"/><stop offset="1" stop-color="#688816"/></linearGradient><linearGradient id="Naamloos_verloop_11" data-name="Naamloos verloop 11" x1="218.733" y1="449.404" x2="359.918" y2="204.863" gradientUnits="userSpaceOnUse"><stop offset="0" stop-color="#3aaa35"/><stop offset="1" stop-color="#21681f"/></linearGradient><linearGradient id="Naamloos_verloop_5" data-name="Naamloos verloop 5" x1="125.943" y1="155.12" x2="486.044" y2="155.12" gradientUnits="userSpaceOnUse"><stop offset="0" stop-color="#267223"/><stop offset=".046" stop-color="#2d8529"/><stop offset=".107" stop-color="#33962e"/><stop offset=".182" stop-color="#37a132"/><stop offset=".288" stop-color="#39a834"/><stop offset=".582" stop-color="#3aaa35"/><stop offset=".715" stop-color="#39a734"/><stop offset=".807" stop-color="#369e31"/><stop offset=".887" stop-color="#308f2c"/><stop offset=".959" stop-color="#287925"/><stop offset="1" stop-color="#226920"/></linearGradient><linearGradient id="Naamloos_verloop_14" data-name="Naamloos verloop 14" x1="125.269" y1="288.643" x2="468.633" y2="288.643" gradientUnits="userSpaceOnUse"><stop offset="0" stop-color="#981418"/><stop offset=".06" stop-color="#a5151b"/><stop offset=".158" stop-color="#b3151f"/><stop offset=".277" stop-color="#bb1621"/><stop offset=".479" stop-color="#be1622"/><stop offset=".621" stop-color="#ba1621"/><stop offset=".754" stop-color="#af151e"/><stop offset=".883" stop-color="#9c1419"/><stop offset="1" stop-color="#841212"/></linearGradient><linearGradient id="Naamloos_verloop_8" data-name="Naamloos verloop 8" x1="267.44" y1="317.599" x2="251.211" y2="409.639" gradientUnits="userSpaceOnUse"><stop offset="0" stop-color="#063"/><stop offset="1" stop-color="#004822"/></linearGradient></defs><path d="M139.432 528.695s-.003 31.651 158.3 31.679c159.154.028 158.496-30.685 158.496-30.685l1.267-403.799s-4.874-72.544-158.236-72.538c-159.811.005-158.56 71.544-158.56 71.544z" fill="url(#Naamloos_verloop_19)"/><path d="M300.367 218.344C147.824 196.907 16.707 232.588 7.509 298.04c-1.466 10.431.266 20.988 4.809 31.454s21.434 21.894 90.291 12.254 78.727-30.565 162.084-24.081 145.24 103.606 234.703 119.415l-.09.04c34.815-14.852 57.015-35.878 60.608-61.448 9.199-65.453-107.004-135.892-259.547-157.33z" fill="url(#Naamloos_verloop_11)"/><path d="M467.771 256.484s-11.716-86.966 18.273-174.282l-360.1-53.333s15.23 114.393 9.848 172.927c0 0 4.517 47.351 140.83 71.332 65.723 11.562 144.251 14.904 191.15-16.644" fill="url(#Naamloos_verloop_5)"/><path d="M363.89 310.878s75.511-37.262 102.231-44c0 0 17.967-80.178 48.11-136.614 0 0-27.393 24.856-120.937 38.807 0 0-36.994 43.056-29.404 141.807z" fill="#fef5fa"/><path d="M466.63 309.1c-3.277 16.574-51.406 91.926-192.798 57.475S121.839 276.548 125.943 264.77c8.64-38.484 9.85-62.973 9.85-62.973s4.516 47.351 140.829 71.332c65.723 11.562 145.113 14.904 192.01-16.644 0 0-2.659 18.915-2.002 52.617z" fill="url(#Naamloos_verloop_14)"/><ellipse cx="306.39" cy="54.228" rx="39.37" ry="182.221" transform="rotate(-82 306.39 54.228)" fill="#063"/><path d="M264.693 317.667c-83.357-6.484-93.226 14.44-162.084 24.08s-90.291-12.254-90.291-12.254c23.965 55.206 75.857 48.863 204.09 66.885 106.409 14.976 228.689 63.9 282.988 40.704-89.462-15.81-151.346-112.932-234.703-119.415z" fill="url(#Naamloos_verloop_8)"/><path class="cls-8" d="M412.798 175.566a35.086 35.086 0 0 1-1.215 3.918 99.208 99.208 0 0 0-3.89 13.054q-1.104 5.951-2.248 11.915c-.608 3.165-.788 4.967-.52 5.398a5.228 5.228 0 0 1 .759 1.956 2.214 2.214 0 0 1-1.038 1.442 2.872 2.872 0 0 1-1.824.53 8.55 8.55 0 0 1-3.552-1.36 6.19 6.19 0 0 1-.124-2.915q2.986-12.763 5.795-25.475-.328-.454-.65-.912l.449-1.97a24.22 24.22 0 0 1 2.406-6.078c1.479-2.766 2.64-4 3.62-3.744.563.146 1.06.704 1.515 1.666a4.471 4.471 0 0 1 .517 2.575zM446.061 191.231a17.797 17.797 0 0 1-2.085 13.306 17.256 17.256 0 0 1-13.518 8.458c-5.657.57-10.125-1.008-12.994-4.612-2.696-3.368-3.524-7.704-2.9-12.73a31.767 31.767 0 0 1 4.675-12.66c2.718-4.428 5.425-6.883 8.511-7.614a12.622 12.622 0 0 1 3.757-.281c3.299.19 6.225 2.15 9.23 5.737a23.858 23.858 0 0 1 5.324 10.396zm-5.034.396a18.245 18.245 0 0 0-3.14-8.168 8.696 8.696 0 0 0-7.053-4.12 5.155 5.155 0 0 0-2.898.864 15.574 15.574 0 0 0-5.63 6.66 25.515 25.515 0 0 0-2.527 9.279c-.272 3.567.402 6.516 2.208 8.716 1.994 2.387 5.042 3.444 8.95 3.1a10.4 10.4 0 0 0 8.928-6.363 17.215 17.215 0 0 0 1.162-9.968z"/><text transform="rotate(16.254 -586.316 1600.78)" font-size="45.384" font-family="Noteworthy-Bold,Noteworthy" font-weight="700" fill="#1d1d1b">/</text><path class="cls-8" d="M462.658 245.787c0 3.312-1.498 6.515-4.512 9.9a22.639 22.639 0 0 1-10.902 7.09c-4.365 1.158-7.857.265-10.476-2.856-2.469-2.994-3.696-7.43-3.697-12.736a28.273 28.273 0 0 1 3.473-13.859 18.972 18.972 0 0 1 8.556-8.405c2.82-1.364 4.928-1.786 6.319-1.467a5.889 5.889 0 0 1 2.508 1.506 3.251 3.251 0 0 1 1.324 2.245 1.974 1.974 0 0 1-.592 1.418 1.602 1.602 0 0 1-1.437.504 2.235 2.235 0 0 1-1.577-1.03c-1.843-.05-4.196 1.028-7.052 3.604-2.896 2.692-4.303 5.202-4.226 7.183v.432c3.339-2.748 6.463-3.76 9.36-3.548a17.973 17.973 0 0 1 9.346 3.097 7.97 7.97 0 0 1 3.585 6.922zm-5.1.457a5.596 5.596 0 0 0-2.076-4.671 8.99 8.99 0 0 0-5.62-1.744 10.349 10.349 0 0 0-6.018 1.842 11.486 11.486 0 0 0-4.325 5.052c-.187.62-.506 1.572-.953 2.875a13.23 13.23 0 0 0 2.412 7.06 5.668 5.668 0 0 0 6.071 2.019 13.079 13.079 0 0 0 7.535-4.923 11.67 11.67 0 0 0 2.973-7.51z"/><path class="cls-8" d="M212.726 7.714c28.831 0 62.903 2.434 99.144 7.527 99.658 14.006 177.994 42.815 174.968 64.347a8.995 8.995 0 0 1-.806 2.612l.012.002a372.932 372.932 0 0 0-16.288 69.448c33.1-11.07 44.475-21.386 44.475-21.386-23.559 44.109-39.68 102.72-45.598 126.22 0 0-.543 3.873-1.077 11.213 61.166 30.726 97.67 70.182 92.359 107.977-3.59 25.547-25.756 46.558-60.518 61.408l-.046.02.045-.02c-10.115 4.32-22.593 6.132-36.885 6.132q-2.953 0-6.011-.101l-.272 86.576s.669 30.685-158.28 30.685h-.216c-158.303-.028-158.3-31.679-158.3-31.679l.445-141.881c-73.953-8.773-109.072-14.734-127.56-57.32-4.542-10.466-6.274-21.023-4.808-31.454 5.522-39.296 55.003-67.853 126.67-79.769 1.32-10.562 1.613-16.475 1.613-16.475 4.727-51.412-6.446-145.904-9.236-168.141a9.662 9.662 0 0 1-.613-4.786c1.926-13.702 36.332-21.156 86.783-21.155m301.505 122.55h.005M499.351 437.102l-.046.02.046-.02M212.726 2.714c-25.598 0-47.292 1.927-62.737 5.573-18.237 4.305-27.722 10.81-28.997 19.886a14.445 14.445 0 0 0 .67 6.639c2.51 20.102 13.833 115.598 9.151 166.526q-.01.105-.015.21c-.002.049-.233 4.503-1.14 12.425-34.88 6.147-64.637 16.372-86.238 29.656-23.856 14.67-37.986 33.245-40.863 53.715-1.565 11.14.176 22.626 5.174 34.14 9.469 21.81 23.58 35.384 45.754 44.01 20.123 7.827 46.558 11.586 81.378 15.757l-.431 137.429c0 2.665 1.652 11.974 22.929 20.486 26.853 10.743 74.08 16.196 140.37 16.208h.216c109.714 0 146.774-14.34 158.545-26.37 4.322-4.418 4.732-8.097 4.736-9.299l.256-81.494q.517.003 1.027.003c15.75 0 28.397-2.11 38.655-6.451l.103-.043.07-.03.033-.015c37.8-16.147 59.76-38.73 63.494-65.305 5.371-38.22-28.147-78.791-92.064-111.616.344-4.063.65-6.561.75-7.327 5.86-23.224 21.823-81.188 45.016-124.67a5 5 0 0 0-4.322-7.493h-.057a4.981 4.981 0 0 0-3.32 1.299c-.21.184-9.644 8.291-34.94 17.621a362.55 362.55 0 0 1 14.803-60.24 13.89 13.89 0 0 0 1.057-3.66c1.879-13.367-15.685-26.955-52.203-40.384-33.37-12.273-78.48-22.788-127.02-29.61-35.266-4.956-69.79-7.576-99.84-7.576z"/></svg>