<?xml version="1.0" encoding="utf-8"?>
<!-- Generator: Adobe Illustrator 22.1.0, SVG Export Plug-In . SVG Version: 6.00 Build 0)  -->
<svg version="1.1" id="Laag_1" xmlns="http://www.w3.org/2000/svg" xmlns:xlink="http://www.w3.org/1999/xlink" x="0px" y="0px"
	 viewBox="0 0 566.9299927 566.9299927" style="enable-background:new 0 0 566.9299927 566.9299927;" xml:space="preserve">
<style type="text/css">
	.st0{fill:url(#SVGID_1_);}
	.st1{display:none;fill:#BE1622;}
	.st2{display:none;fill:#009FE3;}
	.st3{fill:url(#SVGID_2_);}
	.st4{fill:url(#SVGID_3_);}
	.st5{display:none;fill:#E6332A;}
	.st6{fill:url(#SVGID_4_);}
	.st7{fill:url(#SVGID_5_);}
	.st8{fill:url(#SVGID_6_);}
	.st9{fill:url(#SVGID_7_);}
	.st10{fill:url(#SVGID_8_);}
	.st11{fill:url(#SVGID_9_);}
	.st12{fill:#E30613;}
</style>
<linearGradient id="SVGID_1_" gradientUnits="userSpaceOnUse" x1="122.4315491" y1="304.8626709" x2="440.4950867" y2="304.8626709">
	<stop  offset="0" style="stop-color:#7E1210"/>
	<stop  offset="0.0029675" style="stop-color:#7F1210"/>
	<stop  offset="0.0556613" style="stop-color:#931417"/>
	<stop  offset="0.1128737" style="stop-color:#A3151B"/>
	<stop  offset="0.1767667" style="stop-color:#AF161E"/>
	<stop  offset="0.2500187" style="stop-color:#B81620"/>
	<stop  offset="0.3408282" style="stop-color:#BD1621"/>
	<stop  offset="0.502544" style="stop-color:#BE1622"/>
	<stop  offset="0.6129945" style="stop-color:#BC1621"/>
	<stop  offset="0.7090034" style="stop-color:#B61620"/>
	<stop  offset="0.7996323" style="stop-color:#AB151D"/>
	<stop  offset="0.8869733" style="stop-color:#9B1419"/>
	<stop  offset="0.9712157" style="stop-color:#861313"/>
	<stop  offset="1" style="stop-color:#7E1210"/>
</linearGradient>
<path class="st0" d="M122.4315491,526.6953735c0,0-0.0024109,31.6507568,158.300415,31.6784058
	c159.1537781,0.027771,158.4960938-30.6843262,158.4960938-30.6843262l1.2670288-403.7989502
	c0,0-4.8744202-72.544281-158.2361145-72.5389404c-159.8110657,0.005558-158.5603943,71.5448914-158.5603943,71.5448914
	L122.4315491,526.6953735z"/>
<ellipse transform="matrix(0.1144204 -0.9934324 0.9934324 0.1144204 61.9585724 473.461792)" class="st1" cx="296.5411377" cy="201.978714" rx="63.838604" ry="165.601059"/>
<ellipse transform="matrix(0.1144204 -0.9934324 0.9934324 0.1144204 129.7841797 426.2868652)" class="st1" cx="303.9938049" cy="140.3482819" rx="51.4633904" ry="165.601059"/>
<ellipse transform="matrix(0.1144204 -0.9934324 0.9934324 0.1144204 149.7835999 413.2926941)" class="st2" cx="306.7051697" cy="122.6336288" rx="51.4633904" ry="165.601059"/>
<linearGradient id="SVGID_2_" gradientUnits="userSpaceOnUse" x1="122.809021" y1="112.3579941" x2="450.2175293" y2="167.1490021" gradientTransform="matrix(1.0396781 -0.165143 0.162981 0.9868262 -36.0949554 55.7590599)">
	<stop  offset="0" style="stop-color:#E79A16"/>
	<stop  offset="0.5015825" style="stop-color:#FAB511"/>
	<stop  offset="0.7534764" style="stop-color:#F3AA14"/>
	<stop  offset="1" style="stop-color:#E79A16"/>
</linearGradient>
<path class="st3" d="M145.0759583,212.5686646c0,0-126.389473-242.5954437,103.7745514-149.1525879l70.7405243,2.0996704
	c0,0,200.8017273-113.1017456,121.582489,133.43396l-60.4771729,54.1417236l-210.8422241-4.1006775L145.0759583,212.5686646z"/>
<linearGradient id="SVGID_3_" gradientUnits="userSpaceOnUse" x1="296.1576538" y1="73.6227646" x2="307.3019409" y2="4.7953453" gradientTransform="matrix(0.9871441 -0.1598347 0.1598347 0.9871441 -19.5327492 54.0855331)">
	<stop  offset="0" style="stop-color:#FAB511"/>
	<stop  offset="0.5053873" style="stop-color:#F9AE14"/>
	<stop  offset="1" style="stop-color:#F6A317"/>
</linearGradient>
<path class="st4" d="M296.2914124,79.4255524l-48.0247955-0.8931961c0,0-2.6038055-59.7489357,35.9426117-68.8306274
	c0,0,33.6506958,3.4443455,36.7310486,69.0948639L296.2914124,79.4255524z"/>
<path class="st5" d="M143.8807678,110.8150253c0,0,13.4962006-32.4464722-4.4004211-47.3940392
	c0,0,19.4528503,11.2051964,21.7872009,23.6970177c2.3343353,12.4918213,9.9428101,49.9614182,19.652298,55.0656052
	c9.7095032,5.1041718,27.9780121-25.3388824,36.371933-39.3813171c8.9383698-14.95327,5.6598358-14.95327,5.6598358-14.95327
	s19.2870483,10.2929459,20.843277,23.8606186s-5.5121613,55.2846832,19.9033508,60.6894989
	s21.7955322-40.3516083,29.6913757-53.9315643c7.895813-13.5799561,19.1551208-14.9857864,19.1551208-14.9857864
	s15.3300476,3.6799393,17.6643982,18.6275024s4.6485291,63.189476,21.7207336,63.2398148
	c17.0722046,0.050354,35.7689209-34.6028748,40.4375916-55.0574341
	c4.6687012-20.4545593,23.9783936-20.6481018,23.9783936-20.6481018s-0.6349487,7.2739639,4.0337219,22.2215271
	c4.6687012,14.9475708,10.6222229,42.7996826,19.1479797,37.9525604
	c8.5257874-4.8471069,13.8932495-52.9001236,17.9926758-63.9141159c4.0993958-11.0139999,11.1024475-15.65448,19.6616821-18.0545197
	c0,0-7.4827881,11.3737335-8.4100952,21.794548c-0.9272766,10.4208221-2.9632874,19.9212341,0,35.6255951
	c2.9633179,15.7043457-11.2515869,55.0400543-11.2515869,55.0400543L318.4466248,219.977066l-115.1609039-31.4038239
	l-51.355545-24.4528656l-12.4498291-39.335701L143.8807678,110.8150253z"/>
<linearGradient id="SVGID_4_" gradientUnits="userSpaceOnUse" x1="85.4465179" y1="155.5271454" x2="207.6575317" y2="84.9685822" gradientTransform="matrix(0.9871441 -0.1598347 0.1598347 0.9871441 -19.5327492 54.0855331)">
	<stop  offset="0" style="stop-color:#951812"/>
	<stop  offset="1" style="stop-color:#C21B1C"/>
</linearGradient>
<path class="st6" d="M101.085022,166.9229126c-3.6187515-17.5986481-20.2591782-59.7282715-10.2962875-82.2698975
	s85.3853683-7.9163895,85.3853683-7.9163895l-10.4302979,27.1972809c0,0-41.2538452-13.9168091-51.4584732,0.8764343
	c-11.6769562,16.9276199,38.5250778,101.2813644,38.5250778,101.2813644l18.2437897,31.7087402l-65.4898987-24.3591003
	C105.5643005,213.4413452,100.7685471,183.8004608,101.085022,166.9229126z"/>
<linearGradient id="SVGID_5_" gradientUnits="userSpaceOnUse" x1="266.6305237" y1="46.5514297" x2="153.812439" y2="241.9580994" gradientTransform="matrix(0.9871441 -0.1598347 0.1598347 0.9871441 -19.5327492 54.0855331)">
	<stop  offset="0" style="stop-color:#C21B1C"/>
	<stop  offset="0.3998949" style="stop-color:#C01B1C"/>
	<stop  offset="0.677409" style="stop-color:#BA1B1B"/>
	<stop  offset="0.9171611" style="stop-color:#B11A19"/>
	<stop  offset="1" style="stop-color:#AD1A18"/>
</linearGradient>
<path class="st7" d="M247.8897705,274.5955811c0.0040131,14.5363159-37.3729248,32.002533-42.2472382-21.5685272
	c-6.4059601-70.4047852-42.4676361-119.2807312-46.1287842-139.6954498
	c-7.1744385-40.0048981,14.8575592-62.7299538,95.6813354-50.0157204
	c81.5454865,12.8277702,12.2123871,31.1187477,12.2123871,31.1187477s-26.7832489-1.7390366-40.7861938-3.1621628
	c-16.1161804-1.6379013-37.9837189,5.1710358-30.9337921,28.272934
	C201.9944,140.2125244,247.8679962,195.8751678,247.8897705,274.5955811z"/>
<linearGradient id="SVGID_6_" gradientUnits="userSpaceOnUse" x1="382.8269043" y1="122.2566986" x2="480.7041321" y2="178.7661438" gradientTransform="matrix(0.9871441 -0.1598347 0.1598347 0.9871441 -19.5327492 54.0855331)">
	<stop  offset="0" style="stop-color:#C21B1C"/>
	<stop  offset="0.2065784" style="stop-color:#BE1B1C"/>
	<stop  offset="0.4796852" style="stop-color:#B41A19"/>
	<stop  offset="0.7887419" style="stop-color:#A31915"/>
	<stop  offset="1" style="stop-color:#951812"/>
</linearGradient>
<path class="st8" d="M461.864624,167.1109619c5.1152954-23.6795044,19.1073608-49.8922653,17.1021118-72.0271759
	c-4.0154419-44.3243599-87.786499-16.4224625-87.786499-16.4224625l15.8271179,29.2649002
	c0,0,39.8895569-17.1858826,48.4079285-0.6688843c5.6124573,10.8824844-30.5309143,96.5039825-30.5309143,96.5039825
	l36.1177673,9.3464661L461.864624,167.1109619z"/>
<linearGradient id="SVGID_7_" gradientUnits="userSpaceOnUse" x1="260.9475708" y1="95.7235031" x2="382.3665161" y2="217.1424561" gradientTransform="matrix(0.9871441 -0.1598347 0.1598347 0.9871441 -19.5327492 54.0855331)">
	<stop  offset="0" style="stop-color:#C21B1C"/>
	<stop  offset="0.3998949" style="stop-color:#C01B1C"/>
	<stop  offset="0.677409" style="stop-color:#BA1B1B"/>
	<stop  offset="0.9171611" style="stop-color:#B11A19"/>
	<stop  offset="1" style="stop-color:#AD1A18"/>
</linearGradient>
<path class="st9" d="M304.3636169,273.7891235c-1.3746338,14.4602966,34.1611633,35.9452515,44.0613708-16.8114929
	c13.0111389-69.3345795,53.493927-113.9916382,59.0609741-133.8977356
	c10.9092102-39.0081863-9.1383362-74.9833221-90.4681091-60.2756767s-24.273468,31.322216-24.273468,31.322216
	s45.9348755-7.0452957,59.7093506-3.9457932c13.7745056,3.0995102,22.2816467,10.5155716,22.4457397,27.6232681
	C375.1086426,139.6147156,311.8078308,195.4801941,304.3636169,273.7891235z"/>
<linearGradient id="SVGID_8_" gradientUnits="userSpaceOnUse" x1="254.9661865" y1="170.3282623" x2="322.0186462" y2="170.3282623" gradientTransform="matrix(0.9922855 -0.1236233 0.1193158 0.9318128 -15.5042439 43.9419365)">
	<stop  offset="0" style="stop-color:#AD1A18"/>
	<stop  offset="0.0416998" style="stop-color:#B21A19"/>
	<stop  offset="0.1534717" style="stop-color:#BB1B1B"/>
	<stop  offset="0.2843656" style="stop-color:#C01B1C"/>
	<stop  offset="0.479387" style="stop-color:#C21B1C"/>
	<stop  offset="0.6641674" style="stop-color:#BF1B1C"/>
	<stop  offset="0.8292364" style="stop-color:#B91B1B"/>
	<stop  offset="0.9862927" style="stop-color:#AE1A18"/>
	<stop  offset="1" style="stop-color:#AD1A18"/>
</linearGradient>
<path class="st10" d="M282.3852539,297.7631836c0,0,31.3749084-102.3875275,31.1267395-186.53479
	c-0.1634827-55.4289932-0.7799988-72.7029266-29.8996582-72.7556229
	c-31.0092316-0.0561104-31.5769348,45.5195465-32.3201599,69.4075241
	C250.5489655,131.7682648,270.5023499,260.9993896,282.3852539,297.7631836z"/>
<linearGradient id="SVGID_9_" gradientUnits="userSpaceOnUse" x1="90.0854034" y1="192.7453003" x2="445.3515625" y2="255.3883057" gradientTransform="matrix(0.9871441 -0.1598347 0.1598347 0.9871441 -19.5327492 54.0855331)">
	<stop  offset="0" style="stop-color:#4E140B"/>
	<stop  offset="0.0748176" style="stop-color:#581309"/>
	<stop  offset="0.1715448" style="stop-color:#641307"/>
	<stop  offset="0.2704102" style="stop-color:#6B1306"/>
	<stop  offset="0.3717681" style="stop-color:#701205"/>
	<stop  offset="0.479387" style="stop-color:#711205"/>
	<stop  offset="0.6399027" style="stop-color:#701205"/>
	<stop  offset="0.762809" style="stop-color:#6B1205"/>
	<stop  offset="0.8732197" style="stop-color:#621206"/>
	<stop  offset="0.975718" style="stop-color:#561106"/>
	<stop  offset="1" style="stop-color:#521106"/>
</linearGradient>
<path class="st11" d="M461.864624,167.1109619c-0.4629517,34.0523682-81.6015015,45.4958954-181.2280273,44.0632477
	s-180.0145264-10.1989288-179.5515747-44.251297l0.6054993,74.3694
	c-0.5742645,42.2408295,77.723465,57.6451569,177.3500061,59.0778046
	c99.6265259,1.4326172,180.8553162-16.6489258,181.4295959-58.8897552L461.864624,167.1109619z"/>
<path class="st12" d="M282.4623718,210.978302c-6.6643982-65.0440216-72.6605225-61.1976624-73.3000946-4.1519623
	c-0.7651825,68.2475739,72.9897614,93.0902557,72.9897614,93.0902557l0.3021545,0.2715759
	c0,0,87.475769-39.5705261,77.2326965-106.8643799C352.7003174,147.4241028,282.1723022,145.5102997,282.4623718,210.978302z"/>
<g>
	<path d="M284.209259,9.7017193c0,0,24.1243286,2.4755831,33.3894958,43.0886688
		c8.0818481,0.6914978,15.634491,1.6165009,22.6893311,2.743084c17.0014038-7.2923393,41.8843994-15.9083633,64.5390015-15.9083633
		c21.4277344,0,40.8619385,7.7083435,49.7468262,31.5356979c12.9315186,2.4575806,23.0596008,9.2068329,24.3928528,23.9229965
		c2.005249,22.1349182-11.9868469,48.3476715-17.1021729,72.0271606l-0.8624268,45.9968414l-0.532074,28.3725891
		c-0.1715088,12.6154938-7.5416565,23.0744781-20.4428406,31.5039215l-0.7992554,254.7050781
		c0,0,0.6687927,30.6844482-158.2805481,30.6844482c-0.0679626,0-0.147522,0-0.2155151-0.000061
		c-158.3027649-0.0276489-158.300415-31.6784058-158.300415-31.6784058l0.7934113-252.8398132
		c-13.9154968-8.4182434-21.7169952-19.1322632-21.5344162-32.5632629l-0.5633316-69.193573
		c-0.0550842-1.8172607-0.0725784-3.5560913-0.0421677-5.1758423c-3.6187439-17.598587-20.2591629-59.7282486-10.2962494-82.2698288
		c2.9900055-6.7650833,11.8785019-10.1800003,22.8519211-11.6499176
		c5.8491211-18.3769188,20.4581375-30.9946022,49.5642166-30.9928131
		c16.1768036,0.0009918,36.8360138,3.9001427,62.9481201,12.8752289c7.5922394-1.0584984,15.7444916-1.9063339,24.5035706-2.5054169
		C254.2297516,35.0837173,262.973938,14.7048016,284.209259,9.7017193 M283.8821716,4.6418858l-0.8194885,0.1930833
		c-18.1187134,4.2687583-30.6757507,19.0444717-36.4700317,42.8291817
		c-6.8821564,0.5365181-13.5705109,1.2427063-19.9447632,2.1063995c-24.8919678-8.466423-46.2324677-12.759182-63.442627-12.7602463
		c-14.8493347-0.0009193-27.0671692,3.1849174-36.3141708,9.468998c-7.717659,5.244751-13.4199295,12.6490517-16.9813385,22.0386276
		c-12.5521545,2.1840439-20.5168839,6.924881-23.6942444,14.1138763
		c-8.4598312,19.1407471-0.0377502,48.9000854,6.1118317,70.6294098c1.5802765,5.5838776,2.9548492,10.4407501,3.7497406,14.1435547
		c-0.0176163,1.4651489-0.0006256,3.0722961,0.0506973,4.7878418l0.5624847,69.0899506
		c-0.1690674,13.9725037,7.0691223,25.8462219,21.5259705,35.3267822l-0.7847214,250.0704041
		c-0.0001678,2.6656494,1.6527481,11.9747314,22.9294968,20.4866943
		c26.8527527,10.7428589,74.0800781,16.1958008,140.3700714,16.2073364h0.2163391
		c109.7132568,0,146.7738342-14.3400879,158.5442505-26.369873c4.3223877-4.4176025,4.7328186-8.0967407,4.7362976-9.2988281
		h0.0000305l0.7909851-252.0660095c13.3938599-9.4388123,20.2712708-20.8971252,20.4506226-34.090683l0.5316467-28.3468323
		l0.8531799-45.5044098c1.7638245-7.9829407,4.6398926-16.5406799,7.4230042-24.8210907
		c5.4367371-16.1762543,11.0586548-32.9032516,9.6689148-48.2433319
		c-0.9246521-10.206459-6.1999207-23.0828171-25.7113037-27.7969742
		c-4.6460571-11.003891-11.8235168-19.3150749-21.3639526-24.7270279
		c-8.7538452-4.9657516-19.5350037-7.4835815-32.0440063-7.4835815c-22.941925,0-47.866272,8.428627-65.1793213,15.7465668
		c-5.7745056-0.8914757-11.822876-1.6417236-18.0420227-2.2382889
		C311.0610352,7.8967209,285.8188782,4.8406549,284.7196655,4.7278023L283.8821716,4.6418858L283.8821716,4.6418858z"/>
</g>
</svg>
