<svg xmlns="http://www.w3.org/2000/svg" viewBox="0 0 566.93 566.93"><style>.st1{fill:#fff}.st8{fill:#e6332a}</style><g id="Laag_1"><path class="st1" d="M94.02 52.32s-3.993-4.333 12.748-9.116 46.628-11.408 46.628-11.408l-42.43 54.937-4.386-24.641-12.56-9.772zM471.942 52.32s3.993-4.333-12.748-9.116-48.783-10.52-48.783-10.52l44.585 54.05 4.385-24.642 12.56-9.772z"/><linearGradient id="SVGID_1_" gradientUnits="userSpaceOnUse" x1="109.235" y1="283.465" x2="454.996" y2="283.465"><stop offset="0" stop-color="#c6c6c6"/><stop offset=".503" stop-color="#f2f2f2"/><stop offset=".644" stop-color="#f0f0f0"/><stop offset=".766" stop-color="#e8e8e8"/><stop offset=".882" stop-color="#dbdbdb"/><stop offset=".993" stop-color="#c8c8c7"/><stop offset="1" stop-color="#c6c6c6"/></linearGradient><path d="M109.235 524.615s-.002 34.407 172.086 34.437c173.013.03 172.298-33.356 172.298-33.356l1.377-438.963S449.697 7.872 282.981 7.878c-173.728.006-172.368 77.775-172.368 77.775l-1.378 438.962z" fill="url(#SVGID_1_)"/><linearGradient id="SVGID_2_" gradientUnits="userSpaceOnUse" x1="111.253" y1="244.778" x2="454.709" y2="244.778"><stop offset="0" stop-color="#efeeee"/><stop offset=".479" stop-color="#fff"/><stop offset="1" stop-color="#e3e3e3"/></linearGradient><path d="M282.98 144.846s-136.178 1.58-171.727-32.388l.828 223.895s35.328 40.745 170.9 40.745 170.9-40.745 170.9-40.745l.828-223.895c-35.549 33.968-171.728 32.388-171.728 32.388z" fill="url(#SVGID_2_)"/><linearGradient id="SVGID_3_" gradientUnits="userSpaceOnUse" x1="268.156" y1="244.778" x2="454.709" y2="244.778"><stop offset="0" stop-color="#f4f4f4"/><stop offset=".027" stop-color="#f6f5f5"/><stop offset=".235" stop-color="#fdfdfd"/><stop offset=".489" stop-color="#fff"/></linearGradient><path d="M282.98 144.846s-5.554.065-14.706-.112l-.118.112v232.078c4.808.11 9.737.174 14.825.174 135.571 0 170.9-40.745 170.9-40.745l.828-223.895c-35.549 33.968-171.728 32.388-171.728 32.388z" fill="url(#SVGID_3_)"/><linearGradient id="SVGID_4_" gradientUnits="userSpaceOnUse" x1="317.858" y1="123.264" x2="317.858" y2="176.615"><stop offset="0" stop-color="#a2151b"/><stop offset=".084" stop-color="#ae151e"/><stop offset=".185" stop-color="#b71620"/><stop offset=".303" stop-color="#bc1621"/><stop offset=".479" stop-color="#be1622"/><stop offset=".617" stop-color="#bc1621"/><stop offset=".74" stop-color="#b51620"/><stop offset=".857" stop-color="#aa151d"/><stop offset=".97" stop-color="#9a1419"/><stop offset="1" stop-color="#951417"/></linearGradient><path d="M295.874 137.705l37.1-14.124c2.594-.987 5.497.41 6.308 3.063 2.351 7.69 5.836 24.14 1.838 45.996-.548 2.997-3.694 4.758-6.525 3.632l-38.787-15.423a4.814 4.814 0 0 1-3.036-4.474v-14.17a4.814 4.814 0 0 1 3.102-4.5z" fill="url(#SVGID_4_)"/><linearGradient id="SVGID_5_" gradientUnits="userSpaceOnUse" x1="-19.278" y1="73.287" x2="-113.445" y2="107.56" gradientTransform="matrix(-1 0 0 1 344.552 0)"><stop offset="0" stop-color="#fff"/><stop offset=".364" stop-color="#fdfdfd"/><stop offset=".622" stop-color="#f6f6f6"/><stop offset=".845" stop-color="#ebebeb"/><stop offset="1" stop-color="#e0e0e0"/></linearGradient><path d="M344.446 126.547s48.901-46.344 66.4-79.188c0 0 45.88 17.233 61.096 4.961-11.245 18.827-16.946 34.413-16.946 34.413l-10.242 57.214-100.308-17.4z" fill="url(#SVGID_5_)"/><linearGradient id="SVGID_6_" gradientUnits="userSpaceOnUse" x1="343.72" y1="291.685" x2="507.85" y2="231.946"><stop offset="0" stop-color="#be1622"/><stop offset=".264" stop-color="#bc1621"/><stop offset=".451" stop-color="#b71620"/><stop offset=".615" stop-color="#ad151e"/><stop offset=".765" stop-color="#9f151a"/><stop offset=".905" stop-color="#8d1315"/><stop offset="1" stop-color="#7e1210"/></linearGradient><path d="M454.996 86.733s-6.419 34.563-110.55 39.814c0 0 9.919 245.015 55.275 308.02 0 0 100.72-25.135 130.693-74.673A29.286 29.286 0 0 0 529 327.451c-17.382-23.83-54.855-90.545-74.004-240.718z" fill="url(#SVGID_6_)"/><path class="st8" d="M375.215 373.266c-4.162-56.216 18.132-127.247 18.132-127.247l-16.763-5.588 16.763-26.075-48.901-87.81s6.128 151.338 30.77 246.72z"/><linearGradient id="SVGID_7_" gradientUnits="userSpaceOnUse" x1="107.964" y1="107.56" x2="202.131" y2="73.287"><stop offset="0" stop-color="#e0e0e0"/><stop offset=".155" stop-color="#ebebeb"/><stop offset=".378" stop-color="#f6f6f6"/><stop offset=".636" stop-color="#fdfdfd"/><stop offset="1" stop-color="#fff"/></linearGradient><path d="M221.516 126.547s-48.902-46.344-66.4-79.188c0 0-45.88 17.233-61.096 4.961 11.244 18.827 16.945 34.413 16.945 34.413l10.243 57.214 100.308-17.4z" fill="url(#SVGID_7_)"/><linearGradient id="SVGID_8_" gradientUnits="userSpaceOnUse" x1="58.112" y1="231.946" x2="222.242" y2="291.685"><stop offset="0" stop-color="#7e1210"/><stop offset=".095" stop-color="#8d1315"/><stop offset=".235" stop-color="#9f151a"/><stop offset=".385" stop-color="#ad151e"/><stop offset=".549" stop-color="#b71620"/><stop offset=".736" stop-color="#bc1621"/><stop offset="1" stop-color="#be1622"/></linearGradient><path d="M110.965 86.733s6.42 34.563 110.55 39.814c0 0-9.918 245.015-55.275 308.02 0 0-94.696-23.632-127.772-70.229-8.283-11.669-8.21-27.316.022-39.022 17.967-25.552 53.87-92.675 72.475-238.583z" fill="url(#SVGID_8_)"/><path class="st8" d="M190.746 373.266c4.163-56.216-18.132-127.247-18.132-127.247l16.763-5.588-16.763-26.075 48.902-87.81s-6.129 151.338-30.77 246.72z"/><linearGradient id="SVGID_9_" gradientUnits="userSpaceOnUse" x1="248.104" y1="123.251" x2="248.104" y2="176.631"><stop offset="0" stop-color="#a2151b"/><stop offset=".084" stop-color="#ae151e"/><stop offset=".185" stop-color="#b71620"/><stop offset=".303" stop-color="#bc1621"/><stop offset=".479" stop-color="#be1622"/><stop offset=".617" stop-color="#bc1621"/><stop offset=".74" stop-color="#b51620"/><stop offset=".857" stop-color="#aa151d"/><stop offset=".97" stop-color="#9a1419"/><stop offset="1" stop-color="#951417"/></linearGradient><path d="M270.114 137.715l-37.167-14.15c-2.572-.978-5.448.405-6.255 3.036-2.352 7.676-5.862 24.167-1.841 46.09.545 2.97 3.662 4.716 6.468 3.6l38.86-15.453a4.773 4.773 0 0 0 3.01-4.435v-14.227a4.773 4.773 0 0 0-3.075-4.46z" fill="url(#SVGID_9_)"/><linearGradient id="SVGID_10_" gradientUnits="userSpaceOnUse" x1="267.765" y1="149.793" x2="298.196" y2="149.793"><stop offset="0" stop-color="#a2151b"/><stop offset=".084" stop-color="#ae151e"/><stop offset=".185" stop-color="#b71620"/><stop offset=".303" stop-color="#bc1621"/><stop offset=".479" stop-color="#be1622"/><stop offset=".617" stop-color="#bc1621"/><stop offset=".74" stop-color="#b51620"/><stop offset=".857" stop-color="#aa151d"/><stop offset=".97" stop-color="#9a1419"/><stop offset="1" stop-color="#951417"/></linearGradient><path d="M296.253 137.945c-2.117-4.282-13.272-3.527-13.272-3.527s-11.156-.755-13.273 3.527c-2.117 4.282-3.024 22.967 0 25.303 3.025 2.335 13.273 1.946 13.273 1.946s10.248.39 13.272-1.946c3.025-2.336 2.118-21.02 0-25.303z" fill="url(#SVGID_10_)"/><radialGradient id="SVGID_11_" cx="285.69" cy="326.353" r="8.802" gradientUnits="userSpaceOnUse"><stop offset="0" stop-color="#be1622"/><stop offset=".492" stop-color="#bd1622"/><stop offset=".67" stop-color="#b91621"/><stop offset=".796" stop-color="#b2161f"/><stop offset=".898" stop-color="#a7151c"/><stop offset=".985" stop-color="#991418"/><stop offset="1" stop-color="#961418"/></radialGradient><circle cx="285.69" cy="326.353" r="8.802" fill="url(#SVGID_11_)"/><radialGradient id="SVGID_12_" cx="285.69" cy="267.054" r="8.802" gradientUnits="userSpaceOnUse"><stop offset="0" stop-color="#be1622"/><stop offset=".492" stop-color="#bd1622"/><stop offset=".67" stop-color="#b91621"/><stop offset=".796" stop-color="#b2161f"/><stop offset=".898" stop-color="#a7151c"/><stop offset=".985" stop-color="#991418"/><stop offset="1" stop-color="#961418"/></radialGradient><circle cx="285.69" cy="267.054" r="8.802" fill="url(#SVGID_12_)"/><radialGradient id="SVGID_13_" cx="285.69" cy="208.895" r="8.802" gradientUnits="userSpaceOnUse"><stop offset="0" stop-color="#be1622"/><stop offset=".492" stop-color="#bd1622"/><stop offset=".67" stop-color="#b91621"/><stop offset=".796" stop-color="#b2161f"/><stop offset=".898" stop-color="#a7151c"/><stop offset=".985" stop-color="#991418"/><stop offset="1" stop-color="#961418"/></radialGradient><circle cx="285.69" cy="208.895" r="8.802" fill="url(#SVGID_13_)"/><path class="st8" d="M417.179 296.424s61.46 1.962 50.838-29.37c0 0 28.834 84.002 4.553 87.796-24.281 3.794-48.562-23.522-55.391-58.426z"/><path d="M283 7.878c62.3 0 102.054 11.016 127.416 24.812l-.005-.006s32.041 5.737 48.783 10.52c16.74 4.783 12.748 9.116 12.748 9.116-11.245 18.827-16.946 34.413-16.946 34.413C474.146 236.906 511.618 303.62 529 327.451a29.286 29.286 0 0 1 1.414 32.443c-14.963 24.73-47.557 43.378-76.45 55.853l-.345 109.949s.728 33.356-172.063 33.356h-.235c-172.088-.03-172.086-34.437-172.086-34.437l.345-109.922c-26.505-11.683-55.592-28.49-71.112-50.355-8.283-11.669-8.21-27.316.022-39.022C56.342 299.928 91.895 233.49 110.6 89.53l.012-3.725c-1.394-3.602-6.955-17.348-16.592-33.484 0 0-3.993-4.333 12.748-9.116s46.628-11.408 46.628-11.408l-.015.02c25.293-13.354 65.53-23.936 129.6-23.938h.018m0-5h-.018c-56.334.002-100.497 8.135-131.28 24.173-4.462.995-30.736 6.897-46.307 11.346-10.155 2.9-15.248 6.204-16.513 10.708-.692 2.461-.007 4.621.99 6.02 8.668 14.553 13.915 27.016 15.738 31.616l-.008 2.457c-8.13 62.449-20.271 116.617-36.086 161.012-13.303 37.342-26.438 59.89-35.115 72.23-9.467 13.463-9.47 31.464-.01 44.793 13.172 18.555 36.773 35.603 70.18 50.7l-.335 106.667c0 2.017 1.188 12.477 24.653 21.865 29.14 11.657 80.425 17.575 152.432 17.587h.236c54.935 0 98.167-3.366 128.497-10.004 21.456-4.696 36.106-10.931 43.541-18.531 4.604-4.705 5.024-8.574 5.025-9.816l.335-106.678c37.633-16.652 63.108-35.667 75.738-56.54 7.175-11.858 6.526-26.766-1.652-37.978-8.769-12.022-22.076-34.226-35.679-71.74-16.426-45.3-28.956-100.951-37.245-165.419 1.49-3.806 6.892-16.97 15.974-32.22.997-1.4 1.682-3.56.99-6.02-1.265-4.505-6.358-7.808-16.513-10.71-15.53-4.437-43.358-9.561-48.492-10.492C381.114 11.297 337.694 2.878 283 2.878z"/></g></svg>