<svg xmlns="http://www.w3.org/2000/svg" viewBox="0 0 387.85 555.43"><defs><linearGradient id="a" x1="74.59" y1="150.78" x2="193.68" y2="150.78" gradientUnits="userSpaceOnUse"><stop offset="0" stop-color="#9a5d15"/><stop offset="0" stop-color="#9a5d15"/><stop offset=".59" stop-color="#9d5e16"/></linearGradient></defs><path d="M76.37 552.93l-73.6-288L71 194.18c-3.77-11.81 3.22-19.66 8.57-22.88V158c-5.25-5.21-7.61-10.61-7-16.07.66-5.89 4.66-10.33 7.63-12.86-6.91-4.38-10.41-9.27-10.4-14.58 0-8.36 9-14.63 12.46-16.75v-17L61.88 37.72v-.47C59.75 7.3 93 2.57 93.38 2.52h.32s50.72 0 84.69.1c11.08 0 19.5 3.29 25 9.69 8.78 10.22 6.76 24.55 6.67 25.15l-.06.4L188.45 81l-.4 16.38c11.65 3.12 17.71 7.58 18.51 13.6 1.26 9.42-11.84 18.11-16.35 20.8l.43 33.05 11.36 7.41.13.12c24.95 21.8 79.61 31.57 80.16 31.66l.53.1.45.3c28.88 19.77 97 124.06 99.9 128.49l1.31 2-1.94 1.4c-45.43 32.72-69 58-80.85 73.4-12.78 16.7-14.86 25.77-14.88 25.86l-1.29 6-3.27-5.18-21.08-33.53-33 150.08z" fill="#fff"/><path d="M93.7 5s50.71 0 84.69.1 29.21 32 29.21 32L186 80.35l-.47 18.93c40.63 9.88 2.19 31 2.19 31l.47 35.84 12.3 8.08c25.79 22.52 81.38 32.24 81.38 32.24 28.8 19.72 99.22 127.8 99.22 127.8-89.23 64.26-96.71 100.77-96.71 100.77L260 396.35l-33.86 154.08H78.32L5.54 265.63l68.37-70.83c-5.92-15.25 8.2-22 8.2-22v-15.9c-17.4-16.31 2.69-28.12 2.69-28.12-28-14.89 0-29.63 0-29.63V80.07l-20.45-43C62.39 9.12 93.7 5 93.7 5m-.32-5h-.33a50.43 50.43 0 0 0-17.32 6.26C64.08 13.21 58.42 24 59.36 37.42l.06.95.41.85 20 42V96.3c-4.41 2.88-12.44 9.33-12.46 18.14 0 5.46 3 10.46 9 14.9a21.62 21.62 0 0 0-6.17 12.26c-.66 6 1.69 11.82 7 17.37v11c-5.59 3.88-11.91 11.91-8.88 23.53L1.94 262.16l-1.94 2 .69 2.7 72.78 284.8 1 3.76h155.69l.86-3.92 31.26-142.16 17.83 28.36 6.85 10.9 2.28-12.53c.14-.55 2.5-9.43 14.85-25.41 11.73-15.2 35.11-40.08 79.89-72.33l3.87-2.79-2.6-4c-2.9-4.45-71.3-109.14-100.59-129.19l-.89-.61-1.07-.19c-.54-.1-54.53-9.75-78.95-31.09l-.26-.22-.28-.19-10.09-6.62-.39-30.29c5.89-3.68 17.66-12.39 16.31-22.53-.9-6.76-6.94-11.73-18.44-15.15l.34-13.88 21.13-42.28.36-.71.11-.79c.1-.65 2.27-16.08-7.25-27.15-6-7-15-10.53-26.89-10.56C144.81 0 94.21 0 93.71 0z" fill="#1d1d1b"/><path fill="#438ecc" d="M5.54 265.63l72.78 284.8h20.79l-25.2-284.8H5.54z"/><path d="M200.46 550.43H99.11l-25.2-284.8H186s-7.36 17.69-7.58 28.05c23.61 24.24 35 36.93 35 36.93z" fill="#1e71b8"/><path d="M200.46 550.43h25.68L260 396.35s-29.78-44.78-46.66-65.74z" fill="#438ecc"/><path fill="#7ec4ed" d="M73.91 265.63l29.85-70.93H73.91L5.54 265.63h68.37z"/><path d="M73.91 265.63H186s15.68-36 16-70.93h-98.24z" fill="#569cd5"/><path d="M82.11 172.79h111.57A29 29 0 0 1 202 194.7H73.91s-7.65-16.54 8.2-21.91zm105.58-42.47L84.8 128.77s-30-12.21 0-29.63l100.7.14s41.94 7.14 2.19 31.04z" fill="#438ecc"/><path fill="#024b8a" d="M84.8 80.07h101.17l-.47 19.21-100.7-.14V80.07z"/><path fill="#438ecc" d="M207.6 37.08h-20.55l-6.9 42.99h5.82l21.63-42.99z"/><path fill="#1e71b8" d="M187.05 37.08H84.8l8.9 42.99h86.45l6.9-42.99z"/><path fill="#438ecc" d="M84.8 37.08H64.34L84.8 80.07h8.9l-8.9-42.99z"/><path d="M100.66 5L84.8 37.07H64.34S58.52 10.7 93.7 5z" fill="#7ec4ed"/><path fill="#569cd5" d="M100.66 5.01l77.73.09 8.66 31.98H84.8l15.86-32.07z"/><path d="M187.05 37.07h20.55s5.59-31.92-29.21-32z" fill="#7ec4ed"/><path fill="#024b8a" d="M82.11 172.79v-15.9l2.69-28.12 102.89 1.55.47 35.84 5.52 6.63H82.11z"/><path d="M193.68 172.79a781 781 0 0 1-111.57-15.9S63.52 142 84.8 128.77c0 0 44.52 29.59 103.36 37.39z" fill="url(#a)"/><path d="M292.26 242a29.78 29.78 0 0 1-4.07 2.65c-2.33 1.31-3.73 2.07-4.19 2.3-1.47 1-5.66 4-12.57 9.11s-10.74 7.77-11.45 8.33c-4.23 3.3-7.06 6.21-8.48 8.82-1.8.11-3.06-.37-3.79-1.43a5.82 5.82 0 0 1 .8-7.27 12.25 12.25 0 0 1-7.6-4.73c-2.42-3.46-3.16-6.95-2.24-10.53.8-3.27 2.86-6.18 6.16-8.76a40.43 40.43 0 0 1 13.62-6.86c6.59-1.91 11.11-1.13 13.56 2.38 1.46 2.09 2.1 4.93 1.9 8.51q3.36-2.16 16.1-12.54c.79-.64 1.63-.32 2.53 1a9 9 0 0 1 1.71 4.8 5 5 0 0 1-1.99 4.22zm-28.18 9.85a11.14 11.14 0 0 0 3.35-4.34q1.31-3.16-.24-5.37c-1.49-2.14-4.59-2.19-9.31-.2a38.37 38.37 0 0 0-9.22 5.28c-4.1 3.19-5.26 6-3.47 8.57s5 3.21 9.51 1.56a34.22 34.22 0 0 0 9.38-5.53zm26.41 26.68a16.62 16.62 0 0 1-1.56 1.05c-2 .1-3.42-.41-4.18-1.5a4 4 0 0 1-.25-3.6q2.88-2.58 1.38-4.71c-.6-.85-3.42-.18-8.48 2a37.31 37.31 0 0 0-8.35 5.31c-3.14 2.47-4.93 4.09-5.38 4.92a7.45 7.45 0 0 1-1.35 1.87 2.47 2.47 0 0 1-2.59.28 5.22 5.22 0 0 1-2.39-2c-1.78-2.59-1.56-4.71.65-6.4a4.18 4.18 0 0 1 1.05-.53 5 5 0 0 0 1-.48c2.25-1.74 5.51-4.46 9.78-8.22s7.51-6.56 9.71-8.35q3-2.42 5.67 1.44a4.49 4.49 0 0 1 .94 4.15 6.77 6.77 0 0 1 5.2 2.79 8.23 8.23 0 0 1 1.44 4 11.71 11.71 0 0 1-.53 4.35 7.4 7.4 0 0 1-1.76 3.63zm11.22 9.63a19.38 19.38 0 0 1-3.77 2.28 19.27 19.27 0 0 0-3.78 2.27q-6.82 5.67-13.67 11.18a21.25 21.25 0 0 0-3.38 4.05 3.38 3.38 0 0 1-3.2-1.21q-3.18-4.61.7-8.32c4.85-4.58 8.57-8 11.18-10.1a134.36 134.36 0 0 1 11.39-8.51l.66-.55c.8-.66 1.66-.35 2.58.94a11.57 11.57 0 0 1 1.82 4q.87 2.81-.53 3.97zm9.71-7.22a3.85 3.85 0 0 1-3.13 1 4.09 4.09 0 0 1-2.78-1.76 6.88 6.88 0 0 1-1.24-4.35 5.14 5.14 0 0 1 1.78-4 3.78 3.78 0 0 1 3.16-.93 4.45 4.45 0 0 1 2.85 1.86 6.51 6.51 0 0 1 1.24 4.24 5.27 5.27 0 0 1-1.88 3.94zm-14.04 56.97a3.36 3.36 0 0 1-3.39-1.26q-.86-1.17-1.49-5l.8-.67q1.45-1.23 4.37-3.58c1.93-1.58 3.34-2.76 4.23-3.52 9.46-8.21 13.09-13.84 11-16.63-.6-.79-1.89-1.16-3.89-1.11-6.15.12-11.9 2.37-17.26 6.82a27.15 27.15 0 0 0-3 3.24 24.21 24.21 0 0 1-3 3.21 2.12 2.12 0 0 1-2.18.32 4 4 0 0 1-2-1.52c-2-2.87-1.33-5.64 2-8.36q6.94-5.62 13.87-11.46a18.4 18.4 0 0 1 1.66-1.17 18.85 18.85 0 0 0 1.6-1.22 23.52 23.52 0 0 0 2.14-2.21 22.31 22.31 0 0 1 2.08-2.15 3.18 3.18 0 0 1 2.94-.45 4.35 4.35 0 0 1 2.63 1.45c.74 1 .94 2.47.61 4.46l-2.8 2.08q5.76-.86 8.45 2.69a12 12 0 0 1 2.12 6.26 15.61 15.61 0 0 1-.71 6.89c-2 4.77-5.69 9.65-11.16 14.48-3.2 2.86-6.41 5.66-9.62 8.41zm20.68 32.51c-2.5-.38-4.13-1.07-4.86-2-1-1.22-1.05-4.25-.24-9.05q.81-5.07 1.76-10.13c.41-2 .85-5 1.31-8.93l-.28-.07-5.82 5.31a7 7 0 0 0-1.23 1.83 6.93 6.93 0 0 1-1.3 1.89 2.46 2.46 0 0 1-2.35.49 3.69 3.69 0 0 1-2.18-1.35 5.13 5.13 0 0 1-1-3.88 5.67 5.67 0 0 1 2-3.65q4.38-3.86 8.75-7.79a31.87 31.87 0 0 1 2.56-2 31.47 31.47 0 0 0 2.56-2c5.92-5.4 11.81-10.88 17.68-16.36a49.39 49.39 0 0 0 6-6.48 13.56 13.56 0 0 1 1.51-1.8 3.6 3.6 0 0 1 3.36-.72 4.63 4.63 0 0 1 2.87 1.46 4.22 4.22 0 0 1 .85 2.57 3.1 3.1 0 0 1-.8 2.57 18.61 18.61 0 0 1-2.13 1.38 33.12 33.12 0 0 0-5.18 4.29c-.7.65-6.54 6.18-17.65 16.38.31 0 4.3.29 11.88.36 6.34 0 9.72.05 10.21.61 1.74 1.95 1.17 4.29-1.71 7.09l-.65.66c-2.49-.48-6-.84-10.65-1.22-5.78-.55-9.18-.54-10.14.38-.09.09-.57 2.51-1.44 7.29-.85 4.53-1.36 7.37-1.54 8.5q-1.14 7.69 0 12.37zm-77.89-28.96a11.58 11.58 0 0 1-3.93-3.12 10.4 10.4 0 0 1-1-3.62c.7-.43 1.91-1.17 3.62-2.26 1.54-1 2.75-1.76 3.63-2.33 11.72-7.74 16.9-13.42 15.44-15.5-1.08-1.62-3.75-1.59-8-.06a35.45 35.45 0 0 0-7.93 3.83q-3 2-6.06 4a4.41 4.41 0 0 0-1.1 1.24 4.42 4.42 0 0 1-1.1 1.22 2.73 2.73 0 0 1-2.71-.14 5.92 5.92 0 0 1-2.45-2 4.7 4.7 0 0 1-.56-3.27 3.42 3.42 0 0 1 1.33-2.61q6.09-3.76 12.24-7.95c5-3.39 7.05-5.84 6.2-7.09-.13-.2-.84-.33-2.11-.39-6.63-.59-12.34.67-17.15 3.73a24.66 24.66 0 0 0-2.82 2.24 19.77 19.77 0 0 1-2.76 2.16 3.26 3.26 0 0 1-2.77.34 5 5 0 0 1-3.22-5.33 11 11 0 0 1 2.47-2.71 27.11 27.11 0 0 1 3-2.49q7.11-4.42 14.28-9.4a18 18 0 0 1 4.81-2.07c2.6-.76 4.19-.76 4.75.08a4.91 4.91 0 0 1 .79 3.36 3.28 3.28 0 0 1-1.61 2.68c3.07-.08 5.37 1 6.9 3.23 1.89 2.79 1.76 6.32-.41 10.51a20.09 20.09 0 0 1 5.81-.47 6.91 6.91 0 0 1 5 3.14q1.85 2.71 1.16 7.45c-.77 5.45-4.75 10.92-11.91 15.88q-5.93 4.02-11.83 7.72zm25.74 26.86c-2.22 1.61-5.09 1.12-8.6-1.5a28.57 28.57 0 0 1-7-7.55c-5.1-8-3.8-14.25 3.94-19.57a36.12 36.12 0 0 1 12.38-5.05c6.23-1.48 10.37-.89 12.41 2.05 1.84 2.64 2.74 6.33 2.69 11.11s-1.25 8.11-3.61 10c-2.94 2.3-6.26 2.65-10 1a19.87 19.87 0 0 1-8.54-7.6 11.09 11.09 0 0 1-1.12-4.19c-4.08 3.16-5.25 6-3.52 8.62a16.2 16.2 0 0 0 6 5.42c2.52 1.36 4 2.31 4.39 2.91q2.18 3.18.58 4.35zm7.09-17.46a7.29 7.29 0 0 0 2.44-3.49 4.19 4.19 0 0 0-.43-4 4.87 4.87 0 0 0-4.49-2.25 8.88 8.88 0 0 0-4.68 1.84 3.3 3.3 0 0 0-1.41 2.48 4.58 4.58 0 0 0 .85 3c2.47 3.7 5.05 4.5 7.72 2.42z" fill="#1d1d1b"/></svg>