<?xml version="1.0" encoding="utf-8"?>
<!-- Generator: Adobe Illustrator 22.1.0, SVG Export Plug-In . SVG Version: 6.00 Build 0)  -->
<svg version="1.1" xmlns="http://www.w3.org/2000/svg" xmlns:xlink="http://www.w3.org/1999/xlink" x="0px" y="0px"
	 viewBox="0 0 566.9 566.9" style="enable-background:new 0 0 566.9 566.9;" xml:space="preserve">
<style type="text/css">
	.st0{display:none;}
	.st1{display:inline;fill:#FFFFFF;}
	.st2{display:inline;}
	.st3{display:inline;fill:#1D71B8;}
	.st4{display:inline;fill:#36A9E1;}
	.st5{display:inline;fill:#009FE3;}
	.st6{display:inline;fill:#7D4E24;}
	.st7{fill:#FFFFFF;}
	.st8{fill:#438ECC;}
	.st9{fill:#1E71B8;}
	.st10{fill:#7EC4ED;}
	.st11{fill:#569CD5;}
	.st12{fill:#024B8A;}
	.st13{fill:url(#SVGID_1_);}
</style>
<g id="Laag_1" class="st0">
	<path class="st1" d="M248.1,801.1c0-0.1,0-0.2,0-0.2c-31.5,0-63.1,0-94.6,0c0,0.1,0,0.2,0,0.2C185.1,801.1,216.6,801.1,248.1,801.1
		z"/>
	<path class="st1" d="M598.1,799.2c0-0.2-0.1-0.4-0.1-0.6c-2.2,0.4-4.4,1.2-6.7,1.3c-7.8,0.2-15.7,0.1-23.5,0.2
		c-14.9,0-29.7,0-44.6,0c6,0.2,12.1,0.2,18.1,0.2c16.5,0,33.1,0.1,49.6,0.1C593.3,800.4,595.7,799.6,598.1,799.2z"/>
	<path class="st1" d="M423.3,800.1c-15.2,1.1-30.4,0.2-45.6,0.7c13.7,0.1,27.5,0.2,41.2,0.1C420.3,800.9,421.8,800.4,423.3,800.1z"
		/>
	<path class="st1" d="M343.9,801.3c0-0.3,0-0.6-0.1-0.8c-13.9,0-27.8,0-41.7,0C316.1,801.9,330,800.9,343.9,801.3z"/>
	<ellipse class="st1" cx="499.5" cy="800.6" rx="28" ry="0.1"/>
	<path class="st1" d="M261.2,765c-0.4,0-0.8,0-1.2,0c0,8.5,0,17,0,25.8C261.7,782.1,260.3,773.5,261.2,765z"/>
	<path class="st2" d="M248.1,801.1c-31.5,0-63.1,0-94.6,0c0-0.1,0-0.2,0-0.2c31.5,0,63.1,0,94.6,0
		C248.2,800.9,248.1,801,248.1,801.1z"/>
	<path class="st2" d="M598.1,799.2c-2.4,0.4-4.7,1.2-7.1,1.2c-16.5,0.1-33.1,0-49.6-0.1c-6,0-12.1,0-18.1-0.2c14.9,0,29.7,0,44.6,0
		c7.8,0,15.7,0,23.5-0.2c2.2-0.1,4.4-0.8,6.7-1.3C598,798.9,598,799,598.1,799.2z"/>
	<path class="st2" d="M423.3,800.1c-1.5,0.3-2.9,0.8-4.4,0.8c-13.7,0.1-27.5,0-41.2-0.1C392.8,800.3,408,801.2,423.3,800.1z"/>
	<path class="st2" d="M343.9,801.3c-13.9-0.4-27.8,0.5-41.7-0.8c13.9,0,27.8,0,41.7,0C343.8,800.8,343.9,801.1,343.9,801.3z"/>
	<ellipse class="st2" cx="499.5" cy="800.6" rx="28" ry="0.1"/>
	<path class="st2" d="M261.2,765c-0.9,8.5,0.4,17-1.2,25.8c0-8.8,0-17.3,0-25.8C260.5,765,260.9,765,261.2,765z"/>
	<path class="st2" d="M467.8,794.2c2.6,2,5.3,4,7.4,5.6C472.9,799.6,468.5,796.6,467.8,794.2C467.8,794.1,467.8,794.2,467.8,794.2z"
		/>
	<path class="st1" d="M236.1,133.6c-17.7-1.5-23.6,1.3-24.8,10.1c-1.3,9.6,6,17.1,18.7,18.9c-6.8,9-10.7,17.4,0.4,26.8
		c2.3,1.9,0.9,13.7-1.3,14.6c-8.7,3.4-8,9.5-8.3,16.5c-0.2,3.3-2.1,7.4-4.6,9.7c-17.8,17.1-36,33.7-53.8,50.9
		c-2.4,2.3-4.8,7-4.1,9.8c5.6,20.2,13,39.9,17.9,60.3c15.5,64.5,30.1,129.2,44.9,193.9c1.4,6.3,4.1,9.1,10.9,9
		c25.4-0.3,50.7-0.5,76.1-0.2c15.5,0.2,31,1.5,46.5,1.6c2.5,0,6.8-3,7.2-5.2c5.1-25.2,9.6-50.4,14.3-75.7c3-16.2,6.2-32.4,9.3-48.6
		c5.7,7.7,8.9,15.6,12.5,23.3c1.5,3.2,3.9,6,5.9,9c3-2.7,7-4.9,8.9-8.3c19-35,42.9-65.8,75.8-88.8c6.7-4.7,8.7-10.1,3.5-17.1
		c-8.7-11.8-17-23.8-25.9-35.4c-19.8-25.8-39.8-51.5-60-77.1c-1.9-2.5-5.2-4.6-8.2-5.3c-7.3-1.7-15.5-0.8-22-3.8
		c-15.4-7.2-31.6-14.2-44.1-25.2c-5.1-4.5-1.6-18.9-1.9-28.7c0-0.6,0.5-1.3,1-2.4c8.5,0.7,12.6-3.9,13.8-12.2
		c1.1-7.8-1.8-12.5-8.8-16.4c-9.2-5.1-11.2-15.6-5.5-23.2c1.5-2,3.2-3.8,4.2-6"/>
	<path class="st2" d="M224.3,110.9c-4.8-9.8-12.8-22.6-16.8-32.8c-0.6-1.5-1.1-3.5-0.7-5c4.6-16,16.6-23.6,33.7-23.3
		c28.7,0.6,57.3,0.4,86,0.5c10.7,0.1,22.7,13.8,23.1,24c0.2,4.7,0.6,3.6-0.9,5.9c-1.4,2.2-7,10.8-10,18.2c-1,2.2-6.2,13.9-9,20.5
		c-2.1,4.9-2.6,7.5-2.8,13.6c7,3.9,18.8,13.4,17.7,21.2c-1.2,8.3-5.3,12.9-13.8,12.2c-0.5,1.1-1,1.8-1,2.4
		c0.3,9.9-3.2,24.3,1.9,28.7c12.5,10.9,28.7,18,44.1,25.2c6.5,3,17.2,5,24.4,6.7c3,0.7,3.9,0,5.8,2.5c20.1,25.6,40.2,51.2,60,77.1
		c8.9,11.6,17.2,23.6,25.9,35.4c5.2,7.1,3.3,12.4-3.5,17.1c-32.9,23-56.8,53.8-75.8,88.8c-1.8,3.4-5.9,5.6-8.9,8.3
		c-2-3-4.4-5.8-5.9-9c-3.7-7.7-6.9-15.6-12.5-23.3c-3.1,16.2-6.3,32.4-9.3,48.6c-4.7,25.2-9.2,50.5-14.3,75.7
		c-0.5,2.2-4.7,5.2-7.2,5.2c-15.5-0.1-31-1.4-46.5-1.6c-25.4-0.3-50.7-0.1-76.1,0.2c-6.7,0.1-9.5-2.7-10.9-9
		c-14.8-64.7-29.5-129.4-44.9-193.9c-4.9-20.3-12.3-40.1-17.9-60.3c-0.8-2.7,1.7-7.4,4.1-9.8c17.8-17.1,36-33.8,53.8-50.9
		c2.4-2.4,4.4-6.4,4.6-9.7c0.3-7-0.4-13,8.3-16.5c2.2-0.9,3.6-12.6,1.3-14.6c-11.1-9.4-7.2-17.8-0.4-26.8
		c-12.7-1.9-20-9.3-18.7-18.9c1.2-8.8,7.1-11.6,24.8-10.1 M250.1,542.8c23.9,0,46.4,0,68.9,0c5.3,0,8.4-1.9,8.7-8.1
		c3.4-63.6-2-118.8,2.1-182.4c0.6-10.1-16.5-22.7-21.7-30.4c-4.4-6.5-13.3-9.8-18.6-15.6c-2.7-3-5.4-6.7-9.2-6.8
		c-20.8-0.7-16.3-6.6-37.1-6.6c-3.8,0-7.5,0.5-12.7,0.9C236.9,376.6,243.4,458.1,250.1,542.8z M405.6,435
		c19.7-30.2,40.8-56.8,68-77.6c7.8-6,7.7-10.2,2.2-17.2c-24.4-31.3-48.5-62.9-72.8-94.2c-2.1-2.7-5.1-5.2-8.2-6.4
		c-19.2-7.2-38.6-14-57.9-20.8c-0.5-0.2-1.2,0.5-2.1,0.9c0,6.3,0.4,12.7-0.1,19.1c-1,14.2-0.9,28.7-4,42.5c-2.5,11-0.3,19.2,6,27.7
		c25.9,34.7,46,72.7,62.5,112.7C401,425.8,403.1,429.9,405.6,435z M171.8,292.7c8.8,37.3,17.1,73.4,25.9,109.3
		c10.8,44,22,87.9,33.2,131.9c0.8,3.3,3.1,6.2,4.7,9.4c1.4-0.4,2.7-0.9,4.1-1.3c-1.1-19.5-2.1-39-3.5-58.4
		c-2.4-32.8-4.9-65.7-7.7-98.5c-2.4-27.5-5-54.9-8.2-82.2c-0.4-3.6-4.6-9.4-7.4-9.6C199.8,292.1,186.6,292.7,171.8,292.7z
		 M243.1,79.6c0,18.5,2.5,9.1,2.5,28.7c21.7,0,42,0.1,62.3-0.2c2.5,0,6.6-2.3,7-4.2 M339.2,541.2c10.2,3.1,13.7-0.3,15.3-9
		 M230.9,284.5c21.2,0,42,0.1,62.7,0c6.8,0,0-0.3,6.7-1.2c2.4-0.3,6.3-2.6,6.6-4.4c1.7-12.9,2.6-25.8,3.8-39.5
		c-14.1,0-12.2,0-23.9,0.1c-13.9,0.2-31.7-4.5-40.7,2.3c-9.5,7.2-10.5,25.5-15.2,38.9C230.7,281.3,230.9,282.1,230.9,284.5z
		 M243.6,163.6c4.9,5.3,8.2,12.2,13.2,13.6c19.6,5.9,39.6,10,60.9,15.2c0-10.4,0-18.8,0-28.8C293.8,163.6,270.3,163.6,243.6,163.6z
		 M231.6,241.4c-1.1-1.1-2.2-2.2-3.3-3.3c-22.1,8-33.4,29.6-51.4,44c12.7,2,24.8,2.2,36.8,1.8c1.9-0.1,4.7-2.2,5.3-4
		C223.6,267.1,227.5,254.2,231.6,241.4z M309.2,155.5c3.4-0.3,10.2-0.6,16.8-1.9c2.4-0.5,4.3-3.8,6.4-5.8c-2.4-1.3-4.9-3.6-7.3-3.7
		c-31-0.4-62.1-0.7-93.1-0.5c-2.9,0-5.8,3.3-8.6,5.1c3.3,1.2,6.6,2.4,9.9,3.4c1.3,0.4,2.8,0.1,4.2,0.2
		C260.2,153.2,283,154.3,309.2,155.5z M246.2,132.6c23.1,0,45.3,0,71.1,0c-3.3-6-0.2-4.8-2.3-4.8c-21.6-0.8-45.5,1.1-68.1,1.1
		C247.8,134.6,245.7,128.9,246.2,132.6z M319.9,215.4c-29-1.2-58-2.4-87-3.6c-0.1,1.8-0.1,3.6-0.2,5.5
		C261.6,219.1,290.7,218.2,319.9,215.4z M262.4,190.5c-0.2,0.9-0.5,1.8-0.7,2.7c15.1,4,30.3,8.1,45.4,12.1c0.3-1.1,0.6-2.3,0.9-3.4
		C292.8,198.1,277.6,194.3,262.4,190.5z"/>
	<path class="st3" d="M250.1,542.8c-6.7-84.7-13.1-166.2-19.7-249c5.2-0.4,9-0.9,12.7-0.9c20.8,0,46.8-1.3,67.6-0.6
		c9.2-0.6,3.1,9.7,5.2,17.3c2.1,7.5,7.3,12.3,11.7,18.8c5.2,7.7,11.7,21.8,11,31.9c-4,63.5-7.6,110.8-11,174.4
		c-0.3,6.3-3.4,8.1-8.7,8.1C296.5,542.8,274,542.8,250.1,542.8z"/>
	<path class="st1" d="M405.6,435c-2.5-5.2-4.6-9.2-6.4-13.5c-16.5-39.9-40.1-67.3-66-102c-6.3-8.5-9.5-19-7-30
		c2.9-18.3,3.5-26.4,5-40.1c0.7-6.4,3.5-23.4,3.5-29.7c0.9-0.4,1.7-1.1,2.1-0.9c19.3,6.9,38.7,13.6,57.9,20.8
		c3.1,1.2,6.1,3.7,8.2,6.4c24.4,31.3,48.4,62.9,72.8,94.2c5.5,7,5.6,11.3-2.2,17.2C446.3,378.2,425.3,404.8,405.6,435z"/>
	<path class="st4" d="M171.8,292.7c14.8,0,28-0.6,41.1,0.5c2.8,0.2,6.9,6,7.4,9.6c3.2,27.4,5.9,54.8,8.2,82.2
		c2.8,32.8,5.3,65.6,7.7,98.5c1.4,19.5,2.3,38.9,3.5,58.4c-1.4,0.4-2.7,0.9-4.1,1.3c-1.6-3.1-3.8-6.1-4.7-9.4
		c-11.2-43.9-22.4-87.8-33.2-131.9C188.9,366.1,180.6,330,171.8,292.7z"/>
	<path class="st5" d="M315.5,117.7c-20.3,0.3-48.4,1.3-70.2,1.3c0-19.6-2.3-20.9-2.3-39.4c26.6,0,46.8,0,74.2,0"/>
	<path class="st5" d="M364.6,383.5c4,7.5,7.8,15.2,11.4,23c1,2.2,2.2,4.8,1.8,7c-7.9,42-15.5,76.7-23.3,118.8
		c-1.6,8.6-5,12.1-15.3,9c3.2-62.8,5.6-118.2,8.7-180.8"/>
	<path class="st3" d="M230.9,284.5c0-2.4-0.2-3.2,0-3.8c4.7-13.4,5.7-31.7,15.2-38.9c9-6.8,26.7-2.2,40.7-2.3
		c11.7-0.2,20.8-1.8,35-1.8c-1.2,13.7-2.1,26.7-3.8,39.5c-0.2,1.8-4.8,7-7.3,7.3c0,0-10.3-0.1-17.1-0.1
		C272.9,284.5,252.1,284.5,230.9,284.5z"/>
	<path class="st5" d="M243.6,163.6c26.7,0,50.2,0,74.1,0c0,10.1,0,18.4,0,28.8c-21.3-5.1-41.3-9.3-60.9-15.2
		C251.9,175.8,248.6,168.9,243.6,163.6z"/>
	<path class="st5" d="M231.6,241.4c-4.1,12.9-8.1,25.8-12.5,38.5c-0.6,1.8-3.4,3.9-5.3,4c-12,0.4-24.1,0.2-36.8-1.8
		c18-14.4,29.3-36,51.4-44C229.5,239.2,230.6,240.3,231.6,241.4z"/>
	<path class="st3" d="M309.2,155.5c-26.2-1.2-49-2.2-71.8-3.3c-1.4-0.1-2.9,0.2-4.2-0.2c-3.4-1-6.6-2.3-9.9-3.4
		c2.9-1.8,5.8-5,8.6-5.1c31-0.2,62.1,0.1,93.1,0.5c2.5,0,4.9,2.4,7.3,3.7c-2.1,2-4,5.3-6.4,5.8C319.4,154.9,312.6,155.1,309.2,155.5
		z"/>
	<path class="st5" d="M246.2,132.6c-0.6-3.7,0-0.1-0.9-5.7c22.5,0,49.1-1.5,70.7-0.7c2.2,0.1-0.6-4.5,1.2,6.5
		C291.6,132.6,269.3,132.6,246.2,132.6z"/>
	<path class="st3" d="M319.9,215.4c-29.2,2.8-58.3,3.7-87.2,1.9c0.1-1.8,0.1-3.6,0.2-5.5C261.9,213,290.9,214.2,319.9,215.4z"/>
	<path class="st6" d="M262.4,190.5c15.2,3.8,30.4,7.6,45.6,11.4c-0.3,1.1-0.6,2.3-0.9,3.4c-15.1-4-30.3-8.1-45.4-12.1
		C262,192.2,262.2,191.3,262.4,190.5z"/>
	<polygon class="st5" points="320.8,116.5 323.2,79.6 337.3,79.6 	"/>
	<path class="st5" d="M337.3,73.9h-16.5l-5.9-17.3C314.9,56.7,334.2,53.1,337.3,73.9z"/>
	<polygon class="st5" points="237.7,119 235.3,79.6 216.4,79.6 	"/>
	<path class="st5" d="M237.7,73.9h-21.3c0,0,0.6-17.1,26.7-17.5L237.7,73.9z"/>
	<polygon class="st5" points="243.6,73.9 250.1,56.4 305.3,56.4 313.3,73.9 	"/>
	<path class="st5" d="M277.6,205.3l-39.7-1.2c0,0,2.7-6.9,0-11.6C237.9,192.4,260.2,201.5,277.6,205.3z"/>
</g>
<g id="Laag_2">
	<g>
		<path class="st7" d="M199.3,558.2l-73.6-288l68.3-70.7c-3.8-11.8,3.2-19.7,8.6-22.9v-13.4c-5.3-5.2-7.6-10.6-7-16.1
			c0.7-5.9,4.7-10.3,7.6-12.9c-6.9-4.4-10.4-9.3-10.4-14.6c0-8.4,9-14.6,12.5-16.8V85.9L184.8,43l0-0.5c-2.1-30,31.2-34.7,31.5-34.7
			l0.2,0h0.2c0,0,50.7,0,84.7,0.1c11.1,0,19.5,3.3,25,9.7c8.8,10.2,6.8,24.5,6.7,25.2l-0.1,0.4l-21.6,43.1l-0.4,16.4
			c11.6,3.1,17.7,7.6,18.5,13.6c1.3,9.4-11.8,18.1-16.4,20.8l0.4,33l11.3,7.4l0.1,0.1c25,21.8,79.6,31.6,80.2,31.7l0.5,0.1l0.4,0.3
			c28.9,19.8,97,124.1,99.9,128.5l1.3,2l-1.9,1.4c-45.4,32.7-69,58-80.9,73.4c-12.8,16.7-14.9,25.8-14.9,25.9l-1.3,6l-3.3-5.2
			l-21.1-33.5l-33,150.1H199.3z"/>
		<path d="M216.6,10.3c0,0,50.7,0,84.7,0.1c34,0.1,29.2,32,29.2,32l-21.6,43.3l-0.5,18.9c40.6,9.9,2.2,31,2.2,31l0.5,35.8l12.3,8.1
			c25.8,22.5,81.4,32.2,81.4,32.2c28.8,19.7,99.2,127.8,99.2,127.8c-89.2,64.3-96.7,100.8-96.7,100.8L383,401.6l-33.9,154.1H201.3
			l-72.8-284.8l68.4-70.8c-5.9-15.2,8.2-22,8.2-22v-15.9c-17.4-16.3,2.7-28.1,2.7-28.1c-28-14.9,0-29.6,0-29.6V85.3l-20.5-43
			C185.3,14.4,216.6,10.3,216.6,10.3 M216.3,5.3l-0.3,0c-0.4,0-8.9,1.2-17.3,6.2c-11.7,7-17.3,17.7-16.4,31.2l0.1,0.9l0.4,0.9l20,42
			v15.1c-4.4,2.9-12.4,9.3-12.5,18.1c0,5.5,3,10.5,9,14.9c-2.8,2.9-5.6,7.1-6.2,12.3c-0.7,6,1.7,11.8,7,17.4v11
			c-5.6,3.9-11.9,11.9-8.9,23.5l-66.3,68.7l-1.9,2l0.7,2.7l72.8,284.8l1,3.8h3.9h147.8h4l0.9-3.9l31.3-142.2l17.8,28.4l6.8,10.9
			l2.3-12.5c0.1-0.6,2.5-9.4,14.8-25.4c11.7-15.2,35.1-40.1,79.9-72.3l3.9-2.8l-2.6-4c-2.9-4.4-71.3-109.1-100.6-129.2l-0.9-0.6
			l-1.1-0.2c-0.5-0.1-54.5-9.8-78.9-31.1l-0.3-0.2l-0.3-0.2l-10.1-6.6l-0.4-30.3c5.9-3.7,17.7-12.4,16.3-22.5
			c-0.9-6.8-6.9-11.7-18.4-15.1l0.3-13.9L335,44.6l0.4-0.7l0.1-0.8c0.1-0.7,2.3-16.1-7.3-27.2c-6-7-15.1-10.5-26.9-10.6
			c-33.6-0.1-84.2-0.1-84.7-0.1L216.3,5.3L216.3,5.3z"/>
	</g>
	<polygon class="st8" points="128.5,270.9 201.3,555.7 222.1,555.7 196.9,270.9 	"/>
	<path class="st9" d="M323.4,555.7H222.1l-25.2-284.8h112.1c0,0-7.4,17.7-7.6,28c23.6,24.2,35,36.9,35,36.9L323.4,555.7z"/>
	<path class="st8" d="M323.4,555.7h25.7L383,401.6c0,0-29.8-44.8-46.7-65.7L323.4,555.7z"/>
	<polygon class="st10" points="196.9,270.9 226.7,200 196.9,200 128.5,270.9 	"/>
	<path class="st11" d="M196.9,270.9h112.1c0,0,15.7-36,16-70.9h-98.2L196.9,270.9z"/>
	<path class="st8" d="M205,178h111.6c0,0,9.2,8.3,8.3,21.9h-98.2h-29.9C196.9,200,189.2,183.4,205,178z"/>
	<path class="st8" d="M310.6,135.6L207.7,134c0,0-30-12.2,0-29.6l100.7,0.1C308.4,104.5,350.4,111.7,310.6,135.6z"/>
	<polygon class="st12" points="207.7,85.3 308.9,85.3 308.4,104.5 207.7,104.4 	"/>
	<polygon class="st8" points="330.5,42.3 310,42.3 303.1,85.3 308.9,85.3 	"/>
	<polygon class="st9" points="310,42.3 207.7,42.3 216.6,85.3 303.1,85.3 	"/>
	<polygon class="st8" points="207.7,42.3 187.3,42.3 207.7,85.3 216.6,85.3 	"/>
	<path class="st10" d="M223.6,10.3l-15.9,32.1h-20.5c0,0-5.8-26.4,29.4-32.1L223.6,10.3z"/>
	<polygon class="st11" points="223.6,10.3 301.3,10.4 310,42.3 207.7,42.3 	"/>
	<path class="st10" d="M310,42.3h20.5c0,0,5.6-31.9-29.2-32L310,42.3z"/>
	<polygon class="st12" points="205,178 205,162.1 207.7,134 310.6,135.6 311.1,171.4 316.6,178 	"/>
	<linearGradient id="SVGID_1_" gradientUnits="userSpaceOnUse" x1="197.5272" y1="156.0378" x2="316.6224" y2="156.0378">
		<stop  offset="0" style="stop-color:#9A5D15"/>
		<stop  offset="0.1103" style="stop-color:#9B5D16"/>
		<stop  offset="0.5868" style="stop-color:#9D5E16"/>
	</linearGradient>
	<path class="st13" d="M316.6,178c0,0-53.2-3-111.6-15.9c0,0-18.6-14.9,2.7-28.1c0,0,44.5,29.6,103.4,37.4L316.6,178z"/>
	<g>
		<g>
			<path d="M415.4,247.5c-1,0.8-2.3,1.7-4.1,2.6c-2.3,1.3-3.7,2.1-4.2,2.3c-1.5,1-5.7,4-12.6,9.1c-6.9,5.1-10.7,7.8-11.4,8.3
				c-4.2,3.3-7.1,6.2-8.5,8.8c-1.8,0.1-3.1-0.4-3.8-1.4c-0.8-1.1-1.1-2.4-0.9-3.8c0.2-1.4,0.7-2.6,1.7-3.5c-3.5-0.8-6-2.4-7.6-4.7
				c-2.4-3.5-3.2-7-2.2-10.5c0.8-3.3,2.9-6.2,6.2-8.8c3.9-3,8.4-5.3,13.6-6.9c6.6-1.9,11.1-1.1,13.6,2.4c1.5,2.1,2.1,4.9,1.9,8.5
				c2.2-1.4,7.6-5.6,16.1-12.5c0.8-0.6,1.6-0.3,2.5,1c1.1,1.5,1.6,3.1,1.7,4.8C417.4,244.9,416.8,246.3,415.4,247.5z M387.2,257.3
				c1.5-1.2,2.6-2.6,3.4-4.3c0.9-2.1,0.8-3.9-0.2-5.4c-1.5-2.1-4.6-2.2-9.3-0.2c-3.4,1.4-6.5,3.2-9.2,5.3c-4.1,3.2-5.3,6-3.5,8.6
				c1.9,2.7,5,3.2,9.5,1.6C380.9,261.7,384,259.9,387.2,257.3z"/>
			<path d="M413.6,284c-0.3,0.3-0.8,0.6-1.6,1.1c-2,0.1-3.4-0.4-4.2-1.5c-0.6-0.9-0.7-2.1-0.2-3.6c1.9-1.7,2.4-3.3,1.4-4.7
				c-0.6-0.9-3.4-0.2-8.5,2c-2.3,0.9-5,2.7-8.3,5.3c-3.1,2.5-4.9,4.1-5.4,4.9c-0.6,1-1,1.6-1.4,1.9c-0.8,0.6-1.6,0.7-2.6,0.3
				c-1-0.4-1.8-1-2.4-2c-1.8-2.6-1.6-4.7,0.6-6.4c0.2-0.2,0.6-0.3,1.1-0.5c0.5-0.2,0.8-0.3,1-0.5c2.3-1.7,5.5-4.5,9.8-8.2
				c4.3-3.8,7.5-6.6,9.7-8.4c2-1.6,3.9-1.1,5.7,1.4c1.1,1.5,1.4,2.9,0.9,4.2c2.3,0.2,4,1.1,5.2,2.8c0.8,1.1,1.3,2.4,1.4,4
				c0.1,1,0,2.4-0.5,4.4C414.9,282.3,414.3,283.5,413.6,284z"/>
			<path d="M424.8,293.7c-0.8,0.7-2.1,1.4-3.8,2.3c-1.7,0.9-3,1.6-3.8,2.3c-4.5,3.8-9.1,7.5-13.7,11.2c-0.8,0.7-2,2-3.4,4
				c-1.5,0.1-2.6-0.3-3.2-1.2c-2.1-3.1-1.9-5.8,0.7-8.3c4.8-4.6,8.6-8,11.2-10.1c4.4-3.6,8.2-6.4,11.4-8.5c0.2-0.2,0.4-0.4,0.7-0.6
				c0.8-0.7,1.7-0.3,2.6,0.9c0.8,1.1,1.4,2.5,1.8,4C425.9,291.6,425.8,292.9,424.8,293.7z M434.5,286.4c-1,0.8-2,1.2-3.1,1
				c-1.1-0.2-2-0.7-2.8-1.8c-0.9-1.2-1.3-2.6-1.2-4.3c0-1.7,0.6-3,1.8-4c1-0.8,2-1.1,3.2-0.9c1.1,0.2,2.1,0.8,2.8,1.9
				c0.9,1.2,1.3,2.6,1.2,4.2C436.4,284.1,435.7,285.4,434.5,286.4z"/>
			<path d="M420.5,343.4c-1.5,0.2-2.7-0.2-3.4-1.2c-0.6-0.8-1.1-2.5-1.5-5c0.3-0.2,0.5-0.4,0.8-0.7c1-0.8,2.4-2,4.4-3.6
				c1.9-1.6,3.3-2.8,4.2-3.5c9.5-8.2,13.1-13.9,11-16.6c-0.6-0.8-1.9-1.2-3.9-1.1c-6.1,0.1-11.9,2.4-17.3,6.8
				c-0.8,0.6-1.8,1.7-3,3.2c-1.3,1.5-2.3,2.6-3,3.2c-0.6,0.5-1.3,0.6-2.2,0.3c-0.8-0.3-1.5-0.8-2-1.5c-2-2.9-1.3-5.6,2-8.4
				c4.6-3.8,9.3-7.6,13.9-11.5c0.4-0.3,0.9-0.7,1.7-1.2c0.8-0.5,1.3-0.9,1.7-1.2c0.5-0.4,1.2-1.2,2.1-2.2c0.9-1,1.6-1.7,2.1-2.2
				c0.7-0.6,1.7-0.8,2.9-0.5c1.3,0.3,2.1,0.8,2.6,1.4c0.7,1,0.9,2.5,0.6,4.5c-0.9,0.7-1.9,1.4-2.8,2.1c3.8-0.6,6.6,0.3,8.5,2.7
				c1.2,1.5,1.9,3.6,2.1,6.3c0.2,2.6,0,4.9-0.7,6.9c-2,4.8-5.7,9.7-11.2,14.5C426.9,337.9,423.7,340.7,420.5,343.4z"/>
			<path d="M440.8,375.4c-2.5-0.4-4.1-1.1-4.9-2c-1-1.2-1.1-4.3-0.2-9.1c0.5-3.4,1.1-6.8,1.8-10.1c0.4-2,0.8-5,1.3-8.9
				c-0.1,0-0.2,0-0.3-0.1c-1.9,1.8-3.9,3.6-5.8,5.3c-0.4,0.3-0.8,0.9-1.2,1.8c-0.5,0.9-0.9,1.5-1.3,1.9c-0.6,0.6-1.4,0.7-2.4,0.5
				c-1-0.2-1.7-0.7-2.2-1.4c-0.9-1.2-1.2-2.5-1-3.9c0.2-1.4,0.8-2.6,2-3.6c2.9-2.6,5.8-5.2,8.7-7.8c0.5-0.5,1.4-1.1,2.6-2
				c1.2-0.8,2-1.5,2.6-2c5.9-5.4,11.8-10.9,17.7-16.4c2.7-2.5,4.7-4.6,6-6.5c0.6-0.8,1.1-1.4,1.5-1.8c0.8-0.8,1.9-1,3.4-0.7
				c1.3,0.2,2.2,0.7,2.9,1.5c0.5,0.6,0.8,1.4,0.8,2.6c0.1,1.1-0.2,2-0.8,2.6c-0.2,0.2-0.9,0.6-2.1,1.4c-1.3,0.8-3,2.2-5.1,4.2
				c-0.7,0.7-6.5,6.2-17.6,16.4c0.3,0,4.3,0.3,11.9,0.4c6.3,0,9.7,0,10.2,0.6c1.7,1.9,1.2,4.3-1.7,7.1c-0.2,0.2-0.4,0.4-0.6,0.7
				c-2.5-0.5-6-0.8-10.7-1.2c-5.8-0.6-9.2-0.5-10.1,0.4c-0.1,0.1-0.6,2.5-1.4,7.3c-0.8,4.5-1.4,7.4-1.5,8.5c-0.8,5.1-0.8,9.3,0,12.4
				C442.2,374,441.5,374.7,440.8,375.4z"/>
			<path d="M363.2,346.9c-2-1.2-3.3-2.2-3.9-3.1c-0.4-0.7-0.8-1.9-1-3.6c0.7-0.4,1.9-1.2,3.6-2.3c1.5-1,2.7-1.8,3.6-2.3
				c11.7-7.7,16.9-13.4,15.4-15.5c-1.1-1.6-3.8-1.6-8-0.1c-3.1,1.1-5.7,2.4-7.9,3.8c-2,1.4-4,2.7-6.1,4c-0.3,0.2-0.7,0.6-1.1,1.2
				c-0.4,0.6-0.8,1-1.1,1.2c-0.7,0.4-1.6,0.4-2.7-0.1c-1.1-0.5-1.9-1.2-2.4-2c-0.6-0.9-0.7-2-0.6-3.3c0.2-1.3,0.6-2.2,1.3-2.6
				c4.1-2.5,8.1-5.2,12.2-7.9c5-3.4,7-5.8,6.2-7.1c-0.1-0.2-0.8-0.3-2.1-0.4c-6.6-0.6-12.3,0.7-17.1,3.7c-0.7,0.4-1.6,1.2-2.8,2.2
				c-1.2,1-2.1,1.8-2.8,2.2c-0.9,0.5-1.8,0.6-2.8,0.3c-1-0.3-1.8-0.9-2.4-2c-0.8-1.2-1-2.3-0.8-3.4c0.1-0.4,1-1.3,2.5-2.7
				c1.4-1.3,2.4-2.1,3-2.5c4.7-2.9,9.5-6.1,14.3-9.4c1.1-0.7,2.7-1.4,4.8-2.1c2.6-0.8,4.2-0.8,4.8,0.1c0.7,1,0.9,2.1,0.8,3.4
				c-0.1,1.3-0.7,2.2-1.6,2.7c3.1-0.1,5.4,1,6.9,3.2c1.9,2.8,1.8,6.3-0.4,10.5c2.6-0.5,4.6-0.7,5.8-0.5c2.1,0.3,3.8,1.3,5,3.1
				c1.2,1.8,1.6,4.3,1.2,7.5c-0.8,5.4-4.7,10.9-11.9,15.9C371.1,341.8,367.1,344.4,363.2,346.9z"/>
			<path d="M388.7,373.4c-2.2,1.6-5.1,1.1-8.6-1.5c-2.7-2-5.1-4.6-7-7.6c-5.1-8-3.8-14.3,3.9-19.6c3.2-2.2,7.3-3.9,12.4-5
				c6.2-1.5,10.4-0.9,12.4,2.1c1.8,2.6,2.7,6.3,2.7,11.1c0,4.8-1.3,8.1-3.6,10c-2.9,2.3-6.3,2.6-10,1c-3.3-1.4-6.1-4-8.5-7.6
				c-0.5-0.7-0.8-2.1-1.1-4.2c-4.1,3.2-5.2,6-3.5,8.6c1.5,2.2,3.5,4.1,6,5.4c2.5,1.4,4,2.3,4.4,2.9
				C389.6,371.1,389.8,372.6,388.7,373.4z M395.8,355.9c1.1-0.8,1.9-2,2.4-3.5c0.5-1.5,0.4-2.8-0.4-4c-1.1-1.6-2.6-2.3-4.5-2.2
				c-1.6,0.1-3.2,0.7-4.7,1.8c-0.8,0.6-1.3,1.4-1.4,2.5c-0.1,1,0.2,2,0.9,3C390.6,357.2,393.1,358,395.8,355.9z"/>
		</g>
	</g>
</g>
</svg>
