<svg xmlns="http://www.w3.org/2000/svg" viewBox="0 0 566.9 566.9"><style>.st1{fill:#fff}.st1,.st2,.st3,.st5{display:inline}.st3,.st5{fill:#1d71b8}.st5{fill:#009fe3}.st8{fill:#438ecc}.st9{fill:#1e71b8}.st10{fill:#7ec4ed}.st11{fill:#569cd5}.st12{fill:#024b8a}</style><g id="Laag_2"><path d="M199.3 558.2l-73.6-288 68.3-70.7c-3.8-11.8 3.2-19.7 8.6-22.9v-13.4c-5.3-5.2-7.6-10.6-7-16.1.7-5.9 4.7-10.3 7.6-12.9-6.9-4.4-10.4-9.3-10.4-14.6 0-8.4 9-14.6 12.5-16.8V85.9L184.8 43v-.5c-2.1-30 31.2-34.7 31.5-34.7h.4s50.7 0 84.7.1c11.1 0 19.5 3.3 25 9.7 8.8 10.2 6.8 24.5 6.7 25.2l-.1.4-21.6 43.1-.4 16.4c11.6 3.1 17.7 7.6 18.5 13.6 1.3 9.4-11.8 18.1-16.4 20.8l.4 33 11.3 7.4.1.1c25 21.8 79.6 31.6 80.2 31.7l.5.1.4.3c28.9 19.8 97 124.1 99.9 128.5l1.3 2-1.9 1.4c-45.4 32.7-69 58-80.9 73.4-12.8 16.7-14.9 25.8-14.9 25.9l-1.3 6-3.3-5.2-21.1-33.5-33 150.1H199.3z" fill="#fff"/><path d="M216.6 10.3s50.7 0 84.7.1 29.2 32 29.2 32l-21.6 43.3-.5 18.9c40.6 9.9 2.2 31 2.2 31l.5 35.8 12.3 8.1c25.8 22.5 81.4 32.2 81.4 32.2 28.8 19.7 99.2 127.8 99.2 127.8-89.2 64.3-96.7 100.8-96.7 100.8L383 401.6l-33.9 154.1H201.3l-72.8-284.8 68.4-70.8c-5.9-15.2 8.2-22 8.2-22v-15.9c-17.4-16.3 2.7-28.1 2.7-28.1-28-14.9 0-29.6 0-29.6V85.3l-20.5-43c-2-27.9 29.3-32 29.3-32m-.3-5h-.3c-.4 0-8.9 1.2-17.3 6.2-11.7 7-17.3 17.7-16.4 31.2l.1.9.4.9 20 42v15.1c-4.4 2.9-12.4 9.3-12.5 18.1 0 5.5 3 10.5 9 14.9-2.8 2.9-5.6 7.1-6.2 12.3-.7 6 1.7 11.8 7 17.4v11c-5.6 3.9-11.9 11.9-8.9 23.5l-66.3 68.7-1.9 2 .7 2.7L196.5 557l1 3.8H353.2l.9-3.9 31.3-142.2 17.8 28.4L410 454l2.3-12.5c.1-.6 2.5-9.4 14.8-25.4 11.7-15.2 35.1-40.1 79.9-72.3l3.9-2.8-2.6-4c-2.9-4.4-71.3-109.1-100.6-129.2l-.9-.6-1.1-.2c-.5-.1-54.5-9.8-78.9-31.1l-.3-.2-.3-.2-10.1-6.6-.4-30.3c5.9-3.7 17.7-12.4 16.3-22.5-.9-6.8-6.9-11.7-18.4-15.1l.3-13.9L335 44.6l.4-.7.1-.8c.1-.7 2.3-16.1-7.3-27.2-6-7-15.1-10.5-26.9-10.6-33.6-.1-84.2-.1-84.7-.1l-.3.1z"/><path class="st8" d="M128.5 270.9l72.8 284.8h20.8l-25.2-284.8z"/><path class="st9" d="M323.4 555.7H222.1l-25.2-284.8H309s-7.4 17.7-7.6 28c23.6 24.2 35 36.9 35 36.9l-13 219.9z"/><path class="st8" d="M323.4 555.7h25.7L383 401.6s-29.8-44.8-46.7-65.7l-12.9 219.8z"/><path class="st10" d="M196.9 270.9l29.8-70.9h-29.8l-68.4 70.9z"/><path class="st11" d="M196.9 270.9H309s15.7-36 16-70.9h-98.2l-29.9 70.9z"/><path class="st8" d="M205 178h111.6s9.2 8.3 8.3 21.9H196.8c.1.1-7.6-16.5 8.2-21.9zM310.6 135.6L207.7 134s-30-12.2 0-29.6l100.7.1s42 7.2 2.2 31.1z"/><path class="st12" d="M207.7 85.3h101.2l-.5 19.2-100.7-.1z"/><path class="st8" d="M330.5 42.3H310l-6.9 43h5.8z"/><path class="st9" d="M310 42.3H207.7l8.9 43h86.5z"/><path class="st8" d="M207.7 42.3h-20.4l20.4 43h8.9z"/><path class="st10" d="M223.6 10.3l-15.9 32.1h-20.5s-5.8-26.4 29.4-32.1h7z"/><path class="st11" d="M223.6 10.3l77.7.1 8.7 31.9H207.7z"/><path class="st10" d="M310 42.3h20.5s5.6-31.9-29.2-32l8.7 32z"/><path class="st12" d="M205 178v-15.9l2.7-28.1 102.9 1.6.5 35.8 5.5 6.6z"/><linearGradient id="SVGID_1_" gradientUnits="userSpaceOnUse" x1="197.527" y1="156.038" x2="316.622" y2="156.038"><stop offset="0" stop-color="#9a5d15"/><stop offset=".11" stop-color="#9b5d16"/><stop offset=".587" stop-color="#9d5e16"/></linearGradient><path d="M316.6 178s-53.2-3-111.6-15.9c0 0-18.6-14.9 2.7-28.1 0 0 44.5 29.6 103.4 37.4l5.5 6.6z" fill="url(#SVGID_1_)"/><g><path d="M415.4 247.5c-1 .8-2.3 1.7-4.1 2.6-2.3 1.3-3.7 2.1-4.2 2.3-1.5 1-5.7 4-12.6 9.1-6.9 5.1-10.7 7.8-11.4 8.3-4.2 3.3-7.1 6.2-8.5 8.8-1.8.1-3.1-.4-3.8-1.4-.8-1.1-1.1-2.4-.9-3.8.2-1.4.7-2.6 1.7-3.5-3.5-.8-6-2.4-7.6-4.7-2.4-3.5-3.2-7-2.2-10.5.8-3.3 2.9-6.2 6.2-8.8 3.9-3 8.4-5.3 13.6-6.9 6.6-1.9 11.1-1.1 13.6 2.4 1.5 2.1 2.1 4.9 1.9 8.5 2.2-1.4 7.6-5.6 16.1-12.5.8-.6 1.6-.3 2.5 1 1.1 1.5 1.6 3.1 1.7 4.8 0 1.7-.6 3.1-2 4.3zm-28.2 9.8c1.5-1.2 2.6-2.6 3.4-4.3.9-2.1.8-3.9-.2-5.4-1.5-2.1-4.6-2.2-9.3-.2-3.4 1.4-6.5 3.2-9.2 5.3-4.1 3.2-5.3 6-3.5 8.6 1.9 2.7 5 3.2 9.5 1.6 3-1.2 6.1-3 9.3-5.6zM413.6 284c-.3.3-.8.6-1.6 1.1-2 .1-3.4-.4-4.2-1.5-.6-.9-.7-2.1-.2-3.6 1.9-1.7 2.4-3.3 1.4-4.7-.6-.9-3.4-.2-8.5 2-2.3.9-5 2.7-8.3 5.3-3.1 2.5-4.9 4.1-5.4 4.9-.6 1-1 1.6-1.4 1.9-.8.6-1.6.7-2.6.3-1-.4-1.8-1-2.4-2-1.8-2.6-1.6-4.7.6-6.4.2-.2.6-.3 1.1-.5.5-.2.8-.3 1-.5 2.3-1.7 5.5-4.5 9.8-8.2 4.3-3.8 7.5-6.6 9.7-8.4 2-1.6 3.9-1.1 5.7 1.4 1.1 1.5 1.4 2.9.9 4.2 2.3.2 4 1.1 5.2 2.8.8 1.1 1.3 2.4 1.4 4 .1 1 0 2.4-.5 4.4-.4 1.8-1 3-1.7 3.5zM424.8 293.7c-.8.7-2.1 1.4-3.8 2.3-1.7.9-3 1.6-3.8 2.3-4.5 3.8-9.1 7.5-13.7 11.2-.8.7-2 2-3.4 4-1.5.1-2.6-.3-3.2-1.2-2.1-3.1-1.9-5.8.7-8.3 4.8-4.6 8.6-8 11.2-10.1 4.4-3.6 8.2-6.4 11.4-8.5.2-.2.4-.4.7-.6.8-.7 1.7-.3 2.6.9.8 1.1 1.4 2.5 1.8 4 .6 1.9.5 3.2-.5 4zm9.7-7.3c-1 .8-2 1.2-3.1 1-1.1-.2-2-.7-2.8-1.8-.9-1.2-1.3-2.6-1.2-4.3 0-1.7.6-3 1.8-4 1-.8 2-1.1 3.2-.9 1.1.2 2.1.8 2.8 1.9.9 1.2 1.3 2.6 1.2 4.2 0 1.6-.7 2.9-1.9 3.9zM420.5 343.4c-1.5.2-2.7-.2-3.4-1.2-.6-.8-1.1-2.5-1.5-5 .3-.2.5-.4.8-.7 1-.8 2.4-2 4.4-3.6 1.9-1.6 3.3-2.8 4.2-3.5 9.5-8.2 13.1-13.9 11-16.6-.6-.8-1.9-1.2-3.9-1.1-6.1.1-11.9 2.4-17.3 6.8-.8.6-1.8 1.7-3 3.2-1.3 1.5-2.3 2.6-3 3.2-.6.5-1.3.6-2.2.3-.8-.3-1.5-.8-2-1.5-2-2.9-1.3-5.6 2-8.4 4.6-3.8 9.3-7.6 13.9-11.5.4-.3.9-.7 1.7-1.2.8-.5 1.3-.9 1.7-1.2.5-.4 1.2-1.2 2.1-2.2.9-1 1.6-1.7 2.1-2.2.7-.6 1.7-.8 2.9-.5 1.3.3 2.1.8 2.6 1.4.7 1 .9 2.5.6 4.5-.9.7-1.9 1.4-2.8 2.1 3.8-.6 6.6.3 8.5 2.7 1.2 1.5 1.9 3.6 2.1 6.3.2 2.6 0 4.9-.7 6.9-2 4.8-5.7 9.7-11.2 14.5-3.2 3-6.4 5.8-9.6 8.5zM440.8 375.4c-2.5-.4-4.1-1.1-4.9-2-1-1.2-1.1-4.3-.2-9.1.5-3.4 1.1-6.8 1.8-10.1.4-2 .8-5 1.3-8.9-.1 0-.2 0-.3-.1-1.9 1.8-3.9 3.6-5.8 5.3-.4.3-.8.9-1.2 1.8-.5.9-.9 1.5-1.3 1.9-.6.6-1.4.7-2.4.5-1-.2-1.7-.7-2.2-1.4-.9-1.2-1.2-2.5-1-3.9.2-1.4.8-2.6 2-3.6l8.7-7.8c.5-.5 1.4-1.1 2.6-2 1.2-.8 2-1.5 2.6-2 5.9-5.4 11.8-10.9 17.7-16.4 2.7-2.5 4.7-4.6 6-6.5.6-.8 1.1-1.4 1.5-1.8.8-.8 1.9-1 3.4-.7 1.3.2 2.2.7 2.9 1.5.5.6.8 1.4.8 2.6.1 1.1-.2 2-.8 2.6-.2.2-.9.6-2.1 1.4-1.3.8-3 2.2-5.1 4.2-.7.7-6.5 6.2-17.6 16.4.3 0 4.3.3 11.9.4 6.3 0 9.7 0 10.2.6 1.7 1.9 1.2 4.3-1.7 7.1-.2.2-.4.4-.6.7-2.5-.5-6-.8-10.7-1.2-5.8-.6-9.2-.5-10.1.4-.1.1-.6 2.5-1.4 7.3-.8 4.5-1.4 7.4-1.5 8.5-.8 5.1-.8 9.3 0 12.4-1.1.5-1.8 1.2-2.5 1.9zM363.2 346.9c-2-1.2-3.3-2.2-3.9-3.1-.4-.7-.8-1.9-1-3.6.7-.4 1.9-1.2 3.6-2.3 1.5-1 2.7-1.8 3.6-2.3 11.7-7.7 16.9-13.4 15.4-15.5-1.1-1.6-3.8-1.6-8-.1-3.1 1.1-5.7 2.4-7.9 3.8-2 1.4-4 2.7-6.1 4-.3.2-.7.6-1.1 1.2-.4.6-.8 1-1.1 1.2-.7.4-1.6.4-2.7-.1s-1.9-1.2-2.4-2c-.6-.9-.7-2-.6-3.3.2-1.3.6-2.2 1.3-2.6 4.1-2.5 8.1-5.2 12.2-7.9 5-3.4 7-5.8 6.2-7.1-.1-.2-.8-.3-2.1-.4-6.6-.6-12.3.7-17.1 3.7-.7.4-1.6 1.2-2.8 2.2-1.2 1-2.1 1.8-2.8 2.2-.9.5-1.8.6-2.8.3-1-.3-1.8-.9-2.4-2-.8-1.2-1-2.3-.8-3.4.1-.4 1-1.3 2.5-2.7 1.4-1.3 2.4-2.1 3-2.5 4.7-2.9 9.5-6.1 14.3-9.4 1.1-.7 2.7-1.4 4.8-2.1 2.6-.8 4.2-.8 4.8.1.7 1 .9 2.1.8 3.4-.1 1.3-.7 2.2-1.6 2.7 3.1-.1 5.4 1 6.9 3.2 1.9 2.8 1.8 6.3-.4 10.5 2.6-.5 4.6-.7 5.8-.5 2.1.3 3.8 1.3 5 3.1 1.2 1.8 1.6 4.3 1.2 7.5-.8 5.4-4.7 10.9-11.9 15.9-4 2.8-8 5.4-11.9 7.9zM388.7 373.4c-2.2 1.6-5.1 1.1-8.6-1.5-2.7-2-5.1-4.6-7-7.6-5.1-8-3.8-14.3 3.9-19.6 3.2-2.2 7.3-3.9 12.4-5 6.2-1.5 10.4-.9 12.4 2.1 1.8 2.6 2.7 6.3 2.7 11.1s-1.3 8.1-3.6 10c-2.9 2.3-6.3 2.6-10 1-3.3-1.4-6.1-4-8.5-7.6-.5-.7-.8-2.1-1.1-4.2-4.1 3.2-5.2 6-3.5 8.6 1.5 2.2 3.5 4.1 6 5.4 2.5 1.4 4 2.3 4.4 2.9 1.4 2.1 1.6 3.6.5 4.4zm7.1-17.5c1.1-.8 1.9-2 2.4-3.5s.4-2.8-.4-4c-1.1-1.6-2.6-2.3-4.5-2.2-1.6.1-3.2.7-4.7 1.8-.8.6-1.3 1.4-1.4 2.5-.1 1 .2 2 .9 3 2.5 3.7 5 4.5 7.7 2.4z"/></g></g></svg>