<svg xmlns="http://www.w3.org/2000/svg" viewBox="0 0 496.54 561.16"><defs><linearGradient id="a" x1="262.1" y1="201.41" x2="262.1" y2="354.37" gradientUnits="userSpaceOnUse"><stop offset="0" stop-color="#936037"/><stop offset="1" stop-color="#6e4827"/></linearGradient><linearGradient id="b" x1="375.38" y1="180.96" x2="411.9" y2="244.22" gradientUnits="userSpaceOnUse"><stop offset="0" stop-color="#80ccea"/><stop offset=".24" stop-color="#7ec8e6"/><stop offset=".51" stop-color="#77bdd8"/><stop offset=".79" stop-color="#6babc3"/><stop offset="1" stop-color="#6098ad"/></linearGradient><linearGradient id="c" x1="327.93" y1="160.81" x2="362.34" y2="220.42" gradientUnits="userSpaceOnUse"><stop offset="0" stop-color="#80ccea"/><stop offset=".19" stop-color="#7cc9e7"/><stop offset=".39" stop-color="#6fc1df"/><stop offset=".59" stop-color="#59b3d1"/><stop offset=".8" stop-color="#3ba0be"/><stop offset="1" stop-color="#1889a8"/></linearGradient><linearGradient id="d" x1="193.38" y1="153.93" x2="193.38" y2="230.21" gradientUnits="userSpaceOnUse"><stop offset=".36" stop-color="#80ccea"/><stop offset=".46" stop-color="#7bc9e8"/><stop offset=".59" stop-color="#6bc2e0"/><stop offset=".74" stop-color="#52b5d5"/><stop offset=".89" stop-color="#2ea3c4"/><stop offset="1" stop-color="#0f94b6"/></linearGradient><linearGradient id="e" x1="257.27" y1="153.51" x2="295.84" y2="220.3" gradientUnits="userSpaceOnUse"><stop offset="0" stop-color="#80ccea"/><stop offset=".15" stop-color="#7bc9e7"/><stop offset=".34" stop-color="#6cc1e0"/><stop offset=".54" stop-color="#54b4d3"/><stop offset=".75" stop-color="#32a2c1"/><stop offset=".97" stop-color="#088aab"/><stop offset="1" stop-color="#0086a7"/></linearGradient><linearGradient id="f" x1="299.28" y1="16.42" x2="299.28" y2="113.96" gradientUnits="userSpaceOnUse"><stop offset="0" stop-color="#80ccea"/><stop offset=".14" stop-color="#76c7e5"/><stop offset=".39" stop-color="#5cb8d7"/><stop offset=".7" stop-color="#31a1c1"/><stop offset="1" stop-color="#0188a8"/></linearGradient><linearGradient id="g" x1="319.1" y1="75.39" x2="319.1" y2="153.63" gradientUnits="userSpaceOnUse"><stop offset="0" stop-color="#80ccea"/><stop offset=".16" stop-color="#7bc9e7"/><stop offset=".36" stop-color="#6cc0df"/><stop offset=".58" stop-color="#54b2d0"/><stop offset=".8" stop-color="#329ebd"/><stop offset="1" stop-color="#0e89a8"/></linearGradient></defs><path d="M490.7 275.1c-5.88-29.85-44.5-51.1-44.5-51.1l-184.1 2.27s-98.56-36.1-161.3-21.37c-23.66 5.56-61.41 40.31-67.3 70.16s21 27 21 27L87.56 342l139.68 12.38 34.86-52.28 34.9 52.27L436.65 342l33.05-39.9s26.89 2.9 21-27z" fill="url(#a)"/><path fill="#a9a08f" d="M469.7 302.1l-32.07 20.81-60.52 233.25h13.29l79.3-254.06z"/><path fill="#b4ab99" d="M377.11 556.16h-29.92l52.43-233.25 32.84-20.81 5.17 20.81-60.52 233.25z"/><path fill="#bcb29f" d="M347.19 556.16h-34.06l43.67-233.25 31.35-20.81 11.47 20.81-52.43 233.25z"/><path fill="#c3b8a4" d="M313.13 556.16h-33.45l19.97-233.25 35.31-20.81 21.84 20.81-43.67 233.25z"/><path fill="#a9a08f" d="M54.51 302.1l32.06 20.81 60.52 233.25h-13.28L54.51 302.1z"/><path fill="#b4ab99" d="M147.09 556.16h29.92l-52.43-233.25-32.84-20.81-5.17 20.81 60.52 233.25z"/><path fill="#bcb29f" d="M177.01 556.16h34.06L167.4 322.91l-31.35-20.81-11.47 20.81 52.43 233.25z"/><path fill="#c3b8a4" d="M211.07 556.16h33.45l-19.97-233.25-35.31-20.81-21.84 20.81 43.67 233.25z"/><path fill="#c9bda9" d="M262.1 302.1l-37.55 20.81 19.97 233.25h35.16l19.97-233.25-37.55-20.81z"/><path d="M446.2 224s16.71-27 0-38.78-53.79-14.14-53.79-14.14l-58 60.62s73.53 20.13 111.79-7.7z" fill="url(#b)"/><path d="M78 213.57c8-5.61 16-9.63 22.8-11.23 62.74-14.72 161.3 24 161.3 24l37.23-1 9.21-50.75C288.59 142.88 272 8 272 8 152.62 75.39 13.23 86.22 13.23 86.22 28.23 97.92 78 213.57 78 213.57z" fill="#fff"/><path d="M419 172.34s16.3-24.08-10.34-28.09-59.66 4.37-59.66 4.37l-83.72 66.3s-4.62 20.52 18.86 23.15 77.5.93 134.86-65.73z" fill="url(#c)"/><path d="M194.26 226.81s-59.51-.74-78.52 2.1c-18.1 2.7-42.4 1.86-43-8.81s17.38-26.75 42.89-23.52 47.58 8.27 73 4.83C283.87 188.52 299 153.93 299 153.93l15.14 31.19z" fill="url(#d)"/><path d="M386.66 143.31s-3.43-50.45-53.49-32.75c-28.43 10-18.7 34.84-46.57 56-37.65 28.54-113.51 18-126.73 57.75-4.83 14.49 37.75 11.49 37.75 11.49s78.56-5.88 109.6-22.41c25.78-13.75 57.04-31.58 79.44-70.08z" fill="url(#e)"/><path d="M315.7 68.79c-16.82-4.64-26.33-28.54-14.36-41.61 11.54-12.62-6.73-15.42-28-1.44 2.87 20.59 7.47 56.39 14.26 88.22l34.24-24.1s10.68-16.44-6.14-21.07z" fill="url(#f)"/><path d="M325.19 77.94s-25.43 15.73-33.57 21.48c-3.91 2.75-7.81 5.57-7.81 5.57 3.6 17.81 11.49 35.1 15.86 48.64 17.81-7.34 54.73-46.79 54.73-46.79-1.63-44.17-29.21-28.9-29.21-28.9z" fill="url(#g)"/><path d="M299.67 153.63C283.91 104.77 272 8 272 8c-10.18 5.74-20.51 11.06-30.88 16 6.33 36.94 26.53 137 58.53 129.59z" fill="#fff"/><path d="M272 8v1.83c0 .32.08.68.14 1.08 0 .14 0 .27.05.43s0 .25.05.37.05.38.07.59.07.47.1.72l.06.5c0 .27.08.56.12.86v.3c0 .34.09.68.13 1l.07.46c0 .34.09.68.13 1v.27q.38 2.82.86 6.35v.09c.05.39.11.79.16 1.2 9.44-6 18.2-8.72 23.92-8.72 6.91 0 9.35 3.94 3.13 10.75-12 13.07-2.46 37 14.36 41.61 6.6 1.82 9 5.46 9.41 9.21l.08-.06a23.42 23.42 0 0 1 10.18-2.55c8 0 18.07 5.34 19 31.45 29.69 1.35 32.23 36.06 32.26 36.46q3.07-.13 6.2-.14a105.86 105.86 0 0 1 15.81 1.09c26.64 4 10.34 28.09 10.34 28.09-.64.75-1.29 1.48-1.93 2.21 10.38 2.14 21.74 5.5 29.12 10.71 16.71 11.78 0 38.78 0 38.78s38.62 21.21 44.5 51.06c4.94 25.06-13.2 27.07-19.16 27.07a20.2 20.2 0 0 1-1.84-.07L390.4 556.16H133.81L54.51 302.1s-.7.07-1.84.07c-6 0-24.11-2-19.17-27.07 3.82-19.38 21.08-40.82 39.19-55-.16-2.57 1.29-6 3.92-9.73-8.13-18.69-49.87-113.6-63.38-124.15 0 0 116.63-9.07 227.91-62.18q7.65-3.64 15.25-7.57l.82-.43q3.09-1.6 6.17-3.26l1.66-.89c2.33-1.27 4.66-2.55 7-3.86m4.06-8l-6.52 3.68c-2.07 1.17-4.33 2.41-6.91 3.81l-1.18.64-.46.25c-2.18 1.17-4.18 2.22-6.1 3.22l-.38.2-.44.23a505.1 505.1 0 0 1-15.1 7.5C182 46.75 123.47 62.08 84.44 70.15c-42.26 8.74-71.31 11.06-71.6 11.08L0 82.23l10.15 7.93c2.32 1.8 10.09 11 32.28 57.24 12.15 25.33 23.88 51.89 28.57 62.49a22.23 22.23 0 0 0-3.09 7.66 139.47 139.47 0 0 0-24.15 25.13c-8 10.78-13.18 21.66-15.12 31.46-2.07 10.54-.69 18.86 4.13 24.72 5.36 6.52 13.49 8 18.11 8.25L129 557.65l1.1 3.51h263.97l1.1-3.51 78.2-250.54c4.62-.27 12.75-1.73 18.11-8.25 4.82-5.86 6.21-14.18 4.13-24.72-2.66-13.5-11.44-26.8-26.08-39.54a139.21 139.21 0 0 0-16.67-12.39 63.86 63.86 0 0 0 4.46-11.91c4.15-16.35-2.19-24.87-8.24-29.13-5.56-3.93-13.53-7.23-23.73-9.84 2.42-4.8 5.45-13.18 2.17-20.65-2.69-6.15-8.78-10-18.1-11.38a112.87 112.87 0 0 0-16.56-1.14h-1.88a59 59 0 0 0-4.84-15c-5.81-11.89-15.08-19-27-20.93-.87-10.63-3.45-18.72-7.68-24.07a19.88 19.88 0 0 0-16.09-7.84 26.79 26.79 0 0 0-7.37 1.15c-1.8-2.93-5.08-5.87-11-7.5-6.92-1.91-12.87-8.27-15.15-16.19-1.92-6.67-.77-13 3.14-17.23 5.65-6.16 5.4-10.73 4.19-13.46-.93-2.12-3.59-5.66-11-5.66-5.7 0-12.73 2-20 5.7v-.55l-.14-1-.06-.46-.12-.92v-.41l-.11-.86v-.5l-.1-.71v-1.39l-.13-1.07v-.18l-.05-.36V7.43L276.08 0z" fill="#1d1d1b"/><path d="M97.18 154.66c.67 3.08-1.14 5.86-5.51 8.27a31 31 0 0 1-11.24 3.6c-10.86 1.35-17.36-3.61-19.14-14.51a36.59 36.59 0 0 1 1.21-15.32c1.88-7 4.85-10.75 8.92-11.23 3.67-.44 7.86.59 12.65 3s7.54 5.27 8.19 8.55c.81 4.08-.51 7.62-4.06 10.6a22.5 22.5 0 0 1-12.2 4.97 13.29 13.29 0 0 1-5-1c1.33 5.88 3.86 8.61 7.49 8.16a17.9 17.9 0 0 0 8.56-3.5c2.62-2 4.33-3 5.16-3.11 3.02-.47 4.65.04 4.97 1.52zm-14.69-15.94a8.16 8.16 0 0 0-2.28-4.22 4.84 4.84 0 0 0-4.21-1.6 5.63 5.63 0 0 0-4.71 3.32 9.58 9.58 0 0 0-.6 5.68 3.86 3.86 0 0 0 1.84 2.73 5.39 5.39 0 0 0 3.59.72c4.95-.62 7.08-2.85 6.37-6.63zm53.51.94c2.09 7.85 3.37 13.44 3.73 16.78.19 1.95-1 3.21-3.5 3.74-3.83.8-6-.57-6.5-4.07a25.11 25.11 0 0 1-10.11 4.26 23.19 23.19 0 0 1-10.8-.59c-4.32-1.26-6.8-3.39-7.45-6.35s1-6 4.72-9.19a21.94 21.94 0 0 1 10.2-5.35q4.26-.79 8.5-1.63l-.54-2.18c-1.5-6.39-4.27-9.16-8.4-8.39-5.18 1-7.31 3.66-6.32 8.17.34 1.52-.42 2.45-2.29 2.77a6.24 6.24 0 0 1-3.88-.83 4.24 4.24 0 0 1-2.49-2.7 10.41 10.41 0 0 1 2.2-9.16 14.15 14.15 0 0 1 8.73-5c12.2-2.22 20.05 4.19 24.2 19.72zm-9.26 5.39c-.31-1.22-1.47-1.63-3.48-1.24-8.38 1.62-12.21 4.13-11.36 7.77.47 2 2.59 2.62 6.34 1.93a12.31 12.31 0 0 0 6.08-3c2.13-1.73 2.93-3.57 2.44-5.46zm31.99-28.99c.47 1.63-1.8 3.47-6.87 5.43.25 1.36 1 4.4 2.4 9.12.57 2 1.16 4 1.75 6a36.11 36.11 0 0 0 2.18 5.2 40.06 40.06 0 0 1 2.2 5.09 3.12 3.12 0 0 1-.81 3 5.3 5.3 0 0 1-2.86 1.92c-1.67.41-3.48-.55-5.38-2.88a15.52 15.52 0 0 1-3-5.51q-2.76-9.63-5.35-19.28c-3.09.27-4.89.37-5.37.35-1.81-.11-2.84-.63-3.07-1.54a2 2 0 0 1 0-.86c1.11-2.62 2.68-4.16 4.73-4.63l.58-.13a3 3 0 0 0 .6 0c1.35-.31 1.59-1.95.75-4.91-.57-2.22-1.14-4.43-1.7-6.65a4.35 4.35 0 0 1-.91-1.62 2.66 2.66 0 0 1 .91-2.48A5.08 5.08 0 0 1 142 100a5.56 5.56 0 0 1 4.17.88 5.66 5.66 0 0 1 2.76 3.34 14 14 0 0 1 .46 4.49 12.37 12.37 0 0 0 .58 4.55l.1.36c5.08-.76 7.93.03 8.66 2.44zm79.27 9.71c-1.57 2-2.93 3.24-4.05 3.67a10.83 10.83 0 0 1-4.25.17l-2-4.79-2-4.8c-6.29-15.48-10.48-22.8-13.12-21.86q-3 1.07-2.12 8.83a39.77 39.77 0 0 0 2.26 10.08c1 2.69 2.08 5.39 3.13 8.08a5.92 5.92 0 0 0 1.18 1.64 6.13 6.13 0 0 1 1.18 1.63 3.13 3.13 0 0 1-.62 3.06 5.64 5.64 0 0 1-2.72 2.19 5.31 5.31 0 0 1-3.83-.39 4.65 4.65 0 0 1-2.74-2.36q-3.12-8.2-6.11-16.44c-2.42-6.66-4.36-9.75-5.92-9.24-.25.09-.59.82-1 2.21-2.48 7.13-2.67 14-.35 20.47a29.87 29.87 0 0 0 1.91 4 33.71 33.71 0 0 1 1.9 3.9 4 4 0 0 1-.14 3.31 4.36 4.36 0 0 1-2.74 2.14 5.15 5.15 0 0 1-4.11-.32 15.3 15.3 0 0 1-2.65-3.82 32.74 32.74 0 0 1-2.15-4.37q-3.34-9.7-6.51-19.44a21.17 21.17 0 0 1-.72-6q0-4.7 1.59-5.18a5.12 5.12 0 0 1 3.76.34 3.86 3.86 0 0 1 2.32 2.71c.83-3.41 2.65-5.56 5.45-6.47 3.47-1.13 7 .18 10.86 3.91a23 23 0 0 1 1.16-6.63 7.54 7.54 0 0 1 4.65-4.53c2.21-.79 4.87-.45 8 1 5.42 2.46 10 8.35 13.93 17.75q3.24 7.78 6.57 15.55zM271.35 103c1.38 2.82.44 6-2.9 9.36a28 28 0 0 1-9.23 6.28c-9.45 4-16.54.83-20.82-9.27a39.24 39.24 0 0 1-2.69-15.12c-.05-7.27 1.69-11.62 5.22-13.1 3.19-1.33 7.2-1.38 12.1-.2s8.08 3.24 9.49 6.24c1.75 3.75 1.44 7.5-1 11.27a20.65 20.65 0 0 1-9.72 7.78 11.3 11.3 0 0 1-4.72.24c2.65 5.35 5.6 7.36 8.76 6a16.4 16.4 0 0 0 6.83-5.51c1.88-2.54 3.16-4 3.88-4.3 2.54-1.14 4.14-1.05 4.8.33zm-17.2-11.78a8.22 8.22 0 0 0-3.09-3.52 4.28 4.28 0 0 0-4.23-.48 5.41 5.41 0 0 0-3.4 4.38 10.28 10.28 0 0 0 .87 5.64 3.75 3.75 0 0 0 2.32 2.19 4.67 4.67 0 0 0 3.41-.2c4.35-1.87 5.69-4.56 4.12-8.04z" fill="#1d1d1b"/></svg>