<svg xmlns="http://www.w3.org/2000/svg" viewBox="0 0 566.9 566.9"><style>.st0{display:none}.st1,.st4,.st5{display:inline;fill:#fff}.st4,.st5{fill:#fee6cb}.st5{fill:#b6dfe9}.st8{fill:#a9a08f}.st9{fill:#b4ab99}.st10{fill:#bcb29f}.st11{fill:#c3b8a4}.st14{fill:#fff}</style><g id="Laag_1" class="st0"><path class="st1" d="M78.6 175.3c-1.4 10-1.1 11.4 3.1 14.7 8.3 6.7 16.3 13.8 22.6 22.6 5 7 11.5 13 16.1 20.2 6.7 10.3 12.3 21.3 18.4 32 2 3.5 2.1 6.5-1.5 9.1-2.3 1.6-4.5 3.3-6.6 5.1-7.7 6.6-12.7 14.9-12.8 25.1-.1 7.5 4.3 13.6 9.1 19.3 2.4 2.9 5.1 5.9 6.3 9.3 3.7 11.4 6.9 22.9 10.2 34.5 2 7.1 3.9 14.3 5.8 21.5 1.7 6.4 3.4 12.8 5.2 19.2 2.1 7.4 4.2 14.9 6.3 22.3 2.1 7.6 4.2 15.1 6.2 22.7s3.9 15.2 5.8 22.9c1.5 5.9 3.1 11.7 4.4 17.6 1.6 7.3 3.1 14.5 4.1 21.9.4 3.2 1.5 4.1 4.5 4.1 31.7-.1 63.5-.2 95.2-.2 32.2 0 64.4.1 96.6.1 2.6 0 5.6.7 7.5-.5 1.6-1 1.9-4.2 2.7-6.4.1-.1.2-.2.2-.4 3.3-10.3 6.5-20.7 9.8-31l6.3-20.1c3-9.7 6.1-19.3 9.1-29 2-6.6 3.6-13.2 5.7-19.7 3-9.3 6.5-18.5 9.6-27.8 3.8-11.6 7.5-23.2 11.2-34.8 2.1-6.8 4.1-13.7 6.3-20.5.2-.8 1-1.9 1.7-2 4.7-.8 7.5-4.2 10.3-7.5 5-5.8 8.3-12.4 6.6-20.3-1.3-5.9-2.6-12.2-5.5-17.4-5.4-9.7-13.6-17.3-22.9-23.4-2.3-1.5-2.7-2.9-1.9-4.7 3.2-7.4 4.1-14.7 1.4-22.7-2.1-6.3-6.9-11.6-13.4-12.7-5.8-1.1-11.5-2.4-17.8-3.8 2-5 1.3-9.7-1.4-14.8-3.3-6.3-8.7-5-14.2-5.4 1.4-10.4-3-18.2-10.9-23.4-8.8-5.7-17.5-.5-26.1 2.6-3-8.6-8.3-13.8-18.5-11.6.9-2.6 1.6-4.3 1.9-6.1.3-1.8.7-3.9 0-5.4-2.5-5.1-6.3-8.9-11.7-11.2-6.6-2.7-13.6-4.5-17.6-11.9-3.4-6.3-7.3-12-6.1-19.5.6-3.9.7-7.9 1.4-11.8.8-3.9-1.8-6.2-4.2-7.4-2-1-5.5-.8-7.7.3-10.1 5.1-19.9 10.9-29.9 16.1-10.9 5.6-21.8 11-32.9 16.2-11.2 5.2-22.4 10.3-33.9 14.9-9.7 3.9-19.8 6.7-29.5 10.6-11.5 4.6-22.6 9.9-34 14.6-6.3 2.6-12.7 5.3-19.3 7-10.5 2.9-21.1 4.7-31.3 6.9z"/><path d="M78.6 175.3c10.2-2.1 20.8-4 31.1-6.7 6.6-1.7 13-4.4 19.3-7 11.4-4.7 22.5-10 34-14.6 9.7-3.9 19.8-6.7 29.5-10.6 11.4-4.6 22.7-9.7 33.9-14.9 11.1-5.2 22-10.6 32.9-16.2 10.1-5.2 19.8-11 29.9-16.1 2.1-1.1 5.7-1.4 7.7-.3 2.4 1.2 5 3.5 4.2 7.4-.8 3.9-.8 7.9-1.4 11.8-1.1 7.6 2.8 13.3 6.1 19.5 4 7.4 10.9 9.2 17.6 11.9 5.5 2.2 9.3 6.1 11.7 11.2.7 1.5.3 3.6 0 5.4-.3 1.8-1.1 3.4-1.9 6.1 10.2-2.1 15.5 3 18.5 11.6 8.6-3.1 17.3-8.3 26.1-2.6 7.9 5.1 12.3 13 10.9 23.4 5.5.3 10.9-.9 14.2 5.4 2.7 5.1 3.3 9.9 1.4 14.8 6.2 1.3 12 2.7 17.8 3.8 6.5 1.2 11.3 6.5 13.4 12.7 2.7 8 1.8 15.2-1.4 22.7-.8 1.8-.4 3.2 1.9 4.7 9.3 6 17.5 13.7 22.9 23.4 2.9 5.2 4.2 11.4 5.5 17.4 1.7 7.8-1.6 14.4-6.6 20.3-2.8 3.3-5.6 6.6-10.3 7.5-.7.1-1.4 1.2-1.7 2-2.1 6.8-4.1 13.7-6.3 20.5-3.7 11.6-7.3 23.2-11.2 34.8-3.1 9.3-6.5 18.5-9.6 27.8-2.1 6.5-3.7 13.2-5.7 19.7-3 9.7-6.1 19.3-9.1 29l-6.3 20.1c-3.2 10.3-6.5 20.7-9.8 31 0 .1-.2.2-.2.4-.9 2.2-1.1 5.4-2.7 6.4-1.9 1.2-5 .5-7.5.5-32.2 0-64.4-.1-96.6-.1-31.7 0-63.5.1-95.2.2-3 0-4.1-.9-4.5-4.1-1-7.3-2.5-14.6-4.1-21.9-1.3-5.9-2.9-11.8-4.4-17.6-1.9-7.6-3.8-15.3-5.8-22.9-2-7.6-4.1-15.2-6.2-22.7-2.1-7.4-4.2-14.9-6.3-22.3-1.8-6.4-3.5-12.8-5.2-19.2-1.9-7.2-3.8-14.3-5.8-21.5-3.3-11.5-6.4-23.1-10.2-34.5-1.1-3.4-3.9-6.4-6.3-9.3-4.7-5.7-9.2-11.8-9.1-19.3.1-10.2 5.1-18.5 12.8-25.1 2.1-1.8 4.3-3.5 6.6-5.1 3.7-2.5 3.5-5.6 1.5-9.1-6.1-10.7-11.7-21.7-18.4-32-4.7-7.2-11.1-13.2-16.1-20.2-6.3-8.8-14.3-15.9-22.6-22.6-3.9-3.6-4.2-4.9-2.9-14.9zM314.3 213C301.4 175.9 295 137.6 291 98.5c-9.4 4.9-18 9.5-26.8 13.8-18.5 9.1-37 18.1-55.6 27-5.5 2.7-11.2 5-17 7.1-8.4 3-17 5.4-25.2 8.6-14.5 5.6-28.8 11.7-43.1 17.6-2.2.9-4.2 2.5-6.4 3-8.8 2-17.6 3.6-27.1 5.5.6 1.4.8 2.5 1.5 3.2 2.6 2.9 5.5 5.7 8.1 8.6 6.2 7.2 12.8 14.1 18.4 21.7 6.8 9.4 12.4 19.6 19.1 29 8 11.2 13.1 23.9 18.7 36.3.9 1.9 1.4 2.6 3.3 1.3 4.3-3.1 8.5-6.4 13.1-9.1 12.4-7.4 26.2-10.8 40.4-12 9.4-.8 18.9-.9 28-3.8 5.5-1.8 11.6-3 16.2-6.2 11-7.7 21.6-16 31.6-24.9 7.3-6.5 15.6-9.9 26.1-12.2zm104 115.2c.4.4.9.8 1.3 1.2 5.1-3.4 10.6-6.3 15.1-10.2 3.2-2.8 6.9-3.4 10.5-4.2 3.4-.7 8.3-3.9 8.8-7.5 1-7.1.3-14.1-3.1-20.5-5.2-9.9-13.9-15.8-23.6-20.7-2.2-1.1-3.1-.7-4.6.8-9.7 9.7-19.8 18.8-33.3 23-8 2.5-15.9 5.4-23.9 7.8-3.7 1.1-7.7 1.4-11.6 2-7.5 1.1-15.1 2.5-22.7 3-7.8.6-15.7.4-23.6.2-4.3-.1-8.6-1.2-13-1.5-3-.2-6-.3-9 .1-6.1.8-12.1 1.9-18.1 3-3.5.6-7.4.8-10.5 2.3-9.2 4.6-19.2 6-29 7.6-7.7 1.2-15.7.4-23.5 0-3.3-.1-6.9-.7-9.8-2.1-9.2-4.4-18.2-9.4-27.3-14-2.4-1.2-5.2-2.6-7.7-2.5-7.8.3-8.8-.1-11.1-8-.2-.5-.2-1.1-.4-1.6-2.1-5-2.2-5-6.9-2.3-6.3 3.5-11.1 8.6-13.2 15.5-2.2 7.2 3.6 20.1 10.3 23.9 5.3 3 10.6 5.7 16.1 8.3 1.8.8 4.1 1 4.4-2.1.2-1.9-.3-3.9.3-5.6.8-2.4 1.9-5.1 3.7-6.6 1-.8 4.1.4 5.8 1.4 4.1 2.5 7.8 5.6 11.9 8.2 8.8 5.8 8.7 5.6 14.3-3.6 1.2-2 3.3-4.1 5.4-4.5 2.4-.5 5.3.5 7.7 1.5 7.7 3.4 15.1 7.4 22.8 10.7 1.5.7 4.2.4 5.6-.5 3.4-2.2 6.5-4.9 9.3-7.8 2.9-2.9 5.6-3.8 9.3-1.3 2.8 1.9 5.9 3.7 9.2 4.7 3.4 1 6.8 4.2 10.8 1.7 4.5-2.8 9-5.5 13.2-8.5 2.6-1.9 5.1-1.9 7.6-.3 2.9 1.9 5.5 4.1 8.3 6.1 4 2.8 8.2 2.7 12.4.7 7.8-3.9 15.5-8.2 23.4-11.8 1.8-.8 5.1-.1 6.8 1.2 2.1 1.6 3.5 4.3 4.5 6.9 1.3 3.1 1.9 6.5 2.9 10.3 8.3-4.3 16.1-8.4 24-12.3 1.6-.8 4.2-1.8 5.2-1 1.7 1.3 2.8 3.7 3.4 5.8.7 2.2.5 4.7.8 7.4 9.6-4.4 18.1-9.4 24-17.9 1.8-2.7 5.2-2.2 6.8.6 1.6 2.9 2.3 5.7.4 8.9-.5.8-.2 2.6-.4 4.1zm-147.2 31.9h-.5c0-5.4-.3-10.9.1-16.3.3-4.1-2.2-6.2-5-8-2.3-1.5-5.2-2.2-7.6-3.6-4.4-2.6-8.3-2.4-11.7 1.7-.6.7-1.7 1-2.4 1.7-4.1 3.7-8.6 7.3-7.7 13.8.5 4.2 1.1 8.5 1.6 12.7 1.2 11.1 2.3 22.2 3.4 33.4 1.3 12.9 2.4 25.7 3.7 38.6.6 6.1 1.1 12.2 2 18.2 1.5 10.8 3.3 21.6 4.6 32.4.9 7.5 1.4 15 1.9 22.5.2 2.5 1.1 3.6 3.7 3.5 4-.1 8 .2 12-.2 1.1-.1 2.8-1.8 3-2.9.8-6.5 1.7-13.1 1.7-19.6-.1-14.3-1-28.5-1.2-42.8-.8-28.3-1.1-56.7-1.6-85.1zm47.4 150.4c.6-2.4 1.3-4.5 1.7-6.7 1.3-6.6 2.5-13.2 3.9-19.8 2.1-10.1 4.4-20.1 6.4-30.2 1.4-6.7 2.4-13.6 3.7-20.3 1.6-8.4 3.3-16.8 5-25.2 1.3-6.7 2.5-13.3 3.8-20 1.5-7.7 3.1-15.5 4.5-23.2 1.2-6.7 2.3-13.4 3.1-20.2.2-1.8-.5-3.9-1.3-5.6-.9-1.8-2.9-3.2-3.7-5-1.3-2.8-1.8-5.9-3.1-8.7-.4-.8-2.3-1.7-3-1.4-4.5 1.9-8.8 4.6-13.4 6.3-7.9 2.9-10.3 9.2-11 16.6-1.2 12.2-2.2 24.4-3.2 36.6-1.3 15.7-2.5 31.4-3.6 47.2-.9 11.6-1.6 23.3-2.4 35-.8 11.7-1.7 23.3-2.5 34.9-.2 3.2 0 6.4 0 9.9 5.2-.2 10-.2 15.1-.2zm-73.6 0c0-2.1.1-3.8 0-5.5-.6-14.5-1.2-29-2-43.4-.4-6.4-1.1-12.8-1.9-19.1-1.5-13.1-3.2-26.2-4.8-39.2-.4-3.6-1.1-7.2-1.5-10.9-1.3-12-2.4-24.1-3.8-36.1-.5-4.2-.7-8.7-2.1-12.6-1.2-3.1-3.7-6.1-6.4-7.9-4.4-2.9-9.4-4.8-14.2-7-4.4-2-11.7 1.9-11.6 6.8.2 9.2 1.2 18.4 2.5 27.5.9 6.7 3 13.2 4.3 19.9 1.4 7 2.4 14.2 3.8 21.2 1.5 7.4 3.3 14.8 4.8 22.2 1.4 7 2.5 14.1 4 21.1 1.9 9 4.3 17.9 6.1 26.8 2.4 12 4.5 24 6.7 36.1 5.9.1 10.7.1 16.1.1zm47.6-183.6c-3.3 1.9-6.1 3.4-8.8 5.1-3.6 2.4-7.8 4.3-7.8 9.7.1 13.9-.2 27.7.2 41.6.8 27.8 2 55.6 2.8 83.4.4 12 .1 24 .2 36v8c4.6 0 8.5-.2 12.5.1 2.8.2 3.9-1.3 4.2-3.7.8-6.1 1.5-12.1 2.1-18.2 1.1-12.2 2.2-24.3 3.2-36.5 1.2-13.2 2.5-26.4 3.4-39.6 1-14.2 1.5-28.5 2.2-42.8l1.5-26.4c.2-4.5-1.8-7.8-5.7-10.1-3.4-2-6.7-4.4-10-6.6zm86.2 2.9c-5.6 2.8-10.2 5.2-14.8 7.6-3.3 1.7-5.6 4.1-5.9 8.2-.2 3.3-1.2 6.6-1.9 9.9-1.6 7.6-3.3 15.1-4.8 22.7-1.4 7-2.5 14.1-3.9 21.1-1.5 7.3-3.1 14.6-4.6 21.9-1.4 6.9-2.6 13.7-4 20.6-1.6 8.2-3.1 16.3-4.7 24.5-1.6 8.1-3.4 16.1-4.7 24.2-1.1 6.5-1.7 13.1-2.5 19.9h17.3c.2-1.2.2-2.1.4-2.9 2.3-8.5 4.7-17 7-25.6 1.3-5 2.4-10.2 3.6-15.2 1.5-5.9 3.2-11.8 4.6-17.8 1.5-6.3 2.6-12.6 4.1-18.9 2-8.1 4.3-16 6.2-24.1 1.9-8.3 3.6-16.7 5.3-25 1.7-8.4 3.5-16.7 5.2-25.1.4-1.9.4-3.9.9-5.7 1.1-3.9 1.4-7.5-1.7-10.7-.8-.9-1.2-2.4-1.3-3.7-.2-1.6.1-3.3.2-5.9zm-210.2 1.4c-.7.3-1.3.6-2 .9-.1 5.6-1 11.2-.3 16.7.9 6.8 3.1 13.3 4.7 20 2 8.3 3.9 16.7 6 25 2.5 9.9 5.1 19.7 7.7 29.5 2.1 7.9 4.1 15.7 6.2 23.6 1.3 4.9 2.8 9.7 4 14.6 1.4 5.9 2.4 11.8 3.9 17.6 2.1 8.1 4.3 16.2 6.8 24.2.8 2.6 2.2 6.1 4.2 6.9 3.1 1.2 6.9.3 10.9.3-.7-4.7-1.5-8.6-1.8-12.5-.3-3.5.4-7.2-.1-10.7-.8-5.6-2.2-11-3.3-16.5-.7-3.6-1.4-7.2-2.2-10.8-1.5-6.6-3.2-13.1-4.5-19.7-1.4-7.2-2.5-14.5-3.8-21.7-1.5-7.7-3.2-15.4-4.8-23.1-.9-4.3-1.4-8.7-2.3-12.9-1.5-7.4-3.2-14.9-4.8-22.3-1.8-7.9-2.3-16.3-10.4-21.1-4.6-2.5-9.3-5.2-14.1-8zm211.3-141.4c-.3-.1-.7-.3-1-.4.1-4.8-3.5-10.2-7.1-10-6.5.3-13.4.8-18.1 5.6-5.1 5.3-9.1 11.6-13.4 17.6-6.6 9-13.2 18-19.6 27.1-4.9 7-13.9 10-17.2 18.9-1.6 4.2-5.9 7.6-9.6 10.7-9.8 8.3-19.7 16.7-30.1 24.3-5.2 3.8-11.5 6.1-17.2 9.2-.6.3-.9 1.2-1.4 1.8.7.4 1.4 1.2 2 1.1 3.1-.6 6.3-1.3 9.3-2.3 7.2-2.5 14.2-5.3 21.4-7.7 7.7-2.6 15.2-4.9 22.3-9.6 13.4-8.9 25.3-19.5 37.6-29.7 13.8-11.5 25.9-24.8 35.4-40.1 2.9-5.1 4.4-11 6.7-16.5zm30.1 139c-2.5 1.6-4.1 2.5-5.5 3.5-3 2.1-5.6 5.2-8.9 6.1-2.9.9-3.4 2.9-4.3 4.6-1.2 2.5-1.5 5.4-2.2 8.1-2 8-3.9 16-5.9 24-1.5 5.8-3.1 11.6-4.5 17.5-1.9 8.1-3.6 16.2-5.5 24.3-2.7 11.5-5.6 22.9-8.3 34.4-.8 3.4-1.3 6.9-2.1 10.3-1.5 6.4-3 12.7-4.5 19-1.1 4.5-2.3 9-3.1 13.6-1 5.3-1.6 10.7-2.5 16.5 3.8 0 7 .7 9.7-.2 2.3-.8 4.8-3 5.8-5.2 2.1-4.6 3.2-9.6 4.6-14.5 2.6-8.9 5-17.9 7.5-26.9 2.2-8 4.4-16 6.5-24 2.5-9.3 4.9-18.7 7.4-28 1.4-5.1 3.1-10.1 4.5-15.3 1.5-5.4 2.7-10.9 4-16.4 1.4-5.7 3-11.4 4.4-17.1 1.4-6.1 2.8-12.3 3.9-18.5.2-.9-.4-2.4-1.1-2.9-3.2-2.2-2.3-5.1-1.5-8 .6-1.2.9-2.5 1.6-4.9zm-6.5-103.6c-3.6-.5-5.8 1.2-8 3.9-5.2 6.4-10.1 13.2-16.2 18.7-8.4 7.6-17.5 14.4-26.6 21.2-7.6 5.6-15.5 10.7-23.4 15.8-3.6 2.3-7.5 4-11.2 6.1-.7.4-1 1.4-1.6 2.1.6.4 1.3 1.1 1.9 1.1 3.7 0 7.5.1 11.2-.3 6.7-.7 13.4-1.6 20.1-2.7 6.3-1 12.9-1.7 18.9-3.7 8.4-2.7 16.6-6.3 24.7-10 9.2-4.1 16.1-11.4 23.4-18 5.7-5.1 9.8-10.9 11-18.7.4-2.9-2.5-10.8-5.2-11.4-6.3-1.6-12.6-2.7-19-4.1zM143.2 335.7c.3 2.7.2 5.3.8 7.6 2 8 4.3 15.9 6.4 23.9 2.1 8.1 3.9 16.3 6.1 24.4 2.4 8.7 5.1 17.3 7.5 26 2.3 8.2 4.2 16.6 6.4 24.8 1.3 4.8 2.8 9.4 4.1 14.2 2.1 7.3 4 14.5 6 21.8 1.3 4.8 2.7 9.6 4 14.4 1.4 5.1 2.5 10.3 4.1 15.4.3 1 1.9 2.1 3 2.3 2.1.4 4.2.1 6.7.1-.7-3.1-1.2-5.6-1.8-8.1-.8-3.4-1.4-6.9-2.3-10.3-2-8-4.3-16-6.1-24-1.1-4.7-1.1-9.5-2.2-14.2-2.1-9.3-4.4-18.5-6.8-27.8-2.7-10.4-5.5-20.8-8.3-31.1-3.5-13.1-6.8-26.2-10.8-39.1-2.4-8.7-4.5-18.1-16.8-20.3zm292.5-3.1c-.3-.3-.6-.7-1-1-3.4 1.7-6.8 3.7-10.4 5-2.7 1-4.1 2.3-4.7 5.2-.9 4.2-2.4 8.3-3.6 12.5-3.3 11.3-6.6 22.7-9.7 34.1-3.1 11.5-6 23.1-9.1 34.6-3.2 11.9-6.6 23.7-9.8 35.6-4 15.1-8 30.3-11.6 45.5-.4 1.8 1.4 4.2 2.2 6.3 1.3-1.4 3.2-2.5 3.8-4.1 1.9-5 3.2-10.1 4.8-15.2 3-9.2 6.2-18.3 9.1-27.4 2.8-8.5 5.3-17 8-25.5 2.4-7.5 5-14.9 7.3-22.5 3.2-10.5 6-21 9.1-31.5 4.3-14.1 8.8-28.2 13.1-42.3 1.1-3.1 1.8-6.2 2.5-9.3zm-151.9-75.4c-1.6-.5-1.9-.7-2.1-.6-8.2 3.7-16.3 7.9-24.6 11.1-4.1 1.6-8.7 2.7-13.3.5-1.9-.9-4.3-1.3-6.3-1-7.5.8-15 2.1-22.5 3.1-5.9.8-11.9.8-17.7 2.1-4.3.9-8.4 3.1-12.5 5-1.8.8-2.2 2.2 0 3.3 4.6 2.3 8.9 5 13.7 6.6 6 2.1 11.9 7.6 18.8 2.1.2-.1.6-.1.8-.1 4.9-.6 9.8-1.4 14.7-1.6 8.4-.4 15.9-3.4 22.6-8 7.3-4.9 14.1-10.8 21-16.3 2.2-1.9 4.5-3.8 7.4-6.2zm113-52c-7.8-.9-12 2.3-15.4 7.2-3.7 5.3-7 10.9-11.3 15.5-8 8.7-16.5 17-25.1 25.1-6.9 6.5-14.2 12.5-21.5 18.5-5 4.1-10.2 7.9-15.3 11.8 3.9-.7 7.6-1.7 10.7-3.7 13.5-8.7 27.1-17.1 40-26.7 8-6 15-13.6 21.8-21 4.3-4.7 7.8-10.2 11.2-15.6 1.9-3.2 3.1-7 4.9-11.1zm-74.2 6.2c2-2.6 3.3-4.1 4.4-5.9 2-3.3 3.8-6.8 5.7-10.2 2.7-5 5.8-9.8 8.1-14.9 2.6-5.8.5-8.4-5.6-8.2-7 .3-12.8 3.4-18.3 7.3-3.2 2.3-4.1 4.2-2.1 7.8 1.3 2.2 1.4 5.1 2.3 7.6 1.6 5.2 3.4 10.3 5.5 16.5zm-92.5 95c0-.3 0-.7-.1-1-5.9-.8-11.8-1.4-17.6-2.6-3.3-.6-6.5-2-9.7-3.3-7.2-3-14.5-5.9-21.6-9.2-2.1-.9-3.7-2.7-5.6-4.1-2.4-1.7-6.8-1-7.8 1.5-1.3 3.1 1.5 3.8 3.3 4.8 3.7 2.1 7.6 4.1 11.3 6.2 7.9 4.4 16 7.9 25.3 7.6 3.1-.1 6.3 0 9.4 0 4.4.1 8.7.1 13.1.1zm80.1-135.6c7.5-1.9 9.9-8.1 13.3-13 1.5-2.2 2.2-6.6-1.5-8.2-5.3-2.2-11.1-3.6-16.6-5.3l-1.2 1.2c2 8.4 4 16.7 6 25.3zm-29.3 72.8c7.6 0 28.5-14.4 29-20.1-12.2 3.5-19.3 13.7-29 20.1z"/><path class="st1" d="M314.3 213c-10.5 2.3-18.8 5.7-26.2 12.4-10 9-20.6 17.2-31.6 24.9-4.6 3.2-10.7 4.5-16.2 6.2-9.1 2.9-18.6 3-28 3.8-14.2 1.2-28 4.6-40.4 12-4.6 2.7-8.8 6-13.1 9.1-1.9 1.3-2.4.6-3.3-1.3-5.6-12.4-10.7-25-18.7-36.3-6.7-9.4-12.3-19.7-19.1-29-5.6-7.7-12.2-14.6-18.4-21.7-2.6-3-5.5-5.7-8.1-8.6-.6-.7-.8-1.8-1.5-3.2 9.5-1.9 18.3-3.5 27.1-5.5 2.3-.5 4.2-2.1 6.4-3 14.4-5.9 28.7-12 43.1-17.6 8.3-3.2 16.9-5.6 25.2-8.6 5.8-2.1 11.5-4.5 17-7.1 18.6-8.9 37.1-17.9 55.6-27 8.8-4.3 17.4-8.9 26.8-13.8 4.1 38.9 10.5 77.2 23.4 114.3z"/><path d="M418.3 328.2c.2-1.5-.1-3.3.6-4.5 1.8-3.2 1.2-6-.4-8.9-1.6-2.8-5-3.3-6.8-.6-5.9 8.6-14.4 13.5-24 17.9-.3-2.7-.1-5.2-.8-7.4-.7-2.1-1.8-4.5-3.4-5.8-.9-.7-3.6.2-5.2 1-7.9 3.9-15.7 8-24 12.3-1-3.8-1.6-7.2-2.9-10.3-1-2.5-2.5-5.3-4.5-6.9-1.6-1.3-5-2-6.8-1.2-8 3.6-15.6 7.9-23.4 11.8-4.2 2.1-8.4 2.2-12.4-.7-2.8-2-5.5-4.2-8.3-6.1-2.5-1.6-5-1.6-7.6.3-4.3 3-8.8 5.8-13.2 8.5-4 2.5-7.3-.7-10.8-1.7-3.2-1-6.3-2.8-9.2-4.7-3.7-2.5-6.4-1.6-9.3 1.3-2.9 2.8-6 5.5-9.3 7.8-1.4.9-4.1 1.2-5.6.5-7.7-3.4-15.1-7.3-22.8-10.7-2.4-1.1-5.3-2-7.7-1.5-2 .4-4.2 2.6-5.4 4.5-5.5 9.2-5.5 9.4-14.3 3.6-4-2.6-7.8-5.7-11.9-8.2-1.7-1-4.8-2.2-5.8-1.4-1.8 1.5-2.9 4.2-3.7 6.6-.6 1.7-.1 3.7-.3 5.6-.3 3.1-2.7 2.9-4.4 2.1-5.5-2.6-10.8-5.3-16.1-8.3-6.7-3.8-12.4-16.6-10.3-23.9 2.1-6.9 6.9-11.9 13.2-15.5 4.7-2.6 4.7-2.6 6.9 2.3.2.5.3 1.1.4 1.6 2.3 7.9 3.3 8.3 11.1 8 2.5-.1 5.3 1.3 7.7 2.5 9.2 4.6 18.1 9.6 27.3 14 2.9 1.4 6.5 1.9 9.8 2.1 7.8.3 15.9 1.2 23.5 0 9.8-1.5 19.8-3 29-7.6 3.1-1.6 7-1.7 10.5-2.3 6-1.1 12.1-2.2 18.1-3 2.9-.4 6-.4 9-.1 4.3.3 8.6 1.4 13 1.5 7.9.2 15.8.3 23.6-.2 7.6-.5 15.1-1.9 22.7-3 3.9-.6 7.9-.9 11.6-2 8-2.4 15.9-5.3 23.9-7.8 13.5-4.2 23.6-13.4 33.3-23 1.5-1.5 2.4-1.9 4.6-.8 9.7 4.9 18.4 10.8 23.6 20.7 3.4 6.5 4.1 13.5 3.1 20.5-.5 3.6-5.4 6.8-8.8 7.5-3.6.8-7.2 1.4-10.5 4.2-4.6 4-10 6.9-15.1 10.2-.6 0-1-.4-1.5-.8z" fill="#ca9e67"/><path class="st4" d="M271.1 360.1c.4 28.4.8 56.8 1.3 85.2.3 14.3 1.1 28.5 1.2 42.8.1 6.5-.9 13.1-1.7 19.6-.1 1.1-1.9 2.8-3 2.9-4 .4-8 .1-12 .2-2.5.1-3.5-1-3.7-3.5-.5-7.5-1-15-1.9-22.5-1.3-10.8-3.2-21.6-4.6-32.4-.8-6.1-1.4-12.2-2-18.2-1.3-12.9-2.4-25.7-3.7-38.6-1.1-11.1-2.2-22.3-3.4-33.4-.4-4.2-1-8.5-1.6-12.7-.8-6.5 3.6-10.1 7.7-13.8.7-.7 1.8-1 2.4-1.7 3.4-4.1 7.2-4.3 11.7-1.7 2.4 1.4 5.3 2.1 7.6 3.6 2.8 1.8 5.3 3.8 5 8-.4 5.4-.1 10.9-.1 16.3.5-.1.7-.1.8-.1zM318.5 510.5h-15c0-3.5-.2-6.7 0-9.9.8-11.7 1.7-23.3 2.5-34.9.8-11.7 1.6-23.3 2.4-35 1.2-15.7 2.3-31.4 3.6-47.2 1-12.2 2-24.4 3.2-36.6.7-7.4 3.1-13.7 11-16.6 4.6-1.7 8.9-4.3 13.4-6.3.7-.3 2.6.6 3 1.4 1.2 2.8 1.8 5.9 3.1 8.7.9 1.9 2.8 3.2 3.7 5 .8 1.7 1.5 3.8 1.3 5.6-.8 6.7-1.9 13.5-3.1 20.2-1.4 7.8-3 15.5-4.5 23.2-1.3 6.7-2.5 13.3-3.8 20-1.6 8.4-3.4 16.8-5 25.2-1.3 6.8-2.3 13.6-3.7 20.3-2.1 10.1-4.4 20.1-6.4 30.2-1.4 6.6-2.5 13.2-3.9 19.8-.4 2.4-1.1 4.5-1.8 6.9zM244.9 510.5H229c-2.2-12.1-4.3-24.1-6.7-36.1-1.8-9-4.2-17.9-6.1-26.8-1.5-7-2.6-14.1-4-21.1-1.5-7.4-3.3-14.8-4.8-22.2-1.4-7-2.4-14.2-3.8-21.2-1.3-6.6-3.3-13.2-4.3-19.9-1.3-9.1-2.3-18.3-2.5-27.5-.1-5 7.1-8.8 11.6-6.8 4.8 2.2 9.8 4.1 14.2 7 2.7 1.8 5.2 4.9 6.4 7.9 1.5 3.9 1.7 8.3 2.1 12.6 1.3 12 2.5 24 3.8 36.1.4 3.6 1 7.2 1.5 10.9 1.6 13.1 3.2 26.1 4.8 39.2.7 6.4 1.5 12.7 1.9 19.1.8 14.5 1.4 29 2 43.4-.1 1.6-.2 3.3-.2 5.4zM292.5 326.9c3.3 2.2 6.6 4.6 10.1 6.7 3.9 2.3 6 5.6 5.7 10.1-.4 8.8-1 17.6-1.5 26.4-.7 14.3-1.3 28.5-2.2 42.8-.9 13.2-2.3 26.4-3.4 39.6-1.1 12.2-2.1 24.3-3.2 36.5-.6 6.1-1.3 12.2-2.1 18.2-.3 2.4-1.4 3.8-4.2 3.7-4-.2-7.9-.1-12.5-.1v-8c0-12 .2-24-.2-36-.8-27.8-2-55.6-2.8-83.4-.4-13.8-.1-27.7-.2-41.6 0-5.3 4.2-7.3 7.8-9.7 2.6-1.8 5.4-3.3 8.7-5.2zM378.7 329.8c-.1 2.5-.4 4.2-.2 5.9.1 1.3.5 2.8 1.3 3.7 3 3.3 2.7 6.9 1.7 10.7-.5 1.8-.5 3.8-.9 5.7-1.7 8.4-3.4 16.7-5.2 25.1-1.7 8.4-3.4 16.7-5.3 25-1.9 8.1-4.2 16-6.2 24.1-1.5 6.3-2.7 12.6-4.1 18.9-1.4 6-3.1 11.9-4.6 17.8-1.3 5.1-2.3 10.2-3.6 15.2-2.3 8.6-4.7 17.1-7 25.6-.2.8-.3 1.7-.4 2.9h-17.3c.8-6.8 1.4-13.4 2.5-19.9 1.4-8.1 3.2-16.1 4.7-24.2 1.6-8.1 3.2-16.3 4.7-24.5 1.3-6.9 2.6-13.8 4-20.6 1.5-7.3 3.2-14.6 4.6-21.9 1.4-7 2.5-14.1 3.9-21.1 1.5-7.6 3.2-15.1 4.8-22.7.7-3.3 1.6-6.6 1.9-9.9.3-4.1 2.6-6.5 5.9-8.2 4.6-2.4 9.2-4.7 14.8-7.6zM168.5 331.2c4.7 2.7 9.4 5.5 14.2 8.2 8.1 4.7 8.7 13.2 10.4 21.1 1.7 7.4 3.3 14.8 4.8 22.3.9 4.3 1.4 8.7 2.3 12.9 1.5 7.7 3.3 15.4 4.8 23.1 1.4 7.2 2.4 14.5 3.8 21.7 1.3 6.6 3 13.1 4.5 19.7.8 3.6 1.5 7.2 2.2 10.8 1.1 5.5 2.5 11 3.3 16.5.5 3.5-.2 7.1.1 10.7.3 3.9 1.1 7.8 1.8 12.5-4 0-7.9.9-10.9-.3-2-.8-3.4-4.3-4.2-6.9-2.5-8-4.7-16.1-6.8-24.2-1.5-5.8-2.5-11.8-3.9-17.6-1.2-4.9-2.7-9.8-4-14.6-2.1-7.8-4.2-15.7-6.2-23.6-2.6-9.8-5.2-19.7-7.7-29.5-2.1-8.3-4-16.7-6-25-1.6-6.7-3.8-13.2-4.7-20-.7-5.5.1-11.1.3-16.7.6-.5 1.3-.8 1.9-1.1z"/><path class="st5" d="M379.8 189.8c-2.2 5.5-3.7 11.4-6.8 16.4-9.5 15.3-21.6 28.6-35.4 40.1-12.3 10.2-24.2 20.8-37.6 29.7-7.1 4.7-14.6 7-22.3 9.6-7.2 2.4-14.2 5.3-21.4 7.7-3 1-6.2 1.7-9.3 2.3-.6.1-1.3-.7-2-1.1.5-.6.8-1.5 1.4-1.8 5.8-3.1 12.1-5.4 17.2-9.2 10.4-7.6 20.3-16 30.1-24.3 3.7-3.1 8-6.5 9.6-10.7 3.3-8.9 12.3-11.9 17.2-18.9 6.4-9.1 13-18.1 19.6-27.1 4.4-6 8.3-12.3 13.4-17.6 4.7-4.9 11.6-5.3 18.1-5.6 3.7-.2 7.2 5.2 7.1 10 .4.2.7.4 1.1.5z"/><path class="st4" d="M409.9 328.8c-.7 2.5-1 3.7-1.4 5-.8 2.9-1.7 5.7 1.5 8 .7.5 1.3 2 1.1 2.9-1.2 6.2-2.5 12.3-3.9 18.5-1.4 5.7-3 11.4-4.4 17.1-1.4 5.5-2.6 11-4 16.4-1.4 5.1-3.1 10.1-4.5 15.3-2.5 9.3-4.9 18.7-7.4 28-2.1 8-4.3 16-6.5 24-2.5 9-4.9 17.9-7.5 26.9-1.4 4.9-2.6 9.9-4.6 14.5-1 2.2-3.5 4.4-5.8 5.2-2.7.9-5.9.2-9.7.2.9-5.9 1.5-11.2 2.5-16.5.8-4.6 2-9.1 3.1-13.6 1.5-6.3 3.1-12.7 4.5-19 .8-3.4 1.3-6.9 2.1-10.3 2.7-11.5 5.6-22.9 8.3-34.4 1.9-8.1 3.6-16.2 5.5-24.3 1.4-5.9 3-11.7 4.5-17.5 2-8 3.9-16 5.9-24 .7-2.7 1-5.6 2.2-8.1.8-1.7 1.4-3.7 4.3-4.6 3.3-1 5.9-4 8.9-6.1 1.2-1.2 2.8-2 5.3-3.6z"/><path class="st5" d="M403.4 225.2c6.3 1.3 12.7 2.5 18.9 4 2.8.7 5.7 8.5 5.2 11.4-1.2 7.8-5.4 13.5-11 18.7-7.3 6.6-14.2 13.9-23.4 18-8.1 3.6-16.3 7.2-24.7 10-6.1 2-12.6 2.6-18.9 3.7-6.7 1.1-13.4 2-20.1 2.7-3.7.4-7.4.3-11.2.3-.6 0-1.3-.7-1.9-1.1.5-.7.9-1.7 1.6-2.1 3.7-2.1 7.7-3.8 11.2-6.1 7.9-5.1 15.8-10.2 23.4-15.8 9.1-6.7 18.3-13.5 26.6-21.2 6.1-5.5 11-12.2 16.2-18.7 2.3-2.6 4.5-4.2 8.1-3.8z"/><path class="st4" d="M143.2 335.7c12.3 2.2 14.5 11.6 17.1 20.2 4 12.9 7.2 26.1 10.8 39.1 2.8 10.4 5.6 20.7 8.3 31.1 2.4 9.2 4.7 18.5 6.8 27.8 1 4.7 1.1 9.5 2.2 14.2 1.8 8.1 4.1 16 6.1 24 .9 3.4 1.5 6.9 2.3 10.3.5 2.5 1.1 5 1.8 8.1-2.5 0-4.7.3-6.7-.1-1.1-.2-2.7-1.3-3-2.3-1.5-5.1-2.7-10.2-4.1-15.4-1.3-4.8-2.7-9.6-4-14.4-2-7.3-4-14.5-6-21.8-1.3-4.7-2.9-9.4-4.1-14.2-2.2-8.3-4.2-16.6-6.4-24.8-2.4-8.7-5.1-17.3-7.5-26-2.2-8.1-4-16.3-6.1-24.4-2.1-8-4.4-15.9-6.4-23.9-.9-2.2-.9-4.8-1.1-7.5zM435.7 332.6c-.8 3.1-1.4 6.2-2.3 9.2-4.3 14.1-8.8 28.2-13.1 42.3-3.2 10.5-6 21-9.1 31.5-2.3 7.5-4.9 15-7.3 22.5-2.7 8.5-5.3 17.1-8 25.5-3 9.2-6.1 18.3-9.1 27.4-1.6 5-2.9 10.2-4.8 15.2-.6 1.6-2.5 2.8-3.8 4.1-.8-2.1-2.6-4.5-2.2-6.3 3.6-15.2 7.6-30.4 11.6-45.5 3.2-11.9 6.6-23.7 9.8-35.6 3.1-11.5 5.9-23.1 9.1-34.6 3.1-11.4 6.4-22.7 9.7-34.1 1.2-4.2 2.7-8.3 3.6-12.5.6-2.9 2.1-4.2 4.7-5.2 3.6-1.3 6.9-3.3 10.4-5 .2.5.5.8.8 1.1z"/><path class="st5" d="M283.8 257.2c-2.9 2.4-5.2 4.3-7.5 6.2-7 5.5-13.7 11.3-21 16.3-6.7 4.5-14.2 7.6-22.6 8-4.9.2-9.8 1.1-14.7 1.6-.3 0-.7-.1-.8.1-6.9 5.5-12.8 0-18.8-2.1-4.8-1.7-9.2-4.4-13.7-6.6-2.2-1.1-1.8-2.5 0-3.3 4.1-1.9 8.2-4.1 12.5-5 5.8-1.2 11.8-1.3 17.7-2.1 7.5-1 15-2.2 22.5-3.1 2.1-.2 4.5.1 6.3 1 4.6 2.2 9.2 1.1 13.3-.5 8.4-3.3 16.4-7.4 24.6-11.1.3-.1.6.1 2.2.6zM396.8 205.2c-1.8 4.1-3 7.9-5 11.1-3.4 5.4-6.9 10.9-11.2 15.6-6.8 7.4-13.8 15-21.8 21-12.8 9.6-26.5 18-40 26.7-3.1 2-6.9 3-10.7 3.7 5.1-3.9 10.4-7.7 15.3-11.8 7.3-6 14.6-12 21.5-18.5 8.6-8.1 17.1-16.4 25.1-25.1 4.3-4.7 7.7-10.3 11.3-15.5 3.5-4.9 7.7-8.1 15.5-7.2zM322.6 211.4c-2.1-6.2-3.9-11.3-5.6-16.5-.8-2.5-1-5.4-2.3-7.6-2-3.6-1.1-5.6 2.1-7.8 5.6-3.9 11.3-7 18.3-7.3 6.1-.2 8.2 2.4 5.6 8.2-2.3 5.2-5.4 10-8.1 14.9-1.9 3.4-3.7 6.9-5.7 10.2-1 1.8-2.3 3.3-4.3 5.9zM230.1 306.4h-13c-3.1 0-6.3-.1-9.4 0-9.3.3-17.4-3.2-25.3-7.6-3.8-2.1-7.6-4.1-11.3-6.2-1.8-1-4.6-1.7-3.3-4.8 1.1-2.5 5.4-3.2 7.8-1.5 1.9 1.3 3.6 3.1 5.6 4.1 7.1 3.2 14.3 6.2 21.6 9.2 3.2 1.3 6.4 2.7 9.7 3.3 5.8 1.1 11.7 1.7 17.6 2.6-.1.2-.1.6 0 .9zM310.2 170.8c-2-8.6-4-16.9-6-25.3l1.2-1.2c5.6 1.7 11.3 3.1 16.6 5.3 3.8 1.6 3 6 1.5 8.2-3.4 4.9-5.8 11.1-13.3 13zM280.9 243.6c9.7-6.4 16.8-16.6 29-20.1-.5 5.7-21.4 20-29 20.1z"/></g><g id="Laag_3"><linearGradient id="SVGID_1_" gradientUnits="userSpaceOnUse" x1="285.641" y1="203.637" x2="285.641" y2="356.599"><stop offset="0" stop-color="#936037"/><stop offset="1" stop-color="#6e4827"/></linearGradient><path d="M514.2 277.3c-5.9-29.9-44.5-51.1-44.5-51.1l-184.1 2.3s-98.6-36.1-161.3-21.4c-23.7 5.6-61.4 40.3-67.3 70.2-5.9 29.9 21 27 21 27l33 39.9 139.7 12.4 34.9-52.3 34.9 52.3 139.7-12.4 33-39.9s26.9 2.9 21-27z" fill="url(#SVGID_1_)"/><path class="st8" d="M493.2 304.3l-32 20.8-60.5 233.3h13.2z"/><path class="st9" d="M400.7 558.4h-30l52.5-233.3 32.8-20.8 5.2 20.8z"/><path class="st10" d="M370.7 558.4h-34l43.6-233.3 31.4-20.8 11.5 20.8z"/><path class="st11" d="M336.7 558.4h-33.5l20-233.3 35.3-20.8 21.8 20.8z"/><path class="st8" d="M78 304.3l32.1 20.8 60.5 233.3h-13.3z"/><path class="st9" d="M170.6 558.4h29.9l-52.4-233.3-32.8-20.8-5.2 20.8z"/><path class="st10" d="M200.5 558.4h34.1l-43.7-233.3-31.3-20.8-11.5 20.8z"/><path class="st11" d="M234.6 558.4h33.5l-20-233.3-35.3-20.8-21.9 20.8z"/><path fill="#c9bda9" d="M285.6 304.3l-37.5 20.8 20 233.3h35.1l20-233.3z"/><linearGradient id="SVGID_2_" gradientUnits="userSpaceOnUse" x1="398.916" y1="183.185" x2="435.438" y2="246.443"><stop offset="0" stop-color="#80ccea"/><stop offset=".2" stop-color="#7fcae7"/><stop offset=".418" stop-color="#7ac2df"/><stop offset=".644" stop-color="#73b6d0"/><stop offset=".876" stop-color="#68a3ba"/><stop offset="1" stop-color="#6098ad"/></linearGradient><path d="M469.7 226.3s16.7-27 0-38.8C453 175.7 416 173.3 416 173.3L358 234s73.5 20.1 111.7-7.7z" fill="url(#SVGID_2_)"/><path class="st14" d="M101.5 215.8c8-5.6 16-9.6 22.8-11.2 62.7-14.7 161.3 24 161.3 24l37.2-1 9.2-50.8c-20-31.7-36.5-166.5-36.5-166.5C176.2 77.6 36.8 88.4 36.8 88.4c15 11.8 64.7 127.4 64.7 127.4z"/><linearGradient id="SVGID_3_" gradientUnits="userSpaceOnUse" x1="351.465" y1="163.037" x2="385.884" y2="222.653"><stop offset="0" stop-color="#80ccea"/><stop offset=".201" stop-color="#7cc9e7"/><stop offset=".418" stop-color="#6ebfde"/><stop offset=".643" stop-color="#57afce"/><stop offset=".871" stop-color="#3698b8"/><stop offset="1" stop-color="#1889a8"/></linearGradient><path d="M442.5 174.6s16.3-24.1-10.3-28.1-59.6 4.4-59.6 4.4l-83.7 66.3s-4.6 20.5 18.9 23.2 77.4.8 134.7-65.8z" fill="url(#SVGID_3_)"/><linearGradient id="SVGID_4_" gradientUnits="userSpaceOnUse" x1="216.916" y1="156.162" x2="216.916" y2="232.44"><stop offset=".362" stop-color="#80ccea"/><stop offset=".5" stop-color="#79c8e6"/><stop offset=".673" stop-color="#64bbdb"/><stop offset=".865" stop-color="#40a6c8"/><stop offset="1" stop-color="#0f94b6"/></linearGradient><path d="M217.8 229s-59.5-.7-78.5 2.1c-18.1 2.7-42.4 1.9-43.1-8.8s17.4-26.7 42.9-23.5c25.5 3.2 47.6 8.3 73 4.8 95.2-12.9 110.4-47.5 110.4-47.5l15.1 31.2L217.8 229z" fill="url(#SVGID_4_)"/><linearGradient id="SVGID_5_" gradientUnits="userSpaceOnUse" x1="280.814" y1="155.737" x2="319.379" y2="222.533"><stop offset="0" stop-color="#80ccea"/><stop offset=".189" stop-color="#7ac8e7"/><stop offset=".416" stop-color="#68bcdc"/><stop offset=".662" stop-color="#4aa9ca"/><stop offset=".92" stop-color="#0f8fb0"/><stop offset="1" stop-color="#0086a7"/></linearGradient><path d="M410.2 145.5s-3.4-50.4-53.5-32.7c-28.4 10.1-18.7 34.8-46.6 56-37.7 28.5-113.5 18-126.7 57.7-4.8 14.5 37.8 11.5 37.8 11.5s78.6-5.9 109.6-22.4c25.7-13.7 57-31.6 79.4-70.1z" fill="url(#SVGID_5_)"/><linearGradient id="SVGID_6_" gradientUnits="userSpaceOnUse" x1="322.82" y1="18.649" x2="322.82" y2="116.188"><stop offset="0" stop-color="#80ccea"/><stop offset=".188" stop-color="#75c5e3"/><stop offset=".507" stop-color="#57b0cf"/><stop offset=".916" stop-color="#1b8faf"/><stop offset="1" stop-color="#0188a8"/></linearGradient><path d="M339.2 71c-16.8-4.6-26.3-28.5-14.4-41.6 11.5-12.6-6.7-15.4-28-1.4 2.9 20.6 7.5 56.4 14.3 88.2l34.2-24.1c.1 0 10.8-16.4-6.1-21.1z" fill="url(#SVGID_6_)"/><linearGradient id="SVGID_7_" gradientUnits="userSpaceOnUse" x1="342.644" y1="77.619" x2="342.644" y2="155.857"><stop offset="0" stop-color="#80ccea"/><stop offset=".189" stop-color="#7bc8e7"/><stop offset=".416" stop-color="#6bbddc"/><stop offset=".664" stop-color="#50aaca"/><stop offset=".924" stop-color="#2491b0"/><stop offset="1" stop-color="#0e89a8"/></linearGradient><path d="M348.7 80.2s-25.4 15.7-33.6 21.5l-7.8 5.6c3.6 17.8 11.5 35.1 15.9 48.6 17.8-7.3 54.7-46.8 54.7-46.8-1.6-44.2-29.2-28.9-29.2-28.9z" fill="url(#SVGID_7_)"/><path class="st14" d="M323.2 155.9C307.4 107 295.6 10.3 295.6 10.3c-10.2 5.7-20.5 11.1-30.9 16 6.3 36.9 26.5 137 58.5 129.6z"/><path d="M295.6 10.3v1.8c0 .3.1.7.1 1.1 0 .1 0 .3.1.4v.4c0 .2 0 .4.1.6 0 .2.1.5.1.7 0 .2 0 .3.1.5 0 .3.1.6.1.9v.3c0 .3.1.7.1 1 0 .2 0 .3.1.5 0 .3.1.7.1 1v.3c.3 1.9.5 4 .9 6.3v.1c.1.4.1.8.2 1.2 9.4-6 18.2-8.7 23.9-8.7 6.9 0 9.4 3.9 3.1 10.7-12 13.1-2.5 37 14.4 41.6 6.6 1.8 9 5.5 9.4 9.2.1 0 .1-.1.1-.1s4.6-2.6 10.2-2.6c8 0 18.1 5.3 19 31.5 29.7 1.3 32.2 36.1 32.3 36.5 2.1-.1 4.1-.1 6.2-.1 5.3 0 10.7.3 15.8 1.1 26.6 4 10.3 28.1 10.3 28.1-.6.7-1.3 1.5-1.9 2.2 10.4 2.1 21.7 5.5 29.1 10.7 16.7 11.8 0 38.8 0 38.8s38.6 21.2 44.5 51.1c4.9 25.1-13.2 27.1-19.2 27.1-1.1 0-1.8-.1-1.8-.1l-79.3 254.1H157.1L78 304.3s-.7.1-1.8.1c-6 0-24.1-2-19.2-27.1 3.8-19.4 21.1-40.8 39.2-55-.2-2.6 1.3-6 3.9-9.7C92 193.9 50.3 99 36.8 88.4c0 0 116.6-9.1 227.9-62.2 5.1-2.4 10.2-5 15.2-7.6.3-.1.5-.3.8-.4 2.1-1.1 4.1-2.2 6.2-3.3.6-.3 1.1-.6 1.7-.9 2.3-1.2 4.6-2.4 7-3.7m4-8.1l-6.5 3.7c-2.1 1.2-4.3 2.4-6.9 3.8l-1.2.6-.5.3c-2.2 1.2-4.2 2.2-6.1 3.2l-.4.2-.4.2c-4.9 2.6-10 5.1-15.1 7.5C205.5 49 147 64.3 108 72.4c-42.3 8.7-71.3 11.1-71.6 11.1l-12.8 1 10.2 7.9c2.3 1.8 10.1 11 32.3 57.2 12.2 25.3 23.9 51.9 28.5 62.5-1.7 2.7-2.7 5.3-3.1 7.7-9.1 7.4-17.4 16-24.2 25.1-8 10.8-13.2 21.7-15.1 31.5-2.1 10.5-.7 18.9 4.1 24.7 5.4 6.5 13.5 8 18.1 8.3l78.2 250.5 1.1 3.5h264l1.1-3.5L497 309.4c4.6-.3 12.8-1.7 18.1-8.3 4.8-5.9 6.2-14.2 4.1-24.7-2.7-13.5-11.4-26.8-26.1-39.5-6.5-5.7-12.7-9.9-16.7-12.4 1.5-3 3.3-7.2 4.5-11.9 4.2-16.3-2.2-24.9-8.2-29.1-5.6-3.9-13.5-7.2-23.7-9.8 2.4-4.8 5.4-13.2 2.2-20.6-2.7-6.1-8.8-10-18.1-11.4-5-.8-10.6-1.1-16.6-1.1h-1.9c-.7-3.8-2.1-9.3-4.8-14.9-5.8-11.9-15.1-19.1-27-20.9-.9-10.6-3.4-18.7-7.7-24.1-4-5.1-9.6-7.8-16.1-7.8-2.8 0-5.3.5-7.3 1.1-1.8-2.9-5.1-5.9-11-7.5-6.9-1.9-12.9-8.3-15.1-16.2-1.9-6.7-.8-12.9 3.1-17.2 5.6-6.2 5.4-10.7 4.2-13.5-.9-2.1-3.6-5.7-11-5.7-5.7 0-12.7 2-20 5.7V19l-.1-1-.1-.5-.1-.9v-.4l-.1-.9v-.5l-.1-.7v-1.3l-.1-1.1V9.9l-1.7-7.7z"/><path d="M120.5 156.8c.7 3.1-1.1 5.9-5.5 8.3-3.4 1.9-7.2 3.1-11.2 3.6-10.9 1.3-17.3-3.6-19.1-14.5-.7-4.5-.3-9.6 1.2-15.3 1.9-7 4.9-10.8 8.9-11.2 3.7-.4 7.9.6 12.7 3 4.8 2.5 7.5 5.3 8.2 8.6.8 4.1-.5 7.6-4.1 10.6-3.1 2.7-7.2 4.3-12.2 4.9-1 .1-2.6-.2-5-1 1.3 5.9 3.8 8.6 7.5 8.2 3.1-.4 5.9-1.5 8.6-3.5 2.6-1.9 4.3-3 5.2-3.1 2.9-.6 4.5 0 4.8 1.4zm-14.7-15.9c-.3-1.5-1-3-2.3-4.2-1.2-1.3-2.6-1.8-4.3-1.6-2.2.3-3.8 1.4-4.7 3.3-.8 1.7-1 3.6-.6 5.7.2 1.2.8 2.1 1.8 2.7 1 .6 2.2.9 3.6.7 5.1-.6 7.2-2.8 6.5-6.6zM160.8 141.6c2.1 7.8 3.4 13.4 3.7 16.8.2 2-1 3.2-3.5 3.7-3.8.8-6-.6-6.5-4.1-3 2.2-6.4 3.6-10.1 4.3-3.6.7-7.2.5-10.8-.6-4.3-1.3-6.8-3.4-7.4-6.3-.6-2.9 1-5.9 4.7-9.2 3.4-2.9 6.8-4.7 10.2-5.4 2.8-.5 5.7-1.1 8.5-1.6-.2-.7-.4-1.5-.5-2.2-1.5-6.4-4.3-9.2-8.4-8.4-5.2 1-7.3 3.7-6.3 8.2.3 1.5-.4 2.4-2.3 2.8-1.1.2-2.4-.1-3.9-.8-1.4-.7-2.3-1.6-2.5-2.7-.7-3.5 0-6.5 2.2-9.2 2.2-2.7 5.1-4.3 8.7-5 12.3-2.3 20.1 4.2 24.2 19.7zm-9.2 5.4c-.3-1.2-1.5-1.6-3.5-1.2-8.4 1.6-12.2 4.1-11.3 7.8.5 2 2.6 2.6 6.3 1.9 2.3-.4 4.3-1.4 6.1-3 2.1-1.8 2.9-3.6 2.4-5.5zM186.5 117.2c.5 1.6-1.8 3.5-6.8 5.5.3 1.4 1.1 4.4 2.4 9.1l1.8 6c.4 1.2 1.1 2.9 2.2 5.2 1.1 2.2 1.9 3.9 2.2 5.1.3 1 0 2-.8 3s-1.8 1.7-2.8 1.9c-1.7.4-3.5-.5-5.4-2.9-1.5-1.8-2.5-3.6-3-5.5-1.9-6.4-3.7-12.8-5.4-19.3-3.1.3-4.9.4-5.4.4-1.8-.1-2.8-.6-3.1-1.5-.1-.2-.1-.5 0-.9 1.1-2.6 2.7-4.2 4.7-4.6.1 0 .3-.1.6-.1h.6c1.3-.3 1.6-2 .7-4.9-.6-2.2-1.2-4.4-1.7-6.6-.5-.6-.8-1.1-.9-1.6-.2-.8.1-1.6.9-2.5.8-.9 1.6-1.4 2.5-1.6 1.3-.3 2.7 0 4.2.9s2.4 2 2.8 3.3c.4 1.5.6 2.9.5 4.5-.1 1.5.1 3.1.6 4.6 0 .1.1.2.1.4 4.9-1.1 7.8-.3 8.5 2.1zM265.7 126.7c-1.6 2-2.9 3.2-4 3.7-.8.3-2.2.4-4.2.2-.4-.9-1.1-2.5-2-4.8-.8-2-1.5-3.6-2-4.8-6.3-15.5-10.5-22.8-13.2-21.8-2 .7-2.7 3.7-2.1 8.8.4 3.8 1.2 7.1 2.3 10.1 1 2.7 2.1 5.4 3.1 8.1.2.4.6 1 1.2 1.6.6.7 1 1.2 1.2 1.6.4.9.2 2-.6 3.1s-1.7 1.8-2.7 2.2c-1.1.4-2.4.2-3.8-.4-1.5-.6-2.4-1.4-2.7-2.4-2.1-5.5-4.1-10.9-6.1-16.4-2.4-6.7-4.4-9.7-5.9-9.2-.3.1-.6.8-1 2.2-2.5 7.1-2.6 14-.3 20.5.3.9 1 2.3 1.9 4 .9 1.7 1.6 3 1.9 3.9.4 1.2.4 2.3-.1 3.3s-1.4 1.7-2.7 2.1c-1.5.5-2.9.4-4.1-.3-.5-.3-1.4-1.6-2.6-3.8-1.2-2.1-1.9-3.5-2.2-4.4-2.2-6.5-4.4-12.9-6.6-19.4-.5-1.4-.7-3.4-.7-6 0-3.1.5-4.9 1.6-5.2 1.2-.4 2.5-.3 3.8.3 1.3.6 2.1 1.5 2.3 2.7.8-3.4 2.6-5.6 5.4-6.5 3.5-1.1 7 .2 10.9 3.9.2-3 .6-5.2 1.1-6.5.9-2.2 2.4-3.7 4.6-4.5 2.2-.8 4.9-.5 8 1 5.4 2.4 10.1 8.3 14 17.7 1.9 5.1 4.1 10.2 6.3 15.4zM298.6 104.1c1.4 2.8.4 5.9-2.9 9.4-2.6 2.7-5.7 4.8-9.2 6.3-9.4 4-16.5.8-20.8-9.3-1.8-4.2-2.7-9.2-2.7-15.1-.1-7.3 1.7-11.6 5.2-13.1 3.2-1.3 7.2-1.4 12.1-.2 4.9 1.2 8.1 3.2 9.5 6.2 1.7 3.7 1.4 7.5-1 11.3-2.1 3.4-5.4 6-9.7 7.8-.8.4-2.4.4-4.7.2 2.6 5.4 5.6 7.4 8.8 6 2.7-1.1 4.9-3 6.8-5.5 1.9-2.5 3.2-4 3.9-4.3 2.4-1.2 4-1.1 4.7.3zm-17.2-11.8c-.6-1.4-1.7-2.6-3.1-3.5-1.4-.9-2.8-1.1-4.2-.5-1.9.8-3.1 2.3-3.4 4.4-.3 1.8 0 3.7.9 5.6.5 1.1 1.2 1.8 2.3 2.2 1.1.4 2.2.3 3.4-.2 4.3-1.8 5.6-4.5 4.1-8z"/></g></svg>