<?xml version="1.0" encoding="utf-8"?>
<!-- Generator: Adobe Illustrator 22.1.0, SVG Export Plug-In . SVG Version: 6.00 Build 0)  -->
<svg version="1.1" xmlns="http://www.w3.org/2000/svg" xmlns:xlink="http://www.w3.org/1999/xlink" x="0px" y="0px"
	 viewBox="0 0 566.9 566.9" style="enable-background:new 0 0 566.9 566.9;" xml:space="preserve">
<style type="text/css">
	.st0{display:none;}
	.st1{display:inline;fill:#FFFFFF;}
	.st2{display:inline;}
	.st3{display:inline;fill:#CA9E67;}
	.st4{display:inline;fill:#FEE6CB;}
	.st5{display:inline;fill:#B6DFE9;}
	.st6{display:none;opacity:0.53;fill:#36A9E1;}
	.st7{fill:url(#SVGID_1_);}
	.st8{fill:#A9A08F;}
	.st9{fill:#B4AB99;}
	.st10{fill:#BCB29F;}
	.st11{fill:#C3B8A4;}
	.st12{fill:#C9BDA9;}
	.st13{fill:url(#SVGID_2_);}
	.st14{fill:#FFFFFF;}
	.st15{fill:url(#SVGID_3_);}
	.st16{fill:url(#SVGID_4_);}
	.st17{fill:url(#SVGID_5_);}
	.st18{fill:url(#SVGID_6_);}
	.st19{fill:url(#SVGID_7_);}
</style>
<g id="Laag_1" class="st0">
	<path class="st1" d="M78.6,175.3c-1.4,10-1.1,11.4,3.1,14.7c8.3,6.7,16.3,13.8,22.6,22.6c5,7,11.5,13,16.1,20.2
		c6.7,10.3,12.3,21.3,18.4,32c2,3.5,2.1,6.5-1.5,9.1c-2.3,1.6-4.5,3.3-6.6,5.1c-7.7,6.6-12.7,14.9-12.8,25.1
		c-0.1,7.5,4.3,13.6,9.1,19.3c2.4,2.9,5.1,5.9,6.3,9.3c3.7,11.4,6.9,22.9,10.2,34.5c2,7.1,3.9,14.3,5.8,21.5
		c1.7,6.4,3.4,12.8,5.2,19.2c2.1,7.4,4.2,14.9,6.3,22.3c2.1,7.6,4.2,15.1,6.2,22.7c2,7.6,3.9,15.2,5.8,22.9
		c1.5,5.9,3.1,11.7,4.4,17.6c1.6,7.3,3.1,14.5,4.1,21.9c0.4,3.2,1.5,4.1,4.5,4.1c31.7-0.1,63.5-0.2,95.2-0.2
		c32.2,0,64.4,0.1,96.6,0.1c2.6,0,5.6,0.7,7.5-0.5c1.6-1,1.9-4.2,2.7-6.4c0.1-0.1,0.2-0.2,0.2-0.4c3.3-10.3,6.5-20.7,9.8-31
		c2.1-6.7,4.2-13.4,6.3-20.1c3-9.7,6.1-19.3,9.1-29c2-6.6,3.6-13.2,5.7-19.7c3-9.3,6.5-18.5,9.6-27.8c3.8-11.6,7.5-23.2,11.2-34.8
		c2.1-6.8,4.1-13.7,6.3-20.5c0.2-0.8,1-1.9,1.7-2c4.7-0.8,7.5-4.2,10.3-7.5c5-5.8,8.3-12.4,6.6-20.3c-1.3-5.9-2.6-12.2-5.5-17.4
		c-5.4-9.7-13.6-17.3-22.9-23.4c-2.3-1.5-2.7-2.9-1.9-4.7c3.2-7.4,4.1-14.7,1.4-22.7c-2.1-6.3-6.9-11.6-13.4-12.7
		c-5.8-1.1-11.5-2.4-17.8-3.8c2-5,1.3-9.7-1.4-14.8c-3.3-6.3-8.7-5-14.2-5.4c1.4-10.4-3-18.2-10.9-23.4c-8.8-5.7-17.5-0.5-26.1,2.6
		c-3-8.6-8.3-13.8-18.5-11.6c0.9-2.6,1.6-4.3,1.9-6.1c0.3-1.8,0.7-3.9,0-5.4c-2.5-5.1-6.3-8.9-11.7-11.2
		c-6.6-2.7-13.6-4.5-17.6-11.9c-3.4-6.3-7.3-12-6.1-19.5c0.6-3.9,0.7-7.9,1.4-11.8c0.8-3.9-1.8-6.2-4.2-7.4c-2-1-5.5-0.8-7.7,0.3
		c-10.1,5.1-19.9,10.9-29.9,16.1c-10.9,5.6-21.8,11-32.9,16.2c-11.2,5.2-22.4,10.3-33.9,14.9c-9.7,3.9-19.8,6.7-29.5,10.6
		c-11.5,4.6-22.6,9.9-34,14.6c-6.3,2.6-12.7,5.3-19.3,7C99.4,171.3,88.8,173.1,78.6,175.3z"/>
	<path class="st2" d="M78.6,175.3c10.2-2.1,20.8-4,31.1-6.7c6.6-1.7,13-4.4,19.3-7c11.4-4.7,22.5-10,34-14.6
		c9.7-3.9,19.8-6.7,29.5-10.6c11.4-4.6,22.7-9.7,33.9-14.9c11.1-5.2,22-10.6,32.9-16.2c10.1-5.2,19.8-11,29.9-16.1
		c2.1-1.1,5.7-1.4,7.7-0.3c2.4,1.2,5,3.5,4.2,7.4c-0.8,3.9-0.8,7.9-1.4,11.8c-1.1,7.6,2.8,13.3,6.1,19.5c4,7.4,10.9,9.2,17.6,11.9
		c5.5,2.2,9.3,6.1,11.7,11.2c0.7,1.5,0.3,3.6,0,5.4c-0.3,1.8-1.1,3.4-1.9,6.1c10.2-2.1,15.5,3,18.5,11.6c8.6-3.1,17.3-8.3,26.1-2.6
		c7.9,5.1,12.3,13,10.9,23.4c5.5,0.3,10.9-0.9,14.2,5.4c2.7,5.1,3.3,9.9,1.4,14.8c6.2,1.3,12,2.7,17.8,3.8
		c6.5,1.2,11.3,6.5,13.4,12.7c2.7,8,1.8,15.2-1.4,22.7c-0.8,1.8-0.4,3.2,1.9,4.7c9.3,6,17.5,13.7,22.9,23.4
		c2.9,5.2,4.2,11.4,5.5,17.4c1.7,7.8-1.6,14.4-6.6,20.3c-2.8,3.3-5.6,6.6-10.3,7.5c-0.7,0.1-1.4,1.2-1.7,2
		c-2.1,6.8-4.1,13.7-6.3,20.5c-3.7,11.6-7.3,23.2-11.2,34.8c-3.1,9.3-6.5,18.5-9.6,27.8c-2.1,6.5-3.7,13.2-5.7,19.7
		c-3,9.7-6.1,19.3-9.1,29c-2.1,6.7-4.2,13.4-6.3,20.1c-3.2,10.3-6.5,20.7-9.8,31c0,0.1-0.2,0.2-0.2,0.4c-0.9,2.2-1.1,5.4-2.7,6.4
		c-1.9,1.2-5,0.5-7.5,0.5c-32.2,0-64.4-0.1-96.6-0.1c-31.7,0-63.5,0.1-95.2,0.2c-3,0-4.1-0.9-4.5-4.1c-1-7.3-2.5-14.6-4.1-21.9
		c-1.3-5.9-2.9-11.8-4.4-17.6c-1.9-7.6-3.8-15.3-5.8-22.9c-2-7.6-4.1-15.2-6.2-22.7c-2.1-7.4-4.2-14.9-6.3-22.3
		c-1.8-6.4-3.5-12.8-5.2-19.2c-1.9-7.2-3.8-14.3-5.8-21.5c-3.3-11.5-6.4-23.1-10.2-34.5c-1.1-3.4-3.9-6.4-6.3-9.3
		c-4.7-5.7-9.2-11.8-9.1-19.3c0.1-10.2,5.1-18.5,12.8-25.1c2.1-1.8,4.3-3.5,6.6-5.1c3.7-2.5,3.5-5.6,1.5-9.1
		c-6.1-10.7-11.7-21.7-18.4-32c-4.7-7.2-11.1-13.2-16.1-20.2c-6.3-8.8-14.3-15.9-22.6-22.6C77.6,186.6,77.3,185.3,78.6,175.3z
		 M314.3,213C301.4,175.9,295,137.6,291,98.5c-9.4,4.9-18,9.5-26.8,13.8c-18.5,9.1-37,18.1-55.6,27c-5.5,2.7-11.2,5-17,7.1
		c-8.4,3-17,5.4-25.2,8.6c-14.5,5.6-28.8,11.7-43.1,17.6c-2.2,0.9-4.2,2.5-6.4,3c-8.8,2-17.6,3.6-27.1,5.5c0.6,1.4,0.8,2.5,1.5,3.2
		c2.6,2.9,5.5,5.7,8.1,8.6c6.2,7.2,12.8,14.1,18.4,21.7c6.8,9.4,12.4,19.6,19.1,29c8,11.2,13.1,23.9,18.7,36.3
		c0.9,1.9,1.4,2.6,3.3,1.3c4.3-3.1,8.5-6.4,13.1-9.1c12.4-7.4,26.2-10.8,40.4-12c9.4-0.8,18.9-0.9,28-3.8c5.5-1.8,11.6-3,16.2-6.2
		c11-7.7,21.6-16,31.6-24.9C295.5,218.7,303.8,215.3,314.3,213z M418.3,328.2c0.4,0.4,0.9,0.8,1.3,1.2c5.1-3.4,10.6-6.3,15.1-10.2
		c3.2-2.8,6.9-3.4,10.5-4.2c3.4-0.7,8.3-3.9,8.8-7.5c1-7.1,0.3-14.1-3.1-20.5c-5.2-9.9-13.9-15.8-23.6-20.7
		c-2.2-1.1-3.1-0.7-4.6,0.8c-9.7,9.7-19.8,18.8-33.3,23c-8,2.5-15.9,5.4-23.9,7.8c-3.7,1.1-7.7,1.4-11.6,2c-7.5,1.1-15.1,2.5-22.7,3
		c-7.8,0.6-15.7,0.4-23.6,0.2c-4.3-0.1-8.6-1.2-13-1.5c-3-0.2-6-0.3-9,0.1c-6.1,0.8-12.1,1.9-18.1,3c-3.5,0.6-7.4,0.8-10.5,2.3
		c-9.2,4.6-19.2,6-29,7.6c-7.7,1.2-15.7,0.4-23.5,0c-3.3-0.1-6.9-0.7-9.8-2.1c-9.2-4.4-18.2-9.4-27.3-14c-2.4-1.2-5.2-2.6-7.7-2.5
		c-7.8,0.3-8.8-0.1-11.1-8c-0.2-0.5-0.2-1.1-0.4-1.6c-2.1-5-2.2-5-6.9-2.3c-6.3,3.5-11.1,8.6-13.2,15.5c-2.2,7.2,3.6,20.1,10.3,23.9
		c5.3,3,10.6,5.7,16.1,8.3c1.8,0.8,4.1,1,4.4-2.1c0.2-1.9-0.3-3.9,0.3-5.6c0.8-2.4,1.9-5.1,3.7-6.6c1-0.8,4.1,0.4,5.8,1.4
		c4.1,2.5,7.8,5.6,11.9,8.2c8.8,5.8,8.7,5.6,14.3-3.6c1.2-2,3.3-4.1,5.4-4.5c2.4-0.5,5.3,0.5,7.7,1.5c7.7,3.4,15.1,7.4,22.8,10.7
		c1.5,0.7,4.2,0.4,5.6-0.5c3.4-2.2,6.5-4.9,9.3-7.8c2.9-2.9,5.6-3.8,9.3-1.3c2.8,1.9,5.9,3.7,9.2,4.7c3.4,1,6.8,4.2,10.8,1.7
		c4.5-2.8,9-5.5,13.2-8.5c2.6-1.9,5.1-1.9,7.6-0.3c2.9,1.9,5.5,4.1,8.3,6.1c4,2.8,8.2,2.7,12.4,0.7c7.8-3.9,15.5-8.2,23.4-11.8
		c1.8-0.8,5.1-0.1,6.8,1.2c2.1,1.6,3.5,4.3,4.5,6.9c1.3,3.1,1.9,6.5,2.9,10.3c8.3-4.3,16.1-8.4,24-12.3c1.6-0.8,4.2-1.8,5.2-1
		c1.7,1.3,2.8,3.7,3.4,5.8c0.7,2.2,0.5,4.7,0.8,7.4c9.6-4.4,18.1-9.4,24-17.9c1.8-2.7,5.2-2.2,6.8,0.6c1.6,2.9,2.3,5.7,0.4,8.9
		C418.2,324.9,418.5,326.7,418.3,328.2z M271.1,360.1c-0.2,0-0.3,0-0.5,0c0-5.4-0.3-10.9,0.1-16.3c0.3-4.1-2.2-6.2-5-8
		c-2.3-1.5-5.2-2.2-7.6-3.6c-4.4-2.6-8.3-2.4-11.7,1.7c-0.6,0.7-1.7,1-2.4,1.7c-4.1,3.7-8.6,7.3-7.7,13.8c0.5,4.2,1.1,8.5,1.6,12.7
		c1.2,11.1,2.3,22.2,3.4,33.4c1.3,12.9,2.4,25.7,3.7,38.6c0.6,6.1,1.1,12.2,2,18.2c1.5,10.8,3.3,21.6,4.6,32.4
		c0.9,7.5,1.4,15,1.9,22.5c0.2,2.5,1.1,3.6,3.7,3.5c4-0.1,8,0.2,12-0.2c1.1-0.1,2.8-1.8,3-2.9c0.8-6.5,1.7-13.1,1.7-19.6
		c-0.1-14.3-1-28.5-1.2-42.8C271.9,416.9,271.6,388.5,271.1,360.1z M318.5,510.5c0.6-2.4,1.3-4.5,1.7-6.7c1.3-6.6,2.5-13.2,3.9-19.8
		c2.1-10.1,4.4-20.1,6.4-30.2c1.4-6.7,2.4-13.6,3.7-20.3c1.6-8.4,3.3-16.8,5-25.2c1.3-6.7,2.5-13.3,3.8-20
		c1.5-7.7,3.1-15.5,4.5-23.2c1.2-6.7,2.3-13.4,3.1-20.2c0.2-1.8-0.5-3.9-1.3-5.6c-0.9-1.8-2.9-3.2-3.7-5c-1.3-2.8-1.8-5.9-3.1-8.7
		c-0.4-0.8-2.3-1.7-3-1.4c-4.5,1.9-8.8,4.6-13.4,6.3c-7.9,2.9-10.3,9.2-11,16.6c-1.2,12.2-2.2,24.4-3.2,36.6
		c-1.3,15.7-2.5,31.4-3.6,47.2c-0.9,11.6-1.6,23.3-2.4,35c-0.8,11.7-1.7,23.3-2.5,34.9c-0.2,3.2,0,6.4,0,9.9
		C308.6,510.5,313.4,510.5,318.5,510.5z M244.9,510.5c0-2.1,0.1-3.8,0-5.5c-0.6-14.5-1.2-29-2-43.4c-0.4-6.4-1.1-12.8-1.9-19.1
		c-1.5-13.1-3.2-26.2-4.8-39.2c-0.4-3.6-1.1-7.2-1.5-10.9c-1.3-12-2.4-24.1-3.8-36.1c-0.5-4.2-0.7-8.7-2.1-12.6
		c-1.2-3.1-3.7-6.1-6.4-7.9c-4.4-2.9-9.4-4.8-14.2-7c-4.4-2-11.7,1.9-11.6,6.8c0.2,9.2,1.2,18.4,2.5,27.5c0.9,6.7,3,13.2,4.3,19.9
		c1.4,7,2.4,14.2,3.8,21.2c1.5,7.4,3.3,14.8,4.8,22.2c1.4,7,2.5,14.1,4,21.1c1.9,9,4.3,17.9,6.1,26.8c2.4,12,4.5,24,6.7,36.1
		C234.7,510.5,239.5,510.5,244.9,510.5z M292.5,326.9c-3.3,1.9-6.1,3.4-8.8,5.1c-3.6,2.4-7.8,4.3-7.8,9.7
		c0.1,13.9-0.2,27.7,0.2,41.6c0.8,27.8,2,55.6,2.8,83.4c0.4,12,0.1,24,0.2,36c0,2.5,0,5,0,8c4.6,0,8.5-0.2,12.5,0.1
		c2.8,0.2,3.9-1.3,4.2-3.7c0.8-6.1,1.5-12.1,2.1-18.2c1.1-12.2,2.2-24.3,3.2-36.5c1.2-13.2,2.5-26.4,3.4-39.6
		c1-14.2,1.5-28.5,2.2-42.8c0.5-8.8,1-17.6,1.5-26.4c0.2-4.5-1.8-7.8-5.7-10.1C299.1,331.5,295.8,329.1,292.5,326.9z M378.7,329.8
		c-5.6,2.8-10.2,5.2-14.8,7.6c-3.3,1.7-5.6,4.1-5.9,8.2c-0.2,3.3-1.2,6.6-1.9,9.9c-1.6,7.6-3.3,15.1-4.8,22.7
		c-1.4,7-2.5,14.1-3.9,21.1c-1.5,7.3-3.1,14.6-4.6,21.9c-1.4,6.9-2.6,13.7-4,20.6c-1.6,8.2-3.1,16.3-4.7,24.5
		c-1.6,8.1-3.4,16.1-4.7,24.2c-1.1,6.5-1.7,13.1-2.5,19.9c6.3,0,11.8,0,17.3,0c0.2-1.2,0.2-2.1,0.4-2.9c2.3-8.5,4.7-17,7-25.6
		c1.3-5,2.4-10.2,3.6-15.2c1.5-5.9,3.2-11.8,4.6-17.8c1.5-6.3,2.6-12.6,4.1-18.9c2-8.1,4.3-16,6.2-24.1c1.9-8.3,3.6-16.7,5.3-25
		c1.7-8.4,3.5-16.7,5.2-25.1c0.4-1.9,0.4-3.9,0.9-5.7c1.1-3.9,1.4-7.5-1.7-10.7c-0.8-0.9-1.2-2.4-1.3-3.7
		C378.3,334.1,378.6,332.4,378.7,329.8z M168.5,331.2c-0.7,0.3-1.3,0.6-2,0.9c-0.1,5.6-1,11.2-0.3,16.7c0.9,6.8,3.1,13.3,4.7,20
		c2,8.3,3.9,16.7,6,25c2.5,9.9,5.1,19.7,7.7,29.5c2.1,7.9,4.1,15.7,6.2,23.6c1.3,4.9,2.8,9.7,4,14.6c1.4,5.9,2.4,11.8,3.9,17.6
		c2.1,8.1,4.3,16.2,6.8,24.2c0.8,2.6,2.2,6.1,4.2,6.9c3.1,1.2,6.9,0.3,10.9,0.3c-0.7-4.7-1.5-8.6-1.8-12.5
		c-0.3-3.5,0.4-7.2-0.1-10.7c-0.8-5.6-2.2-11-3.3-16.5c-0.7-3.6-1.4-7.2-2.2-10.8c-1.5-6.6-3.2-13.1-4.5-19.7
		c-1.4-7.2-2.5-14.5-3.8-21.7c-1.5-7.7-3.2-15.4-4.8-23.1c-0.9-4.3-1.4-8.7-2.3-12.9c-1.5-7.4-3.2-14.9-4.8-22.3
		c-1.8-7.9-2.3-16.3-10.4-21.1C178,336.7,173.3,334,168.5,331.2z M379.8,189.8c-0.3-0.1-0.7-0.3-1-0.4c0.1-4.8-3.5-10.2-7.1-10
		c-6.5,0.3-13.4,0.8-18.1,5.6c-5.1,5.3-9.1,11.6-13.4,17.6c-6.6,9-13.2,18-19.6,27.1c-4.9,7-13.9,10-17.2,18.9
		c-1.6,4.2-5.9,7.6-9.6,10.7c-9.8,8.3-19.7,16.7-30.1,24.3c-5.2,3.8-11.5,6.1-17.2,9.2c-0.6,0.3-0.9,1.2-1.4,1.8
		c0.7,0.4,1.4,1.2,2,1.1c3.1-0.6,6.3-1.3,9.3-2.3c7.2-2.5,14.2-5.3,21.4-7.7c7.7-2.6,15.2-4.9,22.3-9.6
		c13.4-8.9,25.3-19.5,37.6-29.7c13.8-11.5,25.9-24.8,35.4-40.1C376,201.2,377.5,195.3,379.8,189.8z M409.9,328.8
		c-2.5,1.6-4.1,2.5-5.5,3.5c-3,2.1-5.6,5.2-8.9,6.1c-2.9,0.9-3.4,2.9-4.3,4.6c-1.2,2.5-1.5,5.4-2.2,8.1c-2,8-3.9,16-5.9,24
		c-1.5,5.8-3.1,11.6-4.5,17.5c-1.9,8.1-3.6,16.2-5.5,24.3c-2.7,11.5-5.6,22.9-8.3,34.4c-0.8,3.4-1.3,6.9-2.1,10.3
		c-1.5,6.4-3,12.7-4.5,19c-1.1,4.5-2.3,9-3.1,13.6c-1,5.3-1.6,10.7-2.5,16.5c3.8,0,7,0.7,9.7-0.2c2.3-0.8,4.8-3,5.8-5.2
		c2.1-4.6,3.2-9.6,4.6-14.5c2.6-8.9,5-17.9,7.5-26.9c2.2-8,4.4-16,6.5-24c2.5-9.3,4.9-18.7,7.4-28c1.4-5.1,3.1-10.1,4.5-15.3
		c1.5-5.4,2.7-10.9,4-16.4c1.4-5.7,3-11.4,4.4-17.1c1.4-6.1,2.8-12.3,3.9-18.5c0.2-0.9-0.4-2.4-1.1-2.9c-3.2-2.2-2.3-5.1-1.5-8
		C408.9,332.5,409.2,331.2,409.9,328.8z M403.4,225.2c-3.6-0.5-5.8,1.2-8,3.9c-5.2,6.4-10.1,13.2-16.2,18.7
		c-8.4,7.6-17.5,14.4-26.6,21.2c-7.6,5.6-15.5,10.7-23.4,15.8c-3.6,2.3-7.5,4-11.2,6.1c-0.7,0.4-1,1.4-1.6,2.1
		c0.6,0.4,1.3,1.1,1.9,1.1c3.7,0,7.5,0.1,11.2-0.3c6.7-0.7,13.4-1.6,20.1-2.7c6.3-1,12.9-1.7,18.9-3.7c8.4-2.7,16.6-6.3,24.7-10
		c9.2-4.1,16.1-11.4,23.4-18c5.7-5.1,9.8-10.9,11-18.7c0.4-2.9-2.5-10.8-5.2-11.4C416.1,227.7,409.8,226.6,403.4,225.2z
		 M143.2,335.7c0.3,2.7,0.2,5.3,0.8,7.6c2,8,4.3,15.9,6.4,23.9c2.1,8.1,3.9,16.3,6.1,24.4c2.4,8.7,5.1,17.3,7.5,26
		c2.3,8.2,4.2,16.6,6.4,24.8c1.3,4.8,2.8,9.4,4.1,14.2c2.1,7.3,4,14.5,6,21.8c1.3,4.8,2.7,9.6,4,14.4c1.4,5.1,2.5,10.3,4.1,15.4
		c0.3,1,1.9,2.1,3,2.3c2.1,0.4,4.2,0.1,6.7,0.1c-0.7-3.1-1.2-5.6-1.8-8.1c-0.8-3.4-1.4-6.9-2.3-10.3c-2-8-4.3-16-6.1-24
		c-1.1-4.7-1.1-9.5-2.2-14.2c-2.1-9.3-4.4-18.5-6.8-27.8c-2.7-10.4-5.5-20.8-8.3-31.1c-3.5-13.1-6.8-26.2-10.8-39.1
		C157.6,347.3,155.5,337.9,143.2,335.7z M435.7,332.6c-0.3-0.3-0.6-0.7-1-1c-3.4,1.7-6.8,3.7-10.4,5c-2.7,1-4.1,2.3-4.7,5.2
		c-0.9,4.2-2.4,8.3-3.6,12.5c-3.3,11.3-6.6,22.7-9.7,34.1c-3.1,11.5-6,23.1-9.1,34.6c-3.2,11.9-6.6,23.7-9.8,35.6
		c-4,15.1-8,30.3-11.6,45.5c-0.4,1.8,1.4,4.2,2.2,6.3c1.3-1.4,3.2-2.5,3.8-4.1c1.9-5,3.2-10.1,4.8-15.2c3-9.2,6.2-18.3,9.1-27.4
		c2.8-8.5,5.3-17,8-25.5c2.4-7.5,5-14.9,7.3-22.5c3.2-10.5,6-21,9.1-31.5c4.3-14.1,8.8-28.2,13.1-42.3
		C434.3,338.8,435,335.7,435.7,332.6z M283.8,257.2c-1.6-0.5-1.9-0.7-2.1-0.6c-8.2,3.7-16.3,7.9-24.6,11.1
		c-4.1,1.6-8.7,2.7-13.3,0.5c-1.9-0.9-4.3-1.3-6.3-1c-7.5,0.8-15,2.1-22.5,3.1c-5.9,0.8-11.9,0.8-17.7,2.1c-4.3,0.9-8.4,3.1-12.5,5
		c-1.8,0.8-2.2,2.2,0,3.3c4.6,2.3,8.9,5,13.7,6.6c6,2.1,11.9,7.6,18.8,2.1c0.2-0.1,0.6-0.1,0.8-0.1c4.9-0.6,9.8-1.4,14.7-1.6
		c8.4-0.4,15.9-3.4,22.6-8c7.3-4.9,14.1-10.8,21-16.3C278.6,261.5,280.9,259.6,283.8,257.2z M396.8,205.2c-7.8-0.9-12,2.3-15.4,7.2
		c-3.7,5.3-7,10.9-11.3,15.5c-8,8.7-16.5,17-25.1,25.1c-6.9,6.5-14.2,12.5-21.5,18.5c-5,4.1-10.2,7.9-15.3,11.8
		c3.9-0.7,7.6-1.7,10.7-3.7c13.5-8.7,27.1-17.1,40-26.7c8-6,15-13.6,21.8-21c4.3-4.7,7.8-10.2,11.2-15.6
		C393.8,213.1,395,209.3,396.8,205.2z M322.6,211.4c2-2.6,3.3-4.1,4.4-5.9c2-3.3,3.8-6.8,5.7-10.2c2.7-5,5.8-9.8,8.1-14.9
		c2.6-5.8,0.5-8.4-5.6-8.2c-7,0.3-12.8,3.4-18.3,7.3c-3.2,2.3-4.1,4.2-2.1,7.8c1.3,2.2,1.4,5.1,2.3,7.6
		C318.7,200.1,320.5,205.2,322.6,211.4z M230.1,306.4c0-0.3,0-0.7-0.1-1c-5.9-0.8-11.8-1.4-17.6-2.6c-3.3-0.6-6.5-2-9.7-3.3
		c-7.2-3-14.5-5.9-21.6-9.2c-2.1-0.9-3.7-2.7-5.6-4.1c-2.4-1.7-6.8-1-7.8,1.5c-1.3,3.1,1.5,3.8,3.3,4.8c3.7,2.1,7.6,4.1,11.3,6.2
		c7.9,4.4,16,7.9,25.3,7.6c3.1-0.1,6.3,0,9.4,0C221.4,306.4,225.7,306.4,230.1,306.4z M310.2,170.8c7.5-1.9,9.9-8.1,13.3-13
		c1.5-2.2,2.2-6.6-1.5-8.2c-5.3-2.2-11.1-3.6-16.6-5.3c-0.4,0.4-0.8,0.8-1.2,1.2C306.2,153.9,308.2,162.2,310.2,170.8z M280.9,243.6
		c7.6,0,28.5-14.4,29-20.1C297.7,227,290.6,237.2,280.9,243.6z"/>
	<path class="st1" d="M314.3,213c-10.5,2.3-18.8,5.7-26.2,12.4c-10,9-20.6,17.2-31.6,24.9c-4.6,3.2-10.7,4.5-16.2,6.2
		c-9.1,2.9-18.6,3-28,3.8c-14.2,1.2-28,4.6-40.4,12c-4.6,2.7-8.8,6-13.1,9.1c-1.9,1.3-2.4,0.6-3.3-1.3c-5.6-12.4-10.7-25-18.7-36.3
		c-6.7-9.4-12.3-19.7-19.1-29c-5.6-7.7-12.2-14.6-18.4-21.7c-2.6-3-5.5-5.7-8.1-8.6c-0.6-0.7-0.8-1.8-1.5-3.2
		c9.5-1.9,18.3-3.5,27.1-5.5c2.3-0.5,4.2-2.1,6.4-3c14.4-5.9,28.7-12,43.1-17.6c8.3-3.2,16.9-5.6,25.2-8.6c5.8-2.1,11.5-4.5,17-7.1
		c18.6-8.9,37.1-17.9,55.6-27c8.8-4.3,17.4-8.9,26.8-13.8C295,137.6,301.4,175.9,314.3,213z"/>
	<path class="st3" d="M418.3,328.2c0.2-1.5-0.1-3.3,0.6-4.5c1.8-3.2,1.2-6-0.4-8.9c-1.6-2.8-5-3.3-6.8-0.6
		c-5.9,8.6-14.4,13.5-24,17.9c-0.3-2.7-0.1-5.2-0.8-7.4c-0.7-2.1-1.8-4.5-3.4-5.8c-0.9-0.7-3.6,0.2-5.2,1c-7.9,3.9-15.7,8-24,12.3
		c-1-3.8-1.6-7.2-2.9-10.3c-1-2.5-2.5-5.3-4.5-6.9c-1.6-1.3-5-2-6.8-1.2c-8,3.6-15.6,7.9-23.4,11.8c-4.2,2.1-8.4,2.2-12.4-0.7
		c-2.8-2-5.5-4.2-8.3-6.1c-2.5-1.6-5-1.6-7.6,0.3c-4.3,3-8.8,5.8-13.2,8.5c-4,2.5-7.3-0.7-10.8-1.7c-3.2-1-6.3-2.8-9.2-4.7
		c-3.7-2.5-6.4-1.6-9.3,1.3c-2.9,2.8-6,5.5-9.3,7.8c-1.4,0.9-4.1,1.2-5.6,0.5c-7.7-3.4-15.1-7.3-22.8-10.7c-2.4-1.1-5.3-2-7.7-1.5
		c-2,0.4-4.2,2.6-5.4,4.5c-5.5,9.2-5.5,9.4-14.3,3.6c-4-2.6-7.8-5.7-11.9-8.2c-1.7-1-4.8-2.2-5.8-1.4c-1.8,1.5-2.9,4.2-3.7,6.6
		c-0.6,1.7-0.1,3.7-0.3,5.6c-0.3,3.1-2.7,2.9-4.4,2.1c-5.5-2.6-10.8-5.3-16.1-8.3c-6.7-3.8-12.4-16.6-10.3-23.9
		c2.1-6.9,6.9-11.9,13.2-15.5c4.7-2.6,4.7-2.6,6.9,2.3c0.2,0.5,0.3,1.1,0.4,1.6c2.3,7.9,3.3,8.3,11.1,8c2.5-0.1,5.3,1.3,7.7,2.5
		c9.2,4.6,18.1,9.6,27.3,14c2.9,1.4,6.5,1.9,9.8,2.1c7.8,0.3,15.9,1.2,23.5,0c9.8-1.5,19.8-3,29-7.6c3.1-1.6,7-1.7,10.5-2.3
		c6-1.1,12.1-2.2,18.1-3c2.9-0.4,6-0.4,9-0.1c4.3,0.3,8.6,1.4,13,1.5c7.9,0.2,15.8,0.3,23.6-0.2c7.6-0.5,15.1-1.9,22.7-3
		c3.9-0.6,7.9-0.9,11.6-2c8-2.4,15.9-5.3,23.9-7.8c13.5-4.2,23.6-13.4,33.3-23c1.5-1.5,2.4-1.9,4.6-0.8c9.7,4.9,18.4,10.8,23.6,20.7
		c3.4,6.5,4.1,13.5,3.1,20.5c-0.5,3.6-5.4,6.8-8.8,7.5c-3.6,0.8-7.2,1.4-10.5,4.2c-4.6,4-10,6.9-15.1,10.2
		C419.2,329,418.8,328.6,418.3,328.2z"/>
	<path class="st4" d="M271.1,360.1c0.4,28.4,0.8,56.8,1.3,85.2c0.3,14.3,1.1,28.5,1.2,42.8c0.1,6.5-0.9,13.1-1.7,19.6
		c-0.1,1.1-1.9,2.8-3,2.9c-4,0.4-8,0.1-12,0.2c-2.5,0.1-3.5-1-3.7-3.5c-0.5-7.5-1-15-1.9-22.5c-1.3-10.8-3.2-21.6-4.6-32.4
		c-0.8-6.1-1.4-12.2-2-18.2c-1.3-12.9-2.4-25.7-3.7-38.6c-1.1-11.1-2.2-22.3-3.4-33.4c-0.4-4.2-1-8.5-1.6-12.7
		c-0.8-6.5,3.6-10.1,7.7-13.8c0.7-0.7,1.8-1,2.4-1.7c3.4-4.1,7.2-4.3,11.7-1.7c2.4,1.4,5.3,2.1,7.6,3.6c2.8,1.8,5.3,3.8,5,8
		c-0.4,5.4-0.1,10.9-0.1,16.3C270.8,360.1,271,360.1,271.1,360.1z"/>
	<path class="st4" d="M318.5,510.5c-5.2,0-10,0-15,0c0-3.5-0.2-6.7,0-9.9c0.8-11.7,1.7-23.3,2.5-34.9c0.8-11.7,1.6-23.3,2.4-35
		c1.2-15.7,2.3-31.4,3.6-47.2c1-12.2,2-24.4,3.2-36.6c0.7-7.4,3.1-13.7,11-16.6c4.6-1.7,8.9-4.3,13.4-6.3c0.7-0.3,2.6,0.6,3,1.4
		c1.2,2.8,1.8,5.9,3.1,8.7c0.9,1.9,2.8,3.2,3.7,5c0.8,1.7,1.5,3.8,1.3,5.6c-0.8,6.7-1.9,13.5-3.1,20.2c-1.4,7.8-3,15.5-4.5,23.2
		c-1.3,6.7-2.5,13.3-3.8,20c-1.6,8.4-3.4,16.8-5,25.2c-1.3,6.8-2.3,13.6-3.7,20.3c-2.1,10.1-4.4,20.1-6.4,30.2
		c-1.4,6.6-2.5,13.2-3.9,19.8C319.9,506,319.2,508.1,318.5,510.5z"/>
	<path class="st4" d="M244.9,510.5c-5.4,0-10.2,0-15.9,0c-2.2-12.1-4.3-24.1-6.7-36.1c-1.8-9-4.2-17.9-6.1-26.8
		c-1.5-7-2.6-14.1-4-21.1c-1.5-7.4-3.3-14.8-4.8-22.2c-1.4-7-2.4-14.2-3.8-21.2c-1.3-6.6-3.3-13.2-4.3-19.9
		c-1.3-9.1-2.3-18.3-2.5-27.5c-0.1-5,7.1-8.8,11.6-6.8c4.8,2.2,9.8,4.1,14.2,7c2.7,1.8,5.2,4.9,6.4,7.9c1.5,3.9,1.7,8.3,2.1,12.6
		c1.3,12,2.5,24,3.8,36.1c0.4,3.6,1,7.2,1.5,10.9c1.6,13.1,3.2,26.1,4.8,39.2c0.7,6.4,1.5,12.7,1.9,19.1c0.8,14.5,1.4,29,2,43.4
		C245,506.7,244.9,508.4,244.9,510.5z"/>
	<path class="st4" d="M292.5,326.9c3.3,2.2,6.6,4.6,10.1,6.7c3.9,2.3,6,5.6,5.7,10.1c-0.4,8.8-1,17.6-1.5,26.4
		c-0.7,14.3-1.3,28.5-2.2,42.8c-0.9,13.2-2.3,26.4-3.4,39.6c-1.1,12.2-2.1,24.3-3.2,36.5c-0.6,6.1-1.3,12.2-2.1,18.2
		c-0.3,2.4-1.4,3.8-4.2,3.7c-4-0.2-7.9-0.1-12.5-0.1c0-3,0-5.5,0-8c0-12,0.2-24-0.2-36c-0.8-27.8-2-55.6-2.8-83.4
		c-0.4-13.8-0.1-27.7-0.2-41.6c0-5.3,4.2-7.3,7.8-9.7C286.4,330.3,289.2,328.8,292.5,326.9z"/>
	<path class="st4" d="M378.7,329.8c-0.1,2.5-0.4,4.2-0.2,5.9c0.1,1.3,0.5,2.8,1.3,3.7c3,3.3,2.7,6.9,1.7,10.7
		c-0.5,1.8-0.5,3.8-0.9,5.7c-1.7,8.4-3.4,16.7-5.2,25.1c-1.7,8.4-3.4,16.7-5.3,25c-1.9,8.1-4.2,16-6.2,24.1
		c-1.5,6.3-2.7,12.6-4.1,18.9c-1.4,6-3.1,11.9-4.6,17.8c-1.3,5.1-2.3,10.2-3.6,15.2c-2.3,8.6-4.7,17.1-7,25.6
		c-0.2,0.8-0.3,1.7-0.4,2.9c-5.5,0-11,0-17.3,0c0.8-6.8,1.4-13.4,2.5-19.9c1.4-8.1,3.2-16.1,4.7-24.2c1.6-8.1,3.2-16.3,4.7-24.5
		c1.3-6.9,2.6-13.8,4-20.6c1.5-7.3,3.2-14.6,4.6-21.9c1.4-7,2.5-14.1,3.9-21.1c1.5-7.6,3.2-15.1,4.8-22.7c0.7-3.3,1.6-6.6,1.9-9.9
		c0.3-4.1,2.6-6.5,5.9-8.2C368.5,335,373.1,332.7,378.7,329.8z"/>
	<path class="st4" d="M168.5,331.2c4.7,2.7,9.4,5.5,14.2,8.2c8.1,4.7,8.7,13.2,10.4,21.1c1.7,7.4,3.3,14.8,4.8,22.3
		c0.9,4.3,1.4,8.7,2.3,12.9c1.5,7.7,3.3,15.4,4.8,23.1c1.4,7.2,2.4,14.5,3.8,21.7c1.3,6.6,3,13.1,4.5,19.7c0.8,3.6,1.5,7.2,2.2,10.8
		c1.1,5.5,2.5,11,3.3,16.5c0.5,3.5-0.2,7.1,0.1,10.7c0.3,3.9,1.1,7.8,1.8,12.5c-4,0-7.9,0.9-10.9-0.3c-2-0.8-3.4-4.3-4.2-6.9
		c-2.5-8-4.7-16.1-6.8-24.2c-1.5-5.8-2.5-11.8-3.9-17.6c-1.2-4.9-2.7-9.8-4-14.6c-2.1-7.8-4.2-15.7-6.2-23.6
		c-2.6-9.8-5.2-19.7-7.7-29.5c-2.1-8.3-4-16.7-6-25c-1.6-6.7-3.8-13.2-4.7-20c-0.7-5.5,0.1-11.1,0.3-16.7
		C167.2,331.8,167.9,331.5,168.5,331.2z"/>
	<path class="st5" d="M379.8,189.8c-2.2,5.5-3.7,11.4-6.8,16.4c-9.5,15.3-21.6,28.6-35.4,40.1c-12.3,10.2-24.2,20.8-37.6,29.7
		c-7.1,4.7-14.6,7-22.3,9.6c-7.2,2.4-14.2,5.3-21.4,7.7c-3,1-6.2,1.7-9.3,2.3c-0.6,0.1-1.3-0.7-2-1.1c0.5-0.6,0.8-1.5,1.4-1.8
		c5.8-3.1,12.1-5.4,17.2-9.2c10.4-7.6,20.3-16,30.1-24.3c3.7-3.1,8-6.5,9.6-10.7c3.3-8.9,12.3-11.9,17.2-18.9
		c6.4-9.1,13-18.1,19.6-27.1c4.4-6,8.3-12.3,13.4-17.6c4.7-4.9,11.6-5.3,18.1-5.6c3.7-0.2,7.2,5.2,7.1,10
		C379.1,189.5,379.4,189.7,379.8,189.8z"/>
	<path class="st4" d="M409.9,328.8c-0.7,2.5-1,3.7-1.4,5c-0.8,2.9-1.7,5.7,1.5,8c0.7,0.5,1.3,2,1.1,2.9c-1.2,6.2-2.5,12.3-3.9,18.5
		c-1.4,5.7-3,11.4-4.4,17.1c-1.4,5.5-2.6,11-4,16.4c-1.4,5.1-3.1,10.1-4.5,15.3c-2.5,9.3-4.9,18.7-7.4,28c-2.1,8-4.3,16-6.5,24
		c-2.5,9-4.9,17.9-7.5,26.9c-1.4,4.9-2.6,9.9-4.6,14.5c-1,2.2-3.5,4.4-5.8,5.2c-2.7,0.9-5.9,0.2-9.7,0.2c0.9-5.9,1.5-11.2,2.5-16.5
		c0.8-4.6,2-9.1,3.1-13.6c1.5-6.3,3.1-12.7,4.5-19c0.8-3.4,1.3-6.9,2.1-10.3c2.7-11.5,5.6-22.9,8.3-34.4c1.9-8.1,3.6-16.2,5.5-24.3
		c1.4-5.9,3-11.7,4.5-17.5c2-8,3.9-16,5.9-24c0.7-2.7,1-5.6,2.2-8.1c0.8-1.7,1.4-3.7,4.3-4.6c3.3-1,5.9-4,8.9-6.1
		C405.8,331.2,407.4,330.4,409.9,328.8z"/>
	<path class="st5" d="M403.4,225.2c6.3,1.3,12.7,2.5,18.9,4c2.8,0.7,5.7,8.5,5.2,11.4c-1.2,7.8-5.4,13.5-11,18.7
		c-7.3,6.6-14.2,13.9-23.4,18c-8.1,3.6-16.3,7.2-24.7,10c-6.1,2-12.6,2.6-18.9,3.7c-6.7,1.1-13.4,2-20.1,2.7
		c-3.7,0.4-7.4,0.3-11.2,0.3c-0.6,0-1.3-0.7-1.9-1.1c0.5-0.7,0.9-1.7,1.6-2.1c3.7-2.1,7.7-3.8,11.2-6.1c7.9-5.1,15.8-10.2,23.4-15.8
		c9.1-6.7,18.3-13.5,26.6-21.2c6.1-5.5,11-12.2,16.2-18.7C397.6,226.4,399.8,224.8,403.4,225.2z"/>
	<path class="st4" d="M143.2,335.7c12.3,2.2,14.5,11.6,17.1,20.2c4,12.9,7.2,26.1,10.8,39.1c2.8,10.4,5.6,20.7,8.3,31.1
		c2.4,9.2,4.7,18.5,6.8,27.8c1,4.7,1.1,9.5,2.2,14.2c1.8,8.1,4.1,16,6.1,24c0.9,3.4,1.5,6.9,2.3,10.3c0.5,2.5,1.1,5,1.8,8.1
		c-2.5,0-4.7,0.3-6.7-0.1c-1.1-0.2-2.7-1.3-3-2.3c-1.5-5.1-2.7-10.2-4.1-15.4c-1.3-4.8-2.7-9.6-4-14.4c-2-7.3-4-14.5-6-21.8
		c-1.3-4.7-2.9-9.4-4.1-14.2c-2.2-8.3-4.2-16.6-6.4-24.8c-2.4-8.7-5.1-17.3-7.5-26c-2.2-8.1-4-16.3-6.1-24.4
		c-2.1-8-4.4-15.9-6.4-23.9C143.4,341,143.4,338.4,143.2,335.7z"/>
	<path class="st4" d="M435.7,332.6c-0.8,3.1-1.4,6.2-2.3,9.2c-4.3,14.1-8.8,28.2-13.1,42.3c-3.2,10.5-6,21-9.1,31.5
		c-2.3,7.5-4.9,15-7.3,22.5c-2.7,8.5-5.3,17.1-8,25.5c-3,9.2-6.1,18.3-9.1,27.4c-1.6,5-2.9,10.2-4.8,15.2c-0.6,1.6-2.5,2.8-3.8,4.1
		c-0.8-2.1-2.6-4.5-2.2-6.3c3.6-15.2,7.6-30.4,11.6-45.5c3.2-11.9,6.6-23.7,9.8-35.6c3.1-11.5,5.9-23.1,9.1-34.6
		c3.1-11.4,6.4-22.7,9.7-34.1c1.2-4.2,2.7-8.3,3.6-12.5c0.6-2.9,2.1-4.2,4.7-5.2c3.6-1.3,6.9-3.3,10.4-5
		C435.1,332,435.4,332.3,435.7,332.6z"/>
	<path class="st5" d="M283.8,257.2c-2.9,2.4-5.2,4.3-7.5,6.2c-7,5.5-13.7,11.3-21,16.3c-6.7,4.5-14.2,7.6-22.6,8
		c-4.9,0.2-9.8,1.1-14.7,1.6c-0.3,0-0.7-0.1-0.8,0.1c-6.9,5.5-12.8,0-18.8-2.1c-4.8-1.7-9.2-4.4-13.7-6.6c-2.2-1.1-1.8-2.5,0-3.3
		c4.1-1.9,8.2-4.1,12.5-5c5.8-1.2,11.8-1.3,17.7-2.1c7.5-1,15-2.2,22.5-3.1c2.1-0.2,4.5,0.1,6.3,1c4.6,2.2,9.2,1.1,13.3-0.5
		c8.4-3.3,16.4-7.4,24.6-11.1C281.9,256.5,282.2,256.7,283.8,257.2z"/>
	<path class="st5" d="M396.8,205.2c-1.8,4.1-3,7.9-5,11.1c-3.4,5.4-6.9,10.9-11.2,15.6c-6.8,7.4-13.8,15-21.8,21
		c-12.8,9.6-26.5,18-40,26.7c-3.1,2-6.9,3-10.7,3.7c5.1-3.9,10.4-7.7,15.3-11.8c7.3-6,14.6-12,21.5-18.5
		c8.6-8.1,17.1-16.4,25.1-25.1c4.3-4.7,7.7-10.3,11.3-15.5C384.8,207.5,389,204.3,396.8,205.2z"/>
	<path class="st5" d="M322.6,211.4c-2.1-6.2-3.9-11.3-5.6-16.5c-0.8-2.5-1-5.4-2.3-7.6c-2-3.6-1.1-5.6,2.1-7.8
		c5.6-3.9,11.3-7,18.3-7.3c6.1-0.2,8.2,2.4,5.6,8.2c-2.3,5.2-5.4,10-8.1,14.9c-1.9,3.4-3.7,6.9-5.7,10.2
		C325.9,207.3,324.6,208.8,322.6,211.4z"/>
	<path class="st5" d="M230.1,306.4c-4.3,0-8.6,0-13,0c-3.1,0-6.3-0.1-9.4,0c-9.3,0.3-17.4-3.2-25.3-7.6c-3.8-2.1-7.6-4.1-11.3-6.2
		c-1.8-1-4.6-1.7-3.3-4.8c1.1-2.5,5.4-3.2,7.8-1.5c1.9,1.3,3.6,3.1,5.6,4.1c7.1,3.2,14.3,6.2,21.6,9.2c3.2,1.3,6.4,2.7,9.7,3.3
		c5.8,1.1,11.7,1.7,17.6,2.6C230,305.7,230,306.1,230.1,306.4z"/>
	<path class="st5" d="M310.2,170.8c-2-8.6-4-16.9-6-25.3c0.4-0.4,0.8-0.8,1.2-1.2c5.6,1.7,11.3,3.1,16.6,5.3c3.8,1.6,3,6,1.5,8.2
		C320.1,162.7,317.7,168.9,310.2,170.8z"/>
	<path class="st5" d="M280.9,243.6c9.7-6.4,16.8-16.6,29-20.1C309.4,229.2,288.5,243.5,280.9,243.6z"/>
</g>
<g id="Laag_2" class="st0">
</g>
<g id="Laag_3">
	<polygon class="st6" points="283.5,515.3 382.2,515.3 443.3,319.7 283.8,319.7 	"/>
	<linearGradient id="SVGID_1_" gradientUnits="userSpaceOnUse" x1="285.6409" y1="203.6375" x2="285.6409" y2="356.5991">
		<stop  offset="0" style="stop-color:#936037"/>
		<stop  offset="1" style="stop-color:#6E4827"/>
	</linearGradient>
	<path class="st7" d="M514.2,277.3c-5.9-29.9-44.5-51.1-44.5-51.1l-184.1,2.3c0,0-98.6-36.1-161.3-21.4
		c-23.7,5.6-61.4,40.3-67.3,70.2c-5.9,29.9,21,27,21,27l33,39.9l139.7,12.4l34.9-52.3l34.9,52.3l139.7-12.4l33-39.9
		C493.2,304.3,520.1,307.2,514.2,277.3z"/>
	<polygon class="st8" points="493.2,304.3 461.2,325.1 400.7,558.4 413.9,558.4 	"/>
	<polygon class="st9" points="400.7,558.4 370.7,558.4 423.2,325.1 456,304.3 461.2,325.1 	"/>
	<polygon class="st10" points="370.7,558.4 336.7,558.4 380.3,325.1 411.7,304.3 423.2,325.1 	"/>
	<polygon class="st11" points="336.7,558.4 303.2,558.4 323.2,325.1 358.5,304.3 380.3,325.1 	"/>
	<polygon class="st8" points="78,304.3 110.1,325.1 170.6,558.4 157.3,558.4 	"/>
	<polygon class="st9" points="170.6,558.4 200.5,558.4 148.1,325.1 115.3,304.3 110.1,325.1 	"/>
	<polygon class="st10" points="200.5,558.4 234.6,558.4 190.9,325.1 159.6,304.3 148.1,325.1 	"/>
	<polygon class="st11" points="234.6,558.4 268.1,558.4 248.1,325.1 212.8,304.3 190.9,325.1 	"/>
	<polygon class="st12" points="285.6,304.3 248.1,325.1 268.1,558.4 285.6,558.4 303.2,558.4 323.2,325.1 	"/>
	<linearGradient id="SVGID_2_" gradientUnits="userSpaceOnUse" x1="398.9159" y1="183.1853" x2="435.4379" y2="246.4433">
		<stop  offset="0" style="stop-color:#80CCEA"/>
		<stop  offset="0.1996" style="stop-color:#7FCAE7"/>
		<stop  offset="0.4178" style="stop-color:#7AC2DF"/>
		<stop  offset="0.6445" style="stop-color:#73B6D0"/>
		<stop  offset="0.8759" style="stop-color:#68A3BA"/>
		<stop  offset="1" style="stop-color:#6098AD"/>
	</linearGradient>
	<path class="st13" d="M469.7,226.3c0,0,16.7-27,0-38.8C453,175.7,416,173.3,416,173.3L358,234C358,234,431.5,254.1,469.7,226.3z"/>
	<path class="st14" d="M101.5,215.8c8-5.6,16-9.6,22.8-11.2c62.7-14.7,161.3,24,161.3,24l37.2-1l9.2-50.8
		c-20-31.7-36.5-166.5-36.5-166.5C176.2,77.6,36.8,88.4,36.8,88.4C51.8,100.2,101.5,215.8,101.5,215.8L101.5,215.8z"/>
	<linearGradient id="SVGID_3_" gradientUnits="userSpaceOnUse" x1="351.4652" y1="163.0373" x2="385.884" y2="222.6525">
		<stop  offset="0" style="stop-color:#80CCEA"/>
		<stop  offset="0.2014" style="stop-color:#7CC9E7"/>
		<stop  offset="0.4184" style="stop-color:#6EBFDE"/>
		<stop  offset="0.6427" style="stop-color:#57AFCE"/>
		<stop  offset="0.8706" style="stop-color:#3698B8"/>
		<stop  offset="1" style="stop-color:#1889A8"/>
	</linearGradient>
	<path class="st15" d="M442.5,174.6c0,0,16.3-24.1-10.3-28.1c-26.6-4-59.6,4.4-59.6,4.4l-83.7,66.3c0,0-4.6,20.5,18.9,23.2
		S385.2,241.2,442.5,174.6z"/>
	<linearGradient id="SVGID_4_" gradientUnits="userSpaceOnUse" x1="216.916" y1="156.1622" x2="216.916" y2="232.4395">
		<stop  offset="0.3619" style="stop-color:#80CCEA"/>
		<stop  offset="0.5002" style="stop-color:#79C8E6"/>
		<stop  offset="0.6735" style="stop-color:#64BBDB"/>
		<stop  offset="0.8646" style="stop-color:#40A6C8"/>
		<stop  offset="1" style="stop-color:#0F94B6"/>
	</linearGradient>
	<path class="st16" d="M217.8,229c0,0-59.5-0.7-78.5,2.1c-18.1,2.7-42.4,1.9-43.1-8.8s17.4-26.7,42.9-23.5c25.5,3.2,47.6,8.3,73,4.8
		c95.2-12.9,110.4-47.5,110.4-47.5l15.1,31.2L217.8,229z"/>
	<linearGradient id="SVGID_5_" gradientUnits="userSpaceOnUse" x1="280.8142" y1="155.7372" x2="319.3788" y2="222.533">
		<stop  offset="0" style="stop-color:#80CCEA"/>
		<stop  offset="0.1894" style="stop-color:#7AC8E7"/>
		<stop  offset="0.4162" style="stop-color:#68BCDC"/>
		<stop  offset="0.662" style="stop-color:#4AA9CA"/>
		<stop  offset="0.9197" style="stop-color:#0F8FB0"/>
		<stop  offset="1" style="stop-color:#0086A7"/>
	</linearGradient>
	<path class="st17" d="M410.2,145.5c0,0-3.4-50.4-53.5-32.7c-28.4,10.1-18.7,34.8-46.6,56c-37.7,28.5-113.5,18-126.7,57.7
		c-4.8,14.5,37.8,11.5,37.8,11.5s78.6-5.9,109.6-22.4C356.5,201.9,387.8,184,410.2,145.5z"/>
	<linearGradient id="SVGID_6_" gradientUnits="userSpaceOnUse" x1="322.8195" y1="18.6488" x2="322.8195" y2="116.1876">
		<stop  offset="0" style="stop-color:#80CCEA"/>
		<stop  offset="0.1884" style="stop-color:#75C5E3"/>
		<stop  offset="0.5074" style="stop-color:#57B0CF"/>
		<stop  offset="0.9157" style="stop-color:#1B8FAF"/>
		<stop  offset="1" style="stop-color:#0188A8"/>
	</linearGradient>
	<path class="st18" d="M339.2,71c-16.8-4.6-26.3-28.5-14.4-41.6c11.5-12.6-6.7-15.4-28-1.4c2.9,20.6,7.5,56.4,14.3,88.2l34.2-24.1
		C345.4,92.1,356.1,75.7,339.2,71z"/>
	<linearGradient id="SVGID_7_" gradientUnits="userSpaceOnUse" x1="342.6441" y1="77.6188" x2="342.6441" y2="155.8574">
		<stop  offset="0" style="stop-color:#80CCEA"/>
		<stop  offset="0.1887" style="stop-color:#7BC8E7"/>
		<stop  offset="0.4163" style="stop-color:#6BBDDC"/>
		<stop  offset="0.6639" style="stop-color:#50AACA"/>
		<stop  offset="0.9242" style="stop-color:#2491B0"/>
		<stop  offset="1" style="stop-color:#0E89A8"/>
	</linearGradient>
	<path class="st19" d="M348.7,80.2c0,0-25.4,15.7-33.6,21.5c-3.9,2.8-7.8,5.6-7.8,5.6c3.6,17.8,11.5,35.1,15.9,48.6
		c17.8-7.3,54.7-46.8,54.7-46.8C376.3,64.9,348.7,80.2,348.7,80.2z"/>
	<path class="st14" d="M323.2,155.9C307.4,107,295.6,10.3,295.6,10.3c-10.2,5.7-20.5,11.1-30.9,16C271,63.2,291.2,163.3,323.2,155.9
		L323.2,155.9z"/>
	<g>
		<path d="M295.6,10.3C295.6,10.3,295.6,10.3,295.6,10.3c0,0.1,0,0.1,0,0.1c0,0,0,0.1,0,0.2c0,0,0,0.1,0,0.1c0,0.1,0,0.2,0,0.3
			c0,0.1,0,0.1,0,0.2c0,0.1,0,0.2,0,0.3c0,0.1,0,0.2,0,0.4c0,0.1,0,0.1,0,0.2c0,0.3,0.1,0.7,0.1,1.1c0,0.1,0,0.3,0.1,0.4
			c0,0.1,0,0.2,0,0.4c0,0.2,0,0.4,0.1,0.6c0,0.2,0.1,0.5,0.1,0.7c0,0.2,0,0.3,0.1,0.5c0,0.3,0.1,0.6,0.1,0.9c0,0.1,0,0.2,0,0.3
			c0,0.3,0.1,0.7,0.1,1c0,0.2,0,0.3,0.1,0.5c0,0.3,0.1,0.7,0.1,1c0,0.1,0,0.2,0,0.3c0.3,1.9,0.5,4,0.9,6.3c0,0,0,0.1,0,0.1
			c0.1,0.4,0.1,0.8,0.2,1.2c9.4-6,18.2-8.7,23.9-8.7c6.9,0,9.4,3.9,3.1,10.7c-12,13.1-2.5,37,14.4,41.6c6.6,1.8,9,5.5,9.4,9.2
			c0.1,0,0.1-0.1,0.1-0.1s4.6-2.6,10.2-2.6c8,0,18.1,5.3,19,31.5c29.7,1.3,32.2,36.1,32.3,36.5c2.1-0.1,4.1-0.1,6.2-0.1
			c5.3,0,10.7,0.3,15.8,1.1c26.6,4,10.3,28.1,10.3,28.1c-0.6,0.7-1.3,1.5-1.9,2.2c10.4,2.1,21.7,5.5,29.1,10.7
			c16.7,11.8,0,38.8,0,38.8s38.6,21.2,44.5,51.1c4.9,25.1-13.2,27.1-19.2,27.1c-1.1,0-1.8-0.1-1.8-0.1l-79.3,254.1h-13.3h-29.9
			h-34.1h-33.4h-17.6h-17.6h-33.4h-34.1h-29.9h-13.3L78,304.3c0,0-0.7,0.1-1.8,0.1c-6,0-24.1-2-19.2-27.1
			c3.8-19.4,21.1-40.8,39.2-55c0,0,0,0,0,0c-0.2-2.6,1.3-6,3.9-9.7C92,193.9,50.3,99,36.8,88.4c0,0,116.6-9.1,227.9-62.2
			c5.1-2.4,10.2-5,15.2-7.6c0.3-0.1,0.5-0.3,0.8-0.4c2.1-1.1,4.1-2.2,6.2-3.3c0.6-0.3,1.1-0.6,1.7-0.9
			C290.9,12.8,293.2,11.6,295.6,10.3 M299.6,2.2l-6.5,3.7c-2.1,1.2-4.3,2.4-6.9,3.8c-0.4,0.2-0.8,0.4-1.2,0.6l-0.5,0.3
			c-2.2,1.2-4.2,2.2-6.1,3.2l-0.4,0.2l-0.4,0.2c-4.9,2.6-10,5.1-15.1,7.5C205.5,49,147,64.3,108,72.4c-42.3,8.7-71.3,11.1-71.6,11.1
			l-12.8,1l10.2,7.9c2.3,1.8,10.1,11,32.3,57.2c12.2,25.3,23.9,51.9,28.5,62.5c-1.7,2.7-2.7,5.3-3.1,7.7c-9.1,7.4-17.4,16-24.2,25.1
			c-8,10.8-13.2,21.7-15.1,31.5c-2.1,10.5-0.7,18.9,4.1,24.7c5.4,6.5,13.5,8,18.1,8.3l78.2,250.5l1.1,3.5h3.7h13.3h29.9h34.1h33.4
			h17.6h17.6h33.4h34.1h29.9h13.3h3.7l1.1-3.5l78.2-250.5c4.6-0.3,12.8-1.7,18.1-8.3c4.8-5.9,6.2-14.2,4.1-24.7
			c-2.7-13.5-11.4-26.8-26.1-39.5c-6.5-5.7-12.7-9.9-16.7-12.4c1.5-3,3.3-7.2,4.5-11.9c4.2-16.3-2.2-24.9-8.2-29.1
			c-5.6-3.9-13.5-7.2-23.7-9.8c2.4-4.8,5.4-13.2,2.2-20.6c-2.7-6.1-8.8-10-18.1-11.4c-5-0.8-10.6-1.1-16.6-1.1c-0.6,0-1.2,0-1.9,0
			c-0.7-3.8-2.1-9.3-4.8-14.9c-5.8-11.9-15.1-19.1-27-20.9c-0.9-10.6-3.4-18.7-7.7-24.1c-4-5.1-9.6-7.8-16.1-7.8
			c-2.8,0-5.3,0.5-7.3,1.1c-1.8-2.9-5.1-5.9-11-7.5c-6.9-1.9-12.9-8.3-15.1-16.2c-1.9-6.7-0.8-12.9,3.1-17.2
			c5.6-6.2,5.4-10.7,4.2-13.5c-0.9-2.1-3.6-5.7-11-5.7c-5.7,0-12.7,2-20,5.7c0-0.1,0-0.2,0-0.3l0-0.1l0-0.2l-0.1-1l-0.1-0.5
			l-0.1-0.9l0-0.1l0-0.2l0-0.1l-0.1-0.9l0-0.3l0-0.2l-0.1-0.7l0-0.4l0-0.2l0-0.2l0-0.1l0-0.2l0-0.2l-0.1-1.1l0-0.2l0-0.4l0-0.2
			l0-0.1l0-0.1l0-0.1l0,0l0,0l0-0.3l0-0.1l0-0.2l0,0l0,0l0-0.1L299.6,2.2L299.6,2.2z"/>
	</g>
	<g>
		<g>
			<path d="M120.5,156.8c0.7,3.1-1.1,5.9-5.5,8.3c-3.4,1.9-7.2,3.1-11.2,3.6c-10.9,1.3-17.3-3.6-19.1-14.5
				c-0.7-4.5-0.3-9.6,1.2-15.3c1.9-7,4.9-10.8,8.9-11.2c3.7-0.4,7.9,0.6,12.7,3c4.8,2.5,7.5,5.3,8.2,8.6c0.8,4.1-0.5,7.6-4.1,10.6
				c-3.1,2.7-7.2,4.3-12.2,4.9c-1,0.1-2.6-0.2-5-1c1.3,5.9,3.8,8.6,7.5,8.2c3.1-0.4,5.9-1.5,8.6-3.5c2.6-1.9,4.3-3,5.2-3.1
				C118.6,154.8,120.2,155.4,120.5,156.8z M105.8,140.9c-0.3-1.5-1-3-2.3-4.2c-1.2-1.3-2.6-1.8-4.3-1.6c-2.2,0.3-3.8,1.4-4.7,3.3
				c-0.8,1.7-1,3.6-0.6,5.7c0.2,1.2,0.8,2.1,1.8,2.7c1,0.6,2.2,0.9,3.6,0.7C104.4,146.9,106.5,144.7,105.8,140.9z"/>
			<path d="M160.8,141.6c2.1,7.8,3.4,13.4,3.7,16.8c0.2,2-1,3.2-3.5,3.7c-3.8,0.8-6-0.6-6.5-4.1c-3,2.2-6.4,3.6-10.1,4.3
				c-3.6,0.7-7.2,0.5-10.8-0.6c-4.3-1.3-6.8-3.4-7.4-6.3c-0.6-2.9,1-5.9,4.7-9.2c3.4-2.9,6.8-4.7,10.2-5.4c2.8-0.5,5.7-1.1,8.5-1.6
				c-0.2-0.7-0.4-1.5-0.5-2.2c-1.5-6.4-4.3-9.2-8.4-8.4c-5.2,1-7.3,3.7-6.3,8.2c0.3,1.5-0.4,2.4-2.3,2.8c-1.1,0.2-2.4-0.1-3.9-0.8
				c-1.4-0.7-2.3-1.6-2.5-2.7c-0.7-3.5,0-6.5,2.2-9.2c2.2-2.7,5.1-4.3,8.7-5C148.9,119.6,156.7,126.1,160.8,141.6z M151.6,147
				c-0.3-1.2-1.5-1.6-3.5-1.2c-8.4,1.6-12.2,4.1-11.3,7.8c0.5,2,2.6,2.6,6.3,1.9c2.3-0.4,4.3-1.4,6.1-3
				C151.3,150.7,152.1,148.9,151.6,147z"/>
			<path d="M186.5,117.2c0.5,1.6-1.8,3.5-6.8,5.5c0.3,1.4,1.1,4.4,2.4,9.1c0.6,2,1.2,4,1.8,6c0.4,1.2,1.1,2.9,2.2,5.2
				c1.1,2.2,1.9,3.9,2.2,5.1c0.3,1,0,2-0.8,3c-0.8,1-1.8,1.7-2.8,1.9c-1.7,0.4-3.5-0.5-5.4-2.9c-1.5-1.8-2.5-3.6-3-5.5
				c-1.9-6.4-3.7-12.8-5.4-19.3c-3.1,0.3-4.9,0.4-5.4,0.4c-1.8-0.1-2.8-0.6-3.1-1.5c-0.1-0.2-0.1-0.5,0-0.9c1.1-2.6,2.7-4.2,4.7-4.6
				c0.1,0,0.3-0.1,0.6-0.1c0.3,0,0.5,0,0.6,0c1.3-0.3,1.6-2,0.7-4.9c-0.6-2.2-1.2-4.4-1.7-6.6c-0.5-0.6-0.8-1.1-0.9-1.6
				c-0.2-0.8,0.1-1.6,0.9-2.5c0.8-0.9,1.6-1.4,2.5-1.6c1.3-0.3,2.7,0,4.2,0.9c1.5,0.9,2.4,2,2.8,3.3c0.4,1.5,0.6,2.9,0.5,4.5
				c-0.1,1.5,0.1,3.1,0.6,4.6c0,0.1,0.1,0.2,0.1,0.4C182.9,114,185.8,114.8,186.5,117.2z"/>
			<path d="M265.7,126.7c-1.6,2-2.9,3.2-4,3.7c-0.8,0.3-2.2,0.4-4.2,0.2c-0.4-0.9-1.1-2.5-2-4.8c-0.8-2-1.5-3.6-2-4.8
				c-6.3-15.5-10.5-22.8-13.2-21.8c-2,0.7-2.7,3.7-2.1,8.8c0.4,3.8,1.2,7.1,2.3,10.1c1,2.7,2.1,5.4,3.1,8.1c0.2,0.4,0.6,1,1.2,1.6
				c0.6,0.7,1,1.2,1.2,1.6c0.4,0.9,0.2,2-0.6,3.1c-0.8,1.1-1.7,1.8-2.7,2.2c-1.1,0.4-2.4,0.2-3.8-0.4c-1.5-0.6-2.4-1.4-2.7-2.4
				c-2.1-5.5-4.1-10.9-6.1-16.4c-2.4-6.7-4.4-9.7-5.9-9.2c-0.3,0.1-0.6,0.8-1,2.2c-2.5,7.1-2.6,14-0.3,20.5c0.3,0.9,1,2.3,1.9,4
				c0.9,1.7,1.6,3,1.9,3.9c0.4,1.2,0.4,2.3-0.1,3.3c-0.5,1-1.4,1.7-2.7,2.1c-1.5,0.5-2.9,0.4-4.1-0.3c-0.5-0.3-1.4-1.6-2.6-3.8
				c-1.2-2.1-1.9-3.5-2.2-4.4c-2.2-6.5-4.4-12.9-6.6-19.4c-0.5-1.4-0.7-3.4-0.7-6c0-3.1,0.5-4.9,1.6-5.2c1.2-0.4,2.5-0.3,3.8,0.3
				c1.3,0.6,2.1,1.5,2.3,2.7c0.8-3.4,2.6-5.6,5.4-6.5c3.5-1.1,7,0.2,10.9,3.9c0.2-3,0.6-5.2,1.1-6.5c0.9-2.2,2.4-3.7,4.6-4.5
				c2.2-0.8,4.9-0.5,8,1c5.4,2.4,10.1,8.3,14,17.7C261.3,116.4,263.5,121.5,265.7,126.7z"/>
			<path d="M298.6,104.1c1.4,2.8,0.4,5.9-2.9,9.4c-2.6,2.7-5.7,4.8-9.2,6.3c-9.4,4-16.5,0.8-20.8-9.3c-1.8-4.2-2.7-9.2-2.7-15.1
				c-0.1-7.3,1.7-11.6,5.2-13.1c3.2-1.3,7.2-1.4,12.1-0.2c4.9,1.2,8.1,3.2,9.5,6.2c1.7,3.7,1.4,7.5-1,11.3c-2.1,3.4-5.4,6-9.7,7.8
				c-0.8,0.4-2.4,0.4-4.7,0.2c2.6,5.4,5.6,7.4,8.8,6c2.7-1.1,4.9-3,6.8-5.5c1.9-2.5,3.2-4,3.9-4.3
				C296.3,102.6,297.9,102.7,298.6,104.1z M281.4,92.3c-0.6-1.4-1.7-2.6-3.1-3.5c-1.4-0.9-2.8-1.1-4.2-0.5c-1.9,0.8-3.1,2.3-3.4,4.4
				c-0.3,1.8,0,3.7,0.9,5.6c0.5,1.1,1.2,1.8,2.3,2.2c1.1,0.4,2.2,0.3,3.4-0.2C281.6,98.5,282.9,95.8,281.4,92.3z"/>
		</g>
	</g>
</g>
</svg>
