<svg xmlns="http://www.w3.org/2000/svg" viewBox="0 0 566.9 566.9"><style>.st1{fill:#fff}.st1,.st4,.st5{display:inline}.st4{fill:#fee6cb}.st5{fill:#b6dfe9}.st8{fill:#a9a08f}.st9{fill:#b4ab99}.st10{fill:#bcb29f}.st11{fill:#c3b8a4}.st14{fill:#fff}</style><g id="Laag_3"><linearGradient id="SVGID_1_" gradientUnits="userSpaceOnUse" x1="285.641" y1="203.637" x2="285.641" y2="356.599"><stop offset="0" stop-color="#936037"/><stop offset="1" stop-color="#6e4827"/></linearGradient><path d="M514.2 277.3c-5.9-29.9-44.5-51.1-44.5-51.1l-184.1 2.3s-98.6-36.1-161.3-21.4c-23.7 5.6-61.4 40.3-67.3 70.2-5.9 29.9 21 27 21 27l33 39.9 139.7 12.4 34.9-52.3 34.9 52.3 139.7-12.4 33-39.9s26.9 2.9 21-27z" fill="url(#SVGID_1_)"/><path class="st8" d="M493.2 304.3l-32 20.8-60.5 233.3h13.2z"/><path class="st9" d="M400.7 558.4h-30l52.5-233.3 32.8-20.8 5.2 20.8z"/><path class="st10" d="M370.7 558.4h-34l43.6-233.3 31.4-20.8 11.5 20.8z"/><path class="st11" d="M336.7 558.4h-33.5l20-233.3 35.3-20.8 21.8 20.8z"/><path class="st8" d="M78 304.3l32.1 20.8 60.5 233.3h-13.3z"/><path class="st9" d="M170.6 558.4h29.9l-52.4-233.3-32.8-20.8-5.2 20.8z"/><path class="st10" d="M200.5 558.4h34.1l-43.7-233.3-31.3-20.8-11.5 20.8z"/><path class="st11" d="M234.6 558.4h33.5l-20-233.3-35.3-20.8-21.9 20.8z"/><path fill="#c9bda9" d="M285.6 304.3l-37.5 20.8 20 233.3h35.1l20-233.3z"/><linearGradient id="SVGID_2_" gradientUnits="userSpaceOnUse" x1="398.916" y1="183.185" x2="435.438" y2="246.443"><stop offset="0" stop-color="#80ccea"/><stop offset=".2" stop-color="#7fcae7"/><stop offset=".418" stop-color="#7ac2df"/><stop offset=".644" stop-color="#73b6d0"/><stop offset=".876" stop-color="#68a3ba"/><stop offset="1" stop-color="#6098ad"/></linearGradient><path d="M469.7 226.3s16.7-27 0-38.8C453 175.7 416 173.3 416 173.3L358 234s73.5 20.1 111.7-7.7z" fill="url(#SVGID_2_)"/><path class="st14" d="M101.5 215.8c8-5.6 16-9.6 22.8-11.2 62.7-14.7 161.3 24 161.3 24l37.2-1 9.2-50.8c-20-31.7-36.5-166.5-36.5-166.5C176.2 77.6 36.8 88.4 36.8 88.4c15 11.8 64.7 127.4 64.7 127.4z"/><linearGradient id="SVGID_3_" gradientUnits="userSpaceOnUse" x1="351.465" y1="163.037" x2="385.884" y2="222.653"><stop offset="0" stop-color="#80ccea"/><stop offset=".201" stop-color="#7cc9e7"/><stop offset=".418" stop-color="#6ebfde"/><stop offset=".643" stop-color="#57afce"/><stop offset=".871" stop-color="#3698b8"/><stop offset="1" stop-color="#1889a8"/></linearGradient><path d="M442.5 174.6s16.3-24.1-10.3-28.1-59.6 4.4-59.6 4.4l-83.7 66.3s-4.6 20.5 18.9 23.2 77.4.8 134.7-65.8z" fill="url(#SVGID_3_)"/><linearGradient id="SVGID_4_" gradientUnits="userSpaceOnUse" x1="216.916" y1="156.162" x2="216.916" y2="232.44"><stop offset=".362" stop-color="#80ccea"/><stop offset=".5" stop-color="#79c8e6"/><stop offset=".673" stop-color="#64bbdb"/><stop offset=".865" stop-color="#40a6c8"/><stop offset="1" stop-color="#0f94b6"/></linearGradient><path d="M217.8 229s-59.5-.7-78.5 2.1c-18.1 2.7-42.4 1.9-43.1-8.8s17.4-26.7 42.9-23.5c25.5 3.2 47.6 8.3 73 4.8 95.2-12.9 110.4-47.5 110.4-47.5l15.1 31.2L217.8 229z" fill="url(#SVGID_4_)"/><linearGradient id="SVGID_5_" gradientUnits="userSpaceOnUse" x1="280.814" y1="155.737" x2="319.379" y2="222.533"><stop offset="0" stop-color="#80ccea"/><stop offset=".189" stop-color="#7ac8e7"/><stop offset=".416" stop-color="#68bcdc"/><stop offset=".662" stop-color="#4aa9ca"/><stop offset=".92" stop-color="#0f8fb0"/><stop offset="1" stop-color="#0086a7"/></linearGradient><path d="M410.2 145.5s-3.4-50.4-53.5-32.7c-28.4 10.1-18.7 34.8-46.6 56-37.7 28.5-113.5 18-126.7 57.7-4.8 14.5 37.8 11.5 37.8 11.5s78.6-5.9 109.6-22.4c25.7-13.7 57-31.6 79.4-70.1z" fill="url(#SVGID_5_)"/><linearGradient id="SVGID_6_" gradientUnits="userSpaceOnUse" x1="322.82" y1="18.649" x2="322.82" y2="116.188"><stop offset="0" stop-color="#80ccea"/><stop offset=".188" stop-color="#75c5e3"/><stop offset=".507" stop-color="#57b0cf"/><stop offset=".916" stop-color="#1b8faf"/><stop offset="1" stop-color="#0188a8"/></linearGradient><path d="M339.2 71c-16.8-4.6-26.3-28.5-14.4-41.6 11.5-12.6-6.7-15.4-28-1.4 2.9 20.6 7.5 56.4 14.3 88.2l34.2-24.1c.1 0 10.8-16.4-6.1-21.1z" fill="url(#SVGID_6_)"/><linearGradient id="SVGID_7_" gradientUnits="userSpaceOnUse" x1="342.644" y1="77.619" x2="342.644" y2="155.857"><stop offset="0" stop-color="#80ccea"/><stop offset=".189" stop-color="#7bc8e7"/><stop offset=".416" stop-color="#6bbddc"/><stop offset=".664" stop-color="#50aaca"/><stop offset=".924" stop-color="#2491b0"/><stop offset="1" stop-color="#0e89a8"/></linearGradient><path d="M348.7 80.2s-25.4 15.7-33.6 21.5l-7.8 5.6c3.6 17.8 11.5 35.1 15.9 48.6 17.8-7.3 54.7-46.8 54.7-46.8-1.6-44.2-29.2-28.9-29.2-28.9z" fill="url(#SVGID_7_)"/><path class="st14" d="M323.2 155.9C307.4 107 295.6 10.3 295.6 10.3c-10.2 5.7-20.5 11.1-30.9 16 6.3 36.9 26.5 137 58.5 129.6z"/><path d="M295.6 10.3v1.8c0 .3.1.7.1 1.1 0 .1 0 .3.1.4v.4c0 .2 0 .4.1.6 0 .2.1.5.1.7 0 .2 0 .3.1.5 0 .3.1.6.1.9v.3c0 .3.1.7.1 1 0 .2 0 .3.1.5 0 .3.1.7.1 1v.3c.3 1.9.5 4 .9 6.3v.1c.1.4.1.8.2 1.2 9.4-6 18.2-8.7 23.9-8.7 6.9 0 9.4 3.9 3.1 10.7-12 13.1-2.5 37 14.4 41.6 6.6 1.8 9 5.5 9.4 9.2.1 0 .1-.1.1-.1s4.6-2.6 10.2-2.6c8 0 18.1 5.3 19 31.5 29.7 1.3 32.2 36.1 32.3 36.5 2.1-.1 4.1-.1 6.2-.1 5.3 0 10.7.3 15.8 1.1 26.6 4 10.3 28.1 10.3 28.1-.6.7-1.3 1.5-1.9 2.2 10.4 2.1 21.7 5.5 29.1 10.7 16.7 11.8 0 38.8 0 38.8s38.6 21.2 44.5 51.1c4.9 25.1-13.2 27.1-19.2 27.1-1.1 0-1.8-.1-1.8-.1l-79.3 254.1H157.1L78 304.3s-.7.1-1.8.1c-6 0-24.1-2-19.2-27.1 3.8-19.4 21.1-40.8 39.2-55-.2-2.6 1.3-6 3.9-9.7C92 193.9 50.3 99 36.8 88.4c0 0 116.6-9.1 227.9-62.2 5.1-2.4 10.2-5 15.2-7.6.3-.1.5-.3.8-.4 2.1-1.1 4.1-2.2 6.2-3.3.6-.3 1.1-.6 1.7-.9 2.3-1.2 4.6-2.4 7-3.7m4-8.1l-6.5 3.7c-2.1 1.2-4.3 2.4-6.9 3.8l-1.2.6-.5.3c-2.2 1.2-4.2 2.2-6.1 3.2l-.4.2-.4.2c-4.9 2.6-10 5.1-15.1 7.5C205.5 49 147 64.3 108 72.4c-42.3 8.7-71.3 11.1-71.6 11.1l-12.8 1 10.2 7.9c2.3 1.8 10.1 11 32.3 57.2 12.2 25.3 23.9 51.9 28.5 62.5-1.7 2.7-2.7 5.3-3.1 7.7-9.1 7.4-17.4 16-24.2 25.1-8 10.8-13.2 21.7-15.1 31.5-2.1 10.5-.7 18.9 4.1 24.7 5.4 6.5 13.5 8 18.1 8.3l78.2 250.5 1.1 3.5h264l1.1-3.5L497 309.4c4.6-.3 12.8-1.7 18.1-8.3 4.8-5.9 6.2-14.2 4.1-24.7-2.7-13.5-11.4-26.8-26.1-39.5-6.5-5.7-12.7-9.9-16.7-12.4 1.5-3 3.3-7.2 4.5-11.9 4.2-16.3-2.2-24.9-8.2-29.1-5.6-3.9-13.5-7.2-23.7-9.8 2.4-4.8 5.4-13.2 2.2-20.6-2.7-6.1-8.8-10-18.1-11.4-5-.8-10.6-1.1-16.6-1.1h-1.9c-.7-3.8-2.1-9.3-4.8-14.9-5.8-11.9-15.1-19.1-27-20.9-.9-10.6-3.4-18.7-7.7-24.1-4-5.1-9.6-7.8-16.1-7.8-2.8 0-5.3.5-7.3 1.1-1.8-2.9-5.1-5.9-11-7.5-6.9-1.9-12.9-8.3-15.1-16.2-1.9-6.7-.8-12.9 3.1-17.2 5.6-6.2 5.4-10.7 4.2-13.5-.9-2.1-3.6-5.7-11-5.7-5.7 0-12.7 2-20 5.7V19l-.1-1-.1-.5-.1-.9v-.4l-.1-.9v-.5l-.1-.7v-1.3l-.1-1.1V9.9l-1.7-7.7z"/><path d="M120.5 156.8c.7 3.1-1.1 5.9-5.5 8.3-3.4 1.9-7.2 3.1-11.2 3.6-10.9 1.3-17.3-3.6-19.1-14.5-.7-4.5-.3-9.6 1.2-15.3 1.9-7 4.9-10.8 8.9-11.2 3.7-.4 7.9.6 12.7 3 4.8 2.5 7.5 5.3 8.2 8.6.8 4.1-.5 7.6-4.1 10.6-3.1 2.7-7.2 4.3-12.2 4.9-1 .1-2.6-.2-5-1 1.3 5.9 3.8 8.6 7.5 8.2 3.1-.4 5.9-1.5 8.6-3.5 2.6-1.9 4.3-3 5.2-3.1 2.9-.6 4.5 0 4.8 1.4zm-14.7-15.9c-.3-1.5-1-3-2.3-4.2-1.2-1.3-2.6-1.8-4.3-1.6-2.2.3-3.8 1.4-4.7 3.3-.8 1.7-1 3.6-.6 5.7.2 1.2.8 2.1 1.8 2.7 1 .6 2.2.9 3.6.7 5.1-.6 7.2-2.8 6.5-6.6zm55 .7c2.1 7.8 3.4 13.4 3.7 16.8.2 2-1 3.2-3.5 3.7-3.8.8-6-.6-6.5-4.1-3 2.2-6.4 3.6-10.1 4.3-3.6.7-7.2.5-10.8-.6-4.3-1.3-6.8-3.4-7.4-6.3-.6-2.9 1-5.9 4.7-9.2 3.4-2.9 6.8-4.7 10.2-5.4 2.8-.5 5.7-1.1 8.5-1.6-.2-.7-.4-1.5-.5-2.2-1.5-6.4-4.3-9.2-8.4-8.4-5.2 1-7.3 3.7-6.3 8.2.3 1.5-.4 2.4-2.3 2.8-1.1.2-2.4-.1-3.9-.8-1.4-.7-2.3-1.6-2.5-2.7-.7-3.5 0-6.5 2.2-9.2 2.2-2.7 5.1-4.3 8.7-5 12.3-2.3 20.1 4.2 24.2 19.7zm-9.2 5.4c-.3-1.2-1.5-1.6-3.5-1.2-8.4 1.6-12.2 4.1-11.3 7.8.5 2 2.6 2.6 6.3 1.9 2.3-.4 4.3-1.4 6.1-3 2.1-1.8 2.9-3.6 2.4-5.5zm34.9-29.8c.5 1.6-1.8 3.5-6.8 5.5.3 1.4 1.1 4.4 2.4 9.1l1.8 6c.4 1.2 1.1 2.9 2.2 5.2 1.1 2.2 1.9 3.9 2.2 5.1.3 1 0 2-.8 3s-1.8 1.7-2.8 1.9c-1.7.4-3.5-.5-5.4-2.9-1.5-1.8-2.5-3.6-3-5.5-1.9-6.4-3.7-12.8-5.4-19.3-3.1.3-4.9.4-5.4.4-1.8-.1-2.8-.6-3.1-1.5-.1-.2-.1-.5 0-.9 1.1-2.6 2.7-4.2 4.7-4.6.1 0 .3-.1.6-.1h.6c1.3-.3 1.6-2 .7-4.9-.6-2.2-1.2-4.4-1.7-6.6-.5-.6-.8-1.1-.9-1.6-.2-.8.1-1.6.9-2.5.8-.9 1.6-1.4 2.5-1.6 1.3-.3 2.7 0 4.2.9s2.4 2 2.8 3.3c.4 1.5.6 2.9.5 4.5-.1 1.5.1 3.1.6 4.6 0 .1.1.2.1.4 4.9-1.1 7.8-.3 8.5 2.1zm79.2 9.5c-1.6 2-2.9 3.2-4 3.7-.8.3-2.2.4-4.2.2-.4-.9-1.1-2.5-2-4.8-.8-2-1.5-3.6-2-4.8-6.3-15.5-10.5-22.8-13.2-21.8-2 .7-2.7 3.7-2.1 8.8.4 3.8 1.2 7.1 2.3 10.1 1 2.7 2.1 5.4 3.1 8.1.2.4.6 1 1.2 1.6.6.7 1 1.2 1.2 1.6.4.9.2 2-.6 3.1s-1.7 1.8-2.7 2.2c-1.1.4-2.4.2-3.8-.4-1.5-.6-2.4-1.4-2.7-2.4-2.1-5.5-4.1-10.9-6.1-16.4-2.4-6.7-4.4-9.7-5.9-9.2-.3.1-.6.8-1 2.2-2.5 7.1-2.6 14-.3 20.5.3.9 1 2.3 1.9 4 .9 1.7 1.6 3 1.9 3.9.4 1.2.4 2.3-.1 3.3s-1.4 1.7-2.7 2.1c-1.5.5-2.9.4-4.1-.3-.5-.3-1.4-1.6-2.6-3.8-1.2-2.1-1.9-3.5-2.2-4.4-2.2-6.5-4.4-12.9-6.6-19.4-.5-1.4-.7-3.4-.7-6 0-3.1.5-4.9 1.6-5.2 1.2-.4 2.5-.3 3.8.3 1.3.6 2.1 1.5 2.3 2.7.8-3.4 2.6-5.6 5.4-6.5 3.5-1.1 7 .2 10.9 3.9.2-3 .6-5.2 1.1-6.5.9-2.2 2.4-3.7 4.6-4.5 2.2-.8 4.9-.5 8 1 5.4 2.4 10.1 8.3 14 17.7 1.9 5.1 4.1 10.2 6.3 15.4zm32.9-22.6c1.4 2.8.4 5.9-2.9 9.4-2.6 2.7-5.7 4.8-9.2 6.3-9.4 4-16.5.8-20.8-9.3-1.8-4.2-2.7-9.2-2.7-15.1-.1-7.3 1.7-11.6 5.2-13.1 3.2-1.3 7.2-1.4 12.1-.2 4.9 1.2 8.1 3.2 9.5 6.2 1.7 3.7 1.4 7.5-1 11.3-2.1 3.4-5.4 6-9.7 7.8-.8.4-2.4.4-4.7.2 2.6 5.4 5.6 7.4 8.8 6 2.7-1.1 4.9-3 6.8-5.5 1.9-2.5 3.2-4 3.9-4.3 2.4-1.2 4-1.1 4.7.3zm-17.2-11.8c-.6-1.4-1.7-2.6-3.1-3.5-1.4-.9-2.8-1.1-4.2-.5-1.9.8-3.1 2.3-3.4 4.4-.3 1.8 0 3.7.9 5.6.5 1.1 1.2 1.8 2.3 2.2 1.1.4 2.2.3 3.4-.2 4.3-1.8 5.6-4.5 4.1-8z"/></g></svg>