<svg xmlns="http://www.w3.org/2000/svg" xmlns:xlink="http://www.w3.org/1999/xlink" viewBox="0 0 492.52 558.09"><defs><linearGradient id="a" x1="67.9" y1="251.32" x2="94.51" y2="297.41" gradientTransform="matrix(0.75, -0.66, 0.66, 0.75, -116.03, 211.22)" gradientUnits="userSpaceOnUse"><stop offset="0" stop-color="#fff5eb"/><stop offset="0.31" stop-color="#fef2e4"/><stop offset="0.77" stop-color="#fae8cf"/><stop offset="1" stop-color="#f7e2c2"/></linearGradient><linearGradient id="b" x1="117.63" y1="269.76" x2="149.06" y2="324.21" gradientTransform="matrix(0.75, -0.66, 0.66, 0.75, -116.03, 211.22)" gradientUnits="userSpaceOnUse"><stop offset="0" stop-color="#fff5eb"/><stop offset="0.21" stop-color="#fdf1e4"/><stop offset="0.52" stop-color="#f6e6cf"/><stop offset="0.74" stop-color="#f0dcbd"/></linearGradient><linearGradient id="c" x1="198.85" y1="174.9" x2="222.87" y2="174.9" xlink:href="#b"/><linearGradient id="d" x1="58.15" y1="120.61" x2="112.6" y2="120.61" gradientTransform="matrix(0.65, -0.6, 0.64, 0.77, -102.29, 203.54)" xlink:href="#b"/><linearGradient id="e" x1="143.31" y1="73.24" x2="143.31" y2="299.8" gradientTransform="matrix(0.75, -0.66, 0.66, 0.75, -116.03, 211.22)" gradientUnits="userSpaceOnUse"><stop offset="0" stop-color="#ebebeb"/><stop offset="0.29" stop-color="#ebebeb"/><stop offset="0.52" stop-color="#e6e6e6"/><stop offset="0.77" stop-color="#d9d9d9"/><stop offset="1" stop-color="#c6c6c6"/></linearGradient><radialGradient id="f" cx="88.38" cy="226.16" r="26.32" gradientTransform="matrix(0.92, -0.4, 0.4, 0.92, -63.72, 92.32)" gradientUnits="userSpaceOnUse"><stop offset="0" stop-color="#be1622"/><stop offset="1" stop-color="#9e151a"/></radialGradient><radialGradient id="g" cx="118.36" cy="179.42" r="11.6" gradientTransform="matrix(0.96, -0.29, 0.29, 0.96, -50.66, 52.59)" xlink:href="#f"/><radialGradient id="h" cx="49.7" cy="149.95" r="11.6" gradientTransform="translate(-70.76 107.16) rotate(-26.68)" xlink:href="#f"/><radialGradient id="i" cx="265.58" cy="558" r="11.6" gradientTransform="translate(599.87 703.99) rotate(152.03)" xlink:href="#f"/><radialGradient id="j" cx="218.45" cy="516.43" r="11.6" gradientTransform="translate(515.91 755.16) rotate(165.11)" xlink:href="#f"/><linearGradient id="k" x1="129.91" y1="79.06" x2="196.13" y2="79.06" gradientTransform="translate(-118.16 116.76) rotate(-12.78)" xlink:href="#b"/><linearGradient id="l" x1="134.89" y1="58.75" x2="201.28" y2="76.54" gradientTransform="matrix(0.75, -0.66, 0.66, 0.75, -116.03, 211.22)" gradientUnits="userSpaceOnUse"><stop offset="0" stop-color="#e9e9e9"/><stop offset="0.21" stop-color="#e5e5e5"/><stop offset="0.44" stop-color="#d8d8d7"/><stop offset="0.68" stop-color="#c2c2c2"/><stop offset="0.92" stop-color="#a4a4a4"/><stop offset="1" stop-color="#999998"/></linearGradient><linearGradient id="m" x1="142.22" y1="81.11" x2="194.49" y2="81.11" gradientTransform="matrix(0.75, -0.66, 0.66, 0.75, -116.03, 211.22)" gradientUnits="userSpaceOnUse"><stop offset="0" stop-color="#ccc"/><stop offset="1" stop-color="#838382"/></linearGradient><linearGradient id="n" x1="142.04" y1="317.78" x2="178.52" y2="380.97" gradientTransform="translate(-92.92 141.81) rotate(-25.06)" xlink:href="#b"/><linearGradient id="o" x1="210.21" y1="343.07" x2="253.31" y2="417.72" gradientTransform="translate(-92.92 141.81) rotate(-25.06)" xlink:href="#b"/><linearGradient id="p" x1="321.56" y1="213.02" x2="354.5" y2="213.02" gradientTransform="translate(-92.92 141.81) rotate(-25.06)" xlink:href="#b"/><linearGradient id="q" x1="133.07" y1="132.03" x2="207.73" y2="132.03" gradientTransform="matrix(0.8, -0.4, 0.4, 0.91, -70.2, 136.53)" xlink:href="#b"/><linearGradient id="r" x1="245.42" y1="73.64" x2="245.42" y2="384.26" gradientTransform="translate(-92.92 141.81) rotate(-25.06)" xlink:href="#e"/><radialGradient id="s" cx="195.2" cy="237.13" r="36.09" gradientTransform="translate(-9.67 42.09) rotate(-7.5)" xlink:href="#f"/><radialGradient id="t" cx="236.51" cy="152.44" r="15.9" gradientTransform="translate(13.89 7.54) rotate(-0.98)" xlink:href="#f"/><radialGradient id="u" cx="141.16" cy="140.46" r="15.9" gradientTransform="translate(-20.55 54.4) rotate(-10.57)" xlink:href="#f"/><radialGradient id="v" cx="173.75" cy="516.22" r="15.9" gradientTransform="translate(458.18 813.85) rotate(168.14)" xlink:href="#f"/><radialGradient id="w" cx="92.73" cy="498.43" r="15.9" gradientTransform="matrix(-1, -0.02, 0.02, -1, 363.32, 839.72)" xlink:href="#f"/><linearGradient id="x" x1="228.27" y1="76.03" x2="319.06" y2="76.03" gradientTransform="translate(-93.66 79.17) rotate(-12.78)" xlink:href="#b"/><linearGradient id="y" x1="233.88" y1="53.77" x2="324.89" y2="78.16" gradientTransform="translate(-92.92 141.81) rotate(-25.06)" xlink:href="#l"/><linearGradient id="z" x1="243.92" y1="84.43" x2="315.59" y2="84.43" gradientTransform="translate(-92.92 141.81) rotate(-25.06)" xlink:href="#m"/><linearGradient id="aa" x1="203.59" y1="420.17" x2="252.11" y2="504.22" gradientUnits="userSpaceOnUse"><stop offset="0" stop-color="#fff5eb"/><stop offset="0.32" stop-color="#fef2e4"/><stop offset="0.79" stop-color="#fbe9cf"/><stop offset="1" stop-color="#f9e4c4"/></linearGradient><linearGradient id="ab" x1="294.26" y1="453.81" x2="351.58" y2="553.09" gradientUnits="userSpaceOnUse"><stop offset="0" stop-color="#fff5eb"/><stop offset="0.32" stop-color="#fef2e4"/><stop offset="0.81" stop-color="#fceacf"/><stop offset="1" stop-color="#fbe6c5"/></linearGradient><linearGradient id="ac" x1="445.2" y1="278.46" x2="489.01" y2="278.46" gradientTransform="matrix(0.87, -0.04, -0.04, 0.99, 66.91, 21.39)" gradientUnits="userSpaceOnUse"><stop offset="0" stop-color="#f0dcbd"/><stop offset="0.29" stop-color="#f6e6cf"/><stop offset="0.72" stop-color="#fdf1e4"/><stop offset="1" stop-color="#fff5eb"/></linearGradient><linearGradient id="ad" x1="190.61" y1="177.05" x2="289.91" y2="177.05" gradientTransform="matrix(0.93, -0.02, -0.02, 1, 22.79, 4.83)" xlink:href="#b"/><linearGradient id="ae" x1="334.63" y1="95.45" x2="334.63" y2="508.59" gradientTransform="matrix(1, 0, 0, 1, 0, 0)" xlink:href="#e"/><radialGradient id="af" cx="304.4" cy="279.54" r="48" gradientTransform="matrix(0.95, 0.3, -0.3, 0.95, 117.65, -55.08)" xlink:href="#f"/><radialGradient id="ag" cx="362.95" cy="150.79" r="21.15" gradientTransform="matrix(0.91, 0.41, -0.41, 0.91, 153.62, -76.4)" xlink:href="#f"/><radialGradient id="ah" cx="230.11" cy="156.76" r="21.15" gradientTransform="translate(102.57 -48.54) rotate(14.48)" xlink:href="#f"/><radialGradient id="ai" cx="84.98" cy="437.91" r="21.15" gradientTransform="translate(214.6 842.19) rotate(-166.81)" xlink:href="#f"/><radialGradient id="aj" cx="-44.16" cy="444.58" r="21.15" gradientTransform="translate(117.71 825.45) rotate(-153.72)" xlink:href="#f"/><linearGradient id="ak" x1="320.13" y1="94.66" x2="440.89" y2="94.66" gradientTransform="translate(391.37 -294.19) rotate(77.22)" xlink:href="#b"/><linearGradient id="al" x1="325.74" y1="69.03" x2="446.79" y2="101.47" gradientTransform="matrix(1, 0, 0, 1, 0, 0)" xlink:href="#l"/><linearGradient id="am" x1="339.09" y1="109.81" x2="434.42" y2="109.81" gradientTransform="matrix(1, 0, 0, 1, 0, 0)" xlink:href="#m"/></defs><title>Kaartsoldaten_finaal_f</title><path d="M108.41,332.55s19,30.94,19.08,40.41-23.11,6.73-22.68,15.07,22.67,4.76,35.53-.14,6.47-12.22,3.77-16.78c-2.27-3.83-24-42.4-24-42.4Z" fill="url(#a)"/><path d="M168.22,313.06s5.27,32.48,11.86,39.31,24.25-8.12,29.75-1.85-14.14,18.27-27.48,23.19-13.24-4-14.28-8.69c-.94-4.26-11.52-47.08-11.52-47.08Z" fill="url(#b)"/><path d="M140.09,153.64s6.26-.7,6.89,13.35c.49,11.1,8,39.64,15,68.57,5,20.72-39.89-39.79-39.89-39.79l9.8-40.24Z" fill="#b2b2b2"/><path d="M133.31,162.68s58.05,52.22,58.38,72.55-69.88-54.08-69.88-54.08Z" fill="url(#c)"/><path d="M12.48,206s9.2,71.28,23.4,83.56S31,209,31,209Z" fill="url(#d)"/><path d="M91.5,363.45a6.56,6.56,0,0,0,9.48,2c16-11.5,33.05-19.81,44.32-23.12,9.33-2.74,40-8.25,55.24-10.92a6.6,6.6,0,0,0,4.76-9.49C192.2,296,151.56,215.6,148.17,207c-4.54-11.6-18.63-48.19-8.08-53.31,0,0-64.68-.31-131.66,46.11a8,8,0,0,0-1.27,12.07c9.53,10.26,28.21,35.38,33.93,44.29C71.72,303.85,76.51,338,91.5,363.45Z" fill="url(#e)"/><path d="M118.37,288.29s13.58-34.66,8.31-46.72-17.33-6.78-17.33-6.78-12,5.23-6.83,17.23c-5.29-11.94-17.29-6.7-17.29-6.7s-12.06,5.27-6.79,17.33,39.92,25.64,39.92,25.64" fill="url(#f)"/><path d="M118.6,200.39s7.68-14.49,6-20-7.26-3.83-7.26-3.83-5.51,1.69-3.85,7.2c-1.72-5.49-7.23-3.8-7.23-3.8s-5.55,1.71-3.84,7.25,16.2,13.23,16.2,13.23" fill="url(#g)"/><path d="M46.18,229.19s5.16-15.57,2.56-20.75S41,205.86,41,205.86s-5.16,2.59-2.6,7.75c-2.61-5.13-7.77-2.54-7.77-2.54s-5.18,2.6-2.58,7.79S46.18,229.2,46.18,229.2" fill="url(#h)"/><path d="M98.15,325.49s-4.8,15.69-2.08,20.81,7.84,2.4,7.84,2.4,5.1-2.7,2.42-7.8c2.73,5.07,7.83,2.36,7.83,2.36s5.12-2.72,2.4-7.84-18.4-9.93-18.4-9.93" fill="url(#i)"/><path d="M169.13,301s-8.23,14.19-6.74,19.8,7.1,4.11,7.1,4.11,5.57-1.48,4.12-7.05c1.51,5.56,7.09,4.07,7.09,4.07s5.6-1.49,4.11-7.09S169.13,301,169.13,301" fill="url(#j)"/><ellipse cx="58.31" cy="157.81" rx="32.56" ry="42.29" transform="translate(-64 42.3) rotate(-26.36)" fill="url(#k)"/><path d="M75.54,119.67c-8.25-7.9-21.43-10.24-35.77-3.9s-21.49,17.66-21.2,29.07c.3,12.14,19.27,49.57,19.27,49.57,7.49,3.58,24.48-3.26,25.68-5.76-4.05-11.06-9.61-21-10.82-23.74s-8.85,2.28-12,3.34S34,157.43,34,157.43a62.54,62.54,0,0,1,18.68-12.35,63.13,63.13,0,0,1,21.71-5.5s6.4,10.61,3.5,12.22-11.75,3.87-10.54,6.61,4.82,13.55,10.27,24c2.65.8,19.15-7.16,21.55-15.11C99.21,167.29,84.31,128.07,75.54,119.67Z" fill="url(#l)"/><path d="M80.85,150.89c3.33-1.85-4.51-15.14-4.51-15.14a72.57,72.57,0,0,0-25,6.31,72.08,72.08,0,0,0-21.47,14.2s4.55,14.75,8.16,13.53,10.17-6,11.56-2.86,6.3,11.23,10.94,23.9a7.47,7.47,0,0,0,2.94-2.18c-4.05-11.06-9.61-21-10.82-23.74s-8.85,2.28-12,3.34S34,157.43,34,157.43a62.54,62.54,0,0,1,18.68-12.35,63.13,63.13,0,0,1,21.71-5.5s6.4,10.61,3.5,12.22-11.75,3.87-10.54,6.61,4.82,13.55,10.27,24a7.48,7.48,0,0,0,3.59-.7c-6.24-12-8.91-21-10.3-24.18S77.52,152.74,80.85,150.89Z" fill="url(#m)"/><polygon points="37.54 110.73 34.15 112.23 48.49 144.69 52.61 144.83 55.28 141.69 40.93 109.23 37.54 110.73" fill="#878787"/><polygon points="34.15 112.23 48.49 144.69 52.61 144.83 37.54 110.73 34.15 112.23" fill="#9d9d9c"/><path d="M189.56,342s13.3,48,9.77,60.47-33,.08-35.61,11.23,28.05,14.89,46.85,13.33,13.17-13.63,11.35-20.67c-1.53-5.91-15.54-65-15.54-65Z" fill="url(#n)"/><path d="M275.76,339.08s-5.41,44.79.67,56.3,35-1.48,39.89,8.87-25.58,18.7-45,20.1S255.38,414,255.8,407.48c.37-6,2.73-66.41,2.73-66.41Z" fill="url(#o)"/><path d="M299.33,118.4s8.52,1.46,4,20.21c-3.57,14.81-4.57,55.23-6.38,96C295.65,263.8,259.54,167,259.54,167l28.22-49.27Z" fill="#b2b2b2"/><path d="M287,127.74s56.6,90.86,49.3,117.76-71.47-97.82-71.47-97.82Z" fill="url(#p)"/><path d="M112.16,131.17s-15.7,97.56-1.5,119.1S135.81,142,135.81,142Z" fill="url(#q)"/><path d="M155.53,376.29a9,9,0,0,0,11.75,6.21c25.48-9.06,51.06-13.52,67.16-13.6,13.33-.07,55.8,4.34,76.92,6.62a9,9,0,0,0,9.87-10.69c-7.41-39.06-30.35-160.46-31.52-173.13-1.57-17-6.22-70.57,9.62-73.3,0,0-85.07-25-190.95,10.66a11,11,0,0,0-6.27,15.42c8.65,17.14,23.7,57.33,27.84,71.24C152.15,290.26,145.47,337,155.53,376.29Z" fill="url(#r)"/><path d="M219.52,287.49s31.07-40.48,28.71-58.36S228,213.59,228,213.59s-17.8,2.34-15.55,20.11C210,216,192.21,218.3,192.21,218.3s-17.89,2.36-15.54,20.24,42.83,49,42.83,49" fill="url(#s)"/><path d="M253.25,171.81s15.63-16.17,15.49-24.12-8.09-7.82-8.09-7.82-7.91.14-7.81,8c-.18-7.89-8.09-7.75-8.09-7.75s-7.95.13-7.82,8.08,16.31,23.58,16.31,23.58" fill="url(#t)"/><path d="M146.91,182.21s12.72-18.56,11.25-26.37-9.28-6.36-9.28-6.36-7.77,1.45-6.36,9.22c-1.49-7.76-9.27-6.3-9.27-6.3s-7.81,1.46-6.36,9.27,20,20.54,20,20.54" fill="url(#u)"/><path d="M178.73,328.82s-12.29,18.83-10.66,26.61,9.43,6.15,9.43,6.15,7.74-1.63,6.15-9.36c1.67,7.72,9.41,6.09,9.41,6.09s7.78-1.64,6.15-9.42-20.47-20.08-20.47-20.08" fill="url(#v)"/><path d="M281.55,323.52S265.31,339.08,265.14,347s7.78,8.12,7.78,8.12,7.91.18,8.12-7.72c-.13,7.9,7.78,8.06,7.78,8.06s7.95.17,8.13-7.78-15.4-24.19-15.4-24.19" fill="url(#w)"/><ellipse cx="190.04" cy="92.78" rx="44.64" ry="57.98" transform="translate(-13.48 35.31) rotate(-10.25)" fill="url(#x)"/><path d="M227.23,49.1c-7.86-13.54-24.33-21.63-45.63-18.74s-35,15.08-39,30.23c-4.21,16.11,6.54,72.62,6.54,72.62,8.5,7.57,33.49,5,36,2.18-1.12-16.11-4.67-31.31-5.22-35.39s-12.52-.36-17.06-.16-4.68-16.78-4.68-16.78a91.71,91.71,0,0,1,60-8.15s4.4,16.41,0,17.42-17,.63-16.4,4.71,1.19,19.67,4.4,35.5c3.19,2.06,28-2.15,34.13-11.71C240.3,120.83,235.59,63.5,227.23,49.1Z" fill="url(#y)"/><path d="M222.35,92.25c5.09-1.17-.18-21.66-.18-21.66a99.64,99.64,0,0,0-35.27-1.18A98.86,98.86,0,0,0,153.23,80s.38,21.16,5.6,20.92,15.68-4.05,16.31.64,4,17.18,5.33,35.64c2.4-.5,4.12-1.12,4.69-1.76-1.12-16.11-4.67-31.31-5.22-35.39s-12.52-.36-17.06-.16-4.68-16.78-4.68-16.78a91.71,91.71,0,0,1,60-8.15s4.4,16.41,0,17.42-17,.63-16.4,4.71,1.19,19.67,4.4,35.5c.72.46,2.54.6,5,.44-3.68-18.13-3.74-31.09-4.38-35.77S217.26,93.42,222.35,92.25Z" fill="url(#z)"/><polygon points="180.58 22.88 175.55 23.56 182.09 71.77 187.46 73.53 192.16 70.41 185.62 22.19 180.58 22.88" fill="#878787"/><polygon points="175.55 23.56 182.09 71.77 187.46 73.53 180.58 22.88 175.55 23.56" fill="#9d9d9c"/><path d="M242.24,397.85s-11,65.31-22.3,78.37-39.81-18.5-49.22-6.53,25.41,33.74,48.94,42.44,23.54-9,25.31-18.5c1.49-8,17.89-87.07,17.89-87.07Z" fill="url(#aa)"/><path d="M347.75,442.87s-31.75,50.92-30.91,68.2,43,18,43.06,33.17-41.35,8.11-65.55-1.15S281,521.7,285.17,514c3.82-7,40.7-78.47,40.7-78.47Z" fill="url(#ab)"/><path d="M476.82,190.15s8.65,138.69-13.29,167.63-20-154.61-20-154.61Z" fill="url(#ac)"/><path d="M266.27,104.06S190.71,212.4,196.09,246.44s93.5-115.77,93.5-115.77Z" fill="url(#ad)"/><path d="M182,419.94a12,12,0,0,0,10.64,14.13c35.8,3.44,69.13,12.48,88.58,21.45,16.09,7.43,64.79,36.67,88.95,51.32A12.05,12.05,0,0,0,388,499.51c13.06-51.22,53.81-210.43,59.54-226.36,6.07-16.87,20.78-64.15,36.86-80.55A11,11,0,0,0,482.87,176c-30.24-21.58-106.43-67.84-218.48-80.48a14.66,14.66,0,0,0-16.24,15c.76,25.53-3.74,82.42-6.58,101.53C226.33,314.4,191.93,367,182,419.94Z" fill="url(#ae)"/><path d="M309,349s60.25-31.27,67.48-54.15-15.65-30.12-15.65-30.12-22.76-7.21-30.06,15.47c7.07-22.75-15.69-30-15.69-30S292.24,243,285,265.92,309,349,309,349" fill="url(#af)"/><path d="M414.85,228.65S442.8,218,447.11,208.32s-5.35-14-5.35-14-9.6-4.29-13.93,5.27c4.23-9.61-5.38-13.9-5.38-13.9s-9.65-4.31-14,5.34,6.37,37.6,6.37,37.6" fill="url(#ag)"/><path d="M280.87,181.27s25.78-15.19,28.42-25.43-7.6-12.88-7.6-12.88-10.19-2.64-12.87,7.52c2.58-10.19-7.61-12.81-7.61-12.81S271,135,268.32,145.26s12.54,36,12.54,36" fill="url(#ah)"/><path d="M236.63,375.85s-25.43,15.76-27.83,26.06,7.88,12.71,7.88,12.71,10.25,2.41,12.7-7.81c-2.35,10.24,7.9,12.64,7.9,12.64s10.29,2.41,12.71-7.88-13.35-35.72-13.35-35.72" fill="url(#ai)"/><path d="M363.49,427.39s-28.34,9.6-33,19.08,4.8,14.17,4.8,14.17,9.43,4.66,14.13-4.73c-4.6,9.44,4.84,14.09,4.84,14.09s9.48,4.68,14.17-4.8-4.93-37.81-4.93-37.81" fill="url(#aj)"/><ellipse cx="383.21" cy="97.83" rx="77.12" ry="59.37" transform="translate(190.71 443.32) rotate(-75.2)" fill="url(#ak)"/><path d="M452.63,66.15c-1.84-20.74-17.13-39.77-44.42-48.29s-50.7-1.55-64,14.47c-14.15,17-33,91.17-33,91.17,6,13.91,37.53,24.91,42.16,22.92,7.73-20,12-40.35,13.65-45.58S352.1,93.35,346.51,91s3.82-22.85,3.82-22.85a121.92,121.92,0,0,1,76.88,24s-3.94,22.24-9.86,21-20.77-8.79-22.4-3.57-9.65,24.38-14.69,45.25c2.68,4.28,34.88,13.16,47.71,5.12C428,159.93,454.59,88.21,452.63,66.15Z" fill="url(#al)"/><path d="M422.44,115.38c6.79,1.46,12-26.2,12-26.2A132.59,132.59,0,0,0,392.6,67.9c-11.32-3.53-27.56-7.33-46.51-6.27,0,0-11.46,25.7-5,28.36s21.17,4,19.3,10-4.82,23-13.67,45.94c3.19.76,5.61,1,6.65.53,7.73-20,12-40.35,13.65-45.58S352.1,93.35,346.51,91s3.82-22.85,3.82-22.85a121.92,121.92,0,0,1,76.88,24s-3.94,22.24-9.86,21-20.77-8.79-22.4-3.57-9.65,24.38-14.69,45.25c.6,1,2.72,2.17,5.76,3.35,5.79-23.92,13-39.57,14.88-45.56S415.65,113.92,422.44,115.38Z" fill="url(#am)"/><polygon points="411.2 8.27 404.74 6.26 385.47 68.04 390.95 73.18 398.38 72.06 417.65 10.29 411.2 8.27" fill="#878787"/><polygon points="404.74 6.26 385.47 68.04 390.95 73.18 411.2 8.27 404.74 6.26" fill="#9d9d9c"/><path d="M404.74,6.26l6.46,2h0l6.45,2-3.07,9.85c23.29,9.33,36.36,26.94,38.05,46,1.42,15.93-12.07,57.74-19.68,79.76A403.91,403.91,0,0,1,482.87,176a11,11,0,0,1,1.57,16.58,57.1,57.1,0,0,0-7,9.12c1.5,33.92,4.19,132.22-13.89,156.06-1.61,2.11-3.08,3.09-4.44,3.09-8.61,0-12.52-39.34-14.27-78.72-10.94,38.08-45,171.32-56.78,217.36a12,12,0,0,1-17.92,7.33c-11.12-6.75-27.44-16.58-43.38-26-5.69,11.84-10.22,23.52-9.9,30.19.85,17.29,43,18,43.06,33.17,0,6.4-7.31,8.85-17.6,8.85-14.16,0-33.94-4.64-47.95-10C270.14,533.82,281,521.7,285.17,514c2-3.63,12.87-24.63,22.89-44-11.36-6.5-21.18-11.88-26.89-14.52a197.41,197.41,0,0,0-26.45-9.62c-4.36,21.12-9,43.66-9.75,47.73-1.43,7.72-1.71,20.84-14.37,20.84a32.07,32.07,0,0,1-10.94-2.34c-23.53-8.7-58.36-30.47-48.94-42.44a7.22,7.22,0,0,1,6.06-2.77c9.68,0,25,12.53,35.73,12.53a9.29,9.29,0,0,0,7.43-3.23c4.79-5.53,9.52-20.43,13.38-35.76a346.92,346.92,0,0,0-40.73-6.39,12,12,0,0,1-10.28-8.3c-11.28-2-20-5.88-18.59-12,1.06-4.54,6.56-5.17,13-5.17,2.5,0,5.13.09,7.69.09h.06c2.78-11.15,6.49-22.44,10.74-34.33a260.36,260.36,0,0,0-27.89,8.19,9.24,9.24,0,0,1-3,.52,9,9,0,0,1-8.72-6.73c-2.81-11-4.32-22.58-5.51-35.2-1.89.45-3.49.86-4.72,1.22a108.57,108.57,0,0,0-14.39,5.58c5.82,10.29,12,21.27,13.2,23.22,2.7,4.56,9.08,11.88-3.77,16.78-7.29,2.77-17.59,5.13-25.22,5.13-5.84,0-10.12-1.38-10.31-5-.43-8.34,22.73-5.61,22.68-15.07,0-4-3.44-11.87-7.38-19.59A190.06,190.06,0,0,0,101,365.43a6.56,6.56,0,0,1-9.48-2c-15-25.46-19.78-59.6-50.41-107.34-.68-1.06-1.55-2.35-2.56-3.81,2.78,19.59,4.25,38.42-.38,38.42a3.73,3.73,0,0,1-2.27-1.12c-10.13-8.76-17.71-47.53-21.23-69-2.79-3.42-5.37-6.45-7.49-8.74a8,8,0,0,1,1.27-12.07,268,268,0,0,1,24.64-15.17c-5.64-12-14.3-31.57-14.5-39.74-.27-10.49,5.77-20.89,17.87-27.42l-2.29-5.19,3.39-1.5h0l3.39-1.5,2.29,5.19a38.46,38.46,0,0,1,12.71-2.28,27.88,27.88,0,0,1,19.61,7.53c6.39,6.12,16,28.6,20.79,40.35,4.14-1,8.06-1.88,11.72-2.59-2.15-5-4.18-9.46-5.94-13a11,11,0,0,1,6.27-15.42,368.08,368.08,0,0,1,38.22-10.61c-2.88-17.9-6.82-47-4-57.86,3.65-13.92,15.54-25.34,34-29.34l-1-7.69,5-.69h0l5-.68,1,7.69c1.14-.06,2.26-.1,3.37-.1,17.2,0,30.42,7.63,37.2,19.32,6.09,10.49,10.24,43.77,12.05,61.06q4.58.18,8.87.47v0a14.67,14.67,0,0,1,14.59-15.13,15.48,15.48,0,0,1,1.65.09,503.83,503.83,0,0,1,52.05,8.65C323.05,81,334.69,43.77,344.2,32.33s23.87-18.12,41.17-18.12a73.8,73.8,0,0,1,16.3,1.9l3.07-9.85M401.46,0,400,4.77l-1.73,5.56a77,77,0,0,0-12.87-1.12c-18.35,0-34.34,7.08-45,19.92-9.18,11.05-19.76,42.8-27.43,69.19C297.13,95,281,92.39,265,90.58a18.2,18.2,0,0,0-2.21-.13,19.7,19.7,0,0,0-19,14.71c-2.45-22.13-6.45-48.63-12.21-58.57C223.66,33,208.92,25.07,191,24.79l-.45-3.27-.67-4.95-5,.67-5,.68-5,.69-5,.67.67,4.95.45,3.28c-17,5-29.3,16.67-33.26,31.82-2.74,10.45,0,34.93,3.15,55.28-11.51,2.69-23,6-34.14,9.72a15.92,15.92,0,0,0-9.67,9.07,16.12,16.12,0,0,0,.52,13.33c1,2,2.12,4.34,3.35,7.06l-1.65.38c-6.2-14.94-14.25-32.28-20.34-38.11a33,33,0,0,0-23.07-8.92A41.57,41.57,0,0,0,46,108.38l-.51-1.17-2-4.57-4.58,2-3.39,1.5-3.39,1.5-4.57,2,2,4.57.51,1.17c-10.71,7.23-16.81,18-16.52,29.55.16,6.52,4.53,19.12,13,37.5-7.18,4.07-14.22,8.49-21,13.17a13,13,0,0,0-2.1,19.58c1.75,1.89,3.92,4.4,6.44,7.47,6.55,39.56,14.18,63.34,22.68,70.69a8.48,8.48,0,0,0,5.54,2.34,6.65,6.65,0,0,0,5.07-2.36c1.84-2.11,3.56-5.73,2.7-19.59C58.28,295.54,65.29,314,71.62,330.7c5.06,13.35,9.44,24.87,15.57,35.29a11.56,11.56,0,0,0,16.71,3.5c4.5-3.23,9.22-6.3,14.07-9.15,4.14,8.76,4.52,11.84,4.52,12.64v0c-.75,1.19-5.82,2.55-8.27,3.21a42.89,42.89,0,0,0-8.54,2.93c-5.37,2.81-6,6.93-5.86,9.14.19,3.63,2.43,9.73,15.3,9.73,8.75,0,19.87-2.74,27-5.46,5.71-2.18,9.13-5.15,10.43-9.08a8.63,8.63,0,0,0,.34-1.25,14,14,0,0,0,16.06,5c6-2.14,12.19-4.07,18.43-5.77-2.84,8.35-5,15.49-6.81,22.16-1.28,0-2.6-.05-3.89-.05h0c-5.13,0-15.69,0-17.79,9a10.38,10.38,0,0,0,1.49,8.22c2.85,4.31,8.89,7.39,18.43,9.38a17,17,0,0,0,13.34,8.86,341.4,341.4,0,0,1,35,5.22c-5.33,20-9.14,26.52-11,28.68a4.31,4.31,0,0,1-3.65,1.5c-4.32,0-10.52-3-16.52-6-6.85-3.36-13.33-6.54-19.21-6.54a12.35,12.35,0,0,0-12.09,16c4.16,14.76,33.63,31.61,53.23,38.86a36.71,36.71,0,0,0,12.68,2.65c15.41,0,17.62-14.35,18.82-22.06.16-1,.31-2,.47-2.86.57-3.08,3.54-17.65,8.62-42.27a180.59,180.59,0,0,1,20.57,7.78c4.46,2.06,12,6.08,22.33,11.95-12,23.2-19.12,36.87-20.63,39.62-.39.73-.88,1.55-1.41,2.41-3,5-7.05,11.73-4.46,19.26,2.06,6,7.83,10.7,17.65,14.46,13.44,5.14,34,10.33,49.74,10.33,9.23,0,15.5-1.79,19.18-5.47a11.56,11.56,0,0,0,3.42-8.39c0-10.79-12-15.52-23.51-20.1-9-3.58-19.28-7.64-19.55-13.3-.13-2.51.71-8.7,7.1-22.84,14.46,8.54,28.74,17.15,38.59,23.12a17,17,0,0,0,25.35-10.36c8.64-33.88,33.93-132.74,48.8-188.26.79,9.51,1.71,17.72,2.76,24.55,3.15,20.48,7.39,28.83,14.65,28.83,3,0,5.87-1.71,8.42-5.07,8.51-11.22,13.51-36.42,15.3-77.05,1.37-31,.42-63.22-.33-80.64a48,48,0,0,1,5.53-7,15.85,15.85,0,0,0,4.45-12.47A16.1,16.1,0,0,0,485.77,172a406.41,406.41,0,0,0-46.69-28.49c9.52-28,19.88-62.62,18.53-77.75-1.82-20.56-15.51-38.37-36.92-48.37l1.73-5.57L423.91,7l-4.77-1.49-6.45-2-6.46-2L401.46,0ZM138,350.24c2.73-1.12,5.3-2.07,7.64-2.8.73,6.9,1.71,14.34,3.18,21.78l-.4-.66c-.58-1-2.91-5-10.42-18.32Z" fill="#1d1d1b"/></svg>