<?xml version="1.0" encoding="utf-8"?>
<!-- Generator: Adobe Illustrator 22.1.0, SVG Export Plug-In . SVG Version: 6.00 Build 0)  -->
<svg version="1.1" xmlns="http://www.w3.org/2000/svg" xmlns:xlink="http://www.w3.org/1999/xlink" x="0px" y="0px"
	 viewBox="0 0 566.9299927 566.9299927" style="enable-background:new 0 0 566.9299927 566.9299927;" xml:space="preserve">
<style type="text/css">
	.st0{display:none;}
	.st1{display:inline;}
	.st2{display:inline;fill:#FFFFFF;}
	.st3{fill:url(#SVGID_1_);}
	.st4{fill:url(#SVGID_2_);}
	.st5{fill:#B2B2B2;}
	.st6{fill:url(#SVGID_3_);}
	.st7{fill:url(#SVGID_4_);}
	.st8{fill:url(#SVGID_5_);}
	.st9{fill:url(#SVGID_6_);}
	.st10{fill:url(#SVGID_7_);}
	.st11{fill:url(#SVGID_8_);}
	.st12{fill:url(#SVGID_9_);}
	.st13{fill:url(#SVGID_10_);}
	.st14{fill:url(#SVGID_11_);}
	.st15{fill:url(#SVGID_12_);}
	.st16{fill:url(#SVGID_13_);}
	.st17{fill:#878787;}
	.st18{fill:#9D9D9C;}
	.st19{fill:url(#SVGID_14_);}
	.st20{fill:url(#SVGID_15_);}
	.st21{fill:url(#SVGID_16_);}
	.st22{fill:url(#SVGID_17_);}
	.st23{fill:url(#SVGID_18_);}
	.st24{fill:url(#SVGID_19_);}
	.st25{fill:url(#SVGID_20_);}
	.st26{fill:url(#SVGID_21_);}
	.st27{fill:url(#SVGID_22_);}
	.st28{fill:url(#SVGID_23_);}
	.st29{fill:url(#SVGID_24_);}
	.st30{fill:url(#SVGID_25_);}
	.st31{fill:url(#SVGID_26_);}
	.st32{fill:url(#SVGID_27_);}
	.st33{fill:url(#SVGID_28_);}
	.st34{fill:url(#SVGID_29_);}
	.st35{fill:url(#SVGID_30_);}
	.st36{fill:url(#SVGID_31_);}
	.st37{fill:url(#SVGID_32_);}
	.st38{fill:url(#SVGID_33_);}
	.st39{fill:url(#SVGID_34_);}
	.st40{fill:url(#SVGID_35_);}
	.st41{fill:url(#SVGID_36_);}
	.st42{fill:url(#SVGID_37_);}
	.st43{display:none;fill:url(#SVGID_38_);}
	.st44{display:none;fill:#EDEDED;}
	.st45{display:none;fill:#C6C6C6;}
	.st46{display:none;fill:#B2B2B2;}
	.st47{display:none;fill:#9D9D9C;}
	.st48{fill:url(#SVGID_39_);}
	.st49{fill:url(#SVGID_40_);}
</style>
<g id="Laag_1" class="st0">
	<path class="st1" d="M379.5097961,292.7278137c-1.8991394,3.8168945-3.6875916,7.6949768-5.7471313,11.4233093
		c-0.940033,1.7017517-2.8921204,2.9289856-3.5510864,4.6845093c-1.5335083,4.0857849-2.6182556,8.3457031-3.7825317,12.563324
		c-3.0057983,10.8882751-6.1508179,21.7435608-8.8694153,32.7040405c-2.355011,9.4945068-3.9746704,19.1717834-6.3419189,28.6628723
		c-2.0175781,8.0889282-4.7895203,15.9870605-6.9396973,24.0464172c-1.6251526,6.0914307-2.5644836,12.3671265-4.2211609,18.4485168
		c-2.7404785,10.0603638-5.9011536,20.0056763-8.7019958,30.050415c-1.1158752,4.0018921-1.5646362,8.1878967-2.6422424,12.2028198
		c-1.3378296,4.9844666-2.7794495,9.9681396-4.6273804,14.7788391c-1.155426,3.0078125-8.8504639,3.9888611-12.3207397,1.8693237
		c-4.945343-3.0204468-9.7966003-6.2012939-14.8274841-9.0690613c-0.857605-0.4888611-3.3686523-0.0191956-3.5002747,0.4555359
		c-1.6337891,5.8929749-3.0788269,11.8471375-4.2680054,17.8458862c-0.1920776,0.968811,0.8282776,2.5680542,1.7470093,3.2996216
		c3.9763489,3.1661987,8.3256531,5.8872986,12.137146,9.2290344c2.5783997,2.2605286,5.0091553,5.0131226,6.5784912,8.0283203
		c2.6521606,5.0958862-1.9849243,12.2423706-7.9230652,12.6328125c-10.0591736,0.6613159-19.1682739-1.1999512-25.6511841-9.9664917
		c-3.221283-4.3560181-7.4990845-8.1316528-9.802124-12.8936768c-1.489502-3.0798645-0.9487-7.6271362-0.1157532-11.2396545
		c1.5492859-6.719635,3.962677-13.2411499,6.0515747-19.8340454c0.3570557-1.1268921,0.8786011-2.2027893,1.342804-3.2943726
		c1.7064819-4.0130005,0.6140747-7.0603638-3.4373169-9.039856c-10.1083679-4.9389954-20.2279663-9.8562927-30.3885651-14.686554
		c-4.5860748-2.1801758-5.759079-1.2904358-7.0719299,3.7250671c-1.4975128,5.7207947-3.578476,11.2872314-5.1507568,16.9910889
		c-0.4800262,1.7413025-0.4593506,3.7868958-0.0830231,5.5696411c1.753479,8.3069153-4.3797913,16.8522034-12.8243866,16.7103882
		c-8.3356781-0.1397705-16.7122498-0.8032837-24.9650116-1.9797058c-6.4591217-0.9207764-11.1088715-5.7873535-16.2300873-9.4498901
		c-0.518631-0.3709106-0.8112335-1.2480164-0.9426117-1.9406738c-1.217804-6.4204407,5.4438477-14.8979797,11.8751526-14.7020569
		c6.0434113,0.1841431,12.080658,0.8312378,18.0991211,1.4753723c3.7854614,0.4051514,7.005127-2.5925293,7.7055511-6.8588867
		c0.8900757-5.4216003,2.348053-10.7489929,3.2916412-16.1639404c0.1576538-0.904541-0.80896-2.5959167-1.6758728-2.9825439
		c-3.1934052-1.4243469-6.4791412-2.8962402-9.8834686-3.542511c-8.3432159-1.5838623-16.8059387-2.5361938-25.152832-4.1034851
		c-4.7951508-0.9002991-9.5783386-2.1868286-14.1354828-3.9110718c-2.7222748-1.0300293-4.0145721-3.5763245-2.7708282-6.7834167
		c2.2973938-5.9239502,4.6775208-11.8243713,6.7077026-17.8410645c2.1987457-6.5162659,4.0625916-13.1465759,6.0263824-19.7409363
		c2.4415436-8.1983948,4.6660919-16.4659119,7.3049927-24.5995789c2.067215-6.3718262,4.7436523-12.5438843,6.9134521-18.885437
		c1.2324219-3.6019592,1.9902344-7.366272,3.1886139-11.9190979c-6.0469055-1.4974976-11.7294159-2.9003601-17.4095612-4.3128052
		c-4.2498016-1.0567627-4.3895264-4.3004761-3.715744-7.6125793c1.1436005-5.621582,3.0214996-11.1230164,3.794281-16.7836914
		c1.0705872-7.8426514,1.4251404-15.7843323,2.0283966-23.6880188c0.0808716-1.0597229-0.1758881-2.1451721-0.3315277-3.8087769
		c-3.2451019,2.2538147-6.1266022,4.2398682-8.9920502,6.2487793c-4.105011,2.8779297-7.9978638,6.1288452-12.344696,8.5746765
		c-6.1829071,3.4789429-13.0357666,4.6739502-20.1150513,3.7602539c-3.0784912-0.3973389-4.7725677-3.9882202-2.8996124-6.8657227
		c5.7500153-8.8337708,11.2558899-17.9220581,17.9202576-26.0380402c6.6249695-8.0681,14.5385742-15.0780182,22.1468506-22.8161011
		c-1.203186-3.4112854-5.1914978-3.2484894-7.1595459-2.2063599c-4.5702667,2.4200745-8.2633667,0.3939819-12.3173981-0.730484
		c0.5339661-9.0447235,1.069458-18.1156616,1.6450043-27.8646851c-3.3486633,1.3547211-5.8353882,2.6078033-8.4694824,3.300705
		c-1.0061798,0.264679-2.8380737-0.4092407-3.4367981-1.2591248c-1.2051239-1.7105408-2.5459137-3.8304596-2.5591125-5.7900696
		c-0.0641327-9.5088959,6.5917358-15.5727386,12.0436401-22.2097626c1.7170105-2.0902405,3.5266876-4.1080627,5.1599121-6.2607574
		c0.4035645-0.5319519,0.4240875-1.4696045,0.3817291-2.2070312c-0.4338379-7.5503235-0.9151764-15.0979462-1.3878326-22.6460419
		c-0.1031647-1.6475372-0.2245483-3.2939148-0.400238-5.8544159c-5.0259552,4.3528748-9.2741089,8.1438293-13.6452637,11.7871094
		c-4.5627594,3.803009-10.1319275,3.2926331-14.941925,1.0818634c-4.22789-1.9431915-3.856842-5.0783844-2.1171951-7.9694519
		c6.3645096-10.5769501,13.6981125-20.3478775,24.1558456-27.4081802c1.2758484-0.8613739,3.8381958-2.0833359,1.4819794-5.2052689
		c-3.6322174-4.8125916-3.5052032-6.9831467-1.835434-14.6129837c9.6254425-0.5029221,19.7069244,2.27285,28.8912811-2.503067
		c1.2999725-5.5575104,3.0529327-11.4594116,3.9838257-17.4882355c0.8929596-5.7830582,5.0720825-8.2639694,9.5315552-9.5644531
		c6.331543-1.8464203,13.3942566-2.0037384,18.3611603,3.0125656c5.9915924,6.0512009,10.8643188,13.2246933,10.130249,22.4703598
		c-0.1966705,2.4773178-1.6893005,4.8274078-2.1917572,7.3157272c-0.2303314,1.1407547,0.1521301,3.2807922,0.8486481,3.5773468
		c2.6248932,1.1176224,5.5066833,1.6178818,8.2667084,2.4356537c3.5386963,1.0484772,7.0211945,2.3081741,10.5984192,3.1910172
		c0.957077,0.2362137,2.7836304-0.2337723,3.1736298-0.9469147c4.5520935-8.3238297,12.2409821-11.5120697,20.8684082-13.7517395
		c7.048645-1.8298111,13.4758606-0.7467575,20.0027771,1.9261246c6.9787292,2.857933,10.6800232,8.637413,13.9187622,14.8488846
		c4.8878784,9.3742218,0.6434631,17.9228668-2.9136658,26.3601303c-1.4802856,3.5111694-4.2349243,6.4808807-5.7576904,9.9806519
		c-0.5163574,1.1867371,0.5039368,4.1452179,1.633606,4.732193c3.0407104,1.5800476,4.0967407,6.5304413,8.6879883,5.2585144
		c0.6430969-0.1781464,1.2956238-0.9520416,1.6056824-1.6096039c6.2403564-13.234024,18.169281-18.3595276,31.2984619-19.1069336
		c8.7235413-0.496582,17.491272,3.3116608,24.7263794,9.1633606c10.1629028,8.2197418,17.7562866,18.0209503,19.8084717,31.3692169
		c0.3746643,2.4369049,1.1571045,4.8081818,1.6401062,7.2319336c1.6278076,8.1690979-1.653656,15.4230194-4.4265137,22.7303467
		c-1.4182739,3.7376099-1.9144287,6.3459167,2.6314697,8.820816c12.0771484,6.5750885,23.7923889,13.8159637,35.6333618,20.8228149
		c2.3838196,1.4105835,5.1600952,2.5436401,6.9096375,4.5442963c2.250824,2.5739899,2.1712646,5.6281891-0.9324341,8.0845032
		c-1.553833,1.2297516-2.8360596,2.8040466-4.2329407,4.2305908c-7.7722473,7.9374084-8.019165,11.1483154-4.1364441,21.7088318
		c4.4537048,12.113678,8.2229919,24.4823914,12.1555786,36.7831726c2.5544128,7.9898682,5.2752991,15.9603577,7.2008057,24.1098633
		c3.2672729,13.8277283,5.135376,27.8722839,4.0488586,42.1501465c-0.2620239,3.4425659-7.4454651,7.4195251-10.5635986,5.4367676
		c-3.0434875-1.9352112-6.5697327-4.4006958-7.898407-7.487915c-3.2506104-7.5532227-5.2452698-15.6379395-7.9589844-23.4344482
		c-1.8189392-5.2257996-4.1430359-10.2748718-5.9933167-15.4909058c-3.1408081-8.8540649-6.0199585-17.8007202-9.1375732-26.6632996
		c-1.9160461-5.4468689-4.0705872-10.8098145-6.1180115-16.2104187
		C380.4418945,293.1345215,379.9758301,292.9311523,379.5097961,292.7278137z M277.791748,504.0779724
		c-0.3899536-8.9428406,2.2731934-17.2244263,5.305542-25.473175c1.1766052-3.2008057,1.7052307-6.63974,2.5290527-9.9701843
		c-0.9605713-0.6744995-1.9211121-1.3490601-2.8816223-2.0235901c-0.3380737,1.2155762-0.642334,2.4417419-1.0197144,3.6448975
		c-2.4356689,7.7650452-5.1842041,15.4489136-7.2042542,23.3200073c-0.9602356,3.7417908-0.4623413,7.8101807,3.3973389,10.3664856
		c0.2182007,0.7451782,0.2145081,1.6990662,0.6887817,2.2034302c4.9303589,5.2432861,9.6144714,10.9048767,17.2310181,12.3385315
		c0.9949341,0.1873169,2.1594238-0.526123,3.2453613-0.8225098c-0.4449463-1.3453979-0.4759216-3.3444824-1.4016724-3.9308472
		C291.4310913,509.7723999,286.0947571,503.8022766,277.791748,504.0779724z M360.9998474,221.4888916
		c-6.0415649,4.5701904-10.8080139,10.0966339-16.7962646,12.2947693
		c-11.4913635,4.2182617-23.4534302,3.8809814-34.3807068-2.9368134
		c-8.6590271-5.4025421-17.1306763-11.4718781-21.5570068-20.8000336
		c-3.2085266-6.7617493-4.1795654-14.5852051-6.4390564-23.0205231c-3.2861023-0.453064-8.1680908-0.9700012-12.9904785-1.8236389
		c-9.8706055-1.7472076-19.7111053-3.6652069-29.559906-5.5345154c-3.18013-0.6035461-6.4281616-1.0140228-9.5046692-1.9664917
		c-7.713623-2.3881226-8.9053497-2.5804901-9.411026,4.4242401c-1.0019226,13.8799896-0.5466309,27.8677673-0.5792694,41.8112946
		c-0.0033875,1.4428406,1.201416,2.9226837,1.0882263,4.3242188c-0.2681732,3.3200684-1.3157349,6.5886993-1.4651642,9.9044342
		c-0.3271332,7.2582092,0.6967163,14.721344-0.6445923,21.7549438c-1.8556519,9.7309265-5.4607391,19.1208801-8.1650696,28.699646
		c-2.1898651,7.7566528-4.1935425,15.5668335-6.2038422,23.3728638c-0.8839569,3.4323425-1.2738342,7.0180054-2.4176636,10.3523865
		c-3.3878326,9.8755798-7.2516174,19.5907898-10.5164337,29.5046082
		c-2.3440399,7.1177368-3.8426666,14.5098267-6.0426331,21.6799927
		c-3.8792725,12.6436462-7.9231873,25.2389526-12.1054688,37.7854004c-0.7540588,2.262085-0.7842255,3.6772156,1.6434326,4.2592773
		c3.1299896,0.7504272,6.3294525,1.2065735,9.4711151,1.9134521c7.7434845,1.7421875,15.4757385,3.5352783,23.2034912,5.3464355
		c5.6247253,1.3182373,11.4659882,2.1037292,16.8025208,4.1771851c10.2831879,3.9955139,20.5326691,8.2377625,30.3360443,13.2733765
		c18.0348053,9.2636719,35.7674103,19.1192627,53.5616302,28.8458252c6.7546387,3.6921692,7.6224365,3.5727539,10.5392761-3.3755493
		c0.4657288-1.1095276,0.2245483-2.4943848,0.5308228-3.6957092c1.5437317-6.0553589,3.0202026-12.1334534,4.7887573-18.1242676
		c2.0109558-6.8119812,4.5088806-13.4831848,6.4241638-20.319519c2.2367249-7.9836426,4.0989075-16.0731812,6.0756531-24.1285706
		c2.4423828-9.9530029,4.8327942-19.9187012,7.2507324-29.8777161c1.6618958-6.8447876,3.3153992-13.6917114,5.0043335-20.5298157
		c1.4255676-5.7716675,2.9621277-11.5166016,4.3302612-17.3015747c1.4415283-6.0955505,2.3849487-12.3322449,4.1897888-18.3129883
		c2.5105286-8.3197021,4.2932129-16.8143311,11.7966614-23.0437012c4.5081482-3.7426453,7.0014343-9.8614197,10.590271-14.773468
		c5.9318542-8.1186829,12.0271912-16.1177979,18.0254211-24.1882324c0.7272644-0.9785309,1.2923584-2.0796051,1.9109802-3.1365356
		c1.2860718-2.1971893,1.165863-3.8064575-1.3682556-5.2467041
		C385.7642822,235.8863373,373.1977539,228.5459442,360.9998474,221.4888916z M234.3804626,135.3182526
		c-6.0867004,0.360611-11.870636,1.0760498-17.6359863,0.9490204c-6.9565582-0.1532745-13.8993073-0.9981384-20.8440857-1.5902863
		c-3.1125641-0.2654114-4.5385895,0.8045654-4.5170288,4.2022095c0.0804901,12.6878204,0.0029297,25.3778381-0.1481323,38.0654449
		c-0.0836334,7.0212708-0.3419189,14.0438385-0.6928711,21.0572662c-0.2097168,4.1913147-0.7507782,8.3660889-1.2250977,13.424469
		c2.662674-2.1867676,4.2796478-3.4845276,5.8623047-4.822937c1.6283569-1.3770599,3.1882019-2.8368378,4.8429108-4.1805573
		c1.550354-1.2590027,3.1664429-3.3923492,4.787323-3.4242096c4.2882385-0.0842896,4.2274628-3.6570129,4.6723022-5.8111267
		c0.816864-3.9559326,0.4436951-8.1567078,0.576416-12.2550812c0.1065674-3.2897644,0.0555878-6.5966492,0.3892975-9.8637848
		c0.3540649-3.4660645,5.6234741-8.3070374,8.1134644-7.5901489c4.0746613,1.1731262,8.0389557,2.7627869,12.1491394,3.7722473
		c7.5982666,1.8661652,15.2666321,3.4478912,22.9093323,5.1319885c4.6065979,1.0150604,9.1965332,2.1296997,13.8361511,2.9653778
		c5.8860779,1.0601501,11.8149414,1.8827057,17.3530579,2.7494659c0.8040466-2.3342133,1.2510376-3.9663239,1.9177856-5.5030975
		c1.7771301-4.0962677,2.9779358-7.9988556-1.5908508-11.2444305c-1.9768066-1.4042969-3.4981689-3.6322632-5.6290283-4.5925903
		c-2.9115295-1.3121185-5.370575-2.9850616-9.6035461-1.9773407c-4.793457,1.1411133-9.8257446,2.6999359-15.7216797,1.1448975
		C242.6454315,152.8824005,237.5351562,145.2749481,234.3804626,135.3182526z M162.719696,156.6909637
		c0.5786743,0.2487183,1.1573334,0.4974213,1.7359772,0.7461395c4.5683899-3.9633026,8.9200134-8.2219238,13.7794495-11.7886963
		c3.3782501-2.479599,3.9361115-5.3482819,3.7737274-9.108551c-0.1077576-2.4953766,0.0821075-5.3742065,1.2375946-7.4777222
		c2.538559-4.6212158,8.9455872-6.3652039,14.1111145-4.9179153c2.1456757,0.6011658,4.5401917,0.3311157,6.8230286,0.4197769
		c1.6206207,0.0629807,3.2690582-0.1099167,4.8609161,0.1235428c5.0223389,0.7365112,10.029068,1.5849152,15.0316925,2.4486923
		c3.408493,0.5885696,6.8000641,1.2754669,10.2758636,1.9328918c0-3.8217392,0-8.4470291,0-12.3237076
		c-7.1762238-2.2158585-13.8236084-4.470192-20.5962219-6.2470856c-2.2833557-0.5990829-5.1649017-0.6699905-7.2876434,0.2008972
		c-6.237915,2.5591583-11.9169922,1.5178909-17.5476532-1.4705658c-3.1066437-1.6488571-6.1651001-4.6950684-9.2857819-4.7485657
		c-7.2882843-0.1249466-14.6010895,1.1774216-22.3373413,1.9447021c1.7049103,6.7407074,2.8827667,12.9100876,4.8636017,18.8098679
		c2.0374756,6.0683594,3.3180237,12.0942078,2.4525452,18.469574
		C164.0220947,148.0388184,163.3528595,152.362442,162.719696,156.6909637z M209.1752167,241.4478302
		c-2.5752716,0.7187347-3.6346436,0.7145386-4.255127,1.2342377c-5.8305511,4.8836212-11.6127319,9.8263855-17.33461,14.8369141
		c-0.8587036,0.7519531-1.7686615,1.8824463-1.9133911,2.9393616c-0.7557068,5.5183716-1.3366394,11.063446-1.8558502,16.6107178
		c-0.7240143,7.736145-1.3321686,15.4831238-2.0162201,23.2231445c-0.0535583,0.6061401-0.4328308,1.1893005-0.4567871,1.7912903
		c-0.1351471,3.3881531-1.6259766,8.1813049,0.0223541,9.848053c2.6358795,2.6653137,7.0024261,4.9191895,11.2949982,3.3979797
		c1.4023743-5.7912598,2.5448761-11.144104,4.0227966-16.40271c1.0927277-3.8882141,2.8999634-7.5826416,3.8995972-11.4886475
		c2.1046295-8.2236938,4.1314545-16.4830933,5.7254028-24.8167419
		C207.5729828,256.0098267,208.1459961,249.2659454,209.1752167,241.4478302z M145.8464661,274.1987
		c1.7026062-0.1964111,2.9615173,0.0289917,3.7111664-0.4863281c6.4347992-4.4237366,13.0151672-8.684906,19.0987091-13.5603027
		c12.9851379-10.4064636,25.7053528-21.1438293,38.4987335-31.7881165c0.5146942-0.4282837,0.9379883-1.2869263,0.9473267-1.9514923
		c0.0758667-5.3908844,0.0426178-10.7832642,0.0426178-16.2256012
		C201.4138031,210.9458771,154.373764,259.447113,145.8464661,274.1987z M180.5273132,176.9345398
		c-7.2761993,4.5061493-13.3912048,10.6846466-19.1836853,17.2371979c-0.1720123,0.1946106-0.1273956,0.6065369-0.1335449,0.9181671
		c-0.1455688,7.3657074-0.5228271,14.7419434-0.2028809,22.087738c0.0571899,1.3130035,3.532608,3.8809204,4.5263519,3.5018005
		c3.9186554-1.495163,6.6703796,0.0237579,9.6359253,2.0418701c2.6341248,1.7925873,4.4315338-1.9483643,4.2877197-2.0988312
		c-2.9687805-3.105835,0.4651184-5.7005157,0.4963074-8.4813538
		C180.0820618,200.6690369,180.3175659,189.1980896,180.5273132,176.9345398z M394.6836853,273.9616394
		c-0.5915527-0.0773621-1.183136-0.1547546-1.7747498-0.2321167c-1.2835083,2.5910339-3.4398193,5.1258545-3.6113281,7.7885132
		c-0.1808777,2.806427,1.4729614,5.7554016,2.4325562,8.6059875c2.2190247,6.5923157,4.5292664,13.1539307,6.7536316,19.7445068
		c2.4196777,7.16922,4.7288818,14.3760986,7.1900635,21.5308533c1.9623413,5.7044983,4.1351318,11.3364258,6.1117249,17.0362244
		c1.4971619,4.3171082,2.8323975,8.6903687,4.239624,13.0386353c0.6193237-0.114563,1.2385864-0.229126,1.8578796-0.3437195
		c-0.9771729-7.1714783-1.6553955-14.4002075-3.0149231-21.4985046c-1.3791809-7.2004395-3.4425354-14.2691956-5.1834412-21.4012146
		c-0.7994385-3.2750549-1.3091736-6.6411438-2.3631897-9.8294067c-2.1878052-6.6177673-4.6111145-13.1591492-7.0145569-19.7036438
		C398.4945984,283.7629089,396.5625305,278.8720703,394.6836853,273.9616394z M204.5732117,480.2056885
		c0.0747681-0.3284912,0.1495819-0.657074,0.22435-0.9855957c2.5082703,0,5.0948334,0.3671875,7.4938965-0.1445923
		c1.3326111-0.2842712,3.0681763-1.8865662,3.3334961-3.1626892c0.3391266-1.631073-0.1741943-3.8893127-1.2002411-5.1748657
		c-0.5592957-0.7007751-2.9366913,0.0985718-4.4962158,0.1378784c-4.9119415,0.1240234-9.8284302,0.363739-14.736084,0.2510376
		c-3.0122223-0.0691528-6.0070801-0.8855896-9.0195312-0.9576721c-0.8094788-0.0193787-2.3491516,1.487915-2.316452,2.2406921
		c0.0460358,1.0576782,1.059433,2.7229614,1.9852905,2.9877319
		C192.0371704,477.1694641,198.3192291,478.6384583,204.5732117,480.2056885z M182.5779724,156.3827515
		c-0.5505829-0.2201691-1.1011505-0.4403229-1.6517334-0.6604767
		c-12.3650665,9.1460266-27.5982513,27.2358856-26.2703094,31.0181427
		c8.313324-8.0105286,16.7559967-15.9720001,24.941925-24.1892548
		C181.1207275,161.0224915,181.6111145,158.4652863,182.5779724,156.3827515z M225.8213501,440.6806946
		c-0.5666199-0.1736755-1.1332703-0.34729-1.6999054-0.5209656c-4.328949,2.3226318-7.6902313,15.6553345-5.1411285,22.5166931
		C221.4077454,454.8716431,223.6145325,447.7762146,225.8213501,440.6806946z M152.5652313,124.845314
		c-0.3891754-0.4084167-0.7783661-0.8168182-1.1675415-1.225235c-3.9451752,0.5344772-7.832901,4.5281906-8.0749207,9.8756943
		C146.4035797,130.6123047,149.4843903,127.7288055,152.5652313,124.845314z"/>
	<path class="st2" d="M360.9998474,221.4888916c12.1979065,7.0570526,24.7644348,14.3974457,37.4160767,21.5879822
		c2.5341187,1.4402466,2.6543274,3.0495148,1.3682556,5.2467041c-0.6186218,1.0569305-1.1837158,2.1580048-1.9109802,3.1365356
		c-5.99823,8.0704346-12.0935669,16.0695496-18.0254211,24.1882324c-3.5888367,4.9120483-6.0821228,11.0308228-10.590271,14.773468
		c-7.5034485,6.2293701-9.2861328,14.723999-11.7966614,23.0437012c-1.8048401,5.9807434-2.7482605,12.2174377-4.1897888,18.3129883
		c-1.3681335,5.7849731-2.9046936,11.5299072-4.3302612,17.3015747c-1.6889343,6.8381042-3.3424377,13.6850281-5.0043335,20.5298157
		c-2.4179382,9.9590149-4.8083496,19.9247131-7.2507324,29.8777161c-1.9767456,8.0553894-3.8389282,16.144928-6.0756531,24.1285706
		c-1.9152832,6.8363342-4.413208,13.5075378-6.4241638,20.319519c-1.7685547,5.9908142-3.2450256,12.0689087-4.7887573,18.1242676
		c-0.3062744,1.2013245-0.065094,2.5861816-0.5308228,3.6957092c-2.9168396,6.9483032-3.7846375,7.0677185-10.5392761,3.3755493
		c-17.79422-9.7265625-35.526825-19.5821533-53.5616302-28.8458252c-9.8033752-5.035614-20.0528564-9.2778625-30.3360443-13.2733765
		c-5.3365326-2.0734558-11.1777954-2.8589478-16.8025208-4.1771851c-7.7277527-1.8111572-15.4600067-3.604248-23.2034912-5.3464355
		c-3.1416626-0.7068787-6.3411255-1.1630249-9.4711151-1.9134521c-2.4276581-0.5820618-2.3974915-1.9971924-1.6434326-4.2592773
		c4.1822815-12.5464478,8.2261963-25.1417542,12.1054688-37.7854004c2.1999664-7.170166,3.6985931-14.5622559,6.0426331-21.6799927
		c3.2648163-9.9138184,7.1286011-19.6290283,10.5164337-29.5046082c1.1438293-3.3343811,1.5337067-6.9200439,2.4176636-10.3523865
		c2.0102997-7.8060303,4.0139771-15.6162109,6.2038422-23.3728638c2.7043304-9.5787659,6.3094177-18.9687195,8.1650696-28.699646
		c1.3413086-7.0335999,0.3174591-14.4967346,0.6445923-21.7549438c0.1494293-3.3157349,1.196991-6.5843658,1.4651642-9.9044342
		c0.1131897-1.401535-1.0916138-2.8813782-1.0882263-4.3242188c0.0326385-13.9435272-0.4226532-27.9313049,0.5792694-41.8112946
		c0.5056763-7.0047302,1.697403-6.8123627,9.411026-4.4242401c3.0765076,0.9524689,6.3245392,1.3629456,9.5046692,1.9664917
		c9.8488007,1.8693085,19.6893005,3.7873077,29.559906,5.5345154c4.8223877,0.8536377,9.7043762,1.370575,12.9904785,1.8236389
		c2.259491,8.435318,3.2305298,16.2587738,6.4390564,23.0205231c4.4263306,9.3281555,12.8979797,15.3974915,21.5570068,20.8000336
		c10.9272766,6.8177948,22.8893433,7.1550751,34.3807068,2.9368134
		C350.1918335,231.5855255,354.9582825,226.059082,360.9998474,221.4888916z"/>
	<path class="st2" d="M234.3804626,135.3182526c3.1546936,9.9566956,8.2649689,17.5641479,19.801178,20.6067963
		c5.8959351,1.5550385,10.9282227-0.0037842,15.7216797-1.1448975c4.2329712-1.0077209,6.6920166,0.6652222,9.6035461,1.9773407
		c2.1308594,0.9603271,3.6522217,3.1882935,5.6290283,4.5925903c4.5687866,3.245575,3.367981,7.1481628,1.5908508,11.2444305
		c-0.666748,1.5367737-1.113739,3.1688843-1.9177856,5.5030975c-5.5381165-0.8667603-11.46698-1.6893158-17.3530579-2.7494659
		c-4.6396179-0.8356781-9.2295532-1.9503174-13.8361511-2.9653778c-7.6427002-1.6840973-15.3110657-3.2658234-22.9093323-5.1319885
		c-4.1101837-1.0094604-8.0744781-2.5991211-12.1491394-3.7722473c-2.4899902-0.7168884-7.7593994,4.1240845-8.1134644,7.5901489
		c-0.3337097,3.2671356-0.2827301,6.5740204-0.3892975,9.8637848c-0.1327209,4.0983734,0.240448,8.2991486-0.576416,12.2550812
		c-0.4448395,2.1541138-0.3840637,5.7268372-4.6723022,5.8111267c-1.6208801,0.0318604-3.236969,2.1652069-4.787323,3.4242096
		c-1.6547089,1.3437195-3.2145538,2.8034973-4.8429108,4.1805573c-1.5826569,1.3384094-3.1996307,2.6361694-5.8623047,4.822937
		c0.4743195-5.0583801,1.0153809-9.2331543,1.2250977-13.424469c0.3509521-7.0134277,0.6092377-14.0359955,0.6928711-21.0572662
		c0.151062-12.6876068,0.2286224-25.3776245,0.1481323-38.0654449c-0.0215607-3.397644,1.4044647-4.4676208,4.5170288-4.2022095
		c6.9447784,0.5921478,13.8875275,1.4370117,20.8440857,1.5902863
		C222.5098267,136.3943024,228.2937622,135.6788635,234.3804626,135.3182526z"/>
	<path class="st2" d="M162.719696,156.6909637c0.6331635-4.3285217,1.3023987-8.6521454,1.8908691-12.9867249
		c0.8654785-6.3753662-0.4150696-12.4012146-2.4525452-18.469574c-1.980835-5.8997803-3.1586914-12.0691605-4.8636017-18.8098679
		c7.7362518-0.7672806,15.049057-2.0696487,22.3373413-1.9447021c3.1206818,0.0534973,6.1791382,3.0997086,9.2857819,4.7485657
		c5.630661,2.9884567,11.3097382,4.0297241,17.5476532,1.4705658c2.1227417-0.8708878,5.0042877-0.7999802,7.2876434-0.2008972
		c6.7726135,1.7768936,13.4199982,4.0312271,20.5962219,6.2470856c0,3.8766785,0,8.5019684,0,12.3237076
		c-3.4757996-0.6574249-6.8673706-1.3443222-10.2758636-1.9328918c-5.0026245-0.8637772-10.0093536-1.7121811-15.0316925-2.4486923
		c-1.5918579-0.2334595-3.2402954-0.0605621-4.8609161-0.1235428c-2.2828369-0.0886612-4.6773529,0.1813889-6.8230286-0.4197769
		c-5.1655273-1.4472885-11.5725555,0.2966995-14.1111145,4.9179153c-1.1554871,2.1035156-1.3453522,4.9823456-1.2375946,7.4777222
		c0.162384,3.7602692-0.3954773,6.628952-3.7737274,9.108551c-4.859436,3.5667725-9.2110596,7.8253937-13.7794495,11.7886963
		C163.8770294,157.188385,163.2983704,156.939682,162.719696,156.6909637z"/>
	<path class="st2" d="M209.1752167,241.4478302c-1.0292206,7.8181152-1.6022339,14.5619965-2.8668365,21.1735992
		c-1.5939484,8.3336487-3.6207733,16.5930481-5.7254028,24.8167419c-0.9996338,3.9060059-2.8068695,7.6004333-3.8995972,11.4886475
		c-1.4779205,5.258606-2.6204224,10.6114502-4.0227966,16.40271c-4.292572,1.5212097-8.6591187-0.732666-11.2949982-3.3979797
		c-1.6483307-1.666748-0.1575012-6.4598999-0.0223541-9.848053c0.0239563-0.6019897,0.4032288-1.1851501,0.4567871-1.7912903
		c0.6840515-7.7400208,1.2922058-15.4869995,2.0162201-23.2231445c0.5192108-5.5472717,1.1001434-11.0923462,1.8558502-16.6107178
		c0.1447296-1.0569153,1.0546875-2.1874084,1.9133911-2.9393616c5.7218781-5.0105286,11.5040588-9.9532928,17.33461-14.8369141
		C205.5405731,242.1623688,206.5999451,242.1665649,209.1752167,241.4478302z"/>
	<path class="st2" d="M145.8464661,274.1987c8.527298-14.7515869,55.567337-63.2528229,62.2985535-64.0118408
		c0,5.442337,0.0332489,10.8347168-0.0426178,16.2256012c-0.0093384,0.664566-0.4326324,1.5232086-0.9473267,1.9514923
		c-12.7933807,10.6442871-25.5135956,21.3816528-38.4987335,31.7881165
		c-6.0835419,4.8753967-12.6639099,9.1365662-19.0987091,13.5603027
		C148.8079834,274.2276917,147.5490723,274.0022888,145.8464661,274.1987z"/>
	<path class="st2" d="M180.5273132,176.9345398c-0.2097473,12.2635498-0.4452515,23.7344971-0.5738068,35.2065887
		c-0.031189,2.780838-3.4650879,5.3755188-0.4963074,8.4813538c0.1438141,0.1504669-1.653595,3.8914185-4.2877197,2.0988312
		c-2.9655457-2.0181122-5.7172699-3.5370331-9.6359253-2.0418701c-0.9937439,0.3791199-4.469162-2.188797-4.5263519-3.5018005
		c-0.3199463-7.3457947,0.057312-14.7220306,0.2028809-22.087738c0.0061493-0.3116302-0.0384674-0.7235565,0.1335449-0.9181671
		C167.1361084,187.6191864,173.2511139,181.4406891,180.5273132,176.9345398z"/>
	<path class="st2" d="M394.6836853,273.9616394c1.8788452,4.9104309,3.8109131,9.8012695,5.623291,14.7361145
		c2.4034424,6.5444946,4.8267517,13.0858765,7.0145569,19.7036438c1.0540161,3.1882629,1.5637512,6.5543518,2.3631897,9.8294067
		c1.7409058,7.132019,3.8042603,14.2007751,5.1834412,21.4012146c1.3595276,7.0982971,2.0377502,14.3270264,3.0149231,21.4985046
		c-0.6192932,0.1145935-1.2385559,0.2291565-1.8578796,0.3437195c-1.4072266-4.3482666-2.7424622-8.7215271-4.239624-13.0386353
		c-1.976593-5.6997986-4.1493835-11.3317261-6.1117249-17.0362244c-2.4611816-7.1547546-4.7703857-14.3616333-7.1900635-21.5308533
		c-2.2243652-6.5905762-4.5346069-13.1521912-6.7536316-19.7445068c-0.9595947-2.8505859-2.6134338-5.7995605-2.4325562-8.6059875
		c0.1715088-2.6626587,2.3278198-5.1974792,3.6113281-7.7885132
		C393.5005493,273.8068848,394.0921326,273.8842773,394.6836853,273.9616394z"/>
	<path class="st2" d="M204.5732117,480.2056885c-6.2539825-1.5672302-12.5360413-3.0362244-18.7314911-4.808075
		c-0.9258575-0.2647705-1.9392548-1.9300537-1.9852905-2.9877319c-0.0326996-0.7527771,1.5069733-2.2600708,2.316452-2.2406921
		c3.0124512,0.0720825,6.007309,0.8885193,9.0195312,0.9576721c4.9076538,0.1127014,9.8241425-0.1270142,14.736084-0.2510376
		c1.5595245-0.0393066,3.9369202-0.8386536,4.4962158-0.1378784c1.0260468,1.285553,1.5393677,3.5437927,1.2002411,5.1748657
		c-0.2653198,1.276123-2.000885,2.878418-3.3334961,3.1626892c-2.3990631,0.5117798-4.9856262,0.1445923-7.4938965,0.1445923
		C204.7227936,479.5486145,204.6479797,479.8771973,204.5732117,480.2056885z"/>
	<path class="st2" d="M182.5779724,156.3827515c-0.9668579,2.0825348-1.4572449,4.63974-2.9801178,6.1684113
		c-8.1859283,8.2172546-16.6286011,16.1787262-24.941925,24.1892548
		c-1.3279419-3.7822571,13.9052429-21.8721161,26.2703094-31.0181427
		C181.4768219,155.9424286,182.0273895,156.1625824,182.5779724,156.3827515z"/>
	<path class="st2" d="M277.7843933,504.0906067c8.3103638-0.2883301,13.646698,5.6817932,19.8971863,9.6404114
		c0.9257507,0.5863647,0.9567261,2.5854492,1.4016724,3.9308472c-1.0859375,0.2963867-2.2504272,1.0098267-3.2453613,0.8225098
		c-7.6165466-1.4336548-12.3006592-7.0952454-17.2310181-12.3385315c-0.4742737-0.504364-0.4705811-1.458252-0.6887817-2.2034302
		L277.7843933,504.0906067z"/>
	<path class="st2" d="M277.9181213,503.9424133c-3.8597107-2.5563049-4.357605-6.6246948-3.3973694-10.3664856
		c2.02005-7.8710938,4.7685852-15.5549622,7.2042542-23.3200073c0.3773804-1.2031555,0.6816406-2.4293213,1.0197144-3.6448975
		c0.9605103,0.67453,1.921051,1.3490906,2.8816223,2.0235901c-0.823822,3.3304443-1.3524475,6.7693787-2.5290527,9.9701843
		c-3.0323486,8.2487488-5.6954956,16.5303345-5.3092041,25.4794922
		C277.7843933,504.0906067,277.9181213,503.9424133,277.9181213,503.9424133z"/>
	<path class="st2" d="M225.8213501,440.6806946c-2.2068176,7.09552-4.4136047,14.1909485-6.8410339,21.9957275
		c-2.5491028-6.8613586,0.8121796-20.1940613,5.1411285-22.5166931
		C224.6880798,440.3334045,225.2547302,440.507019,225.8213501,440.6806946z"/>
	<path class="st2" d="M152.5652313,124.845314c-3.0808411,2.8834915-6.1616516,5.7669907-9.2424622,8.6504593
		c0.2420197-5.3475037,4.1297455-9.341217,8.0749207-9.8756943
		C151.7868652,124.0284958,152.1760559,124.4368973,152.5652313,124.845314z"/>
</g>
<g id="Laag_3_kopie">
	
		<linearGradient id="SVGID_1_" gradientUnits="userSpaceOnUse" x1="96.1377182" y1="254.8558807" x2="122.748436" y2="300.946991" gradientTransform="matrix(0.7528316 -0.6582131 0.6582131 0.7528316 -111.3809128 230.6778717)">
		<stop  offset="0" style="stop-color:#FFF5EB"/>
		<stop  offset="0.2952013" style="stop-color:#FEF2E4"/>
		<stop  offset="0.737602" style="stop-color:#FAE9D1"/>
		<stop  offset="1" style="stop-color:#F7E2C2"/>
	</linearGradient>
	<path class="st3" d="M136.647583,336.0940857c0,0,19.0282593,30.9327698,19.0800629,40.4013672
		c0.0517883,9.4685974-23.116684,6.7332764-22.6806488,15.0731201c0.4360199,8.3398438,22.6695251,4.7572021,35.5261078-0.1408997
		c12.8565826-4.8981323,6.4732208-12.2153931,3.7724152-16.7763062
		c-2.2702942-3.8339539-24.0450592-42.4029846-24.0450592-42.4029846L136.647583,336.0940857z"/>
	
		<linearGradient id="SVGID_2_" gradientUnits="userSpaceOnUse" x1="145.8649902" y1="273.3007507" x2="177.2996979" y2="327.7472534" gradientTransform="matrix(0.7528316 -0.6582131 0.6582131 0.7528316 -111.3809128 230.6778717)">
		<stop  offset="0" style="stop-color:#FFF5EB"/>
		<stop  offset="0.2178529" style="stop-color:#FCF1E3"/>
		<stop  offset="0.5443361" style="stop-color:#F5E5CD"/>
		<stop  offset="0.7379808" style="stop-color:#F0DCBD"/>
	</linearGradient>
	<path class="st4" d="M196.4563599,316.5971985c0,0,5.2683258,32.4800415,11.856308,39.3109436
		c6.5879669,6.8309021,24.2486725-8.1220398,29.7503662-1.8495178c5.501709,6.272522-14.1433105,18.2759705-27.4815826,23.1880493
		c-13.3382568,4.9120789-13.2386017-4.0061035-14.2752991-8.6838989
		c-0.9454803-4.2662659-11.5235901-47.0871277-11.5235901-47.0871277L196.4563599,316.5971985z"/>
	<path class="st5" d="M168.3202362,157.1821289c0,0,6.2639771-0.702652,6.8899384,13.3527679
		c0.4942932,11.0989227,7.9743195,39.6305695,14.953949,68.5623779c4.9985657,20.7199554-39.8890839-39.790451-39.8890839-39.790451
		l9.8013916-40.2393036L168.3202362,157.1821289z"/>
	
		<linearGradient id="SVGID_3_" gradientUnits="userSpaceOnUse" x1="227.0809479" y1="178.4444427" x2="251.1063995" y2="178.4444427" gradientTransform="matrix(0.7528316 -0.6582131 0.6582131 0.7528316 -111.3809128 230.6778717)">
		<stop  offset="0" style="stop-color:#FFF5EB"/>
		<stop  offset="0.2178529" style="stop-color:#FCF1E3"/>
		<stop  offset="0.5443361" style="stop-color:#F5E5CD"/>
		<stop  offset="0.7379808" style="stop-color:#F0DCBD"/>
	</linearGradient>
	<path class="st6" d="M161.5462036,166.2244568c0,0,58.0521393,52.2204742,58.3771515,72.5493927
		c0.3250275,20.3289032-69.8767853-54.0842285-69.8767853-54.0842285L161.5462036,166.2244568z"/>
	
		<linearGradient id="SVGID_4_" gradientUnits="userSpaceOnUse" x1="86.3800735" y1="124.1476364" x2="140.8327026" y2="124.1476364" gradientTransform="matrix(0.6462529 -0.5986771 0.6356067 0.7654598 -94.5508118 221.2763824)">
		<stop  offset="0" style="stop-color:#FFF5EB"/>
		<stop  offset="0.2178529" style="stop-color:#FCF1E3"/>
		<stop  offset="0.5443361" style="stop-color:#F5E5CD"/>
		<stop  offset="0.7379808" style="stop-color:#F0DCBD"/>
	</linearGradient>
	<path class="st7" d="M40.7102928,209.5801697c0,0,9.2078133,71.2782898,23.4054527,83.5621338
		s-4.8894463-80.5931854-4.8894463-80.5931854L40.7102928,209.5801697z"/>
	
		<linearGradient id="SVGID_5_" gradientUnits="userSpaceOnUse" x1="171.5483704" y1="76.7802963" x2="171.5483704" y2="303.342865" gradientTransform="matrix(0.7528316 -0.6582131 0.6582131 0.7528316 -111.3809128 230.6778717)">
		<stop  offset="0" style="stop-color:#EBEBEB"/>
		<stop  offset="0.2889623" style="stop-color:#EBEBEB"/>
		<stop  offset="0.484864" style="stop-color:#E7E7E7"/>
		<stop  offset="0.7024673" style="stop-color:#DEDEDE"/>
		<stop  offset="0.9296678" style="stop-color:#CDCDCD"/>
		<stop  offset="1" style="stop-color:#C6C6C6"/>
	</linearGradient>
	<path class="st8" d="M119.7349014,366.9925842c1.9558868,3.3214111,6.3530197,4.2244873,9.4841537,1.976532
		c16.0231476-11.5035095,33.0457916-19.8039551,44.3173218-23.1188965
		c9.3235626-2.7420654,39.9806671-8.250946,55.2420044-10.9216919c4.3722992-0.7651672,6.7574921-5.5328369,4.7525024-9.4929199
		c-13.0969086-25.867981-53.7387848-106.2996674-57.1221619-114.9438629
		c-4.5390625-11.5968781-18.6364441-48.1885223-8.0884857-53.3096161c0,0-64.6778488-0.3136749-131.6506195,46.1094513
		c-4.0141258,2.7824554-4.6016502,8.491394-1.278141,12.0704346c9.5304222,10.2631989,28.2091827,35.3771057,33.9291077,44.2901459
		C99.9586411,307.3937073,104.7413177,341.5310669,119.7349014,366.9925842z"/>
	
		<radialGradient id="SVGID_6_" cx="116.6157074" cy="229.7030945" r="26.3201694" gradientTransform="matrix(0.9163412 -0.4003981 0.4003981 0.9163412 -62.7710342 103.9180756)" gradientUnits="userSpaceOnUse">
		<stop  offset="0" style="stop-color:#BE1622"/>
		<stop  offset="1" style="stop-color:#9E151A"/>
	</radialGradient>
	<path class="st9" d="M146.6035919,291.8257141c0,0,13.5844421-34.6561279,8.3096466-46.7114563
		c-5.2748108-12.0553436-17.3327789-6.7865601-17.3327789-6.7865601s-11.9979095,5.2367859-6.8270874,17.2362061
		c-5.2923203-11.9463348-17.2860336-6.6999054-17.2860336-6.6999054s-12.0579681,5.2687531-6.7952271,17.329361
		c5.2627335,12.0606079,39.9222488,25.6363831,39.9222488,25.6363831"/>
	
		<radialGradient id="SVGID_7_" cx="146.5931396" cy="182.9567108" r="11.6007662" gradientTransform="matrix(0.9558548 -0.2938395 0.2938395 0.9558548 -50.4568214 61.0424004)" gradientUnits="userSpaceOnUse">
		<stop  offset="0" style="stop-color:#BE1622"/>
		<stop  offset="1" style="stop-color:#9E151A"/>
	</radialGradient>
	<path class="st10" d="M146.8354034,203.9345093c0,0,7.6819153-14.4968719,5.9749298-20.0398102
		c-1.7070007-5.5429382-7.2507935-3.8387299-7.2507935-3.8387299s-5.5158844,1.693222-3.8516235,7.2064819
		c-1.7201233-5.4960785-7.2346649-3.7984467-7.2346649-3.7984467s-5.5437927,1.7042236-3.8423462,7.2488708
		s16.2002411,13.2229462,16.2002411,13.2229462"/>
	
		<radialGradient id="SVGID_8_" cx="77.9309082" cy="153.4862213" r="11.6007662" gradientTransform="matrix(0.8935329 -0.4489978 0.4489978 0.8935329 -69.3407135 120.2172318)" gradientUnits="userSpaceOnUse">
		<stop  offset="0" style="stop-color:#BE1622"/>
		<stop  offset="1" style="stop-color:#9E151A"/>
	</radialGradient>
	<path class="st11" d="M74.4182892,232.7350922c0,0,5.15905-15.5742035,2.5523453-20.7552338
		s-7.7890396-2.5769196-7.7890396-2.5769196s-5.1566544,2.5886078-2.5970383,7.7474976
		c-2.6118355-5.1326447-7.7664185-2.5398865-7.7664185-2.5398865s-5.1823349,2.6041107-2.5808182,7.7877502
		s18.177002,10.3387909,18.177002,10.3387909"/>
	
		<radialGradient id="SVGID_9_" cx="293.8179626" cy="561.5422974" r="11.6007662" gradientTransform="matrix(-0.8831858 0.4690233 -0.4690233 -0.8831858 654.7012939 697.4163208)" gradientUnits="userSpaceOnUse">
		<stop  offset="0" style="stop-color:#BE1622"/>
		<stop  offset="1" style="stop-color:#9E151A"/>
	</radialGradient>
	<path class="st12" d="M126.3865738,329.0339661c0,0-4.8067093,15.6865234-2.0838852,20.8074951
		c2.7228165,5.1209412,7.8451385,2.4006958,7.8451385,2.4006958s5.0970001-2.7041931,2.4217529-7.8040466
		c2.7268677,5.0724487,7.821701,2.3641663,7.821701,2.3641663s5.1223145-2.7202454,2.4046326-7.8439331
		c-2.7176971-5.1236877-18.4054184-9.9264526-18.4054184-9.9264526"/>
	
		<radialGradient id="SVGID_10_" cx="246.6829071" cy="519.9685669" r="11.6007662" gradientTransform="matrix(-0.9664332 0.2569182 -0.2569182 -0.9664332 572.3371582 754.8687134)" gradientUnits="userSpaceOnUse">
		<stop  offset="0" style="stop-color:#BE1622"/>
		<stop  offset="1" style="stop-color:#9E151A"/>
	</radialGradient>
	<path class="st13" d="M197.3628998,304.5214844c0,0-8.2329407,14.1911926-6.7400513,19.7955933
		s7.0980225,4.1143188,7.0980225,4.1143188s5.5768433-1.4801636,4.1255188-7.0532532
		c1.5078125,5.558075,7.0834656,4.0734558,7.0834656,4.0734558s5.6051483-1.4900818,4.1178589-7.0959778
		c-1.4872742-5.605896-15.6805267-13.8352966-15.6805267-13.8352966"/>
	
		<linearGradient id="SVGID_11_" gradientUnits="userSpaceOnUse" x1="158.1447449" y1="82.6004028" x2="224.3662567" y2="82.6004028" gradientTransform="matrix(0.775641 -0.6311743 0.6311743 0.775641 -113.9329605 217.9933319)">
		<stop  offset="0" style="stop-color:#FFF5EB"/>
		<stop  offset="0.2178529" style="stop-color:#FCF1E3"/>
		<stop  offset="0.5443361" style="stop-color:#F5E5CD"/>
		<stop  offset="0.7379808" style="stop-color:#F0DCBD"/>
	</linearGradient>
	<path class="st14" d="M115.7221146,146.8898773c-10.370369-20.9286346-31.8389511-31.4224091-47.9514236-23.4384995
		s-20.7673759,31.4221573-10.3970108,52.3507767s31.8389511,31.4224091,47.9514236,23.4385071
		S126.0924759,167.818512,115.7221146,146.8898773z"/>
	
		<linearGradient id="SVGID_12_" gradientUnits="userSpaceOnUse" x1="163.1274567" y1="62.2924385" x2="229.5102692" y2="80.0796661" gradientTransform="matrix(0.7528316 -0.6582131 0.6582131 0.7528316 -111.3809128 230.6778717)">
		<stop  offset="0" style="stop-color:#E9E9E9"/>
		<stop  offset="0.1863251" style="stop-color:#E6E6E6"/>
		<stop  offset="0.3890339" style="stop-color:#DCDCDC"/>
		<stop  offset="0.5994728" style="stop-color:#CCCBCB"/>
		<stop  offset="0.8138296" style="stop-color:#B4B4B4"/>
		<stop  offset="1" style="stop-color:#999998"/>
	</linearGradient>
	<path class="st15" d="M103.7755661,123.2090378c-8.2486496-7.900116-21.4322357-10.2357025-35.7722473-3.8992767
		c-14.3400154,6.3364334-21.4895897,17.6566391-21.202095,29.0745468
		c0.3055763,12.1398621,19.2752686,49.5629272,19.2752686,49.5629272
		c7.4890671,3.5816498,24.4814835-3.2616272,25.6754074-5.7579956
		c-4.0454254-11.0621643-9.6054077-20.9953461-10.8184814-23.7406616c-1.2130661-2.7453156-8.8466568,2.2773285-11.9878464,3.337204
		c-3.1412125,1.0598297-6.674427-10.8128662-6.674427-10.8128662c6.4788857-6.3334503,13.5062981-10.0701141,18.6817055-12.3569641
		c5.1753845-2.28685,12.2043076-4.8149261,21.7146301-5.4929657c0,0,6.3995132,10.6061554,3.5009537,12.2151337
		c-2.8985214,1.6088715-11.7518387,3.8713074-10.538765,6.6166229c1.2130661,2.7453156,4.8139572,13.5441589,10.2693863,23.9832916
		c2.649559,0.7980499,19.1502304-7.1582794,21.5443573-15.1070251
		C127.4434128,170.8310089,112.5456924,131.6086578,103.7755661,123.2090378z"/>
	
		<linearGradient id="SVGID_13_" gradientUnits="userSpaceOnUse" x1="170.4502411" y1="84.6530151" x2="222.7279968" y2="84.6530151" gradientTransform="matrix(0.7528316 -0.6582131 0.6582131 0.7528316 -111.3809128 230.6778717)">
		<stop  offset="0" style="stop-color:#CCCCCC"/>
		<stop  offset="1" style="stop-color:#838382"/>
	</linearGradient>
	<path class="st16" d="M109.082756,154.431778c3.330452-1.8486938-4.5111465-15.1408997-4.5111465-15.1408997
		c-10.9274979,0.7791138-19.0037994,3.6838379-24.9503555,6.3115234
		c-5.9465866,2.6276245-14.0211945,6.921051-21.4655151,14.1982727c0,0,4.5482826,14.7474213,8.1575317,13.5296783
		c3.6092834-1.2178497,10.1691589-6.0118103,11.5629883-2.8574219c1.3915253,3.1491699,6.3003616,11.2256012,10.941864,23.8999481
		c1.5864792-0.8358765,2.6644592-1.6205444,2.9337769-2.1836395c-4.0454254-11.0621643-9.6054077-20.9953461-10.8184814-23.7406616
		c-1.2130661-2.7453156-8.8466568,2.2773285-11.9878464,3.337204c-3.1412125,1.0598297-6.674427-10.8128662-6.674427-10.8128662
		c6.4788933-6.3334503,13.5062904-10.0700989,18.6817055-12.3569641s12.2042618-4.8149719,21.7146301-5.4929657
		c0,0,6.3995132,10.6061554,3.5009537,12.2151337c-2.8985214,1.6088715-11.7518387,3.8713074-10.538765,6.6166229
		c1.2130661,2.7453156,4.8139572,13.5441589,10.2693863,23.9832916c0.5976028,0.1800232,1.9036407-0.0887299,3.5898361-0.6989441
		c-6.2461243-11.9653168-8.9125824-21.0325928-10.3041077-24.1817627
		C97.7909546,157.9029388,105.7522736,156.2804108,109.082756,154.431778z"/>
	<polygon class="st17" points="65.7762604,114.2696838 62.3863716,115.7688446 76.7300186,148.2300568 80.8460159,148.3741608 
		83.5106583,145.2338867 69.1670151,112.7726822 	"/>
	<polygon class="st18" points="62.3863602,115.7688217 76.7300186,148.2300568 80.8460159,148.3741608 65.7762375,114.2696457 	"/>
</g>
<g id="Laag_3">
	
		<linearGradient id="SVGID_14_" gradientUnits="userSpaceOnUse" x1="170.2700043" y1="321.3223267" x2="206.7537537" y2="384.5140381" gradientTransform="matrix(0.9058821 -0.4235299 0.4235299 0.9058821 -91.7577362 154.1044006)">
		<stop  offset="0" style="stop-color:#FFF5EB"/>
		<stop  offset="0.2178529" style="stop-color:#FCF1E3"/>
		<stop  offset="0.5443361" style="stop-color:#F5E5CD"/>
		<stop  offset="0.7379808" style="stop-color:#F0DCBD"/>
	</linearGradient>
	<path class="st19" d="M217.7988129,345.5588074c0,0,13.299057,47.9820557,9.7659607,60.4738464
		c-3.5330963,12.4918213-33.0103455,0.0768433-35.6080017,11.2279663
		c-2.5976715,11.151123,28.0510406,14.8884277,46.8487549,13.3265076s13.1725769-13.6280823,11.3497925-20.6630249
		c-1.5322266-5.9135742-15.5445862-64.9987793-15.5445862-64.9987793L217.7988129,345.5588074z"/>
	
		<linearGradient id="SVGID_15_" gradientUnits="userSpaceOnUse" x1="238.4469604" y1="346.6105652" x2="281.5444946" y2="421.2576904" gradientTransform="matrix(0.9058821 -0.4235299 0.4235299 0.9058821 -91.7577362 154.1044006)">
		<stop  offset="0" style="stop-color:#FFF5EB"/>
		<stop  offset="0.2178529" style="stop-color:#FCF1E3"/>
		<stop  offset="0.5443361" style="stop-color:#F5E5CD"/>
		<stop  offset="0.7379808" style="stop-color:#F0DCBD"/>
	</linearGradient>
	<path class="st20" d="M303.994751,342.6252747c0,0-5.4141235,44.7866516,0.6655273,56.2900391
		c6.0796204,11.503418,35.0296326-1.4755249,39.8907776,8.8791809s-25.58078,18.6938782-45.0183105,20.0909729
		c-19.4375,1.3970947-15.9142456-10.3120728-15.5006104-16.867981c0.3772583-5.9791565,2.7303467-66.406311,2.7303467-66.406311
		L303.994751,342.6252747z"/>
	<path class="st5" d="M327.5661621,121.9416199c0,0,8.5181885,1.4569244,3.9968262,20.2088776
		c-3.5703125,14.8075409-4.5694275,55.2345428-6.3798218,95.9983215
		c-1.2965698,29.1936188-37.4080505-67.5837097-37.4080505-67.5837097l28.2151794-49.2755203L327.5661621,121.9416199z"/>
	
		<linearGradient id="SVGID_16_" gradientUnits="userSpaceOnUse" x1="349.7954712" y1="216.5608826" x2="382.7348022" y2="216.5608826" gradientTransform="matrix(0.9058821 -0.4235299 0.4235299 0.9058821 -91.7577362 154.1044006)">
		<stop  offset="0" style="stop-color:#FFF5EB"/>
		<stop  offset="0.2178529" style="stop-color:#FCF1E3"/>
		<stop  offset="0.5443361" style="stop-color:#F5E5CD"/>
		<stop  offset="0.7379808" style="stop-color:#F0DCBD"/>
	</linearGradient>
	<path class="st21" d="M315.2041931,131.2757568c0,0,56.6048279,90.8648071,49.3009949,117.7657623
		c-7.3038635,26.9009552-71.4714661-97.8171692-71.4714661-97.8171692L315.2041931,131.2757568z"/>
	
		<linearGradient id="SVGID_17_" gradientUnits="userSpaceOnUse" x1="161.3067322" y1="135.5737305" x2="235.9622498" y2="135.5737305" gradientTransform="matrix(0.8037091 -0.3997871 0.401858 0.9109182 -66.0825577 148.138031)">
		<stop  offset="0" style="stop-color:#FFF5EB"/>
		<stop  offset="0.2178529" style="stop-color:#FCF1E3"/>
		<stop  offset="0.5443361" style="stop-color:#F5E5CD"/>
		<stop  offset="0.7379808" style="stop-color:#F0DCBD"/>
	</linearGradient>
	<path class="st22" d="M140.3940125,134.7146759c0,0-15.697937,97.5566559-1.4971466,119.0970917
		c14.2007751,21.5404358,25.1517792-108.235611,25.1517792-108.235611L140.3940125,134.7146759z"/>
	
		<linearGradient id="SVGID_18_" gradientUnits="userSpaceOnUse" x1="273.6593323" y1="77.1775436" x2="273.6593323" y2="387.7988281" gradientTransform="matrix(0.9058821 -0.4235299 0.4235299 0.9058821 -91.7577362 154.1044006)">
		<stop  offset="0" style="stop-color:#EBEBEB"/>
		<stop  offset="0.2889623" style="stop-color:#EBEBEB"/>
		<stop  offset="0.484864" style="stop-color:#E7E7E7"/>
		<stop  offset="0.7024673" style="stop-color:#DEDEDE"/>
		<stop  offset="0.9296678" style="stop-color:#CDCDCD"/>
		<stop  offset="1" style="stop-color:#C6C6C6"/>
	</linearGradient>
	<path class="st23" d="M183.7693329,379.8258362c1.3130341,5.1188965,6.7614594,7.980835,11.740799,6.2107544
		c25.4810638-9.058197,51.060379-13.5171204,67.1681213-13.5965576c13.3239441-0.0656738,55.8009033,4.3382263,76.9190369,6.6248474
		c6.0502014,0.6551208,11.0053406-4.7177124,9.870575-10.6965637
		c-7.4126282-39.054718-30.3546143-160.4575806-31.523468-173.1306152
		c-1.5680847-17.0018616-6.2198181-70.5623932,9.6217651-73.2960815c0,0-85.0746613-25.0129623-190.9482422,10.6631622
		c-6.3457184,2.1383057-9.2909622,9.4346924-6.2744904,15.4131012c8.6499939,17.1435547,23.701828,57.328064,27.8461304,71.2438812
		C180.38797,293.8001404,173.7038269,340.5851135,183.7693329,379.8258362z"/>
	
		<radialGradient id="SVGID_19_" cx="223.4352417" cy="240.6669922" r="36.0854149" gradientTransform="matrix(0.9914517 -0.1304739 0.1304739 0.9914517 -9.8905106 45.8051605)" gradientUnits="userSpaceOnUse">
		<stop  offset="0" style="stop-color:#BE1622"/>
		<stop  offset="1" style="stop-color:#9E151A"/>
	</radialGradient>
	<path class="st24" d="M247.7501221,291.0350342c0,0,31.074707-40.4824677,28.7118835-58.3680573
		s-20.2496033-15.5317078-20.2496033-15.5317078s-17.7954712,2.33461-15.5483246,20.1069946
		c-2.4273682-17.7486572-20.220993-15.3997803-20.220993-15.3997803s-17.8867493,2.3538666-15.5418243,20.241806
		s42.8351593,48.9525452,42.8351593,48.9525452"/>
	
		<radialGradient id="SVGID_20_" cx="264.7398682" cy="155.9824829" r="15.9048557" gradientTransform="matrix(0.9998532 -0.0171361 0.0171361 0.9998532 13.8347979 8.0285444)" gradientUnits="userSpaceOnUse">
		<stop  offset="0" style="stop-color:#BE1622"/>
		<stop  offset="1" style="stop-color:#9E151A"/>
	</radialGradient>
	<path class="st25" d="M281.4842834,175.3524628c0,0,15.6324463-16.173584,15.492218-24.1240082
		c-0.1402283-7.9504395-8.0907288-7.8141785-8.0907288-7.8141785s-7.9095764,0.1323853-7.8143311,8.0274658
		c-0.175354-7.8937073-8.0848083-7.7549744-8.0848083-7.7549744s-7.9505005,0.136261-7.8182068,8.0868225
		c0.1322632,7.9505768,16.3097534,23.5789795,16.3097534,23.5789795"/>
	
		<radialGradient id="SVGID_21_" cx="169.3982086" cy="143.9990082" r="15.9048557" gradientTransform="matrix(0.9830209 -0.1834935 0.1834935 0.9830209 -20.7239914 59.6420364)" gradientUnits="userSpaceOnUse">
		<stop  offset="0" style="stop-color:#BE1622"/>
		<stop  offset="1" style="stop-color:#9E151A"/>
	</radialGradient>
	<path class="st26" d="M175.1420135,185.7453613c0,0,12.7190704-18.5521851,11.256073-26.3681183
		c-1.4629822-7.815918-9.2796478-6.356842-9.2796478-6.356842s-7.7769318,1.4484406-6.3675385,9.2172699
		c-1.4881592-7.7541351-9.2639313-6.2994537-9.2639313-6.2994537s-7.8166504,1.4590759-6.3614807,9.2764587
		s20.0105438,20.5318146,20.0105438,20.5318146"/>
	
		<radialGradient id="SVGID_22_" cx="201.9841156" cy="519.7609863" r="15.9048557" gradientTransform="matrix(-0.9786354 0.2056034 -0.2056034 -0.9786354 514.7744141 815.0473022)" gradientUnits="userSpaceOnUse">
		<stop  offset="0" style="stop-color:#BE1622"/>
		<stop  offset="1" style="stop-color:#9E151A"/>
	</radialGradient>
	<path class="st27" d="M206.9682465,332.3565063c0,0-12.2976837,18.834137-10.6588898,26.6151123
		c1.6387787,7.7809753,9.4205627,6.1460876,9.4205627,6.1460876s7.7423096-1.6233826,6.1581726-9.3584595
		c1.6625519,7.7186279,9.4035645,6.0890503,9.4035645,6.0890503s7.7817841-1.6348877,6.1507874-9.4174805
		c-1.6309967-7.7826233-20.4682312-20.0755615-20.4682312-20.0755615"/>
	
		<radialGradient id="SVGID_23_" cx="120.9629593" cy="501.9723511" r="15.9048557" gradientTransform="matrix(-0.9997737 -0.0212707 0.0212707 -0.9997737 419.7048035 847.3954468)" gradientUnits="userSpaceOnUse">
		<stop  offset="0" style="stop-color:#BE1622"/>
		<stop  offset="1" style="stop-color:#9E151A"/>
	</radialGradient>
	<path class="st28" d="M309.7817688,327.0639038c0,0-16.2420044,15.5613708-16.4071655,23.511322
		s7.7846985,8.1190796,7.7846985,8.1190796s7.9088135,0.1714478,8.1168213-7.7214661
		c-0.1278992,7.8946228,7.7810669,8.0597229,7.7810669,8.0597229s7.9498596,0.1691284,8.1229858-7.7806396
		c0.1730957-7.9497986-15.392334-24.1878967-15.392334-24.1878967"/>
	
		<linearGradient id="SVGID_24_" gradientUnits="userSpaceOnUse" x1="256.5011597" y1="79.5662231" x2="347.2920227" y2="79.5662231" gradientTransform="matrix(0.9202952 -0.3912247 0.3912247 0.9202952 -90.690712 141.2097473)">
		<stop  offset="0" style="stop-color:#FFF5EB"/>
		<stop  offset="0.2178529" style="stop-color:#FCF1E3"/>
		<stop  offset="0.5443361" style="stop-color:#F5E5CD"/>
		<stop  offset="0.7379808" style="stop-color:#F0DCBD"/>
	</linearGradient>
	<path class="st29" d="M262.1982727,88.3792801c-5.6998291-31.5115967-29.9871216-53.4994812-54.2471771-49.1113129
		s-39.3060913,33.4906769-33.6062622,65.0022659s29.9871063,53.4994812,54.2471619,49.1113129
		S267.8981018,119.8908691,262.1982727,88.3792801z"/>
	
		<linearGradient id="SVGID_25_" gradientUnits="userSpaceOnUse" x1="262.1141052" y1="57.3144341" x2="353.1261292" y2="81.7010345" gradientTransform="matrix(0.9058821 -0.4235299 0.4235299 0.9058821 -91.7577362 154.1044006)">
		<stop  offset="0" style="stop-color:#E9E9E9"/>
		<stop  offset="0.1863251" style="stop-color:#E6E6E6"/>
		<stop  offset="0.3890339" style="stop-color:#DCDCDC"/>
		<stop  offset="0.5994728" style="stop-color:#CCCBCB"/>
		<stop  offset="0.8138296" style="stop-color:#B4B4B4"/>
		<stop  offset="1" style="stop-color:#999998"/>
	</linearGradient>
	<path class="st30" d="M255.4690552,52.642971c-7.8603973-13.5433846-24.3375549-21.634119-45.6363068-18.7418747
		c-21.2987518,2.8922386-35.0217743,15.0839767-38.9858093,30.2330437
		c-4.2148132,16.1069031,6.538559,72.6157379,6.538559,72.6157379c8.5023651,7.5661926,33.4876556,5.015152,36.0097809,2.181015
		c-1.1212463-16.1097794-4.6668549-31.3085251-5.2205505-35.3860397
		c-0.5537109-4.0775223-12.5190277-0.3650665-17.0597382-0.1637115c-4.5407257,0.2012634-4.6790009-16.7813339-4.6790009-16.7813339
		c10.9429169-5.8782654,21.6206665-8.1273727,29.3075256-9.1712036c7.6868439-1.0438232,17.9069061-1.7004166,30.6918335,1.0236588
		c0,0,4.3954926,16.4044876-0.0344696,17.4213943c-4.4298706,1.0167847-16.9520111,0.6295853-16.3983154,4.7070999
		c0.5537109,4.0775223,1.1895447,19.6713943,4.405014,35.4968033c3.1864777,2.0589294,27.9473724-2.1452637,34.1241913-11.7047882
		C268.5317688,124.3727722,263.8263855,67.0426559,255.4690552,52.642971z"/>
	
		<linearGradient id="SVGID_26_" gradientUnits="userSpaceOnUse" x1="272.1537781" y1="87.9711761" x2="343.8275146" y2="87.9711761" gradientTransform="matrix(0.9058821 -0.4235299 0.4235299 0.9058821 -91.7577362 154.1044006)">
		<stop  offset="0" style="stop-color:#CCCCCC"/>
		<stop  offset="1" style="stop-color:#838382"/>
	</linearGradient>
	<path class="st31" d="M250.5843506,95.7882767c5.0900269-1.168396-0.1833649-21.659462-0.1833649-21.659462
		c-14.6900787-3.1299362-26.4330139-2.3756027-35.265274-1.1761322c-8.8322601,1.1993713-21.1011505,3.783577-33.6746826,10.5377655
		c0,0,0.3819275,21.1552963,5.5992126,20.9240189c5.2173615-0.2313919,15.6814117-4.0510025,16.317627,0.6340942
		c0.6351624,4.6773682,4.0292816,17.182724,5.3224792,35.6427994c2.4076385-0.4976044,4.1260071-1.1211853,4.694931-1.7604675
		c-1.1212463-16.1097794-4.6668549-31.3085251-5.2205505-35.3860397
		c-0.5537109-4.0775223-12.5190277-0.3650665-17.0597382-0.1637115c-4.5407257,0.2012634-4.6790009-16.7813339-4.6790009-16.7813339
		c10.9429321-5.8782578,21.6206512-8.1273727,29.3075256-9.1712036c7.6868896-1.0438309,17.9068604-1.7004776,30.6918335,1.0236588
		c0,0,4.3954926,16.4044876-0.0344696,17.4213943c-4.4298706,1.0167847-16.9520111,0.6295853-16.3983154,4.7070999
		c0.5537109,4.0775223,1.1895447,19.6713943,4.405014,35.4968033c0.718689,0.4644165,2.5412292,0.6071625,4.9943848,0.4447174
		c-3.6764984-18.1364517-3.7400818-31.0940704-4.3752441-35.7714462
		C234.3905029,96.0657425,245.4943237,96.9565659,250.5843506,95.7882767z"/>
	<polygon class="st17" points="208.8162079,26.4152279 203.780838,27.1006126 210.3279572,75.3141861 215.6947632,77.0694885 
		220.3990173,73.9465942 213.8519135,25.7330227 	"/>
	<polygon class="st18" points="203.780838,27.1005764 210.3279572,75.3141785 215.6947632,77.0694885 208.8162079,26.4151707 	"/>
</g>
<g id="Laag_2">
	
		<linearGradient id="SVGID_27_" gradientUnits="userSpaceOnUse" x1="231.8198853" y1="423.7136536" x2="280.344696" y2="507.7611389">
		<stop  offset="0" style="stop-color:#FFF5EB"/>
		<stop  offset="0.2952013" style="stop-color:#FEF2E4"/>
		<stop  offset="0.737602" style="stop-color:#FBEAD2"/>
		<stop  offset="1" style="stop-color:#F9E4C4"/>
	</linearGradient>
	<path class="st32" d="M270.4775391,401.3946533c0,0-11.0053406,65.3031006-22.298996,78.3637085
		c-11.2936401,13.0606079-39.8160706-18.502533-49.2274475-6.530304
		c-9.4113617,11.972229,25.4107208,33.7399292,48.9391632,42.446991
		c23.5284424,8.7070923,23.5479431-8.9996338,25.3146057-18.502533
		c1.4850464-7.9881592,17.8855286-87.0707703,17.8855286-87.0707703L270.4775391,401.3946533z"/>
	
		<linearGradient id="SVGID_28_" gradientUnits="userSpaceOnUse" x1="322.4978943" y1="457.3479919" x2="379.8193054" y2="556.6315918">
		<stop  offset="0" style="stop-color:#FFF5EB"/>
		<stop  offset="0.2952013" style="stop-color:#FEF2E5"/>
		<stop  offset="0.737602" style="stop-color:#FCEBD3"/>
		<stop  offset="1" style="stop-color:#FBE6C5"/>
	</linearGradient>
	<path class="st33" d="M375.9839478,446.4153137c0,0-31.7520447,50.9117432-30.9069519,68.1964417
		c0.8450928,17.284668,43.0369568,17.9547119,43.0610046,33.1690674c0.0240784,15.2142944-41.3516846,8.1135254-65.558136-1.1525269
		s-13.3655396-21.3892822-9.1741333-29.0552368c3.8226624-6.9915161,40.697113-78.472168,40.697113-78.472168
		L375.9839478,446.4153137z"/>
	
		<linearGradient id="SVGID_29_" gradientUnits="userSpaceOnUse" x1="473.4334412" y1="282.0024719" x2="517.2440186" y2="282.0024719" gradientTransform="matrix(0.8655282 -0.0429859 -0.0429859 0.9862589 70.8548965 22.649828)">
		<stop  offset="0" style="stop-color:#F0DCBD"/>
		<stop  offset="0.262398" style="stop-color:#F5E5CD"/>
		<stop  offset="0.7047987" style="stop-color:#FCF1E3"/>
		<stop  offset="1" style="stop-color:#FFF5EB"/>
	</linearGradient>
	<path class="st34" d="M505.0585938,193.6873322c0,0,8.6508179,138.691452-13.2982178,167.629776
		c-21.9490051,28.9383545-20.0445251-154.6107941-20.0445251-154.6107941L505.0585938,193.6873322z"/>
	
		<linearGradient id="SVGID_30_" gradientUnits="userSpaceOnUse" x1="218.8490448" y1="180.5951538" x2="318.1437988" y2="180.5951538" gradientTransform="matrix(0.9272438 -0.0154323 -0.0154323 0.9967267 24.9022312 5.2819977)">
		<stop  offset="0" style="stop-color:#FFF5EB"/>
		<stop  offset="0.2178529" style="stop-color:#FCF1E3"/>
		<stop  offset="0.5443361" style="stop-color:#F5E5CD"/>
		<stop  offset="0.7379808" style="stop-color:#F0DCBD"/>
	</linearGradient>
	<path class="st35" d="M294.5089722,107.5977859c0,0-75.5678558,108.3387222-70.1846313,142.3777466
		c5.3832092,34.0390167,93.502594-115.7677765,93.502594-115.7677765L294.5089722,107.5977859z"/>
	
		<linearGradient id="SVGID_31_" gradientUnits="userSpaceOnUse" x1="362.8611755" y1="98.9915771" x2="362.8611755" y2="512.1309814">
		<stop  offset="0" style="stop-color:#EBEBEB"/>
		<stop  offset="0.2889623" style="stop-color:#EBEBEB"/>
		<stop  offset="0.484864" style="stop-color:#E7E7E7"/>
		<stop  offset="0.7024673" style="stop-color:#DEDEDE"/>
		<stop  offset="0.9296678" style="stop-color:#CDCDCD"/>
		<stop  offset="1" style="stop-color:#C6C6C6"/>
	</linearGradient>
	<path class="st36" d="M210.1802673,423.4782715c-1.3080902,6.9347534,3.6169128,13.4560242,10.6416168,14.1309509
		c35.803421,3.4399719,69.1343536,12.4766846,88.5865326,21.4545898c16.0909119,7.4265747,64.7909546,36.6617432,88.9465942,51.3125
		c6.918457,4.1961365,15.9148865,0.5168152,17.9149475-7.3236389
		c13.0674133-51.2254944,53.8156738-210.4324036,59.5464478-226.3605652
		c6.069519-16.8696594,20.7795715-64.155365,36.8538208-80.5468597c4.7035522-4.7963867,3.9019775-12.6817322-1.5661316-16.5840912
		c-30.2368774-21.5789337-106.4325867-67.8379974-218.4786072-80.4761276
		c-8.8502502-0.9982529-16.5089722,6.1337662-16.2422485,15.0361176
		c0.7648315,25.5282059-3.7362061,82.4237137-6.5818481,101.5248489
		C254.5622864,317.9368591,220.1658325,370.5402222,210.1802673,423.4782715z"/>
	
		<radialGradient id="SVGID_32_" cx="332.6306152" cy="283.0818481" r="47.9950142" gradientTransform="matrix(0.953398 0.3017155 -0.3017155 0.953398 120.0300217 -63.4331207)" gradientUnits="userSpaceOnUse">
		<stop  offset="0" style="stop-color:#BE1622"/>
		<stop  offset="1" style="stop-color:#9E151A"/>
	</radialGradient>
	<path class="st37" d="M337.2785034,352.5730896c0,0,60.244873-31.270874,67.4731445-54.1514893
		s-15.6487122-30.1203308-15.6487122-30.1203308s-22.756134-7.2115479-30.0600281,15.4674988
		c7.0733643-22.7519836-15.6885681-29.9452667-15.6885681-29.9452667s-22.8769836-7.2397156-30.1281433,15.6336517
		s24.03479,83.1104126,24.03479,83.1104126"/>
	
		<radialGradient id="SVGID_33_" cx="391.1813049" cy="154.3327484" r="21.1540794" gradientTransform="matrix(0.9130067 0.4079445 -0.4079445 0.9130067 157.5218811 -87.6059036)" gradientUnits="userSpaceOnUse">
		<stop  offset="0" style="stop-color:#BE1622"/>
		<stop  offset="1" style="stop-color:#9E151A"/>
	</radialGradient>
	<path class="st38" d="M443.0886841,232.194809c0,0,27.9456787-10.6809387,32.2552795-20.3390808
		s-5.3463745-13.97258-5.3463745-13.97258s-9.6044922-4.2960358-13.9371338,5.2700653
		c4.2353516-9.6095734-5.3725891-13.8979187-5.3725891-13.8979187s-9.6559753-4.3144226-13.9752502,5.3394012
		c-4.3192444,9.6538239,6.3686829,37.596817,6.3686829,37.596817"/>
	
		<radialGradient id="SVGID_34_" cx="258.3418579" cy="160.2987213" r="21.1540794" gradientTransform="matrix(0.9682161 0.2501153 -0.2501153 0.9682161 104.355835 -55.4868469)" gradientUnits="userSpaceOnUse">
		<stop  offset="0" style="stop-color:#BE1622"/>
		<stop  offset="1" style="stop-color:#9E151A"/>
	</radialGradient>
	<path class="st39" d="M309.1068726,184.8129883c0,0,25.7753296-15.1879883,28.4154358-25.429184
		c2.6401062-10.2412109-7.599762-12.8864441-7.599762-12.8864441s-10.1860352-2.6356659-12.8641968,7.5186157
		c2.5749817-10.1809387-7.6131897-12.8084412-7.6131897-12.8084412s-10.2398682-2.6452179-12.8901978,7.593338
		c-2.6503601,10.2385406,12.5440674,36.0100861,12.5440674,36.0100861"/>
	
		<radialGradient id="SVGID_35_" cx="113.2158432" cy="441.4512939" r="21.1540794" gradientTransform="matrix(-0.9736075 -0.228229 0.228229 -0.9736075 269.5175171 855.6208496)" gradientUnits="userSpaceOnUse">
		<stop  offset="0" style="stop-color:#BE1622"/>
		<stop  offset="1" style="stop-color:#9E151A"/>
	</radialGradient>
	<path class="st40" d="M264.8652649,379.3867188c0,0-25.4264526,15.7650757-27.8350677,26.0632019
		c-2.4085999,10.2980957,7.8883057,12.711853,7.8883057,12.711853s10.2428436,2.405426,12.691452-7.8066406
		c-2.3448486,10.2363892,7.8999329,12.633606,7.8999329,12.633606s10.296875,2.4137268,12.7157898-7.881958
		s-13.3525391-35.7182007-13.3525391-35.7182007"/>
	
		<radialGradient id="SVGID_36_" cx="-15.9276447" cy="448.1219482" r="21.1540794" gradientTransform="matrix(-0.8966684 -0.4427029 0.4427029 -0.8966684 169.6952515 844.659668)" gradientUnits="userSpaceOnUse">
		<stop  offset="0" style="stop-color:#BE1622"/>
		<stop  offset="1" style="stop-color:#9E151A"/>
	</radialGradient>
	<path class="st41" d="M391.7223816,430.9259338c0,0-28.3352051,9.5999451-33.0124817,19.0854797
		c-4.6773071,9.4855347,4.8058777,14.167572,4.8058777,14.167572s9.4324341,4.6616821,14.1292114-4.7309875
		c-4.6012268,9.4398499,4.8349609,14.0939636,4.8349609,14.0939636s9.4831848,4.6820374,14.1699524-4.7988281
		c4.6867981-9.480835-4.9202576-37.8136292-4.9202576-37.8136292"/>
	
		<linearGradient id="SVGID_37_" gradientUnits="userSpaceOnUse" x1="348.3670044" y1="98.2027664" x2="469.122406" y2="98.2027664" gradientTransform="matrix(0.9993743 0.0353691 -0.0353691 0.9993743 6.4278684 -11.2291145)">
		<stop  offset="0" style="stop-color:#FFF5EB"/>
		<stop  offset="0.2178529" style="stop-color:#FCF1E3"/>
		<stop  offset="0.5443361" style="stop-color:#F5E5CD"/>
		<stop  offset="0.7379808" style="stop-color:#F0DCBD"/>
	</linearGradient>
	<path class="st42" d="M468.8447571,116.5403824c10.8833618-41.1777954-5.9933777-81.3513794-37.6952209-89.7302246
		s-66.223938,18.2099609-77.1072998,59.3877525s5.9933777,81.3513947,37.6952209,89.7302246
		C423.43927,184.3069763,457.9613953,157.7181854,468.8447571,116.5403824z"/>
	
		<linearGradient id="SVGID_38_" gradientUnits="userSpaceOnUse" x1="315.7702332" y1="175.5862579" x2="319.7764893" y2="164.5791321">
		<stop  offset="0" style="stop-color:#FFFFFF"/>
		<stop  offset="0.2642667" style="stop-color:#FDFDFD"/>
		<stop  offset="0.4516537" style="stop-color:#F6F6F6"/>
		<stop  offset="0.6153428" style="stop-color:#EBEBEB"/>
		<stop  offset="0.765353" style="stop-color:#DBDBDB"/>
		<stop  offset="0.9047925" style="stop-color:#C5C5C5"/>
		<stop  offset="1" style="stop-color:#B2B2B2"/>
	</linearGradient>
	<polygon class="st43" points="283.4649963,163.0066528 286.7168274,152.5463867 351.3225098,176.0653839 348.8299255,187.6190033 	
		"/>
	<polyline class="st44" points="313.7264404,199.3098755 292.8357849,190.0802307 316.5982971,163.4244232 	"/>
	<path class="st45" d="M116.930481,168.5792236c-3.6004028-8.7364502-12.7958984-14.9121704-25.7662354-14.9121704
		s-22.1658936,6.1757202-25.7662354,14.9121704c-3.828064,9.2888184-1.9865112,43.9511719-1.9865112,43.9511719
		c4.4696045,5.2145386,19.6165771,5.7178955,21.3547974,4.2280273c0.6376343-9.7238159-0.2483521-19.0997314-0.2483521-21.5828247
		s-7.4560547-1.2348022-10.1875-1.4830933c-2.7314453-0.2483521-1.4351807-10.4142456-1.4351807-10.4142456
		c7.0205612-2.6263428,13.5879059-3.104187,18.2689819-3.104187c4.6810608,0,10.8454208,0.4372406,18.2689209,3.104187
		c0,0,1.2962646,10.1658936-1.4351807,10.4142456c-2.7313843,0.248291-10.1875-1-10.1875,1.4830933
		s-0.8859863,11.8590088-0.248291,21.5828247c1.7381592,1.4898682,16.8851929,0.9865112,21.3547974-4.2280273
		C118.9169922,212.5303955,120.7584839,177.868042,116.930481,168.5792236z"/>
	<path class="st46" d="M110.5064087,193.9811401c3.1384277-0.2853394,1.6490479-12.9660645,1.6490479-12.9660645
		c-8.5297241-3.0643311-15.6126099-3.5667725-20.9912109-3.5667114c-5.3786011,0-12.9245605,0.5490112-20.991272,3.5667114
		c0,0-1.4893799,12.6807251,1.6490479,12.9660645c3.1384888,0.2852783,9.7055664-1.1489868,9.7055664,1.7041016
		c0,2.8483887,1.0140991,10.6015015,0.2884521,21.7446289c1.4800415-0.1020508,2.5581665-0.3353882,2.9502563-0.6714478
		c0.6376343-9.7238159-0.2483521-19.0997314-0.2483521-21.5828247s-7.4560547-1.2348022-10.1875-1.4830933
		c-2.7314453-0.2483521-1.4351807-10.4142456-1.4351807-10.4142456c7.0205688-2.6263428,13.5878906-3.104187,18.2689819-3.104187
		s10.8453979,0.4371948,18.2689209,3.104187c0,0,1.2962646,10.1658936-1.4351807,10.4142456
		c-2.7313843,0.248291-10.1875-1-10.1875,1.4830933s-0.8859863,11.8590088-0.248291,21.5828247
		c0.3920288,0.3360596,1.4702148,0.569397,2.9502563,0.6714478c-0.725708-11.1431274,0.2883911-18.8962402,0.2883911-21.7446289
		C100.8008423,192.8321533,107.367981,194.2664185,110.5064087,193.9811401z"/>
	<polygon class="st47" points="91.1642456,149.1083679 88.0977173,149.1093292 88.0977173,178.4700317 91.1642456,179.9553833 
		94.2307129,178.4700317 94.2307129,149.1093292 	"/>
	<polygon class="st47" points="88.0977173,149.109314 88.0977173,178.4700317 91.1642456,179.9553833 91.1642456,149.1083374 	"/>
	
		<linearGradient id="SVGID_39_" gradientUnits="userSpaceOnUse" x1="353.9761353" y1="72.5728607" x2="475.0256653" y2="105.0079956">
		<stop  offset="0" style="stop-color:#E9E9E9"/>
		<stop  offset="0.1863251" style="stop-color:#E6E6E6"/>
		<stop  offset="0.3890339" style="stop-color:#DCDCDC"/>
		<stop  offset="0.5994728" style="stop-color:#CCCBCB"/>
		<stop  offset="0.8138296" style="stop-color:#B4B4B4"/>
		<stop  offset="1" style="stop-color:#999998"/>
	</linearGradient>
	<path class="st48" d="M480.8676758,69.6925507c-1.8415222-20.7457123-17.1365662-39.7756729-44.4277649-48.2887573
		c-27.2912292-8.5130863-50.6932678-1.5541039-64.0030212,14.4653988
		c-14.1514587,17.0322914-33.0272522,91.174942-33.0272522,91.174942
		c5.9820557,13.9056702,37.5228271,24.9065247,42.1581116,22.9125366
		c7.7239075-20.041626,12.0135498-40.3512421,13.6433411-45.5759811s-14.8780212-7.4919662-20.4623413-9.8071899
		c-5.5843201-2.3153458,3.8155823-22.8548584,3.8155823-22.8548584c16.4959412-0.9182205,30.6280823,2.3868256,40.4776611,5.4592514
		c9.8495483,3.0724182,22.5331421,8.0383987,36.4026794,18.5224152c0,0-3.9448853,22.241127-9.8551941,20.9709015
		c-5.9101257-1.2703094-20.7794189-8.7906952-22.4092102-3.5659561s-9.6478882,24.3713303-14.688324,45.2500076
		c2.6794128,4.2757111,34.881073,13.1583557,47.708252,5.1199341
		C456.2001953,163.4751892,482.8255615,91.7499084,480.8676758,69.6925507z"/>
	
		<linearGradient id="SVGID_40_" gradientUnits="userSpaceOnUse" x1="367.3292847" y1="113.3475266" x2="462.6581421" y2="113.3475266">
		<stop  offset="0" style="stop-color:#CCCCCC"/>
		<stop  offset="1" style="stop-color:#838382"/>
	</linearGradient>
	<path class="st49" d="M450.6780701,118.9249344c6.7909241,1.4595184,11.980072-26.1998749,11.980072-26.1998749
		c-15.9363098-12.0462265-30.5098267-17.7522812-41.8271179-21.282402
		c-11.3172607-3.5302505-27.5552368-7.3278503-46.5092773-6.2728195c0,0-11.4568481,25.704277-5.0404968,28.3645782
		c6.4165344,2.6602097,21.1758728,3.9526443,19.3032532,9.9558945c-1.8695374,5.9933701-4.8245239,22.972496-13.6651611,45.9427643
		c3.1811829,0.7566986,5.6028442,0.9733429,6.648407,0.5235901c7.7239075-20.041626,12.0135498-40.3512421,13.6433411-45.5759811
		s-14.8780212-7.4919662-20.4623413-9.8071899c-5.5843201-2.3153458,3.8155823-22.8548584,3.8155823-22.8548584
		c16.4959717-0.9182053,30.6280823,2.3868179,40.4776611,5.4592514c9.8496094,3.0724411,22.5331421,8.0382996,36.4026794,18.5224152
		c0,0-3.9448853,22.241127-9.8551941,20.9709015c-5.9101257-1.2703094-20.7794189-8.7906952-22.4092102-3.5659561
		s-9.6478882,24.3713303-14.688324,45.2500076c0.6043091,0.9644165,2.7197876,2.1630554,5.7669983,3.3492126
		c5.7868042-23.9228516,13.0093689-39.5707779,14.8789062-45.5641403
		C431.0104675,110.1370697,443.8871765,117.4652863,450.6780701,118.9249344z"/>
	<polygon class="st17" points="439.4319763,11.8117552 432.9790039,9.8010664 413.7080994,71.5796661 419.1855469,76.7177429 
		426.6126709,75.6050568 445.883606,13.8264608 	"/>
	<polygon class="st18" points="432.9790039,9.8010187 413.7080994,71.5796585 419.1855469,76.7177429 439.4320068,11.8116808 	"/>
	<g>
		<path d="M432.9790039,9.8009882l6.4530029,2.0106668v0.000083l6.4515686,2.0146666l-3.0723267,9.8494167
			c23.2952576,9.3346653,36.363739,26.9473324,38.056427,46.0167542
			c1.4135742,15.9257507-12.0720825,57.7393341-19.6796875,79.7580795
			c22.2580872,11.4199982,39.0531006,22.3580017,49.9161072,30.1104126
			c5.4680481,3.90242,6.2697449,11.7878418,1.5661316,16.5841675c-2.3782349,2.4252472-4.7253113,5.5393372-7.0202332,9.1184998
			c1.5075073,33.912674,4.1912537,132.2149353-13.8895874,156.0533447
			c-1.6041565,2.1149597-3.0800476,3.0945435-4.4393921,3.0945435c-8.6101685,0-12.5127258-39.3369751-14.2616882-78.7167053
			c-10.9450684,38.0733337-45.0447388,171.3178101-56.7893982,217.3578186
			c-1.4287109,5.6007996-6.4277039,9.0782471-11.6890564,9.0782471c-2.1038208,0-4.2496338-0.5560608-6.2258606-1.7546692
			c-11.1192627-6.743988-27.4383545-16.5771484-43.3845215-25.9520874
			c-5.6871643,11.8314209-10.2197266,23.5151062-9.8934937,30.1874084
			c0.8450928,17.284668,43.0369263,17.954834,43.0610046,33.1691284c0.0101318,6.4036865-7.3118286,8.8538208-17.6029358,8.8538208
			c-14.1592102,0-33.9371643-4.6403198-47.9551392-10.0062866c-24.2065125-9.2660522-13.3656006-21.3892822-9.1741638-29.0552979
			c1.9841614-3.6289062,12.8726501-24.6314392,22.8875732-43.9950867
			c-11.3609924-6.4970093-21.178009-11.880188-26.8849182-14.5140991
			c-7.1365051-3.2938232-16.1464233-6.5943298-26.4557495-9.6245728
			c-4.3598328,21.1240845-8.9909058,43.6619873-9.7478333,47.7332458
			c-1.4346008,7.7170715-1.7149048,20.8426514-14.370636,20.8426514c-2.9287415,0-6.5223236-0.7037964-10.9439545-2.3400879
			c-23.5284119-8.7070618-58.3505707-30.474823-48.9391632-42.446991c1.553833-1.976593,3.6285095-2.7665405,6.0606537-2.76651
			c9.6854095,0.000061,25.0377502,12.5267944,35.7304688,12.5267944c2.8856049,0,5.4325562-0.9126892,7.4363861-3.230011
			c4.7815704-5.5296021,9.5111389-20.4242554,13.3759766-35.7624207
			c-12.7148132-2.7736816-26.5269012-5.0218506-40.7326508-6.3866577
			c-4.9705811-0.4776001-8.8769073-3.8871765-10.2806702-8.2942505
			c-11.2779083-1.9890137-20.0216675-5.8852539-18.5844879-12.0544434c1.0569458-4.5372009,6.5620117-5.1736755,12.9604645-5.173584
			c2.4964752,0.0000305,5.1287537,0.0969543,7.6855316,0.0969543c0.0206146,0,0.0425568,0,0.0631714-0.0000305
			c2.7763214-11.1490784,6.4872437-22.4396667,10.7378235-34.3340759
			c-8.9869995,2.1052551-18.4458313,4.8281555-27.8935852,8.1867371c-1.0032349,0.3566284-2.0254822,0.525238-3.0291443,0.525238
			c-3.977829,0-7.6632233-2.648468-8.7116852-6.7359619c-2.8190002-10.9900208-4.3237457-22.5731812-5.5175781-35.1906128
			c-1.8830109,0.4440918-3.4880066,0.8540039-4.715332,1.2149353c-4.1342621,1.2159119-9.0467529,3.1083374-14.39534,5.5777588
			c5.8249969,10.2947388,12.0473328,21.2694092,13.204422,23.2233887
			c2.7008362,4.5609436,9.0841675,11.8782654-3.7724152,16.7763367c-7.2867584,2.776123-17.5847778,5.1294861-25.2200928,5.1294861
			c-5.8362427,0-10.1171112-1.3755188-10.3059998-4.9885559c-0.4360046-8.3398438,22.7324219-5.6044922,22.6806641-15.0730896
			c-0.0219116-4.0079956-3.446167-11.8613281-7.38591-19.5870056c-6.2519226,3.4449158-12.7636719,7.4952698-19.1226654,12.0606689
			c-1.167511,0.8381348-2.5110016,1.2382202-3.8383331,1.2382202c-2.2325058,0-4.4192581-1.1318054-5.6458359-3.2147827
			c-14.9935837-25.4615173-19.7762527-59.5988464-50.4143372-107.3404236
			c-0.6787491-1.0576782-1.5449142-2.3494263-2.5516663-3.8115082c2.774826,19.5853729,4.2423553,38.4209442-0.3829803,38.4209442
			c-0.6369019,0-1.3897552-0.3575134-2.2701874-1.1192627c-10.1266632-8.7616882-17.7134132-47.5307617-21.2324104-69.0466766
			c-2.7880859-3.4189148-5.3679199-6.4463348-7.4918365-8.7336731c-3.3234978-3.5789948-2.7360001-9.2879944,1.2780838-12.0704193
			c8.2853355-5.7430725,16.5350838-10.7686615,24.6320839-15.1702423
			c-5.6411667-11.9590912-14.2948341-31.5672455-14.5004997-39.7369995
			c-0.2641678-10.4931641,5.7705002-20.8927536,17.8772469-27.428421l-2.2920799-5.1870804l3.3899117-1.4992523v0.0000839
			l3.3907547-1.4970016l2.2920837,5.187088c4.4179916-1.5486069,8.6927109-2.2761612,12.7096634-2.2760773
			c7.7882156,0.0001602,14.6056519,2.7355576,19.6068344,7.5254059
			c6.3896713,6.1196671,16.0305023,28.5973434,20.7940826,40.3504257c4.1324081-1.0174255,8.0518265-1.8753357,11.7170029-2.5938416
			c-2.1486664-4.9916687-4.1800079-9.4532471-5.9432526-12.9477539c-3.0164948-5.9785004-0.071167-13.274826,6.2745056-15.4131622
			c13.0975037-4.4134216,25.8750763-7.8953323,38.2142487-10.6134186c-2.8817444-17.899498-6.8208313-47.02108-3.9851685-57.8571625
			c3.6436615-13.9249992,15.5384979-25.3450012,33.9776611-29.3469162l-1.0438232-7.6866684l5.0354156-0.6854153v0.000082
			l5.0356598-0.6822491l1.0438385,7.6867504c1.1394806-0.0641327,2.2628174-0.0957184,3.3699646-0.0957146
			c17.197113,0.0000877,30.4150543,7.6228752,37.2032776,19.3189621
			c6.0889282,10.4912529,10.238678,43.7657509,12.0431824,61.0587502c3.0549011,0.1213379,6.0127258,0.2787552,8.8720703,0.4654999
			c-0.0004272-0.0148315-0.0005798-0.03125-0.0010071-0.0460815c-0.249939-8.3422089,6.4591675-15.1298141,14.5869751-15.1296158
			c0.5458069,0.0000076,1.0983582,0.030632,1.6552734,0.0934525c18.3251038,2.0669098,35.6843567,5.0375824,52.0472717,8.6480789
			c6.6154785-23.196167,18.2561646-60.4203339,27.7641602-71.8638306
			c9.4101562-11.326086,23.8633118-18.1167507,41.1716309-18.1157875c5.1944275,0.0002899,10.6493835,0.612278,16.2981262,1.8969517
			L432.9790039,9.8009882 M429.6942444,3.5403214l-1.4884033,4.7717495l-1.7339478,5.5587883
			c-4.3552246-0.7421761-8.664978-1.1171856-12.8630676-1.1173716
			c-18.3563232-0.0010834-34.3439026,7.0735006-45.0177307,19.9205017
			c-9.1759338,11.0437851-19.7549744,42.7930908-27.4303589,69.1864624
			c-15.796814-3.3303757-31.9119263-5.9321594-47.974823-7.7439651c-0.7346497-0.0829163-1.4801636-0.1249161-2.2156677-0.1249161
			c-5.3164978-0.0001678-10.2989197,2.1166687-14.0293274,5.9604187c-2.4153748,2.4887619-4.09375,5.4890442-4.9373169,8.7485123
			c-2.4481506-22.1330185-6.4457397-48.6351471-12.2102051-58.5673447
			c-7.8997192-13.6111298-22.6390991-21.5218029-40.5427246-21.8014812l-0.4442596-3.2715206l-0.6725769-4.9529991
			l-4.9531708,0.6710835l-5.0356598,0.6822491l-5.0384979,0.685751l-4.9528351,0.6740837l0.6726685,4.953083l0.4447937,3.2754383
			c-17.0183868,5.0263977-29.2985535,16.6751671-33.2613068,31.8196449
			c-2.7362671,10.4563408,0.0262299,34.9331856,3.1560669,55.2820244
			c-11.5092163,2.690033-22.9736023,5.9517441-34.1445618,9.7159729c-4.3819122,1.476593-7.9036636,4.7826691-9.6624146,9.0704193
			c-1.7687531,4.3123322-1.5790024,9.1720886,0.5205002,13.3333282c0.9954453,1.9727783,2.1150284,4.3365479,3.3463974,7.0644073
			c-0.5501709,0.1221313-1.1006622,0.2462311-1.6519547,0.3723907c-6.198616-14.9379272-14.2522354-32.2786255-20.339859-38.108963
			c-6.0019989-5.7483292-14.1933365-8.9142456-23.0651703-8.9144135c-3.2507019-0.000061-6.5699921,0.4133911-9.9138718,1.2325211
			l-0.5145416-1.1644363l-2.020256-4.5719147l-4.5725784,2.0187454l-3.3907509,1.4970016l-3.3927498,1.5004959l-4.5714149,2.0216675
			l2.0202484,4.5720062l0.516407,1.1686401c-10.7139969,7.2304459-16.8171844,18.0076065-16.5265732,29.5517654
			c0.1640015,6.5154266,4.534626,19.1210022,12.9982643,37.5006561c-7.1805153,4.066925-14.2203598,8.4860687-20.979847,13.1714325
			c-3.0944195,2.1450043-5.1027527,5.5263367-5.5099182,9.2772522c-0.4092503,3.7700806,0.8359165,7.526001,3.4163322,10.3048401
			c1.7502747,1.8848724,3.9135399,4.3923798,6.4394569,7.4637604c6.5516815,39.5618286,14.1796875,63.3432312,22.6772118,70.6954041
			c1.7930832,1.5514221,3.6575813,2.3380737,5.5416679,2.3380737c1.9469986,0,3.7478333-0.8390808,5.0706635-2.3625793
			c1.8345642-2.112793,3.5578079-5.7310486,2.6999207-19.5865173
			c12.3562317,21.7701111,19.3721542,40.2600098,25.6978302,56.9303589
			c5.0632477,13.3432312,9.4360046,24.8668213,15.5720825,35.2868958c2.0622559,3.5021057,5.876503,5.6776733,9.9543381,5.6776733
			c2.4352493,0,4.7708282-0.752655,6.7542419-2.1765747c4.500473-3.2310791,9.2153931-6.2976379,14.0673523-9.1509705
			c4.1434326,8.7601624,4.5210266,11.8406372,4.5254059,12.6429749c0.0000763,0.0126343-0.0001678,0.0231018-0.0005188,0.0315247
			c-0.7572784,1.186615-5.8254852,2.5472107-8.2719879,3.2040405c-2.9712524,0.7976074-6.0436707,1.6224365-8.5416718,2.9318542
			c-5.367157,2.8134155-5.9750748,6.9337463-5.8597412,9.1393127c0.1899109,3.6330261,2.4301605,9.7276001,15.2991638,9.7276001
			c8.7565918,0,19.8703308-2.7408447,27.0001678-5.4570923c5.7163391-2.1778259,9.1300812-5.1469116,10.4363403-9.0769043
			c0.1405334-0.4228516,0.2517548-0.842041,0.3364563-1.2574158c2.5707092,3.559082,6.7497101,5.7960815,11.3550415,5.7960815
			c1.6018372,0,3.184494-0.2739258,4.7039948-0.8140869c6.0166016-2.138855,12.1871948-4.0698853,18.4319-5.7696228
			c-2.8430023,8.3505249-5.0385284,15.4948425-6.8130951,22.1577148c-1.2784424-0.0240784-2.600296-0.0488586-3.8865509-0.0488586
			c-0.0152588,0-0.0312805,0-0.0466461,0c-5.1214294,0-15.6840668,0.026886-17.783432,9.0392761
			c-0.6721802,2.8851624-0.1565094,5.7289734,1.4911652,8.2239075c2.8457642,4.3088989,8.8851624,7.3866577,18.4238281,9.3761902
			c2.6529083,4.9385071,7.6183014,8.3100586,13.3415833,8.8599854c11.6770782,1.1218567,23.4454193,2.8765564,35.0554199,5.224884
			c-5.3384399,19.9550476-9.1407776,26.5235291-11.0026703,28.6766052
			c-0.6415863,0.7420044-1.5774994,1.5004883-3.6543274,1.5004883c-4.3179169,0-10.5179291-3.0422363-16.5138397-5.9844055
			c-6.8566589-3.3644104-13.3329926-6.5423279-19.2165833-6.5423279c-5.2194214-0.0001831-8.3143311,2.5429077-9.9915009,4.6764221
			c-2.5540771,3.2489929-3.2797546,7.1784058-2.098587,11.3634033c4.1654205,14.7591553,33.6367493,31.6108398,53.2332611,38.862854
			c4.8203278,1.7838135,8.9677429,2.6508789,12.679245,2.6508789c15.4058228,0,17.6244202-14.3518982,18.8163452-22.0622253
			c0.1593323-1.0308533,0.3098145-2.0045166,0.4700623-2.8665771c0.5710449-3.0712585,3.5431519-17.6421509,8.6203308-42.2629089
			c7.7929077,2.4709473,14.8279419,5.1289368,20.5721741,7.7801514c4.466217,2.0612793,11.967926,6.0735779,22.3321838,11.9434814
			c-12.0071716,23.2063904-19.122345,36.8760376-20.6265869,39.6272583
			c-0.3961792,0.7246704-0.8886719,1.5430298-1.4100037,2.4093628c-2.9781799,4.9486694-7.0568542,11.7260742-4.4613342,19.2608032
			c2.0555725,5.9675293,7.8273315,10.6952515,17.6450806,14.4534302
			c13.4411621,5.1450806,34.0347595,10.3366699,49.7426758,10.3366699c9.2286682,0,15.5037231-1.791748,19.1837463-5.4776001
			c2.2420044-2.2454834,3.4243164-5.1447144,3.4191589-8.3841553
			c-0.0170898-10.7913208-11.9614258-15.5257568-23.5125122-20.1043091
			c-9.0360718-3.581604-19.2777405-7.6411133-19.5544739-13.3010254c-0.1225891-2.5084229,0.7111206-8.6942749,7.1022339-22.8414001
			c14.4600525,8.5417786,28.7442932,17.1545105,38.5888367,23.1253967c2.6745911,1.6220703,5.7240906,2.4794922,8.8187561,2.4794922
			c7.8059998,0,14.6049805-5.2810059,16.533905-12.8423157c8.6425171-33.8794556,33.9266357-132.7394409,48.8006287-188.2550354
			c0.7867737,9.5091553,1.7087402,17.7150574,2.7599487,24.5474548
			c3.1508484,20.4778137,7.3939209,28.8305664,14.6456909,28.8305664c3.0359802,0,5.8699951-1.7068176,8.4231567-5.072998
			c8.5065002-11.215332,13.5117493-36.4186707,15.3018188-77.0503235
			c1.3663635-31.0154724,0.4165344-63.2202911-0.3304749-80.6340485c1.9189453-2.8694305,3.7736206-5.2226715,5.5246582-7.0083008
			c3.2352295-3.2989044,4.8575439-7.8435822,4.4511719-12.4684906c-0.4121704-4.6900024-2.8479614-8.9495087-6.6828003-11.6862488
			c-9.7831421-6.9818573-25.6328735-17.4317474-46.6931152-28.4932251
			c9.5203552-27.9545593,19.8752747-62.6214676,18.5326538-77.7475281
			c-1.8250732-20.5610123-15.5143127-38.3701591-36.9260864-48.3738441l1.7347412-5.5613232l1.4884338-4.7716665
			l-4.7711792-1.4899168l-6.4515686-2.0146666l-6.4559937-2.0116663L429.6942444,3.5403214L429.6942444,3.5403214z
			 M166.2205658,353.7848511c2.7295532-1.1277466,5.3083191-2.0759888,7.6410065-2.8077393
			c0.7361145,6.9081726,1.7099152,14.3448792,3.1851044,21.7788086c-0.1398773-0.2234497-0.2738342-0.4410706-0.3989258-0.6522522
			C176.0670013,371.1229553,173.7389679,367.0620422,166.2205658,353.7848511L166.2205658,353.7848511z"/>
	</g>
</g>
</svg>
