<svg xmlns="http://www.w3.org/2000/svg" viewBox="0 0 566.93 566.93"><style>.st2{display:inline;fill:#fff}.st5{fill:#b2b2b2}.st17{fill:#878787}.st18,.st47{fill:#9d9d9c}.st47{display:none}</style><g id="Laag_3_kopie"><linearGradient id="SVGID_1_" gradientUnits="userSpaceOnUse" x1="96.138" y1="254.856" x2="122.748" y2="300.947" gradientTransform="rotate(-41.164 251.459 263.643)"><stop offset="0" stop-color="#fff5eb"/><stop offset=".295" stop-color="#fef2e4"/><stop offset=".738" stop-color="#fae9d1"/><stop offset="1" stop-color="#f7e2c2"/></linearGradient><path d="M136.648 336.094s19.028 30.933 19.08 40.401c.051 9.47-23.117 6.734-22.681 15.074.436 8.34 22.67 4.757 35.526-.141 12.857-4.898 6.473-12.216 3.773-16.777-2.27-3.834-24.046-42.403-24.046-42.403l-11.652 3.846z" fill="url(#SVGID_1_)"/><linearGradient id="SVGID_2_" gradientUnits="userSpaceOnUse" x1="145.865" y1="273.301" x2="177.3" y2="327.747" gradientTransform="rotate(-41.164 251.459 263.643)"><stop offset="0" stop-color="#fff5eb"/><stop offset=".218" stop-color="#fcf1e3"/><stop offset=".544" stop-color="#f5e5cd"/><stop offset=".738" stop-color="#f0dcbd"/></linearGradient><path d="M196.456 316.597s5.269 32.48 11.857 39.311c6.588 6.831 24.248-8.122 29.75-1.85 5.502 6.273-14.143 18.277-27.482 23.189-13.338 4.912-13.238-4.006-14.275-8.684-.945-4.266-11.523-47.087-11.523-47.087l11.673-4.879z" fill="url(#SVGID_2_)"/><path class="st5" d="M168.32 157.182s6.264-.703 6.89 13.353c.494 11.099 7.974 39.63 14.954 68.562 4.999 20.72-39.889-39.79-39.889-39.79l9.801-40.24 8.244-1.885z"/><linearGradient id="SVGID_3_" gradientUnits="userSpaceOnUse" x1="227.081" y1="178.444" x2="251.106" y2="178.444" gradientTransform="rotate(-41.164 251.459 263.643)"><stop offset="0" stop-color="#fff5eb"/><stop offset=".218" stop-color="#fcf1e3"/><stop offset=".544" stop-color="#f5e5cd"/><stop offset=".738" stop-color="#f0dcbd"/></linearGradient><path d="M161.546 166.224s58.052 52.22 58.377 72.55c.325 20.329-69.876-54.084-69.876-54.084l11.5-18.466z" fill="url(#SVGID_3_)"/><linearGradient id="SVGID_4_" gradientUnits="userSpaceOnUse" x1="86.38" y1="124.148" x2="140.833" y2="124.148" gradientTransform="matrix(.64625 -.59868 .6356 .76546 -94.55 221.276)"><stop offset="0" stop-color="#fff5eb"/><stop offset=".218" stop-color="#fcf1e3"/><stop offset=".544" stop-color="#f5e5cd"/><stop offset=".738" stop-color="#f0dcbd"/></linearGradient><path d="M40.71 209.58s9.208 71.278 23.406 83.562-4.89-80.593-4.89-80.593L40.71 209.58z" fill="url(#SVGID_4_)"/><linearGradient id="SVGID_5_" gradientUnits="userSpaceOnUse" x1="171.548" y1="76.78" x2="171.548" y2="303.343" gradientTransform="rotate(-41.164 251.459 263.643)"><stop offset="0" stop-color="#ebebeb"/><stop offset=".289" stop-color="#ebebeb"/><stop offset=".485" stop-color="#e7e7e7"/><stop offset=".702" stop-color="#dedede"/><stop offset=".93" stop-color="#cdcdcd"/><stop offset="1" stop-color="#c6c6c6"/></linearGradient><path d="M119.735 366.993c1.956 3.321 6.353 4.224 9.484 1.976 16.023-11.503 33.046-19.804 44.317-23.119 9.324-2.742 39.981-8.25 55.242-10.921 4.373-.766 6.758-5.533 4.753-9.493-13.097-25.868-53.739-106.3-57.122-114.944-4.54-11.597-18.637-48.189-8.089-53.31 0 0-64.678-.314-131.65 46.11-4.015 2.782-4.602 8.491-1.279 12.07 9.53 10.263 28.21 35.377 33.93 44.29 30.638 47.742 35.42 81.88 50.414 107.34z" fill="url(#SVGID_5_)"/><radialGradient id="SVGID_6_" cx="116.616" cy="229.703" r="26.32" gradientTransform="rotate(-23.603 217.295 202.173)" gradientUnits="userSpaceOnUse"><stop offset="0" stop-color="#be1622"/><stop offset="1" stop-color="#9e151a"/></radialGradient><path d="M146.604 291.826s13.584-34.656 8.31-46.712c-5.276-12.055-17.334-6.786-17.334-6.786s-11.997 5.236-6.827 17.236c-5.292-11.946-17.286-6.7-17.286-6.7s-12.058 5.269-6.795 17.33c5.263 12.06 39.922 25.636 39.922 25.636" fill="url(#SVGID_6_)"/><radialGradient id="SVGID_7_" cx="146.593" cy="182.957" r="11.601" gradientTransform="rotate(-17.088 177.927 198.447)" gradientUnits="userSpaceOnUse"><stop offset="0" stop-color="#be1622"/><stop offset="1" stop-color="#9e151a"/></radialGradient><path d="M146.835 203.935s7.682-14.497 5.975-20.04c-1.707-5.543-7.25-3.839-7.25-3.839s-5.516 1.693-3.852 7.206c-1.72-5.496-7.235-3.798-7.235-3.798s-5.544 1.704-3.842 7.249 16.2 13.223 16.2 13.223" fill="url(#SVGID_7_)"/><radialGradient id="SVGID_8_" cx="77.931" cy="153.486" r="11.601" gradientTransform="rotate(-26.679 218.822 206.322)" gradientUnits="userSpaceOnUse"><stop offset="0" stop-color="#be1622"/><stop offset="1" stop-color="#9e151a"/></radialGradient><path d="M74.418 232.735s5.16-15.574 2.553-20.755-7.79-2.577-7.79-2.577-5.156 2.589-2.596 7.747c-2.612-5.132-7.767-2.54-7.767-2.54s-5.182 2.605-2.58 7.788 18.176 10.34 18.176 10.34" fill="url(#SVGID_8_)"/><radialGradient id="SVGID_9_" cx="293.818" cy="561.542" r="11.601" gradientTransform="rotate(152.029 240.502 430.238)" gradientUnits="userSpaceOnUse"><stop offset="0" stop-color="#be1622"/><stop offset="1" stop-color="#9e151a"/></radialGradient><path d="M126.387 329.034s-4.807 15.686-2.084 20.807c2.723 5.121 7.845 2.401 7.845 2.401s5.097-2.704 2.422-7.804c2.726 5.073 7.821 2.364 7.821 2.364s5.123-2.72 2.405-7.844c-2.718-5.123-18.406-9.926-18.406-9.926" fill="url(#SVGID_9_)"/><radialGradient id="SVGID_10_" cx="246.683" cy="519.969" r="11.601" gradientTransform="rotate(165.113 236.856 414.823)" gradientUnits="userSpaceOnUse"><stop offset="0" stop-color="#be1622"/><stop offset="1" stop-color="#9e151a"/></radialGradient><path d="M197.363 304.521s-8.233 14.192-6.74 19.796 7.098 4.114 7.098 4.114 5.577-1.48 4.125-7.053c1.508 5.558 7.084 4.074 7.084 4.074s5.605-1.49 4.118-7.096c-1.488-5.606-15.68-13.836-15.68-13.836" fill="url(#SVGID_10_)"/><linearGradient id="SVGID_11_" gradientUnits="userSpaceOnUse" x1="158.145" y1="82.6" x2="224.366" y2="82.6" gradientTransform="rotate(-39.137 249.667 269.257)"><stop offset="0" stop-color="#fff5eb"/><stop offset=".218" stop-color="#fcf1e3"/><stop offset=".544" stop-color="#f5e5cd"/><stop offset=".738" stop-color="#f0dcbd"/></linearGradient><path d="M115.722 146.89c-10.37-20.929-31.839-31.423-47.951-23.439s-20.768 31.423-10.397 52.351 31.839 31.423 47.951 23.439 20.767-31.422 10.397-52.351z" fill="url(#SVGID_11_)"/><linearGradient id="SVGID_12_" gradientUnits="userSpaceOnUse" x1="163.127" y1="62.292" x2="229.51" y2="80.08" gradientTransform="rotate(-41.164 251.459 263.643)"><stop offset="0" stop-color="#e9e9e9"/><stop offset=".186" stop-color="#e6e6e6"/><stop offset=".389" stop-color="#dcdcdc"/><stop offset=".599" stop-color="#cccbcb"/><stop offset=".814" stop-color="#b4b4b4"/><stop offset="1" stop-color="#999998"/></linearGradient><path d="M103.776 123.209c-8.25-7.9-21.433-10.236-35.773-3.9-14.34 6.337-21.49 17.657-21.202 29.075.306 12.14 19.275 49.563 19.275 49.563 7.49 3.582 24.482-3.261 25.676-5.758-4.046-11.062-9.606-20.995-10.819-23.74-1.213-2.746-8.846 2.277-11.987 3.337-3.142 1.06-6.675-10.813-6.675-10.813 6.479-6.334 13.506-10.07 18.682-12.357 5.175-2.287 12.204-4.815 21.714-5.493 0 0 6.4 10.606 3.501 12.215-2.898 1.609-11.751 3.871-10.538 6.617 1.213 2.745 4.814 13.544 10.27 23.983 2.649.798 19.15-7.158 21.543-15.107 0 0-14.897-39.222-23.667-47.622z" fill="url(#SVGID_12_)"/><linearGradient id="SVGID_13_" gradientUnits="userSpaceOnUse" x1="170.45" y1="84.653" x2="222.728" y2="84.653" gradientTransform="rotate(-41.164 251.459 263.643)"><stop offset="0" stop-color="#ccc"/><stop offset="1" stop-color="#838382"/></linearGradient><path d="M109.083 154.432c3.33-1.849-4.511-15.141-4.511-15.141-10.928.779-19.004 3.684-24.95 6.311-5.947 2.628-14.022 6.921-21.466 14.199 0 0 4.548 14.747 8.157 13.53 3.61-1.218 10.17-6.012 11.563-2.858 1.392 3.15 6.3 11.226 10.942 23.9 1.587-.836 2.665-1.62 2.934-2.184-4.046-11.062-9.606-20.995-10.819-23.74-1.213-2.746-8.846 2.277-11.987 3.337-3.142 1.06-6.675-10.813-6.675-10.813 6.479-6.334 13.506-10.07 18.682-12.357s12.204-4.815 21.714-5.493c0 0 6.4 10.606 3.501 12.215-2.898 1.609-11.751 3.871-10.538 6.617 1.213 2.745 4.814 13.544 10.27 23.983.597.18 1.903-.089 3.589-.699-6.246-11.965-8.913-21.033-10.304-24.182-1.394-3.154 6.567-4.777 9.898-6.625z" fill="url(#SVGID_13_)"/><path class="st17" d="M65.776 114.27l-3.39 1.499L76.73 148.23l4.116.144 2.665-3.14-14.344-32.461z"/><path class="st18" d="M62.386 115.769L76.73 148.23l4.116.144-15.07-34.104z"/></g><g id="Laag_3"><linearGradient id="SVGID_14_" gradientUnits="userSpaceOnUse" x1="170.27" y1="321.322" x2="206.754" y2="384.514" gradientTransform="rotate(-25.058 300.856 283.507)"><stop offset="0" stop-color="#fff5eb"/><stop offset=".218" stop-color="#fcf1e3"/><stop offset=".544" stop-color="#f5e5cd"/><stop offset=".738" stop-color="#f0dcbd"/></linearGradient><path d="M217.799 345.559s13.299 47.982 9.766 60.474c-3.533 12.491-33.01.076-35.608 11.228-2.598 11.15 28.05 14.888 46.849 13.326s13.172-13.628 11.35-20.663c-1.533-5.913-15.545-64.999-15.545-64.999l-16.812.634z" fill="url(#SVGID_14_)"/><linearGradient id="SVGID_15_" gradientUnits="userSpaceOnUse" x1="238.447" y1="346.611" x2="281.544" y2="421.258" gradientTransform="rotate(-25.058 300.856 283.507)"><stop offset="0" stop-color="#fff5eb"/><stop offset=".218" stop-color="#fcf1e3"/><stop offset=".544" stop-color="#f5e5cd"/><stop offset=".738" stop-color="#f0dcbd"/></linearGradient><path d="M303.995 342.625s-5.414 44.787.665 56.29c6.08 11.504 35.03-1.475 39.891 8.88s-25.58 18.693-45.018 20.09c-19.438 1.398-15.915-10.312-15.5-16.868.376-5.979 2.73-66.406 2.73-66.406l17.232-1.986z" fill="url(#SVGID_15_)"/><path class="st5" d="M327.566 121.942s8.518 1.457 3.997 20.208c-3.57 14.808-4.57 55.235-6.38 95.999-1.296 29.193-37.408-67.584-37.408-67.584l28.215-49.275 11.576.652z"/><linearGradient id="SVGID_16_" gradientUnits="userSpaceOnUse" x1="349.795" y1="216.561" x2="382.735" y2="216.561" gradientTransform="rotate(-25.058 300.856 283.507)"><stop offset="0" stop-color="#fff5eb"/><stop offset=".218" stop-color="#fcf1e3"/><stop offset=".544" stop-color="#f5e5cd"/><stop offset=".738" stop-color="#f0dcbd"/></linearGradient><path d="M315.204 131.276s56.605 90.865 49.301 117.766c-7.304 26.9-71.471-97.818-71.471-97.818l22.17-19.948z" fill="url(#SVGID_16_)"/><linearGradient id="SVGID_17_" gradientUnits="userSpaceOnUse" x1="161.307" y1="135.574" x2="235.962" y2="135.574" gradientTransform="matrix(.8037 -.39979 .40186 .91092 -66.083 148.138)"><stop offset="0" stop-color="#fff5eb"/><stop offset=".218" stop-color="#fcf1e3"/><stop offset=".544" stop-color="#f5e5cd"/><stop offset=".738" stop-color="#f0dcbd"/></linearGradient><path d="M140.394 134.715s-15.698 97.556-1.497 119.097c14.2 21.54 25.152-108.236 25.152-108.236l-23.655-10.861z" fill="url(#SVGID_17_)"/><linearGradient id="SVGID_18_" gradientUnits="userSpaceOnUse" x1="273.659" y1="77.178" x2="273.659" y2="387.799" gradientTransform="rotate(-25.058 300.856 283.507)"><stop offset="0" stop-color="#ebebeb"/><stop offset=".289" stop-color="#ebebeb"/><stop offset=".485" stop-color="#e7e7e7"/><stop offset=".702" stop-color="#dedede"/><stop offset=".93" stop-color="#cdcdcd"/><stop offset="1" stop-color="#c6c6c6"/></linearGradient><path d="M183.77 379.826c1.312 5.119 6.76 7.98 11.74 6.21 25.481-9.058 51.06-13.517 67.168-13.596 13.324-.066 55.801 4.338 76.92 6.625 6.05.655 11.005-4.718 9.87-10.697-7.413-39.054-30.355-160.457-31.524-173.13-1.568-17.002-6.22-70.563 9.622-73.296 0 0-85.074-25.013-190.948 10.663-6.346 2.138-9.291 9.434-6.275 15.413 8.65 17.143 23.702 57.328 27.847 71.244 22.198 74.538 15.514 121.323 25.58 160.564z" fill="url(#SVGID_18_)"/><radialGradient id="SVGID_19_" cx="223.435" cy="240.667" r="36.085" gradientTransform="rotate(-7.497 344.622 98.383)" gradientUnits="userSpaceOnUse"><stop offset="0" stop-color="#be1622"/><stop offset="1" stop-color="#9e151a"/></radialGradient><path d="M247.75 291.035s31.075-40.482 28.712-58.368-20.25-15.532-20.25-15.532-17.795 2.335-15.548 20.107c-2.427-17.748-20.22-15.4-20.22-15.4s-17.888 2.354-15.543 20.242 42.835 48.953 42.835 48.953" fill="url(#SVGID_19_)"/><radialGradient id="SVGID_20_" cx="264.74" cy="155.982" r="15.905" gradientTransform="rotate(-.982 475.398 -803.276)" gradientUnits="userSpaceOnUse"><stop offset="0" stop-color="#be1622"/><stop offset="1" stop-color="#9e151a"/></radialGradient><path d="M281.484 175.352s15.633-16.173 15.493-24.124c-.14-7.95-8.091-7.814-8.091-7.814s-7.91.133-7.815 8.028c-.175-7.894-8.084-7.755-8.084-7.755s-7.95.136-7.819 8.087c.133 7.95 16.31 23.579 16.31 23.579" fill="url(#SVGID_20_)"/><radialGradient id="SVGID_21_" cx="169.398" cy="143.999" r="15.905" gradientTransform="rotate(-10.573 311.915 141.804)" gradientUnits="userSpaceOnUse"><stop offset="0" stop-color="#be1622"/><stop offset="1" stop-color="#9e151a"/></radialGradient><path d="M175.142 185.745s12.72-18.552 11.256-26.368c-1.463-7.816-9.28-6.357-9.28-6.357s-7.776 1.449-6.367 9.218c-1.488-7.754-9.264-6.3-9.264-6.3s-7.817 1.46-6.362 9.277 20.011 20.531 20.011 20.531" fill="url(#SVGID_21_)"/><radialGradient id="SVGID_22_" cx="201.984" cy="519.761" r="15.905" gradientTransform="rotate(168.135 215.04 434.27)" gradientUnits="userSpaceOnUse"><stop offset="0" stop-color="#be1622"/><stop offset="1" stop-color="#9e151a"/></radialGradient><path d="M206.968 332.357s-12.297 18.834-10.659 26.615c1.64 7.78 9.42 6.146 9.42 6.146s7.743-1.624 6.16-9.359c1.662 7.719 9.403 6.09 9.403 6.09s7.781-1.636 6.15-9.418c-1.63-7.783-20.468-20.076-20.468-20.076" fill="url(#SVGID_22_)"/><radialGradient id="SVGID_23_" cx="120.963" cy="501.972" r="15.905" gradientTransform="rotate(-178.781 214.36 421.466)" gradientUnits="userSpaceOnUse"><stop offset="0" stop-color="#be1622"/><stop offset="1" stop-color="#9e151a"/></radialGradient><path d="M309.782 327.064s-16.242 15.561-16.407 23.511 7.784 8.12 7.784 8.12 7.91.17 8.117-7.722c-.128 7.894 7.781 8.06 7.781 8.06s7.95.169 8.123-7.781c.173-7.95-15.392-24.188-15.392-24.188" fill="url(#SVGID_23_)"/><linearGradient id="SVGID_24_" gradientUnits="userSpaceOnUse" x1="256.501" y1="79.566" x2="347.292" y2="79.566" gradientTransform="rotate(-23.031 301.213 293.179)"><stop offset="0" stop-color="#fff5eb"/><stop offset=".218" stop-color="#fcf1e3"/><stop offset=".544" stop-color="#f5e5cd"/><stop offset=".738" stop-color="#f0dcbd"/></linearGradient><path d="M262.198 88.38c-5.7-31.512-29.987-53.5-54.247-49.112s-39.306 33.49-33.606 65.002 29.987 53.5 54.247 49.112 39.306-33.491 33.606-65.003z" fill="url(#SVGID_24_)"/><linearGradient id="SVGID_25_" gradientUnits="userSpaceOnUse" x1="262.114" y1="57.314" x2="353.126" y2="81.701" gradientTransform="rotate(-25.058 300.856 283.507)"><stop offset="0" stop-color="#e9e9e9"/><stop offset=".186" stop-color="#e6e6e6"/><stop offset=".389" stop-color="#dcdcdc"/><stop offset=".599" stop-color="#cccbcb"/><stop offset=".814" stop-color="#b4b4b4"/><stop offset="1" stop-color="#999998"/></linearGradient><path d="M255.47 52.643c-7.861-13.543-24.338-21.634-45.637-18.742-21.299 2.892-35.022 15.084-38.986 30.233-4.215 16.107 6.538 72.616 6.538 72.616 8.503 7.566 33.488 5.015 36.01 2.18-1.121-16.109-4.667-31.308-5.22-35.385-.554-4.078-12.52-.365-17.06-.164-4.54.201-4.679-16.781-4.679-16.781 10.943-5.878 21.62-8.128 29.308-9.171 7.686-1.044 17.906-1.7 30.691 1.023 0 0 4.396 16.405-.034 17.422-4.43 1.016-16.952.63-16.398 4.707.553 4.077 1.19 19.671 4.405 35.497 3.186 2.058 27.947-2.146 34.124-11.705 0 0-4.706-57.33-13.063-71.73z" fill="url(#SVGID_25_)"/><linearGradient id="SVGID_26_" gradientUnits="userSpaceOnUse" x1="272.154" y1="87.971" x2="343.828" y2="87.971" gradientTransform="rotate(-25.058 300.856 283.507)"><stop offset="0" stop-color="#ccc"/><stop offset="1" stop-color="#838382"/></linearGradient><path d="M250.584 95.788c5.09-1.168-.183-21.66-.183-21.66-14.69-3.13-26.433-2.375-35.265-1.175-8.833 1.2-21.101 3.783-33.675 10.537 0 0 .382 21.156 5.6 20.924 5.217-.23 15.68-4.05 16.317.635.635 4.677 4.03 17.182 5.322 35.642 2.408-.497 4.126-1.12 4.695-1.76-1.121-16.11-4.667-31.309-5.22-35.386-.554-4.078-12.52-.365-17.06-.164-4.54.201-4.679-16.781-4.679-16.781 10.943-5.878 21.62-8.128 29.308-9.171 7.686-1.044 17.906-1.7 30.691 1.023 0 0 4.396 16.405-.034 17.422-4.43 1.016-16.952.63-16.398 4.707.553 4.077 1.19 19.671 4.405 35.497.718.464 2.54.607 4.994.444-3.677-18.136-3.74-31.094-4.375-35.771-.636-4.685 10.467-3.794 15.557-4.963z" fill="url(#SVGID_26_)"/><path class="st17" d="M208.816 26.415l-5.035.686 6.547 48.213 5.367 1.755 4.704-3.122-6.547-48.214z"/><path class="st18" d="M203.78 27.1l6.548 48.214 5.367 1.755-6.879-50.654z"/></g><g id="Laag_2"><linearGradient id="SVGID_27_" gradientUnits="userSpaceOnUse" x1="231.82" y1="423.714" x2="280.345" y2="507.761"><stop offset="0" stop-color="#fff5eb"/><stop offset=".295" stop-color="#fef2e4"/><stop offset=".738" stop-color="#fbead2"/><stop offset="1" stop-color="#f9e4c4"/></linearGradient><path d="M270.478 401.395s-11.006 65.303-22.3 78.363c-11.293 13.061-39.816-18.502-49.227-6.53-9.411 11.972 25.41 33.74 48.94 42.447 23.528 8.707 23.547-9 25.314-18.502 1.485-7.989 17.885-87.071 17.885-87.071l-20.612-8.707z" fill="url(#SVGID_27_)"/><linearGradient id="SVGID_28_" gradientUnits="userSpaceOnUse" x1="322.498" y1="457.348" x2="379.819" y2="556.632"><stop offset="0" stop-color="#fff5eb"/><stop offset=".295" stop-color="#fef2e5"/><stop offset=".738" stop-color="#fcebd3"/><stop offset="1" stop-color="#fbe6c5"/></linearGradient><path d="M375.984 446.415s-31.752 50.912-30.907 68.197c.845 17.284 43.037 17.954 43.061 33.169.024 15.214-41.352 8.113-65.558-1.153s-13.366-21.389-9.174-29.055c3.822-6.991 40.697-78.472 40.697-78.472l21.88 7.314z" fill="url(#SVGID_28_)"/><linearGradient id="SVGID_29_" gradientUnits="userSpaceOnUse" x1="473.433" y1="282.002" x2="517.244" y2="282.002" gradientTransform="matrix(.86553 -.04299 -.04299 .98626 70.855 22.65)"><stop offset="0" stop-color="#f0dcbd"/><stop offset=".262" stop-color="#f5e5cd"/><stop offset=".705" stop-color="#fcf1e3"/><stop offset="1" stop-color="#fff5eb"/></linearGradient><path d="M505.059 193.687s8.65 138.692-13.299 167.63c-21.949 28.938-20.044-154.61-20.044-154.61l33.343-13.02z" fill="url(#SVGID_29_)"/><linearGradient id="SVGID_30_" gradientUnits="userSpaceOnUse" x1="218.849" y1="180.595" x2="318.144" y2="180.595" gradientTransform="matrix(.92724 -.01543 -.01543 .99673 24.902 5.282)"><stop offset="0" stop-color="#fff5eb"/><stop offset=".218" stop-color="#fcf1e3"/><stop offset=".544" stop-color="#f5e5cd"/><stop offset=".738" stop-color="#f0dcbd"/></linearGradient><path d="M294.509 107.598s-75.568 108.339-70.185 142.378c5.384 34.039 93.503-115.768 93.503-115.768l-23.318-26.61z" fill="url(#SVGID_30_)"/><linearGradient id="SVGID_31_" gradientUnits="userSpaceOnUse" x1="362.861" y1="98.992" x2="362.861" y2="512.131"><stop offset="0" stop-color="#ebebeb"/><stop offset=".289" stop-color="#ebebeb"/><stop offset=".485" stop-color="#e7e7e7"/><stop offset=".702" stop-color="#dedede"/><stop offset=".93" stop-color="#cdcdcd"/><stop offset="1" stop-color="#c6c6c6"/></linearGradient><path d="M210.18 423.478c-1.308 6.935 3.617 13.456 10.642 14.131 35.803 3.44 69.134 12.477 88.586 21.455 16.091 7.426 64.791 36.662 88.947 51.312 6.918 4.196 15.915.517 17.915-7.323 13.067-51.226 53.816-210.433 59.546-226.36 6.07-16.87 20.78-64.156 36.854-80.548 4.704-4.796 3.902-12.681-1.566-16.584-30.237-21.579-106.432-67.838-218.479-80.476-8.85-.998-16.508 6.134-16.242 15.036.765 25.528-3.736 82.424-6.582 101.525-15.239 102.29-49.635 154.894-59.62 207.832z" fill="url(#SVGID_31_)"/><radialGradient id="SVGID_32_" cx="332.631" cy="283.082" r="47.995" gradientTransform="rotate(17.561 265.358 356.839)" gradientUnits="userSpaceOnUse"><stop offset="0" stop-color="#be1622"/><stop offset="1" stop-color="#9e151a"/></radialGradient><path d="M337.279 352.573s60.244-31.27 67.473-54.151-15.65-30.12-15.65-30.12-22.755-7.212-30.06 15.467c7.074-22.752-15.688-29.945-15.688-29.945s-22.877-7.24-30.128 15.633 24.035 83.11 24.035 83.11" fill="url(#SVGID_32_)"/><radialGradient id="SVGID_33_" cx="391.181" cy="154.333" r="21.154" gradientTransform="rotate(24.076 284.17 325.537)" gradientUnits="userSpaceOnUse"><stop offset="0" stop-color="#be1622"/><stop offset="1" stop-color="#9e151a"/></radialGradient><path d="M443.089 232.195s27.945-10.681 32.255-20.34-5.346-13.972-5.346-13.972-9.605-4.296-13.938 5.27c4.236-9.61-5.372-13.898-5.372-13.898s-9.656-4.314-13.975 5.34c-4.32 9.654 6.368 37.597 6.368 37.597" fill="url(#SVGID_33_)"/><radialGradient id="SVGID_34_" cx="258.342" cy="160.299" r="21.154" gradientTransform="rotate(14.484 270.497 382.857)" gradientUnits="userSpaceOnUse"><stop offset="0" stop-color="#be1622"/><stop offset="1" stop-color="#9e151a"/></radialGradient><path d="M309.107 184.813s25.775-15.188 28.415-25.43c2.64-10.24-7.6-12.886-7.6-12.886s-10.185-2.635-12.864 7.519c2.575-10.181-7.613-12.808-7.613-12.808s-10.24-2.646-12.89 7.593c-2.65 10.238 12.544 36.01 12.544 36.01" fill="url(#SVGID_34_)"/><radialGradient id="SVGID_35_" cx="113.216" cy="441.451" r="21.154" gradientTransform="rotate(-166.807 184.231 412.227)" gradientUnits="userSpaceOnUse"><stop offset="0" stop-color="#be1622"/><stop offset="1" stop-color="#9e151a"/></radialGradient><path d="M264.865 379.387s-25.426 15.765-27.835 26.063c-2.408 10.298 7.889 12.712 7.889 12.712s10.242 2.405 12.691-7.807c-2.345 10.237 7.9 12.634 7.9 12.634s10.297 2.413 12.716-7.882-13.353-35.718-13.353-35.718" fill="url(#SVGID_35_)"/><radialGradient id="SVGID_36_" cx="-15.928" cy="448.122" r="21.154" gradientTransform="rotate(-153.724 183.424 402.525)" gradientUnits="userSpaceOnUse"><stop offset="0" stop-color="#be1622"/><stop offset="1" stop-color="#9e151a"/></radialGradient><path d="M391.722 430.926s-28.335 9.6-33.012 19.085c-4.677 9.486 4.806 14.168 4.806 14.168s9.432 4.662 14.129-4.731c-4.601 9.44 4.835 14.094 4.835 14.094s9.483 4.682 14.17-4.799c4.687-9.48-4.92-37.813-4.92-37.813" fill="url(#SVGID_36_)"/><linearGradient id="SVGID_37_" gradientUnits="userSpaceOnUse" x1="348.367" y1="98.203" x2="469.122" y2="98.203" gradientTransform="rotate(2.027 320.598 176.065)"><stop offset="0" stop-color="#fff5eb"/><stop offset=".218" stop-color="#fcf1e3"/><stop offset=".544" stop-color="#f5e5cd"/><stop offset=".738" stop-color="#f0dcbd"/></linearGradient><path d="M468.845 116.54c10.883-41.177-5.994-81.351-37.695-89.73s-66.224 18.21-77.108 59.388 5.994 81.351 37.695 89.73c31.702 8.379 66.224-18.21 77.108-59.388z" fill="url(#SVGID_37_)"/><linearGradient id="SVGID_38_" gradientUnits="userSpaceOnUse" x1="315.77" y1="175.586" x2="319.776" y2="164.579"><stop offset="0" stop-color="#fff"/><stop offset=".264" stop-color="#fdfdfd"/><stop offset=".452" stop-color="#f6f6f6"/><stop offset=".615" stop-color="#ebebeb"/><stop offset=".765" stop-color="#dbdbdb"/><stop offset=".905" stop-color="#c5c5c5"/><stop offset="1" stop-color="#b2b2b2"/></linearGradient><path class="st47" d="M91.164 149.108l-3.066.001v29.361l3.066 1.485 3.067-1.485v-29.36z"/><path class="st47" d="M88.098 149.11v29.36l3.066 1.485v-30.847z"/><linearGradient id="SVGID_39_" gradientUnits="userSpaceOnUse" x1="353.976" y1="72.573" x2="475.026" y2="105.008"><stop offset="0" stop-color="#e9e9e9"/><stop offset=".186" stop-color="#e6e6e6"/><stop offset=".389" stop-color="#dcdcdc"/><stop offset=".599" stop-color="#cccbcb"/><stop offset=".814" stop-color="#b4b4b4"/><stop offset="1" stop-color="#999998"/></linearGradient><path d="M480.868 69.693c-1.842-20.746-17.137-39.776-44.428-48.29-27.291-8.512-50.693-1.553-64.003 14.466-14.152 17.032-33.027 91.175-33.027 91.175 5.982 13.906 37.522 24.907 42.158 22.913 7.724-20.042 12.013-40.352 13.643-45.576s-14.878-7.492-20.462-9.808c-5.585-2.315 3.815-22.854 3.815-22.854 16.496-.919 30.628 2.386 40.478 5.459 9.85 3.072 22.533 8.038 36.403 18.522 0 0-3.945 22.241-9.856 20.971-5.91-1.27-20.779-8.79-22.409-3.566s-9.648 24.372-14.688 45.25c2.68 4.276 34.881 13.159 47.708 5.12 0 0 26.626-71.725 24.668-93.782z" fill="url(#SVGID_39_)"/><linearGradient id="SVGID_40_" gradientUnits="userSpaceOnUse" x1="367.329" y1="113.348" x2="462.658" y2="113.348"><stop offset="0" stop-color="#ccc"/><stop offset="1" stop-color="#838382"/></linearGradient><path d="M450.678 118.925c6.791 1.46 11.98-26.2 11.98-26.2-15.936-12.046-30.51-17.752-41.827-21.282-11.317-3.53-27.555-7.328-46.51-6.273 0 0-11.456 25.704-5.04 28.364 6.417 2.66 21.176 3.953 19.304 9.956-1.87 5.994-4.825 22.973-13.666 45.943 3.182.757 5.603.973 6.649.524 7.724-20.042 12.013-40.352 13.643-45.576s-14.878-7.492-20.462-9.808c-5.585-2.315 3.815-22.854 3.815-22.854 16.496-.919 30.628 2.386 40.478 5.459 9.85 3.072 22.533 8.038 36.403 18.522 0 0-3.945 22.241-9.856 20.971-5.91-1.27-20.779-8.79-22.409-3.566s-9.648 24.372-14.688 45.25c.604.965 2.72 2.163 5.767 3.35 5.787-23.923 13.01-39.571 14.879-45.565 1.872-6.003 14.75 1.325 21.54 2.785z" fill="url(#SVGID_40_)"/><path class="st17" d="M439.432 11.812l-6.453-2.01-19.27 61.778 5.477 5.138 7.427-1.113 19.27-61.779z"/><path class="st18" d="M432.979 9.801l-19.27 61.779 5.477 5.138 20.246-64.906z"/><path d="M432.979 9.801l6.453 2.01 6.452 2.015-3.073 9.85c23.296 9.334 36.364 26.947 38.057 46.017 1.413 15.925-12.072 57.739-19.68 79.758 22.258 11.42 39.053 22.358 49.916 30.11 5.468 3.902 6.27 11.788 1.566 16.584-2.378 2.425-4.725 5.54-7.02 9.119 1.508 33.912 4.191 132.215-13.89 156.053-1.604 2.115-3.08 3.095-4.439 3.095-8.61 0-12.513-39.337-14.262-78.717-10.945 38.073-45.044 171.318-56.79 217.358-1.428 5.6-6.427 9.078-11.688 9.078-2.104 0-4.25-.556-6.226-1.755-11.12-6.744-27.438-16.577-43.385-25.952-5.687 11.832-10.22 23.515-9.893 30.188.845 17.284 43.037 17.954 43.061 33.169.01 6.403-7.312 8.854-17.603 8.854-14.16 0-33.937-4.64-47.955-10.007-24.207-9.266-13.366-21.389-9.174-29.055 1.984-3.629 12.872-24.631 22.887-43.995-11.36-6.497-21.178-11.88-26.885-14.514-7.136-3.294-16.146-6.595-26.455-9.625-4.36 21.124-8.991 43.662-9.748 47.733-1.435 7.718-1.715 20.843-14.37 20.843-2.93 0-6.523-.704-10.945-2.34-23.528-8.707-58.35-30.475-48.939-42.447 1.554-1.977 3.629-2.766 6.06-2.766 9.686 0 25.038 12.526 35.731 12.526 2.886 0 5.433-.912 7.437-3.23 4.781-5.53 9.51-20.424 13.376-35.762a349.297 349.297 0 0 0-40.733-6.387c-4.97-.477-8.877-3.887-10.28-8.294-11.279-1.989-20.022-5.885-18.585-12.054 1.057-4.538 6.562-5.174 12.96-5.174 2.497 0 5.129.097 7.686.097h.063c2.776-11.15 6.487-22.44 10.738-34.334a262.657 262.657 0 0 0-27.894 8.187 9.028 9.028 0 0 1-3.029.525c-3.978 0-7.663-2.649-8.712-6.736-2.819-10.99-4.323-22.573-5.517-35.19-1.883.443-3.488.853-4.716 1.214-4.134 1.216-9.046 3.108-14.395 5.578 5.825 10.295 12.047 21.27 13.205 23.223 2.7 4.561 9.084 11.879-3.773 16.777-7.287 2.776-17.585 5.13-25.22 5.13-5.836 0-10.117-1.376-10.306-4.99-.436-8.34 22.732-5.604 22.68-15.073-.021-4.008-3.446-11.86-7.385-19.587a191.372 191.372 0 0 0-19.123 12.061 6.56 6.56 0 0 1-3.838 1.238c-2.233 0-4.42-1.131-5.646-3.214-14.994-25.462-19.776-59.6-50.414-107.34a146.311 146.311 0 0 0-2.552-3.812c2.775 19.585 4.242 38.42-.383 38.42-.637 0-1.39-.357-2.27-1.119-10.127-8.761-17.714-47.53-21.233-69.046-2.788-3.42-5.368-6.447-7.492-8.734-3.323-3.579-2.736-9.288 1.279-12.07a267.397 267.397 0 0 1 24.632-15.17c-5.642-11.96-14.295-31.568-14.5-39.738-.265-10.493 5.77-20.892 17.876-27.428l-2.292-5.187 3.39-1.5 3.391-1.496 2.292 5.187c4.418-1.549 8.693-2.276 12.71-2.276 7.788 0 14.605 2.735 19.607 7.525 6.39 6.12 16.03 28.597 20.794 40.35a251.283 251.283 0 0 1 11.717-2.593c-2.149-4.992-4.18-9.454-5.944-12.948-3.016-5.979-.07-13.275 6.275-15.413a366.599 366.599 0 0 1 38.214-10.614c-2.882-17.9-6.82-47.02-3.985-57.857 3.644-13.925 15.538-25.345 33.978-29.347l-1.044-7.686 5.035-.686 5.036-.682 1.044 7.687a59.962 59.962 0 0 1 3.37-.096c17.197 0 30.415 7.623 37.203 19.319 6.089 10.491 10.239 43.766 12.043 61.059 3.055.121 6.013.278 8.872.465v-.046c-.25-8.342 6.458-15.13 14.586-15.13.546 0 1.099.031 1.655.094a503.168 503.168 0 0 1 52.048 8.648c6.615-23.196 18.256-60.42 27.764-71.864 9.41-11.326 23.863-18.117 41.172-18.116 5.194 0 10.649.613 16.298 1.897l3.072-9.849m-3.285-6.26l-1.488 4.771-1.734 5.559c-4.355-.742-8.665-1.117-12.863-1.118-18.356 0-34.344 7.074-45.018 19.921-9.176 11.044-19.755 42.793-27.43 69.186a510.928 510.928 0 0 0-47.975-7.744 19.834 19.834 0 0 0-2.216-.124c-5.316 0-10.299 2.116-14.03 5.96a19.574 19.574 0 0 0-4.936 8.749c-2.449-22.134-6.446-48.636-12.21-58.568-7.9-13.611-22.64-21.522-40.543-21.801l-.445-3.272-.672-4.953-4.953.671-5.036.682-5.038.686-4.953.674.672 4.953.445 3.276c-17.018 5.026-29.298 16.675-33.261 31.82-2.736 10.456.026 34.933 3.156 55.282a373.367 373.367 0 0 0-34.145 9.715 15.947 15.947 0 0 0-9.662 9.07 16.057 16.057 0 0 0 .52 13.334 184.08 184.08 0 0 1 3.347 7.065c-.55.122-1.1.246-1.652.372-6.199-14.938-14.252-32.279-20.34-38.109-6.002-5.748-14.193-8.914-23.065-8.914-3.25 0-6.57.413-9.914 1.232l-.515-1.164-2.02-4.572-4.572 2.019-3.391 1.497-3.393 1.5-4.571 2.022 2.02 4.572.516 1.168c-10.714 7.23-16.817 18.008-16.526 29.552.164 6.516 4.534 19.121 12.998 37.5a273.731 273.731 0 0 0-20.98 13.172 12.984 12.984 0 0 0-5.51 9.277c-.409 3.77.836 7.526 3.417 10.305 1.75 1.885 3.913 4.393 6.439 7.464 6.552 39.562 14.18 63.343 22.677 70.695 1.793 1.552 3.658 2.339 5.542 2.339 1.947 0 3.748-.84 5.07-2.363 1.835-2.113 3.558-5.731 2.7-19.587 12.357 21.77 19.373 40.26 25.698 56.93 5.064 13.344 9.436 24.868 15.572 35.288 2.063 3.502 5.877 5.677 9.955 5.677 2.435 0 4.77-.752 6.754-2.176 4.5-3.231 9.215-6.298 14.067-9.151 4.144 8.76 4.521 11.84 4.526 12.643a.66.66 0 0 1 0 .031c-.758 1.187-5.826 2.548-8.273 3.204-2.971.798-6.043 1.623-8.541 2.932-5.368 2.814-5.976 6.934-5.86 9.14.19 3.633 2.43 9.727 15.299 9.727 8.757 0 19.87-2.74 27-5.457 5.717-2.178 9.13-5.147 10.437-9.077.14-.423.251-.842.336-1.257a13.996 13.996 0 0 0 11.355 5.796c1.602 0 3.184-.274 4.704-.814a255.3 255.3 0 0 1 18.432-5.77c-2.843 8.35-5.039 15.495-6.813 22.158-1.279-.024-2.6-.049-3.887-.049h-.046c-5.122 0-15.684.027-17.784 9.04-.672 2.884-.156 5.728 1.491 8.223 2.846 4.31 8.886 7.387 18.424 9.376a16.971 16.971 0 0 0 13.342 8.86 342.616 342.616 0 0 1 35.055 5.225c-5.338 19.955-9.14 26.524-11.003 28.677-.641.742-1.577 1.5-3.654 1.5-4.318 0-10.518-3.042-16.514-5.984-6.856-3.365-13.333-6.542-19.216-6.542-5.22 0-8.315 2.542-9.992 4.676-2.554 3.249-3.28 7.178-2.098 11.363 4.165 14.76 33.636 31.611 53.233 38.863 4.82 1.784 8.968 2.651 12.68 2.651 15.405 0 17.624-14.352 18.816-22.062.159-1.03.31-2.005.47-2.867.57-3.07 3.543-17.642 8.62-42.263 7.793 2.471 14.828 5.13 20.572 7.78 4.466 2.062 11.968 6.074 22.332 11.944-12.007 23.206-19.122 36.876-20.626 39.627-.397.725-.889 1.543-1.41 2.41-2.979 4.948-7.057 11.726-4.462 19.26 2.056 5.968 7.828 10.696 17.645 14.454 13.442 5.145 34.035 10.337 49.743 10.337 9.229 0 15.504-1.792 19.184-5.478 2.242-2.246 3.424-5.145 3.419-8.384-.017-10.791-11.961-15.526-23.513-20.104-9.036-3.582-19.277-7.642-19.554-13.302-.123-2.508.711-8.694 7.102-22.84 14.46 8.54 28.745 17.154 38.59 23.124a17.012 17.012 0 0 0 8.818 2.48 17.051 17.051 0 0 0 16.534-12.842c8.642-33.88 33.926-132.74 48.8-188.255.787 9.509 1.71 17.715 2.76 24.547 3.151 20.478 7.394 28.83 14.646 28.83 3.036 0 5.87-1.706 8.423-5.072 8.507-11.216 13.512-36.419 15.302-77.05 1.366-31.016.417-63.221-.33-80.635 1.918-2.87 3.773-5.222 5.524-7.008a15.802 15.802 0 0 0 4.451-12.469 16.068 16.068 0 0 0-6.682-11.686c-9.784-6.982-25.633-17.432-46.694-28.493 9.52-27.955 19.876-62.621 18.533-77.748-1.825-20.56-15.514-38.37-36.926-48.373l1.735-5.562 1.488-4.771-4.771-1.49-6.452-2.015-6.456-2.012-4.772-1.487zM166.221 353.784c2.73-1.128 5.308-2.076 7.64-2.808.737 6.908 1.71 14.345 3.186 21.779-.14-.224-.274-.441-.4-.652-.58-.981-2.908-5.042-10.426-18.32z"/></g></svg>