<svg xmlns="http://www.w3.org/2000/svg" xmlns:xlink="http://www.w3.org/1999/xlink" viewBox="0 0 372.84 554.26"><defs><radialGradient id="b" cx="186.42" cy="277.13" r="233.72" gradientUnits="userSpaceOnUse"><stop offset="0" stop-color="#fff"/><stop offset="1" stop-color="#f6f6f6"/></radialGradient><radialGradient id="a" cx="186.2" cy="277.09" r="90.76" gradientTransform="matrix(.99 0 0 1 1.33 .05)" gradientUnits="userSpaceOnUse"><stop offset="0" stop-color="#3c3c3b"/><stop offset="1" stop-color="#1d1d1b"/></radialGradient><radialGradient id="c" cx="55.05" cy="55.72" r="39.93" xlink:href="#a"/><radialGradient id="d" cx="316.89" cy="55.72" r="39.93" xlink:href="#a"/><radialGradient id="e" cx="318.85" cy="-290.15" r="39.93" gradientTransform="matrix(.99 0 0 -1 1.33 208.32)" xlink:href="#a"/><radialGradient id="f" cx="55.05" cy="-290.15" r="39.93" gradientTransform="matrix(.99 0 0 -1 1.33 208.32)" xlink:href="#a"/></defs><rect x="2.5" y="2.5" width="367.84" height="549.26" rx="29.3" ry="29.3" fill="url(#b)"/><path d="M341 5a26.8 26.8 0 0 1 26.8 26.8v490.66a26.8 26.8 0 0 1-26.8 26.8H31.8A26.8 26.8 0 0 1 5 522.46V31.8A26.8 26.8 0 0 1 31.8 5H341m0-5H31.8A31.84 31.84 0 0 0 0 31.8v490.66a31.84 31.84 0 0 0 31.8 31.8H341a31.84 31.84 0 0 0 31.8-31.8V31.8A31.84 31.84 0 0 0 341 0z" fill="#1d1d1b"/><path d="M230.32 322.45c44.87 0 44.87-45.34 44.87-45.34s0-65.05-89.74.1c0 0 89.74-90.81 0-90.87-89.74 3 0 90.85 0 90.85-89.74-64.78-89.74-.08-89.74-.08s0 45.35 44.87 45.35c43.83 0 44.85-43.25 44.87-45.27 0 90.68-44.87 90.64-44.87 90.64h89.74c-44.59 0-44.87-89.57-44.87-90.69.02 1.62.82 45.31 44.87 45.31z" fill="url(#a)"/><path d="M75.5 75.72c19.75 0 19.75-20 19.75-20s0-28.61-39.49.05c0 0 39.49-40 0-40-39.48 1.3 0 40 0 40-39.48-28.5-39.48 0-39.48 0s0 20 19.74 20c19.28 0 19.73-19 19.74-19.92C55.75 95.71 36 95.69 36 95.69h39.5c-19.61 0-19.74-39.41-19.74-39.91.01.71.37 19.94 19.74 19.94z" fill="url(#c)"/><path d="M334.42 75.72c19.74 0 19.74-20 19.74-20s0-28.61-39.48.05c0 0 39.48-40 0-40-39.49 1.3 0 40 0 40-39.49-28.5-39.49 0-39.49 0s0 20 19.74 20c19.29 0 19.73-19 19.75-19.92 0 39.9-19.75 39.88-19.75 39.88h39.49c-19.62 0-19.74-39.41-19.74-39.91 0 .67.32 19.9 19.74 19.9z" fill="url(#d)"/><path d="M336.35 478.47c19.75 0 19.75 19.95 19.75 19.95s0 28.62-39.49 0c0 0 39.49 40 0 40-39.48-1.31 0-40 0-40-39.48 28.5-39.48 0-39.48 0s0-20 19.74-20c19.28 0 19.73 19 19.74 19.92 0-39.9-19.74-39.88-19.74-39.88h39.48c-19.61 0-19.74 39.41-19.74 39.9.01-.66.39-19.89 19.74-19.89z" fill="url(#e)"/><path d="M75.5 478.47c19.75 0 19.75 19.95 19.75 19.95s0 28.62-39.49 0c0 0 39.49 40 0 40-39.48-1.31 0-40 0-40-39.48 28.5-39.48 0-39.48 0s0-20 19.74-20c19.28 0 19.73 19 19.74 19.92C55.75 458.48 36 458.5 36 458.5h39.5c-19.61 0-19.74 39.41-19.74 39.9.01-.7.37-19.93 19.74-19.93z" fill="url(#f)"/></svg>