<?xml version="1.0" encoding="utf-8"?>
<!-- Generator: Adobe Illustrator 22.1.0, SVG Export Plug-In . SVG Version: 6.00 Build 0)  -->
<svg version="1.1" xmlns="http://www.w3.org/2000/svg" xmlns:xlink="http://www.w3.org/1999/xlink" x="0px" y="0px"
	 viewBox="0 0 566.9299927 566.9299927" style="enable-background:new 0 0 566.9299927 566.9299927;" xml:space="preserve">
<style type="text/css">
	.st0{display:none;}
	.st1{display:inline;}
	.st2{display:inline;fill:#FFFFFF;}
	.st3{display:inline;fill:#7A6B1A;}
	.st4{display:inline;fill:#E5242A;}
	.st5{display:inline;fill:#FFDF31;}
	.st6{display:inline;fill:#B62518;}
	.st7{display:inline;fill:url(#SVGID_1_);}
	.st8{display:inline;fill:url(#SVGID_2_);}
	.st9{display:inline;fill:url(#SVGID_3_);}
	.st10{display:inline;fill:url(#SVGID_4_);}
	.st11{display:inline;fill:url(#SVGID_5_);}
	.st12{fill:#7A6B1A;}
	.st13{fill:url(#SVGID_6_);}
	.st14{display:inline;fill:none;stroke:url(#SVGID_7_);stroke-width:5;stroke-miterlimit:10;}
	.st15{display:inline;fill:none;stroke:url(#SVGID_8_);stroke-width:5;stroke-miterlimit:10;}
	.st16{fill:url(#SVGID_9_);}
	.st17{fill:url(#SVGID_10_);}
	.st18{fill:#E30613;}
	.st19{fill:url(#SVGID_11_);}
	.st20{fill:url(#SVGID_12_);}
	.st21{fill:#B3982F;}
	.st22{fill:url(#SVGID_13_);}
	.st23{fill:url(#SVGID_14_);}
	.st24{fill:url(#SVGID_15_);}
</style>
<g id="Laag_1" class="st0">
	<path class="st1" d="M387.3096313,374.8852844c1.5648804-2.3401184,2.9438477-3.5087585,3.1638794-4.8653259
		c3.271637-20.1710815,5.6007385-40.5325317,9.7896118-60.5056763c3.4605713-16.500824,5.2897949-33.0949402,7.1482544-49.7657166
		c0.6089478-5.4624786,2.834137-10.7314301,4.122406-16.1359406c0.9365234-3.9287415,1.8989868-7.9051056,2.239563-11.9120941
		c1.1171875-13.1446075,1.9035645-26.3169403,2.9171753-39.470871c0.9011536-11.6945496,2.0880737-23.3686371,2.866394-35.0705872
		c0.7097473-10.6733856,0.9052124-21.3808289,1.599823-32.055542c0.3092957-4.753273,1.7502747-9.4514847,1.8691101-14.1949692
		c0.2844849-11.3583603,0.6879883-22.7811432-0.2987976-34.060463c-0.2737732-3.1296005-5.2012634-5.8937836-8.0728455-8.7459641
		c-6.7478027-6.7023888-8.1058655-15.1366348-7.2412415-24.0058022c0.1697998-1.7420502,2.7186584-3.4377899,4.4451294-4.8087997
		c5.9862061-4.7537041,18.4689026-2.278019,22.3898315,4.1749954c4.8561096,7.9922485,6.3901978,15.9652061,1.9530945,24.8556023
		c-1.1793518,2.3630905-0.0240173,5.9382324,0.1991577,8.9464874c1.1166077,15.0558777,2.304657,30.1064301,3.4181213,45.1625214
		c0.8588562,11.6133728,1.3754578,23.2593384,2.5440979,34.8403778c1.0216064,10.1235199,2.7816162,20.1711426,4.1358337,30.26297
		c0.8708191,6.4900665,1.8070679,12.9822083,2.3446045,19.5038605c1.0183411,12.3536987,1.5144348,24.7545929,2.7267456,37.0867767
		c0.7719421,7.8531799,2.4415283,15.6181641,3.7146301,23.4217529c0.0307312,0.1888428,0.1936646,0.3668213,0.191803,0.5487976
		c-0.1281433,12.5255432,3.7848206,24.7624207,1.8635254,37.5290527c-0.9458618,6.2850952,1.089447,12.9666748,1.2766113,19.4831543
		c0.9830322,34.2235413,1.7130432,68.4544678,2.7278748,102.6769104
		c0.4446411,14.9927368,1.3090515,29.9741821,2.0905151,44.9551392c0.2121582,4.0679626-1.0648804,6.9330444-4.1555786,9.9064636
		c-11.6741333,11.2313538-25.9483948,17.5441589-40.8125916,22.9754028
		c-11.6126709,4.2433167-23.3427124,7.1242065-35.899292,7.5424805
		c-11.5131531,0.3834839-23.1700745,1.8392944-34.3929749,4.4290771
		c-23.7272339,5.4749756-47.717865,4.0939941-71.6720886,4.3718872c-6.4376526,0.074707-12.8822327-0.1512451-19.31427,0.0534668
		c-22.8880005,0.7285767-45.2715607-1.8927002-67.8052216-6.4500122
		c-17.6230316-3.5641479-33.7667542-10.1494141-49.8347168-17.2483215
		c-7.8154602-3.4529419-14.8903046-8.9299927-21.6392822-14.3188477
		c-4.0615463-3.2428894-5.5341415-9.2469177-10.8969269-11.6146851c-0.885994-0.3912048-1.8579178-1.8676758-1.8405914-2.8254395
		c0.1608963-8.8926086,0.4946976-17.7829895,0.88517-26.6693115c0.046524-1.0588074,1.0377502-2.0784912,1.0753784-3.1347046
		c0.9385147-26.3423767,2.5134811-52.687561,2.4977646-79.0313721c-0.0169754-28.4197998-1.4714584-56.8408508-2.4189072-85.2573853
		c-0.6012573-18.033783-1.4676285-36.0586548-2.116333-54.0910339c-0.2024231-5.6268005,0.3450546-11.3066864-0.1971664-16.8897858
		c-1.1862488-12.2142639-3.2013168-24.3531799-4.2081909-36.5780334
		c-0.7982025-9.6915283-0.2861023-19.4855194-0.9164047-29.1976318
		c-1.0014801-15.4328079-2.5040894-30.8326416-3.7205276-46.2522583c-0.3678894-4.6633759-0.0821075-9.4152222-0.8579788-13.9974442
		c-0.5880356-3.473053-1.5342407-7.5535049-3.8119354-9.9417572c-5.840004-6.1233559-3.3110809-13.1981316-1.8997269-19.1531944
		c1.4334717-6.0484276,6.5385513-10.8700523,14.1609116-10.2912407c4.2376709,0.3217621,8.8442688-0.226429,12.6305084,1.2711067
		c9.6058731,3.7992821,11.9364853,13.0403061,6.672905,23.4049759c-5.2373962,10.3131142-4.8883743,20.6071053-2.3054276,31.3262291
		c0.6305847,2.6168594,0.5579071,5.4177017,0.680542,8.1397476c0.4162369,9.2382431,1.7973938,18.2118912,6.218544,26.5418091
		c0.7579651,1.4281006,0.4674683,3.4189453,0.6368408,5.1521759c1.075119,11.0035706,2.0222168,22.021347,3.2513428,33.0076294
		c1.0220947,9.1361542,4.3483276,18.5307617,3.0420532,27.2711182c-1.4049225,9.4008942,3.1079254,17.0270691,3.6261292,25.6948853
		c0.6158752,10.3013611,4.0007324,20.4203033,5.932663,30.6659851c1.2280121,6.5127869,1.6725464,13.1810303,3.0485687,19.65625
		c1.8764954,8.8301392,4.3574371,17.530365,6.4743347,26.311554c0.943985,3.915741,1.7553864,7.8728333,2.4088287,11.8470764
		c1.0596619,6.444519,1.8290253,12.9374695,2.9224396,19.3757019c1.5044403,8.8581848,3.1772308,17.6881714,4.845993,26.517395
		c0.1307831,0.6918335,0.7036896,1.3797302,1.2426758,1.8872681c0.3688507,0.3473206,1.0357056,0.3781738,1.2741699,0.4551392
		c3.8920135-5.5232849,8.2586365-10.5643921,11.2865448-16.3109436c3.7466888-7.1105957,6.3925934-14.8023376,9.4944611-22.2511292
		c1.7313995-4.1577148,3.4799957-8.3096924,5.121994-12.5029907c4.5519257-11.6248169,8.9827881-23.2974854,13.5962067-34.8976746
		c3.2177582-8.0909119,6.9297791-15.9940033,9.9152069-24.165802c2.5495758-6.978653,4.1722565-14.2913666,6.5852661-21.3258362
		c2.3594818-6.8784027,5.3170319-13.5491333,7.8035889-20.3868561c4.4938507-12.3575592,9.2741394-24.6370697,13.0995026-37.2034302
		c3.2030334-10.5217896,6.2749634-21.0381775,7.5065918-32.2236328c1.1689148-10.6161804,6.1214447-20.76017,8.1747589-31.3513107
		c1.8281555-9.4296112,2.3241577-19.1766663,2.604187-28.8070221c0.072998-2.5112-2.4386597-5.5119553-4.4697876-7.6007767
		c-10.7890778-11.0959129-11.0230865-24.3718338-6.4404297-36.8960037
		c1.8332367-5.010252,14.7765503-8.0391293,20.3754883-5.8596401c8.8085327,3.4289074,11.8912659,11.0488358,13.7440796,18.9879532
		c0.7382812,3.1634064-0.9650269,7.7268372-3.0440979,10.5625153c-6.3293762,8.6327362-3.1550903,17.8698692-2.7057495,26.9392052
		c0.1405945,2.8375702,1.0552979,5.6378021,1.6266785,8.4528961c2.4996033,12.3158188,4.5998535,24.7314682,7.6372375,36.9133301
		c2.2938843,9.2001877,5.4074097,18.248085,8.8284302,27.1040268c6.6546631,17.2268066,13.7512207,34.2834625,20.7203979,51.38797
		c7.6472168,18.7682953,15.4684143,37.4665222,22.9910889,56.2843018
		c3.5796509,8.9544373,5.3834229,18.864502,10.2293091,27.0105591c7.6345825,12.8339539,10.091217,27.6363525,16.9597778,40.4161072
		c5.8972473,10.9726257,6.3622742,24.0927429,14.8261719,33.8898621
		C384.9141235,366.3117676,385.4779053,370.2739258,387.3096313,374.8852844z M276.716095,507.5693054
		c0.4667969,0.1654358,0.9335938,0.3308105,1.4003906,0.4962463c1.1964417-2.8788147,2.4421387-5.7383118,3.5808105-8.6397705
		c5.2044067-13.2612,10.4555359-26.5046997,15.5409851-39.811554c4.5346985-11.8659668,8.6730347-23.8865662,13.3639832-35.6887817
		c3.6957703-9.2982178,8.0737-18.3228149,11.9595337-27.5485229c8.3631287-19.8554993,16.5450745-39.787323,24.9221802-59.6368103
		c3.8234253-9.0595398,0.6493225-20.6864319-7.9915466-25.7236938c-5.1382751-2.9954529-10.7815857-5.3473206-16.4651184-7.1421814
		c-16.1765442-5.1086426-31.2365723-3.926178-43.6543884,9.2368774c-0.39328,0.4168396-0.9036865,0.7261658-1.3717041,1.0689392
		c-4.7854919,3.5054626-11.8469543,3.8179016-14.7944946-0.657135
		c-5.0370178-7.6472778-11.2554626-13.9771423-20.3975067-16.0085754c-7.111618-1.5802612-14.4408417-5.3611145-21.7651215-0.392334
		c-8.285965,5.6212158-16.7070618,11.3440857-19.5029449,21.6464233
		c-1.6193695,5.9669495-4.3177032,13.2585144-2.3235779,18.2851257
		c5.9453888,14.9868164,13.8412323,29.2147522,21.2317963,43.6074219
		c4.1159058,8.0154724,9.0326538,15.6228943,13.0774078,23.6710205
		c8.0001373,15.9184875,15.6534119,32.0113831,23.4268036,48.0434265c0.9156189,1.8883057,1.8446655,3.7952881,2.4949036,5.7828369
		c2.657196,8.1217346,5.0307312,16.3401489,7.8479004,24.4045105
		C270.2330627,490.9692993,273.5598755,499.2395325,276.716095,507.5693054z M342.9661865,297.8701782
		c-22.1048279-64.108017-54.2492981-122.7051392-71.0726318-187.642395
		c-2.9442749,6.0039444-5.8630981,12.060051-7.4333191,18.44767c-2.8310547,11.5169067-4.1477356,23.4338226-7.3928223,34.8141174
		c-4.1659088,14.6092072-9.3904114,28.9336853-14.5833282,43.226593
		c-3.3520966,9.2263489-7.6643372,18.0995483-11.1927795,27.2670746
		c-5.8568726,15.2173462-9.8386993,31.1610565-18.0389404,45.47435c-1.5022888,2.6221924-1.937027,5.8559875-3.2025299,9.8830872
		c4.4423676-1.4377441,7.6235046-2.7010498,10.9194641-3.4758301c4.2713013-1.0040894,8.8468781-2.8655701,12.9182587-2.1708069
		c12.9498596,2.2098083,24.9571686,7.1388855,34.6037445,16.4608459c2.5826111,2.4957581,4.2771301,1.803833,6.9911499,0.3674622
		c5.7999878-3.0697327,11.7687988-5.9247742,17.9088135-8.2267456c13.913208-5.2163391,27.4364014-0.8491211,40.9269409,2.408783
		C337.0888977,295.3734741,339.7108459,296.6587524,342.9661865,297.8701782z M448.5423279,415.9771423
		c-8.9786377,12.6408997-22.6116638,14.270752-33.9878845,19.9648438c-1.3606567,0.6811218-2.8228455,1.2620239-4.3043518,1.58255
		c-11.5397949,2.4963379-23.3152771,4.1921997-34.5751038,7.5991821
		c-8.5020447,2.5726013-16.8259583,4.5769043-25.6916504,4.3383789c-1.7255249-0.0464478-3.7339478-0.1334229-5.1506958,0.64151
		c-7.9772339,4.3635254-15.9012451,2.4717712-23.7216187-0.0688782c-5.8676147-1.9064331-7.9702148-1.2712708-10.3662109,4.9865112
		c-5.3982239,14.0989075-10.6799316,28.2432861-15.8857117,42.4144897
		c-1.2047119,3.2795715-1.9145813,6.7408752-2.9832458,10.5907288c8.583374,0,16.3553162,0.3555298,24.0812988-0.0886841
		c9.9579773-0.5725708,19.8999023-1.6080017,29.8103943-2.7710571c10.4842224-1.2305908,20.9703979-2.5722961,31.3703003-4.3619995
		c12.6398926-2.1750488,25.5075378-3.8542786,37.6804199-7.6567383c9.9213867-3.0991821,19.3781433-8.3469238,28.2557983-13.897644
		c6.0983582-3.8128967,11.7331238-8.7763977,10.6445923-18.0456238c-1.5124207-12.8781738-1.7250366-25.906189-2.675415-38.8566589
		C450.9146729,420.5960083,449.7349854,418.9212036,448.5423279,415.9771423z M263.4173889,509.0719604
		c0.5145874-0.6957703,1.0292358-1.3915405,1.5438538-2.0872803c-3.7102051-12.133606-7.1620789-24.3546448-11.2296295-36.3672485
		c-2.358551-6.9654236-5.5050201-13.6927795-8.6955872-20.3357239c-1.5917206-3.3140259-3.1590881-6.4167175-8.6670074-4.0968933
		c-5.0928497,2.1450195-11.2886353,3.0752563-16.8071442,2.5454407
		c-17.2438812-1.6555176-34.3752899-4.4456482-51.5936279-6.4177856c-10.578125-1.211792-20.4787903-4.0890503-29.592041-9.5994568
		c-6.0449219-3.6551208-12.0766296-7.3320007-18.8412933-11.4406738
		c-0.4027328,7.8643799-0.6544952,14.6173401-1.1247559,21.3550415c-0.3479538,4.985199-1.3360291,9.9482727-1.3675461,14.9255066
		c-0.0230103,3.6273193-0.1511765,8.282959,1.8864059,10.676178c4.0045929,4.7033081,9.0334625,8.9762878,14.4528046,11.9367065
		c9.6844482,5.2903748,19.805603,9.8930054,30.0590515,13.9966125c8.852829,3.5430603,18.0265503,6.4537964,27.2739258,8.7915039
		c8.5243378,2.1550293,17.2836914,3.929657,26.031601,4.5298767
		C232.2666779,508.5488586,247.8565826,508.5978699,263.4173889,509.0719604z M360.8291931,339.062439
		c-1.0368652,1.463501-2.2865906,2.8470154-3.105072,4.4506226c-2.9929199,5.8639526-5.9892273,11.7344055-8.7112732,17.7264099
		c-4.1465149,9.1277161-8.2595215,18.2798157-12.0350342,27.5645447
		c-5.2993164,13.032074-10.2995605,26.1862488-15.3753662,39.3083801c-1.393158,3.6017761-2.5995483,7.2757568-3.6731262,10.3008423
		c12.4089355,6.3308105,24.138855,2.5931091,35.6286011,1.1310425c9.3240967-1.1864929,18.39151-4.3272095,27.6060486-6.4572449
		c8.1481934-1.8833313,16.6861877-2.6541138,24.4303894-5.5682983c10.0109558-3.7671509,19.5154724-8.9653625,29.0105286-13.978241
		c3.9811096-2.1018677,7.3571472-5.2291565,2.8794556-10.2685547c-1.093689-1.230957-1.8836975-2.9776611-2.2087708-4.6077881
		c-3.5599365-17.851593-16.1892395-30.5901794-25.4527588-45.2119751c-0.6561584-1.0356445-2.4117126-1.3747253-3.6560974-2.0377502
		c-0.493103,1.1891479-1.2473145,2.338623-1.4353943,3.5741272c-0.9559021,6.2810059-1.5107422,12.6326904-2.6972961,18.8661804
		c-1.1733398,6.1639404-2.8616638,12.2351379-4.4648438,18.3098145c-0.8143921,3.0855408-2.3228455,6.7097778-6.0451965,5.3562012
		c-3.0063477-1.0930176-5.9902649-3.8240967-7.673584-6.618103c-2.6694946-4.430603-4.1815796-9.5484924-6.295929-14.3257751
		C372.1326599,364.3269653,366.6488953,352.1043091,360.8291931,339.062439z M151.8243561,337.5424194
		c-0.6448212-0.3103638-1.2896576-0.6207275-1.9345093-0.9310608c-0.9075775,1.0734253-2.1718597,2.0064392-2.6595917,3.2451782
		c-1.8707428,4.7513428-3.3637543,9.6515503-5.2365417,14.4020996c-2.9205322,7.4084778-5.9821777,14.7628479-9.0839386,22.0978699
		c-2.9297943,6.9284363-6.0695496,13.7688599-8.9454956,20.7189026c-0.9738922,2.3536072-2.7803345,5.9138794-1.8431702,7.1978455
		c2.2398911,3.0685425,5.5590897,5.8013,9.0241394,7.4386292c10.3796387,4.9047852,20.7713623,10.0551147,31.6619568,13.532135
		c11.1416168,3.5571289,22.853363,5.37677,34.3714752,7.6770325c3.3995819,0.6790161,7.2215881-0.319519,10.44664,0.7119751
		c8.9548187,2.8638611,17.4497986,1.0849304,25.9913177-1.1144714c0.423996-5.3157349-39.660614-80.0620728-45.6070251-85.6352234
		c-5.5471497,9.6058655-11.0133057,19.38797-16.8773193,28.9255371c-1.0193787,1.65802-3.6083374,2.9151001-5.6612701,3.2727051
		c-7.5630493,1.317627-9.6480865-3.5306702-11.0610504-13.3579407
		C153.0692291,356.3987427,152.6492462,346.9414978,151.8243561,337.5424194z M447.2773743,397.9996948
		c0.5193176-0.0966187,1.0386353-0.1932373,1.5579529-0.2897644c0.1683044-1.0656738,0.4805298-2.1308899,0.4832458-3.1969604
		c0.0387268-15.5897522,0.3794556-31.1891479-0.0559692-46.7666016
		c-0.4110413-14.7012329-1.6650085-29.3785095-2.5164185-44.0681152
		c-0.3996277-6.8933411-4.0150452-10.5710754-11.1394043-11.1530457
		c-8.5931702-0.7019653-15.2112732,4.1259155-21.4241028,8.7816467c-2.1132812,1.5837097-1.7591248,6.4625854-2.5273438,9.8368835
		c-0.2155151,0.9466553-0.1605835,2.0624084-0.6570129,2.8209534c-5.0508423,7.7174072-0.9770508,15.769928,1.6947327,21.9781799
		c4.8527527,11.2758179,12.9765015,21.1073914,19.2870789,31.8059387
		c3.9196472,6.6450195,7.0130005,13.7772217,10.4811401,20.6888733
		C444.0619202,391.6274414,445.6717529,394.8124695,447.2773743,397.9996948z M140.2413177,280.8319092
		c-0.4235687-1.7833252-0.911377-4.3308411-1.6467285-6.8047485c-0.863266-2.9043579-2.3386841-5.6753235-2.8549347-8.6255188
		c-1.8093262-10.3402557-3.2728882-20.7404022-4.9561157-31.1034393
		c-2.3018188-14.1713104-5.0289764-28.2832031-6.9383926-42.5058594
		c-2.0246429-15.0810242-3.0819321-30.2903748-4.9999924-45.3879852c-1.0513611-8.275238-3.0181961-16.4335327-4.5508194-24.6485367
		c-0.8304367-4.4510574-1.6299973-8.9080429-2.4135513-13.3676376c-0.2485809-1.4147186-0.4004364-2.8464355-0.5965347-4.2703705
		c-1.3412094,2.1458893-1.7445831,4.3472214-1.6263809,6.5202255c0.6796112,12.4929047,1.6181641,24.9728775,2.1959381,37.4698105
		c0.377327,8.1608276-0.1098709,16.3733368,0.5040283,24.5088348c1.0257416,13.5934296,3.3038635,27.1178894,3.8191452,40.7182159
		c0.7696915,20.3165283,0.5361176,40.673584,0.5728149,61.0136719c0.0092163,5.10672,2.2367096,6.8559265,7.1676025,6.5532532
		C129.0314484,280.5879211,134.1797028,280.8319092,140.2413177,280.8319092z M432.2672729,165.2794952
		c-0.3804016-0.023407-0.7607117-0.0468445-1.1411133-0.070282c-0.9109497,4.7903595-2.2535095,9.5451965-2.6515503,14.3777924
		c-1.1763,14.2819824-1.7419739,28.6159668-3.018158,42.8874054c-0.7536621,8.4286346-2.3110352,16.7919159-3.6684875,25.1583862
		c-1.6589355,10.2245331-3.5333862,20.4139862-5.2185669,30.6343842c-0.6396484,3.8798828,0.4273682,4.9570618,4.8208923,4.0281677
		c5.5715942-1.1779785,11.8272095-2.2266235,17.1174622-0.8164368c6.1351624,1.6352844,6.4282227-0.5471497,5.9342041-5.0225525
		c-1.589325-14.3952637-3.3190918-28.7752228-4.8640442-43.1751099c-0.9496155-8.8506927-1.5443726-17.7396851-2.5071411-26.5887756
		c-1.3173218-12.1091919-2.8353577-24.1965027-4.260376-36.2939606
		C432.6096497,168.6944733,432.4473572,166.9859467,432.2672729,165.2794952z M121.4243851,366.2337952
		c0.5670547,0.0646667,1.1341095,0.1293335,1.7011719,0.1940308c1.1957855-3.4631653,2.4818649-6.8982239,3.5714569-10.3945618
		c4.2512894-13.6417236,14.1698532-25.3424072,13.8972855-40.5450134c-0.01297-0.7215576,0.6946564-1.4382629,0.7523651-2.1816101
		c0.5130615-6.6111755-0.8836823-18.144043-8.7456818-21.896637c-7.1949081-3.4341736-13.9453888-0.2489624-13.966507,7.5327148
		c-0.0274353,10.1302185,0.2446899,20.2688293,0.6872635,30.3907166
		C119.8598175,341.640686,120.7094727,353.9342651,121.4243851,366.2337952z M261.9042358,59.6138954
		c8.1288452-3.8087883,12.5523376-9.2800827,11.4654541-14.7206841c-0.7674866-3.8417282-2.1095276-8.0055771-7.3872986-8.0757904
		c-5.513855-0.0733566-6.0315857,4.702179-6.1609497,7.9958229
		C259.6318665,49.6394081,261.1051025,54.5308571,261.9042358,59.6138954z M112.6048126,50.1591949
		c-6.3207016-2.6510887-9.7075348-0.7319565-11.9307785,3.7657623c-1.6866989,3.4123116,1.1269302,9.9218521,6.4078827,14.0394669
		C109.005127,61.7641716,110.8279572,55.8875771,112.6048126,50.1591949z M418.981842,49.5434723
		c-1.1617737,7.9134254,1.8986206,13.4418182,9.1130676,18.7745819c0-5.113945,0.0807495-8.9068642-0.0177307-12.6951065
		C427.9035339,48.9431114,426.2188721,47.7987442,418.981842,49.5434723z"/>
	<path class="st2" d="M276.716095,507.5693054c-3.1562195-8.3297729-6.4830322-16.6000061-9.4197083-25.0065308
		c-2.8171692-8.0643616-5.1907043-16.2827759-7.8479004-24.4045105c-0.650238-1.9875488-1.5792847-3.8945312-2.4949036-5.7828369
		c-7.7733917-16.0320435-15.4266663-32.124939-23.4268036-48.0434265
		c-4.044754-8.0481262-8.9615021-15.6555481-13.0774078-23.6710205
		c-7.390564-14.3926697-15.2864075-28.6206055-21.2317963-43.6074219
		c-1.9941254-5.0266113,0.7042084-12.3181763,2.3235779-18.2851257c2.7958832-10.3023376,11.21698-16.0252075,19.5029449-21.6464233
		c7.3242798-4.9687805,14.6535034-1.1879272,21.7651215,0.392334c9.1420441,2.0314331,15.3604889,8.3612976,20.3975067,16.0085754
		c2.9475403,4.4750366,10.0090027,4.1625977,14.7944946,0.657135c0.4680176-0.3427734,0.9784241-0.6520996,1.3717041-1.0689392
		c12.4178162-13.1630554,27.4778442-14.34552,43.6543884-9.2368774c5.6835327,1.7948608,11.3268433,4.1467285,16.4651184,7.1421814
		c8.6408691,5.037262,11.8149719,16.6641541,7.9915466,25.7236938
		c-8.3771057,19.8494873-16.5590515,39.781311-24.9221802,59.6368103
		c-3.8858337,9.225708-8.2637634,18.2503052-11.9595337,27.5485229
		c-4.6909485,11.8022156-8.8292847,23.8228149-13.3639832,35.6887817
		c-5.0854492,13.3068542-10.3365784,26.550354-15.5409851,39.811554c-1.1386719,2.9014587-2.3843689,5.7609558-3.5808105,8.6397705
		C277.6496887,507.900116,277.1828918,507.7347412,276.716095,507.5693054z"/>
	<path class="st2" d="M342.9661865,297.8701782c-3.2553406-1.2114258-5.8772888-2.4967041-8.6479797-3.165802
		c-13.4905396-3.2579041-27.0137329-7.6251221-40.9269409-2.408783c-6.1400146,2.3019714-12.1088257,5.1570129-17.9088135,8.2267456
		c-2.7140198,1.4363708-4.4085388,2.1282959-6.9911499-0.3674622c-9.6465759-9.3219604-21.6538849-14.2510376-34.6037445-16.4608459
		c-4.0713806-0.6947632-8.6469574,1.1667175-12.9182587,2.1708069c-3.2959595,0.7747803-6.4770966,2.0380859-10.9194641,3.4758301
		c1.2655029-4.0270996,1.7002411-7.2608948,3.2025299-9.8830872c8.2002411-14.3132935,12.1820679-30.2570038,18.0389404-45.47435
		c3.5284424-9.1675262,7.840683-18.0407257,11.1927795-27.2670746c5.1929169-14.2929077,10.4174194-28.6173859,14.5833282-43.226593
		c3.2450867-11.3802948,4.5617676-23.2972107,7.3928223-34.8141174c1.5702209-6.387619,4.4890442-12.4437256,7.4333191-18.44767
		C288.7168884,175.1650391,320.8613586,233.7621613,342.9661865,297.8701782z"/>
	<path class="st2" d="M448.5423279,415.9771423c1.1926575,2.9440613,2.372345,4.618866,2.5009155,6.3709106
		c0.9503784,12.95047,1.1629944,25.9784851,2.675415,38.8566589c1.0885315,9.2692261-4.5462341,14.2327271-10.6445923,18.0456238
		c-8.877655,5.5507202-18.3344116,10.7984619-28.2557983,13.897644
		c-12.1728821,3.8024597-25.0405273,5.4816895-37.6804199,7.6567383
		c-10.3999023,1.7897034-20.8860779,3.1314087-31.3703003,4.3619995c-9.9104919,1.1630554-19.852417,2.1984863-29.8103943,2.7710571
		c-7.7259827,0.4442139-15.4979248,0.0886841-24.0812988,0.0886841c1.0686646-3.8498535,1.7785339-7.3111572,2.9832458-10.5907288
		c5.20578-14.1712036,10.4874878-28.3155823,15.8857117-42.4144897c2.3959961-6.257782,4.4985962-6.8929443,10.3662109-4.9865112
		c7.8203735,2.5406494,15.7443848,4.4324036,23.7216187,0.0688782c1.416748-0.7749329,3.4251709-0.6879578,5.1506958-0.64151
		c8.8656921,0.2385254,17.1896057-1.7657776,25.6916504-4.3383789c11.2598267-3.4069824,23.0353088-5.1028442,34.5751038-7.5991821
		c1.4815063-0.3205261,2.9436951-0.9014282,4.3043518-1.58255
		C425.9306641,430.2478943,439.5636902,428.618042,448.5423279,415.9771423z"/>
	<path class="st2" d="M263.4173889,509.0719604c-15.5608063-0.4740906-31.1507111-0.5231018-46.67099-1.5881958
		c-8.7479095-0.6002197-17.5072632-2.3748474-26.031601-4.5298767c-9.2473755-2.3377075-18.4210968-5.2484436-27.2739258-8.7915039
		c-10.2534485-4.1036072-20.3746033-8.7062378-30.0590515-13.9966125
		c-5.419342-2.9604187-10.4482117-7.2333984-14.4528046-11.9367065c-2.0375824-2.393219-1.9094162-7.0488586-1.8864059-10.676178
		c0.031517-4.9772339,1.0195923-9.9403076,1.3675461-14.9255066c0.4702606-6.7377014,0.722023-13.4906616,1.1247559-21.3550415
		c6.7646637,4.1086731,12.7963715,7.785553,18.8412933,11.4406738c9.1132507,5.5104065,19.013916,8.3876648,29.592041,9.5994568
		c17.218338,1.9721375,34.3497467,4.7622681,51.5936279,6.4177856c5.5185089,0.5298157,11.7142944-0.4004211,16.8071442-2.5454407
		c5.5079193-2.3198242,7.0752869,0.7828674,8.6670074,4.0968933c3.190567,6.6429443,6.3370361,13.3703003,8.6955872,20.3357239
		c4.0675507,12.0126038,7.5194244,24.2336426,11.2296295,36.3672485
		C264.4466248,507.6804199,263.9319763,508.3761902,263.4173889,509.0719604z"/>
	<path class="st2" d="M360.8291931,339.062439c5.8197021,13.0418701,11.3034668,25.2645264,16.7252808,37.5144348
		c2.1143494,4.7772827,3.6264343,9.8951721,6.295929,14.3257751c1.6833191,2.7940063,4.6672363,5.5250854,7.673584,6.618103
		c3.7223511,1.3535767,5.2308044-2.2706604,6.0451965-5.3562012c1.6031799-6.0746765,3.2915039-12.145874,4.4648438-18.3098145
		c1.186554-6.23349,1.741394-12.5851746,2.6972961-18.8661804c0.1880798-1.2355042,0.9422913-2.3849792,1.4353943-3.5741272
		c1.2443848,0.6630249,2.999939,1.0021057,3.6560974,2.0377502c9.2635193,14.6217957,21.8928223,27.3603821,25.4527588,45.2119751
		c0.3250732,1.630127,1.1150818,3.3768311,2.2087708,4.6077881c4.4776917,5.0393982,1.1016541,8.166687-2.8794556,10.2685547
		c-9.4950562,5.0128784-18.9995728,10.2110901-29.0105286,13.978241c-7.7442017,2.9141846-16.282196,3.684967-24.4303894,5.5682983
		c-9.2145386,2.1300354-18.2819519,5.270752-27.6060486,6.4572449c-11.4897461,1.4620667-23.2196655,5.1997681-35.6286011-1.1310425
		c1.0735779-3.0250854,2.2799683-6.6990662,3.6731262-10.3008423c5.0758057-13.1221313,10.0760498-26.2763062,15.3753662-39.3083801
		c3.7755127-9.284729,7.8885193-18.4368286,12.0350342-27.5645447c2.7220459-5.9920044,5.7183533-11.8624573,8.7112732-17.7264099
		C358.5426025,341.9094543,359.7923279,340.5259399,360.8291931,339.062439z"/>
	<path class="st2" d="M151.8243561,337.5424194c0.8248901,9.3990784,1.244873,18.8563232,2.5856171,28.1812134
		c1.4129639,9.8272705,3.4980011,14.6755676,11.0610504,13.3579407c2.0529327-0.357605,4.6418915-1.6146851,5.6612701-3.2727051
		c5.8640137-9.5375671,11.3301697-19.3196716,16.8773193-28.9255371
		c5.9464111,5.5731506,46.0310211,80.3194885,45.6070251,85.6352234c-8.5415192,2.1994019-17.036499,3.9783325-25.9913177,1.1144714
		c-3.2250519-1.0314941-7.0470581-0.032959-10.44664-0.7119751c-11.5181122-2.3002625-23.2298584-4.1199036-34.3714752-7.6770325
		c-10.8905945-3.4770203-21.2823181-8.6273499-31.6619568-13.532135c-3.4650497-1.6373291-6.7842484-4.3700867-9.0241394-7.4386292
		c-0.9371643-1.2839661,0.869278-4.8442383,1.8431702-7.1978455c2.875946-6.9500427,6.0157013-13.7904663,8.9454956-20.7189026
		c3.1017609-7.335022,6.1634064-14.6893921,9.0839386-22.0978699c1.8727875-4.7505493,3.365799-9.6507568,5.2365417-14.4020996
		c0.4877319-1.238739,1.7520142-2.1717529,2.6595917-3.2451782
		C150.5346985,336.9216919,151.1795349,337.2320557,151.8243561,337.5424194z"/>
	<path class="st2" d="M447.2773743,397.9996948c-1.6056213-3.1872253-3.2154541-6.3722534-4.8161011-9.5620117
		c-3.4681396-6.9116516-6.5614929-14.0438538-10.4811401-20.6888733
		c-6.3105774-10.6985474-14.4343262-20.5301208-19.2870789-31.8059387
		c-2.6717834-6.208252-6.745575-14.2607727-1.6947327-21.9781799c0.4964294-0.7585449,0.4414978-1.8742981,0.6570129-2.8209534
		c0.768219-3.3742981,0.4140625-8.2531738,2.5273438-9.8368835c6.2128296-4.6557312,12.8309326-9.4836121,21.4241028-8.7816467
		c7.1243591,0.5819702,10.7397766,4.2597046,11.1394043,11.1530457c0.8514099,14.6896057,2.1053772,29.3668823,2.5164185,44.0681152
		c0.4354248,15.5774536,0.094696,31.1768494,0.0559692,46.7666016c-0.0027161,1.0660706-0.3149414,2.1312866-0.4832458,3.1969604
		C448.3160095,397.8064575,447.7966919,397.9030762,447.2773743,397.9996948z"/>
	<path class="st2" d="M140.2413177,280.8319092c-6.061615,0-11.2098694-0.243988-16.3239212,0.0699158
		c-4.9308929,0.3026733-7.1583862-1.4465332-7.1676025-6.5532532c-0.0366974-20.3400879,0.1968765-40.6971436-0.5728149-61.0136719
		c-0.5152817-13.6003265-2.7934036-27.1247864-3.8191452-40.7182159c-0.6138992-8.135498-0.1267014-16.3480072-0.5040283-24.5088348
		c-0.577774-12.496933-1.5163269-24.9769058-2.1959381-37.4698105c-0.1182022-2.1730042,0.2851715-4.3743362,1.6263809-6.5202255
		c0.1960983,1.4239349,0.3479538,2.8556519,0.5965347,4.2703705c0.7835541,4.4595947,1.5831146,8.9165802,2.4135513,13.3676376
		c1.5326233,8.215004,3.4994583,16.3732986,4.5508194,24.6485367c1.9180603,15.0976105,2.9753494,30.3069611,4.9999924,45.3879852
		c1.9094162,14.2226562,4.6365738,28.334549,6.9383926,42.5058594c1.6832275,10.3630371,3.1467896,20.7631836,4.9561157,31.1034393
		c0.5162506,2.9501953,1.9916687,5.7211609,2.8549347,8.6255188
		C139.3299408,276.5010681,139.817749,279.048584,140.2413177,280.8319092z"/>
	<path class="st2" d="M432.2672729,165.2794952c0.1800842,1.7064514,0.3423767,3.414978,0.5431213,5.1190186
		c1.4250183,12.0974579,2.9430542,24.1847687,4.260376,36.2939606c0.9627686,8.8490906,1.5575256,17.7380829,2.5071411,26.5887756
		c1.5449524,14.3998871,3.2747192,28.7798462,4.8640442,43.1751099c0.4940186,4.4754028,0.2009583,6.6578369-5.9342041,5.0225525
		c-5.2902527-1.4101868-11.5458679-0.3615417-17.1174622,0.8164368c-4.3935242,0.928894-5.4605408-0.1482849-4.8208923-4.0281677
		c1.6851807-10.2203979,3.5596313-20.4098511,5.2185669-30.6343842c1.3574524-8.3664703,2.9148254-16.7297516,3.6684875-25.1583862
		c1.2761841-14.2714386,1.8418579-28.605423,3.018158-42.8874054c0.3980408-4.8325958,1.7406006-9.5874329,2.6515503-14.3777924
		C431.5065613,165.2326508,431.8868713,165.2560883,432.2672729,165.2794952z"/>
	<path class="st2" d="M121.4243851,366.2337952c-0.7149124-12.29953-1.5645676-24.5931091-2.1026459-36.9003601
		c-0.4425735-10.1218872-0.7146988-20.260498-0.6872635-30.3907166c0.0211182-7.7816772,6.7715988-10.9668884,13.966507-7.5327148
		c7.8619995,3.752594,9.2587433,15.2854614,8.7456818,21.896637c-0.0577087,0.7433472-0.7653351,1.4600525-0.7523651,2.1816101
		c0.2725677,15.2026062-9.6459961,26.9032898-13.8972855,40.5450134c-1.089592,3.4963379-2.3756714,6.9313965-3.5714569,10.3945618
		C122.5584946,366.3631287,121.9914398,366.2984619,121.4243851,366.2337952z"/>
	<path class="st2" d="M261.9042358,59.6138954c-0.7991333-5.0830383-2.2723694-9.9744873-2.0827942-14.8006516
		c0.129364-3.293644,0.6470947-8.0691795,6.1609497-7.9958229c5.277771,0.0702133,6.619812,4.2340622,7.3872986,8.0757904
		C274.4565735,50.3338127,270.0330811,55.8051071,261.9042358,59.6138954z"/>
	<path class="st2" d="M112.6048126,50.1591949c-1.7768555,5.7283821-3.5996857,11.6049767-5.5228958,17.8052292
		c-5.2809525-4.1176147-8.0945816-10.6271553-6.4078827-14.0394669
		C102.8972778,49.4272385,106.284111,47.5081062,112.6048126,50.1591949z"/>
	<path class="st2" d="M418.981842,49.5434723c7.23703-1.7447281,8.9216919-0.6003609,9.0953369,6.0794754
		c0.0984802,3.7882423,0.0177307,7.5811615,0.0177307,12.6951065
		C420.8804626,62.9852905,417.8200684,57.4568977,418.981842,49.5434723z"/>
</g>
<g id="Laag_2" class="st0">
	<path class="st2" d="M340.9661865,299.7282104c-3.2553406-1.2114258-5.8772888-2.4966736-8.6479797-3.1657715
		c-13.4905396-3.2579346-27.0137329-7.6251221-40.9269409-2.4088135c-6.1400146,2.302002-12.1088257,5.1570435-17.9088135,8.2267456
		c-2.7140198,1.4363708-4.4085388,2.1283264-6.9911499-0.3674316c-9.6465759-9.3219604-21.6538849-14.2510376-34.6037445-16.4608459
		c-4.0713806-0.6947632-8.6469574,1.166687-12.9182587,2.1707764c-3.2959595,0.7748108-6.4770966,2.0380859-10.9194641,3.4758606
		c1.2655029-4.0271301,1.7002411-7.2609253,3.2025299-9.8830872c8.2002411-14.313324,12.1820679-30.257019,18.0389404-45.4743652
		c3.5284424-9.1675262,7.840683-18.0407257,11.1927795-27.2670746c5.1929169-14.2928925,10.4174194-28.6173859,14.5833435-43.226593
		c3.2450714-11.3802948,4.5617523-23.2972107,7.392807-34.8141174c1.5702209-6.387619,4.4890442-12.4437256,7.4333191-18.44767
		C286.7168884,177.0230865,318.8613586,235.6202087,340.9661865,299.7282104z"/>
	<path class="st2" d="M446.5423279,417.8352051c1.1926575,2.9440308,2.372345,4.6188354,2.5009155,6.3709106
		c0.9503784,12.95047,1.1629944,25.9784851,2.675415,38.8566284c1.0885315,9.2692261-4.5462341,14.2327576-10.6445923,18.0456238
		c-8.877655,5.5507507-18.3344116,10.7984619-28.2557983,13.8976746
		c-12.1728821,3.8024597-25.0405273,5.4816895-37.6804199,7.6567078c-10.3999023,1.7897339-20.8860779,3.1314392-31.3703003,4.36203
		c-9.9104919,1.1630554-19.852417,2.1984863-29.8103943,2.7710266c-7.7259827,0.4442139-15.4979248,0.0886841-24.0812988,0.0886841
		c1.0686646-3.849823,1.7785339-7.3111267,2.9832458-10.5906982c5.20578-14.1712036,10.4874878-28.3156128,15.8857117-42.4144897
		c2.3959961-6.257782,4.4985962-6.8929443,10.3662109-4.9865417c7.8203735,2.5406494,15.7443848,4.4324036,23.7216187,0.0689087
		c1.416748-0.7749634,3.4251709-0.6879883,5.1506958-0.6415405c8.8656921,0.2385559,17.1896057-1.7657776,25.6916504-4.3383484
		c11.2598267-3.4069824,23.0353088-5.1028748,34.5751038-7.5992126c1.4815063-0.3204956,2.9436951-0.9014282,4.3043518-1.58255
		C423.9306641,432.105957,437.5636902,430.4761047,446.5423279,417.8352051z"/>
	<path class="st2" d="M261.4173889,510.9299927c-15.5608063-0.4740906-31.1507111-0.5231018-46.67099-1.5881958
		c-8.7479095-0.6001892-17.5072632-2.3748474-26.031601-4.5298767c-9.2473755-2.337677-18.4210968-5.2484131-27.2739258-8.7914734
		c-10.2534485-4.1036072-20.3746033-8.7062378-30.0590515-13.9966125
		c-5.419342-2.9604187-10.4482117-7.2333984-14.4528046-11.9367065c-2.0375824-2.393219-1.9094162-7.0488892-1.8864059-10.676178
		c0.031517-4.9772644,1.0195923-9.9403381,1.3675461-14.9255066c0.4702606-6.7377319,0.722023-13.4906616,1.1247559-21.355072
		c6.7646637,4.1086731,12.7963715,7.7855835,18.8412933,11.4406738c9.1132507,5.510437,19.013916,8.3876648,29.592041,9.5994568
		c17.218338,1.972168,34.3497467,4.7622681,51.5936279,6.4177856c5.5185089,0.5298157,11.7142944-0.4003906,16.8071442-2.5454407
		c5.5079193-2.3198242,7.0752869,0.7828979,8.6670074,4.0968933c3.190567,6.6429749,6.3370361,13.3703308,8.6955872,20.3357239
		c4.0675507,12.0126038,7.5194244,24.2336731,11.2296295,36.3672485
		C262.4466248,509.5384827,261.9319763,510.2342529,261.4173889,510.9299927z"/>
	<path class="st2" d="M358.8291931,340.9205017c5.8197021,13.0418701,11.3034668,25.2644958,16.7252808,37.5144348
		c2.1143494,4.7772827,3.6264343,9.8951416,6.295929,14.3257751c1.6833191,2.7939758,4.6672363,5.5250549,7.673584,6.618103
		c3.7223511,1.3535767,5.2308044-2.2706604,6.0451965-5.3562012c1.6031799-6.074707,3.2915039-12.1459045,4.4648438-18.309845
		c1.186554-6.23349,1.741394-12.585144,2.6972961-18.8661499c0.1880798-1.2355347,0.9422913-2.3850098,1.4353943-3.5741577
		c1.2443848,0.6630554,2.999939,1.0021362,3.6560974,2.0377808c9.2635193,14.6217651,21.8928223,27.3603516,25.4527588,45.2119751
		c0.3250732,1.630127,1.1150818,3.3768311,2.2087708,4.6077576c4.4776917,5.0394287,1.1016541,8.166687-2.8794556,10.2685547
		c-9.4950562,5.0129089-18.9995728,10.2110901-29.0105286,13.9782715c-7.7442017,2.9141541-16.282196,3.684967-24.4303894,5.5682983
		c-9.2145386,2.1300049-18.2819519,5.2707214-27.6060486,6.4572144
		c-11.4897461,1.4620667-23.2196655,5.1997986-35.6286011-1.1310425c1.0735779-3.0250854,2.2799683-6.6990356,3.6731262-10.3008423
		c5.0758057-13.1221313,10.0760498-26.2762756,15.3753662-39.3083801
		c3.7755127-9.2846985,7.8885193-18.4367981,12.0350342-27.5645142c2.7220459-5.9920044,5.7183533-11.8624573,8.7112732-17.7264099
		C356.5426025,343.7674866,357.7923279,342.3839722,358.8291931,340.9205017z"/>
	<path class="st2" d="M149.8243561,339.4004822c0.8248901,9.3990784,1.244873,18.8562927,2.5856171,28.1811829
		c1.4129639,9.8272705,3.4980011,14.6755981,11.0610504,13.3579712c2.0529327-0.357605,4.6418915-1.6147156,5.6612701-3.2727051
		c5.8640137-9.5375671,11.3301697-19.3196716,16.8773193-28.9255676
		c5.9464111,5.5731812,46.0310211,80.3194885,45.6070251,85.6352539c-8.5415192,2.1994019-17.036499,3.9783325-25.9913177,1.1144409
		c-3.2250519-1.0314941-7.0470581-0.0329285-10.44664-0.7119751c-11.5181122-2.3002319-23.2298584-4.1199036-34.3714752-7.6770325
		c-10.8905945-3.4770203-21.2823181-8.6273193-31.6619568-13.5321045c-3.4650497-1.6373596-6.7842484-4.3700867-9.0241394-7.4386292
		c-0.9371643-1.2839661,0.869278-4.8442383,1.8431702-7.197876c2.875946-6.9500427,6.0156937-13.7904358,8.9454956-20.7189026
		c3.1017609-7.3349915,6.1634064-14.6893921,9.0839386-22.0978394c1.8727875-4.7505798,3.365799-9.6507568,5.2365417-14.4020996
		c0.4877319-1.238739,1.7520142-2.1717529,2.6595917-3.2452087
		C148.5346985,338.7797546,149.1795349,339.0901184,149.8243561,339.4004822z"/>
	<path class="st2" d="M445.2773743,399.8577576c-1.6056213-3.1872559-3.2154541-6.3722839-4.8161011-9.5620117
		c-3.4681396-6.9116516-6.5614929-14.0438538-10.4811401-20.6889038
		c-6.3105774-10.6985474-14.4343262-20.5300903-19.2870789-31.8059082
		c-2.6717834-6.208252-6.745575-14.2607727-1.6947327-21.9781799c0.4964294-0.7585449,0.4414978-1.8742981,0.6570129-2.8209534
		c0.768219-3.3742981,0.4140625-8.2531738,2.5273438-9.8368835c6.2128296-4.6557312,12.8309326-9.4836121,21.4241028-8.7816772
		c7.1243591,0.5820007,10.7397766,4.2597046,11.1394043,11.1530457c0.8514099,14.6896362,2.1053772,29.3669128,2.5164185,44.0681458
		c0.4354248,15.5774536,0.094696,31.1768494,0.0559692,46.766571c-0.0027161,1.0661011-0.3149414,2.1313171-0.4832458,3.1969604
		C446.3160095,399.6645203,445.7966919,399.7611389,445.2773743,399.8577576z"/>
	<path class="st2" d="M138.2413177,282.6899719c-6.061615,0-11.2098694-0.2440186-16.3239212,0.0698853
		c-4.9308929,0.3026733-7.1583862-1.4465027-7.1676025-6.5532227c-0.0366974-20.3401031,0.1968765-40.6971588-0.5728149-61.0136871
		c-0.5152817-13.6003265-2.7934036-27.1247864-3.8191452-40.7182159c-0.6138992-8.135498-0.1267014-16.3480072-0.5040283-24.5088348
		c-0.577774-12.496933-1.5163269-24.9769058-2.1959381-37.4698105c-0.1182022-2.1729965,0.2851715-4.3743362,1.6263809-6.5202179
		c0.1960983,1.4239273,0.3479538,2.8556442,0.5965347,4.2703629c0.7835541,4.4595947,1.5831146,8.9165802,2.4135513,13.3676376
		c1.5326233,8.215004,3.4994583,16.3732986,4.5508194,24.6485367c1.9180603,15.0976105,2.9753494,30.3069611,4.9999924,45.3879852
		c1.9094162,14.2226562,4.6365738,28.334549,6.9383926,42.5058594c1.6832275,10.3630371,3.1467896,20.7631836,4.9561157,31.1034546
		c0.5162506,2.9501953,1.9916687,5.7211609,2.8549347,8.6255188
		C137.3299408,278.3591003,137.817749,280.9066162,138.2413177,282.6899719z"/>
	<path class="st2" d="M430.2672729,167.1375427c0.1800842,1.7064514,0.3423767,3.4149933,0.5431213,5.1190186
		c1.4250183,12.0974579,2.9430542,24.1847687,4.260376,36.2939606c0.9627686,8.8490906,1.5575256,17.7380829,2.5071411,26.5887756
		c1.5449524,14.3998871,3.2747192,28.7798309,4.8640442,43.1751251c0.4940186,4.4753723,0.2009583,6.6578064-5.9342041,5.022522
		c-5.2902527-1.4101562-11.5458679-0.3615112-17.1174622,0.8164368c-4.3935242,0.9289246-5.4605408-0.1482849-4.8208923-4.0281372
		c1.6851807-10.2204285,3.5596313-20.4098816,5.2185669-30.6343994c1.3574524-8.3664703,2.9148254-16.7297516,3.6684875-25.1583862
		c1.2761841-14.2714386,1.8418579-28.605423,3.018158-42.8874054c0.3980408-4.8325958,1.7406006-9.5874329,2.6515503-14.3777924
		C429.5065613,167.0906982,429.8868713,167.1141357,430.2672729,167.1375427z"/>
	<path class="st2" d="M119.4243851,368.0918274c-0.7149124-12.2994995-1.5645676-24.5931091-2.1026459-36.9003296
		c-0.4425735-10.1218872-0.7146988-20.2605286-0.6872635-30.3907166c0.0211182-7.7817078,6.7715988-10.9668884,13.966507-7.5327148
		c7.8619995,3.7525635,9.2587433,15.2854614,8.7456818,21.8966064c-0.0577087,0.7433472-0.7653351,1.4600525-0.7523651,2.1816101
		c0.2725677,15.2026367-9.6459961,26.9032898-13.8972855,40.5450439c-1.089592,3.4963074-2.3756714,6.931366-3.5714569,10.3945312
		C120.5584946,368.2211914,119.9914398,368.1565247,119.4243851,368.0918274z"/>
	<path class="st2" d="M259.9042358,61.4719429c-0.7991333-5.0830383-2.2723694-9.9744835-2.0827942-14.8006516
		c0.129364-3.293644,0.6470947-8.0691795,6.1609497-7.9958229c5.277771,0.0702133,6.619812,4.2340622,7.3872986,8.0757904
		C272.4565735,52.1918602,268.0330811,57.6631546,259.9042358,61.4719429z"/>
	<path class="st2" d="M110.6048126,52.0172424c-1.7768555,5.7283821-3.5996857,11.6049767-5.5228958,17.8052292
		c-5.2809525-4.1176147-8.0945816-10.6271553-6.4078827-14.039463
		C100.8972778,51.2852859,104.284111,49.3661537,110.6048126,52.0172424z"/>
	<path class="st2" d="M416.981842,51.4015198c7.23703-1.7447281,8.9216919-0.6003609,9.0953369,6.0794792
		c0.0984802,3.7882385,0.0177307,7.5811577,0.0177307,12.6951027
		C418.8804626,64.843338,415.8200684,59.3149452,416.981842,51.4015198z"/>
</g>
<g id="Laag_3" class="st0">
	<path class="st3" d="M176.8520203,288.5509644L202.5625,98.066391c0,0-11.6677094-2.3262405-12.8552399-15.3287964
		c-1.1875153-13.0025558,19.3076324-17.9050369,23.1028137-12.0731354c3.7951813,5.8319092,12.4677277,10.9531555,0,27.4019318
		l31.9235992,131.3535461c0,0,87.0262756,65.7041473,102.758667,19.1056671
		c15.7324219-46.5984802,27.0539856-160.843399,27.0539856-160.843399s-10.2923279-2.0584641-11.3215637-13.3800354
		s6.1753845-15.9531174,13.8946533-14.9238853c7.7192383,1.0292358,14.4092712,6.4585228,14.4092712,9.6619759
		c0,3.2034454,3.0799255,13.4976807-7.2174683,18.6419449l30.960022,183.787674l23.6006775,71.3779297l-25.2147217,58.7506104
		l-232.6067657-10.6108093l-28.3039246-64.008606L176.8520203,288.5509644z"/>
	<path class="st1" d="M136.5346222,462.5168457l-9.085495-381.4664307c0,0-26.6629639-17.2416954,3.3231354-32.6012764
		s29.428833,31.7131081,8.6135712,32.6012764l49.7937622,275.7749023c0,0,19.483963-17.8847961,50.3884735-111.3820801
		s41.2987823-165.3987274,41.2987823-165.3987274s-11.496521-9.7240448-11.6245117-25.2309303
		s5.0413208-19.1850739,18.2215881-19.7884293c13.1802368-0.6033554,16.9625854,11.7207069,17.2918396,22.21175
		c0.3292236,10.4910431-3.8895569,21.5930939-10.4397583,22.4812622l59.1739197,187.8466797
		c0,0,26.1383972,72.3000183,49.928009,103.6504517l34.0414124-286.4579773c0,0-12.9143982-6.8154984-13.5814514-23.2465324
		c-0.6670837-16.4310341,6.0966797-15.3606033,14.2609253-15.2296944
		c8.1642456,0.1309052,15.5932312,8.9975052,14.6633911,17.8592148s-1.170166,18.6864166-4.7228088,20.9068222
		l28.5058594,380.2171631c0,0,6.738739,37.4769287-123.0142822,45.3418884
		C223.8179932,518.4711304,148.2815247,494.0466614,136.5346222,462.5168457z"/>
	<path class="st4" d="M294.9988403,501.9744873l74.7869568-171.1167908L358.875,298.9782104
		c0,0-45.8496704-50.9941864-67.3462524,14.2004089c0,0-24.2543335-63.0909271-64.0591888-13.9171448l-14.6594849,36.9527588
		L294.9988403,501.9744873z"/>
	<path class="st5" d="M291.2979431,291.4485779c0,0,19.7833252-40.0137482,61.7123413-8.7477722L289.0765381,98.066391
		L240.170929,273.5479431C240.170929,273.5479431,278.0126648,259.3878174,291.2979431,291.4485779z"/>
	<path class="st6" d="M460.6309814,394.9390259l-41.9603271-66.778595l3.2849426-36.711853
		c0,0,23.987915-35.3736267,34.6081543,6.5229492L460.6309814,394.9390259z"/>
	<path class="st5" d="M456.4082947,278.3963623c0,0-10.1589661-20.0666199-34.4526978,1.6044006l21.0537109-169.6478119
		L456.4082947,278.3963623z"/>
	
		<linearGradient id="SVGID_1_" gradientUnits="userSpaceOnUse" x1="303.967926" y1="457.6145325" x2="464.6545105" y2="457.6145325">
		<stop  offset="0.4824705" style="stop-color:#CC0B10"/>
		<stop  offset="1" style="stop-color:#A8151C"/>
	</linearGradient>
	<path class="st7" d="M303.967926,502.7325134l26.4659729-58.6031799c0,0,108.5969238,9.0432129,129.9154663-31.632782
		l4.304718,51.4822388C464.6540833,463.9787903,466.0718994,497.533844,303.967926,502.7325134z"/>
	<path class="st5" d="M334.8108521,434.0609741c0,0,99.3735046,10.0048828,122.7329102-29.6690369l-41.527832-60.0670471
		l-8.1572571,41.527832c0,0-19.9130859-9.2575073-34.7991028-43.0049133L334.8108521,434.0609741z"/>
	<linearGradient id="SVGID_2_" gradientUnits="userSpaceOnUse" x1="142.2377167" y1="454.861145" x2="283.4713745" y2="454.861145">
		<stop  offset="0" style="stop-color:#A8151C"/>
		<stop  offset="0.3027635" style="stop-color:#CC0B10"/>
	</linearGradient>
	<path class="st8" d="M283.4713745,502.7325134l-27.5809937-56.7489624c0,0-101.2887726,3.8042908-113.6526642-38.9938049
		l1.9021454,50.6247864C144.1398621,457.6145325,146.5175323,495.7598877,283.4713745,502.7325134z"/>
	<path class="st6" d="M142.2377167,384.8486633l32.0134125-60.7846069l-6.4360199-37.901001
		c0,0-24.1298218-22.9050293-29.3196259,8.9389343L142.2377167,384.8486633z"/>
	<path class="st5" d="M142.2377167,397.8252258c0,0,16.5414734,44.698822,109.075882,38.6867065l-42.8690491-92.5343933
		c0,0-10.194458,21.9573059-18.29776,25.8782654c0,0-11.5014496-0.7842102-14.3768158-36.334137L142.2377167,397.8252258z"/>
	<path class="st5" d="M164.6242218,273.5479431l-29.1218719-166.9759827l2.9931335,171.619873
		C138.4954834,278.1918335,140.0747223,266.3240051,164.6242218,273.5479431z"/>
	<radialGradient id="SVGID_3_" cx="135.5882721" cy="63.9806862" r="10.3705244" gradientUnits="userSpaceOnUse">
		<stop  offset="0.0964125" style="stop-color:#CC0B10"/>
		<stop  offset="0.3889233" style="stop-color:#C80D11"/>
		<stop  offset="0.6595569" style="stop-color:#BC1115"/>
		<stop  offset="0.9208053" style="stop-color:#A81419"/>
		<stop  offset="1" style="stop-color:#A0151A"/>
	</radialGradient>
	<path class="st9" d="M130.1747284,74.0760498c0,0,16.0183563,1.2238235,16.0183563-10.7084351
		s-10.6789093-10.7084389-16.0183563-6.7310181S121.8318405,68.8748093,130.1747284,74.0760498z"/>
	<radialGradient id="SVGID_4_" cx="286.8991394" cy="57.060524" r="14.2658978" gradientUnits="userSpaceOnUse">
		<stop  offset="0.0964125" style="stop-color:#CC0B10"/>
		<stop  offset="0.3889233" style="stop-color:#C80D11"/>
		<stop  offset="0.6595569" style="stop-color:#BC1115"/>
		<stop  offset="0.9208053" style="stop-color:#A81419"/>
		<stop  offset="1" style="stop-color:#A0151A"/>
	</radialGradient>
	<path class="st10" d="M286.5253296,73.1362457c0,0,14.2608032,1.0645447,12.3733521-15.2968559
		c-1.8874207-16.3614006-9.3773804-19.0740852-16.1183472-15.4571724S267.0514221,65.008461,286.5253296,73.1362457z"/>
	<radialGradient id="SVGID_5_" cx="438.6341553" cy="63.7239914" r="9.9396496" gradientUnits="userSpaceOnUse">
		<stop  offset="0.0964125" style="stop-color:#CC0B10"/>
		<stop  offset="0.3889233" style="stop-color:#C80D11"/>
		<stop  offset="0.6595569" style="stop-color:#BC1115"/>
		<stop  offset="0.9208053" style="stop-color:#A81419"/>
		<stop  offset="1" style="stop-color:#A0151A"/>
	</radialGradient>
	<path class="st11" d="M439.5146484,75.2040634c0,0,7.2312927-0.826828,7.2312927-8.6816864
		s-4.0872498-15.7097168-11.0041809-14.0560608C428.8248596,54.1199684,427.5672302,74.3772354,439.5146484,75.2040634z"/>
</g>
<g id="Laag_4" class="st0">
	<path d="M127.761528,468.4983521l-9.0854874-381.4664307c0,0-26.6629639-17.2416992,3.3231277-32.6012764
		s29.4288406,31.7131081,8.6135788,32.6012764l49.7937622,275.7749023c0,0,19.483963-17.8847961,50.3884583-111.3820953
		s41.2988129-165.3987122,41.2988129-165.3987122s-11.4965515-9.7240448-11.6245422-25.2309303
		c-0.1279602-15.5068817,5.0413208-19.18507,18.2215881-19.7884254s16.9625854,11.7207031,17.2918396,22.21175
		s-3.8895569,21.5930901-10.4397583,22.4812584l59.1739502,187.8466644c0,0,26.1383972,72.3000488,49.928009,103.6504822
		l34.0414124-286.4579773c0,0-12.9143982-6.8154984-13.5814819-23.2465363s6.0966797-15.3605995,14.2609253-15.2296906
		c8.1642456,0.1309052,15.5932312,8.9975052,14.6633911,17.8592148s-1.1701355,18.6864166-4.7228088,20.9068222
		l28.5058899,380.2171631c0,0,6.7387085,37.4769287-123.0142822,45.3418579
		C215.0449066,524.4526978,139.5084381,500.0281677,127.761528,468.4983521z"/>
	<path class="st12" d="M168.0789337,294.5325012l25.7104797-190.4845886c0,0-11.6677246-2.3262405-12.8552399-15.3287964
		s19.3076324-17.9050369,23.1028137-12.0731277c3.7951813,5.8319016,12.4677277,10.9531479,0,27.4019241l31.9235992,131.3535461
		c0,0,87.0262604,65.7041626,102.7586823,19.1056824c15.7323914-46.5984955,27.0539551-160.8434143,27.0539551-160.8434143
		s-10.2923279-2.0584641-11.3215637-13.3800354s6.175415-15.9531174,13.8946533-14.9238815
		c7.7192688,1.0292282,14.4092712,6.4585266,14.4092712,9.661972s3.0799561,13.4976807-7.2174377,18.6419449l30.960022,183.7876892
		l23.600647,71.3779297l-25.2147217,58.7506104l-232.6067505-10.6108093l-28.3039246-64.0086365L168.0789337,294.5325012z"/>
	<g>
		<g class="st1">
			<radialGradient id="SVGID_6_" cx="297.2420044" cy="283.4649658" r="215.8165436" gradientUnits="userSpaceOnUse">
				<stop  offset="0.0964125" style="stop-color:#CC0B10"/>
				<stop  offset="0.3889233" style="stop-color:#C80D11"/>
				<stop  offset="0.6595569" style="stop-color:#BC1115"/>
				<stop  offset="0.9208053" style="stop-color:#A81419"/>
				<stop  offset="1" style="stop-color:#A0151A"/>
			</radialGradient>
			<path class="st13" d="M294.6722107,47.9029274c0.5600586,0,0.8843689,0.0300636,0.8843689,0.0300636
				c8.3167725,0,19.8924255,3.1343575,20.4562073,18.2411423c0.5637207,15.1068573-14.5146484,20.9077835-14.5146484,20.9077835
				c18.788208,69.8603592,33.5396423,127.6930771,43.9077148,170.5784302
				c22.2860718,92.1819458,60.5445862,119.5610046,60.5445862,119.5610046
				c13.9134216-36.646698,20.0661316-68.9735718,30.0221252-119.806366
				c15.9202271-81.2840576,22.6048584-169.7156982,22.6048584-169.7156982
				c-9.2347107-1.0751419-9.6765747-9.6765747-9.6765747-13.9772873c0-4.3006439-2.1503296-13.4396439,8.6014404-13.4396439
				c10.751709,0,22.5786438,0.537571,22.5786438,13.4396439c0,12.9021454-12.2687073,15.0524979-12.2687073,15.0524979v383.425293
				c0,0,2.0545654,46.6444092-169.4359436,46.8267822c-0.3035278,0.0003052-0.6368408,0.0004883-0.9393005,0.0004883
				c-170.5783386,0-169.6754761-49.5747681-169.6754761-49.5747681V87.9858475c0,0-13.358429-2.3829956-13.358429-21.8117142
				c0-12.0456619,8.3160324-14.3351822,14.6351929-14.3351822c3.8731232,0,6.995163,0.8593979,6.995163,0.8593979
				s0.258316-0.0231171,0.7026825-0.0231209c2.7418518-0.0000267,12.5716095,0.8798409,12.5716095,13.4989052
				c0,14.6642838-11.6532135,19.3743591-11.6532135,19.3743591s5.6004944,91.9465027,17.488205,172.6245728
				c8.5315704,57.9007263,20.3014374,109.9974976,35.5635071,118.137207
				c19.9319916-23.2539368,42.5084229-70.1103516,56.1537781-118.6499329
				c23.0315704-81.9284973,42.7935638-170.328064,42.7935638-170.328064s-11.1976929-1.3330688-11.1976929-21.1581421
				C278.4558716,49.0813026,291.168335,47.9029274,294.6722107,47.9029274 M294.6722107,42.9029198
				c-9.7872009,0-21.2163391,6.0946426-21.2163391,23.2712135c0,14.9991608,5.8521118,21.4247589,10.3940125,24.1528015
				c-4.1680298,18.3244019-21.8582458,95.03125-41.8033142,165.9802856
				c-12.4432831,44.2635498-33.0242767,88.7616272-52.0623016,112.9974365
				c-3.625061-4.0959778-8.8498383-13.4628601-14.7664795-34.7420349
				c-5.3150635-19.1155701-10.4049988-45.0619202-15.1284943-77.1184082
				c-10.5033417-71.2830048-16.1453552-152.3540955-17.2444153-169.0887146
				c4.364624-2.9026642,11.4628448-9.5632095,11.4628448-22.1813736c0-13.6541405-9.4657135-18.4989281-17.571579-18.4989281
				c-0.0664215,0-0.1304474,0.0003662-0.1919098,0.0010376c-1.3489532-0.3062401-4.1693573-0.8373222-7.5059509-0.8373222
				c-12.2949219,0-19.6352081,7.2281418-19.6352081,19.3352127c0,11.8691406,4.5260696,18.4592896,8.3229294,21.897789
				c1.7517548,1.5863647,3.5220337,2.6697998,5.0354996,3.4021454v377.9782104
				c-0.0012054,1.2618103,0.3778839,9.2536316,9.6313629,18.6772156
				c16.08078,16.3762817,57.7678528,35.8975525,165.0441437,35.8975525l0.9451294-0.0004883
				c109.7088013-0.1166382,150.8889465-19.1297607,166.1159973-35.0592651
				c7.940979-8.3072205,8.3259888-15.3397827,8.3140869-16.7885132V92.4325104
				c5.602417-2.4012299,12.2687073-8.0487442,12.2687073-18.7105179c0-7.8343582-3.5877991-13.43293-10.3755798-16.1904297
				c-5.1089783-2.075573-11.2999268-2.2492142-17.203064-2.2492142c-4.5048523,0-8.0107727,1.2937126-10.4202881,3.8450699
				c-3.7643433,3.9860725-3.4549866,9.3897858-3.2502136,12.9654999c0.0354919,0.6206436,0.0690613,1.2067871,0.0690613,1.6290741
				c0,10.85112,4.4147034,15.7109299,9.3540649,17.7510986c-1.5429077,18.4184494-8.4498291,94.8319168-22.1891174,164.980896
				l-0.7523499,3.8426514c-8.799469,44.9483948-14.8079224,75.6376953-26.5120239,108.3055725
				c-3.8416748-3.8374023-9.5576477-10.2831421-16.0417786-20.0181274
				c-10.9050598-16.3724976-26.262146-45.6410217-37.4937744-92.0986633
				c-7.8634338-32.5255127-21.6506042-87.6983337-42.8936768-166.8110962
				c5.3909912-3.2608719,14.1257324-10.5931549,13.637085-23.6865997
				c-0.5365601-14.3788719-9.9790039-22.9862442-25.2702942-23.0543137
				C295.50177,42.9187431,295.1377869,42.9029198,294.6722107,42.9029198L294.6722107,42.9029198z"/>
		</g>
		<radialGradient id="SVGID_7_" cx="385.7454834" cy="164.6100769" r="76.3431244" gradientUnits="userSpaceOnUse">
			<stop  offset="0.0964125" style="stop-color:#CC0B10"/>
			<stop  offset="0.3889233" style="stop-color:#C80D11"/>
			<stop  offset="0.6595569" style="stop-color:#BC1115"/>
			<stop  offset="0.9208053" style="stop-color:#A81419"/>
			<stop  offset="1" style="stop-color:#A0151A"/>
		</radialGradient>
		<path class="st14" d="M435.9725647,257.414978c-27.6904907-24.1468658-59.5451355-157.5182495-59.5451355-157.5182495
			s8.6303101-2.4831161,8.9682007-13.3619537c0.2838135-9.1383514-4.0171204-14.1188736-13.47229-14.1138
			c-16.0345764,0.0085983-15.717926,14.8999252-15.717926,14.8999252s3.290802,12.2251587,8.8628235,14.059494
			c0,0-15.3191833,87.647049-28.9015808,118.7756042"/>
		<radialGradient id="SVGID_8_" cx="202.4795685" cy="166.995285" r="74.3268509" gradientUnits="userSpaceOnUse">
			<stop  offset="0.0964125" style="stop-color:#CC0B10"/>
			<stop  offset="0.3889233" style="stop-color:#C80D11"/>
			<stop  offset="0.6595569" style="stop-color:#BC1115"/>
			<stop  offset="0.9208053" style="stop-color:#A81419"/>
			<stop  offset="1" style="stop-color:#A0151A"/>
		</radialGradient>
		<path class="st15" d="M249.7783966,247.1798859c-21.9886322-23.3220978-45.7414093-142.1780396-45.7414093-142.1780396
			s8.8724976-3.585083,8.8724976-12.2895279s-2.6798553-12.6842041-8.8724976-15.1124039
			s-24.9027252-1.4114685-23.1028137,12.0731354s12.8552399,15.3287964,12.8552399,15.3287964
			s-22.7158508,136.9992371-38.646698,153.1712036"/>
	</g>
</g>
<g id="Laag_5">
	<g>
		
			<linearGradient id="SVGID_9_" gradientUnits="userSpaceOnUse" x1="66.9327774" y1="282.5114746" x2="498.6749573" y2="282.5114746">
			<stop  offset="0" style="stop-color:#DDCA00"/>
			<stop  offset="0.5" style="stop-color:#FFF03E"/>
			<stop  offset="1" style="stop-color:#DDCA00"/>
		</linearGradient>
		<path class="st16" d="M283.030426,559.9101562c-124.0043793,0-171.8823242-22.2363281-190.2109375-40.890625
			c-10.3344727-10.5175781-10.3037109-19.1455078-10.2973633-19.5078125l-0.0004883-443.284668
			c-4.6577148-1.7514648-15.5888672-7.9267578-15.5888672-27.2919922c0-12.8779297,8.0390625-20.2636719,22.0551758-20.2636719
			c3.4111328,0,6.078125,0.4550781,6.8295898,0.5976562c2.2734375,0.1352539,16.8486328,1.7089844,16.8486328,19.6660156
			c0,15.0576172-9.5463867,21.9145508-13.4995117,24.1083984c0.8720703,13.5883789,7.2021484,108.2607422,19.3774414,193.3598633
			c8.5205078-15.6152344,18.365242-56.605957,25.5039139-90.3613281
			c7.6450195-36.1494141,13.6582031-70.96875,15.1850586-79.9697266
			c-5.3647461-1.8793945-13.0454102-7.4580078-14.637207-19.3837891c-0.6074219-4.5512695,0.4526367-8.4223633,3.1518555-11.5058594
			c5.2333984-5.9785156,14.5268555-6.6235352,18.2792969-6.6235352c3.4282227,0,6.6791992,0.5039062,8.9199219,1.3823242
			c8.4819336,3.3256836,11.9414062,9.109375,11.9414062,19.9633789c0,8.9316406-6.6503906,13.815918-10.0214844,15.7182617
			c3.2734375,15.8964844,26.9628906,128.105957,49.4199219,159.2167969
			c22.3676758-81.5532227,41.3867035-164.7998047,44.7094574-179.4858398
			c-4.3847656-1.7817383-12.6157227-7.6289062-12.6157227-26.4189453c0-22.6738281,17.847168-23.8222656,21.4243164-23.8222656
			c0.5507812,0,0.9423828,0.0219727,1.1328125,0.0351562c7.7167969,0.0205078,25.4746094,2.4013672,26.2695312,23.6938477
			c0.5742188,15.3676758-11.5341797,23.2768555-16.4814453,25.8564453
			c13.234375,49.300293,32.0361328,122.5029297,38.0205078,145.8706055
			c13.6337891-37.1386719,28.0820312-116.0917969,30.4208984-129.1425781
			c-6.2646484-4.0136719-9.578125-15.7167969-9.9677734-17.1630859l-0.0791016-0.293457l-0.0058594-0.3032227
			c-0.0078125-0.3427734-0.1132812-8.4619141,5.5869141-14.2880859c3.6669922-3.7480469,8.7988281-5.6499023,15.2539062-5.6533203
			c6.03125,0,10.6552734,1.625,13.7626953,4.8300781c3.1503906,3.25,4.6503906,8.0336914,4.4589844,14.2182617
			c-0.2988281,9.6132812-5.8339844,14.8642578-10.0273438,17.0097656
			c4.3896484,17.8681641,36.4023438,145.140625,64.9902344,177.2407227
			c16.2304688-84.6870117,24.0253906-175.5898438,25.2695312-190.9130859
			c-7.3828125-1.8349609-11.1210938-8.0014648-11.1210938-18.3676758c0-7.8735352,4.7753906-19.5878906,17.9316406-19.5878906
			c11.8681641,0,23.4550781,1.512207,23.4550781,19.5878906c0,12.0532227-8.4550781,17.7119141-14.3173828,19.5229492v445.4770508
			c0.0126953,0.9384766-0.1787109,8.2861328-8.7783203,17.2822266
			c-17.3212891,18.1201172-64.5957031,39.7490234-191.4492188,39.8837891L283.030426,559.9101562z"/>
		<path d="M279.8048096,7.6127572c0.6530762,0.0000095,1.0320435,0.0350862,1.0320435,0.0350862
			c9.7055664,0,23.2141724,3.6577501,23.8720703,21.2872505c0.6579285,17.6295013-16.938324,24.3990822-16.938324,24.3990822
			c16.0218201,59.5744171,40.4577332,155.295929,40.4577332,155.295929
			C344.0787659,172.303421,361.9561768,70.02034,361.9561768,70.02034
			c-6.5025024-2.1406631-10.3428345-16.4072456-10.3428345-16.4072456s-0.3695679-17.3780022,18.3425903-17.3880005
			c0.006073-0.0000038,0.0107727-0.0000038,0.0168152-0.0000038c11.0214233,0.000473,16.0362549,5.8121109,15.7052612,16.4705887
			c-0.3943176,12.6954956-10.4658203,15.5932465-10.4658203,15.5932465s37.1740723,155.6429138,69.4884949,183.8220825
			c18.5786743-94.8575745,26.3796692-198.0563354,26.3796692-198.0563354
			c-10.776825-1.2547493-11.292511-11.2924156-11.292511-16.3113327s2.8852539-17.0882492,15.4324341-17.0882492
			c12.5471497,0,20.9544067,2.0316658,20.9544067,17.0882492s-14.3175049,17.5660019-14.3175049,17.5660019v447.453064
			c0,0,2.3977661,54.4335632-197.7297363,54.6463318c-0.3664551,0.0004272-0.7312012,0.0006104-1.0963135,0.0006104
			c-199.0263367,0-198.0092773-57.8532715-198.0092773-57.8532715V54.3890953c0,0-15.5891724-2.781002-15.5891724-25.4540024
			c0-15.2721691,11.8308563-17.7642345,19.5553513-17.7639256c3.7432632,0.0001507,6.5233154,0.5855932,6.5233154,0.5855932
			s14.6547546,0.0653334,14.6547546,17.1783333S96.5669403,51.5446777,96.5669403,51.5446777
			s6.5355835,107.3005829,20.4084091,201.451004c18.5911789-18.8725891,45.1003494-178.7490845,45.1003494-178.7490845
			s-12.9015045-2.1521683-15.0019226-17.888588c-1.5496063-11.6091957,9.9255676-15.2996674,18.9538269-15.2991753
			c3.2095947,0.0001755,6.1115112,0.4668274,8.0068359,1.2100105c7.2267609,2.8336639,10.3541718,7.4780006,10.3541718,17.6359978
			s-10.3541718,14.3417549-10.3541718,14.3417549s27.7193451,138.7034912,53.3797607,165.920166l0.0003357,0.0002441
			c25.390564-91.9670868,46.5335541-186.5405884,46.5335541-186.5405884s-13.0676575-1.5556679-13.0676575-24.6913338
			C260.8804321,8.9865122,275.717041,7.6126995,279.8048096,7.6127572 M279.8048401,2.6127603c-0.0000916,0-0.0000916,0-0.0000916,0
			c-2.9086609-0.0000834-8.5673218,0.5235-13.7846375,4.0309162c-4.6256714,3.1096668-10.1396637,9.5012493-10.1396637,22.2914162
			c0,17.7294502,7.0892181,24.9053154,12.243515,27.7793999c-4.2019043,18.4943619-21.8875885,95.3534088-42.7745056,172.0737762
			c-7.0137329-11.9031067-16.8213806-35.7664032-29.4160156-83.074173
			c-8.1221466-30.5081558-14.2341919-59.1086349-16.2665253-68.8910599
			c3.9935608-2.6548843,9.7216949-8.0148926,9.7216949-16.9181938c0-11.9061661-4.0460052-18.5726662-13.5289154-22.2909164
			c-2.5570068-1.0026665-6.0486603-1.5549164-9.8318329-1.5550842c-4.0935059-0.000248-14.2525024,0.7278366-20.1608276,7.4768333
			c-3.1500092,3.5981674-4.4465027,8.2608337-3.7493439,13.4838333
			c1.5628815,11.7087326,8.5506134,17.8951569,14.3166962,20.5934906
			c-1.9400024,11.335228-7.6707764,44.0500946-14.835434,77.9271011
			c-9.6992035,45.8608246-16.8343735,69.7089386-21.7669754,82.0495453
			c-11.0200653-80.0407715-16.9384918-165.8456726-18.07267-183.1968079
			c4.8862839-3.1278915,13.4067917-10.6987839,13.4067917-25.4577484c0-11.2034168-5.324913-16.6879158-9.7919922-19.3159981
			c-3.9327545-2.3137989-7.8261948-2.7581263-9.28508-2.8426561c-1.0496826-0.1908374-3.7181931-0.605125-7.1007538-0.6052608
			C82.8443527,6.170927,77.6678543,7.5010934,73.602356,10.1248436c-4.1831665,2.6997499-9.1696701,8.1546669-9.1696701,18.8102493
			c0,17.4557304,8.7027283,25.911705,15.5891724,29.0478706v441.5513306
			c-0.0073395,1.2974548,0.3454056,10.3793335,11.0141602,21.2373047
			c18.6640015,18.9949341,67.1236801,41.6377563,191.9951782,41.6377563l1.1018982-0.0006104
			c127.7346802-0.1358032,175.5956726-22.1837158,193.2530823-40.6557617
			c9.1376343-9.5591431,9.4925232-17.5292664,9.4710083-19.0370789V59.0230942
			c6.4010315-2.571991,14.3174744-8.9447937,14.3174744-21.2797508c0-8.8435001-2.6310425-14.8557491-8.0435486-18.380249
			c-5.0043335-3.2588348-11.5657654-3.7080011-17.9108276-3.7080011c-7.0933533,0-13.0082703,3.1970835-16.6552734,9.0022497
			c-2.7849121,4.4329166-3.7771606,9.6664181-3.7771606,13.0860004c0,12.5941772,5.2462769,18.0028954,10.9657593,20.1559181
			c-1.6251526,19.5280075-9.123291,103.4346771-24.0583191,183.3141632
			c-8.9819336-12.3139648-21.9279175-38.4698029-39.0866699-93.079422
			c-10.7302246-34.1500092-18.9112549-66.3325729-21.5926208-77.1622314
			c4.0132751-2.5755615,9.3422241-7.9026146,9.6596069-18.1208458c0.2138367-6.8859978-1.5230103-12.2809982-5.162262-16.0351639
			c-3.5958252-3.7094193-8.8243103-5.5903339-15.5403137-5.5906677c-7.1711731,0.0038338-12.9037476,2.1586647-17.0582581,6.4047508
			c-6.3187561,6.4580002-6.3208313,15.1228333-6.3002625,16.0895805l0.0128479,0.6070023l0.1578369,0.5863342
			c0.6317139,2.3468246,3.6656494,12.5901985,9.6480713,17.5885735
			c-2.8118591,15.5564194-15.0815735,81.5946274-27.3355713,119.3702164
			c-7.3798218-28.7621307-23.5255432-91.4386597-35.4427795-135.9029541
			c6.0628357-3.5297279,16.6220093-11.906456,16.0505371-27.2200031
			c-0.6077576-16.2855606-11.3248596-26.0315742-28.6825562-26.1003742
			C280.7624207,2.6316297,280.3470764,2.6127639,279.8048401,2.6127603L279.8048401,2.6127603L279.8048401,2.6127603z"/>
	</g>
	<linearGradient id="SVGID_10_" gradientUnits="userSpaceOnUse" x1="85.0000076" y1="489.7640686" x2="481.85849" y2="489.7640686">
		<stop  offset="0" style="stop-color:#A8151C"/>
		<stop  offset="0.3027635" style="stop-color:#CC0B10"/>
		<stop  offset="0.7149798" style="stop-color:#CC0B10"/>
		<stop  offset="1" style="stop-color:#AA151D"/>
	</linearGradient>
	<path class="st17" d="M85.0218887,499.5561218c0,0-1.0218964,58.0654602,199.1055603,57.8526306
		c200.1274719-0.2127686,197.7297363-54.6463318,197.7297363-54.6463318v-80.6436462
		c-7.8571167,11.1012573-27.4057312,41.1399841-215.1311035,41.1399841S85.0218887,422.1187744,85.0218887,422.1187744V499.5561218z
		"/>
	<path class="st18" d="M284.1274414,557.4087524l84.5224609-221.4963074l-11.8303528-45.8288574l-8.5635681-4.6535645
		c0,0-25.9566956-40.8590088-64.12854,13.2114868c0,0-35.305069-53.2666779-69.6086273-16.1304321l-22.633667,30.1342773v24.4169922
		L284.1274414,557.4087524z"/>
	
		<linearGradient id="SVGID_11_" gradientUnits="userSpaceOnUse" x1="422.1247559" y1="374.5484619" x2="481.8571777" y2="374.5484619">
		<stop  offset="0" style="stop-color:#E30613"/>
		<stop  offset="0.3285355" style="stop-color:#D30A11"/>
		<stop  offset="0.7466187" style="stop-color:#C10D0E"/>
		<stop  offset="1" style="stop-color:#BB0E0C"/>
	</linearGradient>
	<path class="st19" d="M428.4357605,330.2139893l53.4214172,151.2557373v-188.468689
		c0,0-14.9380798-52.0454712-43.8278503-7.0591736S428.4357605,330.2139893,428.4357605,330.2139893z"/>
	
		<linearGradient id="SVGID_12_" gradientUnits="userSpaceOnUse" x1="85.0000076" y1="367.3561096" x2="135.8322906" y2="367.3561096">
		<stop  offset="0" style="stop-color:#BB0E0C"/>
		<stop  offset="0.2533813" style="stop-color:#C10D0E"/>
		<stop  offset="0.6714648" style="stop-color:#D30A11"/>
		<stop  offset="1" style="stop-color:#E30613"/>
	</linearGradient>
	<path class="st20" d="M131.6952209,331.8770142L85.0000076,471.355835V282.5110779c0,0,9.4998093-37.7210693,35.4361954-7.294342
		C146.3725891,305.6434326,131.6952209,331.8770142,131.6952209,331.8770142z"/>
	<g>
		<g>
			<polygon class="st21" points="328.2279968,208.6310577 328.2282104,208.6304169 328.2281494,208.6291962 			"/>
		</g>
		<g>
			<path class="st21" d="M375.2119141,68.2899017c0,0,10.0714722-2.8978119,10.4657898-15.5933037
				c0.3312073-10.664299-4.6879883-16.4765205-15.7220154-16.4706078
				c-18.7122192,0.0100441-18.3426208,17.3880196-18.3426208,17.3880196s3.8403015,14.2666206,10.3427734,16.4072838
				c0,0-17.8771362,102.2814713-33.727478,138.6088257c3.9536743,15.7902527,7.5501709,30.401474,10.7817383,43.7681274
				c26.0075989,107.5752258,70.6548157,139.5263062,70.6548157,139.5263062
				c16.2367859-42.7662354,23.4169312-80.4913635,35.0355225-139.8126373
				C412.3859558,223.9327545,375.2119141,68.2899017,375.2119141,68.2899017z"/>
		</g>
	</g>
	<g>
		<path class="st21" d="M116.9743271,252.995285c9.9562225,67.5694733,23.6915359,128.3657684,41.5022507,137.8648224
			c23.2603912-27.1371155,49.6068268-81.8180237,65.530777-138.46315c1.1429901-4.065918,2.2790985-8.1454926,3.4068146-12.2302094
			l-0.0010681-0.0003815c-25.6604767-27.216629-53.379715-165.920166-53.379715-165.920166
			s10.3541107-4.1837463,10.3541107-14.3417358s-3.1273651-14.8023262-10.3541107-17.6360054
			c-7.2267456-2.833683-29.061203-1.6471672-26.9607239,14.0892105s15.0019226,17.8885307,15.0019226,17.8885307
			S135.5654449,234.122757,116.9743271,252.995285z"/>
	</g>
	<radialGradient id="SVGID_13_" cx="89.7993927" cy="32.8456039" r="21.0307255" gradientUnits="userSpaceOnUse">
		<stop  offset="0" style="stop-color:#E30613"/>
		<stop  offset="0.3287441" style="stop-color:#DD0B18"/>
		<stop  offset="0.8377901" style="stop-color:#CC1421"/>
		<stop  offset="1" style="stop-color:#C61624"/>
	</radialGradient>
	<path class="st22" d="M96.5669174,51.5447121c0,0,13.5991516-5.4966164,13.5991516-22.6096249
		S95.511322,11.7567625,95.511322,11.7567625S69.4327164,6.2620721,69.4327164,28.9350872
		s15.5891724,25.4540157,15.5891724,25.4540157S88.8700867,55.4477577,96.5669174,51.5447121z"/>
	<radialGradient id="SVGID_14_" cx="282.8036804" cy="31.0659161" r="22.7010918" gradientUnits="userSpaceOnUse">
		<stop  offset="0" style="stop-color:#E30613"/>
		<stop  offset="0.3287441" style="stop-color:#DD0B18"/>
		<stop  offset="0.8377901" style="stop-color:#CC1421"/>
		<stop  offset="1" style="stop-color:#C61624"/>
	</radialGradient>
	<path class="st23" d="M287.7705994,53.334156c0,0,17.596283-6.7695885,16.9383545-24.3990688
		S290.5424805,7.647871,280.8368225,7.647871c0,0-19.9564209-1.8484206-19.9564209,21.2872162
		S273.9480591,53.6264,273.9480591,53.6264S279.3077698,55.8174248,287.7705994,53.334156z"/>
	<radialGradient id="SVGID_15_" cx="477.9812622" cy="37.9952888" r="17.7719307" gradientUnits="userSpaceOnUse">
		<stop  offset="0" style="stop-color:#E30613"/>
		<stop  offset="0.3287441" style="stop-color:#DD0B18"/>
		<stop  offset="0.8377901" style="stop-color:#CC1421"/>
		<stop  offset="1" style="stop-color:#C61624"/>
	</radialGradient>
	<path class="st24" d="M481.8571777,55.3093605c0,0,14.3174744-2.5094109,14.3174744-17.5660133
		s-8.4072266-17.088295-20.9543762-17.088295c-12.5471802,0-15.432373,12.0694008-15.432373,17.088295
		s0.5155945,15.0566025,11.29245,16.3113441C471.0803528,54.0546913,475.803772,55.5497398,481.8571777,55.3093605z"/>
</g>
</svg>
