<svg xmlns="http://www.w3.org/2000/svg" viewBox="0 0 566.93 566.93"><style>.st0{display:none}.st1{display:inline}.st2{fill:#fff}.st2,.st5,.st6{display:inline}.st5{fill:#ffdf31}.st6{fill:#b62518}</style><g id="Laag_1" class="st0"><path class="st1" d="M387.31 374.885c1.565-2.34 2.943-3.508 3.164-4.865 3.271-20.171 5.6-40.533 9.79-60.506 3.46-16.5 5.289-33.095 7.147-49.765.61-5.463 2.835-10.732 4.123-16.136.936-3.93 1.899-7.905 2.24-11.912 1.117-13.145 1.903-26.317 2.917-39.471.9-11.695 2.088-23.369 2.866-35.07.71-10.674.905-21.382 1.6-32.056.309-4.754 1.75-9.452 1.869-14.195.284-11.359.688-22.782-.299-34.06-.274-3.13-5.201-5.895-8.073-8.747-6.748-6.702-8.106-15.137-7.241-24.006.17-1.742 2.719-3.437 4.445-4.808 5.986-4.754 18.469-2.278 22.39 4.175 4.856 7.992 6.39 15.965 1.953 24.855-1.18 2.363-.024 5.938.2 8.947 1.116 15.055 2.304 30.106 3.417 45.162.86 11.614 1.376 23.26 2.544 34.84 1.022 10.124 2.782 20.172 4.136 30.263.871 6.49 1.807 12.983 2.345 19.504 1.018 12.354 1.514 24.755 2.727 37.087.772 7.853 2.441 15.618 3.714 23.422.03.189.194.367.192.549-.128 12.525 3.785 24.762 1.864 37.529-.946 6.285 1.089 12.966 1.276 19.483.983 34.223 1.713 68.454 2.728 102.677.445 14.993 1.31 29.974 2.09 44.955.213 4.068-1.064 6.933-4.155 9.906-11.674 11.232-25.948 17.545-40.813 22.976-11.612 4.243-23.342 7.124-35.899 7.542-11.513.384-23.17 1.84-34.393 4.43-23.727 5.474-47.718 4.093-71.672 4.371-6.438.075-12.882-.151-19.314.054-22.888.728-45.272-1.893-67.805-6.45-17.624-3.564-33.767-10.15-49.835-17.249-7.816-3.453-14.89-8.93-21.64-14.318-4.061-3.243-5.534-9.247-10.896-11.615-.886-.391-1.858-1.868-1.841-2.826.16-8.892.495-17.783.885-26.669.047-1.059 1.038-2.078 1.076-3.135.938-26.342 2.513-52.687 2.497-79.031-.017-28.42-1.471-56.84-2.419-85.257-.6-18.034-1.467-36.059-2.116-54.091-.202-5.627.345-11.307-.197-16.89-1.186-12.214-3.201-24.353-4.208-36.578-.798-9.692-.286-19.486-.917-29.198-1.001-15.433-2.504-30.832-3.72-46.252-.368-4.663-.082-9.415-.858-13.998-.588-3.473-1.534-7.553-3.812-9.941-5.84-6.124-3.311-13.198-1.9-19.154 1.434-6.048 6.539-10.87 14.161-10.29 4.238.321 8.844-.227 12.63 1.27 9.606 3.8 11.937 13.04 6.673 23.405-5.237 10.313-4.888 20.607-2.305 31.327.63 2.616.558 5.417.68 8.14.417 9.238 1.798 18.211 6.22 26.541.757 1.428.467 3.42.636 5.152 1.075 11.004 2.022 22.022 3.251 33.008 1.022 9.136 4.349 18.53 3.042 27.271-1.405 9.4 3.108 17.027 3.626 25.695.616 10.301 4.001 20.42 5.933 30.666 1.228 6.513 1.673 13.18 3.049 19.656 1.876 8.83 4.357 17.53 6.474 26.312a164.438 164.438 0 0 1 2.409 11.847c1.06 6.444 1.829 12.937 2.922 19.375 1.505 8.859 3.178 17.689 4.846 26.518.131.692.704 1.38 1.243 1.887.369.347 1.036.378 1.274.455 3.892-5.523 8.259-10.564 11.287-16.31 3.746-7.111 6.392-14.803 9.494-22.252 1.732-4.157 3.48-8.31 5.122-12.503 4.552-11.625 8.983-23.297 13.596-34.897 3.218-8.091 6.93-15.994 9.916-24.166 2.55-6.979 4.172-14.292 6.585-21.326 2.36-6.878 5.317-13.55 7.803-20.387 4.494-12.357 9.275-24.637 13.1-37.203 3.203-10.522 6.275-21.039 7.507-32.224 1.168-10.616 6.121-20.76 8.174-31.351 1.828-9.43 2.324-19.177 2.604-28.807.073-2.512-2.438-5.512-4.47-7.601-10.788-11.096-11.022-24.372-6.44-36.896 1.833-5.01 14.777-8.04 20.376-5.86 8.808 3.43 11.891 11.05 13.744 18.988.738 3.164-.965 7.727-3.044 10.563-6.33 8.632-3.155 17.87-2.706 26.939.14 2.837 1.055 5.638 1.627 8.453 2.5 12.316 4.6 24.731 7.637 36.913 2.294 9.2 5.407 18.248 8.828 27.104 6.655 17.227 13.752 34.284 20.72 51.388 7.648 18.768 15.47 37.467 22.992 56.284 3.58 8.955 5.383 18.865 10.23 27.011 7.634 12.834 10.09 27.636 16.959 40.416 5.897 10.973 6.362 24.093 14.826 33.89 2.201 2.548 2.765 6.51 4.597 11.121zM276.716 507.57l1.4.497c1.197-2.88 2.443-5.739 3.581-8.64 5.205-13.261 10.456-26.505 15.541-39.812 4.535-11.866 8.673-23.886 13.364-35.689 3.696-9.298 8.074-18.322 11.96-27.548 8.363-19.856 16.545-39.787 24.922-59.637 3.823-9.06.65-20.686-7.992-25.724-5.138-2.995-10.781-5.347-16.465-7.142-16.176-5.108-31.236-3.926-43.654 9.237-.393.417-.904.726-1.372 1.07-4.785 3.505-11.847 3.817-14.794-.658-5.037-7.647-11.256-13.977-20.398-16.009-7.111-1.58-14.44-5.36-21.765-.392-8.286 5.621-16.707 11.344-19.503 21.646-1.62 5.967-4.318 13.259-2.323 18.286 5.945 14.986 13.84 29.214 21.231 43.607 4.116 8.015 9.033 15.623 13.078 23.671 8 15.918 15.653 32.011 23.427 48.043.915 1.889 1.844 3.796 2.494 5.783 2.658 8.122 5.031 16.34 7.848 24.405 2.937 8.406 6.264 16.677 9.42 25.006zm66.25-209.699c-22.105-64.108-54.25-122.705-71.072-187.642-2.945 6.004-5.864 12.06-7.434 18.447-2.83 11.517-4.148 23.434-7.393 34.815-4.165 14.609-9.39 28.933-14.583 43.226-3.352 9.227-7.664 18.1-11.193 27.267-5.857 15.218-9.838 31.161-18.039 45.475-1.502 2.622-1.937 5.856-3.202 9.883 4.442-1.438 7.623-2.701 10.92-3.476 4.27-1.004 8.846-2.866 12.918-2.171 12.95 2.21 24.957 7.139 34.603 16.46 2.583 2.497 4.277 1.805 6.991.368 5.8-3.07 11.77-5.924 17.91-8.226 13.912-5.217 27.436-.85 40.926 2.408 2.77.67 5.393 1.955 8.648 3.166zm105.576 118.107c-8.978 12.641-22.611 14.27-33.988 19.965-1.36.681-2.822 1.262-4.304 1.583-11.54 2.496-23.315 4.192-34.575 7.599-8.502 2.572-16.826 4.577-25.692 4.338-1.725-.046-3.734-.133-5.15.642-7.978 4.363-15.902 2.471-23.722-.07-5.868-1.906-7.97-1.27-10.366 4.987a3326.22 3326.22 0 0 0-15.886 42.415c-1.205 3.28-1.914 6.74-2.983 10.59 8.583 0 16.355.356 24.081-.088 9.958-.573 19.9-1.608 29.81-2.771 10.485-1.23 20.97-2.573 31.37-4.362 12.64-2.175 25.508-3.855 37.681-7.657 9.922-3.1 19.378-8.347 28.256-13.898 6.098-3.813 11.733-8.776 10.645-18.045-1.513-12.878-1.725-25.906-2.676-38.857-.128-1.752-1.308-3.427-2.5-6.37zm-185.125 93.095l1.544-2.087c-3.71-12.134-7.162-24.355-11.23-36.368-2.358-6.965-5.504-13.692-8.695-20.335-1.592-3.314-3.16-6.417-8.667-4.097-5.093 2.145-11.289 3.075-16.807 2.545-17.244-1.655-34.375-4.445-51.594-6.418-10.578-1.211-20.479-4.089-29.592-9.599-6.045-3.655-12.076-7.332-18.841-11.44-.403 7.864-.655 14.617-1.125 21.354-.348 4.986-1.336 9.949-1.367 14.926-.023 3.627-.152 8.283 1.886 10.676 4.005 4.703 9.033 8.976 14.453 11.937 9.684 5.29 19.805 9.893 30.059 13.996 8.853 3.543 18.026 6.454 27.274 8.792 8.524 2.155 17.283 3.93 26.031 4.53 15.52 1.065 31.11 1.114 46.671 1.588zm97.412-170.01c-1.037 1.464-2.286 2.847-3.105 4.451-2.993 5.864-5.99 11.734-8.711 17.726-4.147 9.128-8.26 18.28-12.035 27.565-5.3 13.032-10.3 26.186-15.376 39.308-1.393 3.602-2.6 7.276-3.673 10.301 12.41 6.331 24.14 2.593 35.629 1.131 9.324-1.186 18.391-4.327 27.606-6.457 8.148-1.883 16.686-2.654 24.43-5.568 10.011-3.767 19.516-8.966 29.01-13.979 3.982-2.101 7.358-5.229 2.88-10.268-1.093-1.231-1.883-2.978-2.208-4.608-3.56-17.851-16.19-30.59-25.453-45.212-.656-1.035-2.412-1.375-3.656-2.038-.493 1.19-1.248 2.34-1.436 3.575-.956 6.28-1.51 12.632-2.697 18.866-1.173 6.164-2.862 12.235-4.465 18.31-.814 3.085-2.323 6.71-6.045 5.356-3.006-1.093-5.99-3.824-7.674-6.618-2.67-4.431-4.181-9.549-6.296-14.326-5.421-12.25-10.905-24.473-16.725-37.515zm-209.005-1.52l-1.934-.93c-.908 1.073-2.172 2.006-2.66 3.245-1.87 4.75-3.363 9.651-5.236 14.402-2.92 7.408-5.982 14.762-9.084 22.098-2.93 6.928-6.07 13.768-8.946 20.718-.974 2.354-2.78 5.914-1.843 7.198 2.24 3.069 5.56 5.802 9.024 7.439 10.38 4.905 20.772 10.055 31.662 13.532 11.142 3.557 22.854 5.377 34.372 7.677 3.4.68 7.221-.32 10.446.712 8.955 2.864 17.45 1.085 25.992-1.114.424-5.316-39.661-80.063-45.607-85.636-5.548 9.606-11.014 19.388-16.878 28.926-1.02 1.658-3.608 2.915-5.661 3.273-7.563 1.317-9.648-3.531-11.061-13.358-1.34-9.325-1.76-18.783-2.586-28.182zM447.277 398l1.558-.29c.169-1.066.48-2.131.484-3.197.038-15.59.379-31.19-.056-46.767-.411-14.7-1.665-29.378-2.517-44.068-.4-6.893-4.015-10.57-11.14-11.153-8.592-.702-15.21 4.126-21.423 8.782-2.114 1.584-1.76 6.462-2.528 9.837-.215.946-.16 2.062-.657 2.82-5.05 7.718-.977 15.77 1.695 21.979 4.853 11.276 12.977 21.107 19.287 31.806 3.92 6.645 7.013 13.777 10.481 20.689 1.6 3.19 3.21 6.374 4.816 9.562zM140.241 280.832c-.423-1.783-.911-4.33-1.646-6.805-.864-2.904-2.34-5.675-2.855-8.625-1.81-10.34-3.273-20.74-4.956-31.104-2.302-14.171-5.03-28.283-6.939-42.506-2.024-15.08-3.082-30.29-5-45.388-1.051-8.275-3.018-16.433-4.55-24.648-.831-4.451-1.63-8.908-2.414-13.368-.249-1.415-.4-2.846-.597-4.27-1.341 2.146-1.744 4.347-1.626 6.52.68 12.493 1.618 24.973 2.196 37.47.377 8.16-.11 16.373.504 24.509 1.026 13.593 3.304 27.118 3.819 40.718.77 20.316.536 40.673.573 61.014.009 5.106 2.237 6.855 7.167 6.553 5.114-.314 10.263-.07 16.324-.07zm292.026-115.553l-1.14-.07c-.912 4.79-2.254 9.545-2.652 14.378-1.177 14.282-1.742 28.616-3.019 42.887-.753 8.429-2.31 16.792-3.668 25.159-1.659 10.224-3.533 20.414-5.219 30.634-.64 3.88.428 4.957 4.821 4.028 5.572-1.178 11.827-2.226 17.118-.816 6.135 1.635 6.428-.547 5.934-5.023-1.59-14.395-3.32-28.775-4.864-43.175-.95-8.85-1.544-17.74-2.507-26.589-1.318-12.109-2.836-24.196-4.26-36.293-.201-1.705-.364-3.413-.544-5.12zM121.424 366.234l1.702.194c1.195-3.463 2.481-6.898 3.571-10.395 4.251-13.641 14.17-25.342 13.897-40.545-.013-.721.695-1.438.753-2.181.513-6.612-.884-18.144-8.746-21.897-7.195-3.434-13.945-.249-13.967 7.533-.027 10.13.245 20.269.688 30.39.538 12.308 1.387 24.601 2.102 36.9zm140.48-306.62c8.13-3.809 12.553-9.28 11.466-14.72-.768-3.843-2.11-8.006-7.388-8.077-5.513-.073-6.031 4.703-6.16 7.996-.19 4.826 1.283 9.718 2.082 14.8zm-149.3-9.455c-6.32-2.65-9.707-.732-11.93 3.766-1.687 3.412 1.127 9.922 6.408 14.04l5.523-17.806zm306.378-.616c-1.162 7.914 1.898 13.442 9.113 18.775 0-5.114.08-8.907-.018-12.695-.173-6.68-1.858-7.824-9.095-6.08z"/><path class="st2" d="M276.716 507.57c-3.156-8.33-6.483-16.6-9.42-25.007-2.817-8.065-5.19-16.283-7.848-24.405-.65-1.987-1.579-3.894-2.494-5.783-7.774-16.032-15.427-32.125-23.427-48.043-4.045-8.048-8.962-15.656-13.078-23.671-7.39-14.393-15.286-28.62-21.231-43.607-1.995-5.027.704-12.319 2.323-18.286 2.796-10.302 11.217-16.025 19.503-21.646 7.324-4.969 14.654-1.188 21.765.392 9.142 2.032 15.36 8.362 20.398 16.009 2.947 4.475 10.009 4.163 14.794.657.468-.343.979-.652 1.372-1.069 12.418-13.163 27.478-14.345 43.654-9.237 5.684 1.795 11.327 4.147 16.465 7.142 8.641 5.038 11.815 16.665 7.992 25.724-8.377 19.85-16.56 39.781-24.922 59.637-3.886 9.226-8.264 18.25-11.96 27.548-4.69 11.803-8.829 23.823-13.364 35.69-5.085 13.306-10.336 26.55-15.54 39.81-1.14 2.902-2.385 5.762-3.582 8.64l-1.4-.496z"/><path class="st2" d="M342.966 297.87c-3.255-1.211-5.877-2.497-8.648-3.166-13.49-3.258-27.014-7.625-40.927-2.408-6.14 2.302-12.109 5.157-17.909 8.226-2.714 1.437-4.408 2.129-6.99-.367-9.647-9.322-21.655-14.251-34.604-16.461-4.072-.695-8.647 1.167-12.919 2.17-3.296.776-6.477 2.039-10.92 3.477 1.266-4.027 1.701-7.261 3.203-9.883 8.2-14.314 12.182-30.257 18.04-45.475 3.528-9.167 7.84-18.04 11.192-27.267 5.193-14.293 10.418-28.617 14.583-43.226 3.245-11.38 4.562-23.298 7.393-34.815 1.57-6.387 4.49-12.443 7.434-18.447 16.823 64.937 48.967 123.534 71.072 187.642zm105.576 118.107c1.193 2.944 2.373 4.619 2.501 6.371.95 12.95 1.163 25.979 2.676 38.857 1.088 9.269-4.547 14.232-10.645 18.045-8.878 5.551-18.334 10.799-28.256 13.898-12.173 3.802-25.04 5.482-37.68 7.657-10.4 1.79-20.886 3.131-31.37 4.362-9.91 1.163-19.853 2.198-29.81 2.77-7.727.445-15.499.09-24.082.09 1.069-3.85 1.778-7.312 2.983-10.591a3326.218 3326.218 0 0 1 15.886-42.415c2.396-6.258 4.498-6.893 10.366-4.986 7.82 2.54 15.744 4.432 23.722.069 1.416-.775 3.425-.688 5.15-.642 8.866.239 17.19-1.766 25.692-4.338 11.26-3.407 23.035-5.103 34.575-7.6 1.482-.32 2.944-.9 4.304-1.582 11.377-5.694 25.01-7.324 33.988-19.965zm-185.125 93.095c-15.56-.474-31.15-.523-46.67-1.588-8.749-.6-17.508-2.375-26.032-4.53-9.248-2.338-18.421-5.249-27.274-8.792-10.254-4.103-20.375-8.706-30.06-13.996-5.419-2.96-10.447-7.234-14.452-11.937-2.038-2.393-1.91-7.049-1.886-10.676.031-4.977 1.02-9.94 1.367-14.926.47-6.737.722-13.49 1.125-21.355 6.765 4.109 12.796 7.786 18.841 11.441 9.113 5.51 19.014 8.388 29.592 9.6 17.219 1.972 34.35 4.762 51.594 6.417 5.518.53 11.714-.4 16.807-2.545 5.508-2.32 7.075.783 8.667 4.097 3.19 6.643 6.337 13.37 8.696 20.335 4.067 12.013 7.519 24.234 11.23 36.368l-1.545 2.087z"/><path class="st2" d="M360.83 339.062c5.819 13.042 11.303 25.265 16.724 37.515 2.115 4.777 3.627 9.895 6.296 14.326 1.684 2.794 4.668 5.525 7.674 6.618 3.722 1.353 5.23-2.27 6.045-5.356 1.603-6.075 3.292-12.146 4.465-18.31 1.187-6.234 1.741-12.585 2.697-18.866.188-1.236.943-2.385 1.436-3.575 1.244.663 3 1.003 3.656 2.038 9.263 14.622 21.893 27.36 25.453 45.212.325 1.63 1.115 3.377 2.208 4.608 4.478 5.04 1.102 8.167-2.88 10.268-9.494 5.013-18.999 10.212-29.01 13.979-7.744 2.914-16.282 3.685-24.43 5.568-9.215 2.13-18.282 5.27-27.606 6.457-11.49 1.462-23.22 5.2-35.629-1.13 1.074-3.026 2.28-6.7 3.673-10.302 5.076-13.122 10.076-26.276 15.376-39.308 3.775-9.285 7.888-18.437 12.035-27.565 2.722-5.992 5.718-11.862 8.711-17.726.819-1.604 2.068-2.987 3.105-4.45zm-209.006-1.52c.825 9.4 1.245 18.857 2.586 28.182 1.413 9.827 3.498 14.675 11.061 13.358 2.053-.358 4.642-1.615 5.661-3.273 5.864-9.538 11.33-19.32 16.878-28.926 5.946 5.573 46.03 80.32 45.607 85.636-8.542 2.199-17.037 3.978-25.992 1.114-3.225-1.031-7.047-.033-10.446-.712-11.518-2.3-23.23-4.12-34.372-7.677-10.89-3.477-21.282-8.627-31.662-13.532-3.465-1.637-6.784-4.37-9.024-7.439-.937-1.284.87-4.844 1.843-7.198 2.876-6.95 6.016-13.79 8.946-20.718 3.102-7.336 6.163-14.69 9.084-22.098 1.873-4.75 3.366-9.651 5.236-14.402.488-1.24 1.752-2.172 2.66-3.246l1.934.931zM447.277 398c-1.605-3.188-3.215-6.373-4.816-9.562-3.468-6.912-6.561-14.044-10.48-20.69-6.311-10.698-14.435-20.53-19.288-31.805-2.672-6.208-6.746-14.26-1.695-21.978.497-.759.442-1.875.657-2.821.769-3.375.414-8.253 2.528-9.837 6.213-4.656 12.83-9.484 21.424-8.782 7.124.582 10.74 4.26 11.14 11.153.85 14.69 2.105 29.367 2.516 44.068.435 15.578.094 31.177.056 46.767-.003 1.066-.315 2.131-.484 3.197l-1.558.29zM140.241 280.832c-6.061 0-11.21-.244-16.324.07-4.93.302-7.158-1.447-7.167-6.553-.037-20.34.197-40.698-.573-61.014-.515-13.6-2.793-27.125-3.82-40.718-.613-8.136-.126-16.348-.503-24.51-.578-12.496-1.517-24.976-2.196-37.469-.118-2.173.285-4.374 1.626-6.52.196 1.424.348 2.855.597 4.27.783 4.46 1.583 8.917 2.413 13.368 1.533 8.215 3.5 16.373 4.551 24.648 1.918 15.098 2.976 30.307 5 45.388 1.91 14.223 4.637 28.335 6.939 42.506 1.683 10.363 3.146 20.763 4.956 31.104.516 2.95 1.991 5.72 2.855 8.625.735 2.474 1.223 5.022 1.646 6.805zM432.267 165.28c.18 1.706.343 3.414.543 5.119 1.425 12.097 2.943 24.184 4.26 36.293.964 8.85 1.558 17.739 2.508 26.59 1.545 14.4 3.275 28.78 4.864 43.174.494 4.476.2 6.658-5.934 5.023-5.29-1.41-11.546-.362-17.118.816-4.393.93-5.46-.148-4.82-4.028 1.685-10.22 3.559-20.41 5.218-30.634 1.357-8.367 2.915-16.73 3.668-25.159 1.277-14.271 1.842-28.605 3.019-42.887.398-4.833 1.74-9.587 2.651-14.378l1.141.07zM121.424 366.234c-.715-12.3-1.564-24.593-2.102-36.9-.443-10.122-.715-20.261-.688-30.391.022-7.782 6.772-10.967 13.967-7.533 7.862 3.753 9.259 15.285 8.746 21.897-.058.743-.766 1.46-.753 2.181.273 15.203-9.646 26.904-13.897 40.545-1.09 3.497-2.376 6.932-3.571 10.395l-1.702-.194zm140.48-306.62c-.799-5.083-2.272-9.975-2.083-14.8.13-3.294.648-8.07 6.161-7.997 5.278.07 6.62 4.234 7.388 8.076 1.087 5.44-3.337 10.912-11.466 14.72zM112.605 50.16l-5.523 17.804c-5.281-4.117-8.095-10.627-6.408-14.039 2.223-4.498 5.61-6.417 11.93-3.766zm306.377-.617c7.237-1.744 8.922-.6 9.095 6.08.099 3.788.018 7.581.018 12.695-7.215-5.333-10.275-10.861-9.113-18.775z"/></g><g id="Laag_2" class="st0"><path class="st2" d="M340.966 299.728c-3.255-1.211-5.877-2.496-8.648-3.166-13.49-3.257-27.014-7.625-40.927-2.408-6.14 2.302-12.109 5.157-17.909 8.226-2.714 1.437-4.408 2.129-6.99-.367-9.647-9.322-21.655-14.251-34.604-16.46-4.072-.696-8.647 1.166-12.919 2.17-3.296.775-6.477 2.038-10.92 3.476 1.266-4.027 1.701-7.261 3.203-9.883 8.2-14.314 12.182-30.257 18.04-45.475 3.528-9.167 7.84-18.04 11.192-27.267 5.193-14.293 10.418-28.617 14.583-43.226 3.245-11.38 4.562-23.298 7.393-34.815 1.57-6.387 4.49-12.443 7.434-18.447 16.823 64.937 48.967 123.534 71.072 187.642zm105.576 118.107c1.193 2.944 2.373 4.619 2.501 6.371.95 12.95 1.163 25.979 2.676 38.857 1.088 9.269-4.547 14.233-10.645 18.045-8.878 5.551-18.334 10.799-28.256 13.898-12.173 3.803-25.04 5.482-37.68 7.657-10.4 1.79-20.886 3.131-31.37 4.362-9.91 1.163-19.853 2.198-29.81 2.77-7.727.445-15.499.09-24.082.09 1.069-3.85 1.778-7.312 2.983-10.591a3326.045 3326.045 0 0 1 15.886-42.415c2.396-6.257 4.498-6.893 10.366-4.986 7.82 2.54 15.744 4.432 23.722.069 1.416-.775 3.425-.688 5.15-.642 8.866.239 17.19-1.766 25.692-4.338 11.26-3.407 23.035-5.103 34.575-7.6 1.482-.32 2.944-.9 4.304-1.582 11.377-5.694 25.01-7.324 33.988-19.965zM261.417 510.93c-15.56-.474-31.15-.523-46.67-1.588-8.749-.6-17.508-2.375-26.032-4.53-9.248-2.338-18.421-5.248-27.274-8.792-10.254-4.103-20.375-8.706-30.06-13.996-5.419-2.96-10.447-7.234-14.452-11.937-2.038-2.393-1.91-7.049-1.886-10.676.031-4.977 1.02-9.94 1.367-14.926.47-6.737.722-13.49 1.125-21.355 6.765 4.109 12.796 7.786 18.841 11.441 9.113 5.51 19.014 8.388 29.592 9.6 17.219 1.972 34.35 4.762 51.594 6.417 5.518.53 11.714-.4 16.807-2.545 5.508-2.32 7.075.783 8.667 4.097 3.19 6.643 6.337 13.37 8.696 20.335 4.067 12.013 7.519 24.234 11.23 36.368l-1.545 2.087z"/><path class="st2" d="M358.83 340.92c5.819 13.042 11.303 25.265 16.724 37.515 2.115 4.777 3.627 9.895 6.296 14.326 1.684 2.794 4.668 5.525 7.674 6.618 3.722 1.353 5.23-2.27 6.045-5.356 1.603-6.075 3.292-12.146 4.465-18.31 1.187-6.234 1.741-12.585 2.697-18.866.188-1.236.943-2.385 1.436-3.575 1.244.664 3 1.003 3.656 2.038 9.263 14.622 21.893 27.36 25.453 45.212.325 1.63 1.115 3.377 2.208 4.608 4.478 5.04 1.102 8.167-2.88 10.269-9.494 5.012-18.999 10.21-29.01 13.978-7.744 2.914-16.282 3.685-24.43 5.568-9.215 2.13-18.282 5.27-27.606 6.457-11.49 1.462-23.22 5.2-35.629-1.13 1.074-3.026 2.28-6.7 3.673-10.302 5.076-13.122 10.076-26.276 15.376-39.308 3.775-9.285 7.888-18.437 12.035-27.564 2.722-5.992 5.718-11.863 8.711-17.727.819-1.604 2.068-2.987 3.105-4.45zm-209.006-1.52c.825 9.4 1.245 18.857 2.586 28.182 1.413 9.827 3.498 14.675 11.061 13.358 2.053-.358 4.642-1.615 5.661-3.273 5.864-9.538 11.33-19.32 16.878-28.926 5.946 5.574 46.03 80.32 45.607 85.636-8.542 2.199-17.037 3.978-25.992 1.114-3.225-1.031-7.047-.033-10.446-.712-11.518-2.3-23.23-4.12-34.372-7.677-10.89-3.477-21.282-8.627-31.662-13.532-3.465-1.637-6.784-4.37-9.024-7.439-.937-1.284.87-4.844 1.843-7.198 2.876-6.95 6.016-13.79 8.946-20.718 3.102-7.335 6.163-14.69 9.084-22.098 1.873-4.75 3.366-9.651 5.236-14.402.488-1.24 1.752-2.172 2.66-3.246l1.934.931zm295.453 60.458c-1.605-3.187-3.215-6.373-4.816-9.562-3.468-6.912-6.561-14.044-10.48-20.69-6.311-10.698-14.435-20.53-19.288-31.805-2.672-6.208-6.746-14.26-1.695-21.978.497-.759.442-1.875.657-2.821.769-3.374.414-8.253 2.528-9.837 6.213-4.656 12.83-9.484 21.424-8.782 7.124.582 10.74 4.26 11.14 11.153.85 14.69 2.105 29.367 2.516 44.068.435 15.578.094 31.177.056 46.767-.003 1.066-.315 2.131-.484 3.197l-1.558.29zM138.241 282.69c-6.061 0-11.21-.244-16.324.07-4.93.303-7.158-1.447-7.167-6.553-.037-20.34.197-40.698-.573-61.014-.515-13.6-2.793-27.125-3.82-40.718-.613-8.136-.126-16.348-.503-24.51-.578-12.496-1.517-24.976-2.196-37.469-.118-2.173.285-4.374 1.626-6.52.196 1.424.348 2.856.597 4.27.783 4.46 1.583 8.917 2.413 13.368 1.533 8.215 3.5 16.373 4.551 24.648 1.918 15.098 2.976 30.307 5 45.388 1.91 14.223 4.637 28.335 6.939 42.506 1.683 10.363 3.146 20.763 4.956 31.104.516 2.95 1.991 5.72 2.855 8.625.735 2.474 1.223 5.022 1.646 6.805zm292.026-115.552c.18 1.706.343 3.415.543 5.119 1.425 12.097 2.943 24.184 4.26 36.294.964 8.849 1.558 17.738 2.508 26.588 1.545 14.4 3.275 28.78 4.864 43.175.494 4.476.2 6.658-5.934 5.023-5.29-1.41-11.546-.362-17.118.816-4.393.93-5.46-.148-4.82-4.028 1.685-10.22 3.559-20.41 5.218-30.634 1.357-8.367 2.915-16.73 3.668-25.159 1.277-14.271 1.842-28.605 3.019-42.887.398-4.833 1.74-9.587 2.651-14.378l1.141.07zM119.424 368.092c-.715-12.3-1.564-24.593-2.102-36.9-.443-10.122-.715-20.261-.688-30.391.022-7.782 6.772-10.967 13.967-7.533 7.862 3.753 9.259 15.286 8.746 21.897-.058.743-.766 1.46-.753 2.181.273 15.203-9.646 26.904-13.897 40.545-1.09 3.497-2.376 6.932-3.571 10.395l-1.702-.194zm140.48-306.62c-.799-5.083-2.272-9.975-2.083-14.8.13-3.294.648-8.07 6.161-7.997 5.278.07 6.62 4.235 7.388 8.076 1.087 5.44-3.337 10.912-11.466 14.72zm-149.299-9.455l-5.523 17.805c-5.281-4.117-8.095-10.627-6.408-14.039 2.223-4.498 5.61-6.417 11.93-3.766zm306.377-.615c7.237-1.745 8.922-.6 9.095 6.079.099 3.788.018 7.581.018 12.695-7.215-5.333-10.275-10.861-9.113-18.774z"/></g><g id="Laag_3" class="st0"><path d="M176.852 288.551l25.71-190.485s-11.667-2.326-12.855-15.328c-1.187-13.003 19.308-17.905 23.103-12.074 3.795 5.832 12.468 10.954 0 27.402l31.924 131.354s87.026 65.704 102.758 19.106c15.733-46.599 27.054-160.844 27.054-160.844s-10.292-2.058-11.321-13.38 6.175-15.953 13.894-14.924c7.72 1.03 14.41 6.459 14.41 9.662 0 3.204 3.08 13.498-7.218 18.642l30.96 183.788 23.6 71.378-25.214 58.75-232.607-10.61-28.303-64.009 24.105-38.428z" fill="#7a6b1a"/><path class="st1" d="M136.535 462.517L127.449 81.05s-26.663-17.241 3.323-32.6 29.43 31.712 8.614 32.6l49.794 275.775s19.484-17.884 50.388-111.382 41.299-165.398 41.299-165.398-11.497-9.725-11.625-25.231 5.042-19.185 18.222-19.789c13.18-.603 16.963 11.72 17.292 22.212.329 10.49-3.89 21.593-10.44 22.481l59.174 187.847s26.138 72.3 49.928 103.65l34.041-286.458s-12.914-6.815-13.581-23.246c-.667-16.431 6.097-15.36 14.26-15.23 8.165.131 15.594 8.998 14.664 17.86s-1.17 18.686-4.723 20.906l28.506 380.217s6.739 37.477-123.014 45.342c-129.753 7.865-205.29-16.56-217.036-48.09z"/><path d="M294.999 501.974l74.787-171.116-10.911-31.88s-45.85-50.994-67.346 14.2c0 0-24.255-63.09-64.06-13.917l-14.659 36.953L295 501.974z" fill="#e5242a"/><path class="st5" d="M291.298 291.449s19.783-40.014 61.712-8.748L289.077 98.066 240.17 273.548s37.842-14.16 51.127 17.9z"/><path class="st6" d="M460.631 394.939l-41.96-66.779 3.285-36.711s23.988-35.374 34.608 6.523l4.067 96.967z"/><path class="st5" d="M456.408 278.396s-10.159-20.066-34.452 1.605l21.053-169.648 13.4 168.043z"/><linearGradient id="SVGID_1_" gradientUnits="userSpaceOnUse" x1="303.968" y1="457.615" x2="464.655" y2="457.615"><stop offset=".482" stop-color="#cc0b10"/><stop offset="1" stop-color="#a8151c"/></linearGradient><path d="M303.968 502.733l26.466-58.604s108.597 9.044 129.915-31.632l4.305 51.482s1.418 33.555-160.686 38.754z" fill="url(#SVGID_1_)"/><path class="st5" d="M334.81 434.061s99.374 10.005 122.734-29.67l-41.528-60.066-8.157 41.528s-19.913-9.258-34.8-43.005l-38.248 91.213z"/><linearGradient id="SVGID_2_" gradientUnits="userSpaceOnUse" x1="142.238" y1="454.861" x2="283.471" y2="454.861"><stop offset="0" stop-color="#a8151c"/><stop offset=".303" stop-color="#cc0b10"/></linearGradient><path d="M283.471 502.733l-27.58-56.75s-101.29 3.805-113.653-38.993l1.902 50.625s2.378 38.145 139.331 45.118z" fill="url(#SVGID_2_)"/><path class="st6" d="M142.238 384.849l32.013-60.785-6.436-37.9s-24.13-22.906-29.32 8.938l3.743 89.747z"/><path class="st5" d="M142.238 397.825s16.541 44.699 109.076 38.687l-42.87-92.534s-10.194 21.957-18.297 25.878c0 0-11.502-.784-14.377-36.334l-33.532 64.303zm22.386-124.277l-29.122-166.976 2.993 171.62s1.58-11.868 26.13-4.644z"/><radialGradient id="SVGID_3_" cx="135.588" cy="63.981" r="10.371" gradientUnits="userSpaceOnUse"><stop offset=".096" stop-color="#cc0b10"/><stop offset=".389" stop-color="#c80d11"/><stop offset=".66" stop-color="#bc1115"/><stop offset=".921" stop-color="#a81419"/><stop offset="1" stop-color="#a0151a"/></radialGradient><path d="M130.175 74.076s16.018 1.224 16.018-10.708-10.679-10.709-16.018-6.731-8.343 12.238 0 17.439z" fill="url(#SVGID_3_)"/><radialGradient id="SVGID_4_" cx="286.899" cy="57.061" r="14.266" gradientUnits="userSpaceOnUse"><stop offset=".096" stop-color="#cc0b10"/><stop offset=".389" stop-color="#c80d11"/><stop offset=".66" stop-color="#bc1115"/><stop offset=".921" stop-color="#a81419"/><stop offset="1" stop-color="#a0151a"/></radialGradient><path d="M286.525 73.136s14.261 1.065 12.374-15.297c-1.888-16.361-9.378-19.074-16.119-15.457s-15.729 22.626 3.745 30.754z" fill="url(#SVGID_4_)"/><radialGradient id="SVGID_5_" cx="438.634" cy="63.724" r="9.94" gradientUnits="userSpaceOnUse"><stop offset=".096" stop-color="#cc0b10"/><stop offset=".389" stop-color="#c80d11"/><stop offset=".66" stop-color="#bc1115"/><stop offset=".921" stop-color="#a81419"/><stop offset="1" stop-color="#a0151a"/></radialGradient><path d="M439.515 75.204s7.23-.827 7.23-8.682-4.086-15.71-11.003-14.056c-6.917 1.654-8.175 21.911 3.773 22.738z" fill="url(#SVGID_5_)"/></g><g id="Laag_4" class="st0"><path d="M127.762 468.498l-9.086-381.466S92.013 69.79 121.999 54.43s29.429 31.713 8.614 32.6l49.794 275.776s19.483-17.885 50.388-111.382 41.299-165.399 41.299-165.399-11.497-9.724-11.625-25.23c-.128-15.508 5.042-19.186 18.222-19.79s16.962 11.721 17.292 22.212-3.89 21.594-10.44 22.482l59.174 187.846s26.138 72.3 49.928 103.65L428.686 90.74s-12.914-6.816-13.581-23.247 6.096-15.36 14.26-15.23c8.165.132 15.594 8.998 14.664 17.86s-1.17 18.686-4.723 20.907l28.506 380.217s6.739 37.477-123.014 45.342c-129.753 7.865-205.29-16.56-217.036-48.09z"/><path d="M168.079 294.533l25.71-190.485s-11.667-2.326-12.855-15.329 19.308-17.905 23.103-12.073c3.795 5.832 12.468 10.953 0 27.402L235.961 235.4s87.026 65.705 102.758 19.106c15.733-46.598 27.054-160.843 27.054-160.843s-10.292-2.059-11.321-13.38 6.175-15.953 13.894-14.924c7.72 1.029 14.41 6.458 14.41 9.662s3.08 13.497-7.218 18.642l30.96 183.787 23.6 71.378-25.214 58.751-232.607-10.61-28.304-64.01 24.106-38.427z" fill="#7a6b1a"/><g class="st1"><radialGradient id="SVGID_6_" cx="297.242" cy="283.465" r="215.817" gradientUnits="userSpaceOnUse"><stop offset=".096" stop-color="#cc0b10"/><stop offset=".389" stop-color="#c80d11"/><stop offset=".66" stop-color="#bc1115"/><stop offset=".921" stop-color="#a81419"/><stop offset="1" stop-color="#a0151a"/></radialGradient><path d="M294.672 47.903c.56 0 .885.03.885.03 8.316 0 19.892 3.134 20.456 18.241.564 15.107-14.515 20.908-14.515 20.908 18.788 69.86 33.54 127.693 43.908 170.578 22.286 92.182 60.544 119.561 60.544 119.561 13.914-36.646 20.067-68.973 30.023-119.806 15.92-81.284 22.604-169.716 22.604-169.716-9.234-1.075-9.676-9.676-9.676-13.977 0-4.3-2.15-13.44 8.601-13.44 10.752 0 22.579.538 22.579 13.44s-12.269 15.052-12.269 15.052V472.2s2.055 46.644-169.436 46.827h-.939c-170.578 0-169.675-49.575-169.675-49.575V87.986s-13.359-2.383-13.359-21.812c0-12.046 8.316-14.335 14.635-14.335 3.873 0 6.995.86 6.995.86s.259-.024.703-.024c2.742 0 12.572.88 12.572 13.5 0 14.663-11.653 19.373-11.653 19.373s5.6 91.947 17.488 172.625c8.531 57.9 20.301 109.998 35.563 118.137 19.932-23.254 42.509-70.11 56.154-118.65 23.032-81.928 42.794-170.328 42.794-170.328S278.456 86 278.456 66.174c0-17.093 12.712-18.271 16.216-18.271m0-5c-9.787 0-21.216 6.095-21.216 23.271 0 15 5.852 21.425 10.394 24.153-4.168 18.324-21.858 95.031-41.803 165.98-12.444 44.264-33.025 88.762-52.063 112.998-3.625-4.096-8.85-13.463-14.766-34.742-5.315-19.116-10.405-45.062-15.129-77.119-10.503-71.283-16.145-152.354-17.244-169.089 4.365-2.902 11.463-9.563 11.463-22.18 0-13.655-9.466-18.5-17.572-18.5l-.192.001a34.995 34.995 0 0 0-7.506-.837c-12.295 0-19.635 7.228-19.635 19.335 0 11.87 4.526 18.46 8.323 21.898a21.398 21.398 0 0 0 5.036 3.402v377.978c-.002 1.262.377 9.254 9.63 18.677 16.082 16.377 57.769 35.898 165.045 35.898h.945c109.709-.117 150.89-19.13 166.116-35.06 7.941-8.307 8.326-15.34 8.314-16.788V92.433c5.603-2.402 12.269-8.05 12.269-18.711 0-7.834-3.588-13.433-10.376-16.19-5.109-2.076-11.3-2.25-17.203-2.25-4.505 0-8.01 1.294-10.42 3.845-3.764 3.986-3.455 9.39-3.25 12.966.035.62.069 1.207.069 1.629 0 10.851 4.415 15.71 9.354 17.751-1.543 18.419-8.45 94.832-22.19 164.981l-.752 3.843c-8.799 44.948-14.807 75.637-26.512 108.305-3.841-3.837-9.557-10.283-16.041-20.018-10.905-16.372-26.263-45.64-37.494-92.099-7.864-32.525-21.65-87.698-42.894-166.81 5.391-3.262 14.126-10.594 13.637-23.687-.536-14.38-9.979-22.987-25.27-23.055-.237-.014-.601-.03-1.067-.03z" fill="url(#SVGID_6_)"/></g><radialGradient id="SVGID_7_" cx="385.745" cy="164.61" r="76.343" gradientUnits="userSpaceOnUse"><stop offset=".096" stop-color="#cc0b10"/><stop offset=".389" stop-color="#c80d11"/><stop offset=".66" stop-color="#bc1115"/><stop offset=".921" stop-color="#a81419"/><stop offset="1" stop-color="#a0151a"/></radialGradient><path d="M435.973 257.415c-27.69-24.147-59.546-157.518-59.546-157.518s8.63-2.483 8.969-13.362c.283-9.139-4.017-14.12-13.473-14.114-16.034.009-15.718 14.9-15.718 14.9s3.291 12.225 8.863 14.06c0 0-15.319 87.646-28.901 118.775" fill="none" stroke="url(#SVGID_7_)" stroke-width="5" stroke-miterlimit="10"/><radialGradient id="SVGID_8_" cx="202.48" cy="166.995" r="74.327" gradientUnits="userSpaceOnUse"><stop offset=".096" stop-color="#cc0b10"/><stop offset=".389" stop-color="#c80d11"/><stop offset=".66" stop-color="#bc1115"/><stop offset=".921" stop-color="#a81419"/><stop offset="1" stop-color="#a0151a"/></radialGradient><path d="M249.778 247.18c-21.988-23.322-45.741-142.178-45.741-142.178s8.872-3.585 8.872-12.29-2.68-12.684-8.872-15.112-24.903-1.412-23.103 12.073 12.855 15.329 12.855 15.329-22.715 137-38.646 153.171" fill="none" stroke="url(#SVGID_8_)" stroke-width="5" stroke-miterlimit="10"/></g><g id="Laag_5"><linearGradient id="SVGID_9_" gradientUnits="userSpaceOnUse" x1="66.933" y1="282.511" x2="498.675" y2="282.511"><stop offset="0" stop-color="#ddca00"/><stop offset=".5" stop-color="#fff03e"/><stop offset="1" stop-color="#ddca00"/></linearGradient><path d="M283.03 559.91c-124.004 0-171.882-22.236-190.21-40.89-10.335-10.518-10.304-19.146-10.298-19.508V56.227c-4.658-1.751-15.59-7.927-15.59-27.292 0-12.878 8.04-20.264 22.056-20.264 3.411 0 6.078.455 6.83.598 2.273.135 16.848 1.709 16.848 19.666 0 15.058-9.546 21.915-13.5 24.108.873 13.589 7.203 108.261 19.378 193.36 8.52-15.615 18.365-56.606 25.504-90.361 7.645-36.15 13.658-70.969 15.185-79.97-5.365-1.88-13.045-7.458-14.637-19.384-.608-4.55.452-8.422 3.152-11.505 5.233-5.979 14.527-6.624 18.279-6.624 3.428 0 6.68.504 8.92 1.382 8.482 3.326 11.941 9.11 11.941 19.964 0 8.931-6.65 13.816-10.021 15.718 3.273 15.897 26.963 128.106 49.42 159.217 22.367-81.553 41.386-164.8 44.71-179.486-4.386-1.782-12.616-7.629-12.616-26.419 0-22.674 17.847-23.822 21.424-23.822.55 0 .942.022 1.133.035 7.716.02 25.474 2.401 26.27 23.694.573 15.367-11.535 23.277-16.482 25.856 13.234 49.3 32.036 122.503 38.02 145.87 13.634-37.138 28.082-116.09 30.421-129.142-6.265-4.013-9.578-15.717-9.968-17.163l-.079-.293-.006-.303c-.007-.343-.113-8.462 5.587-14.289 3.667-3.748 8.8-5.65 15.254-5.653 6.031 0 10.655 1.625 13.763 4.83 3.15 3.25 4.65 8.034 4.459 14.218-.299 9.614-5.834 14.865-10.027 17.01 4.39 17.868 36.402 145.14 64.99 177.24 16.23-84.686 24.025-175.589 25.27-190.912-7.383-1.835-11.122-8.002-11.122-18.368 0-7.873 4.776-19.588 17.932-19.588 11.868 0 23.455 1.512 23.455 19.588 0 12.053-8.455 17.712-14.317 19.523v445.477c.012.939-.18 8.286-8.779 17.282-17.321 18.12-64.595 39.75-191.449 39.884l-1.1.001z" fill="url(#SVGID_9_)"/><path d="M279.805 7.613c.653 0 1.032.035 1.032.035 9.705 0 23.214 3.658 23.872 21.287.658 17.63-16.938 24.4-16.938 24.4 16.021 59.574 40.457 155.295 40.457 155.295 15.85-36.327 33.728-138.61 33.728-138.61-6.502-2.14-10.343-16.407-10.343-16.407s-.37-17.378 18.343-17.388h.017c11.021 0 16.036 5.812 15.705 16.47-.394 12.696-10.466 15.594-10.466 15.594s37.174 155.643 69.489 183.822c18.578-94.858 26.38-198.056 26.38-198.056-10.777-1.255-11.293-11.293-11.293-16.312s2.885-17.088 15.432-17.088 20.955 2.032 20.955 17.088-14.318 17.566-14.318 17.566v447.453s2.398 54.434-197.73 54.647h-1.096c-199.026 0-198.01-57.853-198.01-57.853V54.39s-15.588-2.78-15.588-25.454c0-15.272 11.83-17.764 19.555-17.764 3.743 0 6.523.586 6.523.586s14.655.065 14.655 17.178-13.6 22.61-13.6 22.61 6.537 107.3 20.41 201.45c18.59-18.872 45.1-178.748 45.1-178.748s-12.902-2.153-15.002-17.889c-1.55-11.61 9.925-15.3 18.954-15.3 3.21.001 6.111.468 8.006 1.21 7.227 2.835 10.355 7.479 10.355 17.637s-10.355 14.342-10.355 14.342 27.72 138.703 53.38 165.92c25.391-91.967 46.534-186.54 46.534-186.54S260.88 52.07 260.88 28.934c0-19.948 14.837-21.322 18.925-21.322m0-5c-2.909 0-8.568.523-13.785 4.03-4.626 3.11-10.14 9.502-10.14 22.292 0 17.73 7.09 24.905 12.244 27.78-4.202 18.494-21.888 95.353-42.775 172.073-7.013-11.903-16.82-35.766-29.416-83.074-8.122-30.508-14.234-59.109-16.266-68.891 3.993-2.655 9.722-8.015 9.722-16.918 0-11.906-4.046-18.573-13.53-22.291-2.556-1.003-6.048-1.555-9.831-1.555-4.094 0-14.253.728-20.161 7.477-3.15 3.598-4.446 8.26-3.75 13.484 1.564 11.708 8.551 17.895 14.317 20.593-1.94 11.335-7.67 44.05-14.835 77.927-9.7 45.86-16.834 69.709-21.767 82.05-11.02-80.041-16.939-165.846-18.073-183.197 4.887-3.128 13.407-10.699 13.407-25.458 0-11.203-5.325-16.688-9.792-19.316-3.933-2.314-7.826-2.758-9.285-2.843-1.05-.19-3.718-.605-7.1-.605-6.145 0-11.321 1.33-15.387 3.954-4.183 2.7-9.17 8.155-9.17 18.81 0 17.456 8.703 25.912 15.59 29.048v441.551c-.007 1.298.345 10.38 11.014 21.238 18.664 18.995 67.124 41.637 191.995 41.637h1.102c127.735-.136 175.596-22.184 193.253-40.656 9.138-9.56 9.493-17.53 9.471-19.037V59.023c6.401-2.572 14.318-8.945 14.318-21.28 0-8.843-2.631-14.855-8.044-18.38-5.004-3.259-11.566-3.708-17.91-3.708-7.094 0-13.009 3.197-16.656 9.002-2.785 4.433-3.777 9.667-3.777 13.086 0 12.595 5.246 18.003 10.966 20.156-1.626 19.528-9.124 103.435-24.059 183.314-8.982-12.314-21.928-38.47-39.086-93.079-10.73-34.15-18.912-66.333-21.593-77.162 4.013-2.576 9.342-7.903 9.66-18.121.213-6.886-1.523-12.281-5.163-16.035-3.595-3.71-8.824-5.59-15.54-5.59-7.171.003-12.904 2.158-17.058 6.404-6.319 6.458-6.321 15.123-6.3 16.09l.012.606.158.587c.632 2.347 3.666 12.59 9.648 17.588-2.812 15.557-15.081 81.595-27.335 119.37-7.38-28.762-23.526-91.438-35.443-135.902 6.063-3.53 16.622-11.907 16.05-27.22-.607-16.286-11.324-26.032-28.682-26.1-.26-.017-.676-.036-1.218-.036z"/><linearGradient id="SVGID_10_" gradientUnits="userSpaceOnUse" x1="85" y1="489.764" x2="481.858" y2="489.764"><stop offset="0" stop-color="#a8151c"/><stop offset=".303" stop-color="#cc0b10"/><stop offset=".715" stop-color="#cc0b10"/><stop offset="1" stop-color="#aa151d"/></linearGradient><path d="M85.022 499.556S84 557.622 284.127 557.41c200.128-.213 197.73-54.647 197.73-54.647V422.12c-7.857 11.101-27.406 41.14-215.13 41.14S85.022 422.12 85.022 422.12v77.437z" fill="url(#SVGID_10_)"/><path d="M284.127 557.409l84.523-221.497-11.83-45.828-8.564-4.654s-25.957-40.859-64.129 13.212c0 0-35.305-53.267-69.608-16.13l-22.634 30.133v24.417l92.242 220.347z" fill="#e30613"/><linearGradient id="SVGID_11_" gradientUnits="userSpaceOnUse" x1="422.125" y1="374.548" x2="481.857" y2="374.548"><stop offset="0" stop-color="#e30613"/><stop offset=".329" stop-color="#d30a11"/><stop offset=".747" stop-color="#c10d0e"/><stop offset="1" stop-color="#bb0e0c"/></linearGradient><path d="M428.436 330.214l53.421 151.256V293s-14.938-52.045-43.828-7.06-9.593 44.273-9.593 44.273z" fill="url(#SVGID_11_)"/><linearGradient id="SVGID_12_" gradientUnits="userSpaceOnUse" x1="85" y1="367.356" x2="135.832" y2="367.356"><stop offset="0" stop-color="#bb0e0c"/><stop offset=".253" stop-color="#c10d0e"/><stop offset=".671" stop-color="#d30a11"/><stop offset="1" stop-color="#e30613"/></linearGradient><path d="M131.695 331.877L85 471.356V282.51s9.5-37.721 35.436-7.294c25.937 30.426 11.26 56.66 11.26 56.66z" fill="url(#SVGID_12_)"/><path d="M328.228 208.631v-.002zM375.212 68.29s10.071-2.898 10.466-15.593c.33-10.665-4.688-16.477-15.722-16.471-18.713.01-18.343 17.388-18.343 17.388s3.84 14.267 10.343 16.407c0 0-17.877 102.282-33.728 138.61a5566.83 5566.83 0 0 1 10.782 43.767c26.008 107.575 70.655 139.527 70.655 139.527 16.237-42.767 23.417-80.492 35.035-139.813-32.314-28.18-69.488-183.822-69.488-183.822zM116.974 252.995c9.957 67.57 23.692 128.366 41.503 137.865 23.26-27.137 49.606-81.818 65.53-138.463 1.143-4.066 2.28-8.146 3.407-12.23-25.661-27.217-53.38-165.92-53.38-165.92s10.353-4.185 10.353-14.343-3.127-14.802-10.354-17.636c-7.226-2.833-29.06-1.647-26.96 14.09s15.002 17.888 15.002 17.888-26.51 159.877-45.1 178.75z" fill="#b3982f"/><radialGradient id="SVGID_13_" cx="89.799" cy="32.846" r="21.031" gradientUnits="userSpaceOnUse"><stop offset="0" stop-color="#e30613"/><stop offset=".329" stop-color="#dd0b18"/><stop offset=".838" stop-color="#cc1421"/><stop offset="1" stop-color="#c61624"/></radialGradient><path d="M96.567 51.545s13.6-5.497 13.6-22.61S95.51 11.757 95.51 11.757 69.433 6.262 69.433 28.935 85.022 54.39 85.022 54.39s3.848 1.059 11.545-2.844z" fill="url(#SVGID_13_)"/><radialGradient id="SVGID_14_" cx="282.804" cy="31.066" r="22.701" gradientUnits="userSpaceOnUse"><stop offset="0" stop-color="#e30613"/><stop offset=".329" stop-color="#dd0b18"/><stop offset=".838" stop-color="#cc1421"/><stop offset="1" stop-color="#c61624"/></radialGradient><path d="M287.77 53.334s17.597-6.77 16.939-24.399-14.167-21.287-23.872-21.287c0 0-19.957-1.849-19.957 21.287s13.068 24.691 13.068 24.691 5.36 2.191 13.823-.292z" fill="url(#SVGID_14_)"/><radialGradient id="SVGID_15_" cx="477.981" cy="37.995" r="17.772" gradientUnits="userSpaceOnUse"><stop offset="0" stop-color="#e30613"/><stop offset=".329" stop-color="#dd0b18"/><stop offset=".838" stop-color="#cc1421"/><stop offset="1" stop-color="#c61624"/></radialGradient><path d="M481.857 55.31s14.318-2.51 14.318-17.567-8.408-17.088-20.955-17.088c-12.547 0-15.432 12.07-15.432 17.088s.515 15.057 11.292 16.312c0 0 4.724 1.495 10.777 1.254z" fill="url(#SVGID_15_)"/></g></svg>