<?xml version="1.0" encoding="utf-8"?>
<!-- Generator: Adobe Illustrator 22.1.0, SVG Export Plug-In . SVG Version: 6.00 Build 0)  -->
<svg version="1.1" xmlns="http://www.w3.org/2000/svg" xmlns:xlink="http://www.w3.org/1999/xlink" x="0px" y="0px"
	 viewBox="0 0 566.9299927 566.9299927" style="enable-background:new 0 0 566.9299927 566.9299927;" xml:space="preserve">
<style type="text/css">
	.st0{fill:url(#SVGID_1_);}
	.st1{fill:url(#SVGID_2_);}
	.st2{fill:url(#SVGID_3_);}
	.st3{fill:url(#SVGID_4_);}
	.st4{fill:url(#SVGID_5_);}
	.st5{fill:url(#SVGID_6_);}
	.st6{fill:url(#SVGID_7_);}
	.st7{fill:url(#SVGID_8_);}
</style>
<g id="Laag_1">
</g>
<g id="Laag_2">
	<g>
		<radialGradient id="SVGID_1_" cx="283.1661987" cy="283.1303406" r="232.777771" gradientUnits="userSpaceOnUse">
			<stop  offset="0" style="stop-color:#FFFFFF"/>
			<stop  offset="0.992841" style="stop-color:#F6F6F6"/>
			<stop  offset="1" style="stop-color:#F6F6F6"/>
		</radialGradient>
		<path class="st0" d="M129.1752167,556.6539917c-16.0961838,0-29.1913986-13.0957031-29.1913986-29.1914062V38.798542
			c0-16.0966778,13.0952148-29.1918926,29.1913986-29.1918926h307.9819336
			c16.0966797,0,29.1914062,13.0952148,29.1914062,29.1918926v488.664032c0,16.0957031-13.0947266,29.1914062-29.1914062,29.1914062
			H129.1752167z"/>
		<path d="M437.1571655,12.1069164c14.7412415,0,26.6914062,11.9501667,26.6914062,26.6914158v488.6646118
			c0,14.741272-11.9501648,26.6914673-26.6914062,26.6914673H129.1749725
			c-14.7412338,0-26.6914062-11.9501953-26.6914062-26.6914673V38.7983322
			c0-14.7412491,11.9501724-26.6914158,26.6914062-26.6914158H437.1571655 M437.1571655,7.1069164H129.1749725
			c-17.4746552,0-31.6914062,14.2167511-31.6914062,31.6914158v488.6646118
			c0,17.4746704,14.2167511,31.6914673,31.6914062,31.6914673h307.9821777
			c17.4746704,0,31.6914062-14.2167969,31.6914062-31.6914673V38.7983322
			C468.8485718,21.3236675,454.6318359,7.1069164,437.1571655,7.1069164L437.1571655,7.1069164z"/>
	</g>
	
		<radialGradient id="SVGID_2_" cx="283.440155" cy="283.3766479" r="90.3638382" gradientTransform="matrix(0.7083378 0 0 1 82.6875381 0)" gradientUnits="userSpaceOnUse">
		<stop  offset="0" style="stop-color:#BE1622"/>
		<stop  offset="1" style="stop-color:#9E151A"/>
	</radialGradient>
	<polygon class="st1" points="283.4588928,373.740509 347.4670105,283.3766479 283.4588928,193.0128174 219.4507904,283.3766479 	
		"/>
	<radialGradient id="SVGID_3_" cx="31.9386902" cy="745.7913208" r="141.7414398" gradientUnits="userSpaceOnUse">
		<stop  offset="0" style="stop-color:#3C3C3B"/>
		<stop  offset="1" style="stop-color:#000000"/>
	</radialGradient>
	<path class="st2" d="M102.8230591,816.6574707c70.8307495,0,70.8662109-70.8661499,70.8662109-70.8661499
		s0.0354004-42.8162231-70.8661499-70.8661499s-70.902771-70.8661499-70.902771-70.8661499
		s0.0354614,42.8162231-70.8660889,70.8661499s-70.8661499,70.8661499-70.8661499,70.8661499
		s0.0354004,70.8661499,70.8661499,70.8661499c69.5812378,0,70.8427734-68.3482056,70.8656006-70.7597656
		C31.895813,887.5934448-38.9457397,887.5236206-38.9457397,887.5236206h141.7688599
		c-70.8307495,0-70.90271-141.6968384-70.90271-141.6968384S31.9923706,816.6574707,102.8230591,816.6574707z"/>
	<radialGradient id="SVGID_4_" cx="-227.5406036" cy="70.8661423" r="141.7415314" gradientUnits="userSpaceOnUse">
		<stop  offset="0" style="stop-color:#3C3C3B"/>
		<stop  offset="1" style="stop-color:#000000"/>
	</radialGradient>
	<path class="st3" d="M-156.6747284,141.7135468c70.8661499,0,70.8661499-70.8307419,70.8661499-70.8307419
		s0-70.9015503-70.8661499-70.9015503c0,0,0.0354614-70.8661499-70.8661499-70.8661499v0.0374756
		c-70.9009857,0.0003662-70.8655853,70.8661499-70.8655853,70.8661499c-70.8661499,0-70.8661499,70.9016113-70.8661499,70.9016113
		s0,70.8306808,70.8661499,70.8306808c69.2162323,0,70.8275604-67.5574875,70.865097-70.7033005
		c-0.0430908,141.6383667-70.865097,141.569458-70.865097,141.569458h141.7322235
		c-70.4231567,0-70.8632812-139.90625-70.8660278-141.6557617
		C-227.5168304,73.4688034-226.2391815,141.7135468-156.6747284,141.7135468z"/>
	
		<radialGradient id="SVGID_5_" cx="96.8780746" cy="62.6373329" r="39.8184319" gradientTransform="matrix(0.7083378 0 0 1 82.6875381 0)" gradientUnits="userSpaceOnUse">
		<stop  offset="0" style="stop-color:#BE1622"/>
		<stop  offset="1" style="stop-color:#9E151A"/>
	</radialGradient>
	<polygon class="st4" points="151.3099365,102.4557648 179.5148315,62.6373291 151.3099365,22.8188992 123.1050415,62.6373291 	"/>
	
		<radialGradient id="SVGID_6_" cx="468.1812134" cy="62.6373329" r="39.8184319" gradientTransform="matrix(0.7083378 0 0 1 82.6875381 0)" gradientUnits="userSpaceOnUse">
		<stop  offset="0" style="stop-color:#BE1622"/>
		<stop  offset="1" style="stop-color:#9E151A"/>
	</radialGradient>
	<polygon class="st5" points="414.3179626,102.4557648 442.5228577,62.6373291 414.3179626,22.8188992 386.1130676,62.6373291 	"/>
	
		<radialGradient id="SVGID_7_" cx="96.8780746" cy="503.6239624" r="39.8184319" gradientTransform="matrix(0.7083378 0 0 1 82.6875381 0)" gradientUnits="userSpaceOnUse">
		<stop  offset="0" style="stop-color:#BE1622"/>
		<stop  offset="1" style="stop-color:#9E151A"/>
	</radialGradient>
	<polygon class="st6" points="151.3099365,543.4423828 179.5148315,503.6239624 151.3099365,463.805542 123.1050415,503.6239624 	
		"/>
	
		<radialGradient id="SVGID_8_" cx="468.1812134" cy="503.6239624" r="39.8184319" gradientTransform="matrix(0.7083378 0 0 1 82.6875381 0)" gradientUnits="userSpaceOnUse">
		<stop  offset="0" style="stop-color:#BE1622"/>
		<stop  offset="1" style="stop-color:#9E151A"/>
	</radialGradient>
	<polygon class="st7" points="414.3179626,543.4423828 442.5228577,503.6239624 414.3179626,463.805542 386.1130676,503.6239624 	
		"/>
</g>
</svg>
