<svg xmlns="http://www.w3.org/2000/svg" viewBox="0 0 566.93 566.93"><radialGradient id="a" cx="283.166" cy="283.13" r="232.778" gradientUnits="userSpaceOnUse"><stop offset="0" stop-color="#fff"/><stop offset=".993" stop-color="#f6f6f6"/><stop offset="1" stop-color="#f6f6f6"/></radialGradient><path d="M129.175 556.654c-16.096 0-29.191-13.096-29.191-29.191V38.799c0-16.097 13.095-29.192 29.191-29.192h307.982c16.097 0 29.192 13.095 29.192 29.192v488.664c0 16.095-13.095 29.191-29.192 29.191H129.175z" fill="url(#a)"/><path d="M437.157 12.107c14.741 0 26.692 11.95 26.692 26.691v488.665c0 14.741-11.95 26.691-26.692 26.691H129.175c-14.741 0-26.691-11.95-26.691-26.691V38.798c0-14.74 11.95-26.691 26.691-26.691h307.982m0-5H129.175c-17.475 0-31.691 14.217-31.691 31.691v488.665c0 17.475 14.216 31.691 31.691 31.691h307.982c17.475 0 31.692-14.216 31.692-31.691V38.798c0-17.474-14.217-31.691-31.692-31.691z"/><radialGradient id="b" cx="283.44" cy="283.377" r="90.364" gradientTransform="matrix(.70834 0 0 1 82.688 0)" gradientUnits="userSpaceOnUse"><stop offset="0" stop-color="#be1622"/><stop offset="1" stop-color="#9e151a"/></radialGradient><path fill="url(#b)" d="M283.459 373.74l64.008-90.363-64.008-90.364-64.008 90.364z"/><radialGradient id="c" cx="31.939" cy="745.791" r="141.741" gradientUnits="userSpaceOnUse"><stop offset="0" stop-color="#3c3c3b"/><stop offset="1"/></radialGradient><path d="M102.823 816.657c70.83 0 70.866-70.866 70.866-70.866s.036-42.816-70.866-70.866S31.92 604.06 31.92 604.06s.036 42.816-70.866 70.866-70.866 70.866-70.866 70.866.036 70.866 70.866 70.866c69.581 0 70.843-68.348 70.866-70.76-.024 141.696-70.866 141.627-70.866 141.627h141.77c-70.832 0-70.904-141.697-70.904-141.697s.072 70.83 70.903 70.83z" fill="url(#c)"/><radialGradient id="d" cx="-227.541" cy="70.866" r="141.742" gradientUnits="userSpaceOnUse"><stop offset="0" stop-color="#3c3c3b"/><stop offset="1"/></radialGradient><path d="M-156.675 141.714c70.866 0 70.866-70.831 70.866-70.831s0-70.902-70.866-70.902c0 0 .036-70.866-70.866-70.866v.038c-70.9 0-70.865 70.866-70.865 70.866-70.867 0-70.867 70.901-70.867 70.901s0 70.831 70.867 70.831c69.216 0 70.827-67.557 70.865-70.703-.043 141.638-70.865 141.57-70.865 141.57h141.732c-70.423 0-70.864-139.907-70.866-141.657.023 2.508 1.3 70.753 70.865 70.753z" fill="url(#d)"/><radialGradient id="e" cx="96.878" cy="62.637" r="39.818" gradientTransform="matrix(.70834 0 0 1 82.688 0)" gradientUnits="userSpaceOnUse"><stop offset="0" stop-color="#be1622"/><stop offset="1" stop-color="#9e151a"/></radialGradient><path fill="url(#e)" d="M151.31 102.456l28.205-39.819L151.31 22.82l-28.205 39.818z"/><radialGradient id="f" cx="468.181" cy="62.637" r="39.818" gradientTransform="matrix(.70834 0 0 1 82.688 0)" gradientUnits="userSpaceOnUse"><stop offset="0" stop-color="#be1622"/><stop offset="1" stop-color="#9e151a"/></radialGradient><path fill="url(#f)" d="M414.318 102.456l28.205-39.819-28.205-39.818-28.205 39.818z"/><radialGradient id="g" cx="96.878" cy="503.624" r="39.818" gradientTransform="matrix(.70834 0 0 1 82.688 0)" gradientUnits="userSpaceOnUse"><stop offset="0" stop-color="#be1622"/><stop offset="1" stop-color="#9e151a"/></radialGradient><path fill="url(#g)" d="M151.31 543.442l28.205-39.818-28.205-39.818-28.205 39.818z"/><radialGradient id="h" cx="468.181" cy="503.624" r="39.818" gradientTransform="matrix(.70834 0 0 1 82.688 0)" gradientUnits="userSpaceOnUse"><stop offset="0" stop-color="#be1622"/><stop offset="1" stop-color="#9e151a"/></radialGradient><path fill="url(#h)" d="M414.318 543.442l28.205-39.818-28.205-39.818-28.205 39.818z"/></svg>