<svg xmlns="http://www.w3.org/2000/svg" xmlns:xlink="http://www.w3.org/1999/xlink" viewBox="0 0 371.36 552.05"><defs><radialGradient id="b" cx="185.68" cy="276.02" r="232.78" gradientUnits="userSpaceOnUse"><stop offset="0" stop-color="#fff"/><stop offset="1" stop-color="#f6f6f6"/></radialGradient><radialGradient id="a" cx="185.96" cy="276.27" r="90.36" gradientTransform="matrix(.71 0 0 1 54.26 0)" gradientUnits="userSpaceOnUse"><stop offset="0" stop-color="#be1622"/><stop offset="1" stop-color="#9e151a"/></radialGradient><radialGradient id="c" cx="-.61" cy="55.53" r="39.82" xlink:href="#a"/><radialGradient id="d" cx="370.7" cy="55.53" r="39.82" xlink:href="#a"/><radialGradient id="e" cx="-.61" cy="496.52" r="39.82" xlink:href="#a"/><radialGradient id="f" cx="370.7" cy="496.52" r="39.82" xlink:href="#a"/></defs><rect x="2.5" y="2.5" width="366.36" height="547.05" rx="29.19" ry="29.19" fill="url(#b)"/><path d="M339.67 5a26.69 26.69 0 0 1 26.69 26.69v488.67a26.69 26.69 0 0 1-26.69 26.69h-308A26.69 26.69 0 0 1 5 520.36V31.69A26.69 26.69 0 0 1 31.69 5h308m0-5h-308A31.73 31.73 0 0 0 0 31.69v488.67a31.73 31.73 0 0 0 31.69 31.69h308a31.72 31.72 0 0 0 31.69-31.69V31.69A31.72 31.72 0 0 0 339.67 0z" fill="#1d1d1b"/><path fill="url(#a)" d="M185.97 366.63l64.01-90.36-64.01-90.36-64 90.36 64 90.36z"/><path fill="url(#c)" d="M53.83 95.35l28.2-39.82-28.2-39.82-28.21 39.82 28.21 39.82z"/><path fill="url(#d)" d="M316.83 95.35l28.21-39.82-28.21-39.82-28.2 39.82 28.2 39.82z"/><path fill="url(#e)" d="M53.83 536.34l28.2-39.82-28.2-39.82-28.21 39.82 28.21 39.82z"/><path fill="url(#f)" d="M316.83 536.34l28.21-39.82-28.21-39.82-28.2 39.82 28.2 39.82z"/></svg>