<svg xmlns="http://www.w3.org/2000/svg" viewBox="0 0 566.9 566.9"><path d="M375.6 11.2H191.4c-4.1 0-7.4 3.3-7.4 7.4v529.8c0 4.1 3.3 7.4 7.4 7.4h184.3c4.1 0 7.4-3.3 7.4-7.4V18.6c-.1-4.1-3.4-7.4-7.5-7.4z" fill="#977d52"/><radialGradient id="a" cx="283.465" cy="199.424" r="135.988" gradientUnits="userSpaceOnUse"><stop offset="0" stop-color="#876c3a"/><stop offset=".29" stop-color="#836939"/><stop offset=".56" stop-color="#7a6035"/><stop offset=".81" stop-color="#6a522f"/><stop offset="1" stop-color="#584429"/></radialGradient><circle cx="283.5" cy="199.4" r="136" fill="url(#a)"/><circle cx="350.5" cy="41.7" r="17.6"/><linearGradient id="b" gradientUnits="userSpaceOnUse" x1="283.465" y1="481.513" x2="283.465" y2="364.24"><stop offset="0" stop-color="#584429"/><stop offset="1" stop-color="#140a00"/></linearGradient><path d="M283.4 481.5h-32.9l14.4-59c-7.2-6-14.4-15.1-14.4-25.3 0-18.2 14.8-33 33-33s33 14.8 33 33c0 10.1-7.2 19.2-14.4 25.3l14.4 59h-33.1z" fill="url(#b)"/><circle cx="216.4" cy="41.7" r="17.6"/><circle cx="350.5" cy="525.3" r="17.6"/><circle cx="216.4" cy="525.3" r="17.6"/><path d="M375.6 11.2c4.1 0 7.4 3.3 7.4 7.4v88.2c22.6 24.3 36.4 56.8 36.4 92.6S405.6 267.7 383 292v256.4c0 4.1-3.3 7.4-7.4 7.4H191.4c-4.1 0-7.4-3.3-7.4-7.4V292.1c-22.6-24.3-36.5-56.9-36.5-92.7s13.9-68.4 36.5-92.7V18.6c0-4.1 3.3-7.4 7.4-7.4h184.2m0-5H191.4c-6.8 0-12.4 5.6-12.4 12.4v86.2c-23.5 26-36.5 59.5-36.5 94.6S155.4 268 179 294v254.4c0 6.8 5.6 12.4 12.4 12.4h184.3c6.8 0 12.4-5.6 12.4-12.4V294c23.5-26 36.4-59.5 36.4-94.5 0-35.1-12.9-68.6-36.4-94.5V18.6c-.1-6.9-5.6-12.4-12.5-12.4z" fill="#222220"/></svg>