<svg xmlns="http://www.w3.org/2000/svg" viewBox="0 0 281.98 554.66"><defs><radialGradient id="a" cx="140.99" cy="193.25" r="135.99" gradientUnits="userSpaceOnUse"><stop offset="0" stop-color="#876c3a"/><stop offset=".29" stop-color="#836939"/><stop offset=".56" stop-color="#7a6035"/><stop offset=".81" stop-color="#6a522f"/><stop offset="1" stop-color="#584429"/></radialGradient><linearGradient id="b" x1="140.99" y1="475.34" x2="140.99" y2="358.07" gradientUnits="userSpaceOnUse"><stop offset="0" stop-color="#584429"/><stop offset="1" stop-color="#140a00"/></linearGradient></defs><rect x="41.49" y="5" width="199.08" height="544.66" rx="7.41" ry="7.41" fill="#977d52" style="isolation:isolate"/><circle cx="140.99" cy="193.25" r="135.99" fill="url(#a)" style="isolation:isolate"/><circle cx="208.04" cy="35.5" r="17.63"/><path d="M140.94 475.34H108l14.39-59C115.21 410.25 108 401.18 108 391a33 33 0 1 1 66 0c0 10.15-7.18 19.22-14.4 25.27l14.4 59h-33z" fill="url(#b)"/><circle cx="73.94" cy="35.5" r="17.63"/><circle cx="208.04" cy="519.09" r="17.63"/><circle cx="73.94" cy="519.09" r="17.63"/><path d="M233.16 5a7.41 7.41 0 0 1 7.41 7.41v88.25a135.95 135.95 0 0 1 0 185.19v256.39a7.42 7.42 0 0 1-7.41 7.42H48.9a7.41 7.41 0 0 1-7.41-7.42V285.93a135.94 135.94 0 0 1 0-185.36V12.41A7.41 7.41 0 0 1 48.9 5h184.26m0-5H48.9a12.42 12.42 0 0 0-12.41 12.41v86.21a140.95 140.95 0 0 0 0 189.26v254.36a12.42 12.42 0 0 0 12.41 12.42h184.26a12.43 12.43 0 0 0 12.41-12.42V287.79a140.94 140.94 0 0 0 0-189.08v-86.3A12.43 12.43 0 0 0 233.16 0z" fill="#222220"/></svg>