<?xml version="1.0" encoding="utf-8"?>
<!-- Generator: Adobe Illustrator 22.1.0, SVG Export Plug-In . SVG Version: 6.00 Build 0)  -->
<svg version="1.1" xmlns="http://www.w3.org/2000/svg" xmlns:xlink="http://www.w3.org/1999/xlink" x="0px" y="0px"
	 viewBox="0 0 566.9 566.9" style="enable-background:new 0 0 566.9 566.9;" xml:space="preserve">
<style type="text/css">
	.st0{fill:#977D52;enable-background:new    ;}
	.st1{fill:url(#SVGID_1_);enable-background:new    ;}
	.st2{fill:url(#SVGID_2_);}
	.st3{enable-background:new    ;}
	.st4{fill:#222220;}
</style>
<g id="Laag_1">
</g>
<g id="Laag_6">
	<path class="st0" d="M375.6,11.2H191.4c-4.1,0-7.4,3.3-7.4,7.4v529.8c0,4.1,3.3,7.4,7.4,7.4h184.3c4.1,0,7.4-3.3,7.4-7.4V18.6
		C383,14.5,379.7,11.2,375.6,11.2z"/>
	<radialGradient id="SVGID_1_" cx="283.4646" cy="199.4241" r="135.9883" gradientUnits="userSpaceOnUse">
		<stop  offset="0" style="stop-color:#876C3A"/>
		<stop  offset="0.29" style="stop-color:#836939"/>
		<stop  offset="0.56" style="stop-color:#7A6035"/>
		<stop  offset="0.81" style="stop-color:#6A522F"/>
		<stop  offset="1" style="stop-color:#584429"/>
	</radialGradient>
	<circle class="st1" cx="283.5" cy="199.4" r="136"/>
	<circle cx="350.5" cy="41.7" r="17.6"/>
	<linearGradient id="SVGID_2_" gradientUnits="userSpaceOnUse" x1="283.4646" y1="481.5134" x2="283.4646" y2="364.2397">
		<stop  offset="0" style="stop-color:#584429"/>
		<stop  offset="1" style="stop-color:#140A00"/>
	</linearGradient>
	<path class="st2" d="M283.4,481.5h-32.9l14.4-59h0c-7.2-6-14.4-15.1-14.4-25.3c0-18.2,14.8-33,33-33s33,14.8,33,33
		c0,10.1-7.2,19.2-14.4,25.3h0l14.4,59h-32.9H283.4z"/>
	<circle cx="216.4" cy="41.7" r="17.6"/>
	<circle cx="350.5" cy="525.3" r="17.6"/>
	<circle cx="216.4" cy="525.3" r="17.6"/>
	<g class="st3">
		<path class="st4" d="M375.6,11.2c4.1,0,7.4,3.3,7.4,7.4v88.2c22.6,24.3,36.4,56.8,36.4,92.6S405.6,267.7,383,292v256.4
			c0,4.1-3.3,7.4-7.4,7.4H191.4c-4.1,0-7.4-3.3-7.4-7.4V292.1c-22.6-24.3-36.5-56.9-36.5-92.7s13.9-68.4,36.5-92.7V18.6
			c0-4.1,3.3-7.4,7.4-7.4H375.6 M375.6,6.2H191.4c-6.8,0-12.4,5.6-12.4,12.4v86.2c-23.5,26-36.5,59.5-36.5,94.6s12.9,68.6,36.5,94.6
			v254.4c0,6.8,5.6,12.4,12.4,12.4h184.3c6.8,0,12.4-5.6,12.4-12.4V294c23.5-26,36.4-59.5,36.4-94.5c0-35.1-12.9-68.6-36.4-94.5
			V18.6C388,11.7,382.5,6.2,375.6,6.2L375.6,6.2z"/>
	</g>
</g>
</svg>
