<?xml version="1.0" encoding="utf-8"?>
<!-- Generator: Adobe Illustrator 22.1.0, SVG Export Plug-In . SVG Version: 6.00 Build 0)  -->
<svg version="1.1" xmlns="http://www.w3.org/2000/svg" xmlns:xlink="http://www.w3.org/1999/xlink" x="0px" y="0px"
	 viewBox="0 0 566.9 566.9" style="enable-background:new 0 0 566.9 566.9;" xml:space="preserve">
<style type="text/css">
	.st0{display:none;}
	.st1{display:inline;}
	.st2{display:inline;fill:#2FAC66;}
	.st3{display:inline;fill:#FFFFFF;}
	.st4{display:inline;fill:#006633;}
	.st5{display:inline;fill:#F5A680;}
	.st6{fill:#CD4A16;}
	.st7{fill:#F5A680;}
	.st8{fill:#FDC848;}
	.st9{fill:#3C3C3B;}
	.st10{display:inline;fill:#855013;}
	.st11{display:none;fill:none;}
	.st12{fill:#F9B233;}
	.st13{fill:url(#SVGID_1_);}
	.st14{fill:url(#SVGID_2_);}
	.st15{fill:url(#SVGID_3_);}
	.st16{fill:url(#SVGID_4_);}
	.st17{fill:url(#SVGID_5_);}
	.st18{fill:url(#SVGID_6_);}
	.st19{fill:url(#SVGID_7_);}
	.st20{fill:url(#SVGID_8_);}
	.st21{fill:url(#SVGID_9_);}
	.st22{fill:url(#SVGID_10_);}
	.st23{fill:#010202;}
	.st24{fill:url(#SVGID_11_);}
</style>
<g id="Laag_1" class="st0">
	<path class="st1" d="M112.1,386c-9.5-7.1-19-14-28.3-21.1c-3.3-2.6-2.9-6.5,1-8.3c1.7-0.8,4.2,0.3,6.4,0.6c0.9,0.1,1.8,0.4,2.8,0.6
		c0.2-1.1,0.6-2.3,0.4-3.4c-0.3-2.5-1.1-5-1.2-7.5c-0.1-4.9,4.1-7.6,8.2-4.9c7.1,4.9,13.9,10.3,20.6,15.7c2.2,1.8,3.7,4.4,5.7,6.4
		c1.8,1.9,3.2,0.3,4.2-1.1c2.3-3,4.7-6,6.8-9.1c0.8-1.3,1.7-3.4,1.2-4.5c-2.7-6-1-11.9,0.6-17.6c0.5-1.7,2.5-3,3.8-4.4
		c11.3-12.5,22.6-25,34-37.6c7.2-8,14.7-15.8,21.6-24.1c3.9-4.7,6.9-10.1,10.4-15.1c2.9-4.2,6.2-8.2,9-12.5
		c4.7-7.2,9-14.6,13.7-21.7c2.5-3.8,5.6-7.2,8.4-10.9c8.5-11.3,17-22.7,25.5-34c5.9-7.7,11.8-15.4,18-22.9c0.9-1.1,3.5-1.2,5.2-1.1
		c2.2,0.1,4.3,0.7,6.4,1.4c4.8,1.7,9.6,3.3,14.2,5.4c2,0.9,3.3,3.3,5.2,4.8c0.6,0.5,2.4,0.4,2.7,0c5.2-9.2,10.1-18.5,15.5-27.5
		c2-3.3,0.4-4.1-1.8-5.4c-3.2-1.8-6.4-3.5-9.5-5.6c-7.5-5-14.6-10.6-22.4-14.9c-4.3-2.4-9.8-3.1-14.8-3.8
		c-5.4-0.7-10.9-0.7-16.3-0.4c-2.4,0.1-5.1,1-6.9,2.4c-5,3.9-9.9,2.8-15,0.8c-0.8-0.3-1.6-1.9-1.5-2.8c0.3-3.3,0.6-6.7,1.6-9.8
		c3.6-11.5,8.8-22.1,18.3-29.9c8.6-7,18.4-8.3,29.4-6.6c11.4,1.8,21.2,6.8,31.2,11.8c7.3,3.6,14.5,7.3,21.8,10.9
		c0.8,0.4,2.4,0.8,2.9,0.4c7-6,15.5-5,23.3-4.2c6,0.6,11.5,3.7,16.1,8.8c3.9,4.3,6.7,8.8,8.7,14c0.9,2.3,1.2,4.9,1.8,7.4
		c0.3,1.1,0.7,2.1,1.2,3.6c8-4.6,15.9-7.8,25-6.6c8.4,1.1,16.9,2.2,23.8,7.7c4,3.1,6.3,7.4,7.9,12.4c2.3,7.1,0.7,13.7-0.7,20.5
		c-0.2,0.9,1.8,3,3,3.2c6.6,1.2,12.4,4.3,16.9,8.9c2.5,2.6,3.6,6.8,5,10.4c2.4,6.3,0.1,12.7-0.2,19.1c-0.2,3.8-2,7.6-2.9,11.1
		c11,8.7,24,15,29.3,28.8c3.2,8.3,3.5,17-2,24.9c-2.9,4.2-5.6,8.7-9.1,12.4c-3,3.2-6.9,5.5-10.3,8.2c-0.5,0.4-1.1,0.8-1.4,1.3
		c-2.6,4.2-6.7,6.2-11.3,7.5c-3.5,1-6.8-2-6.9-5.6c-0.2-7.5,0.5-15.3-1.6-22.3c-2.1-6.9-6.5-13.5-11.2-19.1c-2.6-3.1-8-4-12.1-5.8
		c-4.1-1.9-8.3-3.8-12.5-5.5c-1.3-0.5-3-1-4.1-0.6c-9,3.6-17,8.8-24.6,14.6c-2.9,2.2-1.8,5.1-1,7.6c1.1,3.3,3.1,6.4,4.3,9.7
		c3.3,9.9,6.6,19.8,9.5,29.8c1.5,5.2,3,10.6,3.3,15.9c0.3,5.7-0.8,11.5-1.3,17.3c-0.1,0.8-0.2,1.6-0.2,2.4c0.2,10.8-2.4,20.8-6.1,31
		c-3.1,8.6-7,16.6-12.1,24.1c-4.6,6.7-9.2,13.6-14.7,19.4c-4.2,4.5-9.9,7.5-15,11.2c-0.5,0.4-1.4,0.3-1.9,0.7
		c-10,7.9-22.2,11.1-33.7,15.9c-6.5,2.7-13,5.2-19.6,7.5c-8.6,3-17.5,5.4-26,8.9c-6.6,2.7-10.9,4.4-17.1,8c-4,2.3-6.2,3.1-11.4,3.6
		c-1.1,0.1-4.1,0.3-6,0.1c-6.1-0.2-8.8-0.3-13.3-1c-4.6-0.7-8.9-2.7-13.4-4c-1.3-0.4-2.7-0.4-5.1-0.8c2.7,3.9,4.6,7.1,6.8,10
		c4.3,5.4,6.8,11.2,7.1,18.3c0.1,4.1,2.8,8.1,4.3,12.2c0.9,2.6,1.6,5.9-1.1,7.1c-2.3,1.1-5.7,0.9-8.3,0.1c-2.3-0.7-4.2-2.9-6.2-4.5
		c-0.7,1.8-0.9,4.4-2.2,5.6c-3.2,2.8-9.1,1.9-11.2-1.7c-2.1-3.5-3.4-7.5-4.8-11.4c-2.7-7.3-5.3-14.7-7.9-22.1
		c-1.2-3.4-2.5-6.7-3.3-10.2c-0.6-2.4-1.1-4.7,1.6-6.9c4.4-3.6,3.8-8.8-0.8-11.9c-3.4-2.3-6.6-4.7-10.9-7.7
		c-1.1,3.3-2.9,6.4-3.1,9.5c-0.7,8.8-3,17.1-6.3,25.3c-1.1,2.7-1.5,5.6-2,8.5c-0.7,3.8-5.4,7.7-9.3,7.5c-3.4-0.2-7.1-4.4-7-8.3
		c0.1-2.4,0.7-4.7,1-7.1c0.1-0.7-0.1-2-0.4-2.1c-0.7-0.2-1.8-0.1-2.3,0.4c-2.5,2.1-4.5,5.1-7.3,6.4c-2,0.9-5.2,0.4-7.4-0.5
		c-3.5-1.6-2-5.2-1.2-7.5c1.7-5,4.3-9.8,6.5-14.6c2.8-6.2,5.1-12.7,8.5-18.6c2.7-4.8,6.6-8.8,9.8-13.3c0.7-1.1,0.5-2.8,0.7-4.3
		c-1.2,0.4-3.3,0.5-3.6,1.3c-3.3,8.4-10.3,11.3-18.3,13c-5.3,1.1-10.6,2.5-15.9,3.3c-6.1,0.8-12.3,1-18.4,1.7
		c-3,0.3-4.8-1.2-6.1-3.5c-1.3-2.3,0.5-3.5,1.9-5c4.9-5.7,4.8-5.6-1.4-9.6c-1.8-1.2-3.7-3.1-4.4-5.1c-1-3,2.5-6.8,6.2-7.7
		C107.1,387.2,109.9,386.5,112.1,386z M391.2,263.6c-5.9-0.9-11.3-1.5-16.6-2.6c-4.5-0.9-9.1-1.8-13.1-3.9
		c-8.1-4.2-16-8.8-23.5-13.9c-8.7-5.9-17.1-12.2-23-21.2c-6.6-9.9-13.6-19.6-19.8-29.8c-5-8.3-8.3-17.4-10.5-26.9
		c-0.1-0.6-0.6-1.3-1-1.4c-0.5-0.2-1.4,0.1-1.7,0.5c-1.8,2.4-3.4,4.9-5.2,7.4c-6.1,8.6-12.2,17.3-18.5,25.9
		c-4,5.5-8.6,10.6-12.6,16.2c-5.8,8-11.3,16.3-16.9,24.5c-6.8,9.8-13.5,19.6-20.5,29.3c-3.4,4.8-6.8,9.5-10.7,13.9
		c-6.6,7.5-13.6,14.6-20.4,21.9c-7.2,7.8-14.2,15.7-21.7,23.3c-6.2,6.3-9.5,14.1-8.1,22.4c1.5,8.7,5.1,17.1,8.5,25.4
		c3.1,7.6,7.8,14.4,13.6,20.2c7.1,7.1,13.8,14.9,22.1,20.2c11.9,7.7,24.2,15.4,38.1,19.4c4.9,1.4,9.4,3.5,15.2,2.7
		c6.7-0.9,10-5.2,13.3-9.4c6.9-8.6,12.9-17.9,19.5-26.8c5.5-7.4,11.3-14.5,17-21.7c4.6-5.8,9-11.7,13.8-17.3
		c6.7-7.8,13.9-15.1,20.5-23c8.8-10.5,17-21.5,25.7-32.1c5.4-6.6,11.4-12.8,17-19.3c5.6-6.6,10.8-13.4,16.2-20.1
		C389,266,390.1,264.8,391.2,263.6z M296.7,95c11.8,3.2,20.4,10.3,29.3,16.8c5.5,4,11.3,7.6,17.1,11c3.7,2.1,4.4,3.9,2.1,7.5
		c-6.7,10.6-13.3,21.3-19.9,32c-3.3,5.3-6.5,10.7-9.9,16c-2.9,4.6-6.1,9-9,13.5c-0.3,0.5,0,1.4,0,2.2c0.3,0.2,0.6,0.4,0.9,0.6
		c2.9-3.3,6.2-6.2,8.5-9.8c6.2-9.5,13-18.6,21.1-26.4c2.9-2.8,7.1-5.8,10.7-5.7c7.7,0.2,14.6-3,22-3.9c1-0.1,2.3-1.5,2.7-2.6
		c1.3-3.5,2-7.4,3.6-10.8c2.5-5.3,4.9-11,8.8-15.1c3.6-3.8,6.1-7.1,5.8-12.5c-0.4-7.7-2.6-14.7-7.9-20.2c-6.3-6.6-22.3-8.2-28.4-0.1
		c-1.8,2.4-4.9,3.3-7.5,1.4c-6.9-4.9-13.9-9.2-21.8-12.3c-5.9-2.3-11.5-5.6-18.4-9.1C308,78.5,303.6,86.9,296.7,95z M395.7,274.4
		c-0.6-0.2-1.1-0.4-1.7-0.5c-1.8,2.3-3.5,4.8-5.5,7c-6.7,7.6-13.5,15.1-20.1,22.7c-7.8,9.1-15.3,18.4-23.1,27.6
		c-10.3,12.3-20.9,24.4-31,36.8c-11.4,13.9-22.6,28-33.8,42.1c-3.1,4-5.7,8.3-8.6,12.5c0.2,0.3,0.4,0.6,0.6,0.8
		c0.9-0.3,1.9-0.4,2.7-0.9c2.8-1.8,5.4-3.8,8.1-5.5c8.5-5.2,17.3-10,25.5-15.6c6.2-4.2,11.8-9.1,17.5-14c7.7-6.6,16-12.8,22.5-20.4
		c6.1-7.2,13.5-13.6,17.7-22.5c3.1-6.6,8.6-12,11.7-18.6c5.5-11.5,10.4-23.4,14.8-35.4C395,285.6,394.9,279.9,395.7,274.4z
		 M297.5,420.1c0.4,0.3,0.7,0.5,1.1,0.8c3.7-0.8,7.7-1,11-2.6c7.4-3.4,15.8-4,22.6-9.2c2.6-2,6.6-2.1,9.8-3.6
		c9.2-4.5,18.9-7.6,27.3-14.1c6.6-5.1,11.5-11.2,16.3-17.6c8.2-11.2,15.3-23.1,19.1-36.6c1.3-4.8,2.9-9.7,3.4-14.7
		c0.9-8.4,1.7-16.9,1.5-25.4c-0.1-6-1.8-12.1-2.9-18.7c-1.1,0.9-1.4,1.1-1.5,1.2c-0.7,3.8-1,7.7-2.2,11.3
		c-2.6,7.7-5.3,15.5-8.7,22.9c-4.2,9.2-8.8,18.2-13.9,26.9c-4.2,7.1-8.6,14.3-14.1,20.4c-9.5,10.4-19.4,20.5-30.1,29.6
		c-10.5,9-22.1,16.5-33.2,24.8C301.1,417,299.3,418.6,297.5,420.1z M491.6,214.6c-5-3.9-9.1-7.4-13.5-10.3c-6.2-4-7.7-6.2-6.6-12.4
		c0.7-3.8,1.8-7.6,2.3-11.4c0.6-4.6,1.1-9.4,0.7-14c-0.2-2.6-1.7-5.6-3.7-7.3c-4.3-3.8-9.4-6-15.6-5.6c-3.1,0.2-4.8,1.3-6.1,3.8
		c-0.7,1.4-1,3-1.9,4.4c-1.7,2.6,0,5.4-0.5,7.9c-1,5-2.7,9.9-4.5,14.8c-1.9,5.1-4.5,9.8-8.9,13.6c-4.7,4.2-8.8,9.1-13.6,14.2
		c2.4-0.6,4.3-1.1,6.1-1.5c6-1.4,11,1.9,16.3,3.8c2.6,0.9,5.6,0.6,8.1,1.7c6.8,3,13.1,7,18.1,12.8c0.5,0.6,2.8,0.6,3.6-0.1
		c4-3,7.6-6.5,11.6-9.5C485.6,217.8,488.1,216.6,491.6,214.6z M380.4,145.8c0.5,0.3,1.1,0.5,1.6,0.8c1.2-2.1,2.4-4.2,3.5-6.4
		c2.3-4.1,3.9-9.2,8.8-10.6c4.7-1.3,9.8-2,14.6-1.5c4.5,0.5,9.6,2,13,4.8c5.4,4.4,9.6,10.3,14.4,15.5c0.9,1,1.8,1.9,2.8,2.7
		c0.6,0.5,1.9,1.1,2.3,0.8c0.6-0.4,1-1.6,0.9-2.4c-0.1-1.5-0.7-3.1-1.2-5.1c2.1-0.2,3.9-0.4,6.7-0.7c0.8-4.6,2.5-9.5,2.4-14.3
		c-0.1-6.2-1.5-12.6-8.1-15.6c-2.7-1.2-5.8-1.6-8.6-2.5c-8.7-2.9-16.9-1.8-24.6,3.1c-2.6,1.7-5.3,3.9-8.2,4.4
		c-4.3,0.8-6.4,3.8-8.9,6.6c-1.1,1.2-2,2.7-2.8,4.1C386.1,135,383.2,140.4,380.4,145.8z M405.1,209.2c1.1-0.3,2.1-0.3,2.8-0.9
		c5.5-4.4,11.1-8.6,16.4-13.3c2.5-2.2,4.8-4.8,6.3-7.7c2-3.7,3.4-7.8,4.7-11.8c0.9-2.7,1.8-5.8,1.4-8.4c-0.8-4.9-7.3-8.1-12.2-6.5
		c-8.2,2.6-14.9,7.4-19.3,14.8c-1.5,2.4-1.8,5.8-1.8,8.7c0.1,7.4,0.8,14.7,1.2,22.1C404.8,207.1,405,208,405.1,209.2z M256,94.4
		c5.3-0.8,10.5-1.6,15.8-2.4c0.3,0,0.5-0.2,0.8-0.2c3.9-0.3,8.2-1.8,11.6-0.6c3.6,1.2,5,0.4,6.6-2.2c3.9-6.4,8.7-12.4,7.1-20.8
		c-0.4-2.4-0.9-3.7-3.6-3.6c-4.7,0.1-9.5-0.2-14.1,0.2c-2.3,0.2-4.9,1.2-6.7,2.7C264.6,74.6,258.4,83.6,256,94.4z M380.9,152.9
		c-3.6,5.8-6.3,11.1-9.9,15.9c-6.2,8.3-13.2,16.1-19.4,24.4c-7,9.3-13.2,19.2-20.2,28.5c-1.8,2.4-1.4,3.7,0.5,5.2
		c3.3,2.6,4.9,1.9,8-2.3c7.1-9.6,14.1-19.3,21.8-28.2c7.1-8.3,14.6-16.6,27.2-19.1C383.2,170,378.2,162.8,380.9,152.9z M427.1,151.6
		c-3.2-6.2-7.9-10.7-13.7-13.6c-7.8-4-12.7-2.5-17.2,5.2c-2.5,4.2-2.4,8.8-4.4,12.9c-2.8,5.8-0.2,12.2,5.8,15.1
		C405.2,161.8,414.1,154.3,427.1,151.6z M480.2,264.1c20.3-11.8,25.7-28.5,16.2-41.3c-2.6,1-5.7,1.5-7.9,3.1
		c-4.1,2.9-7.9,6.3-11.4,9.8c-2.1,2.1-3.3,4.5-1,7.9c1.5,2.2,1.7,5.3,2.2,8C479,255.7,479.5,259.9,480.2,264.1z M356.7,244.8
		c6.5-8.2,12.3-15.6,18.3-23c3-3.6,3-5-0.6-8.5c-2.1-2.1-4.6-3.9-6.6-6.1c-1.7-1.8-2.9-1.4-4.2,0.3c-6.5,8.5-13.1,17.1-19.5,25.7
		c-0.5,0.7-0.1,3.1,0.6,3.7C348.5,239.7,352.5,242.1,356.7,244.8z M345.7,186c-3.8-2.5-7.1-4.3-10.1-6.7c-2-1.5-3.3-1.5-4.6,0.4
		c-3.5,4.9-6.8,10.1-10.5,14.9c-2.1,2.8-1,7.2-5.4,12.2c3.7,5.4,2.8,4.3,6.1,8.5c0.4,0.6,3.3,0.3,3.9-0.5c6.2-8,12.2-16.1,18.2-24.2
		C344.2,189.2,344.9,187.5,345.7,186z M103.9,354.5c-0.4,3.9-0.2,6.5-1.1,8.6c-1.7,3.8-0.2,5.7,3.1,7.1c0.8,0.3,1.5,0.9,2.3,1.4
		c6.1,4,13,6.5,18.1,12.1c1.6,1.7,4.9,4.4,7.9,1c2.6-2.8,5.3-5.5,7.7-8.5c3.1-3.9,4.1-8.2,0.5-12.6c-0.8,0.9-1.7,1.7-2.2,2.7
		c-1.9,3.6-4,6.7-7.8,8.9c-3.4,1.9-5.8,1.2-8.2-1.1C117.6,367.7,111,361.3,103.9,354.5z M167,446.5c3.1-6.3,4.1-12.6,4.3-19.2
		c0.1-4,1.7-8.2,3.5-11.9c1.3-2.6,1.2-4.2-0.8-5.8c-2.3-1.9-3.4,0.6-4.4,1.8c-5.3,6-9.1,12.9-11.8,20.5c-0.6,1.8-1.2,3.7-1.9,6.1
		C161.1,436.3,162.7,437.7,167,446.5z M390.3,218.9c0.6,3.4,0.4,6.7-3.5,7.3c-5.3,0.8-7.5,4.7-10.1,8.6c-3.3,5-7.2,9.6-11,14.5
		c2.6,0.8,5.2,1.5,6.6,2c5.5-5.9,10.1-11.1,15.1-16c5.1-5,10.5-9.6,15.2-13.9C399,220.7,394.9,219.9,390.3,218.9z M367.9,158.1
		c-0.2-0.2-0.5-0.5-0.7-0.7c-3.3,1-6.5,2.3-9.9,2.9c-5.1,0.8-10,1.6-14.3,5.1c-3.8,3.1-4,5-0.1,8c2.9,2.2,5.5,4.8,8.3,7.3
		C358.2,174.6,362.1,165.7,367.9,158.1z M396.1,194.5c-0.4-0.2-0.7-0.5-1.1-0.7c0-1.1,0.2-2.2,0-3.2c-0.5-2.6-3.5-4.7-5.6-3.6
		c-4.5,2.5-9.2,4.8-13.3,8c-4.8,3.7-4.6,4.1-0.3,8.4c7.6,7.6,5.8,7,13.4,0.5C392.1,201.4,393.9,197.7,396.1,194.5z M223.7,461.8
		c-1.1-1.9-2-3.9-3.3-5.7c-2.4-3.4-5.5-6.5-7.4-10.1c-1.3-2.4-4.3-5.1-1.5-8.6c0.3-0.4-0.1-2.2-0.5-2.3c-1.1-0.3-2.9-0.5-3.4,0.1
		c-2.1,2.8-5,5.5-3.7,9.5c2.9,8.8,6,17.6,9,26.2C214.2,461,216.2,459.2,223.7,461.8z M293.4,158.6c2.3,7.9,4.2,14.9,6.4,21.8
		c0.1,0.4,2.6,0.6,3,0.1c2.7-3,5.4-6.1,7.6-9.5c1-1.5,1.9-4.5,1.1-5.4C307.2,160.7,301.3,159.1,293.4,158.6z M123.3,396.1
		c0.3,0.7,0.4,1.2,0.7,1.6c2.8,3.3,1.6,5.1-1.9,6.8c-1.7,0.8-2.9,2.4-4.6,3.8c9.5,2.3,31.6-4.7,33.7-10
		C142.1,397.5,132.8,396.8,123.3,396.1z M382.1,254.4c3.8,1.4,7.2-1.5,10.5-3.3c0.9-0.5,0.3-4,0.3-6.1c-1.3,0.4-3.1,0.5-3.9,1.4
		C386.5,248.9,384.3,251.7,382.1,254.4z"/>
	<path class="st1" d="M465.5,445.1c-0.5,10.7-5.2,18.6-14.8,24c-5.4,3-10.8,5-16.9,4.7c-11.2-0.6-20-5.7-27.2-14.1
		c-4.7-5.5-6.8-11.6-6.4-18.9c0.5-11.1,12-26.3,22.8-28.4c5.4-1,11.2-1.4,16.5,1.4c1.9,1,4.2,1.5,6.3,2.2
		C456.2,420,466.1,432.6,465.5,445.1z M432.9,465.3c4.4-1.5,9.1-2.5,13.1-4.7c7.5-4.1,11.7-14.3,8.6-22.9c-1.4-3.8-5.1-4.1-7.4-6.5
		c-3.3-3.4-6.8-7.7-11-8.9c-5.6-1.6-12.5-2.9-16.9,3.8c-1,1.5-2.6,2.6-4.1,3.6c-6.1,4.1-8.2,15.2-4.5,21.3
		C415.5,459.2,422.5,464.2,432.9,465.3z"/>
	<path class="st2" d="M391.2,263.6c-1,1.2-2.2,2.4-3.2,3.7c-5.4,6.7-10.7,13.5-16.2,20.1c-5.5,6.5-11.5,12.7-17,19.3
		c-8.7,10.6-16.9,21.6-25.7,32.1c-6.6,7.9-13.8,15.2-20.5,23c-4.8,5.6-9.2,11.5-13.8,17.3c-5.7,7.2-11.5,14.3-17,21.7
		c-6.6,8.8-12.7,18.1-19.5,26.8c-3.3,4.2-6.6,8.5-13.3,9.4c-5.8,0.8-10.3-1.3-15.2-2.7c-13.9-4-26.1-11.7-38.1-19.4
		c-8.3-5.3-15-13.2-22.1-20.2c-5.8-5.8-10.5-12.6-13.6-20.2c-3.4-8.2-7-16.7-8.5-25.4c-1.4-8.3,1.9-16.1,8.1-22.4
		c7.4-7.6,14.4-15.5,21.7-23.3c6.8-7.3,13.8-14.4,20.4-21.9c3.9-4.4,7.3-9.1,10.7-13.9c6.9-9.7,13.7-19.5,20.5-29.3
		c5.6-8.2,11.1-16.4,16.9-24.5c4-5.5,8.5-10.7,12.6-16.2c6.3-8.5,12.3-17.2,18.5-25.9c1.7-2.4,3.4-5,5.2-7.4
		c0.3-0.4,1.2-0.7,1.7-0.5c0.5,0.1,0.9,0.9,1,1.4c2.2,9.5,5.5,18.6,10.5,26.9c6.2,10.2,13.2,19.9,19.8,29.8c6,8.9,14.3,15.3,23,21.2
		c7.5,5.1,15.4,9.7,23.5,13.9c4,2.1,8.7,3,13.1,3.9C379.9,262.1,385.2,262.7,391.2,263.6z"/>
	<path class="st3" d="M395.7,274.4c-0.8,5.4-0.7,11.2-2.6,16.3c-4.4,12-9.3,23.9-14.8,35.4c-3.1,6.6-8.6,12-11.7,18.6
		c-4.3,8.9-11.6,15.3-17.7,22.5c-6.5,7.7-14.8,13.8-22.5,20.4c-5.6,4.9-11.3,9.8-17.5,14c-8.3,5.6-17,10.4-25.5,15.6
		c-2.8,1.7-5.4,3.7-8.1,5.5c-0.8,0.5-1.8,0.6-2.7,0.9c-0.2-0.3-0.4-0.6-0.6-0.8c2.8-4.2,5.5-8.6,8.6-12.5
		c11.2-14.1,22.4-28.2,33.8-42.1c10.2-12.4,20.7-24.5,31-36.8c7.7-9.2,15.3-18.5,23.1-27.6c6.6-7.7,13.4-15.1,20.1-22.7
		c1.9-2.2,3.7-4.7,5.5-7C394.5,274,395.1,274.2,395.7,274.4z"/>
	<path class="st4" d="M297.5,420.1c1.8-1.5,3.6-3.1,5.5-4.5c11.1-8.2,22.8-15.8,33.2-24.8c10.7-9.1,20.6-19.2,30.1-29.6
		c5.5-6,9.9-13.2,14.1-20.4c5.1-8.7,9.7-17.7,13.9-26.9c3.4-7.4,6.1-15.2,8.7-22.9c1.2-3.6,1.5-7.5,2.2-11.3c0-0.2,0.4-0.3,1.5-1.2
		c1.1,6.6,2.8,12.6,2.9,18.7c0.1,8.5-0.6,17-1.5,25.4c-0.6,5-2.1,9.8-3.4,14.7c-3.8,13.5-10.9,25.4-19.1,36.6
		c-4.7,6.4-9.7,12.5-16.3,17.6c-8.4,6.5-18.1,9.6-27.3,14.1c-3.1,1.5-7,3.6-10.5,4.9c-9.6,4-14.4,4.5-21.8,7.9
		c-3.4,1.6-7.3,1.8-11,2.6C298.2,420.6,297.8,420.4,297.5,420.1z"/>
	<path class="st5" d="M427.1,151.6c-13,2.7-21.9,10.2-29.5,19.6c-6.1-3-8.7-9.3-5.8-15.1c2-4.1,2-8.7,4.4-12.9
		c4.5-7.7,9.4-9.2,17.2-5.2C419.3,140.9,423.9,145.4,427.1,151.6z"/>
	<g class="st1">
		<path class="st6" d="M405.1,209.2c-0.2-1.2-0.3-2.1-0.4-3c-0.5-7.4-1.1-14.7-1.2-22.1c-0.1-2.9,0.3-6.3,1.8-8.7
			c4.5-7.3,11.2-12.1,19.3-14.8c4.9-1.6,11.4,1.6,12.2,6.5c0.4,2.7-0.5,5.7-1.4,8.4c-1.3,4-2.7,8.1-4.7,11.8
			c-1.6,2.9-3.9,5.5-6.3,7.7c-5.3,4.6-10.9,8.9-16.4,13.3C407.3,208.8,406.2,208.9,405.1,209.2z"/>
		<path class="st6" d="M256,94.4c2.4-10.8,8.6-19.8,17.5-27c1.8-1.5,4.4-2.5,6.7-2.7c4.7-0.4,9.4,0,14.1-0.2
			c2.7-0.1,3.2,1.2,3.6,3.6c1.5,8.4-3.2,14.4-7.1,20.8c-1.6,2.7-3,3.5-6.6,2.2c-3.4-1.2-7.7,0.3-11.6,0.6c-0.3,0-0.5,0.2-0.8,0.2
			C266.5,92.8,261.3,93.6,256,94.4z"/>
		<path class="st6" d="M480.2,264.1c-0.7-4.2-1.2-8.4-2-12.5c-0.5-2.7-0.8-5.8-2.2-8c-2.3-3.3-1.1-5.8,1-7.9
			c3.6-3.5,7.3-6.9,11.4-9.8c2.3-1.6,5.3-2.2,7.9-3.1C505.9,235.5,500.5,252.3,480.2,264.1z"/>
	</g>
	<g class="st1">
		<path class="st7" d="M296.7,95c6.9-8,11.4-16.5,9.9-27.6c6.9,3.5,12.4,6.8,18.4,9.1c7.9,3.1,14.9,7.4,21.8,12.3
			c2.7,1.9,5.8,0.9,7.5-1.4c6.1-8.1,22.1-6.4,28.4,0.1c5.3,5.5,7.5,12.5,7.9,20.2c0.3,5.5-2.3,8.7-5.8,12.5
			c-3.9,4.2-6.3,9.9-8.8,15.1c-1.6,3.4-2.2,7.2-3.6,10.8c-0.4,1.1-1.7,2.4-2.7,2.6c-7.4,0.9-14.3,4-22,3.9c-3.6-0.1-7.8,3-10.7,5.7
			c-8.2,7.8-14.9,16.9-21.1,26.4c-2.3,3.6-5.7,6.6-8.5,9.8c-0.3-0.2-0.6-0.4-0.9-0.6c0-0.7-0.3-1.7,0-2.2c2.9-4.5,6.1-8.9,9-13.5
			c3.4-5.3,6.6-10.7,9.9-16c6.6-10.7,13.2-21.4,19.9-32c2.3-3.6,1.6-5.4-2.1-7.5c-5.9-3.4-11.7-7-17.1-11
			C317,105.3,308.5,98.2,296.7,95z M358.8,94.4c0.4,2.3,0.4,4.9,1.4,7c0.3,0.6,3.7,0.1,5.3-0.6c1-0.4,2-2.7,1.6-3.6
			C366.1,94,363.5,93.2,358.8,94.4z"/>
		<path class="st7" d="M491.6,214.6c-3.5,2-6.1,3.2-8.2,4.9c-4,3-7.6,6.5-11.6,9.5c-0.8,0.6-3.1,0.7-3.6,0.1
			c-5-5.8-11.2-9.7-18.1-12.8c-2.5-1.1-5.5-0.8-8.1-1.7c-5.3-1.8-10.2-5.2-16.3-3.8c-1.8,0.4-3.7,0.9-6.1,1.5
			c4.8-5.1,8.9-10,13.6-14.2c4.3-3.8,6.9-8.5,8.9-13.6c1.8-4.8,3.6-9.7,4.5-14.8c0.5-2.5-1.2-5.2,0.5-7.9c0.8-1.3,1.1-3,1.9-4.4
			c1.3-2.4,3-3.5,6.1-3.8c6.2-0.5,11.3,1.7,15.6,5.6c1.9,1.7,3.4,4.8,3.7,7.3c0.4,4.6-0.1,9.4-0.7,14c-0.5,3.8-1.6,7.6-2.3,11.4
			c-1.1,6.3,0.4,8.4,6.6,12.4C482.5,207.2,486.6,210.7,491.6,214.6z M466.3,181.3c1.6-2.7,1.5-5.4-1-7.1c-1.2-0.9-3.7-0.8-5.1-0.2
			c-0.9,0.4-1.7,2.8-1.4,4C459.8,181.6,462.8,181.9,466.3,181.3z"/>
		<path class="st7" d="M380.4,145.8c2.8-5.4,5.6-10.8,8.5-16.2c0.8-1.5,1.7-2.9,2.8-4.1c2.5-2.8,4.6-5.8,8.9-6.6
			c2.9-0.6,5.6-2.7,8.2-4.4c7.7-4.9,15.9-6,24.6-3.1c2.9,0.9,5.9,1.3,8.6,2.5c6.6,3,8,9.4,8.1,15.6c0.1,4.9-1.6,9.7-2.4,14.3
			c-1.9,2.1-0.5,0.6-2.8,3.2c-1.9,2-1.4,2-2.6,3.7c-0.5,0.6-0.4,0.9-1,1.3c-0.4,0.3-1.6-0.3-2.3-0.8c-1-0.8-1.9-1.7-2.8-2.7
			c-4.7-5.2-9-11.1-14.4-15.5c-3.4-2.8-8.5-4.3-13-4.8c-4.8-0.5-9.9,0.2-14.6,1.5c-4.9,1.4-6.5,6.4-8.8,10.6
			c-1.2,2.1-2.4,4.3-3.5,6.4C381.5,146.4,380.9,146.1,380.4,145.8z M437.5,129.5c-1,1.8-3.2,4.2-2.7,5.5c0.8,2.1,3.4,3.7,5.5,5
			c0.4,0.2,3.1-1.8,3.2-2.9C443.8,133.5,441.5,131.2,437.5,129.5z M424.8,121.7c-0.9-4.1-2.9-5.2-5.7-5.3c-3-0.2-4,2.7-3.5,4.2
			c0.5,1.6,2.9,3.4,4.7,3.7C421.7,124.4,423.5,122.5,424.8,121.7z"/>
		<path class="st7" d="M380.9,152.9c-2.7,9.9,2.3,17.1,8.1,24.4c-12.6,2.4-20.1,10.8-27.2,19.1c-7.8,9-14.8,18.7-21.8,28.2
			c-3.1,4.1-4.7,4.9-8,2.3c-2-1.6-2.3-2.8-0.5-5.2c6.9-9.4,13.2-19.2,20.2-28.5c6.2-8.3,13.1-16.1,19.4-24.4
			C374.5,164.1,377.3,158.7,380.9,152.9z"/>
		<path class="st7" d="M390.3,218.9c4.5,0.9,8.6,1.7,12.3,2.5c-4.7,4.3-10.1,8.9-15.2,13.9c-5,4.9-9.5,10.1-15.1,16
			c-1.4-0.4-4-1.2-6.6-2c3.8-4.9,7.7-9.5,11-14.5c2.6-3.9,4.3-5.6,8.1-9.1C387.6,222.6,388.1,221.8,390.3,218.9z"/>
	</g>
	<path class="st3" d="M367.9,158.1c-5.7,7.6-9.6,16.6-16.6,22.5c-2.8-2.5-5.4-5-8.3-7.3c-3.9-3-3.7-4.9,0.1-8
		c4.3-3.4,9.2-4.2,14.3-5.1c3.4-0.5,6.6-1.9,9.9-2.9C367.4,157.6,367.6,157.8,367.9,158.1z"/>
	<path class="st3" d="M396.1,194.5c-2.3,3.2-4.1,6.9-6.9,9.4c-7.6,6.5-5.8,7.1-13.4-0.5c-4.3-4.3-4.5-4.7,0.3-8.4
		c4.1-3.1,8.7-5.5,13.3-8c2.1-1.1,5.1,0.9,5.6,3.6c0.2,1,0,2.1,0,3.2C395.4,194,395.8,194.3,396.1,194.5z"/>
	<g class="st1">
		<path class="st8" d="M103.9,354.5c7.1,6.8,13.7,13.2,20.4,19.6c2.4,2.3,4.8,3,8.2,1.1c3.8-2.2,5.9-5.3,7.8-8.9
			c0.5-1,1.4-1.8,2.2-2.7c3.6,4.5,2.6,8.7-0.5,12.6c-2.4,3-5.1,5.7-7.7,8.5c-3.1,3.4-6.4,0.7-7.9-1c-5.1-5.6-12.1-8.1-18.1-12.1
			c-0.8-0.5-1.5-1.1-2.3-1.4c-3.3-1.4-4.8-3.2-3.1-7.1C103.7,361,103.5,358.3,103.9,354.5z"/>
		<path class="st8" d="M167,446.5c-4.3-8.8-5.9-10.1-11.1-8.5c0.8-2.5,1.3-4.3,1.9-6.1c2.7-7.6,6.5-14.5,11.8-20.5
			c1-1.2,2.1-3.6,4.4-1.8c2,1.6,2.1,3.2,0.8,5.8c-1.8,3.7-3.4,7.8-3.5,11.9C171.2,433.9,170.2,440.1,167,446.5z"/>
		<path class="st8" d="M223.7,461.8c-7.5-2.6-9.5-0.8-10.9,9c-3-8.7-6.1-17.4-9-26.2c-1.3-4,1.6-6.7,3.7-9.5
			c0.5-0.6,2.3-0.4,3.4-0.1c0.4,0.1,0.9,1.9,0.5,2.3c-2.8,3.5,0.3,6.2,1.5,8.6c1.9,3.7,5,6.7,7.4,10.1
			C221.7,457.9,222.6,459.9,223.7,461.8z"/>
		<path class="st8" d="M123.3,396.1c9.6,0.7,18.8,1.4,27.9,2.1c-2.1,5.3-24.2,12.4-33.7,10c1.6-1.4,2.9-3,4.6-3.8
			c3.5-1.6,4.8-3.5,1.9-6.8C123.6,397.3,123.5,396.8,123.3,396.1z"/>
	</g>
	<g class="st1">
		<path class="st9" d="M356.7,244.8c-4.2-2.7-8.2-5.2-11.9-8c-0.8-0.6-1.2-2.9-0.6-3.7c6.4-8.7,12.9-17.2,19.5-25.7
			c1.3-1.7,2.5-2.1,4.2-0.3c2,2.2,4.5,4,6.6,6.1c3.6,3.6,3.6,4.9,0.6,8.5C369,229.2,363.2,236.7,356.7,244.8z"/>
		<path class="st9" d="M345.7,186c-0.8,1.4-1.4,3.2-2.5,4.6c-6,8.1-12,16.2-18.2,24.2c-0.6,0.8-3.5,1.1-3.9,0.5
			c-3.3-4.2-4.5-6.3-8.3-11.7c4.2-2.9,5.5-6.3,7.6-9c3.7-4.8,7-9.9,10.5-14.9c1.3-1.9,2.7-1.9,4.6-0.4
			C338.6,181.7,341.9,183.6,345.7,186z"/>
		<path class="st9" d="M293.4,158.6c7.9,0.5,13.8,2.1,18.1,7c0.8,0.9-0.1,3.9-1.1,5.4c-2.2,3.4-4.9,6.5-7.6,9.5
			c-0.5,0.5-2.9,0.2-3-0.1C297.6,173.5,295.7,166.5,293.4,158.6z"/>
		<path class="st9" d="M382.1,254.4c2.3-2.7,4.4-5.5,6.9-8c0.9-0.9,2.6-1,3.9-1.4c-0.1,2.1,0.6,5.6-0.3,6.1
			C389.3,252.9,385.9,255.8,382.1,254.4z"/>
	</g>
	<path class="st10" d="M432.9,465.3c-10.3-1.1-17.4-6.2-22.2-14.3c-3.7-6.1-1.6-17.2,4.5-21.3c1.5-1,3.1-2.2,4.1-3.6
		c4.4-6.7,11.3-5.5,16.9-3.8c4.2,1.2,7.7,5.5,11,8.9c2.3,2.4,6,2.7,7.4,6.5c3.1,8.6-1.1,18.8-8.6,22.9
		C441.9,462.9,437.2,463.8,432.9,465.3z"/>
	<path class="st1" d="M358.8,94.4c4.7-1.2,7.3-0.3,8.3,2.7c0.3,1-0.7,3.2-1.6,3.6c-1.6,0.7-5,1.2-5.3,0.6
		C359.2,99.3,359.2,96.7,358.8,94.4z"/>
	<path class="st1" d="M466.3,181.3c-3.5,0.6-6.5,0.3-7.5-3.3c-0.3-1.2,0.5-3.6,1.4-4c1.5-0.6,3.9-0.7,5.1,0.2
		C467.8,175.9,467.9,178.6,466.3,181.3z"/>
	<path class="st1" d="M437.5,129.5c4,1.7,6.3,3.9,6,7.6c-0.1,1.1-2.8,3.1-3.2,2.9c-2.1-1.3-4.7-2.9-5.5-5
		C434.3,133.8,436.5,131.3,437.5,129.5z"/>
	<path class="st1" d="M424.8,121.7c-1.3,0.8-3.1,2.8-4.4,2.5c-1.8-0.3-4.2-2-4.7-3.7c-0.5-1.5,0.4-4.3,3.5-4.2
		C421.9,116.5,423.9,117.6,424.8,121.7z"/>
</g>
<g id="Laag_2">
	<path class="st11" d="M285,153.6L142,336.5c0,0-3.9,5.6-0.3,17.6c0,0-5.3,16.2-10.9,16.3c-5.6,0.1-32.1-24.6-32.1-24.6
		s-7-4.7,0,7.7c0,0,7.2,7.7-5.8,4.4s0.6,8,0.6,8l39.2,21.3c0,0-32.7,1.9-30.6,6.4c4.2,8.8,19.5,2.2,15.4,7.1
		c-4.2,4.9-14.6,7.4-10.5,11c4.1,3.6,24.6,0.5,29.9,0s20.5-5,22-12.5c1.5-7.5,2.8-12.1,2.8-12.1s3.1,3.8,7.4,8.3
		c0.6,9.7-14.2,20.2-17.8,34.7s2,6.5,5.7,4.5c3.7-1.9,7.9,1.2,7,6c-1,4.8,4.6,12.4,8,2c3.4-10.3,0.3-21.2,3.9-29
		c3.6-7.8,3.6-7.8,3.6-7.8s12.9,12.3,23,19c4.9,3.2-5.4,12.8-4.7,17.8s7.1,31.5,11.9,34.8s9,2.9,8.6-3.8c-0.4-6.7,4.9-2.7,6.7,0
		c1.9,2.7,11.2,11.6,9,3.4c-2.2-8.2-25-28.1-22.6-34c2.4-5.9,3.4-10.9,3.4-10.9s23.8,13.2,38.8,2.4l20.4-24.7
		c0,0,53.3,14.2,88.4-7.7s58.6-77.7,49.6-117s-14.2-50.2-14.2-50.2s9.9-14.5,22-19.5c12-4.9,38.9,7.8,43.4,16s13.7,28.5,11.7,42.3
		c0,0,43.2-19.1,33.1-44.5s-33.1-34.9-33.1-34.9s17.8-28.2-4.2-40.9c0,0-9.2-6-18.7-4.5c0,0,16.4-27.2-12.7-39.3
		c-29.1-12.2-38.8,6.6-38.8,6.6s1.4-29.5-23.2-39.6c0,0-17.5-3.4-27.6,7.1c0,0-28-16.2-42.2-19.3s-48.5,0.3-42.2,47.3
		c0,0,26.1-27.6,62.3,1.1c0,0,25.8,10.3,1.7,40l-9.9,8.9C319.3,161.8,301.4,147.2,285,153.6z"/>
	<g>
		<path d="M296.8,9c30.5,0,62.5,19.4,62.5,19.4s10-6.2,22.4-6.2c11.2,0,24.4,5,33.9,24.3c3.9,7.9,5.7,15.2,5.9,22
			c8.1-4.4,16.8-7.4,25.5-7.4c8.7,0,17.4,3.1,25,11c20.2,21,11.4,40.1-1,54.2c0.7,1.4,1.3,2.7,1.9,4.1c2.8-1.1,5.6-2,8.1-3
			c3.7-1.4,7.1-1.9,10.1-1.9c5.8,0,9.6,1.9,9.6,1.9c30.7,11.3,20.7,44.4,20.7,44.4c8.7,9.9,13.7,16.9,16.9,22.7c0,0,0,0,0,0
			c0.3,0.5,0.5,1,0.8,1.5c0,0.1,0.1,0.2,0.1,0.3c0.2,0.4,0.4,0.9,0.6,1.3c0,0.1,0.1,0.2,0.1,0.2c0.5,1,0.9,2,1.2,2.9c0,0,0,0,0,0
			c0.2,0.4,0.3,0.9,0.5,1.3c0,0.1,0.1,0.2,0.1,0.2c0.1,0.4,0.3,0.8,0.4,1.2c0,0.1,0,0.1,0.1,0.2c0.3,0.9,0.5,1.8,0.8,2.7
			c0,0,0,0.1,0,0.1c0.1,0.4,0.2,0.8,0.3,1.2c0,0.1,0,0.2,0.1,0.3c0.1,0.4,0.2,0.8,0.2,1.2c0,0.1,0,0.1,0,0.2
			c0.2,0.9,0.4,1.9,0.5,2.8c0,0.1,0,0.1,0,0.2c0.1,0.5,0.2,1,0.3,1.5c0.1,0.3,0.1,0.6,0.2,0.9c0,0.2,0.1,0.4,0.1,0.6
			c0.1,0.5,0.2,1,0.3,1.5c7.1,37.4-39.5,49.3-39.5,49.3c0-1.4,0-2.8,0-4.2c0-0.5,0-1-0.1-1.5c0-0.8-0.1-1.7-0.1-2.5
			c0-0.6-0.1-1.2-0.1-1.8c-0.1-0.7-0.1-1.4-0.2-2.1c-0.1-0.7-0.2-1.3-0.2-2c-0.1-0.6-0.1-1.2-0.2-1.8c-0.1-0.7-0.2-1.4-0.3-2
			c-0.1-0.5-0.2-1-0.3-1.5c-0.1-0.7-0.3-1.4-0.4-2.1c-0.1-0.4-0.2-0.9-0.3-1.3c-0.2-0.7-0.4-1.4-0.5-2.2c-0.1-0.4-0.2-0.7-0.3-1.1
			c-0.2-0.7-0.4-1.5-0.7-2.2c-0.1-0.3-0.2-0.6-0.3-0.9c-0.3-0.8-0.5-1.5-0.8-2.2c-0.1-0.2-0.2-0.5-0.3-0.7c-0.3-0.8-0.6-1.5-0.9-2.2
			c-0.1-0.2-0.2-0.4-0.2-0.6c-0.3-0.8-0.7-1.5-1-2.2c-0.1-0.1-0.1-0.3-0.2-0.4c-0.4-0.8-0.8-1.5-1.2-2.2c-0.1-0.1-0.1-0.2-0.2-0.3
			c-0.4-0.8-0.8-1.5-1.3-2.2c0-0.1-0.1-0.1-0.1-0.2c-0.5-0.7-0.9-1.5-1.4-2.2c0,0-0.1-0.1-0.1-0.1c-0.5-0.7-1-1.4-1.5-2.1
			c0,0,0,0,0-0.1c-0.5-0.7-1.1-1.4-1.6-2.1c-9.3-11.4-21.3-17.1-30.9-19.2c-0.7-0.2-1.5-0.2-2.3-0.2c-10.5,0-29.6,12.4-46,24.6
			c13.7,18.4,13.4,28.1,11.8,32.3c8,17.9,38.3,91.7,19.9,148.2v0c0,0,0,0,0,0c-1.3,4-2.8,7.9-4.7,11.7c-0.1,0.3-0.3,0.5-0.4,0.8
			c-0.5,0.9-0.9,1.9-1.4,2.8c-0.2,0.4-0.4,0.7-0.6,1.1c-0.5,0.8-0.9,1.6-1.4,2.5c-0.2,0.4-0.5,0.8-0.7,1.2c-0.5,0.8-1,1.5-1.5,2.3
			c-0.3,0.4-0.5,0.8-0.8,1.2c-0.5,0.8-1.1,1.6-1.7,2.3c-0.2,0.3-0.5,0.7-0.7,1c-0.8,1.1-1.7,2.2-2.6,3.3
			c-22.4,26.6-48.9,33-76.3,33.8c-1.9,0.1-3.9,0.1-5.8,0.1c-0.1,0-0.2,0-0.3,0c-4.1,0-8.1-0.1-12.2-0.3c-2-0.1-4.1-0.2-6.1-0.3
			c-1-0.1-2-0.1-3.1-0.2c-3.1-0.2-6.1-0.3-9.2-0.5c-1-0.1-2-0.1-3-0.2c-2-0.1-4.1-0.2-6.1-0.3s-4-0.2-6-0.2
			c-2.4-0.1-4.7-0.1-7.1-0.1c-3.6,0-7.2,0.1-10.8,0.3c-3.9,0.2-7.8,0.6-11.6,1.2c-1.9,0.3-3.8,0.6-5.7,1c-7.5,1.5-14.8,3.9-21.8,7.6
			l-6.7,8.1c0,0-6,5.5-18.9,5.5c-6.7,0-15.2-1.5-25.6-6l0,0c0,0-14.6,19.3-9.7,31.3c4.9,12.1,14.7,29,16.1,35.3
			c0.7,3.3-0.5,5.4-2.5,5.4c-1.7,0-4-1.6-6.1-5.4c-3-5.5-10.2-10.8-13.4-10.8c-1.5,0-2.2,1.2-1.2,4.1c2.6,7.5,4.3,16.9,0.3,16.9
			c-0.8,0-1.8-0.4-3-1.2c-7.6-4.9-10.7-36.2-15.6-41.1c-4.9-4.9-10.7-14.3-1.8-24.1c8.9-9.8,22.4-18,22.4-18l0,0
			c-7.4-4.5-15.5-10.4-24.4-17.9c-0.8,2.4-10.8,30.2-17.9,34.6c-7,4.4-28,18.6-37.8,18.6c-0.6,0-1.1,0-1.6-0.2
			c-8.9-1.8,11.1-12.3,6.6-13.8c-0.5-0.2-1.2-0.3-2.1-0.3c-4.1,0-11,1.9-14.8,1.9c-1.8,0-2.9-0.4-2.7-1.6
			c0.6-4.3,25.8-20.3,39.3-20.9c11.9-0.5,18.5-23,19.9-28.2c-0.5-0.4-0.9-0.9-1.4-1.3c-6.8-6.5-12.7-12.6-17.8-18.3
			c-4.5,4.8-12.9,14.6-18.3,23c-2,3.1-4.5,4.2-7.4,4.2c-5.8,0-13.5-4.1-23.6-4.1c-1.7,0-3.5,0.1-5.3,0.4c-1.8,0.3-3.6,0.4-5.3,0.4
			c-14.9,0-23.1-9.6-16.3-10.6c7.6-1,16-5.7,5.5-5.8c-10.5-0.1-11.5-6.6-11.5-6.6c-0.7-3.3,1.6-4.4,5.6-4.4c8.5,0,24.9,5.2,36.1,5.2
			c2.5,0,4.7-0.3,6.6-0.9c12.2-4.2,20.3-8.9,24.7-11.8c-6.1-7.6-10.6-14.5-14.1-20.6c0,0,0,0,0,0c-14.4,17.5-12.5,22.7-22.4,24
			c-0.2,0-0.4,0-0.7,0c-10.5,0-38.7-27.6-44.9-38c-6.3-10.6,0.4-19.2,3.5-19.6c0,0,0.1,0,0.1,0c3.2,0,5.9,11.9,8,11.9
			c0.6,0,1.2-1,1.7-3.6c2.2-11.4,4.3-14.3,5.9-14.3c1.7,0,2.7,3.4,2.7,3.4s12.1,32.3,22.2,32.6c0.1,0,0.2,0,0.4,0
			c9.9,0,15.9-13.7,15.9-13.7c0,0,0,0,0,0c-4.7-15.8,0.3-22.8,0.3-22.8l185.1-236.8c1-0.8,2.3-1.4,4.2-1.4c5.1,0,14.3,3.7,31.9,16
			c30.8-48.4,12.8-57,12.8-57c-11.1-7.9-21-13.1-29.6-16.3c-8.9-3.3-16.6-4.6-23.1-4.6c-14.7,0-23.4,6.4-26.8,9.6c0,0,0,0,0,0
			c-0.4,0.4-0.7,0.7-0.9,0.9c0,0,0,0,0,0c-0.2,0.2-0.4,0.5-0.5,0.6c0,0,0,0,0,0c-0.1,0.1-0.1,0.1-0.1,0.2c0,0,0,0,0,0c0,0,0,0,0,0
			c0.2-1.5,0.4-2.9,0.6-4.3c0.1-0.4,0.1-0.9,0.2-1.3c0.2-0.9,0.3-1.9,0.5-2.8c0.1-0.5,0.2-0.9,0.3-1.4c0.2-0.9,0.4-1.7,0.5-2.6
			c0.1-0.4,0.2-0.9,0.3-1.3c0.2-1,0.5-1.9,0.7-2.8c0.1-0.3,0.1-0.5,0.2-0.8c0.3-1.2,0.7-2.3,1-3.4c0.1-0.3,0.2-0.6,0.3-0.9
			c0.3-0.8,0.5-1.6,0.8-2.4c0.1-0.4,0.3-0.7,0.4-1.1c0.3-0.7,0.5-1.3,0.8-2c0.2-0.4,0.3-0.7,0.5-1.1c0.3-0.7,0.6-1.3,0.9-2
			c0.1-0.3,0.3-0.6,0.4-0.9c0.5-0.9,0.9-1.8,1.4-2.6c0.1-0.1,0.2-0.3,0.3-0.4c0.4-0.7,0.8-1.4,1.2-2.1c0.2-0.3,0.4-0.6,0.6-0.8
			c0.3-0.5,0.7-1,1-1.5c0.2-0.3,0.4-0.6,0.6-0.9c0.3-0.5,0.7-0.9,1.1-1.4c0.2-0.3,0.4-0.5,0.6-0.8c0.4-0.5,0.9-1,1.3-1.5
			c0.1-0.1,0.3-0.3,0.4-0.5c0.6-0.6,1.2-1.2,1.8-1.8c0.2-0.2,0.4-0.4,0.7-0.6c0.4-0.4,0.8-0.7,1.2-1.1c0.3-0.2,0.5-0.4,0.8-0.7
			c0.4-0.3,0.8-0.6,1.2-0.9c0.3-0.2,0.5-0.4,0.8-0.6c0.4-0.3,0.8-0.6,1.2-0.9c0.3-0.2,0.5-0.3,0.8-0.5c0.6-0.4,1.3-0.8,2-1.2
			c0.3-0.1,0.5-0.3,0.8-0.4c0.4-0.2,0.9-0.5,1.3-0.7c0.3-0.2,0.6-0.3,1-0.5c0.4-0.2,0.8-0.4,1.2-0.5c0.3-0.1,0.7-0.3,1-0.4
			c0.4-0.2,0.8-0.3,1.2-0.5c0.3-0.1,0.7-0.2,1-0.4c0.5-0.2,0.9-0.3,1.4-0.4c0.5-0.2,1-0.3,1.5-0.4c0.5-0.1,0.9-0.3,1.4-0.4
			c0.4-0.1,0.7-0.2,1.1-0.3c0.4-0.1,0.8-0.2,1.1-0.2c0.4-0.1,0.8-0.1,1.2-0.2c0.4-0.1,0.7-0.1,1.1-0.2c0.4-0.1,0.8-0.1,1.2-0.2
			c0.4-0.1,0.8-0.1,1.1-0.1C291.8,9.1,294.3,9,296.8,9 M356.8,168.6l30.1-29.9c-2.5-6.8-3.4-13.1-3.4-18.8c-11.7,3-28.4,1-36.5,3.7
			c-3.5,1.2-12.2,9.8-21.5,19.8C334.3,150.1,344.7,158.4,356.8,168.6 M402.7,211.4c10.8-10,22.2-21.4,30.6-31.9
			c1.8-5.8,2.1-12.4-1.6-18.4c0,0,0,0,0,0c-0.3-0.5-0.6-1-1-1.5c-0.9-1.2-1.9-2.3-3.1-3.5c-0.1,0-0.3,0-0.4,0
			c-6.5,0-11.4-2.6-16.3-2.6c-0.8,0-1.6,0.1-2.3,0.2c-4.7,0.9-20.4,14.1-36.2,28.1C385.4,193.2,395.2,203,402.7,211.4 M279,429.4
			c0.9-0.2,2-0.5,3.4-0.8c0.9-0.2,1.9-0.5,3-0.7c0.7-0.2,1.5-0.3,2.3-0.5c1.1-0.2,2.3-0.5,3.5-0.7c1-0.2,2-0.4,3.1-0.6
			c4.5-0.8,9.6-1.7,14.9-2.3c0.2,0,0.4-0.1,0.6-0.1c1.7-0.2,3.4-0.4,5.1-0.5c1.1-0.1,2.2-0.2,3.3-0.3c3.3-0.2,6.6-0.4,9.9-0.4
			c0.4,0,0.9,0,1.3,0c0,0,0,0,0,0c1.9,0,3.7,0.1,5.5,0.2c0.9,0.1,1.8,0.1,2.7,0.2c2.6,0.3,5.2,0.7,7.6,1.3l0,0
			c3.1,0.8,6.4,1.3,9.7,1.3c23.1,0,48.6-24.9,63.4-164.3L279,429.4 M296.8,4L296.8,4c-2.8,0-5.5,0.2-8,0.4l-0.2,0
			c-0.4,0-0.7,0.1-1.1,0.1c-0.4,0.1-0.9,0.1-1.3,0.2c-0.4,0.1-0.8,0.1-1.2,0.2c-0.4,0.1-0.9,0.2-1.3,0.2c-0.4,0.1-0.8,0.2-1.2,0.3
			l-0.2,0c-0.3,0.1-0.7,0.1-1,0.2c-0.5,0.1-1,0.3-1.5,0.4c-0.6,0.2-1.2,0.3-1.7,0.5c-0.5,0.2-1,0.3-1.5,0.5
			c-0.3,0.1-0.6,0.2-0.9,0.3l-0.2,0.1c-0.4,0.2-0.9,0.3-1.3,0.5c-0.4,0.2-0.7,0.3-1.1,0.5c-0.4,0.2-0.9,0.4-1.3,0.6l-0.1,0
			c-0.3,0.1-0.6,0.3-1,0.5c-0.5,0.2-1,0.5-1.5,0.8l-0.2,0.1c-0.2,0.1-0.4,0.2-0.6,0.3c-0.7,0.4-1.4,0.8-2.2,1.3
			c-0.2,0.1-0.4,0.3-0.6,0.4l-0.2,0.2c-0.5,0.3-0.9,0.6-1.4,1c-0.3,0.2-0.6,0.4-0.9,0.7c-0.5,0.3-0.9,0.7-1.3,1
			c-0.3,0.2-0.6,0.5-0.9,0.7c-0.5,0.4-0.9,0.8-1.3,1.2l-0.2,0.2c-0.2,0.2-0.4,0.3-0.5,0.5c-0.7,0.7-1.3,1.3-2,2
			c-0.1,0.1-0.2,0.2-0.3,0.4l-0.1,0.1c-0.6,0.6-1,1.2-1.5,1.7c-0.2,0.2-0.4,0.4-0.5,0.7l-0.2,0.2c-0.4,0.5-0.8,1-1.2,1.5
			c-0.2,0.3-0.5,0.6-0.7,1c-0.4,0.5-0.7,1-1.1,1.6l-0.1,0.2c-0.2,0.2-0.3,0.5-0.5,0.7c-0.4,0.7-0.9,1.4-1.4,2.2l-0.1,0.1
			c-0.1,0.1-0.1,0.2-0.2,0.4c-0.5,0.9-1,1.8-1.5,2.9c-0.1,0.2-0.2,0.4-0.3,0.6l-0.1,0.3c-0.4,0.8-0.7,1.5-1,2.1
			c-0.2,0.4-0.3,0.8-0.5,1.2c-0.3,0.7-0.6,1.4-0.9,2.1l-0.1,0.1c-0.1,0.3-0.3,0.7-0.4,1c-0.3,0.8-0.6,1.6-0.9,2.5l-0.1,0.3
			c-0.1,0.2-0.1,0.4-0.2,0.6c-0.4,1.2-0.7,2.4-1.1,3.6c0,0.2-0.1,0.4-0.1,0.6l-0.1,0.3c-0.3,1.1-0.5,2-0.8,3
			c-0.1,0.4-0.2,0.7-0.2,1.1l-0.1,0.3c-0.2,0.9-0.4,1.8-0.6,2.7c-0.1,0.5-0.2,1-0.3,1.5c-0.2,0.9-0.3,1.8-0.5,2.9l-0.1,0.4
			c-0.1,0.3-0.1,0.6-0.1,0.9c-0.2,1.6-0.4,3-0.6,4.4l-2,17.3L247.2,70l0,0l0.1-0.1c0.1-0.1,0.2-0.2,0.4-0.4c0.2-0.3,0.5-0.5,0.7-0.7
			c2.6-2.5,10.2-8.3,23.4-8.3c6.6,0,13.8,1.4,21.3,4.3c8.9,3.3,18.5,8.6,28.5,15.7l0.6,0.4l0.1,0c0.6,0.5,2.5,2.4,2.5,7.9
			c0,6.3-2.6,17.9-14.5,37.5c-18.5-12.4-26.2-13.9-30.4-13.9c-3,0-5.5,0.9-7.5,2.6l-0.4,0.3l-0.3,0.4L86.6,352.5l-0.1,0.1l-0.1,0.1
			c-0.6,0.9-5.8,8.9-1.6,25.2c-1.9,3.4-6,9.2-10.6,9.2c-0.1,0-0.1,0-0.2,0c0,0-3.8-0.7-10.7-14c-3.8-7.2-6.5-14.3-6.9-15.3
			c-1.4-4.2-4.1-6.7-7.4-6.7c-4.4,0-7,3.8-8.9,10.4c-1.6-2.5-3.7-4.5-6.7-4.5c-0.2,0-0.5,0-0.7,0c-3.3,0.4-6.6,3.2-8.7,7.3
			c-3,6.1-2.5,13.3,1.4,19.8c3.4,5.7,12.4,15.6,21.8,24c7.3,6.6,13.6,11.2,18.7,13.8c-1.6-0.3-3.3-0.6-4.9-1
			c-6.3-1.3-12.2-2.5-16.7-2.5c0,0,0,0,0,0c-1.6,0-6.2,0-8.9,3.3c-1.1,1.3-2.2,3.6-1.5,7.1l0,0c0.2,1,1.4,5.3,6.1,8.1
			c-1.9,1.5-2.7,3.7-2.6,5.8c0.4,6.3,10.1,13.1,23.7,13.1c2,0,4-0.1,6-0.4c1.5-0.2,3-0.3,4.6-0.3c5.1,0,9.7,1.2,13.7,2.3
			c3.5,0.9,6.7,1.8,9.9,1.8c4.9,0,8.8-2.2,11.6-6.4c4-6.2,9.8-13.3,14.1-18.2c4.2,4.5,8.8,9.1,13.6,13.8c-3.3,11-9.1,21.4-14.4,21.7
			c-9.5,0.4-21.8,7-26.7,9.7c-4.2,2.4-8,5-10.9,7.3c-4.1,3.3-6,5.7-6.3,8.2c-0.3,1.8,0.2,3.6,1.4,4.9c2.1,2.4,5.2,2.4,6.3,2.4
			c1.6,0,3.5-0.2,5.6-0.6c-2,2.3-3.2,4.8-2.5,7.6c0.4,1.5,1.7,4.2,6.1,5.1c0.8,0.2,1.7,0.3,2.6,0.3c9.4,0,24.3-9.1,37.6-17.5
			c1.1-0.7,2.1-1.3,2.9-1.8c2.5-1.5,6.5-5.3,13.2-20.2c1.6-3.7,3.1-7.3,4.3-10.2c4.4,3.5,8.8,6.8,13,9.7c-0.5,0.4-1.1,0.8-1.7,1.2
			c-6.2,4.5-11.4,9-15.3,13.4c-8.5,9.4-7.8,21.3,1.9,31c1.3,1.6,3.3,9.4,4.6,14.6c3.6,14.1,6.3,23.6,11.9,27.2c2,1.3,3.9,2,5.7,2
			c2.3,0,4.4-1.1,5.7-2.9c2.3-3.3,1.9-8.9,0.6-14.4c1.4,1.3,2.8,2.9,3.7,4.6c3.8,7,8.2,8,10.5,8c2.3,0,4.4-1,5.8-2.7
			c1.8-2.2,2.3-5.3,1.6-8.7c-0.9-4.1-4.3-11-8.3-19.1c-2.9-5.9-5.9-11.9-8-17.1c-2.6-6.4,3-17.2,6.9-23.3c8.4,3.2,16.4,4.9,23.8,4.9
			c14.4,0,21.5-6.1,22.3-6.8l0.3-0.2l0.2-0.3l6.1-7.3c6-3,12.4-5.2,19.6-6.7c1.8-0.4,3.6-0.7,5.4-0.9c3.5-0.5,7.2-0.9,11.2-1.1
			c3.3-0.2,6.7-0.3,10.5-0.3c2.2,0,4.5,0,6.9,0.1c1.9,0,3.8,0.1,6,0.2c2,0.1,4,0.2,6,0.3c1,0.1,2,0.1,3,0.2l4,0.2
			c1.7,0.1,3.4,0.2,5.2,0.3c1,0.1,2.1,0.1,3.1,0.2c2.1,0.1,4.1,0.2,6.2,0.3c4.6,0.2,8.7,0.3,12.4,0.3l0.3,0c2,0,4.1,0,6-0.1
			c23.8-0.6,54.4-5.3,80-35.6c0.9-1.1,1.8-2.2,2.8-3.4c0.2-0.2,0.4-0.5,0.5-0.7l0.3-0.4c0.5-0.7,1.1-1.6,1.8-2.5
			c0.2-0.3,0.4-0.6,0.6-1l0.2-0.3c0.6-0.9,1.1-1.7,1.6-2.4c0.3-0.4,0.5-0.8,0.8-1.3c0.5-0.8,1-1.7,1.5-2.6l0.1-0.1
			c0.2-0.3,0.4-0.7,0.5-1c0.5-0.9,1-1.9,1.5-3l0.1-0.3c0.1-0.2,0.2-0.4,0.3-0.5c1.9-3.9,3.5-8,4.9-12.3c8.1-24.9,8.2-55.6,0.1-91.2
			c-6-26.7-15.1-49.1-19.4-58.9c2.1-9.5-3.7-21.3-10.2-30.9c12.1-8.8,30.1-20.7,39-20.7c0.5,0,0.9,0,1.2,0.1c5,1.1,17.8,5,28.1,17.5
			c0.5,0.6,1,1.2,1.5,1.9l0,0c0.5,0.6,0.9,1.3,1.4,2l0.1,0.1c0.4,0.7,0.9,1.3,1.3,2l0,0.1l0.1,0.1c0.4,0.7,0.8,1.4,1.2,2l0.1,0.1
			l0.1,0.2c0.4,0.7,0.7,1.4,1.1,2.1l0.1,0.2l0.1,0.2c0.4,0.8,0.7,1.4,1,2.1c0,0.1,0.1,0.2,0.1,0.3l0.1,0.3c0.3,0.8,0.6,1.5,0.8,2.1
			c0,0.1,0.1,0.2,0.1,0.4l0.1,0.3c0.2,0.6,0.5,1.3,0.7,2.1c0,0.1,0.1,0.3,0.1,0.5l0.1,0.4c0.2,0.7,0.4,1.4,0.6,2
			c0.1,0.2,0.1,0.4,0.2,0.6l0.1,0.4l0,0.1c0.2,0.6,0.3,1.3,0.5,2c0.1,0.2,0.1,0.5,0.2,0.7l0.1,0.5l0.1,0.3c0.1,0.6,0.2,1.1,0.4,1.7
			c0.1,0.3,0.1,0.6,0.2,0.9l0.1,0.5l0.1,0.5c0.1,0.5,0.2,1,0.2,1.5c0.1,0.4,0.1,0.7,0.1,1.1l0.1,0.6l0.1,0.6
			c0.1,0.4,0.1,0.8,0.2,1.3c0,0.4,0.1,0.9,0.1,1.4l0,0.6l0.1,0.6c0,0.4,0.1,0.7,0.1,1.1c0,0.6,0.1,1.3,0.1,1.9l0,0.5
			c0,0.2,0,0.4,0,0.6c0,0.3,0,0.5,0,0.8c0,1.3,0,2.7,0,4l-0.1,6.5l6.3-1.6c0.5-0.1,12.7-3.3,24.1-11.4
			c15.8-11.2,22.4-26.3,19.1-43.7c-0.1-0.5-0.2-1-0.3-1.5l-0.1-0.5l0-0.1l-0.1-0.3l-0.1-0.7l-0.3-1.5l0-0.1l0-0.1
			c-0.2-1-0.4-2-0.6-2.9l0-0.1l0-0.1c-0.1-0.4-0.2-0.8-0.3-1.2l0-0.1l0-0.2c-0.1-0.4-0.2-0.9-0.3-1.3l0-0.1c-0.3-1-0.5-2-0.8-3
			l0-0.1l0-0.1c-0.1-0.4-0.3-0.9-0.4-1.3l0-0.1l-0.1-0.2c-0.2-0.5-0.3-1-0.5-1.5l0,0l0,0c-0.4-1-0.9-2.1-1.4-3.2l-0.1-0.2l0-0.1
			c-0.2-0.5-0.4-0.9-0.7-1.4l0-0.1l-0.1-0.2c-0.3-0.5-0.5-1.1-0.8-1.6l0,0l0,0c-3.3-6-8.3-12.9-15.8-21.6c0.7-3.5,1.7-10.1,0.7-17.3
			c-1.4-10.2-6.9-23.6-24.9-30.4c-1.2-0.5-5.5-2.3-11.5-2.3c-3.6,0-7.1,0.6-10.6,1.8c4.6-6.7,7.3-13.2,8.2-19.9
			c1.6-11.8-2.8-23.2-13.1-33.8c-8-8.3-17.6-12.5-28.6-12.5c-6.7,0-13.9,1.6-21.3,4.8c-1-5.5-2.9-11.1-5.6-16.6
			c-11.1-22.3-27-27-38.4-27c-9.8,0-18.2,3.4-22.3,5.5C351,18,323.7,4,296.8,4L296.8,4z M332.9,142.8c11.9-12.5,15.1-14.2,15.7-14.5
			c3.3-1.1,9-1.3,15.2-1.5c4.8-0.2,10-0.3,15-1c0.4,3.8,1.2,7.7,2.4,11.5l-24.6,24.5C348,154.7,340.1,148.4,332.9,142.8L332.9,142.8
			z M409.5,158.6c0.4-0.1,0.8-0.1,1.3-0.1c1.6,0,3.5,0.5,5.7,1c2.6,0.6,5.5,1.4,8.8,1.6c0.4,0.5,0.8,1,1.2,1.5
			c0.3,0.4,0.5,0.7,0.7,1.1l0,0l0,0.1c2.3,3.7,2.7,8.3,1.3,13.4c-6.4,7.9-15,17-25.8,27.1c-6.5-7-14.2-14.5-23.1-22.4
			C403.2,161.2,408.6,158.9,409.5,158.6L409.5,158.6z M292.1,421.4l119.3-144.1c-6.5,53.8-15.3,92.9-26.3,116.1
			c-11.4,24.2-22.7,27-30.3,27c-2.6,0-5.4-0.4-8.5-1.1c-2.5-0.6-5.3-1.1-8.2-1.4c-0.9-0.1-1.9-0.2-2.9-0.2c-1.9-0.1-3.8-0.2-5.8-0.2
			l0,0c-0.5,0-0.9,0-1.4,0c-3.2,0-6.7,0.1-10.3,0.4c-1.1,0.1-2.3,0.2-3.4,0.3c-1.7,0.2-3.5,0.3-5.3,0.6l-0.7,0.1
			c-4.9,0.6-10,1.4-15.2,2.4C292.9,421.2,292.5,421.3,292.1,421.4L292.1,421.4z M79.5,423.8c5.9-1.7,8.4-5.5,11.9-10.8
			c1.5-2.3,3.3-5.1,5.9-8.6c2.2,3.4,4.6,6.9,7.3,10.4c-4.5,2.6-10.7,5.6-18.9,8.4c-1.2,0.4-2.9,0.6-5,0.6
			C80.2,423.8,79.8,423.8,79.5,423.8L79.5,423.8z"/>
	</g>
	<path class="st12" d="M90.2,378.4c0,0-6.2,14.1-16.3,13.7c-10.1-0.3-22.2-32.6-22.2-32.6s-3.9-12.6-8.6,11
		c-2.3,11.6-5.7-8.8-9.9-8.4c-3.1,0.3-9.9,9-3.5,19.6s35.7,39.2,45.6,37.9c9.9-1.2,8-6.4,22.4-24C97.7,395.6,93.3,384.2,90.2,378.4z
		"/>
	<path class="st12" d="M115.6,413.3c0,0-9.1,8-28.4,14.6c-14,4.8-50.6-11.9-48.2,0c0,0,1,6.5,11.5,6.6c10.5,0.1,2.1,4.8-5.5,5.8
		c-7.6,1,3.3,12.8,21.6,10.2c18.2-2.7,29.6,9.9,36.3-0.5s18.1-23,20.7-25.5C123.5,424.6,116.5,415.1,115.6,413.3z"/>
	<path class="st12" d="M140.6,445.7c0,0-6.7,28.6-20.1,29.3s-38.7,16.6-39.3,20.9s15.1-1.5,19.5,0c4.4,1.5-15.5,12-6.6,13.8
		c8.9,1.8,32-13.8,39.4-18.5c7.4-4.6,17.9-34.8,17.9-34.8L140.6,445.7z"/>
	<path class="st12" d="M190.3,482.3c0,0-14.6,19.3-9.7,31.3c4.9,12.1,14.7,29,16.1,35.3s-4.1,8.1-8.5,0s-17.8-15.8-14.7-6.8
		c3.1,9,4.9,20.6-2.7,15.7c-7.6-4.9-10.7-36.2-15.6-41.1s-10.7-14.3-1.8-24.1s22.4-18,22.4-18L190.3,482.3z"/>
	<linearGradient id="SVGID_1_" gradientUnits="userSpaceOnUse" x1="305.3664" y1="317.3778" x2="388.5441" y2="461.4457">
		<stop  offset="0" style="stop-color:#4FAE32"/>
		<stop  offset="9.324466e-02" style="stop-color:#4CA932"/>
		<stop  offset="0.2289" style="stop-color:#459C30"/>
		<stop  offset="0.3905" style="stop-color:#39862D"/>
		<stop  offset="0.572" style="stop-color:#296A26"/>
		<stop  offset="0.7702" style="stop-color:#14481A"/>
		<stop  offset="0.9794" style="stop-color:#001E02"/>
		<stop  offset="1" style="stop-color:#001900"/>
	</linearGradient>
	<path class="st13" d="M421.4,250.4c0,0,58.5,119.2,5.3,182.3s-129.2,12.8-185.1,41.9l35-44.6c0,0,43.3-12,68.7-5.9
		c25.4,6.1,56.5-3.9,73.4-166.1L421.4,250.4z"/>
	<linearGradient id="SVGID_2_" gradientUnits="userSpaceOnUse" x1="282.2963" y1="403.9886" x2="404.1097" y2="474.3177">
		<stop  offset="0" style="stop-color:#6DB52D"/>
		<stop  offset="0.1505" style="stop-color:#60A631"/>
		<stop  offset="0.4476" style="stop-color:#3F8235"/>
		<stop  offset="0.8594" style="stop-color:#10502D"/>
		<stop  offset="1" style="stop-color:#004028"/>
	</linearGradient>
	<path class="st14" d="M276.5,430l-35,44.6c55.9-29.1,131.9,21.1,185.1-41.9c7.6-9,13-19.2,16.5-30.1
		c-44.2,42.2-97.9,21.5-97.9,21.5C319.8,418.1,276.5,430,276.5,430z"/>
	<linearGradient id="SVGID_3_" gradientUnits="userSpaceOnUse" x1="423.98" y1="187.5438" x2="273.7368" y2="187.5438">
		<stop  offset="0" style="stop-color:#BF9509"/>
		<stop  offset="1" style="stop-color:#6A5C19"/>
	</linearGradient>
	<path class="st15" d="M275.7,118.7c0,0-17.5,33.2,52.9,90.2s93,48.4,93,48.4s19.6-16.3-51.7-77.6S281.1,114.1,275.7,118.7z"/>
	<linearGradient id="SVGID_4_" gradientUnits="userSpaceOnUse" x1="370.4452" y1="195.8582" x2="545.7135" y2="195.8582">
		<stop  offset="0" style="stop-color:#F7AF81"/>
		<stop  offset="0.2855" style="stop-color:#F5AE80"/>
		<stop  offset="0.4389" style="stop-color:#F0AB7E"/>
		<stop  offset="0.5609" style="stop-color:#E6A57B"/>
		<stop  offset="0.6664" style="stop-color:#D89C76"/>
		<stop  offset="0.7613" style="stop-color:#C5906F"/>
		<stop  offset="0.8485" style="stop-color:#AD8065"/>
		<stop  offset="0.9282" style="stop-color:#916C56"/>
		<stop  offset="0.9986" style="stop-color:#705444"/>
	</linearGradient>
	<path class="st16" d="M382.3,245.9c0,0,58.6-52.3,77.4-48.2s46.5,22.1,45.8,68.5c0,0,46.6-11.9,39.5-49.3
		c-2.7-14.1-2.5-21-23.6-45.2c0,0,10-33.1-20.7-44.4c0,0-8.5-4.2-19.7,0c-11.2,4.2-25.7,6.7-36.5,34.3c-10.8,27.6-74,77.5-74,77.5
		L382.3,245.9z"/>
	<linearGradient id="SVGID_5_" gradientUnits="userSpaceOnUse" x1="321.877" y1="138.9787" x2="483.9708" y2="138.9787">
		<stop  offset="0" style="stop-color:#F7AF81"/>
		<stop  offset="0.2855" style="stop-color:#F5AE80"/>
		<stop  offset="0.4389" style="stop-color:#F0AB7E"/>
		<stop  offset="0.5609" style="stop-color:#E6A57B"/>
		<stop  offset="0.6664" style="stop-color:#D89C76"/>
		<stop  offset="0.7613" style="stop-color:#C5906F"/>
		<stop  offset="0.8485" style="stop-color:#AD8065"/>
		<stop  offset="0.9282" style="stop-color:#916C56"/>
		<stop  offset="0.9986" style="stop-color:#705444"/>
	</linearGradient>
	<path class="st17" d="M334.4,216.9c0,0,63.8-61.2,74.1-63.2c10.3-2,19.6,11.1,42.2-8.8c13.2-11.6,53-40,21.2-72.9
		s-80.7,17.6-84.4,27.4s-6.6,23-0.6,39.2l-65,64.7L334.4,216.9z"/>
	<linearGradient id="SVGID_6_" gradientUnits="userSpaceOnUse" x1="246.6131" y1="44.6054" x2="393.9478" y2="129.6691">
		<stop  offset="0" style="stop-color:#F7AF81"/>
		<stop  offset="0.2855" style="stop-color:#F5AE80"/>
		<stop  offset="0.4389" style="stop-color:#F0AB7E"/>
		<stop  offset="0.5609" style="stop-color:#E6A57B"/>
		<stop  offset="0.6664" style="stop-color:#D89C76"/>
		<stop  offset="0.7613" style="stop-color:#C5906F"/>
		<stop  offset="0.8485" style="stop-color:#AD8065"/>
		<stop  offset="0.9282" style="stop-color:#916C56"/>
		<stop  offset="0.9986" style="stop-color:#705444"/>
	</linearGradient>
	<path class="st18" d="M295.1,178.2c0,0,42.9-51.6,51.9-54.6s28.5-0.3,40.1-4.9c11.6-4.6,48.6-31.8,28.5-72.3
		C395.4,6,359.3,28.4,359.3,28.4S255.1-34.8,243.3,66.9c0,0,24.2-31.2,81.2,9.5c0,0,26,12.5-38,91.5L295.1,178.2z"/>
	<linearGradient id="SVGID_7_" gradientUnits="userSpaceOnUse" x1="398.2022" y1="147.0747" x2="477.6864" y2="147.0747">
		<stop  offset="0" style="stop-color:#F7AF81"/>
		<stop  offset="0.2855" style="stop-color:#F5AE80"/>
		<stop  offset="0.4389" style="stop-color:#F0AB7E"/>
		<stop  offset="0.5609" style="stop-color:#E6A57B"/>
		<stop  offset="0.6664" style="stop-color:#D89C76"/>
		<stop  offset="0.7613" style="stop-color:#C5906F"/>
		<stop  offset="0.8485" style="stop-color:#AD8065"/>
		<stop  offset="0.9282" style="stop-color:#916C56"/>
		<stop  offset="0.9986" style="stop-color:#705444"/>
	</linearGradient>
	<path class="st19" d="M409,107.9c5.6-4.7,37.9-24.1,57.9,10.8c19.9,35,15.9,51.3-42.9,77.1c0,0,26.4-29.4-4.4-45.1
		C388.9,135.1,396.8,118.1,409,107.9z"/>
	<linearGradient id="SVGID_8_" gradientUnits="userSpaceOnUse" x1="240.582" y1="62.1126" x2="310.4447" y2="21.7773">
		<stop  offset="0" style="stop-color:#F5E719"/>
		<stop  offset="1" style="stop-color:#726F05"/>
	</linearGradient>
	<path class="st20" d="M290.5,9.3c-22.2,2.1-42.3,16.1-47.2,57.6c0,0,15.7-20.2,51.6-6.8c3.9-1.6,18.3-9.8,18.3-26.8
		C313.1,21.9,305,9.3,290.5,9.3z"/>
	<linearGradient id="SVGID_9_" gradientUnits="userSpaceOnUse" x1="490.5527" y1="240.3669" x2="546.2209" y2="208.2269">
		<stop  offset="0" style="stop-color:#F5E719"/>
		<stop  offset="1" style="stop-color:#726F05"/>
	</linearGradient>
	<path class="st21" d="M545,216.9c-1.7-8.8-2.3-14.9-7.7-24.1c-15.8-11.9-39.6,3.9-44.7,15.5c-1.3,2.9-1.9,5.8-2,8.6
		c8.8,10.8,15.3,26.7,14.9,49.3C505.5,266.2,552.1,254.3,545,216.9z"/>
	<linearGradient id="SVGID_10_" gradientUnits="userSpaceOnUse" x1="413.955" y1="178.4944" x2="477.1136" y2="142.0297">
		<stop  offset="0" style="stop-color:#F5E719"/>
		<stop  offset="1" style="stop-color:#726F05"/>
	</linearGradient>
	<path class="st22" d="M476.8,141.5c-6.6-13.5-23.1-11.9-33.7-5.1c-11.5,7.2-12.1,17.7-12.4,23.2c11.7,15.9-6.6,36.3-6.6,36.3
		C468.4,176.4,481.5,162.3,476.8,141.5z"/>
	
		<ellipse transform="matrix(0.6803 -0.7329 0.7329 0.6803 88.0676 286.5584)" class="st23" cx="372.5" cy="42.3" rx="6.9" ry="4.8"/>
	<linearGradient id="SVGID_11_" gradientUnits="userSpaceOnUse" x1="149.83" y1="252.9159" x2="355.479" y2="371.6474">
		<stop  offset="0" style="stop-color:#FFEB41"/>
		<stop  offset="1" style="stop-color:#4F561F"/>
	</linearGradient>
	<path class="st24" d="M90.6,355.6c0,0-18.4,25.9,48.3,89.9s95.9,37.3,95.9,37.3l186.7-225.5c0,0-22.7,8.6-93-48.4
		s-52.9-90.2-52.9-90.2L90.6,355.6z"/>
	<ellipse transform="matrix(0.336 -0.9419 0.9419 0.336 203.3489 470.1739)" class="st23" cx="435.1" cy="90.9" rx="6.9" ry="4.8"/>
	<ellipse transform="matrix(0.6092 -0.793 0.793 0.6092 99.8513 408.5362)" class="st23" cx="464.5" cy="103" rx="6.9" ry="4.8"/>
	
		<ellipse transform="matrix(0.6624 -0.7492 0.7492 0.6624 52.0792 435.8243)" class="st23" cx="509.6" cy="160.1" rx="6.9" ry="4.8"/>
</g>
</svg>
