<svg xmlns="http://www.w3.org/2000/svg" xmlns:xlink="http://www.w3.org/1999/xlink" viewBox="0 0 528.56 560"><defs><linearGradient id="d" x1="283.21" y1="313.37" x2="362.97" y2="451.52" gradientUnits="userSpaceOnUse"><stop offset="0" stop-color="#4fae32"/><stop offset=".22" stop-color="#4ca730"/><stop offset=".54" stop-color="#43942b"/><stop offset=".64" stop-color="#408c29"/></linearGradient><linearGradient id="a" x1="260.14" y1="399.99" x2="380.97" y2="469.75" gradientUnits="userSpaceOnUse"><stop offset="0" stop-color="#00a439"/><stop offset=".34" stop-color="#009333"/><stop offset="1" stop-color="#006823"/></linearGradient><linearGradient id="e" x1="401.82" y1="183.54" x2="251.58" y2="183.54" xlink:href="#a"/><linearGradient id="b" x1="348.29" y1="191.85" x2="523.56" y2="191.85" gradientUnits="userSpaceOnUse"><stop offset="0" stop-color="#f7ae76"/><stop offset=".48" stop-color="#f5ac75"/><stop offset=".74" stop-color="#eda574"/><stop offset=".94" stop-color="#df9970"/><stop offset="1" stop-color="#da956f"/></linearGradient><linearGradient id="f" x1="299.72" y1="134.98" x2="461.81" y2="134.98" xlink:href="#b"/><linearGradient id="g" x1="224.46" y1="40.6" x2="371.79" y2="125.67" xlink:href="#b"/><linearGradient id="h" x1="376.05" y1="143.07" x2="455.53" y2="143.07" gradientUnits="userSpaceOnUse"><stop offset="0" stop-color="#f7ae76"/><stop offset=".39" stop-color="#f3ad72"/><stop offset=".79" stop-color="#e6aa67"/><stop offset="1" stop-color="#dda85f"/></linearGradient><linearGradient id="c" x1="218.42" y1="58.11" x2="288.29" y2="17.77" gradientUnits="userSpaceOnUse"><stop offset="0" stop-color="#e30615"/><stop offset="1" stop-color="#ab0f09"/></linearGradient><linearGradient id="i" x1="468.4" y1="236.36" x2="524.06" y2="204.22" xlink:href="#c"/><linearGradient id="j" x1="391.8" y1="174.49" x2="454.96" y2="138.03" xlink:href="#c"/><linearGradient id="k" x1="127.67" y1="248.91" x2="333.32" y2="367.64" gradientUnits="userSpaceOnUse"><stop offset="0" stop-color="#4fae32"/><stop offset=".34" stop-color="#4ca730"/><stop offset=".84" stop-color="#43942b"/><stop offset="1" stop-color="#408c29"/></linearGradient></defs><path d="M274.61 5c30.53 0 62.5 19.39 62.5 19.39a47.21 47.21 0 0 1 22.38-6.17c11.2 0 24.38 5 33.95 24.25a52.61 52.61 0 0 1 5.86 22c8.07-4.39 16.85-7.42 25.5-7.42s17.37 3.09 25 11c20.24 21 11.43 40.09-1 54.21q1 2.07 1.93 4.06c2.82-1.1 5.55-2 8.1-3a28.28 28.28 0 0 1 10.06-1.89 23.28 23.28 0 0 1 9.61 1.89c30.73 11.3 20.73 44.38 20.73 44.38 8.65 9.9 13.73 16.91 16.9 22.71.28.5.54 1 .79 1.49a2.1 2.1 0 0 0 .13.26l.62 1.28c0 .08.07.16.1.23.46 1 .87 2 1.23 2.92v.05c.17.44.32.88.47 1.31a2.25 2.25 0 0 1 .08.24c.14.39.26.78.38 1.17l.06.2c.28.92.53 1.83.75 2.74v.09c.1.41.19.83.29 1.24 0 .08 0 .17.05.25.09.39.17.77.25 1.16v.21c.19.92.37 1.87.55 2.84v.09l.3 1.66.15.81.12.65c.09.5.18 1 .28 1.52 7.11 37.45-39.49 49.33-39.49 49.33v-4.21c0-.51-.05-1-.07-1.51 0-.85-.05-1.71-.11-2.55 0-.62-.09-1.21-.14-1.82s-.11-1.39-.18-2.07-.15-1.31-.24-2-.13-1.19-.22-1.77-.22-1.37-.33-2.05c-.09-.51-.17-1-.26-1.52-.14-.72-.29-1.42-.44-2.12-.1-.43-.18-.88-.28-1.3-.18-.74-.37-1.45-.56-2.17-.09-.37-.18-.74-.28-1.1-.21-.75-.44-1.47-.67-2.2-.1-.31-.19-.62-.29-.92-.25-.76-.51-1.5-.78-2.23l-.27-.74c-.29-.77-.6-1.51-.91-2.25-.08-.19-.16-.39-.25-.59-.33-.76-.68-1.51-1-2.24-.07-.15-.14-.31-.22-.45-.37-.77-.76-1.51-1.15-2.24l-.18-.33c-.41-.75-.84-1.49-1.28-2.22a2.39 2.39 0 0 0-.13-.21c-.45-.74-.92-1.47-1.4-2.18a.83.83 0 0 0-.08-.12c-.49-.73-1-1.45-1.51-2.14v-.05c-.53-.71-1.06-1.4-1.61-2.07a55.89 55.89 0 0 0-30.89-19.21 11 11 0 0 0-2.28-.23c-10.53 0-29.64 12.4-46 24.65 13.59 18.26 13.37 27.93 11.83 32.25 8.48 18.1 41.42 94.63 19.58 148.51l.25-.24c-2 6.19-5.93 12.56-10.54 18.38a74.58 74.58 0 0 1-8.38 9.32 1.14 1.14 0 0 0-.11.11c-.85.83-1.7 1.64-2.55 2.42-44.35 40.64-124.06 12.65-180 41.77l-6.71 8.1s-6 5.53-18.88 5.53c-6.68 0-15.19-1.49-25.65-6s-14.64 19.28-9.72 31.34 14.74 29 16.08 35.29c.71 3.33-.51 5.41-2.47 5.41-1.72 0-4-1.61-6.08-5.41-3-5.51-10.15-10.81-13.44-10.81-1.55 0-2.24 1.17-1.24 4 2.61 7.52 4.29 16.87.34 16.87a5.92 5.92 0 0 1-3-1.17c-7.59-4.92-10.72-36.19-15.64-41.1s-10.72-14.29-1.78-24.12 22.4-18 22.4-18a192.63 192.63 0 0 1-24.39-17.93c-.84 2.4-10.79 30.17-17.85 34.58S83.33 505.7 73.51 505.7a8.05 8.05 0 0 1-1.6-.15C63 503.89 83 493.43 78.58 491.9a6.48 6.48 0 0 0-2.08-.27c-4.06 0-11 1.88-14.75 1.88-1.78 0-2.89-.41-2.72-1.61.62-4.31 25.84-20.3 39.28-20.92 11.91-.55 18.5-23.05 19.86-28.2l-1.42-1.34c-6.79-6.51-12.68-12.61-17.82-18.35-4.47 4.81-12.92 14.64-18.3 23a8.12 8.12 0 0 1-7.39 4.16c-5.79 0-13.49-4-23.57-4a36.19 36.19 0 0 0-5.29.38 36.68 36.68 0 0 1-5.3.39c-14.95 0-23.06-9.62-16.27-10.56 7.56-1 16-5.7 5.47-5.81S16.77 424 16.77 424c-.66-3.28 1.63-4.4 5.57-4.4 8.54 0 24.86 5.25 36.08 5.25a20.62 20.62 0 0 0 6.56-.89 103.91 103.91 0 0 0 24.67-11.8 157.62 157.62 0 0 1-14.07-20.58c-14.36 17.53-12.49 22.72-22.37 24h-.65c-10.46 0-38.72-27.59-44.93-38C1.28 367 8 358.4 11.14 358.06h.14c3.19 0 5.93 11.95 8 11.95.61 0 1.18-1 1.68-3.58 2.25-11.39 4.33-14.33 5.88-14.33s2.71 3.35 2.71 3.35 12.09 32.28 22.17 32.63h.37c9.87 0 15.93-13.71 15.93-13.71-4.66-15.8.34-22.83.34-22.83l185.15-236.8a6.18 6.18 0 0 1 4.24-1.38c5.08 0 14.32 3.74 31.87 16 30.77-48.37 12.79-57 12.79-57-11.1-7.92-21-13.1-29.63-16.33a66.14 66.14 0 0 0-23.08-4.56c-16.35 0-25.25 7.9-27.77 10.55l-.31.34-.22.26-.13.16a113 113 0 0 1 .44-3.41c0-.22.07-.45.1-.67.16-1.07.33-2.13.51-3.17 0-.19.06-.37.1-.56.17-1 .35-1.94.55-2.89l.06-.32c.21-1 .44-2 .66-2.94l.15-.61c.24-.95.48-1.88.73-2.8 0-.12.07-.23.1-.35.24-.85.49-1.69.75-2.51.05-.14.09-.28.13-.42.28-.86.57-1.71.86-2.54l.18-.5c.31-.84.62-1.66.95-2.47v-.07c.32-.79.66-1.56 1-2.31l.18-.41q.51-1.12 1-2.19l.19-.36c.36-.71.73-1.4 1.11-2.08v-.07c.39-.7.79-1.37 1.2-2l.21-.35c.41-.64.82-1.27 1.25-1.88l.13-.19c.42-.6.84-1.17 1.27-1.73l.12-.16c.44-.58.9-1.14 1.36-1.69l.21-.25c.47-.55 1-1.09 1.44-1.61.5-.53 1-1 1.5-1.52l.16-.15c.5-.48 1-.95 1.53-1.4l.17-.14a40.57 40.57 0 0 1 3.24-2.54l.16-.12c.56-.39 1.12-.76 1.69-1.12l.07-.05c1.16-.73 2.36-1.4 3.57-2l.12-.07a46.17 46.17 0 0 1 5.69-2.37A57.3 57.3 0 0 1 274.61 5m60 159.59l30.07-29.94a53.47 53.47 0 0 1-3.43-18.74c-11.69 3-28.38 1-36.45 3.7-3.51 1.19-12.19 9.78-21.47 19.81 8.8 6.69 19.13 15 31.28 25.17m45.85 42.78c10.79-10 22.19-21.37 30.59-31.92 2.26-7.42 2.12-16.12-5.73-23.36h-.44c-6.49 0-11.39-2.63-16.26-2.63a12.36 12.36 0 0 0-2.34.22c-4.66.93-20.39 14.06-36.17 28.12a328.8 328.8 0 0 1 30.35 29.56m-123.68 218a262.27 262.27 0 0 1 27.77-5.36l2.78-.35c1.4-.17 2.82-.33 4.24-.47q2.85-.29 5.73-.48c1-.06 1.91-.11 2.87-.15s1.91-.08 2.86-.1 1.94 0 2.91 0h2.75c2.32.06 4.61.2 6.81.43l1.32.15a58.58 58.58 0 0 1 6.26 1.11 40.43 40.43 0 0 0 9.3 1.24c21.35 0 41.4-23.92 56.11-155l-131.67 159M274.61 0a62.2 62.2 0 0 0-20.06 3.1 52 52 0 0 0-6.35 2.64l-.13.07c-1.37.69-2.71 1.45-4 2.25H244c-.63.39-1.26.82-1.89 1.26l-.13.09h-.05c-1.24.87-2.46 1.83-3.62 2.83l-.06.05-.13.12c-.58.5-1.15 1-1.7 1.55l-.13.12v.05c-.59.56-1.12 1.1-1.62 1.63l-.06.06c-.51.54-1 1.13-1.59 1.78l-.23.27c-.54.65-1 1.25-1.5 1.87l-.12.14c-.49.65-.95 1.29-1.4 1.93v.05l-.12.17c-.44.64-.9 1.33-1.35 2.06l-.19.3v.07c-.49.78-.92 1.5-1.31 2.2v.08c-.37.66-.76 1.4-1.18 2.22l-.06.11-.14.28c-.39.76-.77 1.56-1.14 2.36l-.13.3-.06.13c-.4.89-.75 1.7-1.07 2.48v.09c-.31.78-.64 1.64-1 2.63l-.2.53c-.32.91-.63 1.82-.91 2.7l-.09.29v.15c-.27.88-.54 1.77-.79 2.65v.12l-.08.25c-.25.92-.5 1.88-.76 2.94l-.16.65c-.26 1.1-.49 2.1-.69 3.07v.35c-.19.94-.39 2-.58 3v.21l-.07.38c-.18 1.05-.36 2.16-.53 3.29l-.07.5v.2c-.19 1.32-.33 2.45-.46 3.53l-2 17.48L225.09 66l.13-.15.21-.23c2-2.13 9.71-9 24.17-9A61.7 61.7 0 0 1 271 60.7c9 3.3 18.55 8.61 28.5 15.71l.59.42h.07c.56.46 2.47 2.44 2.47 7.89 0 6.32-2.59 17.86-14.5 37.55-18.51-12.4-26.18-13.92-30.38-13.92a11.09 11.09 0 0 0-7.51 2.6l-.37.32-.3.38L64.49 348.48l-.07.09-.07.09c-.63.89-5.85 8.88-1.61 25.18-1.89 3.43-6 9.24-10.6 9.24H52s-3.76-.7-10.74-14a154.56 154.56 0 0 1-6.88-15.27c-1.37-4.21-4.14-6.71-7.44-6.71-4.41 0-7 3.84-8.91 10.43-1.61-2.54-3.66-4.47-6.69-4.47a5.12 5.12 0 0 0-.69 0c-3.28.36-6.6 3.16-8.66 7.3-3 6.07-2.5 13.28 1.4 19.79 3.4 5.69 12.38 15.57 21.82 24 7.33 6.56 13.6 11.17 18.75 13.79-1.63-.31-3.27-.64-4.89-1-6.27-1.26-12.2-2.45-16.68-2.45-1.57 0-6.21 0-8.91 3.32a8.19 8.19 0 0 0-1.62 7.19 12.79 12.79 0 0 0 6.1 8.11 6.66 6.66 0 0 0-2.56 5.76c.44 6.33 10 13.1 23.68 13.1a42.47 42.47 0 0 0 6-.44 31.62 31.62 0 0 1 4.57-.33 52.55 52.55 0 0 1 13.7 2.28 40 40 0 0 0 9.87 1.77 13.14 13.14 0 0 0 11.59-6.44A172.52 172.52 0 0 1 99 430.54c4.2 4.52 8.75 9.14 13.57 13.78-3.32 11-9 21.41-14.45 21.66-9.52.44-21.84 6.95-26.7 9.73A91.54 91.54 0 0 0 60.43 483c-4.09 3.25-6 5.71-6.35 8.21a6.11 6.11 0 0 0 1.41 4.94c2.07 2.38 5.22 2.38 6.26 2.38a36.93 36.93 0 0 0 5.55-.57c-2 2.3-3.22 4.78-2.45 7.64.4 1.5 1.73 4.15 6.09 5.05a12.76 12.76 0 0 0 2.61.26c9.37 0 24.29-9.06 37.55-17.54 1.11-.71 2.08-1.34 2.87-1.83 2.47-1.54 6.52-5.32 13.17-20.25 1.65-3.68 3.11-7.29 4.26-10.24 4.41 3.55 8.77 6.78 13 9.67-.53.37-1.09.77-1.66 1.19a101.42 101.42 0 0 0-15.31 13.36c-8.53 9.38-7.79 21.25 1.92 31 1.29 1.61 3.27 9.42 4.59 14.6 3.58 14.1 6.35 23.61 11.89 27.2a10.64 10.64 0 0 0 5.74 2 6.9 6.9 0 0 0 5.67-2.92c2.34-3.29 1.89-8.92.57-14.37a18.76 18.76 0 0 1 3.71 4.57c3.79 7 8.19 8 10.47 8a7.36 7.36 0 0 0 5.77-2.75c1.76-2.17 2.32-5.27 1.59-8.7-.89-4.13-4.33-11.05-8.32-19.07-2.92-5.87-5.94-11.94-8-17.06-2.58-6.33 3-17.22 6.92-23.32a67 67 0 0 0 23.8 4.86c14.38 0 21.5-6.14 22.26-6.84l.25-.23.22-.27 6.06-7.31c24.21-12.27 53.69-13.7 82.22-15.09 35.58-1.73 72.38-3.53 98-27 .79-.73 1.64-1.54 2.59-2.47l.11-.1a79.61 79.61 0 0 0 8.91-9.9c5.48-6.93 9.3-13.62 11.35-19.9l.94-2.89q1-2.66 1.77-5.41l3.45-10.58-1.13 1.08c4-20.52 2.84-44.75-3.59-72.32a330.82 330.82 0 0 0-20.72-60.13c2-9.53-3.78-21.26-10.22-30.72 12.1-8.83 30.1-20.75 39-20.75a5.54 5.54 0 0 1 1.22.12 51.07 51.07 0 0 1 28.08 17.49q.75.92 1.47 1.89c.48.64.94 1.29 1.39 2l.07.11c.45.66.88 1.33 1.29 2v.06l.09.14c.41.68.8 1.36 1.17 2l.06.11.1.19c.39.72.74 1.39 1.07 2.06l.08.18.11.23c.37.76.68 1.43 1 2.08l.1.25.12.29c.34.8.61 1.46.84 2.08.05.11.09.23.13.34l.13.35c.22.61.48 1.33.73 2.07 0 .15.09.3.14.46l.12.39c.21.66.43 1.36.62 2.05.06.19.1.39.15.58l.12.45c.18.65.35 1.3.51 2l.15.72.11.5.06.29c.12.56.25 1.12.35 1.69.06.29.11.59.16.89l.09.55.07.45c.09.49.17 1 .24 1.48.06.35.1.72.14 1.09l.07.58.08.57c.05.42.11.85.15 1.28s.08.91.12 1.37v.6l.06.64c0 .35.06.71.08 1.08 0 .64.07 1.3.09 2v5.91l-.1 6.54 6.34-1.62a80.58 80.58 0 0 0 24.07-11.4c15.97-11.2 22.54-26.32 19.27-43.66-.1-.51-.19-1-.28-1.49l-.11-.64-.05-.28-.1-.53-.31-1.67v-.1c-.19-1-.37-2-.57-2.93v-.21c-.09-.42-.17-.83-.26-1.23l-.06-.27c-.1-.45-.21-.89-.32-1.33v-.11c-.25-1-.52-2-.82-3v-.22c-.13-.43-.27-.87-.42-1.3v-.06l-.07-.21c-.16-.48-.34-1-.52-1.45v-.07c-.4-1-.86-2.13-1.35-3.22l-.09-.19v-.06c-.22-.46-.44-.93-.68-1.4v-.08l-.1-.21c-.27-.53-.55-1.06-.84-1.6v-.07c-3.28-6-8.34-12.92-15.82-21.62a52.52 52.52 0 0 0 .65-17.3c-1.4-10.16-6.87-23.65-24.91-30.37a28.91 28.91 0 0 0-11.54-2.27 32.92 32.92 0 0 0-10.57 1.76c4.63-6.7 7.33-13.25 8.22-19.86 1.58-11.78-2.83-23.16-13.11-33.8-8-8.31-17.64-12.52-28.59-12.52a54 54 0 0 0-21.28 4.8 61.15 61.15 0 0 0-5.61-16.61c-11.12-22.33-27-27-38.42-27a52.08 52.08 0 0 0-22.29 5.45C328.88 14 301.52 0 274.61 0zm36.17 138.81c11.87-12.5 15.12-14.24 15.69-14.47 3.26-1.1 9-1.29 15.17-1.49a147.11 147.11 0 0 0 15-1 59.55 59.55 0 0 0 2.36 11.46l-24.64 24.52c-8.52-7.1-16.42-13.47-23.57-19zm76.56 15.78a6.89 6.89 0 0 1 1.32-.12 26 26 0 0 1 5.75 1 45.63 45.63 0 0 0 8.83 1.56c4 4.36 5.05 9.64 3.32 16a283.22 283.22 0 0 1-25.76 27.15c-6.5-7-14.24-14.55-23.1-22.45 23.38-20.57 28.73-22.94 29.64-23.21zM270 417.36l111.53-134.73c-14.74 118.11-33.9 133.76-49.15 133.76a35.51 35.51 0 0 1-8.14-1.1 61.51 61.51 0 0 0-6.81-1.21l-1.41-.16c-2.26-.24-4.69-.39-7.2-.45h-5.88c-1 0-2 .06-3 .1l-3 .16a189.41 189.41 0 0 0-10.24.97l-2.85.37c-5 .67-9.72 1.48-13.92 2.29zm-212.68 2.45c5.93-1.69 8.39-5.49 11.85-10.83 1.47-2.28 3.31-5.12 5.88-8.6 2.18 3.4 4.6 6.89 7.26 10.43a107.18 107.18 0 0 1-18.94 8.4 15.93 15.93 0 0 1-4.95.62h-1.1z" fill="#1d1d1b"/><path d="M68.07 374.37s-6.21 14.05-16.3 13.7-22.17-32.63-22.17-32.63-3.94-12.58-8.59 11c-2.28 11.61-5.69-8.82-9.87-8.36-3.14.32-9.86 8.92-3.51 19.53s35.71 39.17 45.58 37.93 8-6.44 22.37-24c0 .03-4.46-11.35-7.51-17.17z" fill="#f9b233"/><path d="M93.41 409.34s-9.07 8-28.43 14.6c-14 4.77-50.59-11.89-48.21 0 0 0 1 6.47 11.51 6.58s2.09 4.77-5.47 5.81 3.33 12.84 21.57 10.17 29.57 9.85 36.25-.49a189.75 189.75 0 0 1 20.75-25.48s-7.08-9.45-7.97-11.19zm25.02 32.39s-6.67 28.63-20.12 29.27S59.65 487.59 59 491.9s15.1-1.54 19.55 0S63 503.89 72 505.74s32-13.84 39.37-18.46 17.92-34.76 17.92-34.76zm49.7 36.53s-14.64 19.28-9.72 31.34 14.74 29 16.08 35.29-4.15 8.11-8.55 0-17.81-15.76-14.68-6.76 4.91 20.61-2.68 15.7-10.72-36.19-15.64-41.1-10.72-14.29-1.78-24.12 22.4-18 22.4-18z" fill="#f9b233"/><path d="M399.2 246.41s63 123.45 2.82 179.92c-50.81 47.7-127.58 8.3-182.67 44.3l35-44.59s43.3-12 68.74-5.89 49.89-4.3 66.78-166.43z" fill="url(#d)"/><path d="M254.34 426l-35 44.59c56-29.12 135.66-1.13 180-41.77 8.72-8 18-19.4 21.58-30.23-44.22 42.21-97.86 21.52-97.86 21.52-25.42-6.03-68.72 5.89-68.72 5.89z" fill="url(#a)"/><path d="M253.51 114.74s-17.5 33.2 52.85 90.15 93 48.37 93 48.37 19.58-16.32-51.73-77.64-88.71-65.56-94.12-60.88z" fill="url(#e)"/><path d="M360.1 241.87s58.64-52.25 77.42-48.18 46.51 22.07 45.81 68.54c0 0 46.6-11.88 39.49-49.33-2.67-14.06-2.54-21.05-23.63-45.15 0 0 10-33.09-20.73-44.39 0 0-8.52-4.24-19.67 0s-25.73 6.69-36.52 34.27-74 77.46-74 77.46z" fill="url(#b)"/><path d="M312.21 212.9s63.84-61.17 74.11-63.21 19.56 11.13 42.23-8.76c13.22-11.6 53-40 21.25-72.89s-80.69 17.59-84.45 27.39-6.6 23-.63 39.22l-65 64.71z" fill="url(#f)"/><path d="M273 174.2s42.92-51.56 51.89-54.59 28.54-.25 40.11-4.87 48.64-31.81 28.49-72.27-56.33-18.08-56.33-18.08S233-38.77 221.17 62.86c0 0 24.23-31.18 81.24 9.48 0 0 26 12.48-38 91.48z" fill="url(#g)"/><path d="M386.85 103.92c5.64-4.71 37.95-24.14 57.87 10.82s15.91 51.35-42.9 77.11c0 0 26.41-29.44-4.4-45.14s-22.76-32.6-10.57-42.79z" fill="url(#h)"/><path d="M268.32 5.29C246.13 7.4 226 21.44 221.17 62.86c0 0 15.72-20.21 51.61-6.85 3.9-1.57 18.34-9.76 18.25-26.83-.03-11.28-8.19-23.89-22.71-23.89z" fill="url(#c)"/><path d="M522.82 212.9c-1.68-8.84-2.25-14.89-7.69-24.14-15.77-11.94-39.58 3.87-44.72 15.53a23.71 23.71 0 0 0-2 8.61c8.84 10.81 15.26 26.68 14.92 49.33 0 0 46.6-11.88 39.49-49.33z" fill="url(#i)"/><path d="M454.6 137.51c-6.6-13.53-23.07-11.86-33.74-5.12-11.46 7.24-12.15 17.68-12.39 23.15 11.66 15.9-6.65 36.31-6.65 36.31 44.39-19.44 57.56-33.55 52.78-54.34z" fill="url(#j)"/><ellipse cx="350.38" cy="38.32" rx="6.85" ry="4.81" transform="rotate(-47.13 350.378 38.317)"/><path d="M68.42 351.56S50 377.43 116.75 441.44s95.89 37.29 95.89 37.29l186.72-225.47s-22.65 8.58-93-48.37-52.85-90.15-52.85-90.15z" fill="url(#k)"/><ellipse cx="412.97" cy="86.86" rx="6.85" ry="4.81" transform="rotate(-70.37 412.964 86.87)"/><ellipse cx="442.3" cy="98.95" rx="6.85" ry="4.81" transform="rotate(-52.47 442.258 98.955)"/><ellipse cx="487.42" cy="156.13" rx="6.85" ry="4.81" transform="rotate(-48.52 487.402 156.126)"/></svg>