<svg xmlns="http://www.w3.org/2000/svg" viewBox="0 0 566.9 566.9"><path d="M554.7 372.2c-5.6-5.5-12.2-10.1-16.5-16.3-10.9-15.9-20.9-32.4-31.1-48.8-2.4-3.8-3.8-8.2-5.7-12.4 1-.8 2.1-1.6 3.1-2.4 7.1 8.2 14.3 16.4 21.4 24.6-9.1-21.3-22.2-39.6-38.2-55.9 23.1 14.5 41.3 34.1 59.3 54.1-5.7-10-11.8-19.6-18.1-29-6.5-9.5-13.2-18.9-19.8-28.4.4-.8.9-1.6 1.4-2.4 14.8 3.6 29.6 7.3 44.4 10.9-22.8-5.7-86.5-43.4-90.9-55.7 7.6 3.6 14.5 6.9 22.9 10.9-2.9-3.4-4.8-5.7-6.7-7.9.4-.6.9-1.3 1.3-2 9.5 5.1 19 10.1 28.4 15.4 9.2 5.3 18.3 10.9 27.4 16.3.3-.3.5-.7.8-1.1-13-11.2-25.9-22.4-38.9-33.6l.6-1.5c13.8 4.7 27.6 9.5 41.4 14.2.2-.3.5-.6.7-.9-16.8-12-33.5-23.9-49.2-35.1 7.3 1.2 16.1 2.8 24.9 4.3.2-.5.3-1 .5-1.5-20-6.9-40-13.9-60.5-21 18.3-3.3 34.9 1.9 52 6.4-8.6-5.1-17.1-10.2-25.7-15.3.3-.5.5-1 .7-1.5h10.1c.1-.2.1-.5.1-.7-11-3.3-22.1-6.7-33.1-10 .2-.5.3-1 .4-1.5h51.8c-7.1-1.8-12.6-4.6-17.7-4-7.6.9-14.9.4-22.5-.4-24.6-2.6-49.3-5.4-74.1-.8-5.3 1-10.7 1.2-16.1 1.7-.2-.8-.5-1.6-.7-2.4 1.9-1.1 3.7-3 5.7-3.1 7.8-.4 15.6-.5 23.4-.3 18.3.4 36.5 1.2 54.8 1.7 1.3.1 2.5-.5 5.5-1.2-4.6-1.6-7.5-2.5-11.1-3.7 5-5.5 11-2.9 16.1-3.6 5.3-.8 10.7-1.1 16.1-1.6-31.7-7.1-63.4-1.2-95.2.4 15-10 31.8-14 48.7-18.1l-.3-2.1c-20.3 1.9-40.7 3.8-61 5.7 20.9-10.8 42-21.3 66.7-21.1-.1-.6-.1-1.1-.2-1.7-23.7 1.6-47.3 3.2-71 4.8 12.9-16.4 30.7-22 51-24.9-18.9-2.7-34.7 6.2-52.4 7.4 5.8-4.8 11.5-9.7 18-15.1-21.3 3.5-37.7 15.8-56.1 24.3 2.8-4.6 5.6-9.2 9.3-15.3-8.3 4.7-15 8.6-21.7 12.4l-1.1-1.1c3.4-4.9 6.7-9.8 10-14.7-4.9 4.3-10.9 8-14.5 13.2-9.9 14.4-18.7 29.6-28.1 44.3-2.7 4.3-6 8.2-9.9 11.9 7.7-10.7 6.6-24.6 15.7-35.4 11.4-13.4 21.4-27.8 36.5-37.4.9-.6 1.4-1.8 2.2-2.9h4.7c-.6 1-1.3 2.2-2 3.4 6.2-1.7 12.3-3.5 18.3-5.2-20.2-6.8-38.4 1.4-57.5 11.9 3.1-6.2 5.3-10.7 7.5-15.2-9.1 10.6-18.2 21.2-28.3 33 1.7-11.3 9.1-17.8 14.4-25.5-3.1 2.1-6.2 4.2-10.6 7.1 1.8-7.8 3.4-14.4 4.9-21.1-.7-.2-1.5-.5-2.2-.8-8.4 8.4-8.6 21.4-16.4 31.7-1.5-10.5-2.7-19.9-4-29.3-.6.1-1.2.1-1.8.1 0 17.2 2.5 34.5-.5 51.5-.7 0-1.5-.1-2.2-.1.6-12.8 1.2-25.7 1.8-38.5-.2 0-.4.1-.6.1-1.8 7.8-3.7 15.7-5.6 23.5-.7-.2-1.3-.3-2-.5-.7-12.6-1.5-25.3-2.2-38-.5-.1-1-.3-1.5-.4-3.2 8.9-6.3 17.8-9.9 27.9-3-4.4-5.1-7.4-7.2-10.4-1 3.6-1.9 7-2.9 10.3-.9 0-1.8-.1-2.7-.2-2.2-8.5-4.3-16.9-6.5-25.4-.5 0-.9.1-1.3.1l-3.3 25.5c-1 0-2.1.1-3.1.1-2.2-6-4.3-12.1-6.5-18.1h-1.4v29.3c-.6.2-1.2.3-1.8.4-8.5-11.8-17.1-23.5-25.6-35.3-.6.4-1.3.8-1.9 1.2 12.4 13.7 14.8 31.4 20.9 47.7-.6.3-1.1.5-1.7.8-4.2-7.7-8.4-15.3-12.6-23-.2.1-.5.2-.7.3 2.4 10.5 4.8 21 6.9 30.2-2.5 1.1-3.5 1.2-3.8 1.7-.6 1.2-.9 2.6-1.7 5.5-7.2-16.5-13.8-31.5-20.2-46.1.4 9.9.8 20.2 1.3 30.6-.7.3-1.5.6-2.2.9-6.7-7.1-13.3-14.1-20-21.2l-.6.6 7.2 17.7c-.5.3-1.1.7-1.7 1.1-3.9-3-7.9-6.1-13.1-10.2 10.1 13.6 19.1 25.5 28 37.7 1.3 1.8 1.6 4.4 2.4 6.6-.8.5-1.6.9-2.4 1.4l-41.4-49.5c-.3.2-.6.5-.9.7 5.2 11.4 10.4 22.7 15.6 34.1-.5.4-1.1.8-1.6 1.2-8.6-7.9-17.3-15.7-25.9-23.5-.3.2-.5.3-.7.5 7.1 13 14.3 26 22.3 40.5-13-8.8-24.4-16.5-35.8-24.2-.3.3-.5.6-.8.9 5.4 7.4 10.9 14.7 16.4 22-.3.4-.7.9-1 1.3-4.2-1.6-8.3-3.3-13.8-5.4 7.8 6.6 14.5 12.3 21.6 18.4-12.9 1.2-20.1-8.2-29.7-14 4.1 9.2 12.4 16 9.1 27.1-9.6-4.6-18.8-9-28.6-13.7 4.4 6 8.3 11.3 12.9 17.5H62.2c8.8 3.3 16.3 6.1 23.8 8.9-.3.9-.5 1.7-.8 2.6-7.4-.5-14.9-1.1-22.4-1.6 0 .3-.1.7-.1 1 9.6 3.9 19.2 7.9 28.8 11.8-.2.6-.5 1.3-.7 1.9-18.3-.4-36.8-4.1-54.9 2.7 18.1.9 33.9 8.5 50.1 14.7-.2.6-.3 1.3-.4 1.9-8.1 1-16.1 2.1-25.5 3.4 7.1 2.5 12.5 4.4 17.9 6.3-.1.6-.2 1.3-.3 1.9H43c10 4 18 7.2 25.9 10.4-10.3 3.2-19.5 6.1-28.7 9 7.6 2 15.3 2 22.6 3.4 7.3 1.4 14.3 4.2 21.4 6.4-.1.7-.3 1.5-.4 2.2-16.1 5.4-32.3-1.9-49.7-1 4.8 2.9 8.5 5.1 13 7.8-3.8 3-6.9 5.3-10.1 7.8 8.4 4.1 20.1-1.8 26.4 9.5-11.9 2-23.1 3.9-35.7 6.1 11.5 3 21.2 5.5 31.8 8.3-5.5 6.3-8.5 11.4-17 10.2-6.4-.9-13.4 2.5-20.1 4 4.5 1.4 9.5.9 12.7 3 7.3 4.8 14.9 3.9 22.7 3.9 2.6 0 5.2.2 8.4.4-1.4 6.8-6.4 8-11 9.4-6.1 1.8-12.3 3.4-18.4 5.1 5.2-.8 10.4-1.6 16.2-2.2-3.3 4.9-13.8 6.2-15.8 2.2-5.1 2-10.3 3.9-15.5 5.9.1.4.3.7.4 1.1 8.3-.8 16.7-1.6 25.9-2.5-1.5 2.2-2.5 3.6-3.7 5.3 6.7-1.6 13-3.2 19.2-4.7.2.6.4 1.3.6 1.9-5 6.7-11 11.5-19.2 14.3-8.3 2.8-16.2 7.3-24.2 11 .3.4.5.9.8 1.3l19.2-2.4c.3.7.7 1.3 1.1 2-3.1 5.6-6.3 11.2-10.1 17.9 7.4-5.9 13.8-11 20.1-16C66 355.8 66 355.8 72.4 356c-14.8 18.9-36 30.2-52.6 46.7 10.4-4.9 20.3-10.5 30.3-15.7 1.6-.8 4-.3 6.1-.4-.7 1.7-1.1 3.6-2.1 5.1-6.6 9.4-13.4 18.7-20.2 28 5.5-4.1 9.9-9.1 14.5-13.9 1.5-1.6 4.1-4.3 5.1-3.9 5.7 2.4 7-2.8 9.5-5.3 3.8-3.9 7-8.4 10.4-12.6l.5.5c-12.9 20.6-25.7 41.1-38.6 61.7.3.2.6.3.9.5 11.5-10.5 23.1-20.9 34.6-31.4l1.2.9c-8.4 17-16.9 33.9-25.3 50.9.6.4 1.2.7 1.8 1.1 17.6-24.2 35.1-48.4 52.7-72.6l1.8 1.2c-11.5 24.2-22.9 48.4-34.4 72.6.5.2.9.4 1.4.6 9.1-11.9 18.3-23.7 27-36 .2.2.4.5.6.7-7.2 18.2-14.3 36.3-21.4 54.5.8.4 1.5.7 2.3 1.1 8.8-16 17.7-32 26.9-48.5-4.9 20-9.5 39.2-14.2 58.4.7.2 1.5.4 2.2.6 7.4-15.7 14.7-31.3 22-47-.6 6.1-2.4 11.9-3.1 17.9-.8 6.2-.9 12.6-.8 18.9.1 5.6.8 11.2 1.2 16.8.8.1 1.7.1 2.6.2.6-14.2 3.9-27.3 13.9-37.8 3.4 17.4-.2 36.8 16.4 49.1 2.9-6.4 5.5-12.2 8.6-19 1.6 2.5 2.2 4 3.3 5 6 5.9 11.3 15 18.4 16.9 12.9 3.4 26.9 2.6 40.5 3.6-6.3-3.3-12.8-4.7-17.6-12 18.2 3.2 34.5 12.2 53.5 4.6-11.3-1.7-22.1 2.9-31.1-4.4 9.4.4 18.6.6 27.7 1.3 1.9.1 3.7 1.7 5.4 2.9 7.9 5.3 15.6 10.7 23.4 16.1.7-.6 1.3-1.2 1.9-1.8-4-3.2-8.2-6.3-4.8-9.4 10.9-1 20.4.1 28.4-2.9 10.4-3.8 18.5 1.1 27.3 3.2 6.1 1.4 7.5 1.4 7.5-6.4 6.6.8 13.2 1.1 19.4 2.6s12.1 4.3 18.1 6.5c-2.2-3.1-4.9-5.2-7.2-7.6-2.2-2.3-4.1-4.9-5.7-7 26.3 1.1 52.1 2.1 77.9 3.2-1.9-2-4.5-1.8-5.6-3-2.4-2.5-4-5.8-5.9-8.7 2.4-1.3 4.8-3.4 7.4-3.9 12.1-2.3 24.5-3.5 36.5-6.3 10.1-2.3 19.7-6.2 29.5-9.4-.3-1.1-.5-2.1-.7-3.2-21.6 12.9-44.5 9.1-67.2 8.1-.2-11 3.2-18.4 15.2-12.7 7.3 3.5 15.8 4.5 23.8 6.6.2-.5.3-1.1.5-1.6-4.4-2.6-8.8-5.3-13.2-7.9.3-.5.5-1.1.8-1.6 6.6 1.9 13.2 3.9 21.1 6.2-7.4-5.4-13.9-9.4-19.5-14.4-5.2-4.7-4.2-7.1 2.5-8.7 8.2-1.9 16.3-3.6 24.5-5.4-.1-.3-.2-.5-.3-.8-6.3-.9-12.7-1.9-19-2.8 0-.7-.1-1.4-.2-2.1 10.2-8.7 20.5-17.5 30.7-26.2-.3-.3-.7-.7-1.1-1-4.6 1.8-9.3 3.7-13.9 5.6-.5-.8-1.1-1.5-1.6-2.3 3.6-5 8.1-9.6 10.6-15.1 2.9-6.2 6.4-6.4 11.7-4 6.8 3.1 13.6 5.9 20.4 8.8-3.3-3.8-6.7-7.6-10.8-10.3-11.1-7.4-20.7-15.3-17.4-30.8.1-.8-.3-1.7-.7-3.9 9.8 7.7 18.6 14.5 27.4 21.4.3-.2.6-.5.9-.8-5.1-7.6-10.3-15.2-15.5-22.8.4-.7.9-1.5 1.3-2.2 14 4.4 28.1 8.8 42 13.1zm-215-310.9c-5.3 3.2-10.6 6.5-16.8 10.2 4.1-8.6 8.7-11.2 16.8-10.2zm158.1 190c7 8.8 14.2 17.4 20.1 27.1-1.9-2.2-3.5-4.6-5.6-6.5-13.4-12.5-26.3-25.6-40.6-37.1-8.1-6.5-18.5-10.4-28.2-15.6 4.9 1.2 9.7 2.5 14.5 3.7.1-.4.3-.9.5-1.3-3.7-1.1-7.4-2.3-11.2-3.3s-7.7-1.9-11.5-2.8c.2-.7.5-1.3.8-2 26.2 3.3 45.3 18 61.2 37.8zm-20.8-8.7c-10.7-4.8-20.7-9.2-31.3-14 5.8-1.8 23.1 6.1 31.3 14zm-71 88c26.6.7 40.6 15.9 60.4 40.2-20.9-10.4-41.7-20.8-62.5-31.1.4-1 .8-2.1 1.2-3.1 7.9 2.8 16.1 5.1 23.7 8.6 7.9 3.6 15.3 8.3 23.7 11.1-15.5-8.5-31-17.1-46.5-25.7zm3.6-6.5c-5.5-2.9-10.9-5.8-16.4-8.7l1.5-2.4c5.2 3.2 10.5 6.4 15.8 9.7-.3.4-.6.9-.9 1.4zm-86.8 80.6c-7.4-7.3-14.9-14.5-21.9-22.2-1.3-1.4-.2-5.1-.2-9.2 4.8 2.3 9.2 2.9 10.7 5.2 5 7.9 8.9 16.5 13.2 24.8-.6.5-1.2.9-1.8 1.4zm1.8 18.1c-11.5-7.6-18.5-18.4-22.4-31.5 6.8 11.1 20.7 16.9 22.4 31.5zm8.5 51.1c-7.7 0-10-1.7-17.8-12.9 5.3 2.4 9.3 4.3 13.7 6.3-1.6.6-2.6.9-3.7 1.3 2.6 1.8 5 3.4 7.8 5.3zm-19.9-26.5c-9.3-3-14.7-11.3-14.9-19.4 17.5 15.6 38.2 22.4 59.8 27.4-.3 1-.6 1.9-.9 2.9-14.7-3.6-29.6-6.4-44-10.9zm-65.8-35c-2-8.6.1-14.1 7.8-18.7-2.8 6.8-5.4 12.8-7.8 18.7zm-29.2-12.8c-.5-.3-1.1-.6-1.6-.9 3.6-6.9 6.8-14 11-20.6.8-1.3 5.3-.2 8.1-.2 0 .7.1 1.5.1 2.2-5.8 6.5-11.7 13-17.6 19.5zm16.7-10.9c-11.6 16.3-8.8 35.7-11.6 53.9h-2.2c-.2-13.1-1.7-26.4 0-39.3.7-5.7 8-10.6 12.3-15.8l1.5 1.2zm-39.4 31.6c-.2-12.9 4.2-23 11.5-33.7.3 3 .5 4.7.9 7.8 3.9-5.2 7-9.4 10.1-13.5.3.3.7.5 1.1.8-7.6 12.5-15.3 25.1-23.6 38.6zm3.8-1.7c5-8.3 9.4-15.7 14.3-23.8.5 17.5-2.3 19-14.3 23.8zm-15.9-28.4c-1.6 10.8-3.2 21.6-4.9 32.6-.6-.1-1.3-.1-2-.2.2-4.7.1-9.5.7-14.2 1.5-11.2 3-22.4 4.9-33.5.9-5.1 1.9-10.4 4.1-14.9 1.3-2.7 5.1-4.2 7.8-6.3.5.4 1.1.9 1.6 1.4-3.2 4.9-6.4 9.8-10.8 16.6 5.5-2 9.1-3.3 11.7-4.3-4.8 17.2-9.9 35.4-14.3 51 .8-7.5 2-17.7 3.1-27.9-.7-.1-1.3-.2-1.9-.3zm-27.9 13.2c4.7-15.1 9.3-30.4 14.2-45.6 2.3-7.1 8.4-2.8 13.7-4.5-9.8 17.6-19 34.1-27.9 50.1zm-11.6-1c-.7-.3-1.3-.5-2-.8 3.7-7.7 7.4-15.3 11.1-23 .8.4 1.5.7 2.3 1.1-3.8 7.5-7.6 15.1-11.4 22.7zm4.2 7.6c-.4 9.8-.9 19.2-1.4 28.6h-1.1c-.4-1.4-.7-2.8-1.2-4.9-1.3 8.1-2.5 15.3-3.7 22.5 1.8-15.5-2.1-31.9 7.4-46.2zm-37-76.3c-.4-.6-.8-1.1-1.2-1.6 5.3-3 10.6-6.1 15.9-9.1.5 1 1 1.9 1.5 2.9l-16.2 7.8zm1.7 7.3c-8.2 9.9-16.7 19.9-25.1 30 2-11.9 16-27.4 25.1-30zm-6.4-124.8c.1-.7.1-1.3.2-2 15.6 1.3 31.1 2.6 46.7 3.9l-.3 2.7c-15.6-1.5-31.1-3.1-46.6-4.6zm12.4 17.2c-12.5 5.4-26.1 4.6-39.2 5.5 13.4-.6 25.1-11 39.2-5.5zm32.1-23.8c-.4 1-.7 1.9-1 2.9-13.1-4.5-26.3-9-39.5-13.5.2-.7.5-1.4.7-2.1 13.3 4.2 26.5 8.5 39.8 12.7zm-26.6-11.3c.1-.5.2-.9.3-1.4 7.1 1 14.2 2.1 21.2 3.2-.1.8-.3 1.7-.4 2.5-7-1.4-14.1-2.9-21.1-4.3zm77.3-14.3c5.1 5.6 10.2 11.3 15.3 16.9h-.3c-5.6-5.1-11.2-10.2-16.7-15.2l1.7-1.7zm-19.2-36.3c9.6 8.7 19.1 16.1 26.9 24.9 3.8 4.1 4.5 10.9 5.9 16.7-10.7-13.6-21.5-27.2-32.8-41.6zm35.3 127.8c-5.5 17.6-11.2 21.3-23.2 13.9 6-1.2 13.5 3.3 16.6-4.8 2.1-5.6 3.5-11.5 5.5-18.6 3 8.3 5.5 15.1 7.9 22.1-.3.2-.7.3-1 .5-1.9-4.4-3.9-8.8-5.8-13.1zM210 384.7c1.3-7.4 2.4-13.6 3.6-20.1 6.8 4 6 8.1-3.6 20.1zm-60-142.4c0-.3.1-.7.1-1h20.3c0 .8-.1 1.6-.1 2.4-6.8-.5-13.5-.9-20.3-1.4zm13.7 86.5c-6.3 5.8-12.6 11.7-18.9 17.5l-1.2-1.2c5.9-6.2 11.8-12.4 17.8-18.6l2.3 2.3zm-27.5-90.3c3.7-1 7.3-2.5 11.1-2.6 8.3-.3 16.6.2 24.9.4 0 .7-.1 1.5-.1 2.2h-35.9zm12.6-11.7c12.3-1.1 24.7-4.4 37.9 2-13.7-.7-25.8-1.4-37.9-2zm34.6 5.5c-.1.9-.3 1.7-.4 2.6-8-1.5-16-3.1-24-4.7.1-.5.1-.9.2-1.3 8.1 1.2 16.1 2.3 24.2 3.4zM171 247.5c7.4-.6 14.8-1.3 22.2-1.6 1.8-.1 3.7 1.4 5.5 2.2-1.7.9-3.5 2.5-5.2 2.4-7.6-.6-15.1-1.7-22.6-2.6.1-.1.1-.3.1-.4zm27.4 19c-7.7.5-15.9.9-24.2 1.4 3.2-5.1 15.8-5.7 24.2-1.4zm8.9-68.8c-.4.6-.8 1.1-1.2 1.6-11.7-9.2-23.3-18.5-36.6-29 16.9 5.6 27.3 16.6 37.8 27.4zm-32.6-18.6c-.6.6-1.2 1.3-1.8 2-8.4-7.5-16.9-15-25.3-22.6.5-.6 1.1-1.3 1.6-1.9l25.5 22.5zm-39.2 59.6c.1 0 .2 0 .2-.1 2.5.8 5.1 1.6 9.1 3.1-8.3.8-14.9 1.5-21.4 2.1-.1-.3-.2-.5-.3-.8 4.1-1.5 8.3-2.9 12.4-4.3zm13.1 58.2l.9 2.1c-7.3 3-14.6 6.1-21.9 9.2-.2-.5-.5-1.1-.7-1.6 7.2-3.2 14.4-6.5 21.7-9.7zm-5.9 28c-6 3.1-11.9 6.3-17.8 9.3-.4-.7-.7-1.4-1.1-2.1 5.9-3.1 11.9-6.1 17.9-9.2.3.7.7 1.3 1 2zm6.9-.4c.5.6 1.1 1.3 1.6 1.9-8.7 7.3-17.4 14.6-26.1 22-.5-.5-.9-1.1-1.4-1.6 8.7-7.4 17.3-14.9 25.9-22.3zm-21.4 39c.7.6 1.3 1.2 2 1.8l-13.8 14.1c-.4-.4-.9-.8-1.3-1.2 4.4-4.9 8.7-9.8 13.1-14.7zm23.9-16c.7.3 1.3.6 2 .9-2 3.7-3.8 7.6-6.3 11-5.9 8.2-12 16.3-18 24.4-1 1.4-1.9 2.8-3.5 5.1 2.3-10.1 19.6-37.4 25.8-41.4zm3.1 21.2c.8-9.5 1.6-19 2.5-28.5.7 0 1.5.1 2.2.1.1 1.7.2 3.4.4 6 2.2-4 3.9-7.2 5.6-10.3.4.2.9.4 1.3.6-3.7 10.6-7.5 21.2-11.2 31.8-.2.1-.5.2-.8.3zm81.4-30.7c.6 4.8 1.2 9 1.7 13.2-7.4-6.6-7.7-9.3-1.7-13.2zm-3.5-81.6c-4.3 4.6-7.2 10.5-10.9 16-1.7-22.5 4.2-28.8 26-27.8-5.3 4-10.9 7.3-15.1 11.8zm-15-75.9c.8-.2 1.5-.5 2.3-.7 2.3 7.9 4.6 15.9 6.9 23.8-.8.3-1.5.5-2.3.7-2.3-7.9-4.6-15.9-6.9-23.8zm15.3-22c-2.4-6.4-4.9-12.7-7.3-19 .8-.3 1.5-.6 2.3-.9 2.4 6.3 4.9 12.7 7.3 19-.8.3-1.5.6-2.3.9zm6 22.5v22c-5.1-7.2-1.3-14.6 0-22zm-1 39.8v16.8c-.4.1-.9.1-1.3.1v-16.9h1.3zm21.9-7.1c7.2 1.6 8.9 5.2 9.5 9.4 1.3 8.6-2.6 15.8-10.6 19 7.1-8.5 11.2-17.2 1.1-28.4zm17 127.9c-2.3.8-3.9 2-5 1.7-6.8-1.9-13.5-3.9-20.1-6.3-2-.8-3.5-3.1-5.2-4.7 2.4-.7 5.2-2.6 7.1-1.9 6.9 2.4 13.6 5.6 20.3 8.6.7.3 1.2 1.1 2.9 2.6zm-8.9-192.2c-.8-.6-1.7-1.1-2.5-1.7 5.4-9 10.8-17.9 16.1-26.9.7.4 1.3.8 2 1.2-5.2 9.2-10.4 18.3-15.6 27.4zm14.1 212.2c-2-2.7-3.9-5.3-6.1-8.3 8-1.9 8.4 2.1 6.1 8.3zm-10.3-35.4c-5.5-1.1-11.1-2.2-16.8-3.5-.4-.1-1-2.8-.5-3.3.9-.9 2.8-1.7 3.9-1.3 4.8 1.8 9.4 3.9 14 5.9-.2.7-.4 1.5-.6 2.2zm-3.3-72.4c-9.3 1.5-18.8 3.1-27.5 4.5 3.8-8.4 18.2-11.3 27.5-4.5zm-19.1-42.4c-1.6 6.1-3.3 12.2-4.8 18.2-1-6.8-2.1-13.6 4.8-18.2zm-3.1-82.9c.5-.1 1-.1 1.5-.2 1.1 7.3 2.2 14.7 3.3 22.1-.9.1-1.7.2-2.5.3-.8-7.4-1.5-14.8-2.3-22.2zm19.2 132.9c-14.8-3.8-20.8 6.4-26.8 17.6-2-13.6 12-22.4 26.8-17.6zm-19.6 77.9c3.9 5.2 7.3 10.7 10.9 16.1-.5.6-1.1 1.1-1.6 1.7-1.6-.9-3.5-1.4-4.6-2.8-2.9-3.6-5.5-7.4-8.1-11.3-.7-1.1-.7-2.7-1.1-4 1.6.1 3.9-.5 4.5.3zm12.5 39c-5.1 7.1-9.2 12.8-13.2 18.5l-1.5-1.2c1.4-11.2 4-14.8 14.7-17.3zm-5.6 93.1c.5-.6.9-1.2 1.4-1.8 4 7.4 15.8 4.7 18.4 15.5-7.2-5-13.5-9.3-19.8-13.7zm14.4 25.2c-5.4-1.4-12.3.7-16.3-7.7 6.5 3 11.4 5.3 16.3 7.7zm3.3-138.5h2.4c1.8 4.7 3.6 9.3 5.3 13.9-4.8 8.1-9.6 16.3-14.3 24 2.1-12.2 4.4-25.1 6.6-37.9zm10.9 22.8c.6.2 1.3.3 2 .5 2.3 8.5 4.7 17 7 25.5-.6.4-1.3.7-2 1-3.7-6.9-7.7-13.6-10.9-20.8-.6-1.3 2.5-4.1 3.9-6.2zm7.9-13.9c10.2 5.8 1.4 14.5 6.5 21.4 3.6 4.8.7 14.4.7 21.9h-2.3c-1.6-13.9-3.1-27.8-4.9-43.3zm-1-16.8c.7-1.1 2.1-3.2 4.2-6.3 1.8 5.7 3.2 10.3 4.6 14.8l-1.2.9c-2.4-2.9-4.7-5.8-7.6-9.4zm8.2-38.2c-4.9-3.8-9.7-7.9-14.9-12.1 4.2-4.9 7.2-3.8 10.4.5 2.2 3 5.6 5.1 8 8 .9 1.1.6 3.3.9 4.9-1.5-.4-3.3-.4-4.4-1.3zm23.4 48c-4.4-5.4-5.3-10.9-1.7-12.7 1-.5 3.5 0 4.3.9 2.5 2.8.8 9.7-2.6 11.8zm2.3-18.7c-4.9-1.5-9.8-3-15.9-4.8 2.4-2.6 3.8-4.2 5.8-6.4 3.9 3.4 7.4 6.5 10.9 9.7-.3.5-.5 1-.8 1.5zm-14.1 15.5c-.6.2-1.3.4-1.9.6-1.9-2.8-3.8-5.6-7.1-10.4 3.8 0 7-.4 7.2.1 1 3.1 1.3 6.4 1.8 9.7zm6-82.4c2.2 1.2 5.8 1.9 6.4 3.6 2.9 8.5 4.9 17.4 7.3 26.1-.5.4-1 .7-1.5 1.1-1.3-1.1-2.9-1.9-3.6-3.3-3.6-6.4-7.4-12.8-10.3-19.6-.8-2.1 1.1-5.3 1.7-7.9zm-7.7-54.3c-.2-.6-.3-1.1-.4-1.7 7.1-1.4 14.1-2.8 21.1-4.2.2.5.3 1.1.4 1.6-7 1.5-14.1 2.9-21.1 4.3zm-.5-15.2c-.3-.3-.5-.7-.8-1 2.5-1.6 4.9-3.1 7.3-4.6-.1-.2-.1-.4-.2-.6-3 .8-6.1 1.6-9.2 2.4l-.6-2.1c10-2.8 20-5.7 30-8.5.1.4.3.8.4 1.2-9 4.4-17.9 8.8-26.9 13.2zM295 191.8c-.1-2.9-.3-4.8-.4-7 6.1-2.1 11.9-4.1 17.7-6.1.2.6.5 1.1.7 1.6-5.7 3.7-11.5 7.4-18 11.5zm3.8 82.9c2.3 3.6 4 7.5 5.8 11.3 2.6 5.4 5 10.8 8.1 17.6-2.2-.7-4.4-.7-5.5-1.8-3.3-3.6-6-7.7-9.1-11.5-2.2-2.8-5-5.1-6.7-8.1-1.2-2.3-2.2-6.4-1.1-7.8 2-2.4 6-3.6 8.5.3zm22.1 53.5c1.8-2.3 3.1-3.9 4.4-5.5.7.1 1.3.1 2 .2.4 2.9.8 5.7 1.5 10.8-3.6-2.5-5.5-3.8-7.9-5.5zm-3.6-95.2c-.5-1-1.1-1.9-1.7-2.9 5.2-2.2 10.3-4.4 15.3-6.7.3.5.5 1 .8 1.5l-14.4 8.1zm17.8 49.8c-.4 5.4-.8 10.5-1.2 15.8-5.1-4.7-4.7-13.6 1.2-15.8zm53.3-69.2c-10.8-1.2-21.6-2.3-33.1-3.6 12.3-6.1 22.4 1 33.1 3.6zm-9.9-23c3 0 5.8-.1 8.6 0 2.6.1 5.3.4 8.8.6-11.8 6-13.2 5.9-17.4-.6zm26.1 39.1l-.9 2.7c-6.6-2.3-13.1-4.5-19.7-6.8.3-.8.5-1.6.8-2.4 6.6 2.1 13.2 4.3 19.8 6.5zm-24.2 78.6c-6.9-7.6-13.7-15.3-20.4-22.9-.4.3-.9.7-1.3 1 2 2.7 4.1 5.3 6.4 8.2-14.6-6-15.1-6.5-11.4-11.8-1.6-2-3.2-3.9-4.8-5.9l1.3-1.3c11.5 9.4 22.9 19 30.2 32.7zm-3.4-18.8c9.1 4 10.2 12.8 12.8 20.6-4.3-6.8-8.5-13.7-12.8-20.6zm-2.6 22.6l-12.1-10.9c.6-.5 1.1-1.1 1.7-1.6 3.4 4.2 6.9 8.3 10.4 12.5zm-25.7-57.9c8.7-1.8 14.8 3.8 21.2 8-7.1-2.7-14.2-5.3-21.2-8zm16.1 11.1c-5.2-.4-10.3-.7-17.2-1.2 4.1 3.7 6.8 6.2 9.6 8.7-.2.4-.4.7-.6 1-5.1-3.4-10.4-6.8-15.5-10.4-1-.8-1.8-3.8-1.2-4.4 1.3-1.4 3.9-3 5.3-2.5 6.8 2.2 13.3 5.1 19.6 8.8zm-17.8 26c7.2 9 13.6 16.9 20 24.8-.6.5-1.1 1.1-1.7 1.6-5.6-5.6-11.3-11.1-16.9-16.6l-.3.3c3.7 3.8 7.3 7.6 11 11.5-.2.2-.3.4-.5.6-6.2-3.9-12.3-7.7-19.3-12.1 2.3-3.1 4.6-6.1 7.7-10.1zm15.7 40.5c-.5.4-1 .9-1.5 1.4-2.1-2.6-4.2-5.2-6.4-7.7-2.4-2.7-4.8-5.3-7.2-7.9.4-.5.9-1 1.4-1.5 4.6 5.2 9.1 10.5 13.7 15.7zm-15.6-2.4c-4.6-3.8-8.3-7-12.4-10.4 5.6-6 5.2-3.5 12.4 10.4zm-10.7-4.4c5.6 7.5 10.3 13.7 15.5 20.7-9.8-1.3-18.3-7.8-15.5-20.7zm14.5 3.2l1.8-1.5c5.2 7.6 10.5 15.2 15.7 22.7-.6.4-1.1.8-1.7 1.2-5.2-7.4-10.5-14.9-15.8-22.4zm30.5 68.6c-8.5-13.3-18.4-25.7-23.9-40.7 15.8 9.1 22.4 23.4 23.9 40.7zm-15.7-64.6c8.8 4.6 17.5 9.3 26.3 14-9.2-3.8-22.3-.7-26.3-14zM390 294c-5.2-6-10.3-12.1-15.5-18.2 1-.8 2-1.7 3-2.5 4.7 6.5 9.4 13 14.1 19.4-.5.5-1.1.9-1.6 1.3zm-19.5-78.5c.1.5.3.9.4 1.3-7.8 2.7-15.5 5.3-23.3 8-.3-.8-.5-1.5-.7-2.2 7.9-2.4 15.7-4.7 23.6-7.1zm-5.6 18.8c-10.1.2-20.2 7-30.3 2.2.2-.7.3-1.5.5-2.2h29.8zm-32 108.3c3.8 7.3 7.5 14.5 11.3 21.7-5.3-6.4-11.4-12.3-13.4-20.6.7-.3 1.4-.7 2.1-1.1zm5.8 45.7c2.9 11.9 11.2 19.8 18.8 28.3.4.5.9 1 1.2 1.6.2.3.1.8.2 2-13.6-7.5-22.2-18.4-27.9-32.2 3-2.9 6.5-4.7 7.7.3zm2.9-2.8c18.8 21.3 39.4 37.8 64.2 51.7-23.3-.7-61.6-31.5-64.2-51.7zm32.5-28.6c14.1-3.6 20.1 4.3 24.9 13.6 4.2 8.1 8.1 16.3 12.1 24.5-.4.3-.9.7-1.4 1-11.7-12.8-23.3-25.6-35.6-39.1zm6.5-96.1c10.7.9 27 14.8 32.1 27.4-7.8-12-24.1-14.3-32.1-27.4zm2.2-8.9c.3-.4.7-.7 1-1.1 8.9 1.4 17.8 2.7 26.7 4.4 1.7.3 3.4 2 4.8 3.4 4.9 5 9.6 10.1 13.6 16.3-15.4-7.7-30.7-15.3-46.1-23zm14.8-12.1c.2-.6.4-1.3.6-1.9 6.2.7 12.5.9 18.6 2.3 3.1.8 5.4 4.1 8.4 5.9 2.6 1.5 5.5 2.9 8.4 3.6 9 2.3 15.3 8.1 20.4 14.2-18.4-7.9-37.4-16-56.4-24.1zm8.9-30.2c1.9-1.3 3.3-2.2 4.8-3.2-2.5-1.4-5-2.8-7.4-4.2 13.4 2.3 22.3 10.9 29.7 21.5-8.8-4.6-17.7-9.1-27.1-14.1zm-1.3-23.5c17.6.2 32.9 5.5 47 13.1-15.3-4.3-30.8-8.6-47-13.1zm25.2 22.4c.4-1 .7-1.9 1.1-2.9 7.8 2.8 15.7 5.7 23.6 8.5-.2.6-.4 1.1-.6 1.7-8-2.4-16.1-4.9-24.1-7.3zm61.2-7.6c-14.4-2.9-28.8-5.7-43.2-8.6.2-1 .4-1.9.6-2.9 5.8 1.5 11.5 3.1 17.2 4.7l.3-.9c-3-1.7-6.1-3.4-9.3-5.2.2-.3.3-.7.5-1 11.4 4.3 22.7 8.6 34.1 12.9 0 .3-.1.7-.2 1zm-26.5-22l38.7 18.9-.9 1.8-39-18.6 1.2-2.1zm24.6 16.2c-.2.6-.5 1.1-.7 1.7-9.9-4.2-19.9-8.4-29.9-12.6.4-.7.7-1.5 1-2.2 9.9 4.4 19.7 8.7 29.6 13.1zm-30-14.6c-15.2-2.8-30.3-5.5-45.5-8.2 11.6-6.5 36.5-2.2 45.5 8.2zm-32 5.3c-2.7-.3-5.5-.4-8.1-.9-7-1.3-13.6-2.3-21 .5-5.3 2-12.1.4-18.8.4 8.9-12.2 38-12.7 47.9 0zm-40.5-32.5c-14.4-2.1-28.8-4.2-44.2-6.5 16.2-2.9 30.2 1.9 44.2 6.5zm-3.9-48c.3.5.5 1 .8 1.5-9.9 6.7-19.8 13.3-29.7 20-.3-.4-.7-.7-1-1 2.5-2.1 5.1-4.3 7.6-6.5-8.3 6.4-16.7 12.8-24.9 19.3-1.7 1.4-2.8 3.5-4.2 5.4-4.9-6.2-5.2-8.2-.1-11.3 9.7-5.9 20-10.8 30.1-16.2 7.1-3.7 14.3-7.5 21.4-11.2zm-13.4 2.7c-6.7 3.7-13.4 7.4-20.2 11-.2-.5-.5-.9-.7-1.4 6.7-3.6 13.3-7.1 20-10.7.3.4.6.7.9 1.1zm-15.7-21.2c-8.5 9.7-18.2 20.9-28.3 32.5 6-13.4 21.4-30.1 28.3-32.5zM337 157.7c-10.3 4.6-20.4 9.1-30.1 13.5 4.7-11.1 13.9-15.3 30.1-13.5zM318.6 134c-6.3 5.6-12.6 11.2-18.8 16.8-.5-.7-1.1-1.3-1.6-1.9 4.8-7.4 11-13.1 20.4-14.9zm-11.2 19.1c-8.5 9-16.7 17.7-24.8 26.4-3.1-11.2 7.8-22 24.8-26.4zm-21.7-92.2c-4.6 18.2-9.1 36.4-13.7 54.5-.8-.2-1.7-.5-2.5-.7 1-19.1 10.6-35.8 16.2-53.8zm4.4 30.1c.6.2 1.1.5 1.6.8-8.7 15.7-17.5 31.3-26.6 47.5 2.2-19.9 17-32.3 25-48.3zm-15.7 73.5c-3.4 10.2-6.4 19.4-9.9 29.8-7.3-14.5 3.2-20.9 9.9-29.8zm-14-51.9c.1 12.2 4.2 24.9-4.1 36.3 1.3-12.2 2.7-24.3 4.1-36.3zm-.6 53.6c-1.1 6.5-2.1 13.1-3.2 19.6-.7-.2-1.5-.3-2.2-.5-3.2-7.5 2.7-12.9 5.4-19.1zm-8.2-96.4h2.2v34.7c-7.6-11.6-3.5-23.2-2.2-34.7zm1.8 61.9c-5.9-9.2-5.6-20.1-8.3-30.2 3.5 9.9 9.7 19 8.3 30.2zm-10.3 14.8c1.4 14.6 2.9 30.1 4.3 45.6-.6.2-1.1.4-1.7.6-.8-.8-2.5-1.5-2.5-2.2-.1-15-.1-29.9-.1-44zm-14.2-73.1c3.9 16.5 7.9 33 11.9 49.5-.7.2-1.3.3-2 .5-8-15.4-7-33-12.1-49.1.8-.3 1.5-.6 2.2-.9zm8.8 70.1c-1.4.4-2.8.9-4.2 1.3-5.6-13.1-6-27.6-8.4-41.5l12.6 40.2zm-8.5 50.6l-9-32.7c9.6 9.1 11 20.4 9 32.7zM200.6 86.4c.8-.4 1.5-.7 2.2-1.1 3.5 13.3 18.2 20.8 18.1 36-.6.3-1.1.6-1.7.9-6.2-12-12.4-23.9-18.6-35.8zm-1 27.2l15.3 42c-.6.3-1.1.5-1.7.7-9.9-12.3-8.8-28.5-15.6-42 .7-.2 1.3-.5 2-.7zm-40.9-2.9c14.2 13.4 28.4 26.7 42.6 40.1-9.6-1.3-30.9-21.5-42.6-40.1zM179 160c1.2-2.1 1.9-3.4 3.1-5.4 4.5 5.1 8.6 9.7 12.6 14.3-.4.4-.8.9-1.2 1.4-18-12.5-35.9-24.9-53.9-37.4 18.7 2.2 39.8 17 39.4 27.1zm-41.2-52.9c6.9 8.7 13.7 17.4 20.5 26.1-13.3-3.4-15-16.2-20.5-26.1zm2 30c5.8 4.5 11.6 9 17.3 13.5-.4.6-.9 1.1-1.3 1.7-5.8-4.6-11.6-9.1-17.4-13.7.4-.5.9-1 1.4-1.5zm-5.9 7.1c4.7 2.8 9.4 5.5 14.2 8.3-.5.8-.9 1.5-1.3 2.3-5.9-.6-8.8-6.8-13.9-8.9.4-.6.7-1.1 1-1.7zm-21.3 11.6c5.5 2.8 11.1 5.5 16.7 8.3-.5.6-.9 1.1-1.3 1.7-5.4-2.7-10.9-5.4-16.3-8.1.3-.7.6-1.3.9-1.9zm12.2 32.1c-12-4.5-23.9-8.9-37.6-14 15.8-.3 27.4 4.7 37.6 14zm-46.2-2.6c.2-.8.4-1.5.6-2.2 6.3 1.7 12.6 3.3 18.8 5l-.6 2.1c-6.3-1.6-12.5-3.3-18.8-4.9zm5.6 22.9c0-.5-.1-1-.1-1.5 1.4-.4 2.8-.8 3.3-.9-7-2.5-14.8-5.3-22.8-8.1 15.9-1.8 38.8 2.4 50 9.8-8.7-1.9-17.5-3.8-26.2-5.7 0 .4-.1.7-.2 1.1 5.5 1.5 10.9 3.1 16.4 4.6-.1.3-.1.5-.2.7H84.2zm-10.5 10c8.9.7 15.9 1.3 23.1 1.8-5.1 5-11.3 4.7-23.1-1.8zM63.1 228c.1-.6.1-1.1.2-1.7 6.6 1.3 13.2 2.5 19.7 3.8-8.1 6.9-13.3-1.5-19.9-2.1zm8.4 18.7c2.6.4 5.1.7 7.7 1.1l-4.5-2.7c.1-.3.1-.7.1-1 11.3.9 22.6 1.9 33.9 2.8.1.4.2.9.3 1.4-4 .5-8.1 1-12.1 1.5 1.2 2.3 1.9 5.1-2 4.4-8-1.7-15.8-4.1-23.4-7.5zm63.8 5.1c-12.5 4.7-26.2 9.7-39.8 14.8h-.2c-6.6 1.7-13.1 3.5-19.7 5.2-.2-.7-.3-1.3-.5-2 21.2-3.8 38.6-20.6 60.2-18zm-.1 6.4l-39.5 8.3c12.9-3.9 25.7-7.8 38.6-11.6l.9 3.3zm-84.7 14.7c3.2-8.1 18.8-12.3 33.6-9.4-10.7 3-21.5 6-33.6 9.4zm-8.2 15.9c9.5-.6 18.9-1.3 28.8-2-3.2 6.6-14.9 7.1-28.8 2zm76.5-12.1c-22.7 1.9-40.7 14.8-59.8 25.2 18.2-12.3 35.7-26.2 59.8-25.2zm-53.8 36H52.1v-1.9H65v1.9zm-4.3-7.2c8.7-7.6 17.3-5.8 27-4.8-8.5 6.7-17.2 4.8-27 4.8zm-2.3 24.9c-.3-.2-.6-.3-.9-.5 16.3-11.9 32.4-24 48.9-35.5 3.5-2.4 8.4-3.1 12.7-3.8 4.6-.7 9.4-.6 13.9-.9-8.4 4.8-16.9 9.8-25.5 14.5-16.3 8.8-32.7 17.5-49.1 26.2zm33.5-7.6c-5.5.7-11.1 1.5-16.6 2.3l-.6-2.7c5.7-.6 11.3-1.2 16.9-1.8.1.7.2 1.5.3 2.2zm-47.6 45.7c13-22.6 34-34.7 55.5-44.2-6.8 7.1-14.1 14.8-21.4 22.6-.5.4-.9 1.1-1.5 1.3-12.2 4.6-23.9 10-32.6 20.3zm7.9 15l-2-2c5.2-4.5 10.4-9.1 15.6-13.6.5.6 1 1.1 1.5 1.7-5 4.6-10.1 9.3-15.1 13.9zm68-66.6c-.9 1.2-1.7 2.4-3.2 4.4 5-3.1 9-5.6 13-8.1.4.5.7.9 1.1 1.4-26.1 16.8-49.7 36.3-65.8 63.4 11.9-26.1 26.7-49.6 54.9-61.1zm-52 70.8c-.5-.4-.9-.8-1.3-1.2 7.3-12.6 13.2-26.3 27-34.1-8.5 11.8-17.1 23.5-25.7 35.3zm-19.4 41c12.3-16.9 24.7-33.8 37.1-50.7-8 23.7-17.1 35.9-37.1 50.7zm18.6 7.2c-1.2 1.8-2.8 3.3-4.2 4.9-.4-.3-.8-.5-1.2-.7 1.2-2.5 2.3-5 3.6-7.4 11.5-21.7 23.1-43.4 34.7-65 4.9-9 10.6-17.4 18.1-21.8-7.5 12.4-15.8 26.1-24.1 39.8.5.3 1 .7 1.5 1 7.8-10 15.5-20.1 23.3-30.1l2.4 1.5c-2 3.9-3.4 8.3-6.3 11.5-18.4 20.4-32.7 43.6-47.8 66.3zm20.5 3.7c5.9-15.9 13.1-31 22.5-44.9.8.5 1.6.9 2.4 1.4l-24.9 43.5zm28 38.9c-1.7-10.3 6.5-16 11.4-23.4 3 5.1-1.4 13.9-11.4 23.4zm13-62.2c-1.8 2.5-4.1 4.8-5.2 7.6-6.5 15.6-12.7 31.3-19 46.9-1.4 3.5-3 7-5.8 10.1 1.4-5 2.7-9.9 4.2-14.8 3.4-11.2 6.3-22.6 10.5-33.5 3.6-9.4 8.6-18.3 13-27.5 1.9-4.1 3.3-8.5 5.6-12.3 2.2-3.6 5.2-6.6 7.9-9.9.8.5 1.6.9 2.4 1.3-.2 1.5-.5 2.9-.7 4.4 1.9-2.6 3.8-5.2 5.7-7.9.5.1.9.3 1.3.5-.2.8-.1 1.8-.5 2.5-5 9.8-10.1 19.5-15.3 29.2-.8 1.4-2.7 2.3-4.1 3.4zm8.1 4.6c.1-3.3 3.5-6.5 5.6-10.1-2.2 20.1-4.4 39.3-5.9 52.5 0-10.2-.3-26.3.3-42.4zm7.5 89.3c-4.5-6.7-5.2-13-4.1-19.5 1.1-6.4 2.7-12.7 4.2-19.5 5.7 12.9 4.5 25.3-.1 39zm8.9-22.7c4.4-26.4 7.2-53 19.7-78.3-.9 7.4-2 13.8-2.3 20.2-.3 6.5.3 13 .2 19.5-.1 2-.8 4-1.7 5.8-5.2 10.9-10.5 21.7-15.9 32.8zm11.4 5.5c4.1 7.3 8.1 14.6 12.2 21.9.6-.3 1.2-.5 1.8-.7-5.8-11.8-7.7-24-3.7-37 1.7 7.6 3.7 15.2 5.3 22.9 1.5 7.8 2.4 15.8 11.6 19.5-13.3 6.8-24.9-10.3-27.2-26.6zm25.9-33.6c-2.2-6.3-4-11.6-5.8-16.9 7.7 3.7 10.3 8.7 5.8 16.9zm7.5 26.5c-.8 2.9-1.6 5.9-2.4 8.8-.8-.1-1.7-.3-2.5-.5 2.9-21 5.2-42.2 9.3-63.1 1.3-6.7 7.2-12.6 12.1-18.4-.8 10.2.4 19.9-3.9 29.8-5.9 13.8-8.6 28.9-12.6 43.4zm36.8 11.8l-19.5-13.2c-3.2-2.2-7.3-3.7-9.6-6.7-1.6-2.1-.7-6.1-1.1-10.6 11.9 10.3 22.1 19.2 32.1 27.9-.6.9-1.3 1.7-1.9 2.6zm-13.6-44c3.6 6.6 6.4 11.8 9.2 16.9.6-.2 1.1-.3 1.7-.4-6.5-10.4-4.6-21-2.1-32.2 1.5 1.3 2.5 2.3 4.1 3.7 3.7-9.1 7.1-17.7 10.6-26.2.4-.9 1.4-1.5 2.2-2.2-2.5 16-6.6 32.1-7.2 48.1-.6 17.3 8 32.6 17.2 47 .7 1.1 1.4 2.2 2.3 3.7-12.8-5.4-37.1-41.9-38-58.4zm39.6 46.6c10 1.4 20.2 2.8 30.5 4.3-11.2 3-20.1 1.7-30.5-4.3zm47 14.9c-9.7 1.4-19.3 4-30.5-1.8h30.6c-.1.6-.1 1.2-.1 1.8zm-20.5-21.6c-4.3-3.1-8.1-7.9-10.2-12.7-4.2-9.8-7-20.2-10.8-31.6 18.3 22.4 35.6 43.4 52.7 64.2-10.6-6.5-21.5-12.7-31.7-19.9zm63.8 14.7c-10.3-7-23.9-15.1-36.3-24.8-22.6-18-41.4-38.9-47.9-68.4-2-9.4-1.1-17.6 4.4-25.1 5.4 15.3 9.1 31.2 16.5 45.3 6.1 11.7 16.1 21.6 25.1 31.7 13.2 14.8 26.9 29.1 38.2 41.3zM342 490c7.3.5 14.4.9 22.8 1.5-8.5 1.1-15.8 4.5-22.8-1.5zm35.5-35.4c-5.1-2-10.3-4-15.4-6.1-10.6-4.4-21.2-8.8-31.8-13.1-1.8-.7-3.9-1.2-5.9-1.3-12.3-.3-18.9-7.8-23.3-18.6 1.2.2 2 .3 3.2.4-1.1-4.8-2.2-9.4-3.6-15.6 4.5 8.1 7.2 15.2 11.8 20.8 3.5 4.2 9.3 6.6 14.3 9.4 1.1.7 3.2-.3 4.8-.6-.3-1.3-.6-2.7-.9-4.1-.3-1.3-.6-2.7-1.1-5.4 16.9 11.7 32.7 22.5 48.3 33.2-.1.3-.3.7-.4 1zm21.3 44.1c-.2-.4-.5-.7-.7-1.1.8-.7 1.6-1.5 2.9-2.8-6.9 1.3-13.3 2.5-19.6 3.7-.1-.8-.3-1.6-.4-2.4l26.7-4.2c.2.8.5 1.7.7 2.5-3.2 1.5-6.4 2.9-9.6 4.3zm10.4 5c3.2-2.1 5.9-5.3 8.2-5.2 6.6.6 5.4 6.4 6.5 12.9-5.3-2.8-9.1-4.8-14.7-7.7zm-13.6-151.8c5 3.2 10.1 6.6 15.2 9.9 6.3 5.9 12.5 11.8 18.9 17.7-16.7-2.8-24.2-16.6-34.1-27.6zm56.2 120c-5.2-2.2-10.5-4.4-15.7-6.6.5-.9.9-1.9 1.4-2.8 5 2.6 10 5.3 15 8-.3.5-.5.9-.7 1.4zm2.4-74.4c-7.1-5.6-14.4-11.2-21.4-17-7.5-6.1-14.7-12.5-22-18.7.1.1.2.1.3.2l-5.4-6.6c.3-.5.5-1 .8-1.5 6.1 3 13.3 4.9 18 9.3 11 10.2 20.7 21.8 31 32.8-.5.5-.9 1-1.3 1.5zm3.4-13.7c7.3 1.9 9.2 8 10.9 13.9-3.7-4.6-7.3-9.3-10.9-13.9zm-30.4-65.7c3.5.4 7.1.8 10.7 1.3-6.3-3.5-12.5-7-18.8-10.5-3.9-2.9-7.8-5.9-11.7-8.8.1-.2.1-.5.2-.7 8.3 3.9 16.8 7.5 24.9 11.8 4.9 2.6 9.3 6 13.9 9.1-4-2-7.8-4.2-11.9-5.9-5-2.1-10.3-3.7-15.4-5.5 6.3 3.5 12.6 7 18.8 10.4 2.2 2.6 4.2 5.5 8 2.3.3-.3.7-.7 1-.9h.1c-.3.3-.7.6-1.1 1 2.1 2 3.8 4.3 6.1 5.8 6.1 3.9 12.5 7.4 18.1 12.4-14.3-7.2-28.5-14.5-42.9-21.8zm72 38.4c-5.9-4.8-11.9-9.7-17.8-14.5-10.2-7.4-20.4-14.7-30.3-22.3-.5-.3-.4-1.6-.6-2.4-6.7-5.2-13.5-10.3-20.1-15.6-2.2-1.8-3.9-4.2-5.9-6.4.6-.8 1.1-1.6 1.7-2.4 3.5 1.8 7.4 3.1 10.4 5.5 13.7 11.3 27.2 22.9 40.6 34.6 2.1 1.8 2.9 5.1 4.3 7.7 1.5.4 3.5.4 4.6 1.3 4.9 4.2 9.6 8.7 14.4 13.1-.4.5-.9.9-1.3 1.4zm-14.1-39c.5-.3 1-.5 1.5-.8 3.7 8.4 7.3 16.8 10.9 25.2-.9.4-1.7.8-2.6 1.2-3.3-8.5-6.5-17.1-9.8-25.6zm-.9-14c-17-15.5-35.2-29.7-51.5-43.4 11 5.3 23.6 11.3 35.2 16.8-3.3-9.8-18.4-24.7-40.2-39.2 14.2 4.8 28 10.3 38.9 21.3 17.5 17.8 32 37.7 44.8 59.1 6.8 11.5 14.2 22.7 21.2 33.6-16-16-31.6-32.8-48.4-48.2zm25.9 43.8c-3.8-4.1-4.4-11.2-5.5-17.8 7.7 8.1 15.3 16.2 23 24.3-.4.5-.7 1-1.1 1.5-5.6-2.5-12.6-3.8-16.4-8z"/></svg>