<svg id="Laag_1" xmlns="http://www.w3.org/2000/svg" viewBox="0 0 566.9 566.9"><style>.st0{fill:#fff}</style><path class="st0" d="M1.4 31.2h566.8v507H1.4v-507zM338 67.7c1.6-1 3.1-2.1 4.7-3.1 6.2-1.8 12.4-3.5 18.3-5.2-20.2-6.7-38.5 1.5-57.5 11.9 3-6.2 5.3-10.7 7.5-15.2.3-1.1.6-2.1 1-3.2-.4-.3-.9-.7-1.3-1l-13.5 11.7c-3.1 2.1-6.2 4.2-10.6 7.1 1.8-7.8 3.3-14.5 4.9-21.1-.7-.3-1.5-.6-2.2-.8-8.3 8.4-8.6 21.4-16.4 31.7-1.4-10.5-2.7-19.9-4-29.3-.6 0-1.2 0-1.8.1 0 17.2 2.5 34.5-.5 51.5-.7 0-1.5-.1-2.2-.1.6-12.8 1.2-25.7 1.8-38.5-.2 0-.4.1-.6.1-1.9 7.8-3.8 15.7-5.6 23.5-.7-.2-1.3-.3-2-.5-.7-12.7-1.5-25.4-2.2-38-.5-.1-1-.3-1.5-.4-3.1 8.9-6.3 17.8-9.9 27.9-3-4.4-5.2-7.4-7.2-10.4-1 3.6-2 6.9-2.9 10.3-.9-.1-1.8-.2-2.7-.2-2.2-8.5-4.3-16.9-6.5-25.4-.4 0-.8.1-1.3.1l-3.3 25.5c-1 0-2.1.1-3.1.1-2.2-6-4.3-12.1-6.5-18.1h-1.4V88c-.6.1-1.2.2-1.8.4-8.5-11.8-17.1-23.5-25.6-35.3-.6.4-1.3.8-1.9 1.2C192.5 68 194.9 85.7 201 102c-.6.3-1.1.5-1.7.8-4.2-7.7-8.4-15.3-12.6-23-.2.1-.5.2-.7.3 2.4 10.5 4.8 21.1 6.9 30.2-2.5 1-3.6 1.2-3.8 1.7-.6 1.2-.8 2.6-1.7 5.5-7.2-16.5-13.8-31.5-20.2-46.1.4 9.8.9 20.2 1.3 30.6-.7.3-1.5.6-2.2.9-6.7-7.1-13.3-14.1-20-21.2l-.6.6 7.2 17.7c-.6.4-1.2.8-1.7 1.1-4-3.1-7.9-6.2-13.1-10.2 10.1 13.5 19.2 25.5 28 37.7 1.3 1.8 1.6 4.4 2.4 6.6-.8.5-1.6.9-2.4 1.4l-41.4-49.5c-.3.2-.6.5-.9.7 5.2 11.4 10.4 22.7 15.6 34.1-.5.4-1.1.8-1.6 1.2-8.6-7.8-17.3-15.6-25.9-23.5-.2.2-.4.3-.7.5 7.2 13 14.3 26 22.3 40.5-13-8.8-24.4-16.5-35.8-24.2-.3.3-.5.6-.8.9 5.5 7.3 11 14.6 16.4 22-.3.4-.7.9-1 1.3-4.2-1.6-8.3-3.2-13.8-5.4 7.8 6.6 14.5 12.4 21.6 18.4-12.9 1.2-20.1-8.2-29.7-14 4.1 9.2 12.5 16 9.1 27.1-9.6-4.6-18.8-9-28.6-13.7 4.4 6 8.3 11.3 12.9 17.5H62.3c8.8 3.3 16.3 6.1 23.8 8.9-.3.9-.5 1.7-.8 2.6-7.5-.5-15-1.1-22.4-1.6 0 .3-.1.7-.1 1 9.6 3.9 19.2 7.9 28.8 11.8-.2.6-.5 1.3-.7 1.9-18.3-.4-36.8-4.1-54.9 2.7 18.1.9 33.9 8.4 50.1 14.7-.1.6-.2 1.3-.4 1.9-8 1.1-16.1 2.2-25.5 3.4 7.1 2.5 12.5 4.4 17.9 6.3-.1.6-.2 1.3-.3 1.9H43.1c10 4 17.9 7.2 25.9 10.4-10.3 3.2-19.5 6.1-28.7 9 7.7 2 15.3 2 22.6 3.4 7.3 1.4 14.2 4.2 21.4 6.4-.1.7-.3 1.5-.4 2.2-16.1 5.4-32.2-1.9-49.7-1 4.8 2.9 8.5 5.1 13 7.8-3.8 2.9-6.9 5.3-10.1 7.8 8.4 4.2 20-1.7 26.4 9.5-11.9 2-23 3.9-35.7 6.1 11.5 3 21.2 5.5 31.8 8.3-5.5 6.3-8.5 11.4-17 10.2-6.4-.9-13.4 2.5-20.1 4 4.5 1.5 9.5.9 12.7 3 7.3 4.8 14.9 3.8 22.7 3.9 2.6 0 5.2.2 8.4.4-1.4 6.8-6.4 8-11 9.4-6.1 1.9-12.2 3.4-18.4 5.1l.2-.2c-5.2 2-10.4 3.9-15.5 5.9.1.4.3.7.4 1.1 8.4-.8 16.7-1.6 25.9-2.5-1.6 2.2-2.5 3.7-3.7 5.3 6.8-1.7 13-3.2 19.2-4.7.2.6.4 1.3.6 1.9-4.9 6.6-11 11.4-19.2 14.3-8.4 2.9-16.2 7.3-24.2 11 .3.4.5.9.8 1.3l19.2-2.4c.4.7.8 1.3 1.1 2-3.2 5.6-6.3 11.2-10.1 17.9 7.4-5.9 13.8-11 20.1-16 14.2-11.3 14.2-11.3 20.6-11.1-14.8 18.9-36 30.2-52.6 46.7C30.1 397.6 40 392 50 386.8c1.7-.9 4.1-.3 6.1-.4-.7 1.7-1 3.7-2.1 5.1-6.7 9.4-13.5 18.7-20.2 28 5.5-4.1 9.9-9.1 14.5-13.9 1.5-1.6 4.1-4.3 5.1-3.9 5.8 2.4 7.1-2.7 9.5-5.3 3.8-3.9 6.9-8.4 10.4-12.6l.5.5C61 404.9 48.2 425.5 35.3 446c.3.2.6.3.9.5 11.5-10.5 23.1-20.9 34.6-31.4l1.2.9c-8.4 17-16.9 33.9-25.3 50.9.6.4 1.2.7 1.8 1.1 17.6-24.2 35.1-48.4 52.7-72.6l1.8 1.2c-11.5 24.2-22.9 48.4-34.4 72.6.5.2.9.4 1.4.6 9.2-11.8 18.3-23.7 27.5-35.5.2.2.4.5.6.7-7.1 18.2-14.2 36.3-21.4 54.5.8.4 1.5.7 2.3 1.1 8.9-16 17.7-32 26.9-48.5-4.8 20-9.5 39.2-14.2 58.4.7.2 1.5.4 2.2.6 7.3-15.7 14.6-31.3 22-47-.6 6.1-2.4 11.9-3.1 17.9-.8 6.2-.8 12.6-.8 18.9.1 5.6.8 11.2 1.2 16.8.9.1 1.8.1 2.6.2.6-14.2 3.9-27.3 13.9-37.8 3.4 17.3-.2 36.8 16.4 49.1 2.9-6.4 5.5-12.2 8.6-19 1.6 2.4 2.2 3.9 3.3 5 6 5.9 11.3 15 18.4 16.9 12.9 3.5 27 2.7 40.5 3.6-6.3-3.3-12.7-4.7-17.6-12 18.3 3.2 34.6 12.2 53.5 4.6-11.2-1.7-22.1 2.9-31.1-4.4 9.4.4 18.6.6 27.7 1.3 1.9.1 3.7 1.8 5.4 2.9 7.8 5.3 15.6 10.7 23.4 16.1.6-.6 1.2-1.2 1.9-1.8-3.9-3.2-8.2-6.3-4.8-9.4 10.9-.9 20.4.1 28.4-2.9 10.3-3.8 18.5 1.1 27.3 3.2 6.1 1.4 7.5 1.4 7.5-6.4 6.6.8 13.1 1.1 19.4 2.6 6.2 1.5 12.1 4.3 18.1 6.5-2.2-3-4.8-5.1-7.2-7.6-2.2-2.3-4-4.9-5.7-7 26.4 1.1 52.2 2.2 77.9 3.2-1.8-2-4.4-1.8-5.6-3-2.4-2.5-4-5.8-5.9-8.7 2.5-1.4 4.8-3.4 7.4-3.9 12.1-2.3 24.5-3.6 36.5-6.3 10-2.3 19.7-6.2 29.5-9.4-.2-1.1-.4-2.1-.7-3.2-21.6 12.9-44.5 9.1-67.2 8.1-.2-11 3.2-18.4 15.2-12.7 7.3 3.5 15.9 4.5 23.8 6.6.2-.5.3-1.1.5-1.6-4.4-2.6-8.8-5.3-13.2-7.9.3-.5.5-1.1.8-1.6 6.6 1.9 13.2 3.9 21.1 6.2-7.4-5.4-13.9-9.4-19.5-14.4-5.2-4.7-4.3-7.2 2.5-8.7 8.1-1.9 16.3-3.6 24.5-5.4-.1-.3-.2-.5-.3-.8-6.3-.9-12.7-1.9-19-2.8-.1-.7-.2-1.4-.2-2.1 10.2-8.7 20.5-17.5 30.7-26.2-.4-.3-.8-.7-1.1-1-4.6 1.9-9.3 3.8-13.9 5.6-.5-.8-1.1-1.5-1.6-2.3 3.6-5 8.1-9.6 10.6-15.1 2.9-6.3 6.4-6.5 11.7-4 6.7 3.1 13.6 5.9 20.4 8.8-3.3-3.8-6.7-7.5-10.8-10.3-11.1-7.4-20.8-15.3-17.4-30.8.2-.8-.3-1.7-.7-3.9 9.8 7.6 18.6 14.5 27.4 21.4.3-.3.6-.6.9-.8-5.2-7.6-10.4-15.2-15.5-22.8.4-.7.9-1.5 1.3-2.2 14.1 4.4 28.1 8.8 42 13.1-5.7-5.5-12.2-10.1-16.5-16.3-10.9-15.9-21-32.4-31.1-48.8-2.4-3.9-3.8-8.3-5.7-12.4 1-.8 2.1-1.6 3.1-2.4 7.1 8.2 14.3 16.4 21.4 24.6-9.2-21.3-22.3-39.6-38.2-55.9 23 14.6 41.3 34.2 59.3 54.1-5.7-9.9-11.8-19.5-18.1-29-6.5-9.6-13.2-19-19.8-28.4.5-.8 1-1.6 1.4-2.4 14.8 3.6 29.6 7.3 44.4 10.9-22.8-5.7-86.5-43.4-90.9-55.7 7.6 3.6 14.5 6.9 22.9 10.9-2.9-3.4-4.8-5.7-6.7-7.9.4-.7.9-1.4 1.3-2 9.5 5.1 19 10.1 28.4 15.4 9.2 5.2 18.3 10.8 27.4 16.3.3-.4.5-.8.8-1.1-13-11.2-25.9-22.4-38.9-33.6l.6-1.5c13.8 4.7 27.6 9.5 41.4 14.2.2-.3.5-.6.7-.9-16.8-12-33.5-23.9-49.2-35.1 7.3 1.3 16.1 2.8 24.9 4.3.2-.5.3-1 .5-1.5-20-6.9-40-13.9-60.5-21 18.3-3.3 34.9 1.8 52 6.4-8.6-5.1-17.1-10.2-25.7-15.3.2-.5.4-1 .7-1.5h10.1c0-.2 0-.5.1-.7-11-3.3-22.1-6.7-33.1-10 .1-.5.2-1 .4-1.5h51.8c-7.1-1.7-12.6-4.5-17.7-4-7.7.9-15 .4-22.5-.4-24.7-2.5-49.4-5.4-74.1-.8-5.3 1-10.7 1.1-16.1 1.7-.2-.8-.5-1.6-.7-2.4 1.9-1.1 3.8-3 5.7-3.1 7.8-.4 15.6-.5 23.4-.3 18.3.5 36.5 1.2 54.8 1.7 1.2 0 2.5-.5 5.5-1.2-4.7-1.5-7.5-2.5-11.1-3.7 5-5.6 11-2.9 16.1-3.6 5.3-.7 10.7-1.1 16.1-1.6-31.7-7-63.4-1.2-95.2.4 14.9-10 31.8-14.1 48.7-18.1l-.3-2.1c-20.3 1.9-40.7 3.8-61 5.7 20.9-10.8 42-21.3 66.7-21.1-.1-.6-.1-1.1-.2-1.7-23.7 1.6-47.3 3.2-71 4.8 12.9-16.4 30.7-22.1 51-24.9-18.9-2.7-34.7 6.3-52.4 7.4 5.7-4.8 11.5-9.7 18-15.1-21.3 3.5-37.7 15.8-56.1 24.3 2.8-4.6 5.6-9.2 9.3-15.3-8.3 4.7-15 8.6-21.7 12.4l-1.1-1.1c2.9-5.1 6.2-10 9.5-14.9z"/><path d="M36.8 332c6.1-1.7 12.3-3.3 18.4-5.1 4.6-1.4 9.6-2.6 11-9.4-3.2-.2-5.8-.4-8.4-.4-7.8 0-15.4.9-22.7-3.9-3.2-2.1-8.2-1.6-12.7-3 6.7-1.5 13.7-4.9 20.1-4 8.5 1.2 11.5-3.9 17-10.2-10.6-2.8-20.3-5.3-31.8-8.3 12.6-2.2 23.8-4.1 35.7-6.1-6.3-11.3-18-5.4-26.4-9.5 3.2-2.5 6.3-4.8 10.1-7.8-4.5-2.7-8.2-4.9-13-7.8 17.4-.9 33.6 6.4 49.7 1 .1-.7.3-1.5.4-2.2-7.1-2.2-14.1-5-21.4-6.4-7.3-1.4-15-1.4-22.6-3.4 9.2-2.9 18.4-5.8 28.7-9-7.9-3.2-15.9-6.4-25.9-10.4h34.7c.1-.6.2-1.3.3-1.9-5.4-1.9-10.8-3.8-17.9-6.3 9.4-1.3 17.4-2.4 25.5-3.4.1-.6.2-1.3.4-1.9-16.2-6.2-32-13.8-50.1-14.7 18.1-6.8 36.6-3.1 54.9-2.7.2-.6.5-1.3.7-1.9-9.6-3.9-19.2-7.9-28.8-11.8 0-.3.1-.7.1-1 7.5.5 15 1.1 22.4 1.6.3-.9.5-1.7.8-2.6-7.5-2.8-15-5.6-23.8-8.9h21.5c-4.6-6.2-8.5-11.5-12.9-17.5 9.8 4.7 19 9.1 28.6 13.7 3.3-11.1-5-17.9-9.1-27.1 9.6 5.8 16.8 15.2 29.7 14-7.1-6.1-13.8-11.8-21.6-18.4 5.5 2.1 9.6 3.8 13.8 5.4.3-.4.7-.9 1-1.3-5.5-7.3-11-14.6-16.4-22 .3-.3.5-.6.8-.9 11.4 7.7 22.8 15.4 35.8 24.2-8-14.5-15.2-27.5-22.3-40.5.2-.2.4-.3.7-.5 8.6 7.8 17.3 15.6 25.9 23.5.5-.4 1.1-.8 1.6-1.2-5.2-11.4-10.4-22.7-15.6-34.1.3-.2.6-.5.9-.7l41.4 49.5c.8-.5 1.6-.9 2.4-1.4-.8-2.2-1.1-4.8-2.4-6.6-8.9-12.2-17.9-24.1-28-37.7 5.2 4.1 9.2 7.2 13.1 10.2.6-.4 1.2-.8 1.7-1.1l-7.2-17.7.6-.6c6.7 7.1 13.3 14.1 20 21.2.7-.3 1.5-.6 2.2-.9-.5-10.4-.9-20.7-1.3-30.6 6.4 14.6 13 29.6 20.2 46.1.8-2.9 1.1-4.3 1.7-5.5.3-.5 1.3-.6 3.8-1.7-2.1-9.2-4.5-19.7-6.9-30.2.2-.1.5-.2.7-.3 4.2 7.7 8.4 15.3 12.6 23 .6-.3 1.1-.5 1.7-.8-6.1-16.3-8.5-34-20.9-47.7.6-.4 1.3-.8 1.9-1.2 8.5 11.8 17.1 23.5 25.6 35.3.6-.1 1.2-.2 1.8-.4V58.8h1.4c2.2 6 4.3 12.1 6.5 18.1 1 0 2.1-.1 3.1-.1l3.3-25.5c.4 0 .8-.1 1.3-.1 2.2 8.5 4.3 16.9 6.5 25.4.9.1 1.8.2 2.7.2 1-3.3 1.9-6.7 2.9-10.3 2.1 3 4.2 6 7.2 10.4 3.6-10.1 6.7-19 9.9-27.9.5.1 1 .3 1.5.4.7 12.7 1.5 25.4 2.2 38 .7.2 1.3.3 2 .5 1.9-7.8 3.8-15.7 5.6-23.5.2 0 .4-.1.6-.1-.6 12.8-1.2 25.7-1.8 38.5.7 0 1.5.1 2.2.1 3-17 .5-34.3.5-51.5.6 0 1.2 0 1.8-.1 1.3 9.4 2.5 18.8 4 29.3 7.8-10.3 8-23.3 16.4-31.7.7.3 1.5.6 2.2.8-1.5 6.7-3.1 13.3-4.9 21.1 4.4-2.9 7.5-5 10.6-7.1-5.3 7.7-12.7 14.2-14.4 25.5 10.1-11.8 19.2-22.4 28.3-33-2.2 4.5-4.4 9-7.5 15.2 19.1-10.5 37.3-18.7 57.5-11.9-6 1.7-12.1 3.5-18.3 5.2.7-1.2 1.4-2.4 2-3.4H340c-8.3-1.1-13 1.5-17.1 10.2 6.3-3.8 11.7-7.1 17.1-10.4-.8 1.1-1.3 2.5-2.3 3.1-15.1 9.6-25.1 24-36.5 37.4-9.1 10.8-8 24.7-15.7 35.4 3.9-3.7 7.2-7.6 9.9-11.9 9.4-14.7 18.2-29.9 28.1-44.3 3.6-5.2 9.6-8.9 14.5-13.2-3.3 4.9-6.6 9.8-10 14.7l1.1 1.1c6.7-3.8 13.4-7.7 21.7-12.4-3.7 6.1-6.5 10.7-9.3 15.3 18.4-8.5 34.8-20.8 56.1-24.3-6.5 5.4-12.2 10.3-18 15.1 17.7-1.2 33.5-10.1 52.4-7.4-20.3 2.9-38.1 8.5-51 24.9 23.7-1.6 47.3-3.2 71-4.8.1.6.1 1.1.2 1.7-24.7-.2-45.8 10.3-66.7 21.1 20.3-1.9 40.7-3.8 61-5.7l.3 2.1c-16.9 4.1-33.7 8.1-48.7 18.1 31.8-1.6 63.5-7.5 95.2-.4-5.4.5-10.8.8-16.1 1.6-5.1.7-11.1-1.9-16.1 3.6 3.6 1.2 6.5 2.1 11.1 3.7-3 .7-4.2 1.3-5.5 1.2-18.3-.5-36.5-1.3-54.8-1.7-7.8-.2-15.6-.1-23.4.3-2 .1-3.8 2-5.7 3.1.2.8.5 1.6.7 2.4 5.4-.5 10.8-.7 16.1-1.7 24.8-4.6 49.5-1.8 74.1.8 7.6.8 14.9 1.3 22.5.4 5.1-.6 10.6 2.2 17.7 4h-51.8c-.1.5-.2 1-.4 1.5 11 3.3 22.1 6.7 33.1 10 0 .2 0 .5-.1.7h-10.1c-.2.5-.4 1-.7 1.5 8.6 5.1 17.1 10.2 25.7 15.3-17.1-4.5-33.7-9.7-52-6.4 20.5 7.1 40.5 14.1 60.5 21-.2.5-.3 1-.5 1.5-8.8-1.5-17.6-3.1-24.9-4.3 15.7 11.2 32.4 23.1 49.2 35.1-.2.3-.5.6-.7.9-13.8-4.7-27.6-9.5-41.4-14.2l-.6 1.5c13 11.2 25.9 22.4 38.9 33.6-.3.4-.5.8-.8 1.1-9.1-5.4-18.2-11-27.4-16.3-9.4-5.3-18.9-10.3-28.4-15.4-.4.7-.9 1.4-1.3 2 1.9 2.2 3.8 4.5 6.7 7.9-8.4-4-15.3-7.3-22.9-10.9 4.4 12.3 68.1 50 90.9 55.7-14.8-3.6-29.6-7.3-44.4-10.9-.5.8-1 1.6-1.4 2.4 6.6 9.5 13.3 18.9 19.8 28.4 6.3 9.4 12.4 19 18.1 29-18-20-36.2-39.6-59.3-54.1 16 16.3 29.1 34.6 38.2 55.9-7.1-8.2-14.3-16.4-21.4-24.6-1 .8-2.1 1.6-3.1 2.4 1.9 4.2 3.3 8.6 5.7 12.4 10.2 16.4 20.2 32.9 31.1 48.8 4.3 6.2 10.9 10.8 16.5 16.3-13.9-4.3-28-8.7-42-13.1-.4.7-.9 1.5-1.3 2.2 5.2 7.6 10.4 15.2 15.5 22.8-.3.3-.6.6-.9.8-8.8-6.9-17.6-13.7-27.4-21.4.4 2.2.8 3.1.7 3.9-3.3 15.5 6.3 23.4 17.4 30.8 4.1 2.7 7.5 6.5 10.8 10.3-6.8-2.9-13.6-5.7-20.4-8.8-5.3-2.4-8.8-2.2-11.7 4-2.5 5.5-7 10.1-10.6 15.1.5.8 1.1 1.5 1.6 2.3 4.6-1.9 9.3-3.8 13.9-5.6.4.3.8.7 1.1 1-10.2 8.7-20.5 17.5-30.7 26.2.1.7.2 1.4.2 2.1 6.3.9 12.7 1.9 19 2.8.1.3.2.5.3.8-8.2 1.8-16.3 3.5-24.5 5.4-6.7 1.6-7.7 4-2.5 8.7 5.6 5 12.1 9 19.5 14.4-7.9-2.3-14.5-4.3-21.1-6.2-.3.5-.5 1.1-.8 1.6 4.4 2.6 8.8 5.3 13.2 7.9-.2.5-.3 1.1-.5 1.6-8-2.1-16.5-3.1-23.8-6.6-12-5.7-15.4 1.7-15.2 12.7 22.7 1 45.6 4.8 67.2-8.1.2 1.1.4 2.1.7 3.2-9.8 3.2-19.4 7.1-29.5 9.4-12 2.8-24.4 4-36.5 6.3-2.6.5-5 2.6-7.4 3.9 1.9 2.9 3.5 6.2 5.9 8.7 1.1 1.2 3.7 1 5.6 3-25.8-1.1-51.6-2.1-77.9-3.2 1.6 2.1 3.5 4.7 5.7 7 2.3 2.4 5 4.5 7.2 7.6-6-2.2-11.9-5-18.1-6.5-6.2-1.5-12.8-1.8-19.4-2.6 0 7.8-1.4 7.8-7.5 6.4-8.8-2.1-16.9-7-27.3-3.2-8 3-17.5 1.9-28.4 2.9-3.4 3.1.8 6.2 4.8 9.4-.6.6-1.2 1.2-1.9 1.8-7.8-5.4-15.5-10.8-23.4-16.1-1.7-1.2-3.5-2.8-5.4-2.9-9.1-.7-18.3-.9-27.7-1.3 9 7.3 19.8 2.7 31.1 4.4-19 7.6-35.3-1.4-53.5-4.6 4.8 7.3 11.3 8.7 17.6 12-13.6-1-27.6-.2-40.5-3.6-7.1-1.9-12.4-11-18.4-16.9-1.1-1-1.7-2.5-3.3-5-3.1 6.8-5.7 12.6-8.6 19-16.6-12.3-13-31.7-16.4-49.1-10 10.5-13.3 23.6-13.9 37.8-.9-.1-1.8-.1-2.6-.2-.4-5.6-1.1-11.2-1.2-16.8-.1-6.3 0-12.7.8-18.9.7-6 2.5-11.8 3.1-17.9-7.3 15.7-14.6 31.3-22 47-.7-.2-1.5-.4-2.2-.6 4.7-19.2 9.3-38.4 14.2-58.4-9.2 16.5-18.1 32.5-26.9 48.5-.8-.4-1.5-.7-2.3-1.1 7.1-18.2 14.2-36.3 21.4-54.5-.2-.2-.4-.5-.6-.7-8.7 12.3-17.9 24.1-27 36-.5-.2-.9-.4-1.4-.6 11.5-24.2 22.9-48.4 34.4-72.6l-1.8-1.2c-17.6 24.2-35.1 48.4-52.7 72.6-.6-.4-1.2-.7-1.8-1.1 8.4-17 16.9-33.9 25.3-50.9l-1.2-.9c-11.5 10.5-23.1 20.9-34.6 31.4-.3-.2-.6-.3-.9-.5 12.9-20.6 25.7-41.1 38.6-61.7l-.5-.5c-3.4 4.2-6.6 8.7-10.4 12.6-2.5 2.5-3.8 7.7-9.5 5.3-1-.4-3.6 2.3-5.1 3.9-4.6 4.8-9 9.8-14.5 13.9 6.8-9.3 13.6-18.6 20.2-28 1-1.5 1.4-3.4 2.1-5.1-2.1.1-4.5-.4-6.1.4-10 5.2-19.9 10.8-30.3 15.7 16.6-16.5 37.8-27.8 52.6-46.7-6.4-.2-6.4-.2-20.6 11.1-6.3 5-12.7 10.1-20.1 16 3.8-6.7 7-12.3 10.1-17.9-.4-.7-.8-1.3-1.1-2l-19.2 2.4c-.3-.4-.5-.9-.8-1.3 8-3.7 15.9-8.2 24.2-11 8.2-2.8 14.2-7.6 19.2-14.3-.2-.6-.4-1.3-.6-1.9-6.2 1.5-12.5 3.1-19.2 4.7 1.2-1.7 2.2-3.1 3.7-5.3-9.2.9-17.6 1.7-25.9 2.5-.1-.4-.3-.7-.4-1.1 5.2-2 10.4-3.9 15.5-5.9 2 4 12.5 2.7 15.8-2.2-5.8.6-11 1.4-16.2 2.2zM447 320.7c-4.8-3.2-9.4-6.8-14.5-9.5-8.1-4.3-16.6-7.9-24.9-11.8-.1.2-.1.5-.2.7 3.9 2.9 7.8 5.9 11.7 8.8 6.3 3.5 12.5 7 18.8 10.5-3.6-.5-7.2-.9-10.7-1.3 14.4 7.3 28.6 14.6 42.9 21.8-5.6-5-12-8.5-18.1-12.4-2.3-1.5-4-3.8-6.1-5.8.4-.4.8-.7 1.1-1zm-311.7-82.2h36.8c0-.7.1-1.5.1-2.2-8.3-.2-16.6-.7-24.9-.4-4 .1-7.9 1.8-11.8 2.8-4.1 1.4-8.3 2.8-12.4 4.3.1.3.2.5.3.8 6.5-.6 13.1-1.3 21.4-2.1-4.2-1.5-6.9-2.4-9.5-3.2zM481.4 342c5.9 4.8 11.9 9.7 17.8 14.5.4-.5.9-.9 1.3-1.4-4.8-4.4-9.5-8.9-14.4-13.1-1.1-.9-3.1-.9-4.6-1.3-1.4-2.6-2.2-5.9-4.3-7.7-13.4-11.7-26.9-23.3-40.6-34.6-3-2.4-6.9-3.7-10.4-5.5-.6.8-1.1 1.6-1.7 2.4 2 2.2 3.7 4.6 5.9 6.4 6.6 5.3 13.4 10.4 20.1 15.6.2.8.1 2.1.6 2.4 9.9 7.6 20.1 14.9 30.3 22.3zM96.9 249.8c4-.5 8.1-1 12.1-1.5-.1-.5-.2-1-.3-1.4-11.3-.9-22.6-1.9-33.9-2.8 0 .3 0 .7-.1 1l4.5 2.7c-2.6-.4-5.1-.7-7.7-1.1 7.6 3.4 15.4 5.8 23.4 7.5 3.9.7 3.2-2.1 2-4.4zm-1.6 16.8l39.9-8.4-.9-3.3c-13.1 3.9-26.1 7.8-39.2 11.8 13.8-5.1 27.6-10.2 40.2-14.9-21.6-2.6-39 14.2-60.2 18 .2.7.3 1.3.5 2 6.6-1.7 13.1-3.5 19.7-5.2zM361 119.3c-2.5 2.2-5.1 4.4-7.6 6.5.3.3.7.6 1 1 9.9-6.7 19.8-13.3 29.7-20-.3-.5-.5-1-.8-1.5-7.1 3.7-14.3 7.5-21.4 11.2-10.1 5.4-20.4 10.3-30.1 16.2-5.1 3.1-4.8 5.1.1 11.3 1.4-1.9 2.5-4 4.2-5.4 8.2-6.5 16.6-12.9 24.9-19.3zm49.8 242.5c7.3 6.2 14.5 12.6 22 18.7 7 5.8 14.3 11.4 21.4 17 .4-.5.8-1 1.3-1.5-10.3-11-20-22.6-31-32.8-4.7-4.4-11.9-6.3-18-9.3-.3.5-.5 1-.8 1.5l5.4 6.6c-5.2-3.4-10.4-6.8-15.5-10.1 9.9 11 17.4 24.8 34.1 27.6-6.4-5.9-12.6-11.8-18.9-17.7zm-269 26.8c.2-1.5.5-2.9.7-4.4-.8-.4-1.6-.8-2.4-1.3-2.7 3.3-5.7 6.3-7.9 9.9-2.3 3.8-3.7 8.2-5.6 12.3-4.4 9.2-9.4 18.1-13 27.5-4.2 10.9-7.1 22.3-10.5 33.5-1.5 4.9-2.8 9.8-4.2 14.8 2.8-3.1 4.4-6.6 5.8-10.1 6.3-15.6 12.5-31.3 19-46.9 1.1-2.8 3.4-5.1 5.2-7.6 1.4-1.1 3.3-2 4.1-3.4 5.2-9.7 10.3-19.4 15.3-29.2.4-.7.3-1.7.5-2.5-.4-.2-.8-.4-1.3-.5-1.9 2.7-3.8 5.3-5.7 7.9zM247.5 413c-.9.8-2.1 1.5-2.6 2.5-3.5 8.5-6.9 17.1-10.6 26.2-1.6-1.4-2.6-2.4-4.1-3.7-2.5 11.2-4.4 21.8 2.1 32.2-.6.1-1.1.2-1.7.4-2.8-5.1-5.6-10.3-9.2-16.9.9 16.5 25.2 53 38 58.4-.9-1.5-1.6-2.6-2.3-3.7-9.2-14.4-17.8-29.7-17.2-47 .6-16.2 4.8-32.4 7.3-48.6 2.5-6 5.1-12.1 8-19.1-7.9 4.7-9.9 10.3-7.7 19.3zm185.2-152.9c16.3 13.7 34.5 27.9 51.5 43.4 16.8 15.4 32.4 32.2 48.4 48.2-7-10.9-14.4-22.1-21.2-33.6-12.8-21.4-27.3-41.3-44.8-59.1-10.9-11-24.7-16.5-38.9-21.3 21.8 14.5 36.9 29.4 40.2 39.2-11.6-5.5-24.2-11.5-35.2-16.8zm-81.4 248.2c-11.3-12.2-25-26.5-38.2-41.3-9-10.1-19-20-25.1-31.7-7.4-14.1-11.1-30-16.5-45.3-5.5 7.5-6.4 15.7-4.4 25.1 6.5 29.5 25.3 50.4 47.9 68.4 12.4 9.7 26 17.8 36.3 24.8zm115.1-137.5c-19.8-24.3-33.8-39.5-60.4-40.2 15.5 8.6 31 17.2 46.5 25.7-8.4-2.8-15.8-7.5-23.7-11.1-7.6-3.5-15.8-5.8-23.7-8.6-.4 1-.8 2.1-1.2 3.1 20.8 10.3 41.6 20.7 62.5 31.1zM62 440.1c.4.2.8.4 1.2.7 1.4-1.6 3-3.1 4.2-4.9 15.1-22.7 29.4-45.9 47.8-66.3 2.9-3.2 4.3-7.6 6.3-11.5l-2.4-1.5c-7.8 10-15.5 20.1-23.3 30.1-.5-.3-1-.7-1.5-1 8.3-13.7 16.6-27.4 24.1-39.8-7.5 4.4-13.2 12.8-18.1 21.8-11.6 21.6-23.2 43.3-34.7 65-1.3 2.4-2.4 4.9-3.6 7.4zm257.2 73.4c-17.1-20.8-34.4-41.8-52.7-64.2 3.8 11.4 6.6 21.8 10.8 31.6 2.1 4.8 5.9 9.6 10.2 12.7 10.2 7.2 21.1 13.4 31.7 19.9zm-125.9-19.3c.8.2 1.7.4 2.5.5.8-2.9 1.6-5.9 2.4-8.8 4-14.5 6.7-29.6 12.6-43.4 4.3-9.9 3.1-19.6 3.9-29.8-4.9 5.8-10.8 11.7-12.1 18.4-4.1 20.9-6.4 42.1-9.3 63.1zm136.3-73.8c.5 2.7.8 4.1 1.1 5.4.3 1.4.6 2.8.9 4.1-1.6.3-3.7 1.3-4.8.6-5-2.8-10.8-5.2-14.3-9.4-4.6-5.6-7.3-12.7-11.8-20.8 1.4 6.2 2.5 10.8 3.6 15.6-1.2-.1-2-.2-3.2-.4 4.4 10.8 11 18.3 23.3 18.6 2 .1 4.1.6 5.9 1.3 10.6 4.3 21.2 8.7 31.8 13.1 5.1 2.1 10.3 4.1 15.4 6.1.1-.3.3-.7.4-1-15.6-10.7-31.4-21.5-48.3-33.2zm-146.2-30.2c.6.1 1.2.2 1.9.3-1.1 10.2-2.3 20.4-3.1 27.9 4.4-15.6 9.5-33.8 14.3-51-2.6 1-6.2 2.3-11.7 4.3 4.4-6.8 7.6-11.7 10.8-16.6-.5-.5-1.1-1-1.6-1.4-2.7 2.1-6.5 3.6-7.8 6.3-2.2 4.5-3.2 9.8-4.1 14.9-1.9 11.1-3.4 22.3-4.9 33.5-.6 4.7-.5 9.5-.7 14.2.7.1 1.4.1 2 .2 1.7-11 3.3-21.8 4.9-32.6zm253.2-176.7c-.3.7-.6 1.3-.8 2 3.8.9 7.7 1.8 11.5 2.8 3.8 1 7.5 2.2 11.2 3.3-.2.4-.4.9-.5 1.3-4.8-1.2-9.6-2.5-14.5-3.7 9.7 5.2 20.1 9.1 28.2 15.6 14.3 11.5 27.2 24.6 40.6 37.1 2.1 1.9 3.7 4.3 5.6 6.5-5.9-9.7-13.1-18.3-20.1-27.1-15.9-19.8-35-34.5-61.2-37.8zm-283.2 274c5.4-11.1 10.7-21.9 15.9-32.8.9-1.8 1.6-3.8 1.7-5.8.1-6.5-.5-13-.2-19.5.3-6.4 1.4-12.8 2.3-20.2-12.5 25.3-15.3 51.9-19.7 78.3zM57.5 329.9c.3.2.6.3.9.5 16.4-8.7 32.8-17.4 49.1-26.2 8.6-4.7 17.1-9.7 25.5-14.5-4.5.3-9.3.2-13.9.9-4.3.7-9.2 1.4-12.7 3.8-16.5 11.5-32.6 23.6-48.9 35.5zm284.1 55.6c2.6 20.2 40.9 51 64.2 51.7-24.8-13.9-45.4-30.4-64.2-51.7zM65.3 378c16.1-27.1 39.7-46.6 65.8-63.4-.4-.5-.7-.9-1.1-1.4-4 2.5-8 5-13 8.1 1.5-2 2.3-3.2 3.2-4.4-28.2 11.5-43 35-54.9 61.1zm308.8-21.1c12.3 13.5 23.9 26.3 35.6 39.1.5-.3 1-.7 1.4-1-4-8.2-7.9-16.4-12.1-24.5-4.8-9.3-10.8-17.2-24.9-13.6zM99.8 324.3c-21.5 9.5-42.5 21.6-55.5 44.2 8.7-10.3 20.4-15.7 32.6-20.3.6-.2 1-.9 1.5-1.3 7.3-7.8 14.6-15.5 21.4-22.6zm257.4 134c.3-1 .6-1.9.9-2.9-21.6-5-42.3-11.8-59.8-27.4.2 8.1 5.6 16.4 14.9 19.4 14.4 4.5 29.3 7.3 44 10.9zm70.5-272.5c-9.9-12.7-39-12.2-47.9 0 6.7 0 13.5 1.6 18.8-.4 7.4-2.8 14-1.8 21-.5 2.6.5 5.4.6 8.1.9zM175.1 477.2c-4 13-2.1 25.2 3.7 37-.6.2-1.2.4-1.8.7-4.1-7.3-8.1-14.6-12.2-21.9 2.3 16.3 13.9 33.4 27.2 26.6-9.2-3.7-10.1-11.7-11.6-19.5-1.6-7.7-3.6-15.3-5.3-22.9zm-35.5-344.3c18 12.5 35.9 24.9 53.9 37.4.4-.5.8-1 1.2-1.4-4-4.6-8.1-9.2-12.6-14.3-1.2 2-1.9 3.3-3.1 5.4.4-10.1-20.7-24.9-39.4-27.1zm258.6 105c-.2.6-.4 1.3-.6 1.9 19 8.1 38 16.2 56.4 24.1-5.1-6.1-11.4-11.9-20.4-14.2-2.9-.7-5.8-2.1-8.4-3.6-3-1.8-5.3-5.1-8.4-5.9-6.1-1.4-12.4-1.6-18.6-2.3zM155.5 403.4c8.9-16 18.1-32.5 27.9-50.1-5.3 1.7-11.4-2.6-13.7 4.5-4.9 15.2-9.5 30.5-14.2 45.6zm228.3-152.6c-.3.4-.7.7-1 1.1 15.4 7.7 30.7 15.3 46.1 23-4-6.2-8.7-11.3-13.6-16.3-1.4-1.4-3.1-3.1-4.8-3.4-8.9-1.7-17.8-3-26.7-4.4zm-26.3 105.3c5.5 15 15.4 27.4 23.9 40.7-1.5-17.3-8.1-31.6-23.9-40.7zM85.9 378c-12.4 16.9-24.8 33.8-37.1 50.7 20-14.8 29.1-27 37.1-50.7zm2.3-175.1c.1-.4.2-.7.2-1.1 8.7 1.9 17.5 3.8 26.2 5.7-11.2-7.4-34.1-11.6-50-9.8 8 2.8 15.8 5.6 22.8 8.1-.5.1-1.9.5-3.3.9 0 .5.1 1 .1 1.5h20.2c.1-.2.1-.4.2-.7-5.5-1.5-10.9-3.1-16.4-4.6zm224.5 100.7c-3.1-6.8-5.5-12.2-8.1-17.6-1.8-3.8-3.5-7.7-5.8-11.3-2.5-3.9-6.5-2.7-8.5-.3-1.1 1.4-.1 5.5 1.1 7.8 1.7 3 4.5 5.3 6.7 8.1 3.1 3.8 5.8 7.9 9.1 11.5 1.1 1.1 3.3 1.1 5.5 1.8zm-12 69.7c0 4.1-1.1 7.8.2 9.2 7 7.7 14.5 14.9 21.9 22.2.6-.5 1.2-.9 1.8-1.4-4.3-8.3-8.2-16.9-13.2-24.8-1.5-2.3-5.9-2.9-10.7-5.2zm-65.8 15.4l-1.5-1.2c-4.3 5.2-11.6 10.1-12.3 15.8-1.7 12.9-.2 26.2 0 39.3h2.2c2.8-18.2 0-37.6 11.6-53.9zm179.3-216.4c15.2 2.7 30.3 5.4 45.5 8.2-9-10.4-33.9-14.7-45.5-8.2zm-192 100.1c3.7-5.5 6.6-11.4 10.9-16 4.2-4.5 9.8-7.8 15.1-11.8-21.8-1-27.7 5.3-26 27.8zm104.5 32.8c.5-.4 1-.7 1.5-1.1-2.4-8.7-4.4-17.6-7.3-26.1-.6-1.7-4.2-2.4-6.4-3.6-.6 2.6-2.5 5.8-1.7 7.9 2.9 6.8 6.7 13.2 10.3 19.6.7 1.4 2.3 2.2 3.6 3.3zm-121.9 162c.4 4.5-.5 8.5 1.1 10.6 2.3 3 6.4 4.5 9.6 6.7l19.5 13.2c.6-.9 1.3-1.7 1.9-2.6-10-8.7-20.2-17.6-32.1-27.9zm73.8-95.2c-1.7-4.6-3.5-9.2-5.3-13.9h-2.4c-2.2 12.8-4.5 25.7-6.6 37.9 4.7-7.7 9.5-15.9 14.3-24zm-134 99.2c-1.5 6.8-3.1 13.1-4.2 19.5-1.1 6.5-.4 12.8 4.1 19.5 4.6-13.7 5.8-26.1.1-39zm62.4-84.6c-7.3 10.7-11.7 20.8-11.5 33.7 8.3-13.5 16-26.1 23.6-38.6-.4-.3-.8-.5-1.1-.8-3.1 4.1-6.2 8.3-10.1 13.5-.4-3.1-.6-4.8-.9-7.8zm151.9 33.6c-.1-1.2 0-1.7-.2-2-.3-.6-.8-1.1-1.2-1.6-7.6-8.5-15.9-16.4-18.8-28.3-1.2-5-4.7-3.2-7.7-.3 5.7 13.8 14.3 24.7 27.9 32.2zm-10.8-118.8l.3-.3c5.6 5.5 11.3 11 16.9 16.6.6-.5 1.1-1.1 1.7-1.6-6.4-7.9-12.8-15.8-20-24.8-3.1 4-5.4 7-7.7 10.1 7 4.4 13.1 8.2 19.3 12.1.2-.2.3-.4.5-.6-3.7-3.9-7.3-7.7-11-11.5zM158.7 110.7c11.7 18.6 33 38.8 42.6 40.1-14.2-13.4-28.4-26.7-42.6-40.1zm367.8 244.6c.4-.5.7-1 1.1-1.5-7.7-8.1-15.3-16.2-23-24.3 1.1 6.6 1.7 13.7 5.5 17.8 3.8 4.2 10.8 5.5 16.4 8zM307.4 153.1c-17 4.4-27.9 15.2-24.8 26.4 8.1-8.7 16.3-17.4 24.8-26.4zm17.2 269.7c-1.7-14.6-15.6-20.4-22.4-31.5 3.9 13.1 10.9 23.9 22.4 31.5zm109-199.1c-7.4-10.6-16.3-19.2-29.7-21.5 2.4 1.4 4.9 2.8 7.4 4.2-1.5 1-2.9 1.9-4.8 3.2 9.4 5 18.3 9.5 27.1 14.1zm-20.9 64.5c-5.1-12.6-21.4-26.5-32.1-27.4 8 13.1 24.3 15.4 32.1 27.4zm-56.1-14.4c.2-.3.4-.6.6-1-2.8-2.5-5.5-5-9.6-8.7 6.9.5 12 .8 17.2 1.2-6.3-3.7-12.8-6.6-19.6-8.8-1.4-.5-4 1.1-5.3 2.5-.6.6.2 3.6 1.2 4.4 5.1 3.6 10.4 7 15.5 10.4zM182.4 147.7c11.3 14.4 22.1 28 32.8 41.6-1.4-5.8-2.1-12.6-5.9-16.7-7.8-8.8-17.3-16.2-26.9-24.9zm103.3-86.8c-5.6 18-15.2 34.7-16.2 53.8.8.2 1.7.5 2.5.7 4.6-18.1 9.1-36.3 13.7-54.5zM154.1 348.4c-.7-.3-1.3-.6-2-.9-6.2 4-23.5 31.3-25.8 41.4 1.6-2.3 2.5-3.7 3.5-5.1 6-8.1 12.1-16.2 18-24.4 2.5-3.4 4.3-7.3 6.3-11zm226.3-40.1c-7.3-13.7-18.7-23.3-30.2-32.7l-1.3 1.3c1.6 2 3.2 3.9 4.8 5.9-3.7 5.3-3.2 5.8 11.4 11.8-2.3-2.9-4.4-5.5-6.4-8.2.4-.3.9-.7 1.3-1 6.7 7.6 13.5 15.3 20.4 22.9zM142.6 410.8c-2.1 3.6-5.5 6.8-5.6 10.1-.6 16.1-.3 32.2-.3 42.4 1.5-13.2 3.7-32.4 5.9-52.5zM84.1 263.5c-14.8-2.9-30.4 1.3-33.6 9.4 12.1-3.4 22.9-6.4 33.6-9.4zM228.9 73.4c-.7.3-1.4.6-2.2.9 5.1 16.1 4.1 33.7 12.1 49.1.7-.2 1.3-.3 2-.5-4-16.5-8-33-11.9-49.5zm48.4 268.2c-1.7-1.5-2.2-2.3-2.9-2.6-6.7-3-13.4-6.2-20.3-8.6-1.9-.7-4.7 1.2-7.1 1.9 1.7 1.6 3.2 3.9 5.2 4.7 6.6 2.4 13.3 4.4 20.1 6.3 1.1.3 2.7-.9 5-1.7zM59 301.9c19.1-10.4 37.1-23.3 59.8-25.2-24.1-1-41.6 12.9-59.8 25.2zm147.1-102.6c.4-.5.8-1 1.2-1.6-10.5-10.8-20.9-21.8-37.8-27.4 13.3 10.5 24.9 19.8 36.6 29zm10.5 66.7c-2 7.1-3.4 13-5.5 18.6-3.1 8.1-10.6 3.6-16.6 4.8 12 7.4 17.7 3.7 23.2-13.9 1.9 4.3 3.9 8.7 5.8 13.1.3-.2.7-.3 1-.5-2.4-7-4.9-13.8-7.9-22.1zm73.1 101c1.8 15.5 3.3 29.4 4.9 43.3h2.3c0-7.5 2.9-17.1-.7-21.9-5.1-6.9 3.7-15.6-6.5-21.4zm176.8-173.8l-.3.9c-5.7-1.6-11.4-3.2-17.2-4.7-.2 1-.4 1.9-.6 2.9 14.4 2.9 28.8 5.7 43.2 8.6.1-.3.2-.7.2-1-11.4-4.3-22.7-8.6-34.1-12.9-.2.3-.3.7-.5 1 3.2 1.8 6.3 3.5 9.3 5.2zm-201.4-53.9c9.1-16.2 17.9-31.8 26.6-47.5-.5-.3-1-.6-1.6-.8-8 16-22.8 28.4-25 48.3zM79.6 238.9c13.1-.9 26.7-.1 39.2-5.5-14.1-5.5-25.8 4.9-39.2 5.5zm153.9-94.1c1.4-.4 2.8-.9 4.2-1.3l-12.6-40.2c2.4 13.9 2.8 28.4 8.4 41.5zm9.6 1.7c0 14.1 0 29 .1 44 0 .7 1.7 1.4 2.5 2.2.6-.2 1.1-.4 1.7-.6-1.4-15.5-2.9-31-4.3-45.6zm63.8 24.7c9.7-4.4 19.8-8.9 30.1-13.5-16.2-1.8-25.4 2.4-30.1 13.5zM144.4 433.7c.5 2.1.8 3.5 1.2 4.9h1.1c.5-9.4 1-18.8 1.4-28.6-9.5 14.3-5.6 30.7-7.4 46.2 1.2-7.2 2.4-14.4 3.7-22.5zm-77.5-47.2c.4.4.8.8 1.3 1.2 8.6-11.8 17.2-23.5 25.7-35.3-13.8 7.8-19.7 21.5-27 34.1zm45.9 9.6c-.8-.5-1.6-.9-2.4-1.4-9.4 13.9-16.6 29-22.5 44.9l24.9-43.5zm123-16c0-.7-.1-1.5-.1-2.2-2.8 0-7.3-1.1-8.1.2-4.2 6.6-7.4 13.7-11 20.6.5.3 1.1.6 1.6.9 5.9-6.5 11.8-13 17.6-19.5zm48 1.3c-.7-.2-1.4-.3-2-.5-1.4 2.1-4.5 4.9-3.9 6.2 3.2 7.2 7.2 13.9 10.9 20.8.7-.3 1.4-.6 2-1-2.3-8.5-4.7-17-7-25.5zm-171-40.4c-9.1 2.6-23.1 18.1-25.1 30 8.4-10.1 16.9-20.1 25.1-30zm42.4 27.7c.3-.1.6-.2.8-.3 3.7-10.6 7.5-21.2 11.2-31.8-.4-.2-.9-.4-1.3-.6-1.7 3.1-3.4 6.3-5.6 10.3-.2-2.6-.3-4.3-.4-6-.7 0-1.5-.1-2.2-.1-.9 9.5-1.7 19-2.5 28.5zm-68-194.8c13.7 5.1 25.6 9.5 37.6 14-10.2-9.3-21.8-14.3-37.6-14zm187.2-9.4c-6.7 8.9-17.2 15.3-9.9 29.8 3.5-10.4 6.5-19.6 9.9-29.8zm-71.6-79.2c-.7.4-1.4.7-2.2 1.1 6.2 11.9 12.4 23.8 18.6 35.8.6-.3 1.1-.6 1.7-.9.1-15.2-14.6-22.7-18.1-36zm149.1 260.4c-5.2-7-9.9-13.2-15.5-20.7-2.8 12.9 5.7 19.4 15.5 20.7zM213.2 156.3c.6-.2 1.1-.4 1.7-.7l-15.3-42c-.7.2-1.3.5-2 .7 6.8 13.5 5.7 29.7 15.6 42zm7 5.1l9 32.7c2-12.3.6-23.6-9-32.7zm-6.6 233.4c-4.9 8.1-9.3 15.5-14.3 23.8 12-4.8 14.8-6.3 14.3-23.8zm68.4-94.9c5.2 4.2 10 8.3 14.9 12.1 1.1.9 2.9.9 4.4 1.3-.3-1.6 0-3.8-.9-4.9-2.4-2.9-5.8-5-8-8-3.2-4.3-6.2-5.4-10.4-.5zm-132.1-87.4c.3-1 .6-1.9 1-2.9-13.3-4.2-26.5-8.5-39.8-12.7-.2.7-.5 1.4-.7 2.1 13.2 4.5 26.4 9 39.5 13.5zM253.8 69.8h-2.2c-1.3 11.5-5.4 23.1 2.2 34.7V69.8zM153 220.8l.3-2.7c-15.6-1.3-31.1-2.6-46.7-3.9-.1.7-.1 1.3-.2 2 15.5 1.5 31 3.1 46.6 4.6zm-37.1 257.7c10-9.5 14.4-18.3 11.4-23.4-4.9 7.4-13.1 13.1-11.4 23.4zm125.5-220.2c8.7-1.4 18.2-3 27.5-4.5-9.3-6.8-23.7-3.9-27.5 4.5zm14.9-109.4c8.3-11.4 4.2-24.1 4.1-36.3-1.4 12-2.8 24.1-4.1 36.3zm2.9 93.2c8-3.2 11.9-10.4 10.6-19-.6-4.2-2.3-7.8-9.5-9.4 10.1 11.2 6 19.9-1.1 28.4zm128-88.8c-14-4.6-28-9.4-44.2-6.5 15.4 2.3 29.8 4.4 44.2 6.5zm-81.7 50.6c.3.3.5.7.8 1 9-4.4 17.9-8.8 26.9-13.2-.1-.4-.3-.8-.4-1.2-10 2.8-20 5.7-30 8.5l.6 2.1c3.1-.8 6.2-1.6 9.2-2.4.1.2.1.4.2.6-2.4 1.5-4.8 3-7.3 4.6zm146.7-4.7c-14.1-7.6-29.4-12.9-47-13.1 16.2 4.5 31.7 8.8 47 13.1zM60.7 305.5c9.8 0 18.5 1.9 27-4.8-9.7-1-18.3-2.8-27 4.8zm216.8 207.9c11.2 5.8 20.8 3.2 30.5 1.8 0-.6 0-1.2.1-1.8h-30.6zm57.6-279.1c-.2.7-.3 1.5-.5 2.2 10.1 4.8 20.2-2 30.3-2.2h-29.8zm-90-132.8c2.7 10.1 2.4 21 8.3 30.2 1.4-11.2-4.8-20.3-8.3-30.2zm164.1 402.2c5.6 2.9 9.4 4.9 14.7 7.7-1.1-6.5.1-12.3-6.5-12.9-2.3-.1-5 3.1-8.2 5.2zM158.3 133.2c-6.8-8.7-13.6-17.4-20.5-26.1 5.5 9.9 7.2 22.7 20.5 26.1zm306.8 45.7l-1.2 2.1 39 18.6.9-1.8-38.7-18.9zM42.3 288.8c13.9 5.1 25.6 4.6 28.8-2-9.9.7-19.3 1.4-28.8 2zm213.3 68.3c.5-.6 1.1-1.1 1.6-1.7-3.6-5.4-7-10.9-10.9-16.1-.6-.8-2.9-.2-4.5-.3.4 1.3.4 2.9 1.1 4 2.6 3.9 5.2 7.7 8.1 11.3 1.1 1.4 3 1.9 4.6 2.8zm-82.7-176c.6-.7 1.2-1.4 1.8-2l-25.5-22.5c-.5.6-1.1 1.3-1.6 1.9 8.4 7.6 16.9 15.1 25.3 22.6zm71.2 214.5l1.5 1.2c4-5.7 8.1-11.4 13.2-18.5-10.7 2.5-13.3 6.1-14.7 17.3zM392 346.2c-8.8-4.7-17.5-9.4-26.3-14 4 13.3 17.1 10.2 26.3 14zM148.8 226.8c12.1.6 24.2 1.3 37.9 2-13.2-6.4-25.6-3.1-37.9-2zM355.3 210c11.5 1.3 22.3 2.4 33.1 3.6-10.7-2.6-20.8-9.7-33.1-3.6zm-116.2 69c6-11.2 12-21.4 26.8-17.6-14.8-4.8-28.8 4-26.8 17.6zm79.5-145c-9.4 1.8-15.6 7.5-20.4 14.9.5.6 1.1 1.2 1.6 1.9 6.2-5.6 12.5-11.2 18.8-16.8zM171 247.5c0 .1 0 .3-.1.4 7.5.9 15 2 22.6 2.6 1.7.1 3.5-1.5 5.2-2.4-1.8-.8-3.7-2.3-5.5-2.2-7.4.3-14.8 1-22.2 1.6zm154.9-128.2c10.1-11.6 19.8-22.8 28.3-32.5-6.9 2.4-22.3 19.1-28.3 32.5zm-60 28.4c.8.6 1.7 1.1 2.5 1.7 5.2-9.1 10.4-18.2 15.6-27.4-.7-.4-1.3-.8-2-1.2-5.3 9-10.7 17.9-16.1 26.9zm47.1 32.6c-.2-.5-.5-1-.7-1.6-5.8 2-11.6 4-17.7 6.1.1 2.2.3 4.1.4 7 6.5-4.1 12.3-7.8 18-11.5zm164 62.3c-8.2-7.9-25.5-15.8-31.3-14 10.6 4.8 20.6 9.2 31.3 14zm-325.8 83.8c-.5-.6-1.1-1.3-1.6-1.9-8.6 7.4-17.2 14.9-25.9 22.3.5.5.9 1.1 1.4 1.6 8.7-7.4 17.4-14.7 26.1-22zM320.3 360c3.4-2.1 5.1-9 2.6-11.8-.8-.9-3.3-1.4-4.3-.9-3.6 1.8-2.7 7.3 1.7 12.7zm-48.1-33.8c.2-.7.4-1.5.6-2.2-4.6-2-9.2-4.1-14-5.9-1.1-.4-3 .4-3.9 1.3-.5.5.1 3.2.5 3.3 5.7 1.3 11.3 2.4 16.8 3.5zM210 384.7c9.6-12 10.4-16.1 3.6-20.1-1.2 6.5-2.3 12.7-3.6 20.1zm188.1 112.9c.2.4.5.7.7 1.1 3.2-1.4 6.4-2.8 9.6-4.3-.2-.8-.5-1.7-.7-2.5l-26.7 4.2c.1.8.3 1.6.4 2.4 6.3-1.2 12.7-2.4 19.6-3.7-1.3 1.3-2.1 2.1-2.9 2.8zM261 500.3c10.4 6 19.3 7.3 30.5 4.3-10.3-1.5-20.5-2.9-30.5-4.3zm51.5-170.2c-2 2.2-3.4 3.8-5.8 6.4 6.1 1.8 11 3.3 15.9 4.8.3-.5.5-1 .8-1.5-3.5-3.2-7-6.3-10.9-9.7zm65-56.8c-1 .8-2 1.7-3 2.5 5.2 6.1 10.3 12.2 15.5 18.2.5-.4 1.1-.8 1.6-1.3-4.7-6.4-9.4-12.9-14.1-19.4zM73.7 218.2c11.8 6.5 18 6.8 23.1 1.8-7.2-.5-14.2-1.1-23.1-1.8zm412.9 98.5c-.5.3-1 .5-1.5.8 3.3 8.5 6.5 17.1 9.8 25.6.9-.4 1.7-.8 2.6-1.2-3.6-8.4-7.2-16.8-10.9-25.2zm-288.2-50.2c-8.4-4.3-21-3.7-24.2 1.4 8.3-.5 16.5-.9 24.2-1.4zM489 196.8c.2-.6.5-1.1.7-1.7-9.9-4.4-19.7-8.7-29.6-13.1-.3.7-.6 1.5-1 2.2 10 4.2 20 8.4 29.9 12.6zM63.3 226.3c-.1.6-.1 1.1-.2 1.7 6.6.6 11.8 9 19.9 2.1-6.5-1.3-13.1-2.5-19.7-3.8zM239.4 203v-22c-1.3 7.4-5.1 14.8 0 22zm-54.5 239.5c1.8 5.3 3.6 10.6 5.8 16.9 4.5-8.2 1.9-13.2-5.8-16.9zm-41.3-97.4l1.2 1.2c6.3-5.8 12.6-11.7 18.9-17.5l-2.3-2.3c-6 6.2-11.9 12.4-17.8 18.6zm149.3-1.2c-2.1 3.1-3.5 5.2-4.2 6.3 2.9 3.6 5.2 6.5 7.6 9.4l1.2-.9c-1.4-4.5-2.8-9.1-4.6-14.8zM315.3 461c7.8 11.2 10.1 12.9 17.8 12.9-2.8-1.9-5.2-3.5-7.8-5.3 1.1-.4 2.1-.7 3.7-1.3-4.4-2-8.4-3.9-13.7-6.3zm-94.9-281.2c-.8.2-1.5.5-2.3.7 2.3 7.9 4.6 15.9 6.9 23.8.8-.2 1.5-.4 2.3-.7-2.3-7.9-4.6-15.9-6.9-23.8zm132.3 146.9l-1.8 1.5c5.3 7.5 10.6 15 15.8 22.4.6-.4 1.1-.8 1.7-1.2-5.2-7.5-10.5-15.1-15.7-22.7zm-8.5 37.6c-3.8-7.2-7.5-14.4-11.3-21.7-.7.4-1.4.8-2.1 1.1 2 8.3 8.1 14.2 13.4 20.6zm-202.3 37.3c.7.3 1.3.5 2 .8 3.8-7.6 7.6-15.2 11.4-22.7-.8-.4-1.5-.7-2.3-1.1-3.7 7.7-7.4 15.3-11.1 23zm247.9-91.5c-2.6-7.8-3.7-16.6-12.8-20.6 4.3 6.9 8.5 13.8 12.8 20.6zm6.1-118.9c-3.5-.2-6.2-.5-8.8-.6-2.8-.1-5.6 0-8.6 0 4.2 6.5 5.6 6.6 17.4.6zm-167.5-52.6c-.8.3-1.5.6-2.3.9 2.4 6.3 4.9 12.6 7.3 19 .8-.3 1.5-.6 2.3-.9-2.4-6.3-4.9-12.7-7.3-19zm26 46.7c.7.2 1.5.3 2.2.5 1.1-6.5 2.1-13.1 3.2-19.6-2.7 6.2-8.6 11.6-5.4 19.1zm177.1 20.3c-.4 1-.7 1.9-1.1 2.9 8 2.4 16.1 4.9 24.1 7.3.2-.6.4-1.1.6-1.7-7.9-2.8-15.8-5.7-23.6-8.5zm-46.7 17.6c-.3.8-.5 1.6-.8 2.4 6.6 2.3 13.1 4.5 19.7 6.8l.9-2.7c-6.6-2.2-13.2-4.4-19.8-6.5zM364 299.6c-.6.5-1.1 1.1-1.7 1.6l14.7 13.2c-.1.1-.2.3-.3.4-4.3-5.1-8.5-10.1-12.7-15.2zm-187.5-44a64616714022205910 64616714022205910 0 0 0 20 0h-20zm157.4 43c.4-5.3.8-10.4 1.2-15.8-5.9 2.2-6.3 11.1-1.2 15.8zM50.2 381.5l2 2c5-4.6 10.1-9.3 15.1-13.9-.5-.6-1-1.1-1.5-1.7-5.2 4.5-10.4 9.1-15.6 13.6zm199.6-170.1c-6.9 4.6-5.8 11.4-4.8 18.2 1.5-6 3.2-12.1 4.8-18.2zm4.8 258.2c-.5.6-.9 1.2-1.4 1.8 6.3 4.4 12.6 8.7 19.8 13.7-2.6-10.8-14.4-8.1-18.4-15.5zm-16.3-118.4c-.5-4.2-1.1-8.4-1.7-13.2-6 3.9-5.7 6.6 1.7 13.2zm96.4-32.2c4.1 3.4 7.8 6.6 12.4 10.4-7.2-13.9-6.8-16.4-12.4-10.4zm-86.5-190.7c-.5.1-1 .1-1.5.2.8 7.4 1.5 14.8 2.3 22.2.8-.1 1.6-.2 2.5-.3-1.1-7.4-2.2-14.8-3.3-22.1zM109.9 332.1c.4.5.8 1 1.2 1.6l16.2-7.8c-.5-1-1-1.9-1.5-2.9-5.3 3-10.6 6.1-15.9 9.1zm-35.2-9.7l.6 2.7c5.5-.8 11.1-1.6 16.6-2.3-.1-.7-.2-1.5-.3-2.2-5.6.6-11.2 1.2-16.9 1.8zm295.2-60.2c-6.4-4.2-12.5-9.8-21.2-8 7 2.7 14.1 5.3 21.2 8zM183 234.9c.1-.9.3-1.7.4-2.6-8.1-1.1-16.1-2.2-24.2-3.4-.1.4-.1.8-.2 1.3 8 1.6 16 3.2 24 4.7zm-52.8 130.4c-.7-.6-1.3-1.2-2-1.8-4.4 4.9-8.7 9.8-13.1 14.7.4.4.9.8 1.3 1.2l13.8-14.1zm216.7-142.7c.2.7.4 1.4.7 2.2 7.8-2.7 15.5-5.3 23.3-8-.1-.4-.3-.8-.4-1.3-7.9 2.4-15.7 4.7-23.6 7.1zm-196.8 18.7c0 .3-.1.7-.1 1 6.8.5 13.5.9 20.3 1.4 0-.8.1-1.6.1-2.4h-20.3zM299.5 347c3.3 4.8 5.2 7.6 7.1 10.4.6-.2 1.3-.4 1.9-.6-.5-3.3-.8-6.6-1.8-9.7-.2-.5-3.4-.1-7.2-.1zm16.1-116.9c.6 1 1.2 1.9 1.7 2.9l14.4-8.1c-.3-.5-.5-1-.8-1.5-5 2.3-10.1 4.5-15.3 6.7zm-175.8-93c-.5.5-1 1-1.4 1.5 5.8 4.6 11.6 9.1 17.4 13.7.4-.6.9-1.1 1.3-1.7-5.7-4.5-11.5-9-17.3-13.5zm2.9 187.8c-.3-.7-.7-1.3-1-2-6 3.1-12 6.1-17.9 9.2.4.7.7 1.4 1.1 2.1 5.9-3 11.8-6.2 17.8-9.3zm252-11.9l-1.5 2.4c5.5 2.9 10.9 5.8 16.4 8.7.3-.5.6-1 .9-1.4-5.3-3.3-10.6-6.5-15.8-9.7zM133.9 144.2c-.3.6-.6 1.1-1 1.7 5.1 2.1 8 8.3 13.9 8.9.4-.8.8-1.5 1.3-2.3-4.8-2.8-9.5-5.5-14.2-8.3zm-7 162.4c.2.5.5 1.1.7 1.6 7.3-3.1 14.6-6.2 21.9-9.2l-.9-2.1c-7.3 3.2-14.5 6.5-21.7 9.7zm237.9 184.9c-8.4-.6-15.5-1-22.8-1.5 7 6 14.3 2.6 22.8 1.5zM79.2 183.1c-.2.7-.4 1.4-.6 2.2 6.3 1.6 12.5 3.3 18.8 4.9l.6-2.1c-6.2-1.7-12.5-3.3-18.8-5zm45.4 13.8c-.1.5-.2.9-.3 1.4 7 1.4 14.1 2.9 21.1 4.3.1-.8.3-1.7.4-2.5-7-1.1-14.1-2.2-21.2-3.2zm181.8 21.5c.1.6.2 1.1.4 1.7 7-1.4 14.1-2.8 21.1-4.3-.1-.5-.2-1.1-.4-1.6-7 1.4-14 2.8-21.1 4.2zm-68 2.4h-1.3v16.9c.4 0 .9 0 1.3-.1v-16.8zm88.9 102.1c-.7-.1-1.3-.1-2-.2-1.3 1.6-2.6 3.2-4.4 5.5 2.4 1.7 4.3 3 7.9 5.5-.7-5.1-1.1-7.9-1.5-10.8zm110.2 139.6c-.5.9-.9 1.9-1.4 2.8 5.2 2.2 10.5 4.4 15.7 6.6.2-.5.4-.9.7-1.4-5-2.7-10-5.4-15-8zM369.9 108c-.3-.4-.6-.7-.9-1.1-6.7 3.6-13.3 7.1-20 10.7.2.5.5.9.7 1.4 6.8-3.6 13.5-7.3 20.2-11zM349 316.1c-.5.5-1 1-1.4 1.5 2.4 2.6 4.8 5.2 7.2 7.9 2.2 2.5 4.3 5.1 6.4 7.7.5-.5 1-1 1.5-1.4-4.6-5.2-9.1-10.5-13.7-15.7zM216.6 200.9h.3c-5.1-5.6-10.2-11.3-15.3-16.9l-1.7 1.7c5.5 5 11.1 10.1 16.7 15.2zm65.9 160.7c2.3-6.2 1.9-10.2-6.1-8.3 2.2 3 4.1 5.6 6.1 8.3zm186 36.1c-1.7-5.9-3.6-12-10.9-13.9 3.6 4.6 7.2 9.3 10.9 13.9zM128 165.8c.4-.6.8-1.1 1.3-1.7-5.6-2.8-11.2-5.5-16.7-8.3-.3.6-.6 1.2-.9 1.9 5.4 2.7 10.9 5.4 16.3 8.1zm123.3 323.1c4 8.4 10.9 6.3 16.3 7.7-4.9-2.4-9.8-4.7-16.3-7.7zM52.1 310.8v1.9H65v-1.9H52.1z"/><path class="st0" d="M338 67.7c-4.9 4.4-10.9 8-14.5 13.2-9.9 14.4-18.7 29.5-28.1 44.3-2.8 4.3-6.1 8.3-9.9 11.9 7.7-10.7 6.7-24.6 15.7-35.4 11.3-13.5 21.3-27.8 36.5-37.4 1-.7 1.6-2.1 2.3-3.1v.1h4.6c-.6 1-1.3 2.2-2 3.4-1.5.9-3 2-4.6 3zM310.9 56.1c-9.1 10.6-18.2 21.3-28.3 33 1.7-11.3 9.1-17.8 14.4-25.5l13.5-11.7c.4.3.9.7 1.3 1-.2 1.1-.5 2.1-.9 3.2zM432.7 260.1c10.9 5.2 23.6 11.3 35.2 16.9-3.3-9.9-18.3-24.8-40.2-39.2 14.2 4.9 28 10.3 38.9 21.3 17.5 17.7 32 37.7 44.8 59.1 6.9 11.5 14.3 22.6 21.2 33.6-16-16-31.6-32.7-48.4-48.2-16.9-15.6-35.1-29.8-51.5-43.5zM351.3 508.3c-10.3-7-23.9-15.1-36.2-24.8-22.6-17.9-41.4-38.8-47.9-68.4-2.1-9.4-1.1-17.6 4.4-25.1 5.4 15.3 9.1 31.2 16.5 45.3 6.1 11.7 16.1 21.6 25.1 31.7 13 14.9 26.7 29.1 38.1 41.3zM247.4 412.9c-2.6 16.2-6.8 32.3-7.4 48.5-.6 17.3 8 32.6 17.2 47 .7 1.1 1.4 2.2 2.3 3.7-12.8-5.4-37.1-41.9-38-58.4 3.6 6.6 6.4 11.7 9.2 16.9.6-.1 1.1-.2 1.7-.4-6.5-10.4-4.6-21-2.1-32.2 1.5 1.3 2.5 2.3 4.1 3.7 3.7-9.1 7-17.7 10.6-26.2.4-1 1.7-1.7 2.6-2.5-.1 0-.2-.1-.2-.1zM466.4 370.8c-20.8-10.4-41.7-20.8-62.5-31.2.4-1 .8-2.1 1.2-3.1 7.9 2.8 16.1 5.2 23.7 8.6 7.9 3.6 15.3 8.3 23.7 11.1-15.5-8.6-31-17.2-46.5-25.7 26.6.9 40.6 16 60.4 40.3zM62 440.1c1.2-2.5 2.3-5 3.6-7.5 11.5-21.7 23.1-43.4 34.7-65 4.8-9 10.5-17.3 18.1-21.8-7.5 12.4-15.8 26.1-24.1 39.8.5.3 1 .7 1.5 1 7.8-10 15.5-20.1 23.3-30.1l2.4 1.5c-2.1 3.9-3.5 8.3-6.3 11.5-18.4 20.4-32.7 43.6-47.8 66.3-1.2 1.8-2.8 3.3-4.2 4.9-.5-.1-.8-.3-1.2-.6zM319.2 513.5c-10.5-6.5-21.5-12.7-31.7-19.9-4.3-3-8.1-7.8-10.2-12.7-4.2-9.8-7-20.2-10.8-31.6 18.3 22.4 35.6 43.4 52.7 64.2zM193.3 494.2c3-21 5.3-42.2 9.3-63.1 1.3-6.8 7.2-12.7 12.1-18.4-.7 10.2.4 19.9-3.9 29.8-5.9 13.7-8.6 28.8-12.6 43.4-.8 2.9-1.6 5.9-2.4 8.8-.8-.1-1.7-.3-2.5-.5zM329.6 420.4c16.9 11.7 32.6 22.5 48.4 33.3-.1.3-.3.7-.4 1-5.1-2-10.3-4-15.4-6.1-10.6-4.3-21.2-8.8-31.8-13.1-1.8-.7-3.9-1.2-5.9-1.3-12.3-.4-18.9-7.8-23.3-18.6 1.2.1 2 .2 3.2.4-1.1-4.7-2.1-9.3-3.6-15.6 4.4 8.1 7.1 15.2 11.8 20.8 3.5 4.2 9.3 6.6 14.3 9.4 1.1.6 3.2-.4 4.8-.6-.3-1.4-.6-2.8-.9-4.1-.4-1.4-.6-2.8-1.2-5.5zM128.9 416.4c-1.8 2.5-4 4.8-5.2 7.6-6.5 15.6-12.7 31.3-19 46.9-1.4 3.5-3 7-5.8 10.1 1.4-4.9 2.7-9.9 4.2-14.8 3.4-11.2 6.4-22.6 10.5-33.5 3.6-9.5 8.7-18.4 13-27.5 1.9-4.1 3.3-8.4 5.6-12.3 2.2-3.6 5.2-6.6 7.9-9.9.8.4 1.6.8 2.4 1.3-.2 1.5-.5 2.9-.7 4.3-.5 1.4-.9 2.8-1.5 4.1-3.8 8-7.6 15.8-11.4 23.7zM183.4 390.2l-4.8 32.4c-.7-.1-1.4-.1-2-.2.2-4.7.1-9.5.7-14.2 1.4-11.2 3-22.4 4.9-33.5.9-5.1 1.9-10.3 4.1-14.9 1.3-2.7 5.1-4.3 7.8-6.3.5.5 1.1 1 1.6 1.4-3.2 4.9-6.4 9.8-10.8 16.6 5.4-2 9.1-3.3 11.7-4.3-4.8 17.2-9.9 35.4-14.3 51 .8-7.5 2-17.7 3.1-27.9-.7.1-1.4 0-2-.1zM436.6 213.5c26.2 3.3 45.3 18 61.2 37.9 7 8.7 14.2 17.3 20.1 27.1-1.9-2.2-3.5-4.5-5.6-6.5-13.4-12.5-26.3-25.7-40.6-37.1-8.2-6.6-18.5-10.4-28.2-15.6 4.9 1.2 9.7 2.5 14.5 3.7.2-.4.4-.9.5-1.3-3.7-1.1-7.4-2.2-11.2-3.3-3.8-1-7.7-1.9-11.5-2.8.2-.8.5-1.4.8-2.1zM153.4 487.5c4.4-26.3 7.2-53 19.7-78.4-.9 7.4-2 13.8-2.3 20.2-.3 6.5.3 13 .2 19.5 0 1.9-.8 4-1.7 5.8-5.2 10.9-10.5 21.8-15.9 32.9zM57.5 329.9c16.3-11.9 32.4-24 49-35.5 3.4-2.4 8.3-3.1 12.7-3.8 4.6-.8 9.3-.7 13.9-.9-8.4 4.8-16.9 9.8-25.5 14.5-16.3 8.8-32.7 17.5-49.1 26.2-.4-.2-.7-.4-1-.5zM341.6 385.5c18.8 21.3 39.4 37.8 64.2 51.7-23.3-.7-61.6-31.5-64.2-51.7zM65.3 378c11.9-26.1 26.7-49.6 55-61.1-.9 1.3-1.7 2.4-3.2 4.4 4.9-3.1 8.9-5.6 13-8.1.4.5.7.9 1.1 1.4-26.2 16.8-49.8 36.3-65.9 63.4zM374.1 356.9c14.1-3.6 20 4.3 24.9 13.6 4.2 8 8.1 16.3 12.1 24.5-.5.3-1 .7-1.4 1-11.6-12.9-23.3-25.7-35.6-39.1z"/><path class="st0" d="M99.8 324.3c-6.7 7.1-14.1 14.8-21.5 22.6-.5.5-.9 1.1-1.5 1.3-12.1 4.7-23.8 10.1-32.6 20.3 13.1-22.6 34.1-34.7 55.6-44.2zM411 362l-5.4-6.6c.3-.5.5-1 .8-1.5 6.1 3 13.2 4.9 18 9.3 11 10.3 20.7 21.8 31 32.8-.4.5-.8 1-1.3 1.5-7.1-5.7-14.4-11.2-21.4-17-7.4-6.1-14.6-12.5-22-18.7l.3.2zM357.2 458.3c-14.7-3.6-29.6-6.4-44-10.9-9.3-3-14.8-11.2-14.9-19.4 17.4 15.6 38.2 22.5 59.8 27.4-.3 1-.6 1.9-.9 2.9zM427.7 185.8c-2.7-.3-5.4-.4-8.1-.9-7-1.3-13.6-2.3-21 .5-5.3 2-12.1.4-18.8.4 8.9-12.2 38-12.7 47.9 0zM175.1 477.2c1.8 7.6 3.8 15.2 5.3 22.9 1.5 7.8 2.4 15.7 11.6 19.5-13.3 6.8-24.8-10.3-27.2-26.6 4 7.2 8.1 14.6 12.2 21.9.6-.2 1.2-.4 1.8-.7-5.9-11.8-7.7-24-3.7-37zM450.3 317.3c-6.7-5.2-13.5-10.3-20.1-15.6-2.2-1.8-4-4.3-5.9-6.4.6-.8 1.1-1.6 1.7-2.4 3.5 1.8 7.5 3 10.4 5.5 13.7 11.3 27.3 22.9 40.6 34.6 2.1 1.8 2.9 5.1 4.3 7.7l-.2.1c-10.2-7.8-20.5-15.6-30.8-23.5zM139.6 132.9c18.6 2.2 39.7 16.9 39.4 27.1 1.2-2.1 2-3.4 3.1-5.4 4.5 5.1 8.5 9.7 12.6 14.3-.4.5-.8 1-1.2 1.4-18-12.5-35.9-24.9-53.9-37.4zM398.2 237.9c6.2.7 12.5.8 18.5 2.3 3.1.8 5.5 4.1 8.4 5.9 2.6 1.5 5.5 2.9 8.4 3.6 9 2.3 15.2 8.1 20.4 14.2-18.4-7.8-37.4-16-56.4-24.1.2-.6.5-1.2.7-1.9zM155.5 403.4c4.7-15.1 9.3-30.4 14.2-45.6 2.3-7 8.4-2.7 13.7-4.5-9.8 17.6-19 34.1-27.9 50.1zM383.8 250.8c8.9 1.4 17.8 2.7 26.6 4.4 1.8.3 3.5 2 4.8 3.4 4.9 4.9 9.6 10 13.6 16.3-15.4-7.7-30.7-15.3-46.1-23l1.1-1.1zM357.5 356.1c15.8 9.1 22.4 23.4 23.9 40.7-8.5-13.3-18.4-25.7-23.9-40.7zM85.9 378c-8 23.7-17.1 35.9-37.1 50.7 12.4-16.9 24.7-33.8 37.1-50.7zM88.2 202.9c5.5 1.5 10.9 3 16.4 4.6-.1.2-.1.4-.2.7H84.2c0-.5-.1-1-.1-1.5 1.4-.4 2.8-.7 3.3-.9-7.1-2.5-14.8-5.2-22.8-8.1 15.9-1.8 38.9 2.4 50 9.8-8.7-1.9-17.5-3.8-26.2-5.7 0 .4-.1.8-.2 1.1zM312.7 303.6c-2.3-.7-4.4-.7-5.4-1.8-3.3-3.6-6-7.7-9.1-11.5-2.2-2.7-5.1-5-6.7-8.1-1.2-2.2-2.3-6.4-1.1-7.8 2-2.5 6-3.7 8.5.3 2.2 3.6 4 7.5 5.8 11.3 2.5 5.4 4.9 10.8 8 17.6zM300.7 373.3c4.8 2.3 9.2 2.9 10.7 5.3 4.9 7.9 8.9 16.5 13.2 24.8-.6.5-1.2.9-1.8 1.4-7.4-7.3-14.9-14.5-21.9-22.2-1.3-1.5-.2-5.2-.2-9.3zM234.9 388.7c-11.6 16.3-8.8 35.7-11.5 53.9h-2.2c-.2-13.1-1.7-26.4 0-39.3.8-5.7 8-10.6 12.3-15.8.4.3.9.8 1.4 1.2zM414.2 172.3c11.6-6.5 36.5-2.1 45.5 8.2-15.2-2.8-30.4-5.5-45.5-8.2zM222.2 272.4c-1.7-22.5 4.2-28.8 26-27.8-5.2 4-10.8 7.2-15.1 11.8-4.3 4.6-7.2 10.5-10.9 16zM326.7 305.2c-1.2-1.1-2.9-1.9-3.7-3.3-3.7-6.4-7.4-12.9-10.3-19.6-.9-2 1-5.2 1.7-7.9 2.2 1.2 5.8 1.9 6.4 3.6 2.9 8.6 5 17.4 7.3 26.1-.5.4-1 .7-1.4 1.1zM204.8 467.2c11.9 10.3 22 19.1 32.2 28-.6.9-1.3 1.7-1.9 2.6l-19.5-13.2c-3.3-2.2-7.4-3.8-9.6-6.7-1.6-2.2-.8-6.2-1.2-10.7zM278.6 372c-4.8 8.1-9.6 16.3-14.2 24.1 2.1-12.2 4.4-25.1 6.6-37.9h2.4c1.7 4.6 3.5 9.2 5.2 13.8zM144.6 471.2c5.7 13 4.5 25.3-.1 39-4.4-6.7-5.2-13-4.1-19.5 1.1-6.5 2.7-12.7 4.2-19.5zM207 386.6c.4 3.1.5 4.7.9 7.9 3.9-5.2 7-9.4 10.1-13.5.4.3.8.5 1.1.8-7.7 12.5-15.3 25-23.6 38.6-.2-13 4.2-23.1 11.5-33.8zM358.9 420.2c-13.6-7.5-22.2-18.4-27.9-32.2 3-2.9 6.5-4.7 7.7.3 2.8 11.9 11.2 19.7 18.8 28.3.4.5.9 1 1.2 1.6.1.3.1.8.2 2zM348.1 301.4c3.6 3.8 7.3 7.7 10.9 11.5-.2.2-.3.4-.5.6-6.2-3.9-12.3-7.7-19.3-12.1 2.4-3.1 4.7-6.1 7.7-10.1 7.2 9 13.6 16.9 20 24.8-.6.5-1.1 1.1-1.7 1.6-5.6-5.5-11.3-11-16.9-16.6 0 0-.1.2-.2.3zM361 119.3c-8.3 6.4-16.7 12.8-24.9 19.4-1.7 1.4-2.7 3.5-4.2 5.4-4.9-6.2-5.3-8.2-.1-11.3 9.8-5.9 20.1-10.9 30.1-16.2-.3.8-.6 1.7-.9 2.7zM158.7 110.7c14.2 13.4 28.4 26.8 42.6 40.1-9.5-1.4-30.9-21.6-42.6-40.1zM526.5 355.3c-5.6-2.6-12.6-3.8-16.4-8-3.8-4.1-4.4-11.2-5.5-17.8 7.7 8.1 15.3 16.2 23 24.3-.4.5-.7 1-1.1 1.5zM307.4 153.1c-8.4 8.9-16.6 17.7-24.8 26.4-3.1-11.2 7.8-22 24.8-26.4zM324.6 422.8c-11.5-7.6-18.5-18.4-22.4-31.5 6.8 11 20.7 16.9 22.4 31.5zM433.6 223.7c-8.8-4.6-17.7-9.2-27.1-14.1 1.9-1.3 3.3-2.2 4.8-3.2-2.5-1.4-4.9-2.8-7.4-4.2 13.4 2.3 22.3 10.9 29.7 21.5zM95.2 266.6c-6.5 1.7-13 3.4-19.6 5.2-.2-.7-.3-1.3-.5-2 21.2-3.8 38.6-20.6 60.2-18-12.5 4.6-26.3 9.7-40.1 14.8zM412.7 288.2c-7.8-12.1-24.1-14.4-32.1-27.4 10.7 1 27 14.9 32.1 27.4zM356.6 273.8c-5.2-3.4-10.5-6.8-15.5-10.5-1-.8-1.8-3.8-1.2-4.4 1.3-1.3 3.9-2.9 5.3-2.5 6.7 2.3 13.3 5.2 19.6 8.8-5.1-.4-10.3-.7-17.2-1.2 4.1 3.7 6.9 6.2 9.6 8.7-.1.5-.3.8-.6 1.1zM182.4 147.7c9.6 8.7 19 16.1 27 24.9 3.7 4.1 4.5 10.9 5.9 16.7-10.8-13.6-21.5-27.2-32.9-41.6zM285.7 60.9c-4.6 18.2-9.1 36.3-13.7 54.5-.8-.2-1.7-.5-2.5-.7 1-19.1 10.5-35.8 16.2-53.8zM154.1 348.4c-2.1 3.7-3.9 7.6-6.3 11.1-5.8 8.3-12 16.3-18 24.4-1 1.3-1.9 2.7-3.5 5.1 2.4-10.2 19.7-37.4 25.8-41.4.7.2 1.4.5 2 .8z"/><path class="st0" d="M410.8 361.8c6.3 5.9 12.5 11.8 18.8 17.7-16.7-2.8-24.2-16.6-34.1-27.6 5.2 3.4 10.4 6.8 15.5 10.1l-.2-.2zM380.4 308.3c-6.8-7.6-13.7-15.3-20.5-22.9-.4.3-.9.7-1.3 1 2.1 2.6 4.1 5.2 6.4 8.2-14.6-6-15.1-6.5-11.4-11.8-1.6-1.9-3.2-3.9-4.8-5.9l1.3-1.3c11.6 9.4 22.9 19 30.3 32.7zM142.6 410.8c-2.2 20.1-4.4 39.2-5.8 52.6 0-10.3-.3-26.4.3-42.4 0-3.4 3.4-6.5 5.5-10.2zM84.1 263.5c-10.8 3-21.5 6-33.6 9.4 3.2-8.1 18.8-12.4 33.6-9.4zM228.9 73.4l12 49.5c-.7.2-1.3.3-2 .5-8-15.4-7.1-33-12.1-49.1.6-.3 1.3-.6 2.1-.9zM277.3 341.6c-2.3.8-3.9 2-5 1.6-6.8-1.8-13.5-3.8-20.1-6.3-2-.7-3.5-3.1-5.2-4.7 2.4-.7 5.2-2.5 7.1-1.9 6.9 2.4 13.6 5.6 20.3 8.6.7.4 1.2 1.2 2.9 2.7zM59 301.9c18.2-12.3 35.8-26.2 59.8-25.2C96 278.6 78 291.5 59 301.9zM206.1 199.3c-11.7-9.3-23.4-18.5-36.6-29 16.9 5.6 27.3 16.6 37.8 27.4-.4.6-.8 1.1-1.2 1.6zM216.6 266c3 8.3 5.5 15.2 8 22-.3.2-.7.3-1 .5-2-4.4-3.9-8.7-5.8-13.1-5.5 17.6-11.2 21.3-23.2 13.9 6-1.1 13.6 3.3 16.6-4.8 2-5.5 3.4-11.4 5.4-18.5zM289.7 367c10.3 5.8 1.4 14.5 6.5 21.3 3.6 4.8.7 14.5.7 21.9h-2.3c-1.6-13.8-3.2-27.7-4.9-43.2zM466.5 193.2l-9.3-5.1c.2-.3.3-.7.5-1 11.4 4.3 22.7 8.6 34.1 12.9-.1.3-.2.7-.2 1-14.4-2.9-28.8-5.7-43.2-8.6.2-1 .4-1.9.6-2.9 5.7 1.6 11.4 3.2 17.2 4.7.1-.3.2-.7.3-1zM265.1 139.3c2.2-19.9 17-32.3 25.1-48.3.5.3 1 .6 1.6.8-8.8 15.7-17.6 31.4-26.7 47.5zM79.6 238.9c13.4-.6 25-11 39.2-5.5-12.5 5.3-26 4.6-39.2 5.5zM233.5 144.8c-5.6-13.1-6-27.6-8.4-41.6l12.6 40.2c-1.4.5-2.8 1-4.2 1.4zM243.1 146.5c1.4 14.6 2.9 30.1 4.4 45.6-.6.2-1.1.4-1.7.6-.9-.7-2.5-1.4-2.5-2.2-.2-15-.2-29.9-.2-44zM306.9 171.2c4.7-11.1 13.9-15.3 30.1-13.5-10.3 4.7-20.4 9.2-30.1 13.5zM144.4 433.7c-1.3 8.1-2.5 15.3-3.6 22.5 1.8-15.4-2.1-31.9 7.4-46.2-.5 9.8-1 19.2-1.4 28.6h-1.1c-.4-1.4-.8-2.8-1.3-4.9zM66.9 386.5c7.3-12.6 13.2-26.3 27-34.1-8.6 11.8-17.2 23.5-25.7 35.3-.5-.4-.9-.8-1.3-1.2zM112.8 396.1l-24.9 43.5c5.9-15.8 13.1-30.9 22.5-44.9.8.5 1.6.9 2.4 1.4zM235.8 380.1c-5.9 6.5-11.7 13-17.5 19.5-.5-.3-1.1-.6-1.6-.9 3.6-6.9 6.8-14.1 11-20.6.8-1.3 5.3-.2 8.1-.2v2.2zM283.8 381.4c2.3 8.5 4.7 17 7 25.5-.7.3-1.4.6-2 1-3.7-6.9-7.8-13.7-10.9-20.8-.5-1.2 2.5-4.1 3.9-6.2.7.2 1.3.3 2 .5zM112.8 341c-8.2 9.8-16.6 19.9-25.1 30 1.9-11.9 16-27.4 25.1-30zM155.2 368.7c.8-9.5 1.6-19 2.4-28.6.7 0 1.5.1 2.2.1.1 1.7.3 3.5.4 6 2.2-4 3.9-7.1 5.6-10.3.4.2.9.4 1.3.6-3.7 10.6-7.5 21.2-11.2 31.8-.2.2-.5.3-.7.4zM87.2 173.9c15.7-.3 27.4 4.6 37.6 14-11.9-4.4-23.9-8.8-37.6-14zM274.4 164.5c-3.4 10.1-6.4 19.4-9.9 29.8-7.3-14.4 3.2-20.9 9.9-29.8zM202.8 85.3c3.5 13.3 18.1 20.9 18.2 35.9-.6.3-1.1.6-1.7.9-6.2-11.9-12.4-23.8-18.6-35.8.7-.3 1.4-.7 2.1-1zM351.9 345.7c-9.8-1.3-18.2-7.7-15.5-20.7 5.5 7.5 10.2 13.7 15.5 20.7zM213.2 156.3c-10-12.3-8.9-28.5-15.6-42 .7-.2 1.3-.5 2-.7l15.3 42c-.5.2-1.1.5-1.7.7zM220.2 161.4c9.5 9.1 10.9 20.4 9 32.7l-9-32.7zM213.6 394.8c.5 17.5-2.3 19-14.3 23.8 5-8.3 9.4-15.6 14.3-23.8zM282 299.9c4.3-4.9 7.2-3.8 10.4.6 2.2 3 5.6 5.1 8 8 .9 1.1.6 3.2.9 4.9-1.5-.4-3.2-.5-4.4-1.3-5-3.9-9.8-8-14.9-12.2zM149.9 212.5c-13.2-4.5-26.4-9-39.5-13.5.2-.7.5-1.4.7-2.1 13.3 4.2 26.5 8.5 39.8 12.7-.3 1-.6 1.9-1 2.9zM253.8 69.8v34.7c-7.6-11.7-3.4-23.3-2.2-34.7h2.2zM153 220.8c-15.5-1.5-31.1-3.1-46.6-4.6.1-.7.1-1.3.2-2 15.6 1.3 31.1 2.6 46.7 3.9l-.3 2.7zM115.9 478.5c-1.7-10.4 6.5-16.1 11.4-23.4 3 5.1-1.3 14-11.4 23.4zM241.4 258.3c3.8-8.4 18.2-11.3 27.5-4.5-9.3 1.5-18.8 3.1-27.5 4.5zM256.3 148.9c1.4-12.1 2.7-24.2 4.1-36.3 0 12.2 4.2 24.9-4.1 36.3zM445.9 321.7c2 2 3.7 4.3 6 5.8 6.2 3.9 12.6 7.4 18.1 12.4-14.2-7.3-28.5-14.5-42.9-21.8 3.5.4 7.1.9 10.7 1.3 2.3 2.6 4.3 5.5 8.1 2.3zM128.9 416.4l11.4-23.7c.6-1.3 1-2.8 1.5-4.1 1.9-2.6 3.8-5.2 5.7-7.9.4.2.8.4 1.3.5-.1.8-.1 1.8-.5 2.5-5 9.8-10.1 19.5-15.3 29.2-.8 1.6-2.7 2.4-4.1 3.5zM79.3 247.7l-4.5-2.7c0-.3 0-.7.1-1 11.3.9 22.6 1.9 33.9 2.8.1.5.2 1 .3 1.4-4 .5-8.1 1-12.1 1.5-6-.6-11.9-1.3-17.7-2zM259.2 242.1c7.1-8.5 11.2-17.2 1.2-28.3 7.2 1.5 8.9 5.2 9.5 9.4 1.2 8.5-2.7 15.7-10.7 18.9zM387.2 153.3c-14.4-2.1-28.7-4.2-44.2-6.5 16.2-2.9 30.2 1.9 44.2 6.5zM305.5 203.9c2.4-1.5 4.8-3.1 7.3-4.6-.1-.2-.1-.4-.2-.6-3.1.8-6.2 1.6-9.2 2.4l-.6-2.1c10-2.8 20-5.7 30-8.5.1.4.3.8.4 1.2-9 4.4-17.9 8.8-26.9 13.2-.3-.4-.5-.7-.8-1zM452.2 199.2c-15.2-4.2-30.8-8.5-47-13.1 17.5.1 32.9 5.4 47 13.1zM60.7 305.5c8.6-7.6 17.3-5.8 27-4.8-8.4 6.7-17.2 4.8-27 4.8zM277.5 513.4H308c0 .6 0 1.2-.1 1.8-9.6 1.5-19.2 4-30.4-1.8zM335.1 234.3h29.8c-10.1.2-20.2 7-30.3 2.2.2-.7.4-1.5.5-2.2zM450.3 317.3c10.3 7.8 20.6 15.6 31 23.5.1.4.1.8.1 1.2-10.2-7.4-20.4-14.8-30.5-22.2-.5-.4-.4-1.6-.6-2.5zM245.1 101.5c3.4 9.9 9.7 18.9 8.3 30.2-5.8-9.1-5.6-20.1-8.3-30.2zM409.2 503.7c3.2-2.1 5.9-5.4 8.3-5.2 6.5.5 5.4 6.3 6.5 12.9-5.4-2.8-9.2-4.8-14.8-7.7zM158.3 133.2c-13.3-3.5-15-16.2-20.5-26.1 6.8 8.7 13.7 17.4 20.5 26.1zM465.1 178.9c12.9 6.3 25.8 12.6 38.8 18.9l-.9 1.8-39-18.6c.3-.7.7-1.4 1.1-2.1zM361 119.3l.9-2.7c7.1-3.7 14.3-7.5 21.4-11.2.3.5.5 1 .8 1.5-9.9 6.7-19.8 13.3-29.7 20-.3-.3-.7-.6-1-1 2.5-2.3 5.1-4.5 7.6-6.6zM42.3 288.8c9.5-.7 19-1.3 28.8-2-3.2 6.6-14.9 7.2-28.8 2zM255.6 357.1c-1.5-.9-3.5-1.5-4.5-2.8-2.9-3.6-5.6-7.5-8.1-11.3-.7-1.1-.8-2.7-1.1-4 1.5.1 3.9-.5 4.5.3 3.8 5.2 7.3 10.7 10.9 16.1-.7.6-1.2 1.2-1.7 1.7zM172.9 181.1c-8.4-7.5-16.9-15-25.3-22.6.5-.6 1.1-1.3 1.6-1.9l25.5 22.5c-.5.7-1.2 1.3-1.8 2zM244.1 395.6c1.4-11.3 4-14.8 14.7-17.4-5.1 7.1-9.1 12.8-13.2 18.5-.5-.3-1-.7-1.5-1.1zM392 346.2c-9.2-3.8-22.3-.7-26.3-14 8.8 4.6 17.5 9.3 26.3 14zM148.8 226.8c12.3-1 24.7-4.3 37.9 2-13.6-.8-25.8-1.4-37.9-2zM135.5 238.6c3.9-1 7.8-2.6 11.8-2.8 8.3-.3 16.6.2 24.9.4 0 .7-.1 1.5-.1 2.2h-36.8l.2.2zM355.3 210c12.3-6.1 22.4 1 33.1 3.6-10.8-1.2-21.6-2.3-33.1-3.6zM239.1 279c-2-13.6 12-22.4 26.8-17.6-14.8-3.9-20.8 6.4-26.8 17.6zM318.6 134c-6.3 5.6-12.5 11.2-18.8 16.8-.5-.6-1.1-1.2-1.6-1.9 4.8-7.4 10.9-13.1 20.4-14.9zM171 247.5c7.4-.6 14.8-1.3 22.2-1.6 1.8-.1 3.7 1.4 5.5 2.2-1.7.8-3.5 2.5-5.2 2.4-7.5-.6-15.1-1.7-22.6-2.6.1-.1.1-.3.1-.4zM325.9 119.3c6.1-13.4 21.4-30.1 28.3-32.5-8.5 9.7-18.2 20.9-28.3 32.5zM95.2 266.6c13.1-3.9 26.1-7.8 39.2-11.8l.9 3.3c-13.4 2.9-26.7 5.7-40.1 8.5zM419.1 308.9c-3.9-2.9-7.8-5.9-11.7-8.8.1-.2.1-.5.2-.7 8.3 3.9 16.8 7.5 24.9 11.8 5.1 2.7 9.7 6.3 14.5 9.5-4.2-2.1-8.2-4.4-12.5-6.2-5-2.2-10.2-3.8-15.4-5.6zM265.9 147.7c5.4-8.9 10.7-17.9 16.1-26.8.7.4 1.3.8 2 1.2-5.2 9.1-10.4 18.2-15.6 27.4-.8-.7-1.6-1.3-2.5-1.8z"/><path class="st0" d="M79.3 247.7c5.9.7 11.8 1.4 17.6 2.1 1.2 2.3 1.9 5.1-1.9 4.3-8-1.6-15.8-4-23.4-7.5 2.5.4 5.1.8 7.7 1.1zM313 180.3c-5.7 3.7-11.4 7.4-17.9 11.5-.2-2.9-.3-4.8-.4-7 6-2.1 11.9-4.1 17.7-6.1.1.6.4 1.1.6 1.6zM477 242.6c-10.7-4.8-20.7-9.3-31.3-14 5.9-1.7 23.1 6.1 31.3 14zM151.2 326.4c-8.7 7.3-17.4 14.7-26.1 22-.5-.5-.9-1.1-1.4-1.6 8.6-7.4 17.2-14.9 25.9-22.3.5.6 1.1 1.2 1.6 1.9zM320.3 360c-4.4-5.4-5.3-10.8-1.7-12.6 1.1-.5 3.5 0 4.3.9 2.5 2.7.8 9.6-2.6 11.7z"/><path d="M419.1 308.9c5.1 1.8 10.4 3.4 15.4 5.5 4.3 1.8 8.3 4.1 12.5 6.2-.4.3-.8.7-1.1 1-3.8 3.2-5.8.3-8-2.3-6.2-3.4-12.5-6.9-18.8-10.4z"/><path class="st0" d="M272.2 326.2c-5.6-1.1-11.2-2.1-16.7-3.5-.5-.1-1-2.8-.5-3.3.9-.9 2.8-1.7 3.9-1.3 4.7 1.7 9.3 3.9 14 5.9-.2.7-.5 1.4-.7 2.2zM210 384.7c1.4-7.5 2.5-13.6 3.6-20.1 6.8 4 6 8.2-3.6 20.1zM398.1 497.6c.8-.7 1.6-1.5 3-2.7-6.9 1.3-13.3 2.5-19.6 3.7-.1-.8-.3-1.6-.4-2.4l26.7-4.2c.2.8.5 1.7.7 2.5-3.2 1.4-6.4 2.8-9.6 4.3-.3-.4-.5-.8-.8-1.2zM261 500.3c10 1.4 20.2 2.9 30.5 4.3-11.2 3-20.2 1.7-30.5-4.3zM312.5 330.1c3.9 3.4 7.4 6.6 10.9 9.7-.3.5-.5 1-.8 1.5-4.9-1.5-9.8-3-15.9-4.8 2.4-2.7 3.8-4.3 5.8-6.4zM377.5 273.3c4.7 6.5 9.4 13 14.2 19.5-.5.4-1.1.8-1.6 1.3-5.2-6.1-10.3-12.2-15.5-18.2.9-.9 1.9-1.8 2.9-2.6zM73.7 218.2c8.9.7 15.9 1.3 23.1 1.8-5.1 5-11.3 4.7-23.1-1.8zM486.6 316.7c3.6 8.4 7.3 16.8 10.9 25.2-.9.4-1.7.8-2.6 1.2-3.3-8.5-6.5-17.1-9.8-25.6.5-.2 1-.5 1.5-.8zM198.4 266.5c-7.8.4-15.9.9-24.2 1.4 3.3-5.1 15.9-5.7 24.2-1.4zM489 196.8c-9.9-4.2-19.9-8.4-29.8-12.5.3-.7.6-1.5 1-2.2 9.9 4.4 19.7 8.7 29.6 13.1-.3.4-.6 1-.8 1.6zM63.3 226.3c6.6 1.3 13.1 2.5 19.7 3.8-8.1 6.9-13.3-1.4-19.9-2.1.1-.6.2-1.1.2-1.7zM239.4 203c-5.1-7.3-1.3-14.7 0-22v22zM184.9 442.5c7.6 3.7 10.3 8.7 5.8 16.9-2.1-6.3-3.9-11.6-5.8-16.9zM143.6 345.1c5.9-6.2 11.9-12.4 17.8-18.6l2.3 2.3c-6.3 5.8-12.6 11.7-18.9 17.5l-1.2-1.2zM292.9 343.9c1.7 5.6 3.1 10.2 4.6 14.8l-1.2.9c-2.3-2.9-4.7-5.9-7.6-9.4.8-1 2.2-3.2 4.2-6.3zM315.3 461c5.3 2.4 9.2 4.3 13.7 6.3-1.6.6-2.6.9-3.7 1.3 2.6 1.8 5 3.4 7.8 5.3-7.7 0-10-1.7-17.8-12.9zM220.4 179.8c2.3 8 4.5 15.9 6.8 23.9-.8.2-1.5.4-2.3.7-2.3-7.9-4.6-15.9-6.9-23.8.9-.4 1.7-.6 2.4-.8zM352.7 326.7c5.2 7.6 10.5 15.2 15.7 22.8-.6.4-1.1.8-1.7 1.2-5.3-7.5-10.6-15-15.8-22.4.6-.6 1.2-1.1 1.8-1.6zM344.2 364.3c-5.3-6.4-11.4-12.3-13.4-20.5.7-.4 1.4-.8 2.1-1.1 3.7 7.1 7.5 14.4 11.3 21.6zM141.9 401.6c3.7-7.7 7.4-15.3 11-23 .8.4 1.5.7 2.3 1.1-3.8 7.6-7.6 15.2-11.4 22.7-.6-.2-1.2-.5-1.9-.8zM389.8 310.1c-4.3-6.9-8.5-13.7-12.8-20.6 9.1 4 10.2 12.8 12.8 20.6zM395.9 191.2c-11.8 6-13.2 5.9-17.5-.6 3 0 5.8-.1 8.6 0 2.7.1 5.4.4 8.9.6zM228.4 138.6c2.5 6.3 4.9 12.6 7.4 19-.8.3-1.5.6-2.3.9-2.4-6.3-4.9-12.6-7.3-19 .7-.3 1.4-.6 2.2-.9zM254.4 185.3c-3.2-7.6 2.7-13 5.4-19.1-1.1 6.5-2.1 13.1-3.2 19.6-.8-.1-1.5-.3-2.2-.5zM431.5 205.6c7.9 2.9 15.7 5.7 23.6 8.6-.2.6-.4 1.1-.6 1.7-8-2.4-16.1-4.9-24.1-7.3.3-1.1.7-2.1 1.1-3zM384.8 223.2c6.6 2.2 13.2 4.3 19.8 6.5l-.9 2.7c-6.6-2.3-13.1-4.5-19.7-6.8.3-.8.5-1.6.8-2.4zM364 299.6c4.2 5 8.5 10.1 12.7 15.1.1-.1.2-.3.3-.4l-14.7-13.2c.5-.4 1.1-.9 1.7-1.5zM481.4 342c0-.4 0-.8-.1-1.2l.2-.1c1.6.4 3.5.4 4.6 1.3 4.9 4.2 9.6 8.7 14.4 13.1-.4.5-.9.9-1.3 1.4-6-4.8-11.9-9.6-17.8-14.5zM176.5 255.6h19.9c0 .9 0 1.7-.1 2.6l-19.8-1.2v-1.4zM333.9 298.6c-5.1-4.7-4.7-13.6 1.2-15.8-.4 5.4-.8 10.5-1.2 15.8zM135.3 238.5c2.6.9 5.3 1.7 9.5 3.1-8.3.8-14.8 1.5-21.4 2.1-.1-.3-.2-.5-.3-.8 4.1-1.4 8.3-2.8 12.4-4.3l-.2-.1zM247.5 413c-2.2-8.9-.2-14.6 7.9-19.3-2.9 7-5.5 13.1-8 19.1 0 .1.1.2.1.2zM50.2 381.5c5.2-4.5 10.4-9.1 15.6-13.6.5.6 1 1.1 1.5 1.7-5 4.6-10.1 9.3-15.1 13.9-.7-.7-1.4-1.3-2-2zM249.8 211.4c-1.6 6.1-3.2 12.1-4.8 18.2-1.1-6.8-2.1-13.6 4.8-18.2zM254.6 469.6c4 7.3 15.8 4.6 18.4 15.5-7.2-4.9-13.5-9.3-19.8-13.7.4-.5.9-1.2 1.4-1.8zM238.3 351.2c-7.4-6.6-7.7-9.3-1.7-13.2.6 4.7 1.2 9 1.7 13.2zM334.7 319c5.6-6 5.1-3.5 12.4 10.4-4.6-3.8-8.3-7-12.4-10.4zM248.2 128.3c1.1 7.4 2.1 14.7 3.2 22.1-.8.1-1.6.2-2.5.3-.8-7.4-1.5-14.8-2.3-22.2.6-.1 1.1-.2 1.6-.2zM109.9 332.1c5.3-3 10.6-6.1 15.9-9.1.5 1 1 1.9 1.5 2.9l-16.2 7.8c-.4-.5-.8-1.1-1.2-1.6zM74.7 322.4l16.8-1.8c.1.7.2 1.5.3 2.2-5.5.8-11.1 1.6-16.6 2.3-.1-.9-.3-1.8-.5-2.7zM369.9 262.2c-7.1-2.7-14.1-5.3-21.2-8 8.7-1.8 14.8 3.8 21.2 8zM183 234.9c-8-1.6-15.9-3.1-23.9-4.7.1-.4.1-.8.2-1.3 8.1 1.1 16.1 2.2 24.2 3.4-.2.9-.4 1.8-.5 2.6zM130.2 365.3l-13.8 14.1c-.4-.4-.9-.8-1.3-1.2 4.4-4.9 8.7-9.8 13.1-14.7.7.6 1.3 1.2 2 1.8zM346.9 222.6c7.8-2.4 15.7-4.7 23.5-7.1.1.4.3.8.4 1.3-7.8 2.7-15.5 5.3-23.3 8-.1-.8-.4-1.5-.6-2.2zM150.1 241.3h20.2c0 .8-.1 1.6-.1 2.4-6.8-.5-13.5-.9-20.3-1.4.1-.3.1-.7.2-1zM299.5 347c3.8 0 7.1-.5 7.3.1 1 3.1 1.3 6.5 1.8 9.7-.6.2-1.3.4-1.9.6-2-2.8-4-5.6-7.2-10.4zM315.6 230.1c5.1-2.2 10.3-4.5 15.4-6.7.3.5.5 1 .8 1.5l-14.4 8.1c-.6-.9-1.2-1.9-1.8-2.9zM139.8 137.1c5.8 4.5 11.5 9 17.3 13.5-.4.6-.9 1.1-1.3 1.7-5.8-4.6-11.6-9.1-17.4-13.7.5-.5 1-1 1.4-1.5zM142.7 324.9c-6 3.1-11.9 6.2-17.9 9.3-.4-.7-.7-1.4-1.1-2.1 6-3.1 12-6.1 17.9-9.2.4.7.7 1.4 1.1 2zM394.7 313c5.3 3.2 10.5 6.4 15.8 9.6-.3.5-.6 1-.9 1.4-5.5-2.9-10.9-5.8-16.4-8.7.5-.7 1-1.5 1.5-2.3zM133.9 144.2c4.7 2.7 9.5 5.5 14.2 8.2-.4.8-.8 1.5-1.3 2.3-5.9-.6-8.8-6.8-13.9-8.9.3-.4.6-1 1-1.6zM126.9 306.6c7.2-3.2 14.4-6.5 21.7-9.7l.9 2.1c-7.3 3.1-14.6 6.2-21.9 9.2-.2-.5-.5-1.1-.7-1.6zM364.8 491.5c-8.5 1.1-15.9 4.5-22.8-1.5 7.3.5 14.4 1 22.8 1.5zM340.1 61.2c-5.4 3.3-10.8 6.5-17.1 10.4 4.1-8.7 8.9-11.3 17.1-10.2v-.2zM79.2 183.1c6.3 1.6 12.5 3.3 18.8 4.9l-.6 2.1c-6.3-1.6-12.5-3.3-18.8-4.9.3-.6.5-1.3.6-2.1zM124.6 196.9l21.3 3.3c-.1.8-.3 1.7-.4 2.5-7-1.4-14.1-2.9-21.1-4.3 0-.6.1-1.1.2-1.5zM306.4 218.4c7-1.4 14.1-2.8 21.1-4.2.1.5.2 1.1.4 1.6-7 1.4-14.1 2.8-21.1 4.3-.1-.5-.2-1.1-.4-1.7zM238.4 220.8v16.9c-.4 0-.9 0-1.3.1v-16.9c.4-.1.9-.1 1.3-.1zM327.3 322.9c.4 2.9.8 5.8 1.6 10.8-3.6-2.5-5.6-3.9-7.9-5.5 1.8-2.2 3.1-3.8 4.4-5.5.6 0 1.2.1 1.9.2zM437.5 462.5c5 2.7 10 5.3 15 8-.2.5-.4.9-.7 1.4-5.2-2.2-10.5-4.4-15.7-6.6.5-1 .9-1.9 1.4-2.8zM369.9 108c-6.7 3.7-13.4 7.3-20.1 11-.2-.5-.5-.9-.7-1.4 6.7-3.6 13.3-7.1 20-10.7.2.4.5.8.8 1.1zM349 316.1c4.5 5.2 9.1 10.4 13.6 15.6-.5.5-1 1-1.5 1.4-2.1-2.6-4.2-5.2-6.4-7.7-2.3-2.7-4.8-5.2-7.2-7.9.6-.3 1.1-.9 1.5-1.4zM36.8 332c5.2-.8 10.4-1.6 16-2.4-3.3 4.9-13.8 6.2-15.8 2.2l-.2.2zM216.6 200.9c-5.6-5.1-11.1-10.2-16.7-15.3l1.7-1.7c5.1 5.6 10.2 11.3 15.3 16.9-.1.1-.2.1-.3.1zM282.5 361.6c-1.9-2.6-3.9-5.2-6.1-8.3 8-1.9 8.4 2.1 6.1 8.3zM468.5 397.7c-3.6-4.6-7.2-9.3-10.9-13.9 7.3 1.9 9.2 8 10.9 13.9zM128 165.8c-5.5-2.7-10.9-5.4-16.4-8.2.3-.6.6-1.2.9-1.9 5.6 2.8 11.2 5.5 16.7 8.3-.3.7-.8 1.2-1.2 1.8zM251.3 488.9c6.5 3 11.4 5.3 16.3 7.7-5.4-1.5-12.3.7-16.3-7.7zM52.1 310.8H65v1.9H52.1v-1.9z"/></svg>