<?xml version="1.0" encoding="utf-8"?>
<!-- Generator: Adobe Illustrator 22.1.0, SVG Export Plug-In . SVG Version: 6.00 Build 0)  -->
<svg version="1.1" id="Laag_1" xmlns="http://www.w3.org/2000/svg" xmlns:xlink="http://www.w3.org/1999/xlink" x="0px" y="0px"
	 viewBox="0 0 566.9 566.9" style="enable-background:new 0 0 566.9 566.9;" xml:space="preserve">
<style type="text/css">
	.st0{fill:#FFFFFF;}
</style>
<g>
	<path class="st0" d="M1.4,31.2c188.9,0,377.8,0,566.8,0c0,168.9,0,337.9,0,507c-188.8,0-377.8,0-566.8,0
		C1.4,369.3,1.4,200.3,1.4,31.2z M338,67.7c1.6-1,3.1-2.1,4.7-3.1c6.2-1.8,12.4-3.5,18.3-5.2c-20.2-6.7-38.5,1.5-57.5,11.9
		c3-6.2,5.3-10.7,7.5-15.2c0.3-1.1,0.6-2.1,1-3.2c-0.4-0.3-0.9-0.7-1.3-1c-4.5,3.9-9,7.8-13.5,11.7c-3.1,2.1-6.2,4.2-10.6,7.1
		c1.8-7.8,3.3-14.5,4.9-21.1c-0.7-0.3-1.5-0.6-2.2-0.8c-8.3,8.4-8.6,21.4-16.4,31.7c-1.4-10.5-2.7-19.9-4-29.3c-0.6,0-1.2,0-1.8,0.1
		c0,17.2,2.5,34.5-0.5,51.5c-0.7,0-1.5-0.1-2.2-0.1c0.6-12.8,1.2-25.7,1.8-38.5c-0.2,0-0.4,0.1-0.6,0.1c-1.9,7.8-3.8,15.7-5.6,23.5
		c-0.7-0.2-1.3-0.3-2-0.5c-0.7-12.7-1.5-25.4-2.2-38c-0.5-0.1-1-0.3-1.5-0.4c-3.1,8.9-6.3,17.8-9.9,27.9c-3-4.4-5.2-7.4-7.2-10.4
		c-1,3.6-2,6.9-2.9,10.3c-0.9-0.1-1.8-0.2-2.7-0.2c-2.2-8.5-4.3-16.9-6.5-25.4c-0.4,0-0.8,0.1-1.3,0.1c-1.1,8.5-2.2,17-3.3,25.5
		c-1,0-2.1,0.1-3.1,0.1c-2.2-6-4.3-12.1-6.5-18.1c-0.5,0-0.9,0-1.4,0c0,9.8,0,19.5,0,29.3c-0.6,0.1-1.2,0.2-1.8,0.4
		c-8.5-11.8-17.1-23.5-25.6-35.3c-0.6,0.4-1.3,0.8-1.9,1.2C192.5,68,194.9,85.7,201,102c-0.6,0.3-1.1,0.5-1.7,0.8
		c-4.2-7.7-8.4-15.3-12.6-23c-0.2,0.1-0.5,0.2-0.7,0.3c2.4,10.5,4.8,21.1,6.9,30.2c-2.5,1-3.6,1.2-3.8,1.7c-0.6,1.2-0.8,2.6-1.7,5.5
		c-7.2-16.5-13.8-31.5-20.2-46.1c0.4,9.8,0.9,20.2,1.3,30.6c-0.7,0.3-1.5,0.6-2.2,0.9c-6.7-7.1-13.3-14.1-20-21.2
		c-0.2,0.2-0.4,0.4-0.6,0.6c2.4,5.9,4.8,11.8,7.2,17.7c-0.6,0.4-1.2,0.8-1.7,1.1c-4-3.1-7.9-6.2-13.1-10.2
		c10.1,13.5,19.2,25.5,28,37.7c1.3,1.8,1.6,4.4,2.4,6.6c-0.8,0.5-1.6,0.9-2.4,1.4c-13.8-16.5-27.6-33-41.4-49.5
		c-0.3,0.2-0.6,0.5-0.9,0.7c5.2,11.4,10.4,22.7,15.6,34.1c-0.5,0.4-1.1,0.8-1.6,1.2c-8.6-7.8-17.3-15.6-25.9-23.5
		c-0.2,0.2-0.4,0.3-0.7,0.5c7.2,13,14.3,26,22.3,40.5c-13-8.8-24.4-16.5-35.8-24.2c-0.3,0.3-0.5,0.6-0.8,0.9
		c5.5,7.3,11,14.6,16.4,22c-0.3,0.4-0.7,0.9-1,1.3c-4.2-1.6-8.3-3.2-13.8-5.4c7.8,6.6,14.5,12.4,21.6,18.4
		c-12.9,1.2-20.1-8.2-29.7-14c4.1,9.2,12.5,16,9.1,27.1c-9.6-4.6-18.8-9-28.6-13.7c4.4,6,8.3,11.3,12.9,17.5c-7.8,0-14,0-21.5,0
		c8.8,3.3,16.3,6.1,23.8,8.9c-0.3,0.9-0.5,1.7-0.8,2.6c-7.5-0.5-15-1.1-22.4-1.6c0,0.3-0.1,0.7-0.1,1c9.6,3.9,19.2,7.9,28.8,11.8
		c-0.2,0.6-0.5,1.3-0.7,1.9c-18.3-0.4-36.8-4.1-54.9,2.7c18.1,0.9,33.9,8.4,50.1,14.7c-0.1,0.6-0.2,1.3-0.4,1.9
		c-8,1.1-16.1,2.2-25.5,3.4c7.1,2.5,12.5,4.4,17.9,6.3c-0.1,0.6-0.2,1.3-0.3,1.9c-10.9,0-21.9,0-34.7,0c10,4,17.9,7.2,25.9,10.4
		c-10.3,3.2-19.5,6.1-28.7,9c7.7,2,15.3,2,22.6,3.4c7.3,1.4,14.2,4.2,21.4,6.4c-0.1,0.7-0.3,1.5-0.4,2.2c-16.1,5.4-32.2-1.9-49.7-1
		c4.8,2.9,8.5,5.1,13,7.8c-3.8,2.9-6.9,5.3-10.1,7.8c8.4,4.2,20-1.7,26.4,9.5c-11.9,2-23,3.9-35.7,6.1c11.5,3,21.2,5.5,31.8,8.3
		c-5.5,6.3-8.5,11.4-17,10.2c-6.4-0.9-13.4,2.5-20.1,4c4.5,1.5,9.5,0.9,12.7,3c7.3,4.8,14.9,3.8,22.7,3.9c2.6,0,5.2,0.2,8.4,0.4
		c-1.4,6.8-6.4,8-11,9.4c-6.1,1.9-12.2,3.4-18.4,5.1l0.2-0.2c-5.2,2-10.4,3.9-15.5,5.9c0.1,0.4,0.3,0.7,0.4,1.1
		c8.4-0.8,16.7-1.6,25.9-2.5c-1.6,2.2-2.5,3.7-3.7,5.3c6.8-1.7,13-3.2,19.2-4.7c0.2,0.6,0.4,1.3,0.6,1.9c-4.9,6.6-11,11.4-19.2,14.3
		c-8.4,2.9-16.2,7.3-24.2,11c0.3,0.4,0.5,0.9,0.8,1.3c6.4-0.8,12.8-1.6,19.2-2.4c0.4,0.7,0.8,1.3,1.1,2c-3.2,5.6-6.3,11.2-10.1,17.9
		c7.4-5.9,13.8-11,20.1-16c14.2-11.3,14.2-11.3,20.6-11.1c-14.8,18.9-36,30.2-52.6,46.7C30.1,397.6,40,392,50,386.8
		c1.7-0.9,4.1-0.3,6.1-0.4c-0.7,1.7-1,3.7-2.1,5.1c-6.7,9.4-13.5,18.7-20.2,28c5.5-4.1,9.9-9.1,14.5-13.9c1.5-1.6,4.1-4.3,5.1-3.9
		c5.8,2.4,7.1-2.7,9.5-5.3c3.8-3.9,6.9-8.4,10.4-12.6c0.2,0.2,0.3,0.3,0.5,0.5C61,404.9,48.2,425.5,35.3,446
		c0.3,0.2,0.6,0.3,0.9,0.5c11.5-10.5,23.1-20.9,34.6-31.4c0.4,0.3,0.8,0.6,1.2,0.9c-8.4,17-16.9,33.9-25.3,50.9
		c0.6,0.4,1.2,0.7,1.8,1.1c17.6-24.2,35.1-48.4,52.7-72.6c0.6,0.4,1.2,0.8,1.8,1.2c-11.5,24.2-22.9,48.4-34.4,72.6
		c0.5,0.2,0.9,0.4,1.4,0.6c9.2-11.8,18.3-23.7,27.5-35.5c0.2,0.2,0.4,0.5,0.6,0.7c-7.1,18.2-14.2,36.3-21.4,54.5
		c0.8,0.4,1.5,0.7,2.3,1.1c8.9-16,17.7-32,26.9-48.5c-4.8,20-9.5,39.2-14.2,58.4c0.7,0.2,1.5,0.4,2.2,0.6c7.3-15.7,14.6-31.3,22-47
		c-0.6,6.1-2.4,11.9-3.1,17.9c-0.8,6.2-0.8,12.6-0.8,18.9c0.1,5.6,0.8,11.2,1.2,16.8c0.9,0.1,1.8,0.1,2.6,0.2
		c0.6-14.2,3.9-27.3,13.9-37.8c3.4,17.3-0.2,36.8,16.4,49.1c2.9-6.4,5.5-12.2,8.6-19c1.6,2.4,2.2,3.9,3.3,5c6,5.9,11.3,15,18.4,16.9
		c12.9,3.5,27,2.7,40.5,3.6c-6.3-3.3-12.7-4.7-17.6-12c18.3,3.2,34.6,12.2,53.5,4.6c-11.2-1.7-22.1,2.9-31.1-4.4
		c9.4,0.4,18.6,0.6,27.7,1.3c1.9,0.1,3.7,1.8,5.4,2.9c7.8,5.3,15.6,10.7,23.4,16.1c0.6-0.6,1.2-1.2,1.9-1.8
		c-3.9-3.2-8.2-6.3-4.8-9.4c10.9-0.9,20.4,0.1,28.4-2.9c10.3-3.8,18.5,1.1,27.3,3.2c6.1,1.4,7.5,1.4,7.5-6.4
		c6.6,0.8,13.1,1.1,19.4,2.6c6.2,1.5,12.1,4.3,18.1,6.5c-2.2-3-4.8-5.1-7.2-7.6c-2.2-2.3-4-4.9-5.7-7c26.4,1.1,52.2,2.2,77.9,3.2
		c-1.8-2-4.4-1.8-5.6-3c-2.4-2.5-4-5.8-5.9-8.7c2.5-1.4,4.8-3.4,7.4-3.9c12.1-2.3,24.5-3.6,36.5-6.3c10-2.3,19.7-6.2,29.5-9.4
		c-0.2-1.1-0.4-2.1-0.7-3.2c-21.6,12.9-44.5,9.1-67.2,8.1c-0.2-11,3.2-18.4,15.2-12.7c7.3,3.5,15.9,4.5,23.8,6.6
		c0.2-0.5,0.3-1.1,0.5-1.6c-4.4-2.6-8.8-5.3-13.2-7.9c0.3-0.5,0.5-1.1,0.8-1.6c6.6,1.9,13.2,3.9,21.1,6.2
		c-7.4-5.4-13.9-9.4-19.5-14.4c-5.2-4.7-4.3-7.2,2.5-8.7c8.1-1.9,16.3-3.6,24.5-5.4c-0.1-0.3-0.2-0.5-0.3-0.8
		c-6.3-0.9-12.7-1.9-19-2.8c-0.1-0.7-0.2-1.4-0.2-2.1c10.2-8.7,20.5-17.5,30.7-26.2c-0.4-0.3-0.8-0.7-1.1-1
		c-4.6,1.9-9.3,3.8-13.9,5.6c-0.5-0.8-1.1-1.5-1.6-2.3c3.6-5,8.1-9.6,10.6-15.1c2.9-6.3,6.4-6.5,11.7-4c6.7,3.1,13.6,5.9,20.4,8.8
		c-3.3-3.8-6.7-7.5-10.8-10.3c-11.1-7.4-20.8-15.3-17.4-30.8c0.2-0.8-0.3-1.7-0.7-3.9c9.8,7.6,18.6,14.5,27.4,21.4
		c0.3-0.3,0.6-0.6,0.9-0.8c-5.2-7.6-10.4-15.2-15.5-22.8c0.4-0.7,0.9-1.5,1.3-2.2c14.1,4.4,28.1,8.8,42,13.1
		c-5.7-5.5-12.2-10.1-16.5-16.3c-10.9-15.9-21-32.4-31.1-48.8c-2.4-3.9-3.8-8.3-5.7-12.4c1-0.8,2.1-1.6,3.1-2.4
		c7.1,8.2,14.3,16.4,21.4,24.6c-9.2-21.3-22.3-39.6-38.2-55.9c23,14.6,41.3,34.2,59.3,54.1c-5.7-9.9-11.8-19.5-18.1-29
		c-6.5-9.6-13.2-19-19.8-28.4c0.5-0.8,1-1.6,1.4-2.4c14.8,3.6,29.6,7.3,44.4,10.9c-22.8-5.7-86.5-43.4-90.9-55.7
		c7.6,3.6,14.5,6.9,22.9,10.9c-2.9-3.4-4.8-5.7-6.7-7.9c0.4-0.7,0.9-1.4,1.3-2c9.5,5.1,19,10.1,28.4,15.4
		c9.2,5.2,18.3,10.8,27.4,16.3c0.3-0.4,0.5-0.8,0.8-1.1c-13-11.2-25.9-22.4-38.9-33.6c0.2-0.5,0.4-1,0.6-1.5
		c13.8,4.7,27.6,9.5,41.4,14.2c0.2-0.3,0.5-0.6,0.7-0.9c-16.8-12-33.5-23.9-49.2-35.1c7.3,1.3,16.1,2.8,24.9,4.3
		c0.2-0.5,0.3-1,0.5-1.5c-20-6.9-40-13.9-60.5-21c18.3-3.3,34.9,1.8,52,6.4c-8.6-5.1-17.1-10.2-25.7-15.3c0.2-0.5,0.4-1,0.7-1.5
		c3.4,0,6.7,0,10.1,0c0-0.2,0-0.5,0.1-0.7c-11-3.3-22.1-6.7-33.1-10c0.1-0.5,0.2-1,0.4-1.5c16.6,0,33.3,0,51.8,0
		c-7.1-1.7-12.6-4.5-17.7-4c-7.7,0.9-15,0.4-22.5-0.4c-24.7-2.5-49.4-5.4-74.1-0.8c-5.3,1-10.7,1.1-16.1,1.7
		c-0.2-0.8-0.5-1.6-0.7-2.4c1.9-1.1,3.8-3,5.7-3.1c7.8-0.4,15.6-0.5,23.4-0.3c18.3,0.5,36.5,1.2,54.8,1.7c1.2,0,2.5-0.5,5.5-1.2
		c-4.7-1.5-7.5-2.5-11.1-3.7c5-5.6,11-2.9,16.1-3.6c5.3-0.7,10.7-1.1,16.1-1.6c-31.7-7-63.4-1.2-95.2,0.4
		c14.9-10,31.8-14.1,48.7-18.1c-0.1-0.7-0.2-1.4-0.3-2.1c-20.3,1.9-40.7,3.8-61,5.7c20.9-10.8,42-21.3,66.7-21.1
		c-0.1-0.6-0.1-1.1-0.2-1.7c-23.7,1.6-47.3,3.2-71,4.8c12.9-16.4,30.7-22.1,51-24.9c-18.9-2.7-34.7,6.3-52.4,7.4
		c5.7-4.8,11.5-9.7,18-15.1c-21.3,3.5-37.7,15.8-56.1,24.3c2.8-4.6,5.6-9.2,9.3-15.3c-8.3,4.7-15,8.6-21.7,12.4
		c-0.4-0.4-0.7-0.7-1.1-1.1C331.4,77.5,334.7,72.6,338,67.7z"/>
	<path d="M36.8,332c6.1-1.7,12.3-3.3,18.4-5.1c4.6-1.4,9.6-2.6,11-9.4c-3.2-0.2-5.8-0.4-8.4-0.4c-7.8,0-15.4,0.9-22.7-3.9
		c-3.2-2.1-8.2-1.6-12.7-3c6.7-1.5,13.7-4.9,20.1-4c8.5,1.2,11.5-3.9,17-10.2c-10.6-2.8-20.3-5.3-31.8-8.3
		c12.6-2.2,23.8-4.1,35.7-6.1c-6.3-11.3-18-5.4-26.4-9.5c3.2-2.5,6.3-4.8,10.1-7.8c-4.5-2.7-8.2-4.9-13-7.8
		c17.4-0.9,33.6,6.4,49.7,1c0.1-0.7,0.3-1.5,0.4-2.2c-7.1-2.2-14.1-5-21.4-6.4c-7.3-1.4-15-1.4-22.6-3.4c9.2-2.9,18.4-5.8,28.7-9
		c-7.9-3.2-15.9-6.4-25.9-10.4c12.9,0,23.8,0,34.7,0c0.1-0.6,0.2-1.3,0.3-1.9c-5.4-1.9-10.8-3.8-17.9-6.3c9.4-1.3,17.4-2.4,25.5-3.4
		c0.1-0.6,0.2-1.3,0.4-1.9c-16.2-6.2-32-13.8-50.1-14.7c18.1-6.8,36.6-3.1,54.9-2.7c0.2-0.6,0.5-1.3,0.7-1.9
		c-9.6-3.9-19.2-7.9-28.8-11.8c0-0.3,0.1-0.7,0.1-1c7.5,0.5,15,1.1,22.4,1.6c0.3-0.9,0.5-1.7,0.8-2.6c-7.5-2.8-15-5.6-23.8-8.9
		c7.5,0,13.7,0,21.5,0c-4.6-6.2-8.5-11.5-12.9-17.5c9.8,4.7,19,9.1,28.6,13.7c3.3-11.1-5-17.9-9.1-27.1c9.6,5.8,16.8,15.2,29.7,14
		c-7.1-6.1-13.8-11.8-21.6-18.4c5.5,2.1,9.6,3.8,13.8,5.4c0.3-0.4,0.7-0.9,1-1.3c-5.5-7.3-11-14.6-16.4-22c0.3-0.3,0.5-0.6,0.8-0.9
		c11.4,7.7,22.8,15.4,35.8,24.2c-8-14.5-15.2-27.5-22.3-40.5c0.2-0.2,0.4-0.3,0.7-0.5c8.6,7.8,17.3,15.6,25.9,23.5
		c0.5-0.4,1.1-0.8,1.6-1.2c-5.2-11.4-10.4-22.7-15.6-34.1c0.3-0.2,0.6-0.5,0.9-0.7c13.8,16.5,27.6,33,41.4,49.5
		c0.8-0.5,1.6-0.9,2.4-1.4c-0.8-2.2-1.1-4.8-2.4-6.6c-8.9-12.2-17.9-24.1-28-37.7c5.2,4.1,9.2,7.2,13.1,10.2
		c0.6-0.4,1.2-0.8,1.7-1.1c-2.4-5.9-4.8-11.8-7.2-17.7c0.2-0.2,0.4-0.4,0.6-0.6c6.7,7.1,13.3,14.1,20,21.2c0.7-0.3,1.5-0.6,2.2-0.9
		c-0.5-10.4-0.9-20.7-1.3-30.6c6.4,14.6,13,29.6,20.2,46.1c0.8-2.9,1.1-4.3,1.7-5.5c0.3-0.5,1.3-0.6,3.8-1.7
		c-2.1-9.2-4.5-19.7-6.9-30.2c0.2-0.1,0.5-0.2,0.7-0.3c4.2,7.7,8.4,15.3,12.6,23c0.6-0.3,1.1-0.5,1.7-0.8
		c-6.1-16.3-8.5-34-20.9-47.7c0.6-0.4,1.3-0.8,1.9-1.2c8.5,11.8,17.1,23.5,25.6,35.3c0.6-0.1,1.2-0.2,1.8-0.4c0-9.8,0-19.5,0-29.3
		c0.5,0,0.9,0,1.4,0c2.2,6,4.3,12.1,6.5,18.1c1,0,2.1-0.1,3.1-0.1c1.1-8.5,2.2-17,3.3-25.5c0.4,0,0.8-0.1,1.3-0.1
		c2.2,8.5,4.3,16.9,6.5,25.4c0.9,0.1,1.8,0.2,2.7,0.2c1-3.3,1.9-6.7,2.9-10.3c2.1,3,4.2,6,7.2,10.4c3.6-10.1,6.7-19,9.9-27.9
		c0.5,0.1,1,0.3,1.5,0.4c0.7,12.7,1.5,25.4,2.2,38c0.7,0.2,1.3,0.3,2,0.5c1.9-7.8,3.8-15.7,5.6-23.5c0.2,0,0.4-0.1,0.6-0.1
		c-0.6,12.8-1.2,25.7-1.8,38.5c0.7,0,1.5,0.1,2.2,0.1c3-17,0.5-34.3,0.5-51.5c0.6,0,1.2,0,1.8-0.1c1.3,9.4,2.5,18.8,4,29.3
		c7.8-10.3,8-23.3,16.4-31.7c0.7,0.3,1.5,0.6,2.2,0.8c-1.5,6.7-3.1,13.3-4.9,21.1c4.4-2.9,7.5-5,10.6-7.1
		c-5.3,7.7-12.7,14.2-14.4,25.5c10.1-11.8,19.2-22.4,28.3-33c-2.2,4.5-4.4,9-7.5,15.2c19.1-10.5,37.3-18.7,57.5-11.9
		c-6,1.7-12.1,3.5-18.3,5.2c0.7-1.2,1.4-2.4,2-3.4c-1.8,0-3.2,0-4.6,0c-8.3-1.1-13,1.5-17.1,10.2c6.3-3.8,11.7-7.1,17.1-10.4
		c-0.8,1.1-1.3,2.5-2.3,3.1c-15.1,9.6-25.1,24-36.5,37.4c-9.1,10.8-8,24.7-15.7,35.4c3.9-3.7,7.2-7.6,9.9-11.9
		c9.4-14.7,18.2-29.9,28.1-44.3c3.6-5.2,9.6-8.9,14.5-13.2c-3.3,4.9-6.6,9.8-10,14.7c0.4,0.4,0.7,0.7,1.1,1.1
		c6.7-3.8,13.4-7.7,21.7-12.4c-3.7,6.1-6.5,10.7-9.3,15.3c18.4-8.5,34.8-20.8,56.1-24.3c-6.5,5.4-12.2,10.3-18,15.1
		c17.7-1.2,33.5-10.1,52.4-7.4c-20.3,2.9-38.1,8.5-51,24.9c23.7-1.6,47.3-3.2,71-4.8c0.1,0.6,0.1,1.1,0.2,1.7
		c-24.7-0.2-45.8,10.3-66.7,21.1c20.3-1.9,40.7-3.8,61-5.7c0.1,0.7,0.2,1.4,0.3,2.1c-16.9,4.1-33.7,8.1-48.7,18.1
		c31.8-1.6,63.5-7.5,95.2-0.4c-5.4,0.5-10.8,0.8-16.1,1.6c-5.1,0.7-11.1-1.9-16.1,3.6c3.6,1.2,6.5,2.1,11.1,3.7
		c-3,0.7-4.2,1.3-5.5,1.2c-18.3-0.5-36.5-1.3-54.8-1.7c-7.8-0.2-15.6-0.1-23.4,0.3c-2,0.1-3.8,2-5.7,3.1c0.2,0.8,0.5,1.6,0.7,2.4
		c5.4-0.5,10.8-0.7,16.1-1.7c24.8-4.6,49.5-1.8,74.1,0.8c7.6,0.8,14.9,1.3,22.5,0.4c5.1-0.6,10.6,2.2,17.7,4c-18.5,0-35.2,0-51.8,0
		c-0.1,0.5-0.2,1-0.4,1.5c11,3.3,22.1,6.7,33.1,10c0,0.2,0,0.5-0.1,0.7c-3.4,0-6.7,0-10.1,0c-0.2,0.5-0.4,1-0.7,1.5
		c8.6,5.1,17.1,10.2,25.7,15.3c-17.1-4.5-33.7-9.7-52-6.4c20.5,7.1,40.5,14.1,60.5,21c-0.2,0.5-0.3,1-0.5,1.5
		c-8.8-1.5-17.6-3.1-24.9-4.3c15.7,11.2,32.4,23.1,49.2,35.1c-0.2,0.3-0.5,0.6-0.7,0.9c-13.8-4.7-27.6-9.5-41.4-14.2
		c-0.2,0.5-0.4,1-0.6,1.5c13,11.2,25.9,22.4,38.9,33.6c-0.3,0.4-0.5,0.8-0.8,1.1c-9.1-5.4-18.2-11-27.4-16.3
		c-9.4-5.3-18.9-10.3-28.4-15.4c-0.4,0.7-0.9,1.4-1.3,2c1.9,2.2,3.8,4.5,6.7,7.9c-8.4-4-15.3-7.3-22.9-10.9
		c4.4,12.3,68.1,50,90.9,55.7c-14.8-3.6-29.6-7.3-44.4-10.9c-0.5,0.8-1,1.6-1.4,2.4c6.6,9.5,13.3,18.9,19.8,28.4
		c6.3,9.4,12.4,19,18.1,29c-18-20-36.2-39.6-59.3-54.1c16,16.3,29.1,34.6,38.2,55.9c-7.1-8.2-14.3-16.4-21.4-24.6
		c-1,0.8-2.1,1.6-3.1,2.4c1.9,4.2,3.3,8.6,5.7,12.4c10.2,16.4,20.2,32.9,31.1,48.8c4.3,6.2,10.9,10.8,16.5,16.3
		c-13.9-4.3-28-8.7-42-13.1c-0.4,0.7-0.9,1.5-1.3,2.2c5.2,7.6,10.4,15.2,15.5,22.8c-0.3,0.3-0.6,0.6-0.9,0.8
		c-8.8-6.9-17.6-13.7-27.4-21.4c0.4,2.2,0.8,3.1,0.7,3.9c-3.3,15.5,6.3,23.4,17.4,30.8c4.1,2.7,7.5,6.5,10.8,10.3
		c-6.8-2.9-13.6-5.7-20.4-8.8c-5.3-2.4-8.8-2.2-11.7,4c-2.5,5.5-7,10.1-10.6,15.1c0.5,0.8,1.1,1.5,1.6,2.3c4.6-1.9,9.3-3.8,13.9-5.6
		c0.4,0.3,0.8,0.7,1.1,1c-10.2,8.7-20.5,17.5-30.7,26.2c0.1,0.7,0.2,1.4,0.2,2.1c6.3,0.9,12.7,1.9,19,2.8c0.1,0.3,0.2,0.5,0.3,0.8
		c-8.2,1.8-16.3,3.5-24.5,5.4c-6.7,1.6-7.7,4-2.5,8.7c5.6,5,12.1,9,19.5,14.4c-7.9-2.3-14.5-4.3-21.1-6.2c-0.3,0.5-0.5,1.1-0.8,1.6
		c4.4,2.6,8.8,5.3,13.2,7.9c-0.2,0.5-0.3,1.1-0.5,1.6c-8-2.1-16.5-3.1-23.8-6.6c-12-5.7-15.4,1.7-15.2,12.7
		c22.7,1,45.6,4.8,67.2-8.1c0.2,1.1,0.4,2.1,0.7,3.2c-9.8,3.2-19.4,7.1-29.5,9.4c-12,2.8-24.4,4-36.5,6.3c-2.6,0.5-5,2.6-7.4,3.9
		c1.9,2.9,3.5,6.2,5.9,8.7c1.1,1.2,3.7,1,5.6,3c-25.8-1.1-51.6-2.1-77.9-3.2c1.6,2.1,3.5,4.7,5.7,7c2.3,2.4,5,4.5,7.2,7.6
		c-6-2.2-11.9-5-18.1-6.5c-6.2-1.5-12.8-1.8-19.4-2.6c0,7.8-1.4,7.8-7.5,6.4c-8.8-2.1-16.9-7-27.3-3.2c-8,3-17.5,1.9-28.4,2.9
		c-3.4,3.1,0.8,6.2,4.8,9.4c-0.6,0.6-1.2,1.2-1.9,1.8c-7.8-5.4-15.5-10.8-23.4-16.1c-1.7-1.2-3.5-2.8-5.4-2.9
		c-9.1-0.7-18.3-0.9-27.7-1.3c9,7.3,19.8,2.7,31.1,4.4c-19,7.6-35.3-1.4-53.5-4.6c4.8,7.3,11.3,8.7,17.6,12
		c-13.6-1-27.6-0.2-40.5-3.6c-7.1-1.9-12.4-11-18.4-16.9c-1.1-1-1.7-2.5-3.3-5c-3.1,6.8-5.7,12.6-8.6,19
		c-16.6-12.3-13-31.7-16.4-49.1c-10,10.5-13.3,23.6-13.9,37.8c-0.9-0.1-1.8-0.1-2.6-0.2c-0.4-5.6-1.1-11.2-1.2-16.8
		c-0.1-6.3,0-12.7,0.8-18.9c0.7-6,2.5-11.8,3.1-17.9c-7.3,15.7-14.6,31.3-22,47c-0.7-0.2-1.5-0.4-2.2-0.6
		c4.7-19.2,9.3-38.4,14.2-58.4c-9.2,16.5-18.1,32.5-26.9,48.5c-0.8-0.4-1.5-0.7-2.3-1.1c7.1-18.2,14.2-36.3,21.4-54.5
		c-0.2-0.2-0.4-0.5-0.6-0.7C88.3,446.3,79.1,458.1,70,470c-0.5-0.2-0.9-0.4-1.4-0.6c11.5-24.2,22.9-48.4,34.4-72.6
		c-0.6-0.4-1.2-0.8-1.8-1.2c-17.6,24.2-35.1,48.4-52.7,72.6c-0.6-0.4-1.2-0.7-1.8-1.1c8.4-17,16.9-33.9,25.3-50.9
		c-0.4-0.3-0.8-0.6-1.2-0.9c-11.5,10.5-23.1,20.9-34.6,31.4c-0.3-0.2-0.6-0.3-0.9-0.5c12.9-20.6,25.7-41.1,38.6-61.7
		c-0.2-0.2-0.3-0.3-0.5-0.5c-3.4,4.2-6.6,8.7-10.4,12.6c-2.5,2.5-3.8,7.7-9.5,5.3c-1-0.4-3.6,2.3-5.1,3.9c-4.6,4.8-9,9.8-14.5,13.9
		c6.8-9.3,13.6-18.6,20.2-28c1-1.5,1.4-3.4,2.1-5.1c-2.1,0.1-4.5-0.4-6.1,0.4c-10,5.2-19.9,10.8-30.3,15.7
		c16.6-16.5,37.8-27.8,52.6-46.7c-6.4-0.2-6.4-0.2-20.6,11.1c-6.3,5-12.7,10.1-20.1,16c3.8-6.7,7-12.3,10.1-17.9
		c-0.4-0.7-0.8-1.3-1.1-2c-6.4,0.8-12.8,1.6-19.2,2.4c-0.3-0.4-0.5-0.9-0.8-1.3c8-3.7,15.9-8.2,24.2-11c8.2-2.8,14.2-7.6,19.2-14.3
		c-0.2-0.6-0.4-1.3-0.6-1.9c-6.2,1.5-12.5,3.1-19.2,4.7c1.2-1.7,2.2-3.1,3.7-5.3c-9.2,0.9-17.6,1.7-25.9,2.5
		c-0.1-0.4-0.3-0.7-0.4-1.1c5.2-2,10.4-3.9,15.5-5.9c2,4,12.5,2.7,15.8-2.2C47.2,330.4,42,331.2,36.8,332z M447,320.7
		c-4.8-3.2-9.4-6.8-14.5-9.5c-8.1-4.3-16.6-7.9-24.9-11.8c-0.1,0.2-0.1,0.5-0.2,0.7c3.9,2.9,7.8,5.9,11.7,8.8
		c6.3,3.5,12.5,7,18.8,10.5c-3.6-0.5-7.2-0.9-10.7-1.3c14.4,7.3,28.6,14.6,42.9,21.8c-5.6-5-12-8.5-18.1-12.4
		c-2.3-1.5-4-3.8-6.1-5.8C446.3,321.3,446.7,321,447,320.7z M135.3,238.5c12.3,0,24.5,0,36.8,0c0-0.7,0.1-1.5,0.1-2.2
		c-8.3-0.2-16.6-0.7-24.9-0.4c-4,0.1-7.9,1.8-11.8,2.8c-4.1,1.4-8.3,2.8-12.4,4.3c0.1,0.3,0.2,0.5,0.3,0.8
		c6.5-0.6,13.1-1.3,21.4-2.1C140.6,240.2,137.9,239.3,135.3,238.5z M481.4,342c5.9,4.8,11.9,9.7,17.8,14.5c0.4-0.5,0.9-0.9,1.3-1.4
		c-4.8-4.4-9.5-8.9-14.4-13.1c-1.1-0.9-3.1-0.9-4.6-1.3c-1.4-2.6-2.2-5.9-4.3-7.7c-13.4-11.7-26.9-23.3-40.6-34.6
		c-3-2.4-6.9-3.7-10.4-5.5c-0.6,0.8-1.1,1.6-1.7,2.4c2,2.2,3.7,4.6,5.9,6.4c6.6,5.3,13.4,10.4,20.1,15.6c0.2,0.8,0.1,2.1,0.6,2.4
		C461,327.3,471.2,334.6,481.4,342z M96.9,249.8c4-0.5,8.1-1,12.1-1.5c-0.1-0.5-0.2-1-0.3-1.4c-11.3-0.9-22.6-1.9-33.9-2.8
		c0,0.3,0,0.7-0.1,1c1.5,0.9,3,1.8,4.5,2.7c-2.6-0.4-5.1-0.7-7.7-1.1c7.6,3.4,15.4,5.8,23.4,7.5C98.8,254.9,98.1,252.1,96.9,249.8z
		 M95.3,266.6c13.3-2.8,26.6-5.6,39.9-8.4c-0.3-1.1-0.6-2.2-0.9-3.3c-13.1,3.9-26.1,7.8-39.2,11.8c13.8-5.1,27.6-10.2,40.2-14.9
		c-21.6-2.6-39,14.2-60.2,18c0.2,0.7,0.3,1.3,0.5,2C82.2,270.1,88.7,268.3,95.3,266.6z M361,119.3c-2.5,2.2-5.1,4.4-7.6,6.5
		c0.3,0.3,0.7,0.6,1,1c9.9-6.7,19.8-13.3,29.7-20c-0.3-0.5-0.5-1-0.8-1.5c-7.1,3.7-14.3,7.5-21.4,11.2
		c-10.1,5.4-20.4,10.3-30.1,16.2c-5.1,3.1-4.8,5.1,0.1,11.3c1.4-1.9,2.5-4,4.2-5.4C344.3,132.1,352.7,125.7,361,119.3z M410.8,361.8
		c7.3,6.2,14.5,12.6,22,18.7c7,5.8,14.3,11.4,21.4,17c0.4-0.5,0.8-1,1.3-1.5c-10.3-11-20-22.6-31-32.8c-4.7-4.4-11.9-6.3-18-9.3
		c-0.3,0.5-0.5,1-0.8,1.5c1.8,2.2,3.6,4.4,5.4,6.6c-5.2-3.4-10.4-6.8-15.5-10.1c9.9,11,17.4,24.8,34.1,27.6
		C423.3,373.6,417.1,367.7,410.8,361.8z M141.8,388.6c0.2-1.5,0.5-2.9,0.7-4.4c-0.8-0.4-1.6-0.8-2.4-1.3c-2.7,3.3-5.7,6.3-7.9,9.9
		c-2.3,3.8-3.7,8.2-5.6,12.3c-4.4,9.2-9.4,18.1-13,27.5c-4.2,10.9-7.1,22.3-10.5,33.5c-1.5,4.9-2.8,9.8-4.2,14.8
		c2.8-3.1,4.4-6.6,5.8-10.1c6.3-15.6,12.5-31.3,19-46.9c1.1-2.8,3.4-5.1,5.2-7.6c1.4-1.1,3.3-2,4.1-3.4c5.2-9.7,10.3-19.4,15.3-29.2
		c0.4-0.7,0.3-1.7,0.5-2.5c-0.4-0.2-0.8-0.4-1.3-0.5C145.6,383.4,143.7,386,141.8,388.6z M247.5,413c-0.9,0.8-2.1,1.5-2.6,2.5
		c-3.5,8.5-6.9,17.1-10.6,26.2c-1.6-1.4-2.6-2.4-4.1-3.7c-2.5,11.2-4.4,21.8,2.1,32.2c-0.6,0.1-1.1,0.2-1.7,0.4
		c-2.8-5.1-5.6-10.3-9.2-16.9c0.9,16.5,25.2,53,38,58.4c-0.9-1.5-1.6-2.6-2.3-3.7c-9.2-14.4-17.8-29.7-17.2-47
		c0.6-16.2,4.8-32.4,7.3-48.6c2.5-6,5.1-12.1,8-19.1C247.3,398.4,245.3,404,247.5,413z M432.7,260.1c16.3,13.7,34.5,27.9,51.5,43.4
		c16.8,15.4,32.4,32.2,48.4,48.2c-7-10.9-14.4-22.1-21.2-33.6c-12.8-21.4-27.3-41.3-44.8-59.1c-10.9-11-24.7-16.5-38.9-21.3
		c21.8,14.5,36.9,29.4,40.2,39.2C456.3,271.4,443.7,265.4,432.7,260.1z M351.3,508.3c-11.3-12.2-25-26.5-38.2-41.3
		c-9-10.1-19-20-25.1-31.7c-7.4-14.1-11.1-30-16.5-45.3c-5.5,7.5-6.4,15.7-4.4,25.1c6.5,29.5,25.3,50.4,47.9,68.4
		C327.4,493.2,341,501.3,351.3,508.3z M466.4,370.8c-19.8-24.3-33.8-39.5-60.4-40.2c15.5,8.6,31,17.2,46.5,25.7
		c-8.4-2.8-15.8-7.5-23.7-11.1c-7.6-3.5-15.8-5.8-23.7-8.6c-0.4,1-0.8,2.1-1.2,3.1C424.7,350,445.5,360.4,466.4,370.8z M62,440.1
		c0.4,0.2,0.8,0.4,1.2,0.7c1.4-1.6,3-3.1,4.2-4.9c15.1-22.7,29.4-45.9,47.8-66.3c2.9-3.2,4.3-7.6,6.3-11.5c-0.8-0.5-1.6-1-2.4-1.5
		c-7.8,10-15.5,20.1-23.3,30.1c-0.5-0.3-1-0.7-1.5-1c8.3-13.7,16.6-27.4,24.1-39.8c-7.5,4.4-13.2,12.8-18.1,21.8
		c-11.6,21.6-23.2,43.3-34.7,65C64.3,435.1,63.2,437.6,62,440.1z M319.2,513.5c-17.1-20.8-34.4-41.8-52.7-64.2
		c3.8,11.4,6.6,21.8,10.8,31.6c2.1,4.8,5.9,9.6,10.2,12.7C297.7,500.8,308.6,507,319.2,513.5z M193.3,494.2c0.8,0.2,1.7,0.4,2.5,0.5
		c0.8-2.9,1.6-5.9,2.4-8.8c4-14.5,6.7-29.6,12.6-43.4c4.3-9.9,3.1-19.6,3.9-29.8c-4.9,5.8-10.8,11.7-12.1,18.4
		C198.5,452,196.2,473.2,193.3,494.2z M329.6,420.4c0.5,2.7,0.8,4.1,1.1,5.4c0.3,1.4,0.6,2.8,0.9,4.1c-1.6,0.3-3.7,1.3-4.8,0.6
		c-5-2.8-10.8-5.2-14.3-9.4c-4.6-5.6-7.3-12.7-11.8-20.8c1.4,6.2,2.5,10.8,3.6,15.6c-1.2-0.1-2-0.2-3.2-0.4
		c4.4,10.8,11,18.3,23.3,18.6c2,0.1,4.1,0.6,5.9,1.3c10.6,4.3,21.2,8.7,31.8,13.1c5.1,2.1,10.3,4.1,15.4,6.1c0.1-0.3,0.3-0.7,0.4-1
		C362.3,442.9,346.5,432.1,329.6,420.4z M183.4,390.2c0.6,0.1,1.2,0.2,1.9,0.3c-1.1,10.2-2.3,20.4-3.1,27.9
		c4.4-15.6,9.5-33.8,14.3-51c-2.6,1-6.2,2.3-11.7,4.3c4.4-6.8,7.6-11.7,10.8-16.6c-0.5-0.5-1.1-1-1.6-1.4c-2.7,2.1-6.5,3.6-7.8,6.3
		c-2.2,4.5-3.2,9.8-4.1,14.9c-1.9,11.1-3.4,22.3-4.9,33.5c-0.6,4.7-0.5,9.5-0.7,14.2c0.7,0.1,1.4,0.1,2,0.2
		C180.2,411.8,181.8,401,183.4,390.2z M436.6,213.5c-0.3,0.7-0.6,1.3-0.8,2c3.8,0.9,7.7,1.8,11.5,2.8c3.8,1,7.5,2.2,11.2,3.3
		c-0.2,0.4-0.4,0.9-0.5,1.3c-4.8-1.2-9.6-2.5-14.5-3.7c9.7,5.2,20.1,9.1,28.2,15.6c14.3,11.5,27.2,24.6,40.6,37.1
		c2.1,1.9,3.7,4.3,5.6,6.5c-5.9-9.7-13.1-18.3-20.1-27.1C481.9,231.5,462.8,216.8,436.6,213.5z M153.4,487.5
		c5.4-11.1,10.7-21.9,15.9-32.8c0.9-1.8,1.6-3.8,1.7-5.8c0.1-6.5-0.5-13-0.2-19.5c0.3-6.4,1.4-12.8,2.3-20.2
		C160.6,434.5,157.8,461.1,153.4,487.5z M57.5,329.9c0.3,0.2,0.6,0.3,0.9,0.5c16.4-8.7,32.8-17.4,49.1-26.2
		c8.6-4.7,17.1-9.7,25.5-14.5c-4.5,0.3-9.3,0.2-13.9,0.9c-4.3,0.7-9.2,1.4-12.7,3.8C89.9,305.9,73.8,318,57.5,329.9z M341.6,385.5
		c2.6,20.2,40.9,51,64.2,51.7C381,423.3,360.4,406.8,341.6,385.5z M65.3,378c16.1-27.1,39.7-46.6,65.8-63.4
		c-0.4-0.5-0.7-0.9-1.1-1.4c-4,2.5-8,5-13,8.1c1.5-2,2.3-3.2,3.2-4.4C92,328.4,77.2,351.9,65.3,378z M374.1,356.9
		c12.3,13.5,23.9,26.3,35.6,39.1c0.5-0.3,1-0.7,1.4-1c-4-8.2-7.9-16.4-12.1-24.5C394.2,361.2,388.2,353.3,374.1,356.9z M99.8,324.3
		c-21.5,9.5-42.5,21.6-55.5,44.2c8.7-10.3,20.4-15.7,32.6-20.3c0.6-0.2,1-0.9,1.5-1.3C85.7,339.1,93,331.4,99.8,324.3z M357.2,458.3
		c0.3-1,0.6-1.9,0.9-2.9c-21.6-5-42.3-11.8-59.8-27.4c0.2,8.1,5.6,16.4,14.9,19.4C327.6,451.9,342.5,454.7,357.2,458.3z
		 M427.7,185.8c-9.9-12.7-39-12.2-47.9,0c6.7,0,13.5,1.6,18.8-0.4c7.4-2.8,14-1.8,21-0.5C422.2,185.4,425,185.5,427.7,185.8z
		 M175.1,477.2c-4,13-2.1,25.2,3.7,37c-0.6,0.2-1.2,0.4-1.8,0.7c-4.1-7.3-8.1-14.6-12.2-21.9c2.3,16.3,13.9,33.4,27.2,26.6
		c-9.2-3.7-10.1-11.7-11.6-19.5C178.8,492.4,176.8,484.8,175.1,477.2z M139.6,132.9c18,12.5,35.9,24.9,53.9,37.4
		c0.4-0.5,0.8-1,1.2-1.4c-4-4.6-8.1-9.2-12.6-14.3c-1.2,2-1.9,3.3-3.1,5.4C179.4,149.9,158.3,135.1,139.6,132.9z M398.2,237.9
		c-0.2,0.6-0.4,1.3-0.6,1.9c19,8.1,38,16.2,56.4,24.1c-5.1-6.1-11.4-11.9-20.4-14.2c-2.9-0.7-5.8-2.1-8.4-3.6
		c-3-1.8-5.3-5.1-8.4-5.9C410.7,238.8,404.4,238.6,398.2,237.9z M155.5,403.4c8.9-16,18.1-32.5,27.9-50.1
		c-5.3,1.7-11.4-2.6-13.7,4.5C164.8,373,160.2,388.3,155.5,403.4z M383.8,250.8c-0.3,0.4-0.7,0.7-1,1.1c15.4,7.7,30.7,15.3,46.1,23
		c-4-6.2-8.7-11.3-13.6-16.3c-1.4-1.4-3.1-3.1-4.8-3.4C401.6,253.5,392.7,252.2,383.8,250.8z M357.5,356.1
		c5.5,15,15.4,27.4,23.9,40.7C379.9,379.5,373.3,365.2,357.5,356.1z M85.9,378c-12.4,16.9-24.8,33.8-37.1,50.7
		C68.8,413.9,77.9,401.7,85.9,378z M88.2,202.9c0.1-0.4,0.2-0.7,0.2-1.1c8.7,1.9,17.5,3.8,26.2,5.7c-11.2-7.4-34.1-11.6-50-9.8
		c8,2.8,15.8,5.6,22.8,8.1c-0.5,0.1-1.9,0.5-3.3,0.9c0,0.5,0.1,1,0.1,1.5c6.7,0,13.5,0,20.2,0c0.1-0.2,0.1-0.4,0.2-0.7
		C99.1,206,93.7,204.4,88.2,202.9z M312.7,303.6c-3.1-6.8-5.5-12.2-8.1-17.6c-1.8-3.8-3.5-7.7-5.8-11.3c-2.5-3.9-6.5-2.7-8.5-0.3
		c-1.1,1.4-0.1,5.5,1.1,7.8c1.7,3,4.5,5.3,6.7,8.1c3.1,3.8,5.8,7.9,9.1,11.5C308.3,302.9,310.5,302.9,312.7,303.6z M300.7,373.3
		c0,4.1-1.1,7.8,0.2,9.2c7,7.7,14.5,14.9,21.9,22.2c0.6-0.5,1.2-0.9,1.8-1.4c-4.3-8.3-8.2-16.9-13.2-24.8
		C309.9,376.2,305.5,375.6,300.7,373.3z M234.9,388.7c-0.5-0.4-1-0.8-1.5-1.2c-4.3,5.2-11.6,10.1-12.3,15.8
		c-1.7,12.9-0.2,26.2,0,39.3c0.7,0,1.5,0,2.2,0C226.1,424.4,223.3,405,234.9,388.7z M414.2,172.3c15.2,2.7,30.3,5.4,45.5,8.2
		C450.7,170.1,425.8,165.8,414.2,172.3z M222.2,272.4c3.7-5.5,6.6-11.4,10.9-16c4.2-4.5,9.8-7.8,15.1-11.8
		C226.4,243.6,220.5,249.9,222.2,272.4z M326.7,305.2c0.5-0.4,1-0.7,1.5-1.1c-2.4-8.7-4.4-17.6-7.3-26.1c-0.6-1.7-4.2-2.4-6.4-3.6
		c-0.6,2.6-2.5,5.8-1.7,7.9c2.9,6.8,6.7,13.2,10.3,19.6C323.8,303.3,325.4,304.1,326.7,305.2z M204.8,467.2
		c0.4,4.5-0.5,8.5,1.1,10.6c2.3,3,6.4,4.5,9.6,6.7c6.5,4.4,13,8.8,19.5,13.2c0.6-0.9,1.3-1.7,1.9-2.6
		C226.9,486.4,216.7,477.5,204.8,467.2z M278.6,372c-1.7-4.6-3.5-9.2-5.3-13.9c-0.8,0-1.6,0-2.4,0c-2.2,12.8-4.5,25.7-6.6,37.9
		C269,388.3,273.8,380.1,278.6,372z M144.6,471.2c-1.5,6.8-3.1,13.1-4.2,19.5c-1.1,6.5-0.4,12.8,4.1,19.5
		C149.1,496.5,150.3,484.1,144.6,471.2z M207,386.6c-7.3,10.7-11.7,20.8-11.5,33.7c8.3-13.5,16-26.1,23.6-38.6
		c-0.4-0.3-0.8-0.5-1.1-0.8c-3.1,4.1-6.2,8.3-10.1,13.5C207.5,391.3,207.3,389.6,207,386.6z M358.9,420.2c-0.1-1.2,0-1.7-0.2-2
		c-0.3-0.6-0.8-1.1-1.2-1.6c-7.6-8.5-15.9-16.4-18.8-28.3c-1.2-5-4.7-3.2-7.7-0.3C336.7,401.8,345.3,412.7,358.9,420.2z
		 M348.1,301.4c0.1-0.1,0.2-0.2,0.3-0.3c5.6,5.5,11.3,11,16.9,16.6c0.6-0.5,1.1-1.1,1.7-1.6c-6.4-7.9-12.8-15.8-20-24.8
		c-3.1,4-5.4,7-7.7,10.1c7,4.4,13.1,8.2,19.3,12.1c0.2-0.2,0.3-0.4,0.5-0.6C355.4,309,351.8,305.2,348.1,301.4z M158.7,110.7
		c11.7,18.6,33,38.8,42.6,40.1C187.1,137.4,172.9,124.1,158.7,110.7z M526.5,355.3c0.4-0.5,0.7-1,1.1-1.5
		c-7.7-8.1-15.3-16.2-23-24.3c1.1,6.6,1.7,13.7,5.5,17.8C513.9,351.5,520.9,352.8,526.5,355.3z M307.4,153.1
		c-17,4.4-27.9,15.2-24.8,26.4C290.7,170.8,298.9,162.1,307.4,153.1z M324.6,422.8c-1.7-14.6-15.6-20.4-22.4-31.5
		C306.1,404.4,313.1,415.2,324.6,422.8z M433.6,223.7c-7.4-10.6-16.3-19.2-29.7-21.5c2.4,1.4,4.9,2.8,7.4,4.2
		c-1.5,1-2.9,1.9-4.8,3.2C415.9,214.6,424.8,219.1,433.6,223.7z M412.7,288.2c-5.1-12.6-21.4-26.5-32.1-27.4
		C388.6,273.9,404.9,276.2,412.7,288.2z M356.6,273.8c0.2-0.3,0.4-0.6,0.6-1c-2.8-2.5-5.5-5-9.6-8.7c6.9,0.5,12,0.8,17.2,1.2
		c-6.3-3.7-12.8-6.6-19.6-8.8c-1.4-0.5-4,1.1-5.3,2.5c-0.6,0.6,0.2,3.6,1.2,4.4C346.2,267,351.5,270.4,356.6,273.8z M182.4,147.7
		c11.3,14.4,22.1,28,32.8,41.6c-1.4-5.8-2.1-12.6-5.9-16.7C201.5,163.8,192,156.4,182.4,147.7z M285.7,60.9
		c-5.6,18-15.2,34.7-16.2,53.8c0.8,0.2,1.7,0.5,2.5,0.7C276.6,97.3,281.1,79.1,285.7,60.9z M154.1,348.4c-0.7-0.3-1.3-0.6-2-0.9
		c-6.2,4-23.5,31.3-25.8,41.4c1.6-2.3,2.5-3.7,3.5-5.1c6-8.1,12.1-16.2,18-24.4C150.3,356,152.1,352.1,154.1,348.4z M380.4,308.3
		c-7.3-13.7-18.7-23.3-30.2-32.7c-0.4,0.4-0.9,0.9-1.3,1.3c1.6,2,3.2,3.9,4.8,5.9c-3.7,5.3-3.2,5.8,11.4,11.8
		c-2.3-2.9-4.4-5.5-6.4-8.2c0.4-0.3,0.9-0.7,1.3-1C366.7,293,373.5,300.7,380.4,308.3z M142.6,410.8c-2.1,3.6-5.5,6.8-5.6,10.1
		c-0.6,16.1-0.3,32.2-0.3,42.4C138.2,450.1,140.4,430.9,142.6,410.8z M84.1,263.5c-14.8-2.9-30.4,1.3-33.6,9.4
		C62.6,269.5,73.4,266.5,84.1,263.5z M228.9,73.4c-0.7,0.3-1.4,0.6-2.2,0.9c5.1,16.1,4.1,33.7,12.1,49.1c0.7-0.2,1.3-0.3,2-0.5
		C236.8,106.4,232.8,89.9,228.9,73.4z M277.3,341.6c-1.7-1.5-2.2-2.3-2.9-2.6c-6.7-3-13.4-6.2-20.3-8.6c-1.9-0.7-4.7,1.2-7.1,1.9
		c1.7,1.6,3.2,3.9,5.2,4.7c6.6,2.4,13.3,4.4,20.1,6.3C273.4,343.6,275,342.4,277.3,341.6z M59,301.9c19.1-10.4,37.1-23.3,59.8-25.2
		C94.7,275.7,77.2,289.6,59,301.9z M206.1,199.3c0.4-0.5,0.8-1,1.2-1.6c-10.5-10.8-20.9-21.8-37.8-27.4
		C182.8,180.8,194.4,190.1,206.1,199.3z M216.6,266c-2,7.1-3.4,13-5.5,18.6c-3.1,8.1-10.6,3.6-16.6,4.8c12,7.4,17.7,3.7,23.2-13.9
		c1.9,4.3,3.9,8.7,5.8,13.1c0.3-0.2,0.7-0.3,1-0.5C222.1,281.1,219.6,274.3,216.6,266z M289.7,367c1.8,15.5,3.3,29.4,4.9,43.3
		c0.8,0,1.5,0,2.3,0c0-7.5,2.9-17.1-0.7-21.9C291.1,381.5,299.9,372.8,289.7,367z M466.5,193.2c-0.1,0.3-0.2,0.6-0.3,0.9
		c-5.7-1.6-11.4-3.2-17.2-4.7c-0.2,1-0.4,1.9-0.6,2.9c14.4,2.9,28.8,5.7,43.2,8.6c0.1-0.3,0.2-0.7,0.2-1
		c-11.4-4.3-22.7-8.6-34.1-12.9c-0.2,0.3-0.3,0.7-0.5,1C460.4,189.8,463.5,191.5,466.5,193.2z M265.1,139.3
		c9.1-16.2,17.9-31.8,26.6-47.5c-0.5-0.3-1-0.6-1.6-0.8C282.1,107,267.3,119.4,265.1,139.3z M79.6,238.9c13.1-0.9,26.7-0.1,39.2-5.5
		C104.7,227.9,93,238.3,79.6,238.9z M233.5,144.8c1.4-0.4,2.8-0.9,4.2-1.3c-4.2-13.4-8.4-26.8-12.6-40.2
		C227.5,117.2,227.9,131.7,233.5,144.8z M243.1,146.5c0,14.1,0,29,0.1,44c0,0.7,1.7,1.4,2.5,2.2c0.6-0.2,1.1-0.4,1.7-0.6
		C246,176.6,244.5,161.1,243.1,146.5z M306.9,171.2c9.7-4.4,19.8-8.9,30.1-13.5C320.8,155.9,311.6,160.1,306.9,171.2z M144.4,433.7
		c0.5,2.1,0.8,3.5,1.2,4.9c0.4,0,0.7,0,1.1,0c0.5-9.4,1-18.8,1.4-28.6c-9.5,14.3-5.6,30.7-7.4,46.2
		C141.9,449,143.1,441.8,144.4,433.7z M66.9,386.5c0.4,0.4,0.8,0.8,1.3,1.2c8.6-11.8,17.2-23.5,25.7-35.3
		C80.1,360.2,74.2,373.9,66.9,386.5z M112.8,396.1c-0.8-0.5-1.6-0.9-2.4-1.4c-9.4,13.9-16.6,29-22.5,44.9
		C96.2,425.1,104.5,410.6,112.8,396.1z M235.8,380.1c0-0.7-0.1-1.5-0.1-2.2c-2.8,0-7.3-1.1-8.1,0.2c-4.2,6.6-7.4,13.7-11,20.6
		c0.5,0.3,1.1,0.6,1.6,0.9C224.1,393.1,230,386.6,235.8,380.1z M283.8,381.4c-0.7-0.2-1.4-0.3-2-0.5c-1.4,2.1-4.5,4.9-3.9,6.2
		c3.2,7.2,7.2,13.9,10.9,20.8c0.7-0.3,1.4-0.6,2-1C288.5,398.4,286.1,389.9,283.8,381.4z M112.8,341c-9.1,2.6-23.1,18.1-25.1,30
		C96.1,360.9,104.6,350.9,112.8,341z M155.2,368.7c0.3-0.1,0.6-0.2,0.8-0.3c3.7-10.6,7.5-21.2,11.2-31.8c-0.4-0.2-0.9-0.4-1.3-0.6
		c-1.7,3.1-3.4,6.3-5.6,10.3c-0.2-2.6-0.3-4.3-0.4-6c-0.7,0-1.5-0.1-2.2-0.1C156.8,349.7,156,359.2,155.2,368.7z M87.2,173.9
		c13.7,5.1,25.6,9.5,37.6,14C114.6,178.6,103,173.6,87.2,173.9z M274.4,164.5c-6.7,8.9-17.2,15.3-9.9,29.8
		C268,183.9,271,174.7,274.4,164.5z M202.8,85.3c-0.7,0.4-1.4,0.7-2.2,1.1c6.2,11.9,12.4,23.8,18.6,35.8c0.6-0.3,1.1-0.6,1.7-0.9
		C221,106.1,206.3,98.6,202.8,85.3z M351.9,345.7c-5.2-7-9.9-13.2-15.5-20.7C333.6,337.9,342.1,344.4,351.9,345.7z M213.2,156.3
		c0.6-0.2,1.1-0.4,1.7-0.7c-5.1-14-10.2-28-15.3-42c-0.7,0.2-1.3,0.5-2,0.7C204.4,127.8,203.3,144,213.2,156.3z M220.2,161.4
		c3,10.9,6,21.8,9,32.7C231.2,181.8,229.8,170.5,220.2,161.4z M213.6,394.8c-4.9,8.1-9.3,15.5-14.3,23.8
		C211.3,413.8,214.1,412.3,213.6,394.8z M282,299.9c5.2,4.2,10,8.3,14.9,12.1c1.1,0.9,2.9,0.9,4.4,1.3c-0.3-1.6,0-3.8-0.9-4.9
		c-2.4-2.9-5.8-5-8-8C289.2,296.1,286.2,295,282,299.9z M149.9,212.5c0.3-1,0.6-1.9,1-2.9c-13.3-4.2-26.5-8.5-39.8-12.7
		c-0.2,0.7-0.5,1.4-0.7,2.1C123.6,203.5,136.8,208,149.9,212.5z M253.8,69.8c-0.7,0-1.5,0-2.2,0c-1.3,11.5-5.4,23.1,2.2,34.7
		C253.8,92.5,253.8,81.1,253.8,69.8z M153,220.8c0.1-0.9,0.2-1.8,0.3-2.7c-15.6-1.3-31.1-2.6-46.7-3.9c-0.1,0.7-0.1,1.3-0.2,2
		C121.9,217.7,137.4,219.3,153,220.8z M115.9,478.5c10-9.5,14.4-18.3,11.4-23.4C122.4,462.5,114.2,468.2,115.9,478.5z M241.4,258.3
		c8.7-1.4,18.2-3,27.5-4.5C259.6,247,245.2,249.9,241.4,258.3z M256.3,148.9c8.3-11.4,4.2-24.1,4.1-36.3
		C259,124.6,257.6,136.7,256.3,148.9z M259.2,242.1c8-3.2,11.9-10.4,10.6-19c-0.6-4.2-2.3-7.8-9.5-9.4
		C270.4,224.9,266.3,233.6,259.2,242.1z M387.2,153.3c-14-4.6-28-9.4-44.2-6.5C358.4,149.1,372.8,151.2,387.2,153.3z M305.5,203.9
		c0.3,0.3,0.5,0.7,0.8,1c9-4.4,17.9-8.8,26.9-13.2c-0.1-0.4-0.3-0.8-0.4-1.2c-10,2.8-20,5.7-30,8.5c0.2,0.7,0.4,1.4,0.6,2.1
		c3.1-0.8,6.2-1.6,9.2-2.4c0.1,0.2,0.1,0.4,0.2,0.6C310.4,200.8,308,202.3,305.5,203.9z M452.2,199.2c-14.1-7.6-29.4-12.9-47-13.1
		C421.4,190.6,436.9,194.9,452.2,199.2z M60.7,305.5c9.8,0,18.5,1.9,27-4.8C78,299.7,69.4,297.9,60.7,305.5z M277.5,513.4
		c11.2,5.8,20.8,3.2,30.5,1.8c0-0.6,0-1.2,0.1-1.8C298.4,513.4,288.8,513.4,277.5,513.4z M335.1,234.3c-0.2,0.7-0.3,1.5-0.5,2.2
		c10.1,4.8,20.2-2,30.3-2.2C355,234.3,345.1,234.3,335.1,234.3z M245.1,101.5c2.7,10.1,2.4,21,8.3,30.2
		C254.8,120.5,248.6,111.4,245.1,101.5z M409.2,503.7c5.6,2.9,9.4,4.9,14.7,7.7c-1.1-6.5,0.1-12.3-6.5-12.9
		C415.1,498.4,412.4,501.6,409.2,503.7z M158.3,133.2c-6.8-8.7-13.6-17.4-20.5-26.1C143.3,117,145,129.8,158.3,133.2z M465.1,178.9
		c-0.4,0.7-0.8,1.4-1.2,2.1c13,6.2,26,12.4,39,18.6c0.3-0.6,0.6-1.2,0.9-1.8C490.9,191.5,478,185.2,465.1,178.9z M42.3,288.8
		c13.9,5.1,25.6,4.6,28.8-2C61.2,287.5,51.8,288.2,42.3,288.8z M255.6,357.1c0.5-0.6,1.1-1.1,1.6-1.7c-3.6-5.4-7-10.9-10.9-16.1
		c-0.6-0.8-2.9-0.2-4.5-0.3c0.4,1.3,0.4,2.9,1.1,4c2.6,3.9,5.2,7.7,8.1,11.3C252.1,355.7,254,356.2,255.6,357.1z M172.9,181.1
		c0.6-0.7,1.2-1.4,1.8-2c-8.5-7.5-17-15-25.5-22.5c-0.5,0.6-1.1,1.3-1.6,1.9C156,166.1,164.5,173.6,172.9,181.1z M244.1,395.6
		c0.5,0.4,1,0.8,1.5,1.2c4-5.7,8.1-11.4,13.2-18.5C248.1,380.8,245.5,384.4,244.1,395.6z M392,346.2c-8.8-4.7-17.5-9.4-26.3-14
		C369.7,345.5,382.8,342.4,392,346.2z M148.8,226.8c12.1,0.6,24.2,1.3,37.9,2C173.5,222.4,161.1,225.7,148.8,226.8z M355.3,210
		c11.5,1.3,22.3,2.4,33.1,3.6C377.7,211,367.6,203.9,355.3,210z M239.1,279c6-11.2,12-21.4,26.8-17.6
		C251.1,256.6,237.1,265.4,239.1,279z M318.6,134c-9.4,1.8-15.6,7.5-20.4,14.9c0.5,0.6,1.1,1.2,1.6,1.9
		C306,145.2,312.3,139.6,318.6,134z M171,247.5c0,0.1,0,0.3-0.1,0.4c7.5,0.9,15,2,22.6,2.6c1.7,0.1,3.5-1.5,5.2-2.4
		c-1.8-0.8-3.7-2.3-5.5-2.2C185.8,246.2,178.4,246.9,171,247.5z M325.9,119.3c10.1-11.6,19.8-22.8,28.3-32.5
		C347.3,89.2,331.9,105.9,325.9,119.3z M265.9,147.7c0.8,0.6,1.7,1.1,2.5,1.7c5.2-9.1,10.4-18.2,15.6-27.4c-0.7-0.4-1.3-0.8-2-1.2
		C276.7,129.8,271.3,138.7,265.9,147.7z M313,180.3c-0.2-0.5-0.5-1-0.7-1.6c-5.8,2-11.6,4-17.7,6.1c0.1,2.2,0.3,4.1,0.4,7
		C301.5,187.7,307.3,184,313,180.3z M477,242.6c-8.2-7.9-25.5-15.8-31.3-14C456.3,233.4,466.3,237.8,477,242.6z M151.2,326.4
		c-0.5-0.6-1.1-1.3-1.6-1.9c-8.6,7.4-17.2,14.9-25.9,22.3c0.5,0.5,0.9,1.1,1.4,1.6C133.8,341,142.5,333.7,151.2,326.4z M320.3,360
		c3.4-2.1,5.1-9,2.6-11.8c-0.8-0.9-3.3-1.4-4.3-0.9C315,349.1,315.9,354.6,320.3,360z M272.2,326.2c0.2-0.7,0.4-1.5,0.6-2.2
		c-4.6-2-9.2-4.1-14-5.9c-1.1-0.4-3,0.4-3.9,1.3c-0.5,0.5,0.1,3.2,0.5,3.3C261.1,324,266.7,325.1,272.2,326.2z M210,384.7
		c9.6-12,10.4-16.1,3.6-20.1C212.4,371.1,211.3,377.3,210,384.7z M398.1,497.6c0.2,0.4,0.5,0.7,0.7,1.1c3.2-1.4,6.4-2.8,9.6-4.3
		c-0.2-0.8-0.5-1.7-0.7-2.5c-8.9,1.4-17.8,2.8-26.7,4.2c0.1,0.8,0.3,1.6,0.4,2.4c6.3-1.2,12.7-2.4,19.6-3.7
		C399.7,496.1,398.9,496.9,398.1,497.6z M261,500.3c10.4,6,19.3,7.3,30.5,4.3C281.2,503.1,271,501.7,261,500.3z M312.5,330.1
		c-2,2.2-3.4,3.8-5.8,6.4c6.1,1.8,11,3.3,15.9,4.8c0.3-0.5,0.5-1,0.8-1.5C319.9,336.6,316.4,333.5,312.5,330.1z M377.5,273.3
		c-1,0.8-2,1.7-3,2.5c5.2,6.1,10.3,12.2,15.5,18.2c0.5-0.4,1.1-0.8,1.6-1.3C386.9,286.3,382.2,279.8,377.5,273.3z M73.7,218.2
		c11.8,6.5,18,6.8,23.1,1.8C89.6,219.5,82.6,218.9,73.7,218.2z M486.6,316.7c-0.5,0.3-1,0.5-1.5,0.8c3.3,8.5,6.5,17.1,9.8,25.6
		c0.9-0.4,1.7-0.8,2.6-1.2C493.9,333.5,490.3,325.1,486.6,316.7z M198.4,266.5c-8.4-4.3-21-3.7-24.2,1.4
		C182.5,267.4,190.7,267,198.4,266.5z M489,196.8c0.2-0.6,0.5-1.1,0.7-1.7c-9.9-4.4-19.7-8.7-29.6-13.1c-0.3,0.7-0.6,1.5-1,2.2
		C469.1,188.4,479.1,192.6,489,196.8z M63.3,226.3c-0.1,0.6-0.1,1.1-0.2,1.7c6.6,0.6,11.8,9,19.9,2.1
		C76.5,228.8,69.9,227.6,63.3,226.3z M239.4,203c0-7.3,0-14.7,0-22C238.1,188.4,234.3,195.8,239.4,203z M184.9,442.5
		c1.8,5.3,3.6,10.6,5.8,16.9C195.2,451.2,192.6,446.2,184.9,442.5z M143.6,345.1c0.4,0.4,0.8,0.8,1.2,1.2
		c6.3-5.8,12.6-11.7,18.9-17.5c-0.8-0.8-1.5-1.5-2.3-2.3C155.4,332.7,149.5,338.9,143.6,345.1z M292.9,343.9
		c-2.1,3.1-3.5,5.2-4.2,6.3c2.9,3.6,5.2,6.5,7.6,9.4c0.4-0.3,0.8-0.6,1.2-0.9C296.1,354.2,294.7,349.6,292.9,343.9z M315.3,461
		c7.8,11.2,10.1,12.9,17.8,12.9c-2.8-1.9-5.2-3.5-7.8-5.3c1.1-0.4,2.1-0.7,3.7-1.3C324.6,465.3,320.6,463.4,315.3,461z M220.4,179.8
		c-0.8,0.2-1.5,0.5-2.3,0.7c2.3,7.9,4.6,15.9,6.9,23.8c0.8-0.2,1.5-0.4,2.3-0.7C225,195.7,222.7,187.7,220.4,179.8z M352.7,326.7
		c-0.6,0.5-1.2,1-1.8,1.5c5.3,7.5,10.6,15,15.8,22.4c0.6-0.4,1.1-0.8,1.7-1.2C363.2,341.9,357.9,334.3,352.7,326.7z M344.2,364.3
		c-3.8-7.2-7.5-14.4-11.3-21.7c-0.7,0.4-1.4,0.8-2.1,1.1C332.8,352,338.9,357.9,344.2,364.3z M141.9,401.6c0.7,0.3,1.3,0.5,2,0.8
		c3.8-7.6,7.6-15.2,11.4-22.7c-0.8-0.4-1.5-0.7-2.3-1.1C149.3,386.3,145.6,393.9,141.9,401.6z M389.8,310.1
		c-2.6-7.8-3.7-16.6-12.8-20.6C381.3,296.4,385.5,303.3,389.8,310.1z M395.9,191.2c-3.5-0.2-6.2-0.5-8.8-0.6c-2.8-0.1-5.6,0-8.6,0
		C382.7,197.1,384.1,197.2,395.9,191.2z M228.4,138.6c-0.8,0.3-1.5,0.6-2.3,0.9c2.4,6.3,4.9,12.6,7.3,19c0.8-0.3,1.5-0.6,2.3-0.9
		C233.3,151.3,230.8,144.9,228.4,138.6z M254.4,185.3c0.7,0.2,1.5,0.3,2.2,0.5c1.1-6.5,2.1-13.1,3.2-19.6
		C257.1,172.4,251.2,177.8,254.4,185.3z M431.5,205.6c-0.4,1-0.7,1.9-1.1,2.9c8,2.4,16.1,4.9,24.1,7.3c0.2-0.6,0.4-1.1,0.6-1.7
		C447.2,211.3,439.3,208.4,431.5,205.6z M384.8,223.2c-0.3,0.8-0.5,1.6-0.8,2.4c6.6,2.3,13.1,4.5,19.7,6.8c0.3-0.9,0.6-1.8,0.9-2.7
		C398,227.5,391.4,225.3,384.8,223.2z M364,299.6c-0.6,0.5-1.1,1.1-1.7,1.6c4.9,4.4,9.8,8.8,14.7,13.2c-0.1,0.1-0.2,0.3-0.3,0.4
		C372.4,309.7,368.2,304.7,364,299.6z M176.5,255.6c0,0.5,0,0.9,0.1,1.4c6.6,0.4,13.2,0.8,19.8,1.2c0-0.9,0-1.7,0.1-2.6
		C189.8,255.6,183.1,255.6,176.5,255.6z M333.9,298.6c0.4-5.3,0.8-10.4,1.2-15.8C329.2,285,328.8,293.9,333.9,298.6z M50.2,381.5
		c0.7,0.7,1.3,1.3,2,2c5-4.6,10.1-9.3,15.1-13.9c-0.5-0.6-1-1.1-1.5-1.7C60.6,372.4,55.4,377,50.2,381.5z M249.8,211.4
		c-6.9,4.6-5.8,11.4-4.8,18.2C246.5,223.6,248.2,217.5,249.8,211.4z M254.6,469.6c-0.5,0.6-0.9,1.2-1.4,1.8
		c6.3,4.4,12.6,8.7,19.8,13.7C270.4,474.3,258.6,477,254.6,469.6z M238.3,351.2c-0.5-4.2-1.1-8.4-1.7-13.2
		C230.6,341.9,230.9,344.6,238.3,351.2z M334.7,319c4.1,3.4,7.8,6.6,12.4,10.4C339.9,315.5,340.3,313,334.7,319z M248.2,128.3
		c-0.5,0.1-1,0.1-1.5,0.2c0.8,7.4,1.5,14.8,2.3,22.2c0.8-0.1,1.6-0.2,2.5-0.3C250.4,143,249.3,135.6,248.2,128.3z M109.9,332.1
		c0.4,0.5,0.8,1,1.2,1.6c5.4-2.6,10.8-5.2,16.2-7.8c-0.5-1-1-1.9-1.5-2.9C120.5,326,115.2,329.1,109.9,332.1z M74.7,322.4
		c0.2,0.9,0.4,1.8,0.6,2.7c5.5-0.8,11.1-1.6,16.6-2.3c-0.1-0.7-0.2-1.5-0.3-2.2C86,321.2,80.4,321.8,74.7,322.4z M369.9,262.2
		c-6.4-4.2-12.5-9.8-21.2-8C355.7,256.9,362.8,259.5,369.9,262.2z M183,234.9c0.1-0.9,0.3-1.7,0.4-2.6c-8.1-1.1-16.1-2.2-24.2-3.4
		c-0.1,0.4-0.1,0.8-0.2,1.3C167,231.8,175,233.4,183,234.9z M130.2,365.3c-0.7-0.6-1.3-1.2-2-1.8c-4.4,4.9-8.7,9.8-13.1,14.7
		c0.4,0.4,0.9,0.8,1.3,1.2C121,374.7,125.6,370,130.2,365.3z M346.9,222.6c0.2,0.7,0.4,1.4,0.7,2.2c7.8-2.7,15.5-5.3,23.3-8
		c-0.1-0.4-0.3-0.8-0.4-1.3C362.6,217.9,354.8,220.2,346.9,222.6z M150.1,241.3c0,0.3-0.1,0.7-0.1,1c6.8,0.5,13.5,0.9,20.3,1.4
		c0-0.8,0.1-1.6,0.1-2.4C163.5,241.3,156.8,241.3,150.1,241.3z M299.5,347c3.3,4.8,5.2,7.6,7.1,10.4c0.6-0.2,1.3-0.4,1.9-0.6
		c-0.5-3.3-0.8-6.6-1.8-9.7C306.5,346.6,303.3,347,299.5,347z M315.6,230.1c0.6,1,1.2,1.9,1.7,2.9c4.8-2.7,9.6-5.4,14.4-8.1
		c-0.3-0.5-0.5-1-0.8-1.5C325.9,225.7,320.8,227.9,315.6,230.1z M139.8,137.1c-0.5,0.5-1,1-1.4,1.5c5.8,4.6,11.6,9.1,17.4,13.7
		c0.4-0.6,0.9-1.1,1.3-1.7C151.4,146.1,145.6,141.6,139.8,137.1z M142.7,324.9c-0.3-0.7-0.7-1.3-1-2c-6,3.1-12,6.1-17.9,9.2
		c0.4,0.7,0.7,1.4,1.1,2.1C130.8,331.2,136.7,328,142.7,324.9z M394.7,313c-0.5,0.8-1,1.6-1.5,2.4c5.5,2.9,10.9,5.8,16.4,8.7
		c0.3-0.5,0.6-1,0.9-1.4C405.2,319.4,399.9,316.2,394.7,313z M133.9,144.2c-0.3,0.6-0.6,1.1-1,1.7c5.1,2.1,8,8.3,13.9,8.9
		c0.4-0.8,0.8-1.5,1.3-2.3C143.3,149.7,138.6,147,133.9,144.2z M126.9,306.6c0.2,0.5,0.5,1.1,0.7,1.6c7.3-3.1,14.6-6.2,21.9-9.2
		c-0.3-0.7-0.6-1.4-0.9-2.1C141.3,300.1,134.1,303.4,126.9,306.6z M364.8,491.5c-8.4-0.6-15.5-1-22.8-1.5
		C349,496,356.3,492.6,364.8,491.5z M79.2,183.1c-0.2,0.7-0.4,1.4-0.6,2.2c6.3,1.6,12.5,3.3,18.8,4.9c0.2-0.7,0.4-1.4,0.6-2.1
		C91.8,186.4,85.5,184.8,79.2,183.1z M124.6,196.9c-0.1,0.5-0.2,0.9-0.3,1.4c7,1.4,14.1,2.9,21.1,4.3c0.1-0.8,0.3-1.7,0.4-2.5
		C138.8,199,131.7,197.9,124.6,196.9z M306.4,218.4c0.1,0.6,0.2,1.1,0.4,1.7c7-1.4,14.1-2.8,21.1-4.3c-0.1-0.5-0.2-1.1-0.4-1.6
		C320.5,215.6,313.5,217,306.4,218.4z M238.4,220.8c-0.4,0-0.9,0-1.3,0c0,5.6,0,11.3,0,16.9c0.4,0,0.9,0,1.3-0.1
		C238.4,232.1,238.4,226.4,238.4,220.8z M327.3,322.9c-0.7-0.1-1.3-0.1-2-0.2c-1.3,1.6-2.6,3.2-4.4,5.5c2.4,1.7,4.3,3,7.9,5.5
		C328.1,328.6,327.7,325.8,327.3,322.9z M437.5,462.5c-0.5,0.9-0.9,1.9-1.4,2.8c5.2,2.2,10.5,4.4,15.7,6.6c0.2-0.5,0.4-0.9,0.7-1.4
		C447.5,467.8,442.5,465.1,437.5,462.5z M369.9,108c-0.3-0.4-0.6-0.7-0.9-1.1c-6.7,3.6-13.3,7.1-20,10.7c0.2,0.5,0.5,0.9,0.7,1.4
		C356.5,115.4,363.2,111.7,369.9,108z M349,316.1c-0.5,0.5-1,1-1.4,1.5c2.4,2.6,4.8,5.2,7.2,7.9c2.2,2.5,4.3,5.1,6.4,7.7
		c0.5-0.5,1-1,1.5-1.4C358.1,326.6,353.6,321.3,349,316.1z M216.6,200.9c0.1,0,0.2,0,0.3,0c-5.1-5.6-10.2-11.3-15.3-16.9
		c-0.6,0.6-1.1,1.1-1.7,1.7C205.4,190.7,211,195.8,216.6,200.9z M282.5,361.6c2.3-6.2,1.9-10.2-6.1-8.3
		C278.6,356.3,280.5,358.9,282.5,361.6z M468.5,397.7c-1.7-5.9-3.6-12-10.9-13.9C461.2,388.4,464.8,393.1,468.5,397.7z M128,165.8
		c0.4-0.6,0.8-1.1,1.3-1.7c-5.6-2.8-11.2-5.5-16.7-8.3c-0.3,0.6-0.6,1.2-0.9,1.9C117.1,160.4,122.6,163.1,128,165.8z M251.3,488.9
		c4,8.4,10.9,6.3,16.3,7.7C262.7,494.2,257.8,491.9,251.3,488.9z M52.1,310.8c0,0.6,0,1.3,0,1.9c4.3,0,8.6,0,12.9,0
		c0-0.6,0-1.3,0-1.9C60.7,310.8,56.4,310.8,52.1,310.8z"/>
	<path class="st0" d="M338,67.7c-4.9,4.4-10.9,8-14.5,13.2c-9.9,14.4-18.7,29.5-28.1,44.3c-2.8,4.3-6.1,8.3-9.9,11.9
		c7.7-10.7,6.7-24.6,15.7-35.4c11.3-13.5,21.3-27.8,36.5-37.4c1-0.7,1.6-2.1,2.3-3.1c0,0,0,0.1,0,0.1c1.4,0,2.9,0,4.6,0
		c-0.6,1-1.3,2.2-2,3.4C341.1,65.6,339.6,66.7,338,67.7z"/>
	<path class="st0" d="M310.9,56.1c-9.1,10.6-18.2,21.3-28.3,33c1.7-11.3,9.1-17.8,14.4-25.5c4.5-3.9,9-7.8,13.5-11.7
		c0.4,0.3,0.9,0.7,1.3,1C311.6,54,311.3,55,310.9,56.1z"/>
	<path class="st0" d="M432.7,260.1c10.9,5.2,23.6,11.3,35.2,16.9c-3.3-9.9-18.3-24.8-40.2-39.2c14.2,4.9,28,10.3,38.9,21.3
		c17.5,17.7,32,37.7,44.8,59.1c6.9,11.5,14.3,22.6,21.2,33.6c-16-16-31.6-32.7-48.4-48.2C467.3,288,449.1,273.8,432.7,260.1z"/>
	<path class="st0" d="M351.3,508.3c-10.3-7-23.9-15.1-36.2-24.8c-22.6-17.9-41.4-38.8-47.9-68.4c-2.1-9.4-1.1-17.6,4.4-25.1
		c5.4,15.3,9.1,31.2,16.5,45.3c6.1,11.7,16.1,21.6,25.1,31.7C326.2,481.9,339.9,496.1,351.3,508.3z"/>
	<path class="st0" d="M247.4,412.9c-2.6,16.2-6.8,32.3-7.4,48.5c-0.6,17.3,8,32.6,17.2,47c0.7,1.1,1.4,2.2,2.3,3.7
		c-12.8-5.4-37.1-41.9-38-58.4c3.6,6.6,6.4,11.7,9.2,16.9c0.6-0.1,1.1-0.2,1.7-0.4c-6.5-10.4-4.6-21-2.1-32.2
		c1.5,1.3,2.5,2.3,4.1,3.7c3.7-9.1,7-17.7,10.6-26.2c0.4-1,1.7-1.7,2.6-2.5C247.5,413,247.4,412.9,247.4,412.9z"/>
	<path class="st0" d="M466.4,370.8c-20.8-10.4-41.7-20.8-62.5-31.2c0.4-1,0.8-2.1,1.2-3.1c7.9,2.8,16.1,5.2,23.7,8.6
		c7.9,3.6,15.3,8.3,23.7,11.1c-15.5-8.6-31-17.2-46.5-25.7C432.6,331.4,446.6,346.5,466.4,370.8z"/>
	<path class="st0" d="M62,440.1c1.2-2.5,2.3-5,3.6-7.5c11.5-21.7,23.1-43.4,34.7-65c4.8-9,10.5-17.3,18.1-21.8
		c-7.5,12.4-15.8,26.1-24.1,39.8c0.5,0.3,1,0.7,1.5,1c7.8-10,15.5-20.1,23.3-30.1c0.8,0.5,1.6,1,2.4,1.5c-2.1,3.9-3.5,8.3-6.3,11.5
		c-18.4,20.4-32.7,43.6-47.8,66.3c-1.2,1.8-2.8,3.3-4.2,4.9C62.7,440.6,62.4,440.4,62,440.1z"/>
	<path class="st0" d="M319.2,513.5c-10.5-6.5-21.5-12.7-31.7-19.9c-4.3-3-8.1-7.8-10.2-12.7c-4.2-9.8-7-20.2-10.8-31.6
		C284.8,471.7,302.1,492.7,319.2,513.5z"/>
	<path class="st0" d="M193.3,494.2c3-21,5.3-42.2,9.3-63.1c1.3-6.8,7.2-12.7,12.1-18.4c-0.7,10.2,0.4,19.9-3.9,29.8
		c-5.9,13.7-8.6,28.8-12.6,43.4c-0.8,2.9-1.6,5.9-2.4,8.8C195,494.6,194.1,494.4,193.3,494.2z"/>
	<path class="st0" d="M329.6,420.4c16.9,11.7,32.6,22.5,48.4,33.3c-0.1,0.3-0.3,0.7-0.4,1c-5.1-2-10.3-4-15.4-6.1
		c-10.6-4.3-21.2-8.8-31.8-13.1c-1.8-0.7-3.9-1.2-5.9-1.3c-12.3-0.4-18.9-7.8-23.3-18.6c1.2,0.1,2,0.2,3.2,0.4
		c-1.1-4.7-2.1-9.3-3.6-15.6c4.4,8.1,7.1,15.2,11.8,20.8c3.5,4.2,9.3,6.6,14.3,9.4c1.1,0.6,3.2-0.4,4.8-0.6
		c-0.3-1.4-0.6-2.8-0.9-4.1C330.4,424.5,330.2,423.1,329.6,420.4z"/>
	<path class="st0" d="M128.9,416.4c-1.8,2.5-4,4.8-5.2,7.6c-6.5,15.6-12.7,31.3-19,46.9c-1.4,3.5-3,7-5.8,10.1
		c1.4-4.9,2.7-9.9,4.2-14.8c3.4-11.2,6.4-22.6,10.5-33.5c3.6-9.5,8.7-18.4,13-27.5c1.9-4.1,3.3-8.4,5.6-12.3
		c2.2-3.6,5.2-6.6,7.9-9.9c0.8,0.4,1.6,0.8,2.4,1.3c-0.2,1.5-0.5,2.9-0.7,4.3c-0.5,1.4-0.9,2.8-1.5,4.1
		C136.5,400.7,132.7,408.5,128.9,416.4z"/>
	<path class="st0" d="M183.4,390.2c-1.6,10.8-3.2,21.6-4.8,32.4c-0.7-0.1-1.4-0.1-2-0.2c0.2-4.7,0.1-9.5,0.7-14.2
		c1.4-11.2,3-22.4,4.9-33.5c0.9-5.1,1.9-10.3,4.1-14.9c1.3-2.7,5.1-4.3,7.8-6.3c0.5,0.5,1.1,1,1.6,1.4c-3.2,4.9-6.4,9.8-10.8,16.6
		c5.4-2,9.1-3.3,11.7-4.3c-4.8,17.2-9.9,35.4-14.3,51c0.8-7.5,2-17.7,3.1-27.9C184.7,390.4,184,390.3,183.4,390.2z"/>
	<path class="st0" d="M436.6,213.5c26.2,3.3,45.3,18,61.2,37.9c7,8.7,14.2,17.3,20.1,27.1c-1.9-2.2-3.5-4.5-5.6-6.5
		c-13.4-12.5-26.3-25.7-40.6-37.1c-8.2-6.6-18.5-10.4-28.2-15.6c4.9,1.2,9.7,2.5,14.5,3.7c0.2-0.4,0.4-0.9,0.5-1.3
		c-3.7-1.1-7.4-2.2-11.2-3.3c-3.8-1-7.7-1.9-11.5-2.8C436,214.8,436.3,214.2,436.6,213.5z"/>
	<path class="st0" d="M153.4,487.5c4.4-26.3,7.2-53,19.7-78.4c-0.9,7.4-2,13.8-2.3,20.2c-0.3,6.5,0.3,13,0.2,19.5
		c0,1.9-0.8,4-1.7,5.8C164.1,465.5,158.8,476.4,153.4,487.5z"/>
	<path class="st0" d="M57.5,329.9c16.3-11.9,32.4-24,49-35.5c3.4-2.4,8.3-3.1,12.7-3.8c4.6-0.8,9.3-0.7,13.9-0.9
		c-8.4,4.8-16.9,9.8-25.5,14.5c-16.3,8.8-32.7,17.5-49.1,26.2C58.1,330.2,57.8,330,57.5,329.9z"/>
	<path class="st0" d="M341.6,385.5c18.8,21.3,39.4,37.8,64.2,51.7C382.5,436.5,344.2,405.7,341.6,385.5z"/>
	<path class="st0" d="M65.3,378c11.9-26.1,26.7-49.6,55-61.1c-0.9,1.3-1.7,2.4-3.2,4.4c4.9-3.1,8.9-5.6,13-8.1
		c0.4,0.5,0.7,0.9,1.1,1.4C105,331.4,81.4,350.9,65.3,378z"/>
	<path class="st0" d="M374.1,356.9c14.1-3.6,20,4.3,24.9,13.6c4.2,8,8.1,16.3,12.1,24.5c-0.5,0.3-1,0.7-1.4,1
		C398.1,383.1,386.4,370.3,374.1,356.9z"/>
	<path class="st0" d="M99.8,324.3c-6.7,7.1-14.1,14.8-21.5,22.6c-0.5,0.5-0.9,1.1-1.5,1.3c-12.1,4.7-23.8,10.1-32.6,20.3
		C57.3,345.9,78.3,333.8,99.8,324.3z"/>
	<path class="st0" d="M411,362c-1.8-2.2-3.6-4.4-5.4-6.6c0.3-0.5,0.5-1,0.8-1.5c6.1,3,13.2,4.9,18,9.3c11,10.3,20.7,21.8,31,32.8
		c-0.4,0.5-0.8,1-1.3,1.5c-7.1-5.7-14.4-11.2-21.4-17c-7.4-6.1-14.6-12.5-22-18.7L411,362z"/>
	<path class="st0" d="M357.2,458.3c-14.7-3.6-29.6-6.4-44-10.9c-9.3-3-14.8-11.2-14.9-19.4c17.4,15.6,38.2,22.5,59.8,27.4
		C357.8,456.4,357.5,457.3,357.2,458.3z"/>
	<path class="st0" d="M427.7,185.8c-2.7-0.3-5.4-0.4-8.1-0.9c-7-1.3-13.6-2.3-21,0.5c-5.3,2-12.1,0.4-18.8,0.4
		C388.7,173.6,417.8,173.1,427.7,185.8z"/>
	<path class="st0" d="M175.1,477.2c1.8,7.6,3.8,15.2,5.3,22.9c1.5,7.8,2.4,15.7,11.6,19.5c-13.3,6.8-24.8-10.3-27.2-26.6
		c4,7.2,8.1,14.6,12.2,21.9c0.6-0.2,1.2-0.4,1.8-0.7C172.9,502.4,171.1,490.2,175.1,477.2z"/>
	<path class="st0" d="M450.3,317.3c-6.7-5.2-13.5-10.3-20.1-15.6c-2.2-1.8-4-4.3-5.9-6.4c0.6-0.8,1.1-1.6,1.7-2.4
		c3.5,1.8,7.5,3,10.4,5.5c13.7,11.3,27.3,22.9,40.6,34.6c2.1,1.8,2.9,5.1,4.3,7.7c0,0-0.2,0.1-0.2,0.1
		C470.9,333,460.6,325.2,450.3,317.3z"/>
	<path class="st0" d="M139.6,132.9c18.6,2.2,39.7,16.9,39.4,27.1c1.2-2.1,2-3.4,3.1-5.4c4.5,5.1,8.5,9.7,12.6,14.3
		c-0.4,0.5-0.8,1-1.2,1.4C175.5,157.8,157.6,145.4,139.6,132.9z"/>
	<path class="st0" d="M398.2,237.9c6.2,0.7,12.5,0.8,18.5,2.3c3.1,0.8,5.5,4.1,8.4,5.9c2.6,1.5,5.5,2.9,8.4,3.6
		c9,2.3,15.2,8.1,20.4,14.2c-18.4-7.8-37.4-16-56.4-24.1C397.7,239.2,398,238.6,398.2,237.9z"/>
	<path class="st0" d="M155.5,403.4c4.7-15.1,9.3-30.4,14.2-45.6c2.3-7,8.4-2.7,13.7-4.5C173.6,370.9,164.4,387.4,155.5,403.4z"/>
	<path class="st0" d="M383.8,250.8c8.9,1.4,17.8,2.7,26.6,4.4c1.8,0.3,3.5,2,4.8,3.4c4.9,4.9,9.6,10,13.6,16.3
		c-15.4-7.7-30.7-15.3-46.1-23C383.1,251.5,383.5,251.1,383.8,250.8z"/>
	<path class="st0" d="M357.5,356.1c15.8,9.1,22.4,23.4,23.9,40.7C372.9,383.5,363,371.1,357.5,356.1z"/>
	<path class="st0" d="M85.9,378c-8,23.7-17.1,35.9-37.1,50.7C61.2,411.8,73.5,394.9,85.9,378z"/>
	<path class="st0" d="M88.2,202.9c5.5,1.5,10.9,3,16.4,4.6c-0.1,0.2-0.1,0.4-0.2,0.7c-6.7,0-13.5,0-20.2,0c0-0.5-0.1-1-0.1-1.5
		c1.4-0.4,2.8-0.7,3.3-0.9c-7.1-2.5-14.8-5.2-22.8-8.1c15.9-1.8,38.9,2.4,50,9.8c-8.7-1.9-17.5-3.8-26.2-5.7
		C88.4,202.2,88.3,202.6,88.2,202.9z"/>
	<path class="st0" d="M312.7,303.6c-2.3-0.7-4.4-0.7-5.4-1.8c-3.3-3.6-6-7.7-9.1-11.5c-2.2-2.7-5.1-5-6.7-8.1
		c-1.2-2.2-2.3-6.4-1.1-7.8c2-2.5,6-3.7,8.5,0.3c2.2,3.6,4,7.5,5.8,11.3C307.2,291.4,309.6,296.8,312.7,303.6z"/>
	<path class="st0" d="M300.7,373.3c4.8,2.3,9.2,2.9,10.7,5.3c4.9,7.9,8.9,16.5,13.2,24.8c-0.6,0.5-1.2,0.9-1.8,1.4
		c-7.4-7.3-14.9-14.5-21.9-22.2C299.6,381.1,300.7,377.4,300.7,373.3z"/>
	<path class="st0" d="M234.9,388.7c-11.6,16.3-8.8,35.7-11.5,53.9c-0.7,0-1.5,0-2.2,0c-0.2-13.1-1.7-26.4,0-39.3
		c0.8-5.7,8-10.6,12.3-15.8C233.9,387.8,234.4,388.3,234.9,388.7z"/>
	<path class="st0" d="M414.2,172.3c11.6-6.5,36.5-2.1,45.5,8.2C444.5,177.7,429.3,175,414.2,172.3z"/>
	<path class="st0" d="M222.2,272.4c-1.7-22.5,4.2-28.8,26-27.8c-5.2,4-10.8,7.2-15.1,11.8C228.8,261,225.9,266.9,222.2,272.4z"/>
	<path class="st0" d="M326.7,305.2c-1.2-1.1-2.9-1.9-3.7-3.3c-3.7-6.4-7.4-12.9-10.3-19.6c-0.9-2,1-5.2,1.7-7.9
		c2.2,1.2,5.8,1.9,6.4,3.6c2.9,8.6,5,17.4,7.3,26.1C327.6,304.5,327.1,304.8,326.7,305.2z"/>
	<path class="st0" d="M204.8,467.2c11.9,10.3,22,19.1,32.2,28c-0.6,0.9-1.3,1.7-1.9,2.6c-6.5-4.4-13-8.8-19.5-13.2
		c-3.3-2.2-7.4-3.8-9.6-6.7C204.4,475.7,205.2,471.7,204.8,467.2z"/>
	<path class="st0" d="M278.6,372c-4.8,8.1-9.6,16.3-14.2,24.1c2.1-12.2,4.4-25.1,6.6-37.9c0.8,0,1.6,0,2.4,0
		C275.1,362.8,276.9,367.4,278.6,372z"/>
	<path class="st0" d="M144.6,471.2c5.7,13,4.5,25.3-0.1,39c-4.4-6.7-5.2-13-4.1-19.5C141.5,484.2,143.1,478,144.6,471.2z"/>
	<path class="st0" d="M207,386.6c0.4,3.1,0.5,4.7,0.9,7.9c3.9-5.2,7-9.4,10.1-13.5c0.4,0.3,0.8,0.5,1.1,0.8
		c-7.7,12.5-15.3,25-23.6,38.6C195.3,407.4,199.7,397.3,207,386.6z"/>
	<path class="st0" d="M358.9,420.2c-13.6-7.5-22.2-18.4-27.9-32.2c3-2.9,6.5-4.7,7.7,0.3c2.8,11.9,11.2,19.7,18.8,28.3
		c0.4,0.5,0.9,1,1.2,1.6C358.8,418.5,358.8,419,358.9,420.2z"/>
	<path class="st0" d="M348.1,301.4c3.6,3.8,7.3,7.7,10.9,11.5c-0.2,0.2-0.3,0.4-0.5,0.6c-6.2-3.9-12.3-7.7-19.3-12.1
		c2.4-3.1,4.7-6.1,7.7-10.1c7.2,9,13.6,16.9,20,24.8c-0.6,0.5-1.1,1.1-1.7,1.6c-5.6-5.5-11.3-11-16.9-16.6
		C348.3,301.1,348.2,301.3,348.1,301.4z"/>
	<path class="st0" d="M361,119.3c-8.3,6.4-16.7,12.8-24.9,19.4c-1.7,1.4-2.7,3.5-4.2,5.4c-4.9-6.2-5.3-8.2-0.1-11.3
		c9.8-5.9,20.1-10.9,30.1-16.2C361.6,117.4,361.3,118.3,361,119.3z"/>
	<path class="st0" d="M158.7,110.7c14.2,13.4,28.4,26.8,42.6,40.1C191.8,149.4,170.4,129.2,158.7,110.7z"/>
	<path class="st0" d="M526.5,355.3c-5.6-2.6-12.6-3.8-16.4-8c-3.8-4.1-4.4-11.2-5.5-17.8c7.7,8.1,15.3,16.2,23,24.3
		C527.2,354.3,526.9,354.8,526.5,355.3z"/>
	<path class="st0" d="M307.4,153.1c-8.4,8.9-16.6,17.7-24.8,26.4C279.5,168.3,290.4,157.5,307.4,153.1z"/>
	<path class="st0" d="M324.6,422.8c-11.5-7.6-18.5-18.4-22.4-31.5C309,402.3,322.9,408.2,324.6,422.8z"/>
	<path class="st0" d="M433.6,223.7c-8.8-4.6-17.7-9.2-27.1-14.1c1.9-1.3,3.3-2.2,4.8-3.2c-2.5-1.4-4.9-2.8-7.4-4.2
		C417.3,204.5,426.2,213.1,433.6,223.7z"/>
	<path class="st0" d="M95.2,266.6c-6.5,1.7-13,3.4-19.6,5.2c-0.2-0.7-0.3-1.3-0.5-2c21.2-3.8,38.6-20.6,60.2-18
		C122.8,256.4,109,261.5,95.2,266.6L95.2,266.6z"/>
	<path class="st0" d="M412.7,288.2c-7.8-12.1-24.1-14.4-32.1-27.4C391.3,261.8,407.6,275.7,412.7,288.2z"/>
	<path class="st0" d="M356.6,273.8c-5.2-3.4-10.5-6.8-15.5-10.5c-1-0.8-1.8-3.8-1.2-4.4c1.3-1.3,3.9-2.9,5.3-2.5
		c6.7,2.3,13.3,5.2,19.6,8.8c-5.1-0.4-10.3-0.7-17.2-1.2c4.1,3.7,6.9,6.2,9.6,8.7C357.1,273.2,356.9,273.5,356.6,273.8z"/>
	<path class="st0" d="M182.4,147.7c9.6,8.7,19,16.1,27,24.9c3.7,4.1,4.5,10.9,5.9,16.7C204.5,175.7,193.8,162.1,182.4,147.7z"/>
	<path class="st0" d="M285.7,60.9c-4.6,18.2-9.1,36.3-13.7,54.5c-0.8-0.2-1.7-0.5-2.5-0.7C270.5,95.6,280,78.9,285.7,60.9z"/>
	<path class="st0" d="M154.1,348.4c-2.1,3.7-3.9,7.6-6.3,11.1c-5.8,8.3-12,16.3-18,24.4c-1,1.3-1.9,2.7-3.5,5.1
		c2.4-10.2,19.7-37.4,25.8-41.4C152.8,347.8,153.5,348.1,154.1,348.4z"/>
	<path class="st0" d="M410.8,361.8c6.3,5.9,12.5,11.8,18.8,17.7c-16.7-2.8-24.2-16.6-34.1-27.6c5.2,3.4,10.4,6.8,15.5,10.1
		C411,362,410.8,361.8,410.8,361.8z"/>
	<path class="st0" d="M380.4,308.3c-6.8-7.6-13.7-15.3-20.5-22.9c-0.4,0.3-0.9,0.7-1.3,1c2.1,2.6,4.1,5.2,6.4,8.2
		c-14.6-6-15.1-6.5-11.4-11.8c-1.6-1.9-3.2-3.9-4.8-5.9c0.4-0.4,0.9-0.9,1.3-1.3C361.7,285,373,294.6,380.4,308.3z"/>
	<path class="st0" d="M142.6,410.8c-2.2,20.1-4.4,39.2-5.8,52.6c0-10.3-0.3-26.4,0.3-42.4C137.1,417.6,140.5,414.5,142.6,410.8z"/>
	<path class="st0" d="M84.1,263.5c-10.8,3-21.5,6-33.6,9.4C53.7,264.8,69.3,260.5,84.1,263.5z"/>
	<path class="st0" d="M228.9,73.4c4,16.5,8,33,12,49.5c-0.7,0.2-1.3,0.3-2,0.5c-8-15.4-7.1-33-12.1-49.1
		C227.4,74,228.1,73.7,228.9,73.4z"/>
	<path class="st0" d="M277.3,341.6c-2.3,0.8-3.9,2-5,1.6c-6.8-1.8-13.5-3.8-20.1-6.3c-2-0.7-3.5-3.1-5.2-4.7
		c2.4-0.7,5.2-2.5,7.1-1.9c6.9,2.4,13.6,5.6,20.3,8.6C275.1,339.3,275.6,340.1,277.3,341.6z"/>
	<path class="st0" d="M59,301.9c18.2-12.3,35.8-26.2,59.8-25.2C96,278.6,78,291.5,59,301.9z"/>
	<path class="st0" d="M206.1,199.3c-11.7-9.3-23.4-18.5-36.6-29c16.9,5.6,27.3,16.6,37.8,27.4C206.9,198.3,206.5,198.8,206.1,199.3z
		"/>
	<path class="st0" d="M216.6,266c3,8.3,5.5,15.2,8,22c-0.3,0.2-0.7,0.3-1,0.5c-2-4.4-3.9-8.7-5.8-13.1
		c-5.5,17.6-11.2,21.3-23.2,13.9c6-1.1,13.6,3.3,16.6-4.8C213.2,279,214.6,273.1,216.6,266z"/>
	<path class="st0" d="M289.7,367c10.3,5.8,1.4,14.5,6.5,21.3c3.6,4.8,0.7,14.5,0.7,21.9c-0.8,0-1.5,0-2.3,0
		C293,396.4,291.4,382.5,289.7,367z"/>
	<path class="st0" d="M466.5,193.2c-3.1-1.7-6.2-3.4-9.3-5.1c0.2-0.3,0.3-0.7,0.5-1c11.4,4.3,22.7,8.6,34.1,12.9
		c-0.1,0.3-0.2,0.7-0.2,1c-14.4-2.9-28.8-5.7-43.2-8.6c0.2-1,0.4-1.9,0.6-2.9c5.7,1.6,11.4,3.2,17.2,4.7
		C466.3,193.9,466.4,193.5,466.5,193.2z"/>
	<path class="st0" d="M265.1,139.3c2.2-19.9,17-32.3,25.1-48.3c0.5,0.3,1,0.6,1.6,0.8C283,107.5,274.2,123.2,265.1,139.3z"/>
	<path class="st0" d="M79.6,238.9c13.4-0.6,25-11,39.2-5.5C106.3,238.7,92.8,238,79.6,238.9z"/>
	<path class="st0" d="M233.5,144.8c-5.6-13.1-6-27.6-8.4-41.6c4.2,13.4,8.4,26.8,12.6,40.2C236.3,143.9,234.9,144.4,233.5,144.8z"/>
	<path class="st0" d="M243.1,146.5c1.4,14.6,2.9,30.1,4.4,45.6c-0.6,0.2-1.1,0.4-1.7,0.6c-0.9-0.7-2.5-1.4-2.5-2.2
		C243.1,175.5,243.1,160.6,243.1,146.5z"/>
	<path class="st0" d="M306.9,171.2c4.7-11.1,13.9-15.3,30.1-13.5C326.7,162.4,316.6,166.9,306.9,171.2z"/>
	<path class="st0" d="M144.4,433.7c-1.3,8.1-2.5,15.3-3.6,22.5c1.8-15.4-2.1-31.9,7.4-46.2c-0.5,9.8-1,19.2-1.4,28.6
		c-0.4,0-0.7,0-1.1,0C145.3,437.2,144.9,435.8,144.4,433.7z"/>
	<path class="st0" d="M66.9,386.5c7.3-12.6,13.2-26.3,27-34.1c-8.6,11.8-17.2,23.5-25.7,35.3C67.7,387.3,67.3,386.9,66.9,386.5z"/>
	<path class="st0" d="M112.8,396.1c-8.3,14.5-16.6,29-24.9,43.5c5.9-15.8,13.1-30.9,22.5-44.9C111.2,395.2,112,395.6,112.8,396.1z"
		/>
	<path class="st0" d="M235.8,380.1c-5.9,6.5-11.7,13-17.5,19.5c-0.5-0.3-1.1-0.6-1.6-0.9c3.6-6.9,6.8-14.1,11-20.6
		c0.8-1.3,5.3-0.2,8.1-0.2C235.8,378.6,235.8,379.4,235.8,380.1z"/>
	<path class="st0" d="M283.8,381.4c2.3,8.5,4.7,17,7,25.5c-0.7,0.3-1.4,0.6-2,1c-3.7-6.9-7.8-13.7-10.9-20.8
		c-0.5-1.2,2.5-4.1,3.9-6.2C282.5,381.1,283.1,381.2,283.8,381.4z"/>
	<path class="st0" d="M112.8,341c-8.2,9.8-16.6,19.9-25.1,30C89.6,359.1,103.7,343.6,112.8,341z"/>
	<path class="st0" d="M155.2,368.7c0.8-9.5,1.6-19,2.4-28.6c0.7,0,1.5,0.1,2.2,0.1c0.1,1.7,0.3,3.5,0.4,6c2.2-4,3.9-7.1,5.6-10.3
		c0.4,0.2,0.9,0.4,1.3,0.6c-3.7,10.6-7.5,21.2-11.2,31.8C155.7,368.5,155.4,368.6,155.2,368.7z"/>
	<path class="st0" d="M87.2,173.9c15.7-0.3,27.4,4.6,37.6,14C112.9,183.5,100.9,179.1,87.2,173.9z"/>
	<path class="st0" d="M274.4,164.5c-3.4,10.1-6.4,19.4-9.9,29.8C257.2,179.9,267.7,173.4,274.4,164.5z"/>
	<path class="st0" d="M202.8,85.3c3.5,13.3,18.1,20.9,18.2,35.9c-0.6,0.3-1.1,0.6-1.7,0.9c-6.2-11.9-12.4-23.8-18.6-35.8
		C201.4,86,202.1,85.6,202.8,85.3z"/>
	<path class="st0" d="M351.9,345.7c-9.8-1.3-18.2-7.7-15.5-20.7C341.9,332.5,346.6,338.7,351.9,345.7z"/>
	<path class="st0" d="M213.2,156.3c-10-12.3-8.9-28.5-15.6-42c0.7-0.2,1.3-0.5,2-0.7c5.1,14,10.2,28,15.3,42
		C214.4,155.8,213.8,156.1,213.2,156.3z"/>
	<path class="st0" d="M220.2,161.4c9.5,9.1,10.9,20.4,9,32.7C226.2,183.2,223.2,172.3,220.2,161.4z"/>
	<path class="st0" d="M213.6,394.8c0.5,17.5-2.3,19-14.3,23.8C204.3,410.3,208.7,403,213.6,394.8z"/>
	<path class="st0" d="M282,299.9c4.3-4.9,7.2-3.8,10.4,0.6c2.2,3,5.6,5.1,8,8c0.9,1.1,0.6,3.2,0.9,4.9c-1.5-0.4-3.2-0.5-4.4-1.3
		C291.9,308.2,287.1,304.1,282,299.9z"/>
	<path class="st0" d="M149.9,212.5c-13.2-4.5-26.4-9-39.5-13.5c0.2-0.7,0.5-1.4,0.7-2.1c13.3,4.2,26.5,8.5,39.8,12.7
		C150.6,210.6,150.3,211.5,149.9,212.5z"/>
	<path class="st0" d="M253.8,69.8c0,11.4,0,22.7,0,34.7c-7.6-11.7-3.4-23.3-2.2-34.7C252.3,69.8,253.1,69.8,253.8,69.8z"/>
	<path class="st0" d="M153,220.8c-15.5-1.5-31.1-3.1-46.6-4.6c0.1-0.7,0.1-1.3,0.2-2c15.6,1.3,31.1,2.6,46.7,3.9
		C153.2,219,153.1,219.9,153,220.8z"/>
	<path class="st0" d="M115.9,478.5c-1.7-10.4,6.5-16.1,11.4-23.4C130.3,460.2,126,469.1,115.9,478.5z"/>
	<path class="st0" d="M241.4,258.3c3.8-8.4,18.2-11.3,27.5-4.5C259.6,255.3,250.1,256.9,241.4,258.3z"/>
	<path class="st0" d="M256.3,148.9c1.4-12.1,2.7-24.2,4.1-36.3C260.4,124.8,264.6,137.5,256.3,148.9z"/>
	<path class="st0" d="M445.9,321.7c2,2,3.7,4.3,6,5.8c6.2,3.9,12.6,7.4,18.1,12.4c-14.2-7.3-28.5-14.5-42.9-21.8
		c3.5,0.4,7.1,0.9,10.7,1.3C440.1,322,442.1,324.9,445.9,321.7z"/>
	<path class="st0" d="M128.9,416.4c3.8-7.9,7.6-15.8,11.4-23.7c0.6-1.3,1-2.8,1.5-4.1c1.9-2.6,3.8-5.2,5.7-7.9
		c0.4,0.2,0.8,0.4,1.3,0.5c-0.1,0.8-0.1,1.8-0.5,2.5c-5,9.8-10.1,19.5-15.3,29.2C132.2,414.5,130.3,415.3,128.9,416.4z"/>
	<path class="st0" d="M79.3,247.7c-1.5-0.9-3-1.8-4.5-2.7c0-0.3,0-0.7,0.1-1c11.3,0.9,22.6,1.9,33.9,2.8c0.1,0.5,0.2,1,0.3,1.4
		c-4,0.5-8.1,1-12.1,1.5C91,249.1,85.1,248.4,79.3,247.7z"/>
	<path class="st0" d="M259.2,242.1c7.1-8.5,11.2-17.2,1.2-28.3c7.2,1.5,8.9,5.2,9.5,9.4C271.1,231.7,267.2,238.9,259.2,242.1z"/>
	<path class="st0" d="M387.2,153.3c-14.4-2.1-28.7-4.2-44.2-6.5C359.2,143.9,373.2,148.7,387.2,153.3z"/>
	<path class="st0" d="M305.5,203.9c2.4-1.5,4.8-3.1,7.3-4.6c-0.1-0.2-0.1-0.4-0.2-0.6c-3.1,0.8-6.2,1.6-9.2,2.4
		c-0.2-0.7-0.4-1.4-0.6-2.1c10-2.8,20-5.7,30-8.5c0.1,0.4,0.3,0.8,0.4,1.2c-9,4.4-17.9,8.8-26.9,13.2
		C306,204.5,305.8,204.2,305.5,203.9z"/>
	<path class="st0" d="M452.2,199.2c-15.2-4.2-30.8-8.5-47-13.1C422.7,186.2,438.1,191.5,452.2,199.2z"/>
	<path class="st0" d="M60.7,305.5c8.6-7.6,17.3-5.8,27-4.8C79.3,307.4,70.5,305.5,60.7,305.5z"/>
	<path class="st0" d="M277.5,513.4c11.3,0,20.9,0,30.5,0c0,0.6,0,1.2-0.1,1.8C298.3,516.7,288.7,519.2,277.5,513.4z"/>
	<path class="st0" d="M335.1,234.3c9.9,0,19.9,0,29.8,0c-10.1,0.2-20.2,7-30.3,2.2C334.8,235.8,335,235,335.1,234.3z"/>
	<path class="st0" d="M450.3,317.3c10.3,7.8,20.6,15.6,31,23.5c0.1,0.4,0.1,0.8,0.1,1.2c-10.2-7.4-20.4-14.8-30.5-22.2
		C450.4,319.4,450.5,318.2,450.3,317.3z"/>
	<path class="st0" d="M245.1,101.5c3.4,9.9,9.7,18.9,8.3,30.2C247.6,122.6,247.8,111.6,245.1,101.5z"/>
	<path class="st0" d="M409.2,503.7c3.2-2.1,5.9-5.4,8.3-5.2c6.5,0.5,5.4,6.3,6.5,12.9C418.6,508.6,414.8,506.6,409.2,503.7z"/>
	<path class="st0" d="M158.3,133.2c-13.3-3.5-15-16.2-20.5-26.1C144.6,115.8,151.5,124.5,158.3,133.2z"/>
	<path class="st0" d="M465.1,178.9c12.9,6.3,25.8,12.6,38.8,18.9c-0.3,0.6-0.6,1.2-0.9,1.8c-13-6.2-26-12.4-39-18.6
		C464.3,180.3,464.7,179.6,465.1,178.9z"/>
	<path class="st0" d="M361,119.3c0.3-0.9,0.6-1.8,0.9-2.7c7.1-3.7,14.3-7.5,21.4-11.2c0.3,0.5,0.5,1,0.8,1.5
		c-9.9,6.7-19.8,13.3-29.7,20c-0.3-0.3-0.7-0.6-1-1C355.9,123.6,358.5,121.4,361,119.3z"/>
	<path class="st0" d="M42.3,288.8c9.5-0.7,19-1.3,28.8-2C67.9,293.4,56.2,294,42.3,288.8z"/>
	<path class="st0" d="M255.6,357.1c-1.5-0.9-3.5-1.5-4.5-2.8c-2.9-3.6-5.6-7.5-8.1-11.3c-0.7-1.1-0.8-2.7-1.1-4
		c1.5,0.1,3.9-0.5,4.5,0.3c3.8,5.2,7.3,10.7,10.9,16.1C256.6,356,256.1,356.6,255.6,357.1z"/>
	<path class="st0" d="M172.9,181.1c-8.4-7.5-16.9-15-25.3-22.6c0.5-0.6,1.1-1.3,1.6-1.9c8.5,7.5,17,15,25.5,22.5
		C174.2,179.8,173.5,180.4,172.9,181.1z"/>
	<path class="st0" d="M244.1,395.6c1.4-11.3,4-14.8,14.7-17.4c-5.1,7.1-9.1,12.8-13.2,18.5C245.1,396.4,244.6,396,244.1,395.6z"/>
	<path class="st0" d="M392,346.2c-9.2-3.8-22.3-0.7-26.3-14C374.5,336.8,383.2,341.5,392,346.2z"/>
	<path class="st0" d="M148.8,226.8c12.3-1,24.7-4.3,37.9,2C173.1,228,160.9,227.4,148.8,226.8z"/>
	<path class="st0" d="M135.5,238.6c3.9-1,7.8-2.6,11.8-2.8c8.3-0.3,16.6,0.2,24.9,0.4c0,0.7-0.1,1.5-0.1,2.2c-12.3,0-24.5,0-36.8,0
		L135.5,238.6z"/>
	<path class="st0" d="M355.3,210c12.3-6.1,22.4,1,33.1,3.6C377.6,212.4,366.8,211.3,355.3,210z"/>
	<path class="st0" d="M239.1,279c-2-13.6,12-22.4,26.8-17.6C251.1,257.5,245.1,267.8,239.1,279z"/>
	<path class="st0" d="M318.6,134c-6.3,5.6-12.5,11.2-18.8,16.8c-0.5-0.6-1.1-1.2-1.6-1.9C303,141.5,309.1,135.8,318.6,134z"/>
	<path class="st0" d="M171,247.5c7.4-0.6,14.8-1.3,22.2-1.6c1.8-0.1,3.7,1.4,5.5,2.2c-1.7,0.8-3.5,2.5-5.2,2.4
		c-7.5-0.6-15.1-1.7-22.6-2.6C171,247.8,171,247.6,171,247.5z"/>
	<path class="st0" d="M325.9,119.3c6.1-13.4,21.4-30.1,28.3-32.5C345.7,96.5,336,107.7,325.9,119.3z"/>
	<path class="st0" d="M95.2,266.6c13.1-3.9,26.1-7.8,39.2-11.8c0.3,1.1,0.6,2.2,0.9,3.3C121.9,261,108.6,263.8,95.2,266.6
		C95.2,266.6,95.2,266.6,95.2,266.6z"/>
	<path class="st0" d="M419.1,308.9c-3.9-2.9-7.8-5.9-11.7-8.8c0.1-0.2,0.1-0.5,0.2-0.7c8.3,3.9,16.8,7.5,24.9,11.8
		c5.1,2.7,9.7,6.3,14.5,9.5c-4.2-2.1-8.2-4.4-12.5-6.2C429.5,312.3,424.3,310.7,419.1,308.9z"/>
	<path class="st0" d="M265.9,147.7c5.4-8.9,10.7-17.9,16.1-26.8c0.7,0.4,1.3,0.8,2,1.2c-5.2,9.1-10.4,18.2-15.6,27.4
		C267.6,148.8,266.8,148.2,265.9,147.7z"/>
	<path class="st0" d="M79.3,247.7c5.9,0.7,11.8,1.4,17.6,2.1c1.2,2.3,1.9,5.1-1.9,4.3c-8-1.6-15.8-4-23.4-7.5
		C74.1,247,76.7,247.4,79.3,247.7z"/>
	<path class="st0" d="M313,180.3c-5.7,3.7-11.4,7.4-17.9,11.5c-0.2-2.9-0.3-4.8-0.4-7c6-2.1,11.9-4.1,17.7-6.1
		C312.5,179.3,312.8,179.8,313,180.3z"/>
	<path class="st0" d="M477,242.6c-10.7-4.8-20.7-9.3-31.3-14C451.6,226.9,468.8,234.7,477,242.6z"/>
	<path class="st0" d="M151.2,326.4c-8.7,7.3-17.4,14.7-26.1,22c-0.5-0.5-0.9-1.1-1.4-1.6c8.6-7.4,17.2-14.9,25.9-22.3
		C150.1,325.1,150.7,325.7,151.2,326.4z"/>
	<path class="st0" d="M320.3,360c-4.4-5.4-5.3-10.8-1.7-12.6c1.1-0.5,3.5,0,4.3,0.9C325.4,351,323.7,357.9,320.3,360z"/>
	<path d="M419.1,308.9c5.1,1.8,10.4,3.4,15.4,5.5c4.3,1.8,8.3,4.1,12.5,6.2c-0.4,0.3-0.8,0.7-1.1,1c-3.8,3.2-5.8,0.3-8-2.3
		C431.7,315.9,425.4,312.4,419.1,308.9z"/>
	<path class="st0" d="M272.2,326.2c-5.6-1.1-11.2-2.1-16.7-3.5c-0.5-0.1-1-2.8-0.5-3.3c0.9-0.9,2.8-1.7,3.9-1.3
		c4.7,1.7,9.3,3.9,14,5.9C272.7,324.7,272.4,325.4,272.2,326.2z"/>
	<path class="st0" d="M210,384.7c1.4-7.5,2.5-13.6,3.6-20.1C220.4,368.6,219.6,372.8,210,384.7z"/>
	<path class="st0" d="M398.1,497.6c0.8-0.7,1.6-1.5,3-2.7c-6.9,1.3-13.3,2.5-19.6,3.7c-0.1-0.8-0.3-1.6-0.4-2.4
		c8.9-1.4,17.8-2.8,26.7-4.2c0.2,0.8,0.5,1.7,0.7,2.5c-3.2,1.4-6.4,2.8-9.6,4.3C398.6,498.4,398.4,498,398.1,497.6z"/>
	<path class="st0" d="M261,500.3c10,1.4,20.2,2.9,30.5,4.3C280.3,507.6,271.3,506.3,261,500.3z"/>
	<path class="st0" d="M312.5,330.1c3.9,3.4,7.4,6.6,10.9,9.7c-0.3,0.5-0.5,1-0.8,1.5c-4.9-1.5-9.8-3-15.9-4.8
		C309.1,333.8,310.5,332.2,312.5,330.1z"/>
	<path class="st0" d="M377.5,273.3c4.7,6.5,9.4,13,14.2,19.5c-0.5,0.4-1.1,0.8-1.6,1.3c-5.2-6.1-10.3-12.2-15.5-18.2
		C375.5,275,376.5,274.1,377.5,273.3z"/>
	<path class="st0" d="M73.7,218.2c8.9,0.7,15.9,1.3,23.1,1.8C91.7,225,85.5,224.7,73.7,218.2z"/>
	<path class="st0" d="M486.6,316.7c3.6,8.4,7.3,16.8,10.9,25.2c-0.9,0.4-1.7,0.8-2.6,1.2c-3.3-8.5-6.5-17.1-9.8-25.6
		C485.6,317.3,486.1,317,486.6,316.7z"/>
	<path class="st0" d="M198.4,266.5c-7.8,0.4-15.9,0.9-24.2,1.4C177.5,262.8,190.1,262.2,198.4,266.5z"/>
	<path class="st0" d="M489,196.8c-9.9-4.2-19.9-8.4-29.8-12.5c0.3-0.7,0.6-1.5,1-2.2c9.9,4.4,19.7,8.7,29.6,13.1
		C489.5,195.6,489.2,196.2,489,196.8z"/>
	<path class="st0" d="M63.3,226.3c6.6,1.3,13.1,2.5,19.7,3.8c-8.1,6.9-13.3-1.4-19.9-2.1C63.2,227.4,63.3,226.9,63.3,226.3z"/>
	<path class="st0" d="M239.4,203c-5.1-7.3-1.3-14.7,0-22C239.4,188.3,239.4,195.7,239.4,203z"/>
	<path class="st0" d="M184.9,442.5c7.6,3.7,10.3,8.7,5.8,16.9C188.6,453.1,186.8,447.8,184.9,442.5z"/>
	<path class="st0" d="M143.6,345.1c5.9-6.2,11.9-12.4,17.8-18.6c0.8,0.8,1.5,1.5,2.3,2.3c-6.3,5.8-12.6,11.7-18.9,17.5
		C144.4,345.9,144,345.5,143.6,345.1z"/>
	<path class="st0" d="M292.9,343.9c1.7,5.6,3.1,10.2,4.6,14.8c-0.4,0.3-0.8,0.6-1.2,0.9c-2.3-2.9-4.7-5.9-7.6-9.4
		C289.5,349.2,290.9,347,292.9,343.9z"/>
	<path class="st0" d="M315.3,461c5.3,2.4,9.2,4.3,13.7,6.3c-1.6,0.6-2.6,0.9-3.7,1.3c2.6,1.8,5,3.4,7.8,5.3
		C325.4,473.9,323.1,472.2,315.3,461z"/>
	<path class="st0" d="M220.4,179.8c2.3,8,4.5,15.9,6.8,23.9c-0.8,0.2-1.5,0.4-2.3,0.7c-2.3-7.9-4.6-15.9-6.9-23.8
		C218.9,180.2,219.7,180,220.4,179.8z"/>
	<path class="st0" d="M352.7,326.7c5.2,7.6,10.5,15.2,15.7,22.8c-0.6,0.4-1.1,0.8-1.7,1.2c-5.3-7.5-10.6-15-15.8-22.4
		C351.5,327.7,352.1,327.2,352.7,326.7z"/>
	<path class="st0" d="M344.2,364.3c-5.3-6.4-11.4-12.3-13.4-20.5c0.7-0.4,1.4-0.8,2.1-1.1C336.6,349.8,340.4,357.1,344.2,364.3z"/>
	<path class="st0" d="M141.9,401.6c3.7-7.7,7.4-15.3,11-23c0.8,0.4,1.5,0.7,2.3,1.1c-3.8,7.6-7.6,15.2-11.4,22.7
		C143.2,402.2,142.6,401.9,141.9,401.6z"/>
	<path class="st0" d="M389.8,310.1c-4.3-6.9-8.5-13.7-12.8-20.6C386.1,293.5,387.2,302.3,389.8,310.1z"/>
	<path class="st0" d="M395.9,191.2c-11.8,6-13.2,5.9-17.5-0.6c3,0,5.8-0.1,8.6,0C389.7,190.7,392.4,191,395.9,191.2z"/>
	<path class="st0" d="M228.4,138.6c2.5,6.3,4.9,12.6,7.4,19c-0.8,0.3-1.5,0.6-2.3,0.9c-2.4-6.3-4.9-12.6-7.3-19
		C226.9,139.2,227.6,138.9,228.4,138.6z"/>
	<path class="st0" d="M254.4,185.3c-3.2-7.6,2.7-13,5.4-19.1c-1.1,6.5-2.1,13.1-3.2,19.6C255.8,185.7,255.1,185.5,254.4,185.3z"/>
	<path class="st0" d="M431.5,205.6c7.9,2.9,15.7,5.7,23.6,8.6c-0.2,0.6-0.4,1.1-0.6,1.7c-8-2.4-16.1-4.9-24.1-7.3
		C430.7,207.5,431.1,206.5,431.5,205.6z"/>
	<path class="st0" d="M384.8,223.2c6.6,2.2,13.2,4.3,19.8,6.5c-0.3,0.9-0.6,1.8-0.9,2.7c-6.6-2.3-13.1-4.5-19.7-6.8
		C384.3,224.8,384.5,224,384.8,223.2z"/>
	<path class="st0" d="M364,299.6c4.2,5,8.5,10.1,12.7,15.1c0.1-0.1,0.2-0.3,0.3-0.4c-4.9-4.4-9.8-8.8-14.7-13.2
		C362.8,300.7,363.4,300.2,364,299.6z"/>
	<path class="st0" d="M481.4,342c0-0.4,0-0.8-0.1-1.2c0,0,0.2-0.1,0.2-0.1c1.6,0.4,3.5,0.4,4.6,1.3c4.9,4.2,9.6,8.7,14.4,13.1
		c-0.4,0.5-0.9,0.9-1.3,1.4C493.2,351.7,487.3,346.9,481.4,342z"/>
	<path class="st0" d="M176.5,255.6c6.6,0,13.3,0,19.9,0c0,0.9,0,1.7-0.1,2.6c-6.6-0.4-13.2-0.8-19.8-1.2
		C176.5,256.5,176.5,256,176.5,255.6z"/>
	<path class="st0" d="M333.9,298.6c-5.1-4.7-4.7-13.6,1.2-15.8C334.7,288.2,334.3,293.3,333.9,298.6z"/>
	<path class="st0" d="M135.3,238.5c2.6,0.9,5.3,1.7,9.5,3.1c-8.3,0.8-14.8,1.5-21.4,2.1c-0.1-0.3-0.2-0.5-0.3-0.8
		c4.1-1.4,8.3-2.8,12.4-4.3C135.5,238.6,135.3,238.5,135.3,238.5z"/>
	<path class="st0" d="M247.5,413c-2.2-8.9-0.2-14.6,7.9-19.3c-2.9,7-5.5,13.1-8,19.1C247.4,412.9,247.5,413,247.5,413z"/>
	<path class="st0" d="M50.2,381.5c5.2-4.5,10.4-9.1,15.6-13.6c0.5,0.6,1,1.1,1.5,1.7c-5,4.6-10.1,9.3-15.1,13.9
		C51.5,382.8,50.8,382.2,50.2,381.5z"/>
	<path class="st0" d="M249.8,211.4c-1.6,6.1-3.2,12.1-4.8,18.2C243.9,222.8,242.9,216,249.8,211.4z"/>
	<path class="st0" d="M254.6,469.6c4,7.3,15.8,4.6,18.4,15.5c-7.2-4.9-13.5-9.3-19.8-13.7C253.6,470.9,254.1,470.2,254.6,469.6z"/>
	<path class="st0" d="M238.3,351.2c-7.4-6.6-7.7-9.3-1.7-13.2C237.2,342.7,237.8,347,238.3,351.2z"/>
	<path class="st0" d="M334.7,319c5.6-6,5.1-3.5,12.4,10.4C342.5,325.6,338.8,322.4,334.7,319z"/>
	<path class="st0" d="M248.2,128.3c1.1,7.4,2.1,14.7,3.2,22.1c-0.8,0.1-1.6,0.2-2.5,0.3c-0.8-7.4-1.5-14.8-2.3-22.2
		C247.2,128.4,247.7,128.3,248.2,128.3z"/>
	<path class="st0" d="M109.9,332.1c5.3-3,10.6-6.1,15.9-9.1c0.5,1,1,1.9,1.5,2.9c-5.4,2.6-10.8,5.2-16.2,7.8
		C110.7,333.2,110.3,332.6,109.9,332.1z"/>
	<path class="st0" d="M74.7,322.4c5.6-0.6,11.2-1.2,16.8-1.8c0.1,0.7,0.2,1.5,0.3,2.2c-5.5,0.8-11.1,1.6-16.6,2.3
		C75.1,324.2,74.9,323.3,74.7,322.4z"/>
	<path class="st0" d="M369.9,262.2c-7.1-2.7-14.1-5.3-21.2-8C357.4,252.4,363.5,258,369.9,262.2z"/>
	<path class="st0" d="M183,234.9c-8-1.6-15.9-3.1-23.9-4.7c0.1-0.4,0.1-0.8,0.2-1.3c8.1,1.1,16.1,2.2,24.2,3.4
		C183.3,233.2,183.1,234.1,183,234.9z"/>
	<path class="st0" d="M130.2,365.3c-4.6,4.7-9.2,9.4-13.8,14.1c-0.4-0.4-0.9-0.8-1.3-1.2c4.4-4.9,8.7-9.8,13.1-14.7
		C128.9,364.1,129.5,364.7,130.2,365.3z"/>
	<path class="st0" d="M346.9,222.6c7.8-2.4,15.7-4.7,23.5-7.1c0.1,0.4,0.3,0.8,0.4,1.3c-7.8,2.7-15.5,5.3-23.3,8
		C347.4,224,347.1,223.3,346.9,222.6z"/>
	<path class="st0" d="M150.1,241.3c6.7,0,13.5,0,20.2,0c0,0.8-0.1,1.6-0.1,2.4c-6.8-0.5-13.5-0.9-20.3-1.4
		C150,242,150,241.6,150.1,241.3z"/>
	<path class="st0" d="M299.5,347c3.8,0,7.1-0.5,7.3,0.1c1,3.1,1.3,6.5,1.8,9.7c-0.6,0.2-1.3,0.4-1.9,0.6
		C304.7,354.6,302.7,351.8,299.5,347z"/>
	<path class="st0" d="M315.6,230.1c5.1-2.2,10.3-4.5,15.4-6.7c0.3,0.5,0.5,1,0.8,1.5c-4.8,2.7-9.6,5.4-14.4,8.1
		C316.8,232.1,316.2,231.1,315.6,230.1z"/>
	<path class="st0" d="M139.8,137.1c5.8,4.5,11.5,9,17.3,13.5c-0.4,0.6-0.9,1.1-1.3,1.7c-5.8-4.6-11.6-9.1-17.4-13.7
		C138.9,138.1,139.4,137.6,139.8,137.1z"/>
	<path class="st0" d="M142.7,324.9c-6,3.1-11.9,6.2-17.9,9.3c-0.4-0.7-0.7-1.4-1.1-2.1c6-3.1,12-6.1,17.9-9.2
		C142,323.6,142.3,324.3,142.7,324.9z"/>
	<path class="st0" d="M394.7,313c5.3,3.2,10.5,6.4,15.8,9.6c-0.3,0.5-0.6,1-0.9,1.4c-5.5-2.9-10.9-5.8-16.4-8.7
		C393.7,314.6,394.2,313.8,394.7,313z"/>
	<path class="st0" d="M133.9,144.2c4.7,2.7,9.5,5.5,14.2,8.2c-0.4,0.8-0.8,1.5-1.3,2.3c-5.9-0.6-8.8-6.8-13.9-8.9
		C133.2,145.4,133.5,144.8,133.9,144.2z"/>
	<path class="st0" d="M126.9,306.6c7.2-3.2,14.4-6.5,21.7-9.7c0.3,0.7,0.6,1.4,0.9,2.1c-7.3,3.1-14.6,6.2-21.9,9.2
		C127.4,307.7,127.1,307.1,126.9,306.6z"/>
	<path class="st0" d="M364.8,491.5c-8.5,1.1-15.9,4.5-22.8-1.5C349.3,490.5,356.4,491,364.8,491.5z"/>
	<path class="st0" d="M340.1,61.2c-5.4,3.3-10.8,6.5-17.1,10.4c4.1-8.7,8.9-11.3,17.1-10.2C340.1,61.2,340.1,61.2,340.1,61.2z"/>
	<path class="st0" d="M79.2,183.1c6.3,1.6,12.5,3.3,18.8,4.9c-0.2,0.7-0.4,1.4-0.6,2.1c-6.3-1.6-12.5-3.3-18.8-4.9
		C78.9,184.6,79.1,183.9,79.2,183.1z"/>
	<path class="st0" d="M124.6,196.9c7.1,1.1,14.2,2.2,21.3,3.3c-0.1,0.8-0.3,1.7-0.4,2.5c-7-1.4-14.1-2.9-21.1-4.3
		C124.4,197.8,124.5,197.3,124.6,196.9z"/>
	<path class="st0" d="M306.4,218.4c7-1.4,14.1-2.8,21.1-4.2c0.1,0.5,0.2,1.1,0.4,1.6c-7,1.4-14.1,2.8-21.1,4.3
		C306.7,219.6,306.6,219,306.4,218.4z"/>
	<path class="st0" d="M238.4,220.8c0,5.6,0,11.3,0,16.9c-0.4,0-0.9,0-1.3,0.1c0-5.6,0-11.3,0-16.9
		C237.5,220.8,238,220.8,238.4,220.8z"/>
	<path class="st0" d="M327.3,322.9c0.4,2.9,0.8,5.8,1.6,10.8c-3.6-2.5-5.6-3.9-7.9-5.5c1.8-2.2,3.1-3.8,4.4-5.5
		C326,322.7,326.6,322.8,327.3,322.9z"/>
	<path class="st0" d="M437.5,462.5c5,2.7,10,5.3,15,8c-0.2,0.5-0.4,0.9-0.7,1.4c-5.2-2.2-10.5-4.4-15.7-6.6
		C436.6,464.3,437,463.4,437.5,462.5z"/>
	<path class="st0" d="M369.9,108c-6.7,3.7-13.4,7.3-20.1,11c-0.2-0.5-0.5-0.9-0.7-1.4c6.7-3.6,13.3-7.1,20-10.7
		C369.3,107.3,369.6,107.7,369.9,108z"/>
	<path class="st0" d="M349,316.1c4.5,5.2,9.1,10.4,13.6,15.6c-0.5,0.5-1,1-1.5,1.4c-2.1-2.6-4.2-5.2-6.4-7.7
		c-2.3-2.7-4.8-5.2-7.2-7.9C348.1,317.2,348.6,316.6,349,316.1z"/>
	<path class="st0" d="M36.8,332c5.2-0.8,10.4-1.6,16-2.4c-3.3,4.9-13.8,6.2-15.8,2.2C37,331.8,36.8,332,36.8,332z"/>
	<path class="st0" d="M216.6,200.9c-5.6-5.1-11.1-10.2-16.7-15.3c0.6-0.6,1.1-1.1,1.7-1.7c5.1,5.6,10.2,11.3,15.3,16.9
		C216.8,200.9,216.7,200.9,216.6,200.9z"/>
	<path class="st0" d="M282.5,361.6c-1.9-2.6-3.9-5.2-6.1-8.3C284.4,351.4,284.8,355.4,282.5,361.6z"/>
	<path class="st0" d="M468.5,397.7c-3.6-4.6-7.2-9.3-10.9-13.9C464.9,385.7,466.8,391.8,468.5,397.7z"/>
	<path class="st0" d="M128,165.8c-5.5-2.7-10.9-5.4-16.4-8.2c0.3-0.6,0.6-1.2,0.9-1.9c5.6,2.8,11.2,5.5,16.7,8.3
		C128.9,164.7,128.4,165.2,128,165.8z"/>
	<path class="st0" d="M251.3,488.9c6.5,3,11.4,5.3,16.3,7.7C262.2,495.1,255.3,497.3,251.3,488.9z"/>
	<path class="st0" d="M52.1,310.8c4.3,0,8.6,0,12.9,0c0,0.6,0,1.3,0,1.9c-4.3,0-8.6,0-12.9,0C52.1,312.1,52.1,311.4,52.1,310.8z"/>
</g>
</svg>
