<svg xmlns="http://www.w3.org/2000/svg" viewBox="0 0 566.9 566.9"><style>.st1,.st3{display:inline}.st3{fill:#fff}.st6{fill:#cd4a16}.st7{fill:#f5a680}.st8{fill:#fdc848}.st9{fill:#3c3c3b}.st12{fill:#f9b233}.st23{fill:#010202}</style><g id="Laag_2"><path d="M296.8 9c30.5 0 62.5 19.4 62.5 19.4s10-6.2 22.4-6.2c11.2 0 24.4 5 33.9 24.3 3.9 7.9 5.7 15.2 5.9 22 8.1-4.4 16.8-7.4 25.5-7.4s17.4 3.1 25 11c20.2 21 11.4 40.1-1 54.2.7 1.4 1.3 2.7 1.9 4.1 2.8-1.1 5.6-2 8.1-3 3.7-1.4 7.1-1.9 10.1-1.9 5.8 0 9.6 1.9 9.6 1.9 30.7 11.3 20.7 44.4 20.7 44.4 8.7 9.9 13.7 16.9 16.9 22.7.3.5.5 1 .8 1.5 0 .1.1.2.1.3.2.4.4.9.6 1.3 0 .1.1.2.1.2.5 1 .9 2 1.2 2.9.2.4.3.9.5 1.3 0 .1.1.2.1.2.1.4.3.8.4 1.2 0 .1 0 .1.1.2.3.9.5 1.8.8 2.7v.1l.3 1.2c0 .1 0 .2.1.3.1.4.2.8.2 1.2v.2c.2.9.4 1.9.5 2.8v.2l.3 1.5c.1.3.1.6.2.9 0 .2.1.4.1.6l.3 1.5c7.1 37.4-39.5 49.3-39.5 49.3v-4.2c0-.5 0-1-.1-1.5 0-.8-.1-1.7-.1-2.5 0-.6-.1-1.2-.1-1.8-.1-.7-.1-1.4-.2-2.1-.1-.7-.2-1.3-.2-2-.1-.6-.1-1.2-.2-1.8-.1-.7-.2-1.4-.3-2l-.3-1.5c-.1-.7-.3-1.4-.4-2.1-.1-.4-.2-.9-.3-1.3-.2-.7-.4-1.4-.5-2.2-.1-.4-.2-.7-.3-1.1-.2-.7-.4-1.5-.7-2.2l-.3-.9c-.3-.8-.5-1.5-.8-2.2-.1-.2-.2-.5-.3-.7-.3-.8-.6-1.5-.9-2.2-.1-.2-.2-.4-.2-.6-.3-.8-.7-1.5-1-2.2-.1-.1-.1-.3-.2-.4-.4-.8-.8-1.5-1.2-2.2-.1-.1-.1-.2-.2-.3-.4-.8-.8-1.5-1.3-2.2 0-.1-.1-.1-.1-.2-.5-.7-.9-1.5-1.4-2.2l-.1-.1-1.5-2.1v-.1c-.5-.7-1.1-1.4-1.6-2.1-9.3-11.4-21.3-17.1-30.9-19.2-.7-.2-1.5-.2-2.3-.2-10.5 0-29.6 12.4-46 24.6 13.7 18.4 13.4 28.1 11.8 32.3 8 17.9 38.3 91.7 19.9 148.2-1.3 4-2.8 7.9-4.7 11.7-.1.3-.3.5-.4.8-.5.9-.9 1.9-1.4 2.8-.2.4-.4.7-.6 1.1-.5.8-.9 1.6-1.4 2.5-.2.4-.5.8-.7 1.2-.5.8-1 1.5-1.5 2.3-.3.4-.5.8-.8 1.2-.5.8-1.1 1.6-1.7 2.3-.2.3-.5.7-.7 1-.8 1.1-1.7 2.2-2.6 3.3-22.4 26.6-48.9 33-76.3 33.8-1.9.1-3.9.1-5.8.1h-.3c-4.1 0-8.1-.1-12.2-.3-2-.1-4.1-.2-6.1-.3-1-.1-2-.1-3.1-.2-3.1-.2-6.1-.3-9.2-.5-1-.1-2-.1-3-.2-2-.1-4.1-.2-6.1-.3s-4-.2-6-.2c-2.4-.1-4.7-.1-7.1-.1-3.6 0-7.2.1-10.8.3-3.9.2-7.8.6-11.6 1.2-1.9.3-3.8.6-5.7 1-7.5 1.5-14.8 3.9-21.8 7.6l-6.7 8.1s-6 5.5-18.9 5.5c-6.7 0-15.2-1.5-25.6-6 0 0-14.6 19.3-9.7 31.3 4.9 12.1 14.7 29 16.1 35.3.7 3.3-.5 5.4-2.5 5.4-1.7 0-4-1.6-6.1-5.4-3-5.5-10.2-10.8-13.4-10.8-1.5 0-2.2 1.2-1.2 4.1 2.6 7.5 4.3 16.9.3 16.9-.8 0-1.8-.4-3-1.2-7.6-4.9-10.7-36.2-15.6-41.1-4.9-4.9-10.7-14.3-1.8-24.1 8.9-9.8 22.4-18 22.4-18-7.4-4.5-15.5-10.4-24.4-17.9-.8 2.4-10.8 30.2-17.9 34.6-7 4.4-28 18.6-37.8 18.6-.6 0-1.1 0-1.6-.2-8.9-1.8 11.1-12.3 6.6-13.8-.5-.2-1.2-.3-2.1-.3-4.1 0-11 1.9-14.8 1.9-1.8 0-2.9-.4-2.7-1.6.6-4.3 25.8-20.3 39.3-20.9 11.9-.5 18.5-23 19.9-28.2-.5-.4-.9-.9-1.4-1.3-6.8-6.5-12.7-12.6-17.8-18.3-4.5 4.8-12.9 14.6-18.3 23-2 3.1-4.5 4.2-7.4 4.2-5.8 0-13.5-4.1-23.6-4.1-1.7 0-3.5.1-5.3.4-1.8.3-3.6.4-5.3.4-14.9 0-23.1-9.6-16.3-10.6 7.6-1 16-5.7 5.5-5.8-10.5-.1-11.5-6.6-11.5-6.6-.7-3.3 1.6-4.4 5.6-4.4 8.5 0 24.9 5.2 36.1 5.2 2.5 0 4.7-.3 6.6-.9 12.2-4.2 20.3-8.9 24.7-11.8-6.1-7.6-10.6-14.5-14.1-20.6-14.4 17.5-12.5 22.7-22.4 24h-.7c-10.5 0-38.7-27.6-44.9-38-6.3-10.6.4-19.2 3.5-19.6h.1c3.2 0 5.9 11.9 8 11.9.6 0 1.2-1 1.7-3.6 2.2-11.4 4.3-14.3 5.9-14.3 1.7 0 2.7 3.4 2.7 3.4S63.9 392 74 392.3h.4c9.9 0 15.9-13.7 15.9-13.7-4.7-15.8.3-22.8.3-22.8L275.7 119c1-.8 2.3-1.4 4.2-1.4 5.1 0 14.3 3.7 31.9 16 30.8-48.4 12.8-57 12.8-57-11.1-7.9-21-13.1-29.6-16.3-8.9-3.3-16.6-4.6-23.1-4.6-14.7 0-23.4 6.4-26.8 9.6l-.9.9c-.2.2-.4.5-.5.6-.1.1-.1.1-.1.2.2-1.5.4-2.9.6-4.3.1-.4.1-.9.2-1.3.2-.9.3-1.9.5-2.8.1-.5.2-.9.3-1.4.2-.9.4-1.7.5-2.6.1-.4.2-.9.3-1.3.2-1 .5-1.9.7-2.8.1-.3.1-.5.2-.8.3-1.2.7-2.3 1-3.4l.3-.9c.3-.8.5-1.6.8-2.4.1-.4.3-.7.4-1.1.3-.7.5-1.3.8-2 .2-.4.3-.7.5-1.1.3-.7.6-1.3.9-2 .1-.3.3-.6.4-.9.5-.9.9-1.8 1.4-2.6.1-.1.2-.3.3-.4l1.2-2.1c.2-.3.4-.6.6-.8.3-.5.7-1 1-1.5l.6-.9c.3-.5.7-.9 1.1-1.4.2-.3.4-.5.6-.8.4-.5.9-1 1.3-1.5.1-.1.3-.3.4-.5l1.8-1.8c.2-.2.4-.4.7-.6.4-.4.8-.7 1.2-1.1.3-.2.5-.4.8-.7l1.2-.9c.3-.2.5-.4.8-.6l1.2-.9c.3-.2.5-.3.8-.5.6-.4 1.3-.8 2-1.2.3-.1.5-.3.8-.4.4-.2.9-.5 1.3-.7.3-.2.6-.3 1-.5s.8-.4 1.2-.5c.3-.1.7-.3 1-.4.4-.2.8-.3 1.2-.5.3-.1.7-.2 1-.4.5-.2.9-.3 1.4-.4.5-.2 1-.3 1.5-.4.5-.1.9-.3 1.4-.4.4-.1.7-.2 1.1-.3.4-.1.8-.2 1.1-.2.4-.1.8-.1 1.2-.2.4-.1.7-.1 1.1-.2.4-.1.8-.1 1.2-.2.4-.1.8-.1 1.1-.1 2.2-.2 4.7-.3 7.2-.3m60 159.6l30.1-29.9c-2.5-6.8-3.4-13.1-3.4-18.8-11.7 3-28.4 1-36.5 3.7-3.5 1.2-12.2 9.8-21.5 19.8 8.8 6.7 19.2 15 31.3 25.2m45.9 42.8c10.8-10 22.2-21.4 30.6-31.9 1.8-5.8 2.1-12.4-1.6-18.4-.3-.5-.6-1-1-1.5-.9-1.2-1.9-2.3-3.1-3.5h-.4c-6.5 0-11.4-2.6-16.3-2.6-.8 0-1.6.1-2.3.2-4.7.9-20.4 14.1-36.2 28.1 13 11.4 22.8 21.2 30.3 29.6M279 429.4c.9-.2 2-.5 3.4-.8.9-.2 1.9-.5 3-.7.7-.2 1.5-.3 2.3-.5 1.1-.2 2.3-.5 3.5-.7 1-.2 2-.4 3.1-.6 4.5-.8 9.6-1.7 14.9-2.3.2 0 .4-.1.6-.1 1.7-.2 3.4-.4 5.1-.5l3.3-.3c3.3-.2 6.6-.4 9.9-.4h1.3c1.9 0 3.7.1 5.5.2.9.1 1.8.1 2.7.2 2.6.3 5.2.7 7.6 1.3 3.1.8 6.4 1.3 9.7 1.3 23.1 0 48.6-24.9 63.4-164.3L279 429.4M296.8 4c-2.8 0-5.5.2-8 .4h-.2c-.4 0-.7.1-1.1.1-.4.1-.9.1-1.3.2s-.8.1-1.2.2c-.4.1-.9.2-1.3.2l-1.2.3h-.2c-.3.1-.7.1-1 .2-.5.1-1 .3-1.5.4-.6.2-1.2.3-1.7.5s-1 .3-1.5.5l-.9.3-.2.1c-.4.2-.9.3-1.3.5s-.7.3-1.1.5c-.4.2-.9.4-1.3.6h-.1c-.3.1-.6.3-1 .5-.5.2-1 .5-1.5.8l-.2.1-.6.3c-.7.4-1.4.8-2.2 1.3-.2.1-.4.3-.6.4l-.2.2c-.5.3-.9.6-1.4 1-.3.2-.6.4-.9.7-.5.3-.9.7-1.3 1-.3.2-.6.5-.9.7-.5.4-.9.8-1.3 1.2l-.2.2c-.2.2-.4.3-.5.5l-2 2c-.1.1-.2.2-.3.4l-.1.1c-.6.6-1 1.2-1.5 1.7-.2.2-.4.4-.5.7l-.2.2-1.2 1.5c-.2.3-.5.6-.7 1-.4.5-.7 1-1.1 1.6l-.1.2c-.2.2-.3.5-.5.7-.4.7-.9 1.4-1.4 2.2l-.1.1c-.1.1-.1.2-.2.4-.5.9-1 1.8-1.5 2.9l-.3.6-.1.3c-.4.8-.7 1.5-1 2.1-.2.4-.3.8-.5 1.2l-.9 2.1-.1.1c-.1.3-.3.7-.4 1-.3.8-.6 1.6-.9 2.5l-.1.3c-.1.2-.1.4-.2.6-.4 1.2-.7 2.4-1.1 3.6 0 .2-.1.4-.1.6l-.1.3c-.3 1.1-.5 2-.8 3-.1.4-.2.7-.2 1.1l-.1.3-.6 2.7-.3 1.5c-.2.9-.3 1.8-.5 2.9l-.1.4c-.1.3-.1.6-.1.9-.2 1.6-.4 3-.6 4.4l-2 17.3L247.2 70l.1-.1.4-.4c.2-.3.5-.5.7-.7 2.6-2.5 10.2-8.3 23.4-8.3 6.6 0 13.8 1.4 21.3 4.3 8.9 3.3 18.5 8.6 28.5 15.7l.6.4h.1c.6.5 2.5 2.4 2.5 7.9 0 6.3-2.6 17.9-14.5 37.5-18.5-12.4-26.2-13.9-30.4-13.9-3 0-5.5.9-7.5 2.6l-.4.3-.3.4L86.6 352.5l-.1.1-.1.1c-.6.9-5.8 8.9-1.6 25.2-1.9 3.4-6 9.2-10.6 9.2H74s-3.8-.7-10.7-14c-3.8-7.2-6.5-14.3-6.9-15.3-1.4-4.2-4.1-6.7-7.4-6.7-4.4 0-7 3.8-8.9 10.4-1.6-2.5-3.7-4.5-6.7-4.5h-.7c-3.3.4-6.6 3.2-8.7 7.3-3 6.1-2.5 13.3 1.4 19.8 3.4 5.7 12.4 15.6 21.8 24 7.3 6.6 13.6 11.2 18.7 13.8-1.6-.3-3.3-.6-4.9-1-6.3-1.3-12.2-2.5-16.7-2.5-1.6 0-6.2 0-8.9 3.3-1.1 1.3-2.2 3.6-1.5 7.1.2 1 1.4 5.3 6.1 8.1-1.9 1.5-2.7 3.7-2.6 5.8.4 6.3 10.1 13.1 23.7 13.1 2 0 4-.1 6-.4 1.5-.2 3-.3 4.6-.3 5.1 0 9.7 1.2 13.7 2.3 3.5.9 6.7 1.8 9.9 1.8 4.9 0 8.8-2.2 11.6-6.4 4-6.2 9.8-13.3 14.1-18.2 4.2 4.5 8.8 9.1 13.6 13.8-3.3 11-9.1 21.4-14.4 21.7-9.5.4-21.8 7-26.7 9.7-4.2 2.4-8 5-10.9 7.3-4.1 3.3-6 5.7-6.3 8.2-.3 1.8.2 3.6 1.4 4.9 2.1 2.4 5.2 2.4 6.3 2.4 1.6 0 3.5-.2 5.6-.6-2 2.3-3.2 4.8-2.5 7.6.4 1.5 1.7 4.2 6.1 5.1.8.2 1.7.3 2.6.3 9.4 0 24.3-9.1 37.6-17.5 1.1-.7 2.1-1.3 2.9-1.8 2.5-1.5 6.5-5.3 13.2-20.2 1.6-3.7 3.1-7.3 4.3-10.2 4.4 3.5 8.8 6.8 13 9.7-.5.4-1.1.8-1.7 1.2-6.2 4.5-11.4 9-15.3 13.4-8.5 9.4-7.8 21.3 1.9 31 1.3 1.6 3.3 9.4 4.6 14.6 3.6 14.1 6.3 23.6 11.9 27.2 2 1.3 3.9 2 5.7 2 2.3 0 4.4-1.1 5.7-2.9 2.3-3.3 1.9-8.9.6-14.4 1.4 1.3 2.8 2.9 3.7 4.6 3.8 7 8.2 8 10.5 8 2.3 0 4.4-1 5.8-2.7 1.8-2.2 2.3-5.3 1.6-8.7-.9-4.1-4.3-11-8.3-19.1-2.9-5.9-5.9-11.9-8-17.1-2.6-6.4 3-17.2 6.9-23.3 8.4 3.2 16.4 4.9 23.8 4.9 14.4 0 21.5-6.1 22.3-6.8l.3-.2.2-.3 6.1-7.3c6-3 12.4-5.2 19.6-6.7 1.8-.4 3.6-.7 5.4-.9 3.5-.5 7.2-.9 11.2-1.1 3.3-.2 6.7-.3 10.5-.3 2.2 0 4.5 0 6.9.1 1.9 0 3.8.1 6 .2l6 .3c1 .1 2 .1 3 .2l4 .2c1.7.1 3.4.2 5.2.3 1 .1 2.1.1 3.1.2 2.1.1 4.1.2 6.2.3 4.6.2 8.7.3 12.4.3h.3c2 0 4.1 0 6-.1 23.8-.6 54.4-5.3 80-35.6.9-1.1 1.8-2.2 2.8-3.4.2-.2.4-.5.5-.7l.3-.4c.5-.7 1.1-1.6 1.8-2.5.2-.3.4-.6.6-1l.2-.3c.6-.9 1.1-1.7 1.6-2.4.3-.4.5-.8.8-1.3.5-.8 1-1.7 1.5-2.6l.1-.1c.2-.3.4-.7.5-1 .5-.9 1-1.9 1.5-3l.1-.3c.1-.2.2-.4.3-.5 1.9-3.9 3.5-8 4.9-12.3 8.1-24.9 8.2-55.6.1-91.2-6-26.7-15.1-49.1-19.4-58.9 2.1-9.5-3.7-21.3-10.2-30.9 12.1-8.8 30.1-20.7 39-20.7.5 0 .9 0 1.2.1 5 1.1 17.8 5 28.1 17.5.5.6 1 1.2 1.5 1.9.5.6.9 1.3 1.4 2l.1.1c.4.7.9 1.3 1.3 2v.1l.1.1c.4.7.8 1.4 1.2 2l.1.1.1.2c.4.7.7 1.4 1.1 2.1l.1.2.1.2c.4.8.7 1.4 1 2.1 0 .1.1.2.1.3l.1.3c.3.8.6 1.5.8 2.1 0 .1.1.2.1.4l.1.3c.2.6.5 1.3.7 2.1 0 .1.1.3.1.5l.1.4c.2.7.4 1.4.6 2 .1.2.1.4.2.6l.1.4v.1c.2.6.3 1.3.5 2 .1.2.1.5.2.7l.1.5.1.3c.1.6.2 1.1.4 1.7.1.3.1.6.2.9l.1.5.1.5c.1.5.2 1 .2 1.5.1.4.1.7.1 1.1l.1.6.1.6c.1.4.1.8.2 1.3 0 .4.1.9.1 1.4v.6l.1.6c0 .4.1.7.1 1.1 0 .6.1 1.3.1 1.9v5.9l-.1 6.5 6.3-1.6c.5-.1 12.7-3.3 24.1-11.4 15.8-11.2 22.4-26.3 19.1-43.7l-.3-1.5-.1-.5v-.1l-.1-.3-.1-.7-.3-1.5v-.2c-.2-1-.4-2-.6-2.9v-.2l-.3-1.2V207.3c-.1-.4-.2-.9-.3-1.3v-.1c-.3-1-.5-2-.8-3v-.2c-.1-.4-.3-.9-.4-1.3v-.1l-.1-.2c-.2-.5-.3-1-.5-1.5-.4-1-.9-2.1-1.4-3.2l-.1-.2v-.1c-.2-.5-.4-.9-.7-1.4v-.1l-.1-.2c-.3-.5-.5-1.1-.8-1.6-3.3-6-8.3-12.9-15.8-21.6.7-3.5 1.7-10.1.7-17.3-1.4-10.2-6.9-23.6-24.9-30.4-1.2-.5-5.5-2.3-11.5-2.3-3.6 0-7.1.6-10.6 1.8 4.6-6.7 7.3-13.2 8.2-19.9 1.6-11.8-2.8-23.2-13.1-33.8-8-8.3-17.6-12.5-28.6-12.5-6.7 0-13.9 1.6-21.3 4.8-1-5.5-2.9-11.1-5.6-16.6-11.1-22.3-27-27-38.4-27-9.8 0-18.2 3.4-22.3 5.5C351 18 323.7 4 296.8 4zm36.1 138.8c11.9-12.5 15.1-14.2 15.7-14.5 3.3-1.1 9-1.3 15.2-1.5 4.8-.2 10-.3 15-1 .4 3.8 1.2 7.7 2.4 11.5l-24.6 24.5c-8.6-7.1-16.5-13.4-23.7-19zm76.6 15.8c.4-.1.8-.1 1.3-.1 1.6 0 3.5.5 5.7 1 2.6.6 5.5 1.4 8.8 1.6l1.2 1.5c.3.4.5.7.7 1.1v.1c2.3 3.7 2.7 8.3 1.3 13.4-6.4 7.9-15 17-25.8 27.1-6.5-7-14.2-14.5-23.1-22.4 23.6-20.7 29-23 29.9-23.3zM292.1 421.4l119.3-144.1c-6.5 53.8-15.3 92.9-26.3 116.1-11.4 24.2-22.7 27-30.3 27-2.6 0-5.4-.4-8.5-1.1-2.5-.6-5.3-1.1-8.2-1.4-.9-.1-1.9-.2-2.9-.2-1.9-.1-3.8-.2-5.8-.2H328c-3.2 0-6.7.1-10.3.4-1.1.1-2.3.2-3.4.3-1.7.2-3.5.3-5.3.6l-.7.1c-4.9.6-10 1.4-15.2 2.4-.2-.1-.6 0-1 .1zm-212.6 2.4c5.9-1.7 8.4-5.5 11.9-10.8 1.5-2.3 3.3-5.1 5.9-8.6 2.2 3.4 4.6 6.9 7.3 10.4-4.5 2.6-10.7 5.6-18.9 8.4-1.2.4-2.9.6-5 .6h-1.2z"/><path class="st12" d="M90.2 378.4s-6.2 14.1-16.3 13.7c-10.1-.3-22.2-32.6-22.2-32.6s-3.9-12.6-8.6 11c-2.3 11.6-5.7-8.8-9.9-8.4-3.1.3-9.9 9-3.5 19.6s35.7 39.2 45.6 37.9c9.9-1.2 8-6.4 22.4-24 0 0-4.4-11.4-7.5-17.2z"/><path class="st12" d="M115.6 413.3s-9.1 8-28.4 14.6c-14 4.8-50.6-11.9-48.2 0 0 0 1 6.5 11.5 6.6 10.5.1 2.1 4.8-5.5 5.8s3.3 12.8 21.6 10.2c18.2-2.7 29.6 9.9 36.3-.5s18.1-23 20.7-25.5c-.1.1-7.1-9.4-8-11.2zM140.6 445.7s-6.7 28.6-20.1 29.3-38.7 16.6-39.3 20.9 15.1-1.5 19.5 0-15.5 12-6.6 13.8c8.9 1.8 32-13.8 39.4-18.5 7.4-4.6 17.9-34.8 17.9-34.8l-10.8-10.7zM190.3 482.3s-14.6 19.3-9.7 31.3c4.9 12.1 14.7 29 16.1 35.3s-4.1 8.1-8.5 0-17.8-15.8-14.7-6.8c3.1 9 4.9 20.6-2.7 15.7-7.6-4.9-10.7-36.2-15.6-41.1s-10.7-14.3-1.8-24.1 22.4-18 22.4-18l14.5 7.7z"/><linearGradient id="SVGID_1_" gradientUnits="userSpaceOnUse" x1="305.366" y1="317.378" x2="388.544" y2="461.446"><stop offset="0" stop-color="#4fae32"/><stop offset=".093" stop-color="#4ca932"/><stop offset=".229" stop-color="#459c30"/><stop offset=".391" stop-color="#39862d"/><stop offset=".572" stop-color="#296a26"/><stop offset=".77" stop-color="#14481a"/><stop offset=".979" stop-color="#001e02"/><stop offset="1" stop-color="#001900"/></linearGradient><path d="M421.4 250.4s58.5 119.2 5.3 182.3-129.2 12.8-185.1 41.9l35-44.6s43.3-12 68.7-5.9c25.4 6.1 56.5-3.9 73.4-166.1l2.7-7.6z" fill="url(#SVGID_1_)"/><linearGradient id="SVGID_2_" gradientUnits="userSpaceOnUse" x1="282.296" y1="403.989" x2="404.11" y2="474.318"><stop offset="0" stop-color="#6db52d"/><stop offset=".15" stop-color="#60a631"/><stop offset=".448" stop-color="#3f8235"/><stop offset=".859" stop-color="#10502d"/><stop offset="1" stop-color="#004028"/></linearGradient><path d="M276.5 430l-35 44.6c55.9-29.1 131.9 21.1 185.1-41.9 7.6-9 13-19.2 16.5-30.1-44.2 42.2-97.9 21.5-97.9 21.5-25.4-6-68.7 5.9-68.7 5.9z" fill="url(#SVGID_2_)"/><linearGradient id="SVGID_3_" gradientUnits="userSpaceOnUse" x1="423.98" y1="187.544" x2="273.737" y2="187.544"><stop offset="0" stop-color="#bf9509"/><stop offset="1" stop-color="#6a5c19"/></linearGradient><path d="M275.7 118.7s-17.5 33.2 52.9 90.2 93 48.4 93 48.4 19.6-16.3-51.7-77.6-88.8-65.6-94.2-61z" fill="url(#SVGID_3_)"/><linearGradient id="SVGID_4_" gradientUnits="userSpaceOnUse" x1="370.445" y1="195.858" x2="545.713" y2="195.858"><stop offset="0" stop-color="#f7af81"/><stop offset=".285" stop-color="#f5ae80"/><stop offset=".439" stop-color="#f0ab7e"/><stop offset=".561" stop-color="#e6a57b"/><stop offset=".666" stop-color="#d89c76"/><stop offset=".761" stop-color="#c5906f"/><stop offset=".849" stop-color="#ad8065"/><stop offset=".928" stop-color="#916c56"/><stop offset=".999" stop-color="#705444"/></linearGradient><path d="M382.3 245.9s58.6-52.3 77.4-48.2 46.5 22.1 45.8 68.5c0 0 46.6-11.9 39.5-49.3-2.7-14.1-2.5-21-23.6-45.2 0 0 10-33.1-20.7-44.4 0 0-8.5-4.2-19.7 0s-25.7 6.7-36.5 34.3c-10.8 27.6-74 77.5-74 77.5l11.8 6.8z" fill="url(#SVGID_4_)"/><linearGradient id="SVGID_5_" gradientUnits="userSpaceOnUse" x1="321.877" y1="138.979" x2="483.971" y2="138.979"><stop offset="0" stop-color="#f7af81"/><stop offset=".285" stop-color="#f5ae80"/><stop offset=".439" stop-color="#f0ab7e"/><stop offset=".561" stop-color="#e6a57b"/><stop offset=".666" stop-color="#d89c76"/><stop offset=".761" stop-color="#c5906f"/><stop offset=".849" stop-color="#ad8065"/><stop offset=".928" stop-color="#916c56"/><stop offset=".999" stop-color="#705444"/></linearGradient><path d="M334.4 216.9s63.8-61.2 74.1-63.2c10.3-2 19.6 11.1 42.2-8.8 13.2-11.6 53-40 21.2-72.9s-80.7 17.6-84.4 27.4-6.6 23-.6 39.2l-65 64.7 12.5 13.6z" fill="url(#SVGID_5_)"/><linearGradient id="SVGID_6_" gradientUnits="userSpaceOnUse" x1="246.613" y1="44.605" x2="393.948" y2="129.669"><stop offset="0" stop-color="#f7af81"/><stop offset=".285" stop-color="#f5ae80"/><stop offset=".439" stop-color="#f0ab7e"/><stop offset=".561" stop-color="#e6a57b"/><stop offset=".666" stop-color="#d89c76"/><stop offset=".761" stop-color="#c5906f"/><stop offset=".849" stop-color="#ad8065"/><stop offset=".928" stop-color="#916c56"/><stop offset=".999" stop-color="#705444"/></linearGradient><path d="M295.1 178.2s42.9-51.6 51.9-54.6 28.5-.3 40.1-4.9c11.6-4.6 48.6-31.8 28.5-72.3-20.2-40.4-56.3-18-56.3-18s-104.2-63.2-116 38.5c0 0 24.2-31.2 81.2 9.5 0 0 26 12.5-38 91.5l8.6 10.3z" fill="url(#SVGID_6_)"/><linearGradient id="SVGID_7_" gradientUnits="userSpaceOnUse" x1="398.202" y1="147.075" x2="477.686" y2="147.075"><stop offset="0" stop-color="#f7af81"/><stop offset=".285" stop-color="#f5ae80"/><stop offset=".439" stop-color="#f0ab7e"/><stop offset=".561" stop-color="#e6a57b"/><stop offset=".666" stop-color="#d89c76"/><stop offset=".761" stop-color="#c5906f"/><stop offset=".849" stop-color="#ad8065"/><stop offset=".928" stop-color="#916c56"/><stop offset=".999" stop-color="#705444"/></linearGradient><path d="M409 107.9c5.6-4.7 37.9-24.1 57.9 10.8 19.9 35 15.9 51.3-42.9 77.1 0 0 26.4-29.4-4.4-45.1-30.7-15.6-22.8-32.6-10.6-42.8z" fill="url(#SVGID_7_)"/><linearGradient id="SVGID_8_" gradientUnits="userSpaceOnUse" x1="240.582" y1="62.113" x2="310.445" y2="21.777"><stop offset="0" stop-color="#f5e719"/><stop offset="1" stop-color="#726f05"/></linearGradient><path d="M290.5 9.3c-22.2 2.1-42.3 16.1-47.2 57.6 0 0 15.7-20.2 51.6-6.8 3.9-1.6 18.3-9.8 18.3-26.8-.1-11.4-8.2-24-22.7-24z" fill="url(#SVGID_8_)"/><linearGradient id="SVGID_9_" gradientUnits="userSpaceOnUse" x1="490.553" y1="240.367" x2="546.221" y2="208.227"><stop offset="0" stop-color="#f5e719"/><stop offset="1" stop-color="#726f05"/></linearGradient><path d="M545 216.9c-1.7-8.8-2.3-14.9-7.7-24.1-15.8-11.9-39.6 3.9-44.7 15.5-1.3 2.9-1.9 5.8-2 8.6 8.8 10.8 15.3 26.7 14.9 49.3 0 0 46.6-11.9 39.5-49.3z" fill="url(#SVGID_9_)"/><linearGradient id="SVGID_10_" gradientUnits="userSpaceOnUse" x1="413.955" y1="178.494" x2="477.114" y2="142.03"><stop offset="0" stop-color="#f5e719"/><stop offset="1" stop-color="#726f05"/></linearGradient><path d="M476.8 141.5c-6.6-13.5-23.1-11.9-33.7-5.1-11.5 7.2-12.1 17.7-12.4 23.2 11.7 15.9-6.6 36.3-6.6 36.3 44.3-19.5 57.4-33.6 52.7-54.4z" fill="url(#SVGID_10_)"/><ellipse transform="rotate(-47.133 372.525 42.337)" class="st23" cx="372.5" cy="42.3" rx="6.9" ry="4.8"/><linearGradient id="SVGID_11_" gradientUnits="userSpaceOnUse" x1="149.83" y1="252.916" x2="355.479" y2="371.647"><stop offset="0" stop-color="#ffeb41"/><stop offset="1" stop-color="#4f561f"/></linearGradient><path d="M90.6 355.6s-18.4 25.9 48.3 89.9 95.9 37.3 95.9 37.3l186.7-225.5s-22.7 8.6-93-48.4-52.9-90.2-52.9-90.2l-185 236.9z" fill="url(#SVGID_11_)"/><ellipse transform="rotate(-70.367 435.117 90.864)" class="st23" cx="435.1" cy="90.9" rx="6.9" ry="4.8"/><ellipse transform="rotate(-52.468 464.436 102.964)" class="st23" cx="464.5" cy="103" rx="6.9" ry="4.8"/><ellipse transform="rotate(-48.519 509.557 160.126)" class="st23" cx="509.6" cy="160.1" rx="6.9" ry="4.8"/></g></svg>