<svg xmlns="http://www.w3.org/2000/svg" viewBox="0 0 554.23 510.7"><defs><radialGradient id="a" cx="294.85" cy="322.1" r="183.21" gradientUnits="userSpaceOnUse"><stop offset="0" stop-color="#5f360d"/><stop offset="1" stop-color="#4b2a05"/></radialGradient><radialGradient id="b" cx="273.52" cy="256" r="259.24" gradientUnits="userSpaceOnUse"><stop offset="0" stop-color="#6f4013"/><stop offset="1" stop-color="#58320a"/></radialGradient></defs><circle cx="277.15" cy="256.03" r="170.08" fill="none"/><circle cx="294.85" cy="322.1" r="183.21" fill="url(#a)"/><path d="M507.06 271.53h34.91C530.33 53.54 406.74 30 406.74 30c4.48 20.6 0 28.66 0 28.66C371.81 16.57 286.24 6.3 286.24 6.3c13.25 18.81 6.9 32 6.9 32-77.26-28.74-124.61-11.53-124.61-11.53C193.11 37.45 188 53.35 188 53.35c-76.4 0-117 38.14-117 38.14 31 0 29.5 21.74 29.5 21.74-73.34 34-77.66 56.1-77.66 57.48 37.38-13.86 36.64 4.61 36.64 4.61-54.11 54.16-54.41 96.16-54.41 96.16 30.45-19.58 33.84 0 33.84 0C38.91 505.65 273 505.6 273 505.6c10.1 0 19.75.4 29-.43-64-6.61-118.23-47-145.43-102.25-27.45-54.37-18.76-184.27 155.2-184.27 121.16 0 175.67 52.8 189.06 68.28z" fill="url(#b)"/><ellipse cx="524.62" cy="288.74" rx="24.51" ry="27.78" transform="rotate(-9.88 524.679 288.786)" fill="#d8774d"/><path d="M462.52 193.92s-24.49-20.34-12-38.8 38.11 2.72 42.22 20.2-10.25 32.16-30.22 18.6z"/><path d="M477.21 193.46s-6.47-6-2.47-10 10.42 2.87 10.42 6.7-4.47 6.84-7.95 3.3z" fill="#fff"/><path d="M286.24 6.3s85.57 10.27 120.5 52.36c0 0 4.48-8.06 0-28.66 0 0 123 23.43 135.13 239.83a30.36 30.36 0 0 1 6.9 14.7c2.63 15.12-6 29.26-19.39 31.58a21.68 21.68 0 0 1-3.75.33c-11.93 0-22.78-9.8-25.16-23.49a31.14 31.14 0 0 1-.44-6.9c-5.35-6.05-16.1-16.72-33.43-27.81a182.71 182.71 0 0 1 11.45 63.86c0 98.82-78.25 179.35-176.16 183h.09c-4.74.42-9.58.53-14.54.53-4.72 0-9.53-.1-14.46-.1-.2 0-234.07-.05-234.07-234.07 0 0-1.51-8.74-11.56-8.74-5 0-12.15 2.17-22.28 8.69 0 0 .3-42 54.46-96.16 0 0 .39-9.77-13.76-9.77-5.31 0-12.68 1.38-22.88 5.16 0-1.38 4.32-23.5 77.66-57.48 0 0 1.49-21.74-29.5-21.74 0 0 40.59-38.14 117-38.14 0 0 5.07-15.9-19.51-26.58 0 0 14-5.11 39.32-5.11 21.14 0 50.12 3.57 85.29 16.66 0 0 6.35-13.21-6.9-32M275.68 0l6.47 9.18c7 10 7.86 17.91 7.45 22.54-28.39-10-55.86-15.06-81.75-15.06s-40.43 5.19-41 5.41L155 26.35l11.5 5c13.32 5.79 16.35 12.88 16.86 17-22.18.46-53.51 4.43-84.67 19.52-20.13 9.8-30.63 19.57-31.06 19.98l-9.2 8.64h12.62c9.51 0 16.4 2.17 20.48 6.44a14.63 14.63 0 0 1 3.76 7.25C65.75 124.09 44 137.69 30.74 150.61c-12.23 11.87-12.85 18.83-12.85 20.1v7.19l6.74-2.5c8.67-3.21 15.78-4.85 21.14-4.85 5.53 0 7.59 1.71 8.34 3.13-53.12 54.07-54 96-54 97.76L0 280.68l7.77-5c10.15-6.53 16.25-7.9 19.58-7.9 2.54 0 4.36.77 5.54 2.36a7.25 7.25 0 0 1 1 2c.11 54.12 12.69 100.37 37.4 137.46 19.9 29.86 47.6 53.81 82.34 71.2a291.71 291.71 0 0 0 81.87 26.07c22.13 3.69 36.87 3.73 37.48 3.73h7.34c2.4 0 4.76.05 7.12.05 4.13 0 9.57-.07 15-.55A188.34 188.34 0 0 0 476 270.88a146 146 0 0 1 19 17.06 36.3 36.3 0 0 0 .54 5.87c2.79 16 15.44 27.63 30.09 27.63a27.42 27.42 0 0 0 4.61-.4c16-2.8 26.55-19.56 23.45-37.36a35.39 35.39 0 0 0-6.92-15.76c-2.91-49.24-11.83-92.54-26.52-128.73-12-29.48-27.75-54.35-46.94-73.92-33-33.64-64.32-39.93-65.63-40.18l-7.43-1.42 1.6 7.39a69.79 69.79 0 0 1 1.85 17c-15.49-14.84-38.59-27-68.85-36.18a308.29 308.29 0 0 0-48-10.57L275.68 0z" fill="#1d1d1b"/></svg>