<svg xmlns="http://www.w3.org/2000/svg" xmlns:xlink="http://www.w3.org/1999/xlink" viewBox="0 0 557.72 404.74"><defs><linearGradient id="a" x1="168.44" y1="297.9" x2="537.8" y2="297.9" gradientUnits="userSpaceOnUse"><stop offset="0" stop-color="#a98657"/><stop offset=".52" stop-color="#ca9e67"/><stop offset="1" stop-color="#ad8859"/></linearGradient><linearGradient id="e" x1="158.36" y1="317.13" x2="547.88" y2="317.13" gradientUnits="userSpaceOnUse"><stop offset="0" stop-color="#9d7241"/><stop offset=".52" stop-color="#b17f4a"/><stop offset="1" stop-color="#a07443"/></linearGradient><linearGradient id="f" x1="153.52" y1="335.07" x2="552.72" y2="335.07" xlink:href="#a"/><linearGradient id="g" x1="153.5" y1="358.06" x2="552.72" y2="358.06" xlink:href="#a"/><linearGradient id="c" x1="320.71" y1="277.88" x2="464.5" y2="191.48" gradientUnits="userSpaceOnUse"><stop offset="0" stop-color="#825f36"/><stop offset=".16" stop-color="#956c3e"/><stop offset=".37" stop-color="#aa7a47"/><stop offset=".51" stop-color="#b17f4a"/><stop offset=".66" stop-color="#a77846"/><stop offset=".9" stop-color="#8b6539"/><stop offset="1" stop-color="#7f5d34"/></linearGradient><linearGradient id="b" x1="271.19" y1="185.55" x2="411.36" y2="97.96" gradientUnits="userSpaceOnUse"><stop offset="0" stop-color="#7d4e24"/><stop offset=".18" stop-color="#956536"/><stop offset=".38" stop-color="#aa7845"/><stop offset=".51" stop-color="#b17f4a"/><stop offset=".65" stop-color="#a77543"/><stop offset=".89" stop-color="#8b5c2f"/><stop offset="1" stop-color="#7d4e24"/></linearGradient><linearGradient id="d" x1="300.52" y1="234.93" x2="439.13" y2="151.65" gradientUnits="userSpaceOnUse"><stop offset="0" stop-color="#8c8c8b"/><stop offset=".09" stop-color="#9e9e9d"/><stop offset=".26" stop-color="#bfbfbe"/><stop offset=".41" stop-color="#d3d3d3"/><stop offset=".51" stop-color="#dadada"/><stop offset=".61" stop-color="#d0d0d0"/><stop offset=".79" stop-color="#b5b5b4"/><stop offset="1" stop-color="#8c8c8b"/></linearGradient><linearGradient id="h" x1="311.91" y1="256.32" x2="450.84" y2="172.84" xlink:href="#b"/><linearGradient id="i" x1="219.08" y1="92.67" x2="362.8" y2="6.32" xlink:href="#c"/><linearGradient id="j" x1="243.26" y1="131.65" x2="381.93" y2="48.33" xlink:href="#d"/><linearGradient id="k" x1="231.74" y1="110.65" x2="370.64" y2="27.19" xlink:href="#b"/><linearGradient id="l" x1="135.61" y1="219.99" x2="162.44" y2="266.46" gradientUnits="userSpaceOnUse"><stop offset="0" stop-color="#7d4e24"/><stop offset=".43" stop-color="#774a22"/><stop offset="1" stop-color="#66401b"/></linearGradient></defs><path d="M466.31 260.45c-30.12-.69-64-1-113.19-1s-83.07.27-113.19 1c-69.3 1.58-66 14-66 14v9.24l38.3 23.65H494l38.3-23.65v-9.24s3.31-12.45-65.99-14z" fill="#7c4a28"/><path d="M532.31 283.7v-9.24s-.83 32.89-179.19 32.89-179.19-32.89-179.19-32.89v9.24l-5.49 7.4 24.69 30.24h320l24.67-30.24z" fill="url(#a)"/><path d="M545.9 302.38s-6.35-17.14-13.59-18.68c0 0 20.39 37.64-179.19 37.64S173.93 283.7 173.93 283.7c-7.24 1.54-13.59 18.68-13.59 18.68l-2 14.75 60.79 33.43h267.96l60.79-33.43z" fill="url(#e)"/><path d="M545.9 302.38s6.78 48.18-192.78 48.18-192.78-48.18-192.78-48.18c-5.39 3-6.82 14-6.82 14V332l36.53 35.72h326.14L552.72 332v-15.61s-1.43-10.97-6.82-14.01z" fill="url(#f)"/><path d="M153.54 347.74s0 52 199.59 52 199.59-52 199.59-52v-31.35s0 51.36-199.59 51.36-199.63-51.36-199.63-51.36z" fill="url(#g)"/><path d="M324 277.71s4.69 8.55 75.26-30.1 65.89-47.2 65.89-47.2 3.41-11.12-7.91-14.43-141.14 77.29-141.14 77.29-1.88 11.58 7.9 14.44z" fill="url(#c)"/><path d="M396.68 111.42c-19.33-35.29-4.18-43.63-4.18-43.63L387 65.5l-67.33 36.87-67.34 36.87-1 5.84s15.19-8.27 34.52 27 4.17 43.62 4.17 43.62l5.46 2.3 67.34-36.88 67.33-36.87 1-5.84s-15.15 8.29-34.47-26.99z" fill="url(#b)"/><path d="M442.24 158.52l-11.05-20.09s2.26 4-68.34 42.71S290 215.7 290 215.7l11.05 20.13 7.23 4.23 66.53-24.22 66.84-46z" fill="url(#d)"/><path d="M316.09 263.27s5.53 9.8 76-28.78S457.23 186 457.23 186s-18.62-15-15-27.46c0 0 4.53 8.35-66 47s-75.14 30.31-75.14 30.31 8.34 4.09 15 27.42z" fill="url(#h)"/><path d="M217.42 83.1s-4.69-8.55 65.88-47.2 75.26-30.09 75.26-30.09 11.21 3.11 7.9 14.43-141.14 77.29-141.14 77.29-10.76-4.65-7.9-14.43z" fill="url(#i)"/><path d="M381.53 47.66l11 20.13s-2.19-4.08-72.79 34.58-68.35 42.76-68.35 42.76l-11-20.15.33-8.37 56.24-43L371.65 42z" fill="url(#j)"/><path d="M225.32 97.53S220 87.6 290.49 49s76-28.78 76-28.78S369.1 44 381.53 47.66c0 0-4.6-8.31-75.17 30.33s-66 47-66 47 1.04-9.27-15.04-27.46z" fill="url(#k)"/><path d="M276.31 157.47L7.58 293.91s-8.22 4.5 4.67 28 21.11 19 21.11 19L293.05 188s4.31-2.73-3.9-17.73-12.84-12.8-12.84-12.8z" fill="url(#l)"/><path d="M355.47 5c2.65 0 3.09.81 3.09.81s11.21 3.11 7.9 14.43c0 0 1.93 17.34 10.23 24.67l3.93 2.23c.74.22.91.52.91.52l11 20.13s0-.07-.24-.1l.24.1s-15.15 8.34 4.18 43.63c13.15 24 24.39 27.85 30.23 27.85a9.65 9.65 0 0 0 4.28-.84v.26c.08-.2 0-.26 0-.26l11.05 20.09a1.51 1.51 0 0 1-.06 1l-.23 4.51C443.66 175 457.23 186 457.23 186c11.32 3.31 7.91 14.43 7.91 14.43s4.68 8.55-65.89 47.2c-8.42 4.61-15.89 8.54-22.54 11.91 36.89.07 64.55.36 89.6.93 69.3 1.58 66 14 66 14v9.24c7.24 1.54 13.59 18.68 13.59 18.68 5.39 3 6.82 14 6.82 14v31.35s0 52-199.59 52-199.59-52-199.59-52v-31.35.33-.33s1.43-11 6.82-14c0 0 6.35-17.14 13.59-18.68v-9.24s-3.3-12.43 66-14c21.64-.49 45.22-.77 75-.89-5.26-16.37-11.19-21.83-13.19-23.27l.16.05-.59-.34c.11.07.26.16.43.29a1.34 1.34 0 0 1-.71-.46L290 215.7s0 .07.22.1l-.18-.08S300.4 210 293 188L33.36 341a4 4 0 0 1-1.81.35c-3.1 0-10-2.36-19.3-19.38-12.89-23.54-4.67-28-4.67-28l268.73-136.5c-8.93-11.09-16.31-13.23-20.66-13.23a9.67 9.67 0 0 0-4.29.84v-.19c-.08.18 0 .24 0 .24l-11-20.15a1.35 1.35 0 0 1 0-.84v.51-.68a1 1 0 0 0 0 .17c-.15-2.65-1.74-11.58-15-26.61 0 0-10.76-4.66-7.9-14.43 0 0-4.69-8.55 65.88-47.2C332.23 9.11 349.48 5 355.47 5m0-5c-11.13 0-36.92 10.9-74.57 31.51-29.61 16.22-49.9 29.27-60.37 38.79-2.2 2-8.18 7.45-8.19 12.46-2.22 9.73 4.9 16.24 9.9 18.84 11.12 12.79 12.82 20.24 13.08 22.4a5.85 5.85 0 0 0 .64 3.37l10.63 19.46a4.62 4.62 0 0 0 1.85 2.54 5.14 5.14 0 0 0 2.79.87 4.59 4.59 0 0 0 2.06-.49l.45-.22.1-.06a6.63 6.63 0 0 1 1.81-.23c2.32 0 6.72 1 12.59 6.73L5.32 289.45l-.14.08c-.73.39-4.38 2.7-5.07 9S2 313.67 7.87 324.35c8 14.58 16 22 23.68 22a8.87 8.87 0 0 0 4.21-1l.13-.08L290 195.66c2.24 10.83-1.39 14.82-2.29 15.63h-.07c-.15.09-.3.18-.44.28a4.72 4.72 0 0 0-2.28 4.28 4.56 4.56 0 0 0 1.14 2.93l10.67 19.43a5.88 5.88 0 0 0 2.49 2.36c1.3 1.06 4.88 4.64 8.68 14-26.47.13-48.24.41-68 .86-22.46.51-39.81 2.22-51.6 5.07-9 2.19-14.77 5-17.51 8.67a8.16 8.16 0 0 0-1.78 5.51v5.79c-3.07 2-6 5.52-8.88 10.7a78.25 78.25 0 0 0-3.81 7.95c-5.85 4.73-7.41 14.54-7.68 16.6v32.01c0 1.64.77 16.43 27.63 30.43 15 7.78 35.37 14 60.71 18.36 31.32 5.44 70.43 8.2 116.25 8.2s84.92-2.76 116.24-8.2c25.34-4.4 45.77-10.58 60.71-18.36 26.86-14 27.64-28.79 27.64-30.44v-31.33c0-.13-1.11-11.91-7.72-17.25a76.25 76.25 0 0 0-3.81-7.95c-2.88-5.18-5.81-8.72-8.88-10.7v-5.79a8.16 8.16 0 0 0-1.78-5.51c-2.74-3.65-8.47-6.48-17.51-8.67-11.79-2.85-29.14-4.56-51.6-5.07-20.16-.46-42.14-.74-69.52-.87 1.56-.84 3.15-1.7 4.75-2.58 29.61-16.22 49.93-29.27 60.37-38.79 2.21-2 8.23-7.49 8.19-12.52a17.74 17.74 0 0 0-1.47-11.81 15.73 15.73 0 0 0-9.05-7.36c-3.67-3.15-11.37-11-12.71-17.75l.18-3.51a6.09 6.09 0 0 0-.52-4.11L436 136.79a4.63 4.63 0 0 0-1.89-2.64 5 5 0 0 0-2.79-.88 4.57 4.57 0 0 0-2.44.71 5.76 5.76 0 0 1-2 .29c-3.62 0-13.36-2.46-25.85-25.26-15.5-28.31-6.93-36.18-6.05-36.89a4.69 4.69 0 0 0 2.67-4.48 4.58 4.58 0 0 0-1.21-3l-10.52-19.37a6.12 6.12 0 0 0-3.22-2.69l-3-1.74c-5-4.82-7.45-15.48-8.11-20.27A15.76 15.76 0 0 0 370.22 9a17.75 17.75 0 0 0-9.17-7.61A10 10 0 0 0 355.47 0z" fill="#1d1d1b"/></svg>