<svg xmlns="http://www.w3.org/2000/svg" viewBox="0 0 566.93 566.93"><path d="M470.745 341.545c-30.124-.687-63.997-.959-113.19-.958-49.192 0-83.065.271-113.189.958-69.3 1.579-66 14.012-66 14.012v9.235l38.301 23.652H498.444l38.3-23.652v-9.235s3.3-12.433-66-14.012z" fill="#7c4a28"/><linearGradient id="a" gradientUnits="userSpaceOnUse" x1="172.871" y1="378.998" x2="542.24" y2="378.998"><stop offset="0" stop-color="#a98657"/><stop offset=".52" stop-color="#ca9e67"/><stop offset="1" stop-color="#ad8859"/></linearGradient><path d="M536.744 364.792v-9.235s-.833 32.884-179.188 32.887c-178.356-.003-179.19-32.887-179.19-32.887v9.235l-5.495 7.404 24.69 30.244H517.55l24.69-30.244-5.496-7.404z" fill="url(#a)"/><linearGradient id="b" gradientUnits="userSpaceOnUse" x1="162.8" y1="398.224" x2="552.311" y2="398.224"><stop offset="0" stop-color="#9d7241"/><stop offset=".52" stop-color="#b17f4a"/><stop offset="1" stop-color="#a07443"/></linearGradient><path d="M550.338 383.477s-6.348-17.14-13.594-18.685c0 0 20.39 37.645-179.188 37.648-199.58-.003-179.19-37.648-179.19-37.648-7.245 1.545-13.593 18.685-13.593 18.685l-1.973 14.747 60.79 33.43h267.931l60.79-33.43-1.973-14.747z" fill="url(#b)"/><linearGradient id="c" gradientUnits="userSpaceOnUse" x1="157.958" y1="416.163" x2="557.153" y2="416.163"><stop offset="0" stop-color="#a98657"/><stop offset=".52" stop-color="#ca9e67"/><stop offset="1" stop-color="#ad8859"/></linearGradient><path d="M550.338 383.477s6.778 48.175-192.782 48.178c-199.561-.003-192.783-48.178-192.783-48.178-5.39 3.038-6.815 14.004-6.815 14.004v15.644l36.527 35.725h326.141l36.527-35.725v-15.644s-1.425-10.966-6.815-14.004z" fill="url(#c)"/><linearGradient id="d" gradientUnits="userSpaceOnUse" x1="157.937" y1="439.158" x2="557.153" y2="439.158"><stop offset="0" stop-color="#a98657"/><stop offset=".52" stop-color="#ca9e67"/><stop offset="1" stop-color="#ad8859"/></linearGradient><path d="M157.971 428.84s0 51.994 199.59 51.994 199.592-51.994 199.592-51.994V397.48s0 51.369-199.591 51.369-199.625-51.369-199.625-51.369l.034 31.359z" fill="url(#d)"/><g><linearGradient id="e" gradientUnits="userSpaceOnUse" x1="325.142" y1="358.978" x2="468.932" y2="272.58"><stop offset="0" stop-color="#825f36"/><stop offset=".095" stop-color="#8f683b"/><stop offset=".268" stop-color="#a27543"/><stop offset=".413" stop-color="#ad7c48"/><stop offset=".51" stop-color="#b17f4a"/><stop offset=".606" stop-color="#ab7b47"/><stop offset=".769" stop-color="#9c7141"/><stop offset=".98" stop-color="#825f36"/><stop offset="1" stop-color="#7f5d34"/></linearGradient><path d="M328.43 358.803s4.683 8.553 75.254-30.095 65.886-47.201 65.886-47.201 3.416-11.125-7.904-14.434c-11.32-3.308-141.141 77.297-141.141 77.297s-1.87 11.576 7.904 14.433z" fill="url(#e)"/><linearGradient id="f" gradientUnits="userSpaceOnUse" x1="275.628" y1="266.645" x2="415.795" y2="179.059"><stop offset="0" stop-color="#7d4e24"/><stop offset=".018" stop-color="#805126"/><stop offset=".224" stop-color="#9a6837"/><stop offset=".395" stop-color="#ab7945"/><stop offset=".51" stop-color="#b17f4a"/><stop offset=".631" stop-color="#a87643"/><stop offset=".837" stop-color="#926132"/><stop offset="1" stop-color="#7d4e24"/></linearGradient><path d="M401.112 192.512c-19.325-35.285-4.173-43.629-4.173-43.629l-5.465-2.292-67.332 36.875-67.333 36.874-1.011 5.84s15.19-8.274 34.514 27.012c19.324 35.285 4.172 43.628 4.172 43.628l5.465 2.293 67.333-36.875 67.332-36.875 1.011-5.839s-15.19 8.273-34.513-27.012z" fill="url(#f)"/><linearGradient id="g" gradientUnits="userSpaceOnUse" x1="304.956" y1="316.028" x2="443.568" y2="232.742"><stop offset="0" stop-color="#8c8c8b"/><stop offset=".141" stop-color="#abaaaa"/><stop offset=".295" stop-color="#c5c5c4"/><stop offset=".424" stop-color="#d4d4d4"/><stop offset=".51" stop-color="#dadada"/><stop offset=".598" stop-color="#d2d2d2"/><stop offset=".748" stop-color="#bdbdbc"/><stop offset=".942" stop-color="#989898"/><stop offset="1" stop-color="#8c8c8b"/></linearGradient><path d="M446.673 239.614l-11.047-20.09s2.256 4.05-68.344 42.714-72.841 34.56-72.841 34.56l11.056 20.131 7.228 4.225 66.532-24.222 66.837-45.967.58-11.351z" fill="url(#g)"/><linearGradient id="h" gradientUnits="userSpaceOnUse" x1="316.347" y1="337.417" x2="455.28" y2="253.937"><stop offset="0" stop-color="#7d4e24"/><stop offset=".018" stop-color="#805126"/><stop offset=".224" stop-color="#9a6837"/><stop offset=".395" stop-color="#ab7945"/><stop offset=".51" stop-color="#b17f4a"/><stop offset=".631" stop-color="#a87643"/><stop offset=".837" stop-color="#926132"/><stop offset="1" stop-color="#7d4e24"/></linearGradient><path d="M320.525 344.37s5.53 9.798 75.974-28.78 65.167-48.517 65.167-48.517-18.624-15.036-14.993-27.46c0 0 4.529 8.353-66.042 47.001s-75.134 30.315-75.134 30.315 8.365 4.106 15.028 27.44z" fill="url(#h)"/><linearGradient id="i" gradientUnits="userSpaceOnUse" x1="223.514" y1="173.767" x2="367.234" y2="87.411"><stop offset="0" stop-color="#825f36"/><stop offset=".095" stop-color="#8f683b"/><stop offset=".268" stop-color="#a27543"/><stop offset=".413" stop-color="#ad7c48"/><stop offset=".51" stop-color="#b17f4a"/><stop offset=".606" stop-color="#ab7b47"/><stop offset=".769" stop-color="#9c7141"/><stop offset=".98" stop-color="#825f36"/><stop offset="1" stop-color="#7f5d34"/></linearGradient><path d="M221.853 164.197s-4.684-8.553 65.886-47.201S362.994 86.9 362.994 86.9s11.213 3.113 7.904 14.433-141.14 77.296-141.14 77.296-10.762-4.66-7.905-14.433z" fill="url(#i)"/><linearGradient id="j" gradientUnits="userSpaceOnUse" x1="247.693" y1="212.748" x2="386.364" y2="129.425"><stop offset="0" stop-color="#8c8c8b"/><stop offset=".141" stop-color="#abaaaa"/><stop offset=".295" stop-color="#c5c5c4"/><stop offset=".424" stop-color="#d4d4d4"/><stop offset=".51" stop-color="#dadada"/><stop offset=".598" stop-color="#d2d2d2"/><stop offset=".748" stop-color="#bdbdbc"/><stop offset=".942" stop-color="#989898"/><stop offset="1" stop-color="#8c8c8b"/></linearGradient><path d="M385.962 128.755l10.977 20.128s-2.197-4.082-72.797 34.583-68.35 42.762-68.35 42.762l-11.007-20.157.333-8.366 56.24-43.014 74.727-31.56 9.877 5.624z" fill="url(#j)"/><linearGradient id="k" gradientUnits="userSpaceOnUse" x1="236.178" y1="191.746" x2="375.077" y2="108.288"><stop offset="0" stop-color="#7d4e24"/><stop offset=".018" stop-color="#805126"/><stop offset=".224" stop-color="#9a6837"/><stop offset=".395" stop-color="#ab7945"/><stop offset=".51" stop-color="#b17f4a"/><stop offset=".631" stop-color="#a87643"/><stop offset=".837" stop-color="#926132"/><stop offset="1" stop-color="#7d4e24"/></linearGradient><path d="M229.757 178.63s-5.278-9.937 65.167-48.516 75.974-28.78 75.974-28.78 2.64 23.79 15.064 27.421c0 0-4.6-8.314-75.17 30.334s-66.007 46.982-66.007 46.982 1.045-9.26-15.028-27.44z" fill="url(#k)"/><linearGradient id="l" gradientUnits="userSpaceOnUse" x1="140.046" y1="301.09" x2="166.871" y2="347.553"><stop offset="0" stop-color="#7d4e24"/><stop offset=".287" stop-color="#7a4d23"/><stop offset=".676" stop-color="#71471f"/><stop offset="1" stop-color="#66401b"/></linearGradient><path d="M280.748 238.568L12.016 375.008s-8.219 4.501 4.67 28.036c12.888 23.534 21.107 19.033 21.107 19.033l259.69-152.952s4.315-2.733-3.896-17.727-12.839-12.83-12.839-12.83z" fill="url(#l)"/><path d="M359.904 86.095c2.648 0 3.09.806 3.09.806s11.213 3.113 7.904 14.433c0 0 1.931 17.34 10.23 24.669l3.924 2.234c.744.221.91.518.91.518l10.977 20.128s-.036-.065-.241-.101l.24.101s-15.15 8.344 4.174 43.629c13.155 24.022 24.394 27.855 30.23 27.855 2.735 0 4.284-.843 4.284-.843l-.045.258c.08-.192.045-.258.045-.258l11.047 20.09s.162.299-.053 1.045l-.23 4.51c1.705 10.939 15.276 21.904 15.276 21.904 11.32 3.309 7.904 14.434 7.904 14.434s4.684 8.552-65.886 47.2c-8.418 4.61-15.888 8.542-22.535 11.904 36.891.079 64.545.363 89.596.934 69.3 1.579 66 14.012 66 14.012v9.235c7.245 1.545 13.593 18.685 13.593 18.685 5.39 3.038 6.815 14.004 6.815 14.004v31.359s0 51.994-199.591 51.994-199.59-51.994-199.59-51.994l-.035-31.359s0 .116.021.335v-.335s1.425-10.966 6.815-14.004c0 0 6.348-17.14 13.594-18.685v-9.235s-3.3-12.433 66-14.012c21.643-.494 45.223-.773 75.03-.89-5.26-16.374-11.191-21.825-13.194-23.272.052.019.107.037.165.055l-.589-.344c.111.07.253.165.424.289-.572-.21-.706-.454-.706-.454l-11.056-20.13s.035.062.229.1l-.186-.079s10.354-5.729 2.988-27.688L37.792 422.077s-.628.344-1.811.344c-3.093 0-9.973-2.355-19.295-19.378-12.889-23.534-4.67-28.035-4.67-28.035l268.732-136.44c-8.935-11.093-16.308-13.232-20.667-13.232-2.735 0-4.283.843-4.283.843l.034-.197c-.073.183-.04.246-.04.246l-11.007-20.157s-.133-.244-.002-.84c.012.211.016.382.015.513l.027-.682c-.016.06-.03.116-.042.17-.151-2.646-1.738-11.572-15.026-26.602 0 0-10.76-4.66-7.904-14.433 0 0-4.684-8.553 65.886-47.201 48.923-26.792 66.18-30.901 72.165-30.9m-35.78 97.38l-.013.006.013-.007.018-.01.031-.017-.031.018-.018.01m35.78-102.38c-11.133-.001-36.918 10.896-74.566 31.514-29.615 16.219-49.927 29.267-60.373 38.783-2.2 2.004-8.183 7.455-8.188 12.463-2.225 9.734 4.897 16.243 9.894 18.838 11.12 12.788 12.824 20.24 13.082 22.4-.14 1.521.25 2.65.641 3.369l10.63 19.465c.313 1.022.933 1.93 1.854 2.534.873.574 1.833.875 2.788.875.7 0 1.396-.161 2.055-.496a5.055 5.055 0 0 0 .553-.272c.32-.096.932-.233 1.807-.233 2.322 0 6.72.984 12.59 6.725L9.753 370.55a4.857 4.857 0 0 0-.138.072c-.725.397-4.376 2.698-5.067 9.036-.702 6.435 1.907 15.11 7.753 25.786 7.986 14.582 15.953 21.976 23.68 21.976 2.223 0 3.688-.67 4.214-.959.046-.025.091-.05.136-.077l254.056-149.633c2.234 10.83-1.387 14.827-2.293 15.632a4.777 4.777 0 0 0-.508.31c-1.505.89-2.306 2.478-2.282 4.285.015 1.1.446 2.11 1.138 2.923l10.674 19.434c.397.721 1.137 1.657 2.493 2.358 1.294 1.065 4.88 4.646 8.682 13.992-26.476.133-48.247.409-68.038.86-22.452.512-39.81 2.216-51.592 5.067-9.045 2.189-14.773 5.025-17.511 8.67-1.667 2.218-1.872 4.263-1.782 5.511v5.789c-3.068 1.98-6 5.52-8.883 10.699-1.758 3.16-3.09 6.209-3.807 7.957-5.849 4.726-7.409 14.534-7.677 16.598a5 5 0 0 0-.042.644v.006h-.021l.034 31.358c0 1.636.776 16.43 27.639 30.426 14.942 7.785 35.368 13.964 60.708 18.365 31.322 5.44 70.432 8.198 116.244 8.198s84.922-2.759 116.244-8.198c25.34-4.4 45.765-10.58 60.708-18.365 26.863-13.996 27.639-28.79 27.639-30.431V397.48c0-.121-1.11-11.91-7.72-17.243-.717-1.749-2.048-4.798-3.806-7.956-2.883-5.179-5.815-8.718-8.883-10.7v-5.788c.09-1.248-.115-3.293-1.782-5.511-2.738-3.645-8.466-6.481-17.51-8.67-11.783-2.85-29.14-4.555-51.593-5.067-20.16-.46-42.146-.736-69.528-.867a944.085 944.085 0 0 0 4.754-2.586c29.615-16.219 49.927-29.267 60.373-38.783 2.208-2.01 8.23-7.496 8.188-12.52.468-2.246 1.04-7.165-1.467-11.819-1.298-2.408-3.91-5.566-9.055-7.36-3.669-3.15-11.364-10.944-12.712-17.75l.179-3.503c.392-1.993-.136-3.41-.515-4.114l-10.644-19.355c-.3-1.068-.932-2.02-1.887-2.648-.873-.573-1.833-.875-2.788-.875-.837 0-1.67.231-2.44.714-.232.084-.907.287-1.976.287-3.611 0-13.36-2.46-25.844-25.257-15.505-28.311-6.937-36.185-6.05-36.892 1.755-.833 2.697-2.532 2.673-4.487-.014-1.143-.476-2.188-1.214-3.017L390.35 126.36c-.409-.734-1.321-1.946-3.211-2.689l-3.048-1.736c-5.036-4.822-7.442-15.48-8.112-20.266 1.262-5.303.008-9.206-1.323-11.597-2.574-4.626-7.036-6.793-9.177-7.605-1.2-.788-2.97-1.372-5.576-1.373z"/></g></svg>