<svg xmlns="http://www.w3.org/2000/svg" viewBox="0 0 566.93 566.93"><path d="M127.507 561.716c-16.351 0-29.654-13.303-29.654-29.653V34.938c0-16.352 13.303-29.654 29.654-29.654H440.82c16.35 0 29.654 13.302 29.654 29.654v497.125c0 16.35-13.303 29.653-29.654 29.653H127.507z" fill="#f6f6f6"/><path d="M440.821 7.784c14.997 0 27.154 12.157 27.154 27.153v497.126c0 14.996-12.157 27.153-27.154 27.153H127.507c-14.997 0-27.154-12.157-27.154-27.153V34.937c0-14.996 12.157-27.153 27.154-27.153H440.82m0-5H127.507c-17.73 0-32.154 14.424-32.154 32.153v497.126c0 17.73 14.424 32.153 32.154 32.153H440.82c17.73 0 32.154-14.424 32.154-32.153V34.937c0-17.73-14.424-32.153-32.154-32.153z"/><radialGradient id="a" cx="-211.725" cy="365.262" r="141.732" gradientUnits="userSpaceOnUse"><stop offset="0" stop-color="#be1622"/><stop offset="1" stop-color="#9e151a"/></radialGradient><path fill="url(#a)" d="M-211.725 506.994l141.732-141.732-141.732-141.732-141.732 141.732z"/><radialGradient id="b" cx="31.939" cy="745.791" r="141.741" gradientUnits="userSpaceOnUse"><stop offset="0" stop-color="#3c3c3b"/><stop offset="1"/></radialGradient><path d="M102.823 816.657c70.83 0 70.866-70.866 70.866-70.866s.036-42.816-70.866-70.866S31.92 604.06 31.92 604.06s.036 42.816-70.866 70.866-70.866 70.866-70.866 70.866.036 70.866 70.866 70.866c69.581 0 70.843-68.348 70.866-70.76-.024 141.696-70.866 141.627-70.866 141.627h141.77c-70.832 0-70.904-141.697-70.904-141.697s.072 70.83 70.903 70.83z" fill="url(#b)"/><radialGradient id="c" cx="284.287" cy="283.546" r="91.897" gradientTransform="matrix(.90155 0 0 1 27.91 0)" gradientUnits="userSpaceOnUse"><stop offset="0" stop-color="#be1622"/><stop offset="1" stop-color="#9e151a"/></radialGradient><path d="M284.226 375.434s82.862-91.888 82.841-137.832-41.441-45.944-41.441-45.944-41.207-.018-41.416 45.601c-.209-45.62-41.416-45.6-41.416-45.6s-41.42 0-41.441 45.943 82.841 137.832 82.841 137.832" fill="url(#c)"/><radialGradient id="d" cx="-227.541" cy="70.866" r="141.742" gradientUnits="userSpaceOnUse"><stop offset="0" stop-color="#3c3c3b"/><stop offset="1"/></radialGradient><path d="M-156.675 141.714c70.866 0 70.866-70.831 70.866-70.831s0-70.902-70.866-70.902c0 0 .036-70.866-70.866-70.866v.038c-70.9 0-70.865 70.866-70.865 70.866-70.867 0-70.867 70.901-70.867 70.901s0 70.831 70.867 70.831c69.216 0 70.827-67.557 70.865-70.703-.043 141.638-70.865 141.57-70.865 141.57h141.732c-70.423 0-70.864-139.907-70.866-141.657.023 2.508 1.3 70.753 70.865 70.753z" fill="url(#d)"/><radialGradient id="e" cx="141.542" cy="59.189" r="40.749" gradientTransform="matrix(.90155 0 0 1 27.91 0)" gradientUnits="userSpaceOnUse"><stop offset="0" stop-color="#be1622"/><stop offset="1" stop-color="#9e151a"/></radialGradient><path d="M155.525 99.934s36.743-40.745 36.734-61.117-18.376-20.373-18.376-20.373-18.272-.008-18.365 20.22c-.092-20.228-18.364-20.22-18.364-20.22s-18.367 0-18.376 20.373 36.733 61.117 36.733 61.117" fill="url(#e)"/><radialGradient id="f" cx="426.93" cy="59.189" r="40.749" gradientTransform="matrix(.90155 0 0 1 27.91 0)" gradientUnits="userSpaceOnUse"><stop offset="0" stop-color="#be1622"/><stop offset="1" stop-color="#9e151a"/></radialGradient><path d="M412.817 99.934s36.742-40.745 36.733-61.117-18.376-20.373-18.376-20.373-18.272-.008-18.364 20.22c-.093-20.228-18.365-20.22-18.365-20.22s-18.366 0-18.376 20.373c-.009 20.372 36.734 61.117 36.734 61.117" fill="url(#f)"/><radialGradient id="g" cx="141.542" cy="-287.048" r="40.749" gradientTransform="matrix(.90155 0 0 -1 27.91 221.007)" gradientUnits="userSpaceOnUse"><stop offset="0" stop-color="#be1622"/><stop offset="1" stop-color="#9e151a"/></radialGradient><path d="M155.525 467.31s36.743 40.745 36.734 61.118-18.376 20.372-18.376 20.372-18.272.008-18.365-20.22c-.092 20.228-18.364 20.22-18.364 20.22s-18.367 0-18.376-20.372 36.733-61.117 36.733-61.117" fill="url(#g)"/><radialGradient id="h" cx="426.93" cy="-287.048" r="40.749" gradientTransform="matrix(.90155 0 0 -1 27.91 221.007)" gradientUnits="userSpaceOnUse"><stop offset="0" stop-color="#be1622"/><stop offset="1" stop-color="#9e151a"/></radialGradient><path d="M412.817 467.31s36.742 40.745 36.733 61.118-18.376 20.372-18.376 20.372-18.272.008-18.364-20.22c-.093 20.228-18.365 20.22-18.365 20.22s-18.366 0-18.376-20.372c-.009-20.373 36.734-61.117 36.734-61.117" fill="url(#h)"/></svg>