<?xml version="1.0" encoding="utf-8"?>
<!-- Generator: Adobe Illustrator 22.1.0, SVG Export Plug-In . SVG Version: 6.00 Build 0)  -->
<svg version="1.1" xmlns="http://www.w3.org/2000/svg" xmlns:xlink="http://www.w3.org/1999/xlink" x="0px" y="0px"
	 viewBox="0 0 566.9299927 566.9299927" style="enable-background:new 0 0 566.9299927 566.9299927;" xml:space="preserve">
<style type="text/css">
	.st0{fill:#F6F6F6;}
	.st1{fill:url(#SVGID_1_);}
	.st2{fill:url(#SVGID_2_);}
	.st3{fill:url(#SVGID_3_);}
	.st4{fill:url(#SVGID_4_);}
	.st5{fill:url(#SVGID_5_);}
	.st6{fill:url(#SVGID_6_);}
	.st7{fill:url(#SVGID_7_);}
	.st8{fill:url(#SVGID_8_);}
</style>
<g id="Laag_1">
</g>
<g id="Laag_2">
	<g>
		<path class="st0" d="M127.5068359,561.7158203c-16.3510742,0-29.6538086-13.3027344-29.6538086-29.6533203V34.9375
			c0-16.3510742,13.3027344-29.6538086,29.6538086-29.6538086h313.3144531
			c16.3505859,0,29.6533203,13.3027344,29.6533203,29.6538086v497.125c0,16.3505859-13.3027344,29.6533203-29.6533203,29.6533203
			H127.5068359z"/>
		<path d="M440.8211975,7.7838335c14.9964905,0,27.1535034,12.1570005,27.1535034,27.1534996V532.062561
			c0,14.996582-12.1570129,27.1536255-27.1535034,27.1536255H127.506691c-14.9964981,0-27.1535034-12.1570435-27.1535034-27.1536255
			V34.9373322c0-14.9964981,12.1570053-27.1534996,27.1535034-27.1534996H440.8211975 M440.8211975,2.7838333H127.506691
			c-17.7294998,0-32.1535034,14.4240007-32.1535034,32.1534996V532.062561
			c0,17.7296143,14.4240036,32.1536255,32.1535034,32.1536255h313.3145142
			c17.7294922,0,32.1535034-14.4240112,32.1535034-32.1536255V34.9373322
			C472.9747009,17.2078342,458.5506897,2.7838333,440.8211975,2.7838333L440.8211975,2.7838333z"/>
	</g>
	<radialGradient id="SVGID_1_" cx="-211.725235" cy="365.2619629" r="141.7322693" gradientUnits="userSpaceOnUse">
		<stop  offset="0" style="stop-color:#BE1622"/>
		<stop  offset="1" style="stop-color:#9E151A"/>
	</radialGradient>
	<polygon class="st1" points="-211.7252655,506.9942627 -69.9929581,365.2619629 -211.725235,223.5296936 -353.457489,365.2619629 	
		"/>
	<radialGradient id="SVGID_2_" cx="31.9386902" cy="745.7913208" r="141.7414398" gradientUnits="userSpaceOnUse">
		<stop  offset="0" style="stop-color:#3C3C3B"/>
		<stop  offset="1" style="stop-color:#000000"/>
	</radialGradient>
	<path class="st2" d="M102.8230591,816.6574707c70.8307495,0,70.8662109-70.8661499,70.8662109-70.8661499
		s0.0354004-42.8162231-70.8661499-70.8661499s-70.902771-70.8661499-70.902771-70.8661499
		s0.0354614,42.8162231-70.8660889,70.8661499s-70.8661499,70.8661499-70.8661499,70.8661499
		s0.0354004,70.8661499,70.8661499,70.8661499c69.5812378,0,70.8427734-68.3482056,70.8656006-70.7597656
		C31.895813,887.5934448-38.9457397,887.5236206-38.9457397,887.5236206h141.7688599
		c-70.8307495,0-70.90271-141.6968384-70.90271-141.6968384S31.9923706,816.6574707,102.8230591,816.6574707z"/>
	
		<radialGradient id="SVGID_3_" cx="284.2874146" cy="283.5459595" r="91.8965988" gradientTransform="matrix(0.9015502 0 0 1 27.910511 0)" gradientUnits="userSpaceOnUse">
		<stop  offset="0" style="stop-color:#BE1622"/>
		<stop  offset="1" style="stop-color:#9E151A"/>
	</radialGradient>
	<path class="st3" d="M284.225769,375.4337463c0,0,82.8621826-91.8877869,82.8414612-137.8316956
		s-41.4414673-45.9439087-41.4414673-45.9439087s-41.2071838-0.0183105-41.4158936,45.6013031
		c-0.2086487-45.6196136-41.4158783-45.6013031-41.4158783-45.6013031s-41.4207001,0-41.4414215,45.9439087
		s82.8414612,137.8316956,82.8414612,137.8316956"/>
	<radialGradient id="SVGID_4_" cx="-227.5406036" cy="70.8661423" r="141.7415314" gradientUnits="userSpaceOnUse">
		<stop  offset="0" style="stop-color:#3C3C3B"/>
		<stop  offset="1" style="stop-color:#000000"/>
	</radialGradient>
	<path class="st4" d="M-156.6747284,141.7135468c70.8661499,0,70.8661499-70.8307419,70.8661499-70.8307419
		s0-70.9015503-70.8661499-70.9015503c0,0,0.0354614-70.8661499-70.8661499-70.8661499v0.0374756
		c-70.9009857,0.0003662-70.8655853,70.8661499-70.8655853,70.8661499c-70.8661499,0-70.8661499,70.9016113-70.8661499,70.9016113
		s0,70.8306808,70.8661499,70.8306808c69.2162323,0,70.8275604-67.5574875,70.865097-70.7033005
		c-0.0430908,141.6383667-70.865097,141.569458-70.865097,141.569458h141.7322235
		c-70.4231567,0-70.8632812-139.90625-70.8660278-141.6557617
		C-227.5168304,73.4688034-226.2391815,141.7135468-156.6747284,141.7135468z"/>
	
		<radialGradient id="SVGID_5_" cx="141.5424957" cy="59.1891251" r="40.748539" gradientTransform="matrix(0.9015502 0 0 1 27.910511 0)" gradientUnits="userSpaceOnUse">
		<stop  offset="0" style="stop-color:#BE1622"/>
		<stop  offset="1" style="stop-color:#9E151A"/>
	</radialGradient>
	<path class="st5" d="M155.5252075,99.9337616c0,0,36.7425232-40.7446365,36.7333374-61.1169586
		s-18.3758545-20.3723183-18.3758545-20.3723183s-18.2719879-0.0081234-18.3645172,20.2204056
		c-0.0925293-20.228529-18.3645172-20.2204056-18.3645172-20.2204056s-18.3666534,0-18.3758469,20.3723183
		s36.7333298,61.1169586,36.7333298,61.1169586"/>
	
		<radialGradient id="SVGID_6_" cx="426.9304199" cy="59.1891251" r="40.748539" gradientTransform="matrix(0.9015502 0 0 1 27.910511 0)" gradientUnits="userSpaceOnUse">
		<stop  offset="0" style="stop-color:#BE1622"/>
		<stop  offset="1" style="stop-color:#9E151A"/>
	</radialGradient>
	<path class="st6" d="M412.8167419,99.9337616c0,0,36.7425232-40.7446365,36.7333374-61.1169586
		s-18.3758545-20.3723183-18.3758545-20.3723183s-18.2719727-0.0081234-18.364502,20.2204056
		c-0.0925293-20.228529-18.3645325-20.2204056-18.3645325-20.2204056s-18.3666382,0-18.3758545,20.3723183
		c-0.0091858,20.3723221,36.7333374,61.1169586,36.7333374,61.1169586"/>
	
		<radialGradient id="SVGID_7_" cx="141.5424957" cy="-287.0482178" r="40.748539" gradientTransform="matrix(0.9015502 0 0 -1 27.910511 221.0072021)" gradientUnits="userSpaceOnUse">
		<stop  offset="0" style="stop-color:#BE1622"/>
		<stop  offset="1" style="stop-color:#9E151A"/>
	</radialGradient>
	<path class="st7" d="M155.5252075,467.310791c0,0,36.7425232,40.7446289,36.7333374,61.1169434
		s-18.3758545,20.3723145-18.3758545,20.3723145s-18.2719879,0.0081177-18.3645172-20.2203979
		c-0.0925293,20.2285156-18.3645172,20.2203979-18.3645172,20.2203979s-18.3666534,0-18.3758469-20.3723145
		s36.7333298-61.1169434,36.7333298-61.1169434"/>
	
		<radialGradient id="SVGID_8_" cx="426.9304199" cy="-287.0482178" r="40.748539" gradientTransform="matrix(0.9015502 0 0 -1 27.910511 221.0072021)" gradientUnits="userSpaceOnUse">
		<stop  offset="0" style="stop-color:#BE1622"/>
		<stop  offset="1" style="stop-color:#9E151A"/>
	</radialGradient>
	<path class="st8" d="M412.8167419,467.310791c0,0,36.7425232,40.7446289,36.7333374,61.1169434
		s-18.3758545,20.3723145-18.3758545,20.3723145s-18.2719727,0.0081177-18.364502-20.2203979
		c-0.0925293,20.2285156-18.3645325,20.2203979-18.3645325,20.2203979s-18.3666382,0-18.3758545-20.3723145
		c-0.0091858-20.3723145,36.7333374-61.1169434,36.7333374-61.1169434"/>
</g>
</svg>
