<svg xmlns="http://www.w3.org/2000/svg" xmlns:xlink="http://www.w3.org/1999/xlink" viewBox="0 0 377.62 561.43"><defs><radialGradient id="a" cx="188.93" cy="280.76" r="91.9" gradientTransform="matrix(.9 0 0 1 18.52 0)" gradientUnits="userSpaceOnUse"><stop offset="0" stop-color="#be1622"/><stop offset="1" stop-color="#9e151a"/></radialGradient><radialGradient id="b" cx="46.19" cy="56.41" r="40.75" xlink:href="#a"/><radialGradient id="c" cx="331.58" cy="56.41" r="40.75" xlink:href="#a"/><radialGradient id="d" cx="46.19" cy="-289.83" r="40.75" gradientTransform="matrix(.9 0 0 -1 18.52 215.44)" xlink:href="#a"/><radialGradient id="e" cx="331.58" cy="-289.83" r="40.75" gradientTransform="matrix(.9 0 0 -1 18.52 215.44)" xlink:href="#a"/></defs><rect x="2.5" y="2.5" width="372.62" height="556.43" rx="29.65" ry="29.65" fill="#f6f6f6"/><path d="M345.47 5a27.16 27.16 0 0 1 27.15 27.15v497.13a27.15 27.15 0 0 1-27.15 27.15H32.15A27.15 27.15 0 0 1 5 529.28V32.15A27.16 27.16 0 0 1 32.15 5h313.32m0-5H32.15A32.18 32.18 0 0 0 0 32.15v497.13a32.18 32.18 0 0 0 32.15 32.15h313.32a32.18 32.18 0 0 0 32.15-32.15V32.15A32.18 32.18 0 0 0 345.47 0z" fill="#1d1d1b"/><path d="M188.87 372.65s82.86-91.89 82.84-137.83-41.44-45.95-41.44-45.95-41.2 0-41.41 45.61c-.21-45.62-41.42-45.61-41.42-45.61s-41.42 0-41.44 45.95 82.84 137.83 82.84 137.83" fill="url(#a)"/><path d="M60.17 97.15S96.91 56.41 96.91 36 78.53 15.66 78.53 15.66s-18.27 0-18.37 20.22C60.07 15.65 41.8 15.66 41.8 15.66s-18.37 0-18.38 20.34 36.74 61.15 36.74 61.15" fill="url(#b)"/><path d="M317.46 97.15S354.21 56.41 354.2 36s-18.38-20.37-18.38-20.37-18.27 0-18.36 20.22c-.1-20.23-18.37-20.22-18.37-20.22s-18.36 0-18.37 20.37 36.73 61.12 36.73 61.12" fill="url(#c)"/><path d="M60.17 464.53s36.74 40.74 36.74 61.11S78.53 546 78.53 546s-18.27 0-18.37-20.22C60.07 546 41.8 546 41.8 546s-18.37 0-18.38-20.38 36.74-61.11 36.74-61.11" fill="url(#d)"/><path d="M317.46 464.53s36.75 40.74 36.74 61.11S335.82 546 335.82 546s-18.27 0-18.36-20.22C317.36 546 299.09 546 299.09 546s-18.36 0-18.37-20.38 36.73-61.11 36.73-61.11" fill="url(#e)"/></svg>