<svg xmlns="http://www.w3.org/2000/svg" viewBox="0 0 566.93 566.93"><style>.st0{display:none}.st1,.st2{display:inline}.st2{fill:#fff}.st3,.st4,.st5{display:inline;fill:#95d5f7}.st4,.st5{fill:#9f5c3f}.st5{fill:#ffd931}.st6,.st7,.st8{display:inline;fill:#e62e24}.st7,.st8{fill:#76b82a}.st8{fill:#4c824b}</style><g id="Laag_3" class="st0"><path class="st1" d="M108.863 404.417s23.124 50.131 126.146 42.519c103.022-7.612 162.268-29.568 193.259-81.287 0 0 36.939 2.812 49.41-16.518 0 0 38.284-128.322-47.792-186.009 2.302-3.85 2.302-3.85 4.174-6.469 11.314 21.588 30.554 21.792 35.346 21.32 0 0 4.078-1.57 5.641 2.843 1.563 4.413 25.093 30.794 35.449 32.694 10.355 1.9 12.705-19.82 6.558-30.566s-33.27-6.98-40.44-11.96-18.39-22.848-38.348-20.935c0 0 5.946-13.58-1.347-17.804-7.293-4.224-17.328 9.514-17.328 9.514s-7.582-20.257-30.4-26.158c0 0 18.984-17.873 5.893-32.193-13.091-14.32-29.12-7.635-38.406-2.891-9.285 4.744-39.007 27.511-51.45 28.694-12.444 1.184-26.386-10.228-46.663-10.25s-30.344 14.97-30.344 14.97-2.607-13.73-13.626-12.451c-11.019 1.278-8.988 14.446-8.988 14.446s-15.83-3.229-33.125.804c-17.296 4.033-15.766 16.458-32.27 20.813s-19.56-10.412-59.18-6.626c-39.619 3.786-38.057 12.609-32.834 18.832s21.18 24.022 54.19 18.879c33.011-5.144 24.553-16.965 39.8-20.273 15.246-3.309 32.334 2.466 45.392-2.39 13.057-4.855 18.418-19.806 18.418-19.806l-2.253 33.085s-54.804 9.726-82.413 84.326c-40.915 100.644-12.469 160.847-12.469 160.847z"/><path class="st2" d="M416.143 146.402s-16.22 1.82-28.798-6.124c-12.579-7.944-15.061-15.061-15.061-15.061s-9.196 4.155-30.068 2.717c-20.871-1.438-26.51-9.997-37.95-7.456-11.44 2.54-26.434 9.347-41.843 8.666-15.41-.682-29.95-5.574-29.95-5.574l6.341 35.264s46.42-5.867 84.9 18.982c0 0 31.532-32.045 86.022-20.707l6.407-10.707z"/><path class="st3" d="M116.77 400.259s16.053 24.972 44.593 31.215c28.54 6.243 50.39 8.594 90.524 5.472 40.133-3.121 138.238-13.945 176.588-91.09 0 0-2.935-45.292-25.232-70.264 0 0-.988 21.325-14.902 43.507-13.573 21.639-55.862 50.11-135.735 59.755-77.278 9.332-138.152-10.512-147.984-34.107 0 0 5.013 43.025 12.148 55.512z"/><path class="st4" d="M209.645 157.941H231s-4.312-39.303-7.59-47.818c-3.279-8.514-13.006-1.138-13.765 1.898-.759 3.036 0 45.92 0 45.92z"/><path class="st5" d="M105.622 334.342s8.47-145.963 97.983-168.22c0 0-78.056 30.915-83.378 187.684 0 0-12.3-6.825-14.605-19.464z"/><path class="st6" d="M125.397 357.751s57.45 29.21 146.405 11.057c0 0-14.601-120.643-52.648-202.228 0 0-89.39 18.8-93.757 191.171z"/><path class="st5" d="M379.762 318.859c-25.022 38.892-98.512 49.483-98.512 49.483s-20.303-121.266-52.973-202.22c0 0 103.255-16.818 151.485 152.737z"/><path class="st6" d="M384.175 314.059s12.632-11.877 16.372-43.484c.46-3.153-55.774-115.758-151.042-106.937 0 0 95.14 5.479 134.67 150.42z"/><path class="st3" d="M432.517 357.751s6.424-7.16 5.548-10.08-1.076-19.273-9.59-33.874c0 0 46.385 7.3 51.058-6.425 0 0-1.753 29.495-6.425 38.255 0 0-2.336 9.355-40.591 12.124z"/><path class="st6" d="M479.533 300.824s9.615-103.103-55.61-134.702c0 0 48.81 53.2 41.468 141.25 0 0 7.653 1.616 14.142-6.548z"/><path class="st5" d="M456.7 309.489s10.68-77.166-37.573-145.373c0 0-28.477 12.48-38.365 65.083 0 0 31.041 41.667 43.161 73.566 0 0 9.946 8.84 32.778 6.724z"/><path class="st6" d="M375.099 222.158s17.238-51.715 36.792-60.462c0 0-46.569.514-71.526 24.7 0 0 28.816 21.869 34.734 35.762z"/><path class="st5" d="M328.26 179.433l7.046 4.027s30.698-23.134 65.296-23.94c0 0-34.2-7.021-72.342 19.913z"/><path class="st4" d="M414.283 157.37s14.392-25.545 20.286-22.334c5.894 3.21-7.63 26.66-7.63 26.66l-12.656-4.327z"/><path class="st7" d="M57.35 144.23s5.544 16.744 26.393 17.466 32.316-3.001 32.316-3.001 8.757-7.564 11.884-10.469c3.128-2.905-22.934-9.993-29.188-9.993s-42.156 1.57-41.406 5.997z"/><path class="st8" d="M141.066 143.98s12.123-2.973 20.358-1.6c8.234 1.372 16.697 1.563 21.73-.362 5.032-1.926 22.187-20.453 22.187-20.453s-16.24-4.026-25.618-1.556c-9.379 2.47-14.41 4.451-22.188 12.039-7.777 7.587-16.469 11.933-16.469 11.933zM232.472 117.127s11.366-11.348 20.16-12.199c8.794-.85 14.88-.403 42.836 9.362l4.255 1.702s-22.694 7.375-31.488 7.375-35.763-6.24-35.763-6.24z"/><path class="st7" d="M309.887 114.003s20.516-7.82 37.857-19.054c17.34-11.235 14.654-12.212 24.912-14.41s17.83 6.594 18.806 9.77c.977 3.175 1.71 15.875-8.06 21.492-9.769 5.618-22.47 11.653-34.925 11.566-12.456-.086-38.59-9.364-38.59-9.364zM414.283 140.739s-12.132-16.676-22.282-19.587c0 0-4.68-2.334-6.877-2.912 0 0-3.808 3.28-8.324 5.128 0 0 2.312 9.44 11.909 13.487 9.596 4.047 11.09 5.693 27.81 7.07 0 0-.339-1.13-2.236-3.186zM436.652 153.706s6.935-3.468 18.954 3.93c12.02 7.396 16.527 16.642 16.527 16.642s-5.2 2.658-13.869-.81c-8.668-3.467-18.966-13.02-21.612-19.762z"/><path class="st8" d="M476.42 175.251s3.476 10.087 11.199 16.676c7.723 6.589 17.892 17.916 22.912 18.302 5.02.386 6.822-9.783 4.89-21.11-1.93-11.327-16.346-10.168-20.337-10.555-3.99-.386-18.664-3.313-18.664-3.313z"/></g><g id="Laag_1" class="st0"><path class="st2" d="M390.455 114.423c1.472-2.659 2.83-5.139 4.212-7.605 4.03-7.19 7.088-14.54 1.31-22.178-2.419-3.197-4.403-7.292-9.133-7.791-13.454-1.422-26.254.505-38.05 7.573-11.61 6.955-23.2 13.944-34.955 20.646-3.54 2.018-7.863 4.843-11.369 4.306-8.116-1.242-16.063-3.996-23.87-6.735-7.278-2.553-14.15-4.71-22.289-3.41-8.482 1.354-16.576 2.47-23.24 8.466-2.833 2.55-5.923 4.204-8.005-1.056-.398-1.005-1.4-1.788-2.183-2.618-3.01-3.194-11.795-3.57-13.581-.154-1.823 3.483-3.275 7.467-3.63 11.348-.718 7.833-.397 7.924-7.626 4.07-10.023-5.344-20.003-5.175-30.414-.85-8.182 3.4-14.906 8.674-21.429 14.385-2.888 2.53-5.319 5.912-9.912 5.13-7.475-1.272-14.945-2.571-22.425-3.813-7.794-1.294-15.578-3.403-23.4-3.564-8.602-.178-17.277 1.207-25.856 2.383-6.457.885-11.468 4.498-15.22 9.897-2.348 3.377-2.134 6.732.502 9.458 3.493 3.613 7.034 7.64 11.384 9.869 9.228 4.724 19.397 6.973 29.773 7.295 9.46.293 18.608-1.827 26.934-6.4 5.857-3.216 11.149-7.485 17.073-10.549 4.323-2.235 7.941-5.895 13.695-5.625 10.29.483 20.628.196 30.937-.093 7.769-.218 15.205-2.045 22.28-6.503.54.931 1.503 1.84 1.542 2.786.218 5.38.26 10.768.235 16.153-.003.713-.545 1.693-1.142 2.089-3.434 2.28-6.716 5.069-10.499 6.49-12.745 4.786-23.352 12.395-31.635 23.076-8.74 11.272-17.395 22.633-25.535 34.338-5.25 7.55-10.152 15.487-14.056 23.793-5.535 11.775-11.928 23.282-13.721 36.574-1.727 12.798-4.574 25.46-5.962 38.286-1.028 9.505-.611 19.177-.64 28.776-.016 5.67-.158 11.417.671 16.993 1.234 8.3 2.885 16.585 5.098 24.674 1.797 6.568 1.946 14.138 8.999 18.32 2.522 1.495 4.69 3.603 6.975 5.485 9.704 7.992 20.11 15.05 32.191 18.616 10.468 3.09 20.544 7.617 31.931 7.782 12.102.175 24.168 2.372 36.275 2.673 10.611.263 21.252-1.124 31.89-1.338 16.497-.332 32.649-2.834 48.563-6.99 8.964-2.343 18.066-4.412 26.712-7.654 9.77-3.663 19.163-8.365 28.593-12.879 7.121-3.408 14.005-7.307 21.063-10.853 10.121-5.084 19.658-10.98 27.477-19.31 6.809-7.253 13.517-14.602 20.347-21.837.663-.703 1.85-1.224 2.822-1.274 11.692-.603 23.385-1.344 35.086-1.536 7.149-.117 10.504-3.689 11.754-10.7 1.763-9.896 3.875-19.699 5.454-29.67 1.867-11.787 2.356-23.455 2.308-35.234-.019-4.67-1.06-9.333-1.596-14.004-.149-1.295.065-2.664-.258-3.902-2.698-10.328-5.19-20.724-8.328-30.92-2.892-9.395-6.25-18.669-9.872-27.81-4.417-11.153-11.492-20.693-19.496-29.521-4.075-4.496-8.524-8.653-12.634-13.12-.77-.837-.733-2.415-1.068-3.651 1.105.29 2.243.496 3.304.9.634.241 1.175.762 1.712 1.212 4.588 3.849 9.501 7 15.616 7.857 3.682.515 7.368 1.09 10.994 1.895 5.025 1.115 10.87.615 13.664 6.535.337.714 1.306 1.11 1.923 1.714 8.298 8.12 16.544 16.294 24.901 24.353 2.59 2.496 5.624 4.897 9.463 3.815 3.575-1.008 6.235-3.057 7.5-7.257 1.863-6.189 2.014-12.14-.846-17.74-2.587-5.064-4.674-11.095-11.079-12.765-6.445-1.68-13.005-3.709-19.571-3.937-9.045-.314-16.69-2.533-23.634-8.603-5.718-4.997-12.454-8.815-18.619-13.32-3.461-2.53-7.475-3.838-7.546-10.096-.088-7.818-4.54-10.519-10.556-8.265-2.375.89-4.677 2.863-6.194 4.94-2.035 2.787-3.484 1.939-5.012-.005-7.215-9.182-16.735-15.476-27.077-21.816z"/><path class="st1" d="M390.455 114.423c10.342 6.34 19.862 12.634 27.077 21.816 1.528 1.944 2.977 2.792 5.012.005 1.517-2.077 3.819-4.05 6.194-4.94 6.016-2.254 10.468.447 10.556 8.265.07 6.258 4.085 7.566 7.546 10.095 6.165 4.506 12.901 8.324 18.62 13.321 6.943 6.07 14.588 8.289 23.633 8.603 6.566.228 13.126 2.257 19.571 3.937 6.405 1.67 8.492 7.7 11.08 12.765 2.86 5.6 2.708 11.551.845 17.74-1.265 4.2-3.925 6.25-7.5 7.257-3.839 1.082-6.874-1.319-9.463-3.815-8.357-8.059-16.603-16.233-24.9-24.353-.618-.604-1.587-1-1.924-1.714-2.794-5.92-8.639-5.42-13.664-6.535-3.626-.806-7.312-1.38-10.994-1.895-6.115-.857-11.028-4.008-15.616-7.857-.537-.45-1.078-.97-1.712-1.212-1.061-.404-2.199-.61-3.304-.9.335 1.236.299 2.814 1.068 3.65 4.11 4.468 8.559 8.625 12.634 13.12 8.004 8.83 15.079 18.37 19.496 29.521 3.621 9.142 6.98 18.416 9.872 27.811 3.139 10.196 5.63 20.592 8.328 30.92.323 1.238.109 2.607.258 3.902.535 4.671 1.577 9.335 1.596 14.004.048 11.779-.44 23.447-2.308 35.234-1.579 9.971-3.69 19.774-5.454 29.67-1.25 7.011-4.605 10.583-11.754 10.7-11.701.192-23.394.933-35.086 1.536-.973.05-2.159.571-2.822 1.274-6.83 7.235-13.538 14.584-20.347 21.838-7.819 8.33-17.356 14.225-27.477 19.31-7.058 3.545-13.942 7.444-21.063 10.852-9.43 4.514-18.824 9.216-28.593 12.88-8.646 3.241-17.748 5.31-26.712 7.652-15.914 4.157-32.066 6.659-48.564 6.99-10.637.215-21.278 1.602-31.89 1.339-12.106-.301-24.172-2.498-36.274-2.673-11.387-.165-21.463-4.691-31.93-7.782-12.082-3.566-22.488-10.624-32.192-18.616-2.286-1.882-4.453-3.99-6.975-5.486-7.053-4.18-7.202-11.751-8.999-18.32-2.213-8.088-3.864-16.374-5.098-24.673-.83-5.576-.687-11.323-.67-16.993.028-9.599-.39-19.271.64-28.776 1.387-12.826 4.234-25.488 5.96-38.286 1.794-13.292 8.187-24.8 13.722-36.574 3.904-8.306 8.805-16.243 14.056-23.793 8.14-11.705 16.795-23.066 25.535-34.338 8.283-10.68 18.89-18.29 31.635-23.077 3.783-1.42 7.065-4.21 10.499-6.489.597-.396 1.14-1.376 1.142-2.089.025-5.385-.017-10.774-.235-16.153-.039-.946-1.003-1.855-1.542-2.786-7.075 4.458-14.511 6.285-22.28 6.503-10.309.289-20.647.576-30.937.093-5.754-.27-9.372 3.39-13.695 5.625-5.924 3.064-11.216 7.333-17.073 10.55-8.326 4.572-17.473 6.692-26.934 6.399-10.376-.322-20.545-2.57-29.773-7.295-4.35-2.228-7.891-6.256-11.384-9.87-2.636-2.725-2.85-6.08-.503-9.457 3.753-5.4 8.764-9.012 15.22-9.897 8.58-1.176 17.255-2.561 25.858-2.383 7.82.161 15.605 2.27 23.399 3.564 7.48 1.242 14.95 2.541 22.425 3.813 4.593.782 7.024-2.6 9.912-5.13 6.523-5.711 13.247-10.986 21.43-14.385 10.41-4.325 20.39-4.494 30.413.85 7.229 3.854 6.908 3.763 7.625-4.07.356-3.88 1.808-7.865 3.63-11.348 1.787-3.416 10.572-3.04 13.582.154.782.83 1.785 1.613 2.183 2.618 2.082 5.26 5.172 3.605 8.005 1.056 6.664-5.996 14.758-7.112 23.24-8.466 8.139-1.3 15.011.857 22.29 3.41 7.806 2.739 15.753 5.493 23.87 6.735 3.505.537 7.827-2.288 11.368-4.306 11.754-6.702 23.346-13.691 34.954-20.646 11.797-7.068 24.597-8.995 38.051-7.573 4.73.5 6.714 4.594 9.133 7.79 5.778 7.64 2.72 14.989-1.31 22.179-1.382 2.466-2.74 4.946-4.212 7.605zm-280.38 238.365c-.403.22-.808.438-1.212.657.694 5.35 1.335 10.707 2.094 16.048 1.231 8.674 2.161 17.418 3.981 25.97.857 4.027 2.504 8.956 5.498 11.255 8.413 6.46 16.04 14.26 26.153 18.248 5.366 2.117 10.933 3.735 16.439 5.484 5.126 1.629 10.201 3.94 15.46 4.535 14.48 1.639 29.031 3.206 43.582 3.524 12.843.28 25.724-1.16 38.588-1.84.145-.008.291-.019.435-.042 13.3-2.185 26.643-4.14 39.882-6.65 7.203-1.366 14.498-2.997 21.274-5.703 12.471-4.982 24.707-10.602 36.815-16.426 8.338-4.01 16.379-8.667 24.385-13.323 3.876-2.254 7.635-4.87 10.975-7.85 5.905-5.267 12.16-10.392 16.928-16.606 4.13-5.382 9.71-10.446 9.548-18.396-.053-2.635 1-5.345 1.813-7.937 3.344-10.667 2.324-21.792-1.248-31.516-4.05-11.028-11.606-20.774-17.72-31.029-.431-.723-1.78-1.626-2.275-1.42-.819.342-1.599 1.435-1.85 2.359-.872 3.204-1.111 6.627-2.305 9.687-4.397 11.267-12.96 19.19-22.468 25.98-6.533 4.664-13.686 8.49-20.711 12.424-4.702 2.632-9.694 4.743-14.507 7.182-9.237 4.68-18.25 9.856-27.714 14.013-7.796 3.424-16.073 5.785-24.205 8.403-4.605 1.482-9.328 2.62-14.036 3.757-5.78 1.395-11.619 2.548-17.398 3.947-8.743 2.116-17.411 4.568-26.201 6.459-5.31 1.142-10.866 1.137-16.177 2.274-11.187 2.392-22.559 3.304-33.801 2.226-11.187-1.073-22.323-3.431-33.265-6.11-12.498-3.062-23.693-9.102-33.504-17.559-.956-.823-2.162-1.356-3.252-2.025zm107.292-175.917c-6.778 3.952-9.845 10.314-13.733 15.874-6.185 8.845-12.499 17.649-17.973 26.934-6.591 11.18-12.896 22.6-18.31 34.382-3.959 8.618-6.31 17.98-9.32 27.03-1.696 5.102-3.855 10.142-4.777 15.39-1.63 9.292-3.043 18.693-3.504 28.099-.566 11.541-.203 23.138.079 34.703.07 2.896 1.694 5.474 5.084 6.115 5.692 1.077 11.386 3.126 17.067 3.087 17.491-.122 34.977-1.037 52.465-1.65.288-.01.576-.087.859-.153 7.227-1.684 14.479-3.278 21.666-5.12 1.972-.506 5.182-1.543 5.36-2.71.582-3.837.096-7.849-.103-11.787-.154-3.058-.724-6.11-.683-9.158.044-3.275.908-6.551.836-9.814-.11-4.887-.69-9.765-1.141-14.641-.16-1.724-.497-3.435-.8-5.143a9754.764 9754.764 0 0 0-4.523-25.318c-1.351-7.497-2.432-15.058-4.173-22.463-1.725-7.336-4.173-14.5-6.219-21.762-1.695-6.018-3.04-12.144-4.95-18.09-2.235-6.953-5.21-13.675-7.321-20.662-2.255-7.464-3.875-15.12-5.886-23.143zm8.986-.645c1.382 6.082 2.436 11.213 3.73 16.283a450.226 450.226 0 0 0 4.772 17.23c2.356 7.91 5.105 15.713 7.229 23.683 2.177 8.174 3.031 16.77 5.85 24.686 4.46 12.526 5.098 25.555 6.885 38.458.116.835.288 1.661.44 2.49 1.47 8.002 3.39 15.953 4.296 24.019 1.079 9.62 1.462 19.332 1.792 29.017.14 4.112 1.92 5.119 5.473 4.285 2.907-.682 5.827-1.35 8.676-2.234 6.477-2.01 12.9-4.191 19.37-6.222 6.112-1.92 12.496-3.184 18.328-5.727 8.506-3.71 16.7-8.167 24.885-12.569 6.955-3.74 13.73-7.821 20.547-11.813 4.869-2.85 5.872-5.14 3.935-9.217-1.585-3.336-3.416-6.555-5.125-9.832-4.624-8.87-8.696-18.084-13.985-26.538-8.458-13.518-17.891-26.422-26.6-39.79-9.396-14.425-21.223-26.086-36.397-34.376-4.968-2.715-9.284-6.716-14.388-9.065-8.588-3.953-17.483-7.299-26.421-10.404-3.938-1.368-8.298-1.52-13.292-2.364zm24.59-17.126l.106-.67c4.82.791 9.663 1.466 14.454 2.406 5.44 1.067 10.863 2.253 16.238 3.609 4.87 1.228 9.888 2.25 14.441 4.264 7.476 3.307 14.598 7.406 21.937 11.032 2.105 1.04 4.434 1.93 6.507-.373 6.55-7.28 15.9-10.08 24.481-12.78 12.198-3.84 25.198-5.236 37.923-7.25 6.802-1.076 13.746-1.252 20.624-1.849.722-.062 1.818.027 2.082-.38.901-1.39 1.705-2.921 2.113-4.51.128-.501-1.097-1.945-1.716-1.953-7.099-.096-13.431-2.708-19.722-5.602-7.93-3.648-15.973-7.257-21.07-14.741-1.834-2.694-3.738-2.858-6.498-2.813-11.572.19-23.221 1.752-34.628-1.707-3.805-1.155-7.665-2.132-11.522-3.107-5.732-1.45-11.384-3.197-17.468-1.52-10.186 2.807-20.32 6.614-30.71 7.653-10.783 1.079-21.844-.688-32.79-1.026-1.067-.033-3.19 1.4-3.112 1.87 1.441 8.763 3.039 17.505 4.862 26.197.455 2.168 1.977 3.618 4.755 3.32 2.874-.31 5.807-.07 8.714-.07zm-23.98 6.409l-.655 1.974c1.26.696 2.446 1.717 3.795 2.03 5.426 1.257 11.193 1.556 16.3 3.565 10.837 4.264 21.622 8.846 31.88 14.325 6.891 3.681 12.765 9.235 19.232 13.753 9.204 6.431 16.318 15.012 22.957 23.736 8.412 11.052 15.546 23.077 23.237 34.679 3.36 5.07 6.973 9.991 10.053 15.226 4.778 8.12 9.22 16.436 13.753 24.699.933 1.701 1.902 3.461 2.38 5.317.707 2.75 1.901 3.414 4.26 1.749 9.495-6.702 14.512-16.182 16.54-27.333.615-3.39-.777-7.47.621-10.313 1.899-3.861.177-5.863-1.77-8.29-6.48-8.07-13.128-16.01-19.462-24.194-11.135-14.384-22.988-27.811-38.628-37.766-8.652-5.508-16.597-12.097-26.262-15.932-7.968-3.162-15.123-8.727-24.344-8.213-.503.028-1.013-.515-1.554-.64-5.925-1.36-11.805-3.044-17.802-3.933-6.958-1.031-14.038-1.21-21.031-2.04-4.531-.539-9.002-1.582-13.5-2.4zm-20.965 6.809l-1.294-1.333c-4.52 2.506-8.897 5.324-13.588 7.448-8.495 3.847-15.65 9.386-21.57 16.442-6.884 8.206-13.525 16.622-20.083 25.093-4.176 5.393-8.728 10.679-11.841 16.672-5.853 11.266-11.144 22.863-15.96 34.612-2.62 6.39-4.078 13.315-5.528 20.111-1.955 9.166-3.404 18.44-5.05 27.67-.178.996-.243 2.015-.322 3.025-.446 5.718-.965 11.433-1.231 17.16-.041.883.95 1.97 1.709 2.712 8.472 8.274 18.233 14.58 29.474 19.11.076-1.284.21-2.423.2-3.56-.088-9.502-.274-19.003-.274-28.504 0-4.201.083-8.437.621-12.594.77-5.944 1.97-11.834 3.033-17.739a52.14 52.14 0 0 1 1.17-4.995c.744-2.616 1.586-5.203 2.375-7.806 2.706-8.938 5.055-18.005 8.218-26.779 2.68-7.434 6.285-14.536 9.51-21.772 2.086-4.68 3.792-9.602 6.448-13.937 3.63-5.926 8.175-11.283 12.018-17.089 6.168-9.321 12.074-18.816 18.11-28.225 1.242-1.936 2.568-3.816 3.855-5.722zm241.64 81.21l-1.148-.105c0-4.499.71-9.135-.136-13.468-2.386-12.218-4.74-24.548-10.334-35.816-4.172-8.407-8.93-16.524-13.482-24.74-1.674-3.022-3.758-3.997-6.224-.735-6.224 8.239-12.721 16.294-18.524 24.82-3.076 4.521-4.501 10.147-7.451 14.778-3.583 5.622-3.104 12.937-7.99 17.959-.525.538-.112 2.605.509 3.535 2.613 3.915 5.123 7.99 8.308 11.414 6.739 7.243 12.379 15.17 17.568 23.586 2.112 3.425 3.432 8.68 9.562 8.563 2.95-.056 5.995 1.29 8.879 2.33 3.725 1.341 7.346 2.977 10.985 4.548 3.013 1.3 4.645.256 5.06-2.874 1.488-11.263 2.948-22.53 4.419-33.795zm-16.212 101.895c8.884.33 17.22 1.044 25.522.758 3.625-.125 8.741-1.253 10.424-3.768 2.988-4.467 4.35-10.237 5.522-15.65 1.548-7.143 2.462-14.446 3.247-21.724.442-4.106.08-8.298.08-12.694-1.899 0-3.195-.094-4.474.016-5.444.468-10.947 1.757-16.306 1.302-6.073-.516-12.02-2.553-18.011-3.969-4.333-1.023-8.65-2.112-13.636-3.334.37 2.065.293 3.03.701 3.701 4.684 7.692 7.03 15.944 6.658 25.012-.13 3.165.232 6.394.756 9.53.438 2.622 2.15 5.183 2.03 7.712-.187 3.96-1.442 7.868-2.513 13.108zm19.918-62.08c7.89 0 14.536.227 21.153-.114 2.608-.135 4.424-2.141 4.073-5.175-.546-4.725-1.625-9.44-1.649-14.163-.06-11.61-4.761-22.013-7.952-32.8-1.831-6.195-4.136-12.255-6.38-18.32-2.426-6.563-4.362-13.43-7.717-19.5-4.65-8.41-11.304-15.482-18.065-22.335-.353-.357-.865-.558-1.303-.831l-1.316.67c10.372 16.566 18.833 34.172 20.898 53.418 2.083 19.411 3.5 39.161-1.742 59.15zm-62.156-198.79c.108-5.46-2.893-8.283-8.163-8.857-12.698-1.382-23.28 4.138-33.789 9.887-8.873 4.853-17.599 9.979-26.33 15.084-.868.508-1.326 1.716-1.974 2.6.867.626 1.65 1.517 2.617 1.826a38.098 38.098 0 0 0 6.28 1.444c5.551.777 11.107 1.68 16.692 2 2.948.169 5.99-1.294 8.937-1.121 8.487.499 16.233-1.868 23.661-5.492 7.17-3.498 11.142-9.43 12.069-17.371zm16.184 81.873c-2.083.152-5.093-.378-7.374.674-7.556 3.486-15.183 7.025-22.14 11.535-6.02 3.901-11.055 9.29-16.73 13.761-4.095 3.225-4.249 3.68-.88 7.495 4.61 5.219 8.974 10.658 13.69 15.776.977 1.06 3.024 1.456 4.594 1.494.665.015 1.59-1.597 2.013-2.627 1.072-2.617 1.533-5.553 2.935-7.955 7.775-13.327 15.758-26.533 23.892-40.153zm-278.284-28.204l-.538-1.787c-5.13-1.09-10.224-2.414-15.399-3.216-8.217-1.274-16.463-2.608-24.746-3.117-4.8-.295-9.749.693-14.528 1.628-3.977.778-7.838 2.23-11.657 3.637-.482.178-.916 2.355-.494 2.839 6.2 7.107 14.564 9.66 23.544 10.718 9.596 1.132 19.032.62 28.007-3.374 5.306-2.362 10.543-4.88 15.811-7.328zm203.045 38.091c5.5 4.24 10.838 8.496 16.376 12.473.841.603 3.104.446 3.872-.265 5.24-4.846 9.735-10.663 15.476-14.756 6.983-4.98 14.875-8.73 22.544-12.682 2.598-1.338 5.712-1.673 8.59-2.467l-.195-1.435c-10.658 1.092-21.4 1.679-31.942 3.458-6.81 1.149-13.52 3.585-19.913 6.3-5.204 2.21-11.533 3.003-14.808 9.374zm-44.028-71.097c-17.806-9.6-34.386-10.923-51.096.853 1.372 1.182 2.135 2.415 3.023 2.512 6.55.715 13.118 1.527 19.693 1.65 4.407.084 8.875-.685 13.242-1.481 4.9-.893 9.717-2.246 15.138-3.534zm-130.532 22.83c10.604-.008 20.15 1.22 29.372-2.05 3.453-1.225 6.734-3.012 9.921-4.844.63-.362.986-2.812.59-3.102-6.69-4.901-14.584-5.486-21.886-3.18-5.594 1.766-10.363 6.205-15.414 9.582-.877.587-1.33 1.805-2.583 3.594zm328.999 42.398c9.536 7.675 15.97 17.18 26.221 22.247 1.96-5.77.652-14.372-2.94-17.014-6.695-4.925-14.282-6.419-23.281-5.233zm-75.287-38.685l.654-1.283c-2.73-2.558-5.21-5.47-8.241-7.597-5.893-4.137-11.977-8.045-18.269-11.53-1.195-.662-3.822.884-5.535 1.857-.333.188.07 2.928.882 3.663 3.333 3.015 6.769 5.994 10.515 8.458 6.053 3.981 13.132 4.945 19.994 6.432zm21.258-.494c-1.08.743-1.713.954-1.966 1.386-2.614 4.475-5.232 8.952-7.656 13.53-.298.563.322 2.273.875 2.476.89.327 2.744.194 3.036-.356 2.719-5.13 7.008-9.78 5.71-17.036zm26.327 27.175c-1.78-4.936-13.877-11.657-18.604-10.507 4.894 5.598 10.232 10.433 18.604 10.507z"/><path class="st2" d="M110.076 352.788c1.09.669 2.296 1.202 3.252 2.025 9.81 8.457 21.006 14.497 33.504 17.558 10.942 2.68 22.078 5.038 33.265 6.111 11.242 1.078 22.614.166 33.8-2.226 5.312-1.137 10.868-1.132 16.178-2.274 8.79-1.891 17.458-4.343 26.201-6.46 5.78-1.398 11.618-2.551 17.398-3.946 4.708-1.137 9.43-2.275 14.036-3.757 8.132-2.618 16.409-4.979 24.205-8.403 9.463-4.157 18.477-9.333 27.714-14.013 4.813-2.44 9.805-4.55 14.507-7.182 7.025-3.934 14.178-7.76 20.71-12.425 9.508-6.788 18.072-14.712 22.469-25.979 1.194-3.06 1.433-6.483 2.305-9.687.251-.924 1.031-2.017 1.85-2.359.494-.206 1.844.697 2.275 1.42 6.114 10.255 13.67 20.001 17.72 31.03 3.572 9.723 4.592 20.848 1.248 31.515-.813 2.592-1.866 5.302-1.813 7.937.162 7.95-5.418 13.014-9.548 18.396-4.768 6.214-11.023 11.339-16.928 16.606-3.34 2.98-7.099 5.596-10.975 7.85-8.006 4.656-16.047 9.313-24.385 13.323-12.108 5.824-24.344 11.444-36.815 16.426-6.776 2.706-14.071 4.337-21.274 5.702-13.239 2.51-26.582 4.466-39.882 6.65-.144.024-.29.035-.435.043-12.864.68-25.745 2.12-38.588 1.84-14.55-.318-29.101-1.885-43.583-3.524-5.258-.595-10.333-2.906-15.46-4.535-5.505-1.749-11.072-3.367-16.438-5.484-10.112-3.988-17.74-11.787-26.153-18.248-2.994-2.299-4.64-7.228-5.498-11.255-1.82-8.552-2.75-17.296-3.981-25.97-.759-5.34-1.4-10.698-2.094-16.048l1.213-.657z"/><path class="st2" d="M217.367 176.87c2.01 8.024 3.631 15.68 5.886 23.144 2.11 6.987 5.086 13.709 7.321 20.663 1.91 5.945 3.255 12.071 4.95 18.089 2.046 7.263 4.494 14.426 6.219 21.762 1.741 7.405 2.822 14.966 4.173 22.463 1.52 8.437 3.025 16.877 4.523 25.318.303 1.708.64 3.419.8 5.143.45 4.876 1.032 9.754 1.14 14.641.073 3.263-.791 6.539-.835 9.814-.041 3.049.53 6.1.683 9.158.199 3.938.685 7.95.102 11.788-.177 1.166-3.387 2.203-5.359 2.708-7.187 1.843-14.439 3.437-21.666 5.121-.283.066-.571.143-.859.153-17.488.613-34.974 1.528-52.465 1.65-5.681.039-11.375-2.01-17.067-3.087-3.39-.641-5.013-3.219-5.084-6.115-.282-11.565-.645-23.162-.08-34.703.462-9.406 1.875-18.807 3.505-28.098.922-5.25 3.08-10.29 4.777-15.392 3.01-9.05 5.361-18.41 9.32-27.03 5.414-11.782 11.719-23.2 18.31-34.381 5.474-9.285 11.788-18.089 17.973-26.934 3.888-5.56 6.955-11.922 13.733-15.874zM226.353 176.226c4.994.844 9.354.996 13.292 2.364 8.938 3.105 17.833 6.451 26.42 10.404 5.105 2.35 9.421 6.35 14.389 9.065 15.174 8.29 27 19.951 36.398 34.376 8.708 13.368 18.141 26.272 26.6 39.79 5.288 8.454 9.36 17.668 13.984 26.538 1.709 3.277 3.54 6.496 5.125 9.832 1.937 4.077.934 6.367-3.935 9.217-6.818 3.992-13.592 8.073-20.547 11.813-8.185 4.402-16.379 8.859-24.885 12.569-5.832 2.543-12.216 3.808-18.328 5.727-6.47 2.03-12.893 4.213-19.37 6.222-2.849.884-5.769 1.552-8.676 2.234-3.553.834-5.332-.173-5.473-4.285-.33-9.685-.713-19.397-1.792-29.017-.905-8.066-2.826-16.017-4.296-24.019-.152-.829-.324-1.655-.44-2.49-1.787-12.903-2.425-25.932-6.885-38.458-2.819-7.917-3.673-16.512-5.85-24.686-2.124-7.97-4.873-15.772-7.23-23.683-1.7-5.711-3.3-11.456-4.772-17.23-1.293-5.07-2.347-10.201-3.73-16.283zM250.944 159.1c-2.907 0-5.84-.24-8.714.07-2.778.298-4.3-1.152-4.755-3.32-1.823-8.692-3.42-17.434-4.862-26.196-.078-.471 2.045-1.904 3.112-1.87 10.946.337 22.007 2.104 32.79 1.025 10.39-1.04 20.524-4.846 30.71-7.653 6.084-1.677 11.736.07 17.468 1.52 3.857.975 7.717 1.952 11.522 3.107 11.407 3.46 23.056 1.896 34.628 1.707 2.76-.045 4.664.119 6.499 2.813 5.096 7.484 13.139 11.093 21.07 14.741 6.29 2.894 12.622 5.506 19.721 5.602.62.008 1.844 1.452 1.716 1.954-.408 1.588-1.212 3.118-2.113 4.509-.264.407-1.36.318-2.082.38-6.878.597-13.822.773-20.624 1.85-12.725 2.013-25.725 3.409-37.923 7.248-8.581 2.701-17.93 5.5-24.481 12.78-2.073 2.305-4.402 1.414-6.507.374-7.34-3.626-14.461-7.725-21.937-11.032-4.553-2.015-9.571-3.036-14.44-4.264-5.376-1.356-10.8-2.542-16.24-3.61-4.79-.94-9.633-1.614-14.453-2.405l-.105.67z"/><path class="st2" d="M226.962 165.509c4.499.817 8.97 1.86 13.501 2.399 6.993.83 14.073 1.009 21.031 2.04 5.997.889 11.877 2.574 17.802 3.933.541.125 1.05.668 1.554.64 9.221-.514 16.376 5.05 24.344 8.213 9.665 3.835 17.61 10.424 26.262 15.932 15.64 9.955 27.493 23.382 38.628 37.766 6.334 8.183 12.981 16.124 19.461 24.194 1.948 2.427 3.67 4.429 1.771 8.29-1.398 2.843-.006 6.923-.622 10.313-2.027 11.151-7.044 20.631-16.539 27.333-2.359 1.665-3.553 1-4.26-1.75-.478-1.855-1.447-3.615-2.38-5.316-4.532-8.263-8.975-16.58-13.753-24.699-3.08-5.235-6.692-10.156-10.053-15.226-7.691-11.602-14.825-23.627-23.237-34.68-6.64-8.723-13.753-17.304-22.957-23.735-6.467-4.518-12.34-10.072-19.232-13.753-10.258-5.48-21.043-10.061-31.88-14.325-5.107-2.01-10.874-2.308-16.3-3.565-1.35-.313-2.534-1.334-3.795-2.03l.654-1.974zM205.998 172.318c-1.287 1.906-2.613 3.786-3.855 5.722-6.036 9.409-11.942 18.904-18.11 28.225-3.843 5.806-8.387 11.163-12.018 17.089-2.656 4.335-4.362 9.257-6.448 13.937-3.225 7.236-6.83 14.338-9.51 21.772-3.163 8.774-5.512 17.84-8.218 26.78-.789 2.602-1.631 5.19-2.374 7.805a52.14 52.14 0 0 0-1.171 4.995c-1.063 5.905-2.263 11.795-3.033 17.74-.538 4.156-.621 8.392-.621 12.593 0 9.501.186 19.002.273 28.504.01 1.137-.123 2.276-.199 3.56-11.241-4.53-21.002-10.836-29.474-19.11-.76-.741-1.75-1.829-1.709-2.712.266-5.727.785-11.442 1.231-17.16.08-1.01.144-2.029.321-3.024 1.647-9.231 3.096-18.505 5.051-27.67 1.45-6.797 2.909-13.722 5.528-20.112 4.816-11.75 10.107-23.346 15.96-34.612 3.113-5.993 7.665-11.279 11.84-16.672 6.559-8.471 13.2-16.887 20.084-25.093 5.92-7.056 13.075-12.595 21.57-16.442 4.691-2.124 9.068-4.942 13.588-7.448l1.294 1.333zM447.639 253.528c-1.471 11.265-2.931 22.532-4.42 33.795-.414 3.13-2.046 4.174-5.059 2.874-3.639-1.57-7.26-3.207-10.985-4.548-2.884-1.04-5.93-2.386-8.879-2.33-6.13.117-7.45-5.138-9.562-8.563-5.19-8.415-10.829-16.343-17.568-23.586-3.185-3.424-5.695-7.499-8.308-11.414-.62-.93-1.034-2.997-.51-3.535 4.887-5.022 4.408-12.337 7.99-17.96 2.95-4.63 4.376-10.256 7.452-14.777 5.803-8.526 12.3-16.581 18.524-24.82 2.466-3.262 4.55-2.287 6.224.735 4.553 8.216 9.31 16.333 13.482 24.74 5.593 11.268 7.948 23.598 10.334 35.816.847 4.333.136 8.97.136 13.468l1.149.105zM431.426 355.423c1.07-5.24 2.326-9.149 2.513-13.108.12-2.529-1.592-5.09-2.03-7.713-.524-3.135-.886-6.364-.756-9.529.372-9.068-1.974-17.32-6.658-25.012-.408-.67-.331-1.636-.701-3.7 4.986 1.221 9.303 2.31 13.636 3.333 5.992 1.416 11.938 3.453 18.01 3.969 5.36.455 10.863-.834 16.307-1.302 1.279-.11 2.575-.016 4.473-.016 0 4.396.363 8.588-.08 12.694-.784 7.278-1.698 14.58-3.246 21.725-1.172 5.412-2.534 11.182-5.522 15.649-1.683 2.515-6.799 3.643-10.424 3.768-8.302.286-16.638-.429-25.522-.758z"/><path class="st2" d="M451.344 293.342c5.241-19.988 3.825-39.738 1.742-59.149-2.065-19.246-10.526-36.852-20.898-53.418l1.316-.67c.438.273.95.474 1.303.831 6.761 6.853 13.414 13.925 18.065 22.336 3.355 6.068 5.29 12.936 7.718 19.5 2.243 6.064 4.548 12.124 6.38 18.318 3.19 10.788 7.891 21.192 7.951 32.8.024 4.724 1.103 9.439 1.65 14.164.35 3.034-1.466 5.04-4.074 5.175-6.617.341-13.264.113-21.153.113zM389.188 94.553c-.927 7.941-4.899 13.873-12.069 17.37-7.428 3.625-15.174 5.992-23.66 5.493-2.948-.173-5.99 1.29-8.938 1.12-5.585-.319-11.14-1.222-16.692-2a38.098 38.098 0 0 1-6.28-1.443c-.968-.31-1.75-1.2-2.617-1.827.648-.883 1.106-2.091 1.973-2.599 8.732-5.105 17.458-10.23 26.331-15.084 10.509-5.749 21.091-11.27 33.79-9.887 5.269.574 8.27 3.398 8.162 8.857zM405.372 176.426c-8.134 13.62-16.117 26.826-23.892 40.153-1.402 2.402-1.863 5.338-2.935 7.955-.422 1.03-1.348 2.642-2.013 2.627-1.57-.038-3.617-.434-4.594-1.494-4.716-5.118-9.08-10.557-13.69-15.776-3.369-3.814-3.215-4.27.88-7.495 5.675-4.47 10.71-9.86 16.73-13.761 6.957-4.51 14.584-8.05 22.14-11.535 2.28-1.052 5.29-.522 7.374-.674zM127.088 148.222c-5.268 2.448-10.505 4.966-15.811 7.328-8.975 3.995-18.411 4.506-28.007 3.374-8.98-1.058-17.343-3.611-23.544-10.718-.422-.484.012-2.661.494-2.84 3.819-1.406 7.68-2.858 11.657-3.636 4.779-.935 9.729-1.923 14.528-1.628 8.283.51 16.53 1.843 24.746 3.117 5.175.802 10.269 2.126 15.399 3.216l.538 1.787zM330.133 186.313c3.275-6.371 9.604-7.164 14.808-9.374 6.392-2.715 13.103-5.151 19.913-6.3 10.542-1.78 21.284-2.366 31.942-3.458l.195 1.435c-2.878.794-5.992 1.129-8.59 2.467-7.669 3.952-15.56 7.702-22.544 12.682-5.741 4.093-10.237 9.91-15.476 14.756-.768.71-3.031.868-3.872.265-5.538-3.977-10.876-8.233-16.376-12.473zM230.472 157.778c-5.355.72-8.97.373-13.346.553-3.463.143-5.115-1.224-4.871-4.814.516-7.616 1.008-15.235 1.373-22.86.237-4.96.09-9.94.415-14.893.105-1.611-.32-5.94 2.244-5.94 3.313 0 3.805 5.018 4.372 7.187 3.428 13.113 6.568 27.57 9.813 40.767zM286.105 115.216c-5.421 1.288-10.238 2.64-15.138 3.534-4.367.796-8.835 1.565-13.242 1.482-6.575-.124-13.143-.936-19.693-1.65-.888-.098-1.65-1.33-3.023-2.513 16.71-11.776 33.29-10.453 51.096-.853zM155.573 138.046c1.253-1.789 1.706-3.007 2.583-3.594 5.051-3.377 9.82-7.816 15.414-9.582 7.302-2.306 15.197-1.721 21.886 3.18.396.29.04 2.74-.59 3.102-3.187 1.832-6.468 3.62-9.921 4.844-9.221 3.27-18.768 2.042-29.372 2.05zM484.572 180.444c8.999-1.186 16.586.308 23.282 5.233 3.59 2.642 4.898 11.244 2.94 17.014-10.252-5.066-16.686-14.572-26.222-22.247zM409.285 141.76c-6.862-1.488-13.94-2.452-19.994-6.433-3.746-2.464-7.182-5.443-10.515-8.458-.812-.735-1.215-3.475-.882-3.663 1.713-.973 4.34-2.519 5.535-1.856 6.292 3.484 12.376 7.392 18.269 11.529 3.03 2.128 5.512 5.04 8.241 7.597l-.654 1.283zM430.543 141.265c1.297 7.257-2.992 11.907-5.711 17.036-.292.55-2.147.683-3.036.356-.553-.203-1.173-1.913-.875-2.476 2.424-4.578 5.042-9.055 7.656-13.53.253-.432.886-.643 1.966-1.386zM456.87 168.44c-8.372-.074-13.71-4.909-18.605-10.505 4.728-1.152 16.825 5.569 18.605 10.505z"/></g><g id="Laag_5"><linearGradient id="SVGID_1_" gradientUnits="userSpaceOnUse" x1="408.356" y1="250.141" x2="513.154" y2="250.141" gradientTransform="rotate(11.797 360.04 235.793)"><stop offset="0" stop-color="#cd0c15"/><stop offset="1" stop-color="#8a1006"/></linearGradient><path d="M491.507 354.722c.24-.823.46-1.661.64-2.528 10.064-48.187 30.264-144.646-72.372-166.082l45.788 150.601 25.944 18.009z" fill="url(#SVGID_1_)"/><linearGradient id="SVGID_2_" gradientUnits="userSpaceOnUse" x1="303.506" y1="261.743" x2="498.233" y2="261.743" gradientTransform="rotate(11.797 360.04 235.793)"><stop offset="0" stop-color="#dfcb0a"/><stop offset=".547" stop-color="#dfcb0a"/><stop offset=".811" stop-color="#bcac0d"/><stop offset="1" stop-color="#a5980d"/></linearGradient><path d="M286.927 309.333c-2.206 10.564.984 19.843 7.314 27.894l160.507 16.524 23.028-5.729-12.214-11.309s26.503-134.394-45.787-150.6c-102.636-21.437-122.764 74.937-132.848 123.22z" fill="url(#SVGID_2_)"/><linearGradient id="SVGID_3_" gradientUnits="userSpaceOnUse" x1="303.512" y1="247.623" x2="408.356" y2="247.623" gradientTransform="rotate(11.797 360.04 235.793)"><stop offset="0" stop-color="#9c100b"/><stop offset="1" stop-color="#cd0c15"/></linearGradient><path d="M288.105 303.722l72.409 18.497s33.484-141.49 59.26-136.107c-81.006-16.918-121.142 67.894-131.669 117.61z" fill="url(#SVGID_3_)"/><linearGradient id="SVGID_4_" gradientUnits="userSpaceOnUse" x1="312.746" y1="232.118" x2="395.697" y2="246.744" gradientTransform="rotate(11.797 360.04 235.793)"><stop offset="0" stop-color="#ad9f0d"/><stop offset=".215" stop-color="#c3b30d"/><stop offset=".453" stop-color="#dfcb0a"/><stop offset="1" stop-color="#dfcb0a"/></linearGradient><path d="M419.775 186.112c-91.093-19.025-117.191 54.748-128.96 105.34l13.476 5.51s22.317-130.308 115.484-110.85z" fill="url(#SVGID_4_)"/><linearGradient id="SVGID_5_" gradientUnits="userSpaceOnUse" x1="303.558" y1="331.897" x2="513.154" y2="331.897" gradientTransform="rotate(11.797 360.04 235.793)"><stop offset="0" stop-color="#509ab8"/><stop offset=".005" stop-color="#519bb9"/><stop offset=".084" stop-color="#57a8ca"/><stop offset=".172" stop-color="#5cb1d5"/><stop offset=".272" stop-color="#5eb6db"/><stop offset=".415" stop-color="#5fb8dd"/><stop offset=".548" stop-color="#5db5d9"/><stop offset=".715" stop-color="#59acce"/><stop offset=".9" stop-color="#519cbb"/><stop offset="1" stop-color="#4c92af"/></linearGradient><path d="M497.86 321.733c-.071.058-5.408 29.003-107.993 7.578-102.635-21.436-95.89-50.086-95.932-50.168-2.945 11.001-5.12 21.407-6.957 30.2-10.064 48.188 92.5 69.709 92.5 69.709s102.605 21.329 112.67-26.858c1.836-8.794 4.008-19.2 5.712-30.461z" fill="url(#SVGID_5_)"/><linearGradient id="SVGID_6_" gradientUnits="userSpaceOnUse" x1="413.22" y1="155.447" x2="494.011" y2="155.447" gradientTransform="rotate(11.797 360.04 235.793)"><stop offset="0" stop-color="#379d31"/><stop offset=".211" stop-color="#359830"/><stop offset=".585" stop-color="#30892b"/><stop offset="1" stop-color="#277424"/></linearGradient><path d="M428.462 168.306s10.06-8.744 22.684-5.948c12.625 2.795 54.777 30.242 54.777 30.242s-11.043-7.966-26.957-9.685c-15.914-1.72-30.215.247-38.148-1.994-7.933-2.241-13.087-7.954-13.087-7.954l.73-4.661z" fill="url(#SVGID_6_)"/><linearGradient id="SVGID_7_" gradientUnits="userSpaceOnUse" x1="468.13" y1="157.417" x2="547.504" y2="157.417" gradientTransform="rotate(11.797 360.04 235.793)"><stop offset="0" stop-color="#8ab21d"/><stop offset=".248" stop-color="#88b01d"/><stop offset=".501" stop-color="#83a91c"/><stop offset=".755" stop-color="#7a9d1a"/><stop offset="1" stop-color="#6d8e17"/></linearGradient><path d="M505.923 192.6s27.816 16.617 42.296 12.255c0 0 21.724-4.777 5.682-18.264-16.042-13.488-48.09.957-71.385-8.511l23.407 14.52z" fill="url(#SVGID_7_)"/><linearGradient id="SVGID_8_" gradientUnits="userSpaceOnUse" x1="321.693" y1="156.109" x2="402.732" y2="156.109" gradientTransform="rotate(11.797 360.04 235.793)"><stop offset="0" stop-color="#277424"/><stop offset=".415" stop-color="#30892b"/><stop offset=".789" stop-color="#359830"/><stop offset="1" stop-color="#379d31"/></linearGradient><path d="M417.818 166.76c-.548-5.837-5.72-12.04-18.407-14.53-12.688-2.491-62.302 5.79-62.302 5.79s13.308-2.88 28.58 1.914c15.272 4.793 27.59 12.32 35.757 13.441s12.548.733 15.176-2.051c.81-.857 1.307-3.39 1.196-4.564z" fill="url(#SVGID_8_)"/><linearGradient id="SVGID_9_" gradientUnits="userSpaceOnUse" x1="268.201" y1="158.08" x2="347.574" y2="158.08" gradientTransform="rotate(11.797 360.04 235.793)"><stop offset="0" stop-color="#7da21b"/><stop offset=".223" stop-color="#88b01d"/><stop offset=".458" stop-color="#8fba1e"/><stop offset=".708" stop-color="#94bf1f"/><stop offset="1" stop-color="#95c11f"/></linearGradient><path d="M337.109 158.02s-32.143 4.095-43.666-5.699c0 0-17.996-13.072 2.103-19.01s43.687 20.124 68.825 20.771l-27.262 3.938z" fill="url(#SVGID_9_)"/><linearGradient id="SVGID_10_" gradientUnits="userSpaceOnUse" x1="399.711" y1="161.551" x2="416.986" y2="161.551" gradientTransform="rotate(11.797 360.04 235.793)"><stop offset="0" stop-color="#7a5932"/><stop offset=".043" stop-color="#856137"/><stop offset=".115" stop-color="#926a3d"/><stop offset=".194" stop-color="#9b7040"/><stop offset=".285" stop-color="#a07343"/><stop offset=".415" stop-color="#a27543"/><stop offset=".548" stop-color="#9f7242"/><stop offset=".715" stop-color="#956c3e"/><stop offset=".899" stop-color="#876238"/><stop offset="1" stop-color="#7c5a33"/></linearGradient><path d="M419.295 188.28c7.468 1.559 8.686.215 8.865-.106 1.949-11.715 3.755-29.169-2.486-30.472-6.236-1.302-11.533 15.39-14.418 26.909 0 .278.312 2.054 8.04 3.668z" fill="url(#SVGID_10_)"/><linearGradient id="SVGID_11_" gradientUnits="userSpaceOnUse" x1="242.27" y1="269.503" x2="406.685" y2="269.503" gradientTransform="rotate(-6.442 282.818 271.881)"><stop offset="0" stop-color="#e00918"/><stop offset="1" stop-color="#9e100b"/></linearGradient><path d="M418.7 372.863a52.402 52.402 0 0 0-.288-4.081c-8.664-76.743-25.929-230.391-189.387-211.936l142.173 201.922 47.501 14.095z" fill="url(#SVGID_11_)"/><linearGradient id="SVGID_12_" gradientUnits="userSpaceOnUse" x1="77.773" y1="287.705" x2="383.276" y2="287.705" gradientTransform="rotate(-6.442 282.818 271.881)"><stop offset="0" stop-color="#f4dd06"/><stop offset=".547" stop-color="#f4dd06"/><stop offset=".811" stop-color="#d1bf0c"/><stop offset="1" stop-color="#bbab0d"/></linearGradient><path d="M91.577 405.682c1.9 16.825 11.208 29.084 24.594 37.972l247.279-54.19 31.5-19.842-23.752-10.854s-26.5-213.269-142.173-201.922C65.566 175.3 82.895 328.786 91.577 405.682z" fill="url(#SVGID_12_)"/><linearGradient id="SVGID_13_" gradientUnits="userSpaceOnUse" x1="77.783" y1="265.553" x2="242.27" y2="265.553" gradientTransform="rotate(-6.442 282.818 271.881)"><stop offset="0" stop-color="#b0100f"/><stop offset="1" stop-color="#e00918"/></linearGradient><path d="M90.577 396.742l116.975-7.991s-19.58-227.27 21.473-231.905C100.013 171.41 81.852 317.494 90.577 396.742z" fill="url(#SVGID_13_)"/><linearGradient id="SVGID_14_" gradientUnits="userSpaceOnUse" x1="92.269" y1="241.227" x2="222.409" y2="264.174" gradientTransform="rotate(-6.442 282.818 271.881)"><stop offset="0" stop-color="#c2b20d"/><stop offset=".215" stop-color="#d9c50b"/><stop offset=".453" stop-color="#f4dd06"/><stop offset="1" stop-color="#f4dd06"/></linearGradient><path d="M229.025 156.846C83.949 173.225 81.285 295.966 88.59 377.127l22.785 1.595s-30.73-205.124 117.649-221.876z" fill="url(#SVGID_14_)"/><linearGradient id="SVGID_15_" gradientUnits="userSpaceOnUse" x1="77.855" y1="397.768" x2="406.685" y2="397.768" gradientTransform="rotate(-6.442 282.818 271.881)"><stop offset="0" stop-color="#5bafd2"/><stop offset=".041" stop-color="#5cb2d6"/><stop offset=".277" stop-color="#63c2ea"/><stop offset=".415" stop-color="#66c7f1"/><stop offset=".545" stop-color="#64c4ed"/><stop offset=".708" stop-color="#60bce2"/><stop offset=".889" stop-color="#5aadd0"/><stop offset="1" stop-color="#54a2c2"/></linearGradient><path d="M411.967 320.588c-.077.122 6.183 45.872-157.194 64.318-163.458 18.454-167.475-27.55-167.577-27.65 1.012 17.838 2.881 34.411 4.462 48.417 8.665 76.743 172.06 58.45 172.06 58.45s163.359-18.599 154.694-95.341c-1.58-14.006-3.454-30.579-6.445-48.194z" fill="url(#SVGID_15_)"/><linearGradient id="SVGID_16_" gradientUnits="userSpaceOnUse" x1="249.9" y1="120.94" x2="376.652" y2="120.94" gradientTransform="rotate(-6.442 282.818 271.881)"><stop offset="0" stop-color="#3aaa35"/><stop offset=".211" stop-color="#39a534"/><stop offset=".585" stop-color="#35972f"/><stop offset="1" stop-color="#2d8329"/></linearGradient><path d="M233.226 126.048s10.697-17.969 30.88-20.002 96.47 18.167 96.47 18.167-20.365-6.447-44.922-1.196c-24.558 5.251-44.902 15.205-57.823 15.76-12.92.557-23.405-5.425-23.405-5.425l-1.2-7.304z" fill="url(#SVGID_16_)"/><linearGradient id="SVGID_17_" gradientUnits="userSpaceOnUse" x1="336.048" y1="124.031" x2="460.575" y2="124.031" gradientTransform="rotate(-6.442 282.818 271.881)"><stop offset="0" stop-color="#95c11f"/><stop offset=".248" stop-color="#93bf1e"/><stop offset=".501" stop-color="#8eb81e"/><stop offset=".755" stop-color="#86ad1c"/><stop offset="1" stop-color="#7a9e1a"/></linearGradient><path d="M360.576 124.213s49.608 11.103 69.041-2.508c0 0 30.025-17.784-.501-30.004s-71.187 25.039-110.547 22.37l42.007 10.142z" fill="url(#SVGID_17_)"/><linearGradient id="SVGID_18_" gradientUnits="userSpaceOnUse" x1="106.306" y1="121.978" x2="233.447" y2="121.978" gradientTransform="rotate(-6.442 282.818 271.881)"><stop offset="0" stop-color="#2d8329"/><stop offset=".415" stop-color="#35972f"/><stop offset=".789" stop-color="#39a534"/><stop offset="1" stop-color="#3aaa35"/></linearGradient><path d="M216.607 128.97c-3.682-8.428-14.434-15.13-34.562-12.612-20.13 2.518-89.991 39.219-89.991 39.219s18.415-10.826 43.525-11.182c25.11-.357 47.161 4.81 59.88 2.472 12.72-2.34 19.057-5.07 21.607-10.509.786-1.675.282-5.691-.459-7.387z" fill="url(#SVGID_18_)"/><linearGradient id="SVGID_19_" gradientUnits="userSpaceOnUse" x1="22.383" y1="125.071" x2="146.911" y2="125.071" gradientTransform="rotate(-6.442 282.818 271.881)"><stop offset="0" stop-color="#7da21b"/><stop offset=".223" stop-color="#88b01d"/><stop offset=".458" stop-color="#8fba1e"/><stop offset=".708" stop-color="#94bf1f"/><stop offset="1" stop-color="#95c11f"/></linearGradient><path d="M92.054 155.577S46.17 177.46 24.192 168.526c0 0-33.235-10.642-6.201-29.361s74.977 8.536 112.752-2.842l-38.69 19.254z" fill="url(#SVGID_19_)"/><linearGradient id="SVGID_20_" gradientUnits="userSpaceOnUse" x1="228.706" y1="130.516" x2="255.809" y2="130.516" gradientTransform="rotate(-6.442 282.818 271.881)"><stop offset="0" stop-color="#8b653a"/><stop offset=".043" stop-color="#956c3e"/><stop offset=".115" stop-color="#a27543"/><stop offset=".194" stop-color="#aa7a47"/><stop offset=".285" stop-color="#af7e49"/><stop offset=".415" stop-color="#b17f4a"/><stop offset=".548" stop-color="#ae7d49"/><stop offset=".715" stop-color="#a67745"/><stop offset=".899" stop-color="#976d3f"/><stop offset="1" stop-color="#8d663b"/></linearGradient><path d="M229.374 160.31c11.893-1.343 13.048-3.942 13.158-4.51-2.848-18.413-8.727-45.306-18.667-44.184-9.932 1.121-9.629 28.595-8.271 47.175.136.416 1.474 2.908 13.78 1.519z" fill="url(#SVGID_20_)"/><path d="M415.57 89.233c4.697 0 9.223.738 13.546 2.468 30.526 12.22.501 30.004.501 30.004-7.386 5.173-19.126 6.776-30.85 6.776-19.121 0-38.19-4.268-38.19-4.268l-5.773-1.393c-4.445-.884-11.188-1.862-19.278-1.862-6.011 0-12.766.54-19.873 2.06-24.557 5.25-44.901 15.204-57.822 15.76a39.7 39.7 0 0 1-1.706.036c-7.344 0-13.75-2.003-17.662-3.584 1.736 6.835 3.073 14.15 4.054 20.477 4.293-.247 8.47-.368 12.55-.368 44.033.002 75.738 14.089 98.757 35.65l.45-.21c.849-.388 1.711-.763 2.583-1.125.102-.043.201-.089.304-.131.983-.404 1.982-.79 2.994-1.159.273-.1.554-.19.83-.287.737-.26 1.477-.516 2.23-.758.378-.121.764-.233 1.146-.35a83.871 83.871 0 0 1 2.01-.59c.42-.117.847-.227 1.272-.339a86.501 86.501 0 0 1 3.322-.798c.67-.147 1.346-.286 2.028-.418.452-.088.905-.176 1.362-.258.705-.126 1.42-.24 2.138-.352.444-.068.885-.14 1.333-.203.787-.11 1.585-.204 2.385-.296.391-.044.778-.096 1.173-.136a99.976 99.976 0 0 1 3.415-.289c.077-.005.152-.014.229-.019 1.235-.08 2.487-.136 3.754-.173.388-.012.784-.01 1.174-.017a122.053 122.053 0 0 1 2.67-.024c.494.002.995.016 1.493.026.815.015 1.633.034 2.46.066.54.022 1.085.051 1.63.08a125.348 125.348 0 0 1 4.136.287c.824.071 1.656.153 2.492.24.574.061 1.148.122 1.728.19.866.103 1.743.22 2.623.34.56.077 1.116.15 1.68.234.134.02.263.034.397.055.919-3.665 2.081-7.848 3.44-11.81-1.565.822-3.575 1.193-6.22 1.193-1.969 0-4.289-.205-7.039-.583-8.167-1.121-20.485-8.648-35.758-13.442-6.936-2.177-13.464-2.77-18.525-2.77-2.505 0-4.65.145-6.308.316l-3.746.541s-6.665.85-15.015.85c-9.984 0-22.376-1.216-28.65-6.549 0 0-17.997-13.072 2.102-19.01 2.054-.608 4.143-.88 6.267-.88 18.668 0 39.989 21.07 62.558 21.651l-.01.002c10.09-1.254 20.883-2.321 28.374-2.321 2.727 0 5.017.141 6.676.467 11.76 2.309 17.055 7.806 18.204 13.245 2.187-4.59 4.683-7.845 7.37-7.845.228 0 .458.024.689.072 2.793.583 3.971 4.404 4.25 9.494 2.65-1.855 8.68-5.39 16.167-5.39 1.623 0 3.315.166 5.055.552 6.192 1.37 19.482 8.67 31.422 15.755l-.052-.033c6.702 2.724 14.128 3.468 21.69 3.468 9.122 0 18.439-1.084 26.919-1.083 8.921 0 16.918 1.2 22.776 6.126 16.042 13.487-5.682 18.264-5.682 18.264-1.681.506-3.539.73-5.515.73-15.045 0-36.781-12.985-36.781-12.985l-3.194-1.981c-4.374-2.477-12.936-6.534-23.763-7.704-7.182-.777-14.033-.802-20.12-.802h-1.266c-6.852 0-12.66-.033-16.762-1.192-4.944-1.397-8.807-4.141-11.017-6.011-.313 4.483-.963 9.179-1.631 13.204 86.478 23.088 75.94 104.455 66.164 153.44l-.042.207a933.387 933.387 0 0 1-1.398 6.849l-.122.586c-.211 1.016-.42 2.02-.625 2.998-.18.867-.4 1.705-.64 2.528-6.832 23.427-37.035 29.03-64.364 29.03-3.135 0-6.232-.073-9.252-.202-12.175 64.395-154.174 80.573-154.174 80.573s-17.021 1.906-40.377 1.906c-33.134 0-79.008-3.84-107.04-22.404l-.13.029c-13.385-8.888-22.694-21.147-24.593-37.972-2.42-21.427-5.508-48.802-5.172-77.545l.002-.119c.016-1.369.04-2.74.073-4.115l.007-.287c.034-1.367.075-2.737.125-4.109l.007-.172c.104-2.803.244-5.614.424-8.43l.012-.198c.087-1.346.184-2.692.289-4.039l.035-.448c.105-1.32.22-2.641.344-3.962l.042-.443c.13-1.349.266-2.698.416-4.047l.018-.165c.153-1.372.316-2.743.491-4.114l.02-.161c.17-1.33.353-2.657.545-3.983l.075-.521c.189-1.282.387-2.563.597-3.841l.098-.594c.213-1.283.435-2.565.67-3.844l.089-.468a213.908 213.908 0 0 1 1.63-7.94l.115-.511a200.976 200.976 0 0 1 2.017-8.06c.056-.206.114-.411.171-.617.346-1.252.703-2.5 1.075-3.744l.098-.32a178.63 178.63 0 0 1 1.14-3.642c.045-.136.088-.273.132-.409.398-1.212.811-2.419 1.235-3.621l.233-.66c.419-1.172.85-2.338 1.295-3.5l.265-.684c.455-1.172.921-2.34 1.404-3.5l.221-.523c.493-1.173.997-2.34 1.519-3.5l.084-.192a148.98 148.98 0 0 1 1.649-3.519c.095-.196.188-.394.284-.59a144.95 144.95 0 0 1 3.816-7.275c.114-.204.232-.407.347-.61a136.499 136.499 0 0 1 1.945-3.32c.063-.104.129-.206.192-.31a133.792 133.792 0 0 1 1.993-3.162l.29-.451a131.099 131.099 0 0 1 2.131-3.144c.146-.209.29-.418.438-.626a128.364 128.364 0 0 1 2.203-3.025c.156-.207.313-.413.47-.618.77-1.013 1.553-2.018 2.357-3.012.12-.149.244-.296.365-.444.807-.989 1.63-1.97 2.472-2.938l.2-.234c.87-.996 1.763-1.978 2.67-2.951.159-.172.317-.344.477-.515a124.456 124.456 0 0 1 3.27-3.34c.925-.912 1.867-1.814 2.828-2.703.172-.16.347-.316.52-.474 1.008-.922 2.03-1.835 3.078-2.732.072-.061.146-.121.218-.183a126.536 126.536 0 0 1 3.14-2.585c.152-.122.302-.245.456-.367a128.376 128.376 0 0 1 3.264-2.49c.218-.161.435-.323.654-.483a130.562 130.562 0 0 1 3.355-2.369c.22-.15.443-.3.665-.449 1.172-.79 2.36-1.568 3.574-2.33.153-.097.309-.19.462-.286a136.72 136.72 0 0 1 3.709-2.23c.103-.06.205-.122.309-.182a140.978 140.978 0 0 1 3.935-2.178c.227-.12.452-.243.68-.363a145.71 145.71 0 0 1 4.741-2.389 150.86 150.86 0 0 1 4.134-1.918c.221-.099.446-.195.668-.292a157.054 157.054 0 0 1 4.49-1.898l.152-.06a164.526 164.526 0 0 1 4.6-1.764l.63-.234a172.68 172.68 0 0 1 4.644-1.606c.29-.096.578-.192.869-.286 1.562-.508 3.147-1 4.756-1.476.283-.083.569-.165.853-.247 1.66-.482 3.341-.95 5.052-1.395l.507-.128c1.712-.44 3.448-.864 5.21-1.268.149-.034.294-.07.442-.104 1.783-.405 3.597-.786 5.432-1.153l.9-.18c1.791-.35 3.61-.68 5.451-.994.076-.013.149-.028.225-.04-.43-5.912-.752-12.717-.673-19.286-3.363 3.475-9.415 5.572-19.457 7.418-2.363.435-5.047.61-8.014.61-12.467 0-29.911-3.099-49.347-3.099-.836 0-1.677.006-2.52.018-17.047.242-31 5.307-38.209 8.536l-5.316 2.646S60.41 170.669 37.09 170.669c-4.759 0-9.174-.63-12.9-2.143 0 0-33.234-10.642-6.2-29.361 7.336-5.08 16.206-6.774 26-6.773 19.64.001 42.973 6.815 64.994 6.815 7.467 0 14.788-.784 21.758-2.884l-.015.008c19.668-9.306 41.457-18.74 51.317-19.973 2.92-.365 5.641-.537 8.173-.537 13.645 0 21.758 4.974 25.455 11.335 1.09-8.586 3.496-15.01 8.192-15.54a5.33 5.33 0 0 1 .6-.034c4.175 0 7.613 4.985 10.394 12.095 3.697-4.948 13.63-16.058 29.247-17.63a33.033 33.033 0 0 1 3.273-.145c11.16 0 32.038 3.945 51.208 8.173l-.018-.004c1.369.093 2.739.137 4.11.137 32.481 0 65.575-24.976 92.892-24.975m0-5c-14.025 0-28.738 5.844-44.315 12.03-16.022 6.365-32.59 12.945-48.576 12.945-1.147 0-2.292-.034-3.411-.103-24.732-5.442-42.19-8.202-51.89-8.203-1.39 0-2.66.057-3.774.17-12.54 1.263-21.785 7.944-27.51 13.612-2.488-4.071-6.256-8.101-11.63-8.102-.385 0-.775.022-1.16.066-5.749.649-8.829 5.396-10.528 10.25-4.746-3.326-11.896-6.077-22.56-6.077-2.784 0-5.743.194-8.793.576-8.697 1.088-26.348 7.897-52.471 20.242-5.878 1.728-12.415 2.568-19.968 2.568-10.943 0-22.449-1.777-33.576-3.495-11.054-1.707-21.496-3.32-31.417-3.32-11.964 0-21.4 2.506-28.848 7.662-9.394 6.505-13.633 13.322-12.599 20.262 1.705 11.446 17.362 17.062 19.938 17.911 4.066 1.62 8.98 2.442 14.608 2.442 24.172 0 55.781-14.943 57.115-15.58l.038-.017.037-.019 5.224-2.6c6.563-2.93 19.907-7.828 36.145-8.059.82-.011 1.636-.017 2.449-.017 10.558 0 20.65.948 29.556 1.784 7.206.676 14.013 1.315 19.791 1.315 3.467 0 6.384-.226 8.918-.692 5.693-1.047 10.134-2.19 13.655-3.563.067 2.061.164 4.19.29 6.38-.456.086-.908.173-1.354.26l-.625.125-.297.06c-2.03.405-3.849.791-5.558 1.179l-.284.066-.169.04c-1.777.408-3.573.845-5.339 1.3l-.198.05-.32.081a194.77 194.77 0 0 0-5.186 1.432l-.261.075-.616.18a186.81 186.81 0 0 0-4.887 1.515l-.814.268-.08.026a176.461 176.461 0 0 0-4.777 1.653l-.404.15-.245.091c-1.716.63-3.267 1.225-4.74 1.818l-.156.06c-1.454.587-2.97 1.228-4.634 1.96l-.244.106-.445.195a157.102 157.102 0 0 0-9.175 4.452l-.47.252-.234.125a145.446 145.446 0 0 0-4.075 2.255l-.224.131-.1.059c-1.259.73-2.552 1.508-3.84 2.31l-.17.105-.31.191a137.327 137.327 0 0 0-3.707 2.418l-.153.103-.536.362c-1.17.799-2.342 1.627-3.485 2.46l-.537.397-.142.104c-1.23.91-2.34 1.757-3.391 2.588l-.3.24-.174.141c-1.166.93-2.234 1.81-3.265 2.689l-.057.047-.169.142c-1.002.858-2.05 1.787-3.202 2.841l-.186.17-.355.324a130.519 130.519 0 0 0-3.536 3.4c-.98.978-1.924 1.949-2.806 2.885l-.329.354-.168.182a129.626 129.626 0 0 0-2.776 3.07l-.15.175-.058.067a129.13 129.13 0 0 0-2.57 3.055l-.136.164-.245.298c-.788.975-1.59 1.999-2.45 3.13l-.086.114-.402.53a133.837 133.837 0 0 0-2.289 3.142l-.357.511-.097.139a135.275 135.275 0 0 0-2.211 3.263l-.194.301-.11.17a139.277 139.277 0 0 0-2.065 3.277l-.07.111-.128.21a141.095 141.095 0 0 0-2.018 3.442l-.12.213-.24.42a146.035 146.035 0 0 0-1.84 3.38l-.373.713a150.994 150.994 0 0 0-1.737 3.437l-.185.385-.108.224a153.149 153.149 0 0 0-1.704 3.638l-.068.154-.02.046a157.197 157.197 0 0 0-1.568 3.613l-.083.197-.145.342a162.632 162.632 0 0 0-1.448 3.61l-.044.115-.229.591c-.46 1.203-.91 2.416-1.335 3.606l-.172.489-.067.19c-.471 1.336-.887 2.555-1.271 3.727l-.084.26-.05.16c-.406 1.245-.8 2.505-1.174 3.744l-.037.121-.064.21a190.157 190.157 0 0 0-1.104 3.844l-.062.222-.114.413a199.132 199.132 0 0 0-.986 3.759l-.171.688a207.022 207.022 0 0 0-.91 3.816l-.075.332-.043.194a219.868 219.868 0 0 0-1.67 8.123l-.033.18-.056.3a230.42 230.42 0 0 0-.686 3.926l-.1.606a243.992 243.992 0 0 0-.609 3.923l-.05.345-.026.187a254.379 254.379 0 0 0-.556 4.062l-.015.116-.007.058a264.435 264.435 0 0 0-.499 4.184l-.006.053-.013.115a276.088 276.088 0 0 0-.423 4.122l-.015.158-.029.296c-.126 1.34-.242 2.685-.349 4.028l-.029.368-.007.09a301.62 301.62 0 0 0-.294 4.105l-.007.118-.005.08a323.093 323.093 0 0 0-.43 8.567l-.004.072-.004.103a340.082 340.082 0 0 0-.126 4.17l-.007.29a359.53 359.53 0 0 0-.075 4.173v.087c-.342 29.102 2.732 56.324 5.201 78.198 1.927 17.061 10.942 31.05 26.797 41.576l1.765 1.172.172-.037c29.101 18.208 74.61 22.075 107.998 22.075 23.366 0 40.227-1.858 40.934-1.937 1.48-.169 36.44-4.242 73.517-16.355 21.967-7.176 40.052-15.702 53.751-25.342 16.151-11.365 26.32-24.37 30.285-38.71 1.8.045 3.578.067 5.316.067 16.661 0 30.653-2.03 41.588-6.035 14.724-5.392 24.002-14.34 27.576-26.595a38.31 38.31 0 0 0 .735-2.906l.625-3.001.045-.216.078-.373c.46-2.212.93-4.51 1.405-6.885l.025-.123.017-.083c2.242-11.235 4.953-26.164 6.032-42.036 1.196-17.58.196-32.8-3.057-46.529-8.285-34.974-31.298-58.325-68.428-69.462l.129-.93a31.98 31.98 0 0 0 5.546 2.155c4.887 1.38 11.315 1.38 18.12 1.38h1.266c5.54 0 12.436 0 19.584.773 9.955 1.075 17.87 4.848 21.752 7.036l3.106 1.927.036.022.036.022c.936.559 23.107 13.692 39.345 13.692 2.466 0 4.744-.3 6.773-.889 2.556-.586 13.046-3.462 15.026-11.503 1.247-5.07-1.237-10.26-7.384-15.43-7.694-6.468-17.933-7.298-25.994-7.298-4.313 0-8.867.272-13.272.536-4.5.269-9.153.547-13.648.547-8.135 0-14.339-.944-19.48-2.97-16.16-9.57-26.793-14.839-32.498-16.102a28.427 28.427 0 0 0-6.136-.67c-4.816 0-9.085 1.198-12.51 2.666-1.342-3.754-3.644-5.988-6.885-6.665a8.39 8.39 0 0 0-1.712-.177c-2.865 0-5.205 1.434-7.046 3.292-3.88-4.099-9.902-7.094-17.564-8.599-1.922-.377-4.42-.56-7.639-.56-6.562 0-16.182.777-28.593 2.31-10.427-.384-21.049-5.8-31.325-11.04-7.122-3.632-13.982-7.13-20.787-9.06 1.54-.374 3.097-.73 4.669-1.066 6.048-1.294 12.383-1.95 18.827-1.95 7.725 0 14.147.946 18.204 1.747l5.673 1.37.04.01.041.009c.801.179 19.833 4.388 39.284 4.388 14.99 0 26.281-2.548 33.563-7.573 2.32-1.401 16.333-10.367 15.443-21.906-.54-6.996-6.192-12.696-16.8-16.943-4.752-1.902-9.79-2.826-15.404-2.826zm-159.446 59.581c.64 0 1.286-.013 1.921-.04 6.553-.283 14.462-2.636 23.514-5.586-.16.49-.284.993-.373 1.511-.924 5.369 2.422 10.163 5.42 13.26-9.995-1.744-20.514-2.62-31.54-2.62-2.73 0-5.517.054-8.331.16-.47-2.757-.963-5.402-1.478-7.926 3.256.732 6.936 1.241 10.867 1.241zm85.343 18.628c1.835-.185 3.75-.28 5.695-.28 5.926 0 11.655.856 17.028 2.542 6.876 2.158 13.232 4.935 18.84 7.386 6.813 2.976 12.696 5.547 17.735 6.239.275.038.545.074.81.108a131 131 0 0 0-3.102-.2l-.138-.008a115.32 115.32 0 0 0-1.56-.076c-.861-.034-1.714-.054-2.564-.07l-.442-.009a70.783 70.783 0 0 0-1.116-.017l-.436-.002c-.791 0-1.573.012-2.354.026l-.423.006c-.27.002-.54.005-.805.013-1.369.04-2.692.101-3.933.182-.08.005-.159.012-.238.019-1.2.081-2.407.183-3.588.303-.278.029-.553.062-.827.095l-.407.049c-.842.096-1.681.195-2.508.31-.358.051-.711.106-1.064.162l-.343.053c-.756.117-1.51.238-2.253.371-.483.086-.96.179-1.438.272a93.078 93.078 0 0 0-3.557.763c-.707.167-1.405.342-2.1.524l-.168.043c-.395.103-.79.207-1.18.315-.717.2-1.425.41-2.13.625l-.35.106c-.29.087-.578.174-.864.266-.867.278-1.683.563-2.368.804l-.29.1c-.198.067-.396.135-.59.206-1.094.399-2.164.813-3.18 1.23l-.274.117-.054.024-.143.06a129.984 129.984 0 0 0-32.51-21.23c8.482-.012 15.179-.853 15.462-.889l.041-.005.041-.006 3.645-.527zm66.087 16.587a92.102 92.102 0 0 0-1.073-.125c.375.02.74.034 1.096.043l-.023.082z"/></g></svg>