<?xml version="1.0" encoding="utf-8"?>
<!-- Generator: Adobe Illustrator 22.1.0, SVG Export Plug-In . SVG Version: 6.00 Build 0)  -->
<svg version="1.1" xmlns="http://www.w3.org/2000/svg" xmlns:xlink="http://www.w3.org/1999/xlink" x="0px" y="0px"
	 viewBox="0 0 566.9299927 566.9299927" style="enable-background:new 0 0 566.9299927 566.9299927;" xml:space="preserve">
<style type="text/css">
	.st0{display:none;}
	.st1{display:inline;}
	.st2{display:inline;fill:#FFFFFF;}
	.st3{display:inline;fill:#95D5F7;}
	.st4{display:inline;fill:#9F5C3F;}
	.st5{display:inline;fill:#FFD931;}
	.st6{display:inline;fill:#E62E24;}
	.st7{display:inline;fill:#76B82A;}
	.st8{display:inline;fill:#4C824B;}
	.st9{display:none;fill:#009640;}
	.st10{fill:url(#SVGID_1_);}
	.st11{fill:url(#SVGID_2_);}
	.st12{fill:url(#SVGID_3_);}
	.st13{fill:url(#SVGID_4_);}
	.st14{fill:url(#SVGID_5_);}
	.st15{fill:url(#SVGID_6_);}
	.st16{fill:url(#SVGID_7_);}
	.st17{fill:url(#SVGID_8_);}
	.st18{fill:url(#SVGID_9_);}
	.st19{fill:url(#SVGID_10_);}
	.st20{fill:url(#SVGID_11_);}
	.st21{fill:url(#SVGID_12_);}
	.st22{fill:url(#SVGID_13_);}
	.st23{fill:url(#SVGID_14_);}
	.st24{fill:url(#SVGID_15_);}
	.st25{fill:url(#SVGID_16_);}
	.st26{fill:url(#SVGID_17_);}
	.st27{fill:url(#SVGID_18_);}
	.st28{fill:url(#SVGID_19_);}
	.st29{fill:url(#SVGID_20_);}
</style>
<g id="Laag_2">
</g>
<g id="Laag_3" class="st0">
	<path class="st1" d="M108.863205,404.4165039c0,0,23.1237183,50.1316223,126.1456909,42.5194702
		c103.0219879-7.6121826,162.2683868-29.5684204,193.2588654-81.2867126c0,0,36.9392395,2.8115845,49.409729-16.5179443
		c0,0,38.2849731-128.3224487-47.7913818-186.009079c2.3020325-3.8504791,2.3020325-3.8504791,4.1736755-6.4690399
		c11.3137817,21.5873413,30.5543213,21.7913361,35.3466797,21.3194885c0,0,4.0777283-1.5705261,5.6407776,2.8430939
		c1.5630493,4.4136353,25.0926514,30.7940979,35.4483643,32.6938019
		c10.3556519,1.8997192,12.7058105-19.8188934,6.5579224-30.5656433s-33.2698975-6.9802551-40.4399109-11.9590302
		s-18.3896179-22.8493958-38.3475037-20.9356842c0,0,5.9463196-13.5796661-1.3470459-17.803833
		c-7.2933655-4.2241516-17.328125,9.5139313-17.328125,9.5139313s-7.5823364-20.2570724-30.4003906-26.1579971
		c0,0,18.984436-17.873764,5.893219-32.1934814c-13.0911865-14.319725-29.120636-7.6352005-38.4058228-2.8909378
		c-9.2851868,4.7442703-39.006897,27.5112686-51.4502258,28.6944962
		c-12.4432983,1.1832199-26.3858032-10.2288742-46.6629639-10.2501984s-30.3434448,14.9704208-30.3434448,14.9704208
		s-2.6068878-13.7307358-13.6259766-12.4521179c-11.0190735,1.2786179-8.988327,14.4469299-8.988327,14.4469299
		s-15.829483-3.2293243-33.125473,0.803627c-17.29599,4.0329437-15.7654419,16.4574966-32.269928,20.8129807
		s-19.5599518-10.4115524-59.1790314-6.6255646c-39.6190834,3.7859802-38.0577621,12.6082916-32.8341446,18.8318481
		s21.1794205,24.0219269,54.1900482,18.8781738c33.0106277-5.1437683,24.5529175-16.9640808,39.7992172-20.2726135
		c15.2463074-3.3085175,32.33461,2.465683,45.3919067-2.3895264c13.057312-4.8552094,18.418457-19.8060532,18.418457-19.8060532
		l-2.2526855,33.0851212c0,0-54.804306,9.7256927-82.4133301,84.3250732
		C80.416832,344.2141113,108.863205,404.4165039,108.863205,404.4165039z"/>
	<path class="st2" d="M416.1427612,146.4015808c0,0-16.219635,1.8205719-28.7981262-6.1237335
		c-12.5784607-7.9443054-15.0610657-15.0610886-15.0610657-15.0610886s-9.1960144,4.1555405-30.0674438,2.7173767
		c-20.8714294-1.4381561-26.509491-9.9968491-37.9493713-7.4564743c-11.4398499,2.5403824-26.4346619,9.3475494-41.84375,8.6661987
		c-15.4091034-0.681366-29.9509277-5.5741348-29.9509277-5.5741348l6.342041,35.2639542
		c0,0,46.4194031-5.8666534,84.8997498,18.9821014c0,0,31.5317383-32.0445099,86.0222168-20.7072144L416.1427612,146.4015808z"/>
	<path class="st3" d="M116.7699585,400.2585144c0,0,16.0534668,24.9720459,44.5929565,31.2150879
		c28.5394897,6.2430115,50.3900452,8.5941467,90.5237122,5.4726562c40.133667-3.121521,138.2381592-13.945343,176.5881042-91.091156
		c0,0-2.9351196-45.2915344-25.2315979-70.2635803c0,0-0.9879456,21.3249817-14.9020691,43.5078125
		c-13.5726318,21.6383972-55.8620605,50.1090393-135.7348328,59.7545776
		c-77.2778015,9.3321533-138.152298-10.5114441-147.9845123-34.1069336
		C104.6217194,344.7469788,109.6350861,387.7724915,116.7699585,400.2585144z"/>
	<path class="st4" d="M209.6449585,157.9410095h21.3547516c0,0-4.3114624-39.3033524-7.5901031-47.8175964
		c-3.2786255-8.5142441-13.0056305-1.1385193-13.7646484,1.897522
		C208.8859558,115.0569763,209.6449585,157.9410095,209.6449585,157.9410095z"/>
	<path class="st5" d="M105.6217194,334.3419189c0,0,8.4701004-145.9626617,97.9832153-168.2199707
		c0,0-78.0555191,30.9152985-83.3779221,187.6842041C120.2270126,353.8061523,107.9265366,346.9806824,105.6217194,334.3419189z"/>
	<path class="st6" d="M125.3968277,357.7513428c0,0,57.450386,29.2094421,146.4053955,11.0567627
		c0,0-14.6012573-120.6436005-52.6485443-202.2277527C219.1536713,166.5803528,129.7644043,185.3804779,125.3968277,357.7513428z"/>
	<path class="st5" d="M379.7616577,318.8589783c-25.021637,38.8923645-98.5115662,49.48349-98.5115662,49.48349
		s-20.3027039-121.2664795-52.9732666-202.22052C228.276825,166.1219482,331.5315247,149.3042603,379.7616577,318.8589783z"/>
	<path class="st6" d="M384.1745605,314.0586243c0,0,12.6321716-11.8770447,16.3722839-43.4832458
		c0.4603577-3.1534424-55.7740479-115.7586975-151.0422363-106.9377289
		C249.5046082,163.6376495,344.6450195,169.1169586,384.1745605,314.0586243z"/>
	<path class="st3" d="M432.5169373,357.7513428c0,0,6.4244995-7.1596985,5.5484314-10.0799255
		s-1.0758972-19.273468-9.5906372-33.8745728c0,0,46.385437,7.3005676,51.0578003-6.4244995
		c0,0-1.7521362,29.4942627-6.4244995,38.2549133C473.1080322,345.6272583,470.7718506,354.9822693,432.5169373,357.7513428z"/>
	<path class="st6" d="M479.5325317,300.8244629c0,0,9.6155396-103.103775-55.6091003-134.7025146
		c0,0,48.8105164,53.200943,41.4673157,141.2503967C465.3907471,307.372345,473.0439148,308.9879761,479.5325317,300.8244629z"/>
	<path class="st5" d="M456.7008057,309.4889526c0,0,10.6789551-77.1661987-37.5740662-145.3725433
		c0,0-28.4771729,12.4790192-38.3650818,65.0827026c0,0,31.0415344,41.6670685,43.1617737,73.5660553
		C423.9234314,302.7651672,433.8690796,311.6055603,456.7008057,309.4889526z"/>
	<path class="st6" d="M375.0989075,222.1581726c0,0,17.2382202-51.7147217,36.7920532-60.4624786
		c0,0-46.5689697,0.5145721-71.5258179,24.6995544C340.3651428,186.3952484,369.1813049,208.2646637,375.0989075,222.1581726z"/>
	<path class="st5" d="M328.2601929,179.4331665l7.0461121,4.0263519c0,0,30.697937-23.1331787,65.2961426-23.9400635
		C400.6024475,159.519455,366.40271,152.4987793,328.2601929,179.4331665z"/>
	<path class="st4" d="M414.2831726,157.3693085c0,0,14.3923035-25.5441284,20.2862244-22.3334656
		c5.8938904,3.2106476-7.6306152,26.6598511-7.6306152,26.6598511L414.2831726,157.3693085z"/>
	<path class="st7" d="M57.3490868,144.2298431c0,0,5.5453148,16.7438812,26.3943367,17.4658508
		s32.315979-3.0006561,32.315979-3.0006561s8.7565842-7.5641327,11.8839417-10.4688568
		c3.1273499-2.9047241-22.9339218-9.9933777-29.1886292-9.9933777S56.5990486,139.8023987,57.3490868,144.2298431z"/>
	<path class="st8" d="M141.0661621,143.9809265c0,0,12.1230164-2.9735718,20.3575134-1.6011505
		c8.2344971,1.372406,16.6977386,1.5636292,21.7299347-0.3618774c5.032196-1.9254913,22.1874084-20.4531174,22.1874084-20.4531174
		s-16.2402649-4.025528-25.618454-1.5552902c-9.3781738,2.4702377-14.4103699,4.4508133-22.1874084,12.0381317
		C149.7581329,139.6349335,141.0661621,143.9809265,141.0661621,143.9809265z"/>
	<path class="st8" d="M232.4720764,117.1265259c0,0,11.3661804-11.3471146,20.1601868-12.1981506
		c8.7940369-0.8510361,14.8799744-0.4036865,42.8353882,9.3613739l4.2551575,1.7020645
		c0,0-22.6942444,7.3756256-31.4882507,7.3756256S232.4720764,117.1265259,232.4720764,117.1265259z"/>
	<path class="st7" d="M309.8872375,114.0025635c0,0,20.5159302-7.8186493,37.8567505-19.0535583
		c17.3408508-11.2349091,14.6542358-12.211853,24.9122009-14.4099884s17.8293152,6.5943985,18.8062439,9.7694855
		c0.9769592,3.1750793,1.7096558,15.875412-8.0598145,21.4928589c-9.7694702,5.6174545-22.4698181,11.6530151-34.9259033,11.5660782
		C336.0206299,123.2805099,309.8872375,114.0025635,309.8872375,114.0025635z"/>
	<path class="st7" d="M414.2831726,140.7387238c0,0-12.1322937-16.6752853-22.2824097-19.5868454
		c0,0-4.6795654-2.3334503-6.8764038-2.9115601c0,0-3.8087769,3.2796555-8.3247986,5.1280518
		c0,0,2.3124695,9.4403305,11.9090881,13.487114c9.5966492,4.0467682,11.0895691,5.6920166,27.8099365,7.0694427
		C416.5185852,143.9249268,416.1799927,142.7943726,414.2831726,140.7387238z"/>
	<path class="st7" d="M436.6522217,153.7056732c0,0,6.9343872-3.4671936,18.9539795,3.9294891
		c12.0195923,7.3966675,16.526947,16.6425171,16.526947,16.6425171s-5.2007751,2.6581726-13.8687744-0.8090057
		C449.596405,170.0014801,439.2977295,160.4474945,436.6522217,153.7056732z"/>
	<path class="st8" d="M476.4203796,175.2514801c0,0,3.4753723,10.086731,11.1984253,16.6754456
		c7.7230835,6.5887146,17.8917847,17.9158783,22.9117737,18.3020325c5.0200195,0.3861542,6.8220215-9.782547,4.8912964-21.1097107
		c-1.9307861-11.3271637-16.347168-10.1687012-20.3374329-10.5548553
		C491.0942078,178.1782379,476.4203796,175.2514801,476.4203796,175.2514801z"/>
</g>
<g id="Laag_1" class="st0">
	<path class="st2" d="M390.4552917,114.422966c1.4715576-2.6585999,2.8297729-5.1386414,4.2121887-7.6051178
		c4.0297241-7.1899567,7.0877075-14.5394516,1.3090515-22.1779404c-2.418335-3.1966019-4.4028931-7.291748-9.1323853-7.7913284
		c-13.4542542-1.4211197-26.254425,0.5058441-38.0506592,7.5732117
		c-11.6085815,6.9549179-23.2001648,13.9442444-34.9546204,20.6460419
		c-3.5404053,2.0185623-7.8626404,4.842804-11.3687744,4.3061295c-8.1160583-1.2423019-16.063385-3.9960556-23.8694763-6.7347031
		c-7.2785645-2.5535583-14.151001-4.7097092-22.2895813-3.4105377c-8.4815521,1.3539047-16.5765228,2.4697876-23.2399597,8.4659805
		c-2.8331757,2.5495071-5.9234467,4.2043381-8.0053406-1.0559845c-0.3974762-1.0043411-1.4003143-1.7878723-2.1826782-2.6177902
		c-3.010498-3.193512-11.7947083-3.5697403-13.5813293-0.1543121c-1.822403,3.4838638-3.2749634,7.4677734-3.6302643,11.3480453
		c-0.7171936,7.8329849-0.3967285,7.9242325-7.6257477,4.069809c-10.0222626-5.3437576-20.0025787-5.1746292-30.4135284-0.8492813
		c-8.1820831,3.3993073-14.9060974,8.67379-21.4287262,14.3850784c-2.8887634,2.5294189-5.3190765,5.911438-9.9123383,5.129837
		c-7.4750824-1.2719727-14.945549-2.5715485-22.4255981-3.8135071c-7.7932663-1.2939911-15.5776138-3.4021454-23.3987198-3.5638275
		c-8.6031647-0.1778259-17.2780075,1.2072144-25.8569031,2.3833618c-6.4568024,0.8852081-11.4679756,4.497818-15.2204704,9.8969269
		c-2.3473282,3.3773499-2.133358,6.7319641,0.5020905,9.4577484c3.4932938,3.6130371,7.0341263,7.6408539,11.3849297,9.8687439
		c9.2272186,4.7248535,19.3967209,6.9734192,29.7728195,7.2951508c9.4605408,0.2933197,18.6074371-1.8269348,26.933403-6.3991394
		c5.8572388-3.2165222,11.1488876-7.4857635,17.0735092-10.5492554c4.322876-2.23526,7.9410706-5.8953705,13.6951599-5.6252747
		c10.2895355,0.4829559,20.6279297,0.1958618,30.9368286-0.093277c7.7687225-0.2178955,15.2049713-2.0449677,22.2794342-6.5028687
		c0.5396881,0.9312592,1.5036621,1.8397217,1.5421143,2.7857513c0.2184906,5.379715,0.259964,10.7686005,0.2356567,16.1537933
		c-0.0031891,0.7126923-0.5451508,1.6920776-1.1425018,2.088562c-3.4338531,2.2791443-6.7159729,5.0685883-10.498642,6.4891357
		c-12.7454834,4.7864532-23.3522186,12.3959808-31.6348114,23.0769653
		c-8.7404938,11.2714691-17.3952484,22.632431-25.5358582,34.3379059
		c-5.2503204,7.54953-10.1511917,15.4870911-14.0555725,23.7928162
		c-5.5351639,11.7748108-11.9279099,23.2822266-13.7211304,36.5737915
		c-1.7267456,12.7986755-4.5735092,25.4599609-5.9614944,38.2861938c-1.0285873,9.505127-0.6114197,19.1775513-0.6396332,28.7759705
		c-0.0166702,5.6698914-0.1588593,11.4171143,0.6702271,16.9935303c1.2338181,8.2987671,2.8852844,16.5843201,5.098114,24.6732788
		c1.7968597,6.5684509,1.9464111,14.1388245,8.9985199,18.3197327c2.5227814,1.495636,4.689682,3.6036987,6.974968,5.4856873
		c9.7047577,7.9921265,20.1104736,15.0498657,32.1916504,18.6164246c10.4677582,3.09021,20.5434418,7.6161804,31.9312439,7.7810974
		c12.1012421,0.1751709,24.1675415,2.3720093,36.2743378,2.6730652c10.6113586,0.263855,21.252594-1.1239319,31.8895721-1.3379822
		c16.4971771-0.3319702,32.6492462-2.8332214,48.5634308-6.990509c8.9645691-2.3418579,18.0664368-4.410614,26.7124939-7.6528625
		c9.7687988-3.6632385,19.1625671-8.3650513,28.5931091-12.8791199c7.1207581-3.4084473,14.0048523-7.3075256,21.0623474-10.8527222
		c10.1212158-5.0843201,19.6587219-10.9802856,27.4769592-19.3096008
		c6.8091736-7.2542419,13.5175781-14.6031799,20.3471375-21.8379517c0.6631165-0.7025146,1.8496399-1.2238464,2.8218689-1.2739258
		c11.6918945-0.6027832,23.3851318-1.343689,35.0864563-1.5359497c7.1486511-0.1174316,10.5039673-3.6884766,11.7533569-10.6992798
		c1.7636108-9.8967285,3.8754272-19.699646,5.4547119-29.6711731c1.8668213-11.7867737,2.3555603-23.4544678,2.3079834-35.2330322
		c-0.0188293-4.6697388-1.0608215-9.333313-1.5966492-14.0042725c-0.1486206-1.295105,0.0658569-2.6639404-0.2575378-3.901886
		c-2.6982422-10.3283081-5.1894836-20.7244415-8.3282471-30.9199524
		c-2.8922729-9.3949738-6.2506409-18.6691742-9.8717651-27.8111877
		c-4.4171753-11.1518555-11.4921265-20.6921234-19.4956055-29.5205078
		c-4.0758362-4.4959106-8.5241699-8.6531219-12.6340942-13.1198425c-0.7697144-0.8365021-0.7330322-2.4149475-1.0684814-3.6510315
		c1.1054077,0.2896423,2.2427063,0.4957581,3.3042603,0.9003296c0.6334229,0.2413635,1.1751709,0.7618256,1.7118835,1.2120209
		c4.5877686,3.8484344,9.5014038,7.0002289,15.6159668,7.8566132c3.6819763,0.5156708,7.3675842,1.0896301,10.9943237,1.8948364
		c5.0246887,1.1155701,10.8695068,0.614975,13.6638184,6.5349884c0.3369751,0.713974,1.3058472,1.1105194,1.9229736,1.714386
		c8.2981262,8.1199036,16.5438232,16.2940674,24.9010925,24.3525696c2.5890503,2.4964905,5.6242065,4.8975677,9.4629517,3.8154755
		c3.5747681-1.0076447,6.2349854-3.057373,7.4995117-7.2569427c1.8634644-6.1887817,2.0145874-12.1403656-0.8453369-17.7396851
		c-2.586792-5.0644989-4.6746826-11.0955353-11.0793152-12.7654266c-6.4444885-1.6802521-13.0044861-3.7088928-19.571106-3.9369354
		c-9.0444336-0.3141022-16.6899109-2.5334167-23.6337891-8.6025696c-5.7178345-4.9974518-12.454071-8.8158264-18.618927-13.3210297
		c-3.4613953-2.529541-7.4755249-3.8375549-7.54599-10.0953217c-0.0880127-7.8181-4.539978-10.5189972-10.5557556-8.2647095
		c-2.3753662,0.8901062-4.677002,2.8627319-6.1939392,4.9400177c-2.0350647,2.7868195-3.484436,1.9384613-5.0122375-0.005722
		C410.3171387,127.0570755,400.7970886,120.7625732,390.4552917,114.422966z"/>
	<path class="st1" d="M390.4552917,114.422966c10.3417969,6.3396072,19.8618469,12.6341095,27.0769348,21.8157272
		c1.5278015,1.9441833,2.9771729,2.7925415,5.0122375,0.005722c1.5169373-2.0772858,3.818573-4.0499115,6.1939392-4.9400177
		c6.0157776-2.2542877,10.4677429,0.4466095,10.5557556,8.2647095c0.0704651,6.2577667,4.0845947,7.5657806,7.54599,10.0953217
		c6.164856,4.5052032,12.9010925,8.3235779,18.618927,13.3210297c6.9438782,6.0691528,14.5893555,8.2884674,23.6337891,8.6025696
		c6.5666199,0.2280426,13.1266174,2.2566833,19.571106,3.9369354c6.4046326,1.6698914,8.4925232,7.7009277,11.0793152,12.7654266
		c2.8599243,5.5993195,2.7088013,11.5509033,0.8453369,17.7396851c-1.2645264,4.1995697-3.9247437,6.2492981-7.4995117,7.2569427
		c-3.8387451,1.0820923-6.8739014-1.318985-9.4629517-3.8154755c-8.3572693-8.0585022-16.6029663-16.232666-24.9010925-24.3525696
		c-0.6171265-0.6038666-1.5859985-1.000412-1.9229736-1.714386c-2.7943115-5.9200134-8.6391296-5.4194183-13.6638184-6.5349884
		c-3.6267395-0.8052063-7.3123474-1.3791656-10.9943237-1.8948364c-6.114563-0.8563843-11.0281982-4.0081787-15.6159668-7.8566132
		c-0.5367126-0.4501953-1.0784607-0.9706573-1.7118835-1.2120209c-1.061554-0.4045715-2.1988525-0.6106873-3.3042603-0.9003143
		c0.3354492,1.2360687,0.2987671,2.8145142,1.0684814,3.6510162c4.1099243,4.4667206,8.5582581,8.6239319,12.6340942,13.1198425
		c8.003479,8.8283844,15.0784302,18.3686523,19.4956055,29.5205078c3.6211243,9.1420135,6.9794922,18.416214,9.8717651,27.8111877
		c3.1387634,10.1955109,5.6300049,20.5916443,8.3282471,30.9199524c0.3233948,1.2379456,0.1089172,2.606781,0.2575378,3.901886
		c0.5358276,4.6709595,1.5778198,9.3345337,1.5966492,14.0042725c0.0475769,11.7785645-0.4411621,23.4462585-2.3079834,35.2330322
		c-1.5792847,9.9715271-3.6911011,19.7744446-5.4547119,29.6711731
		c-1.2493896,7.0108032-4.6047058,10.5818481-11.7533569,10.6992798
		c-11.7013245,0.1922607-23.3945618,0.9331665-35.0864563,1.5359497c-0.972229,0.0500793-2.1587524,0.5714111-2.8218689,1.2739258
		c-6.8295593,7.2347717-13.5379639,14.5837097-20.3471375,21.8379517
		c-7.8182373,8.3293152-17.3557434,14.2252808-27.4769592,19.3096008
		c-7.0574951,3.5451965-13.9415894,7.4442749-21.0623474,10.8527222
		c-9.430542,4.5140686-18.8243103,9.2158813-28.5931091,12.8791199c-8.6460571,3.2422485-17.7479248,5.3110046-26.7124939,7.6528625
		c-15.9141846,4.1572876-32.0662537,6.6585388-48.5634308,6.990509
		c-10.6369781,0.2140503-21.2782135,1.6018372-31.8895721,1.3379822
		c-12.1067963-0.3010559-24.1730957-2.4978943-36.2743378-2.6730652
		c-11.3878021-0.164917-21.4634857-4.6908875-31.9312439-7.7810974
		c-12.0811768-3.5665588-22.4868927-10.6242981-32.1916504-18.6164246c-2.2852859-1.8819885-4.4521866-3.9900513-6.974968-5.4856873
		c-7.0521088-4.1809082-7.2016602-11.7512817-8.9985199-18.3197327c-2.2128296-8.0889587-3.864296-16.3745117-5.098114-24.6732788
		c-0.8290863-5.576416-0.6868973-11.3236389-0.6702271-16.9935303c0.0282135-9.5984192-0.3889542-19.2708435,0.6396332-28.7759705
		c1.3879852-12.8262329,4.2347488-25.4875183,5.9614944-38.2861938
		c1.7932205-13.2915649,8.1859665-24.7989807,13.7211304-36.5737915
		c3.9043808-8.3057251,8.8052521-16.2432861,14.0555725-23.7928162
		c8.1406097-11.7054749,16.7953644-23.0664368,25.5358582-34.3379059
		c8.2825928-10.6809845,18.889328-18.2905121,31.6348114-23.0769653c3.7826691-1.4205475,7.0647888-4.2099915,10.498642-6.4891357
		c0.5973511-0.3964844,1.1393127-1.3758698,1.1425018-2.088562c0.0243073-5.3851929-0.0171661-10.7740784-0.2356567-16.1537933
		c-0.0384521-0.9460297-1.0024261-1.8544922-1.5421143-2.7857513c-7.0744629,4.457901-14.5107117,6.2849731-22.2794342,6.5028687
		c-10.3088989,0.2891388-20.6472931,0.5762329-30.9368286,0.093277c-5.7540894-0.2700958-9.3722839,3.3900146-13.6951599,5.6252747
		c-5.9246216,3.0634918-11.2162704,7.3327332-17.0735092,10.5492554c-8.3259659,4.5722046-17.4728622,6.6924591-26.933403,6.3991394
		c-10.3760986-0.3217316-20.5456009-2.5702972-29.7728195-7.2951508c-4.3508034-2.22789-7.8916359-6.2557068-11.3849297-9.8687439
		c-2.6354485-2.7257843-2.8494186-6.0803986-0.5020905-9.4577484c3.7524948-5.3991089,8.7636681-9.0117188,15.2204704-9.8969269
		c8.5788956-1.1761475,17.2537384-2.5611877,25.8569031-2.3833618c7.821106,0.1616821,15.6054535,2.2698364,23.3987198,3.5638275
		c7.4800491,1.2419586,14.9505157,2.5415344,22.4255981,3.8135071c4.5932617,0.781601,7.0235748-2.6004181,9.9123383-5.129837
		c6.5226288-5.7112885,13.2466431-10.9857712,21.4287262-14.3850784
		c10.4109497-4.3253479,20.3912659-4.4944763,30.4135284,0.8492813c7.2290192,3.8544235,6.9085541,3.763176,7.6257477-4.069809
		c0.3553009-3.8802719,1.8078613-7.8641815,3.6302643-11.3480453c1.7866211-3.4154282,10.5708313-3.0391998,13.5813293,0.1543121
		c0.7823639,0.8299179,1.785202,1.6134491,2.1826782,2.6177902c2.0818939,5.2603226,5.1721649,3.6054916,8.0053406,1.0559845
		c6.6634369-5.9961929,14.7584076-7.1120758,23.2399597-8.4659805c8.1385803-1.2991714,15.0110168,0.8569794,22.2895813,3.4105377
		c7.8060913,2.7386475,15.753418,5.4924011,23.8694763,6.7347031c3.506134,0.5366745,7.8283691-2.2875671,11.3687744-4.3061295
		c11.7544556-6.7017975,23.3460388-13.691124,34.9546204-20.6460419c11.7962341-7.0673676,24.596405-8.9943314,38.0506592-7.5732117
		c4.7294922,0.4995804,6.7140503,4.5947266,9.1323853,7.7913284c5.778656,7.6384888,2.7206726,14.9879837-1.3090515,22.1779404
		C393.2850647,109.2843246,391.9268494,111.7643661,390.4552917,114.422966z M110.0759277,352.7884216
		c-0.4042435,0.2188416-0.8084946,0.4376526-1.2127228,0.6564636c0.6938248,5.3499756,1.3351517,10.7074585,2.0934219,16.0482483
		c1.2315598,8.6741333,2.1617813,17.4178162,3.9815369,25.9699402c0.8569489,4.0273438,2.5034485,8.9561768,5.4977112,11.2553406
		c8.4131851,6.4602356,16.0406418,14.2592163,26.1529007,18.2476807c5.3662567,2.1165466,10.9328461,3.7352905,16.4390106,5.4841919
		c5.1266174,1.6284485,10.2015839,3.9401855,15.4594879,4.5350647c14.4813385,1.6383972,29.0319824,3.2051697,43.5831299,3.5232849
		c12.8430176,0.2808533,25.7236328-1.1589355,38.587616-1.8399353c0.1452332-0.0077209,0.2913208-0.01828,0.4346313-0.0419312
		c13.2999878-2.1851501,26.6435242-4.140686,39.8819885-6.6505127c7.2032776-1.3656921,14.4984131-2.9961853,21.2746277-5.7027283
		c12.4712219-4.9812622,24.7071533-10.601532,36.8151245-16.425293c8.3374939-4.0102234,16.3782959-8.6675415,24.3845825-13.3230896
		c3.8761597-2.2538757,7.6346741-4.8696594,10.9752502-7.849762c5.9045715-5.267395,12.1601868-10.3928528,16.9281311-16.6065369
		c4.1296082-5.3817139,9.7095337-10.4459229,9.5480957-18.3955688c-0.0534973-2.635376,1-5.3447876,1.8126221-7.9372253
		c3.343811-10.6669617,2.3240967-21.7916565-1.2478333-31.5157776
		c-4.0510254-11.0282593-11.6065674-20.7742004-17.7204285-31.0288086c-0.4310913-0.723114-1.7805786-1.6265564-2.2746582-1.4202271
		c-0.8188477,0.3419495-1.598877,1.4342957-1.8503723,2.3587036c-0.87146,3.203949-1.1109009,6.6268005-2.3052673,9.6875
		c-4.3964539,11.2662659-12.9604492,19.1901245-22.467804,25.9786987
		c-6.5327454,4.6646118-13.6857605,8.4907837-20.7111206,12.4245605c-4.7017822,2.6326904-9.6932373,4.7429504-14.5069885,7.1819763
		c-9.2365417,4.6798401-18.2504578,9.8560181-27.7139587,14.0131836c-7.7960205,3.4246216-16.0725403,5.7848511-24.2050171,8.402832
		c-4.6049805,1.4824219-9.3277893,2.620636-14.0354309,3.756958c-5.7802124,1.3952026-11.6188965,2.5483093-17.3981934,3.9468994
		c-8.7434082,2.1159973-17.4111633,4.5684204-26.2010803,6.4594116c-5.3096771,1.1423035-10.8656616,1.1374817-16.1771851,2.2735596
		c-11.1868439,2.3928833-22.5582581,3.3049622-33.8011017,2.2267151
		c-11.1869354-1.0729065-22.3228607-3.4312439-33.2643433-6.1111145
		c-12.4981537-3.0611572-23.6933746-9.100769-33.5041351-17.5576782
		C112.3723907,353.9895935,111.1659698,353.4565125,110.0759277,352.7884216z M217.3673706,176.8707123
		c-6.7788544,3.9526978-9.8455353,10.3145447-13.7330627,15.8739014c-6.18573,8.8458557-12.4992828,17.649353-17.973114,26.93396
		c-6.5915527,11.180481-12.8958893,22.5998383-18.3093719,34.3821869
		c-3.9597931,8.6184692-6.3111267,17.9797974-9.3204041,27.0296021c-1.6966705,5.102417-3.8557739,10.1424255-4.7769623,15.3912659
		c-1.6306915,9.2910461-3.0436554,18.6921387-3.5048828,28.0982666
		c-0.5659485,11.5411682-0.2028503,23.1382446,0.0794373,34.7033386c0.0706635,2.8959045,1.6944885,5.4737244,5.0843658,6.1152039
		c5.6912842,1.0768738,11.3852234,3.1254883,17.0664215,3.0861206c17.4915314-0.1211853,34.9776306-1.0367126,52.4656067-1.6498108
		c0.2875977-0.0100708,0.5753479-0.0864563,0.8582306-0.1523743c7.2278595-1.684845,14.4791718-3.2782593,21.6666107-5.1209412
		c1.9721985-0.5056458,5.1821289-1.5419617,5.3591461-2.7087097c0.5821381-3.8372498,0.0961609-7.8492432-0.1021271-11.7879944
		c-0.1539001-3.0575867-0.7247467-6.1091614-0.6836243-9.1576233c0.0441895-3.2753296,0.9085846-6.5511169,0.8358917-9.8138123
		c-0.1088715-4.8869019-0.6901703-9.7655945-1.1406403-14.6412964c-0.1593475-1.7243958-0.4968109-3.4346924-0.8000336-5.1430664
		c-1.4981842-8.4411621-3.0028076-16.8811951-4.5232391-25.3183594c-1.3508759-7.4963379-2.4311829-15.0576172-4.1726685-22.4627991
		c-1.7251282-7.3355255-4.1731415-14.4989014-6.2187347-21.7618408c-1.6949158-6.0179138-3.0394745-12.1434784-4.9501343-18.0892944
		c-2.2346954-6.9540558-5.2107391-13.6755371-7.3212433-20.6622314
		C220.9979858,192.5498199,219.3775635,184.8935852,217.3673706,176.8707123z M226.3527985,176.2255249
		c1.3820496,6.0822144,2.4363708,11.2132874,3.7294922,16.2834015c1.4725037,5.7736816,3.0715485,11.5187683,4.7722473,17.2296753
		c2.3560333,7.9112854,5.1052704,15.7132721,7.2290344,23.6838531c2.1777802,8.173233,3.0313873,16.7686462,5.8505096,24.6857605
		c4.4601593,12.5257874,5.0979919,25.5552063,6.8848724,38.4579163c0.1155548,0.8344116,0.2881927,1.6611023,0.440506,2.4902344
		c1.469696,8.0018616,3.3902893,15.9530334,4.295105,24.018219c1.0792847,9.6205444,1.4622192,19.3328552,1.7927246,29.0174561
		c0.1403198,4.1114807,1.91922,5.1187439,5.4725952,4.2851257c2.9073181-0.6820068,5.8270874-1.349823,8.6761475-2.2338867
		c6.4767151-2.0097656,12.8999329-4.1914368,19.3701782-6.2227783c6.1116028-1.9187622,12.4960938-3.1830139,18.3281555-5.7267151
		c8.5056458-3.7097778,16.6995544-8.1668701,24.8847656-12.5687866c6.9552612-3.7404785,13.729187-7.821106,20.5472717-11.8128967
		c4.8684082-2.8503113,5.8714294-5.1400146,3.9346619-9.2174377c-1.5846558-3.335968-3.4161682-6.5543213-5.1247864-9.8318481
		c-4.6239014-8.869812-8.6958618-18.0841675-13.9848328-26.5374756
		c-8.4581604-13.5184937-17.8915405-26.4225006-26.5996704-39.7901611
		c-9.3969116-14.4250336-21.223938-26.0859985-36.3979187-34.3766479
		c-4.9677429-2.7142334-9.2843018-6.7150421-14.3880615-9.0642395c-8.5879822-3.9529419-17.4828339-7.2988129-26.4208374-10.4042358
		C235.7073059,177.2219849,231.3473053,177.0695343,226.3527985,176.2255249z M250.9437561,159.1004333
		c0.0352173-0.223587,0.0704193-0.4471741,0.1056213-0.6707611c4.8198547,0.7916107,9.6627197,1.4659119,14.4534912,2.405838
		c5.4400635,1.0672913,10.8634949,2.2532043,16.2383118,3.6090393c4.8696594,1.2284546,9.8876038,2.2497864,14.4412842,4.2641754
		c7.4754944,3.3068542,14.5972595,7.4060364,21.936676,11.0325317c2.10495,1.0400391,4.4335022,1.9304352,6.506897-0.3737488
		c6.5505676-7.2795868,15.8997498-10.0790405,24.4813232-12.7801666c12.1975708-3.839325,25.197876-5.2357635,37.922699-7.2490997
		c6.8018799-1.0762177,13.7457886-1.2525177,20.6243896-1.8491516c0.7213745-0.0625763,1.8174133,0.0270386,2.0816345-0.3805237
		c0.9013367-1.390274,1.7053833-2.9208069,2.1125488-4.5090637c0.1286926-0.5019531-1.0962219-1.9452667-1.7152405-1.9536285
		c-7.0993652-0.0959778-13.4318848-2.7075958-19.7220764-5.6013794c-7.930481-3.6483612-15.9737244-7.2576752-21.0696716-14.7415161
		c-1.8344421-2.6940231-3.7391357-2.8578796-6.4988403-2.8127594c-11.5713196,0.1891937-23.2211304,1.752182-34.6273499-1.7076187
		c-3.8049622-1.1541595-7.665863-2.1316299-11.5221558-3.1070099c-5.7318726-1.4497757-11.3839111-3.1965103-17.4679871-1.5197906
		c-10.1863708,2.8072968-20.3194275,6.6140137-30.7096252,7.6532516
		c-10.7841187,1.0786591-21.8451843-0.6882782-32.7908325-1.0259171c-1.0669556-0.0329132-3.1894073,1.3996964-3.111908,1.8707199
		c1.4415283,8.7626038,3.0388794,17.5042725,4.8624573,26.1960144c0.4549561,2.1685181,1.9764557,3.6183472,4.7549591,3.3193665
		C245.1040344,158.8600006,248.0368195,159.1004333,250.9437561,159.1004333z M226.9624939,165.5085144
		c-0.2180328,0.6582031-0.4360504,1.3164215-0.6540833,1.9746246c1.2603302,0.6956329,2.4451294,1.7171631,3.79422,2.0296478
		c5.4259338,1.2567749,11.1930389,1.5561218,16.3005066,3.565506c10.8365173,4.263382,21.6221924,8.8455048,31.8797607,14.3246765
		c6.891571,3.6811829,12.764679,9.2351532,19.2316284,13.7534332c9.2042236,6.4307404,16.3181458,15.0111237,22.9576416,23.7351074
		c8.4117737,11.0526733,15.5454102,23.0778656,23.2366028,34.6794739
		c3.3611145,5.0700378,6.9728394,9.9914856,10.0533142,15.2260437c4.7779541,8.1191101,9.2207336,16.4363403,13.7527466,24.6985474
		c0.9334106,1.7016296,1.9024963,3.4616394,2.3797913,5.3169861c0.707428,2.7501221,1.9016724,3.4142761,4.2606506,1.7492981
		c9.4949951-6.7018127,14.5114441-16.1818848,16.5388489-27.3333435c0.6162415-3.389679-0.776062-7.4690552,0.6222229-10.3127136
		c1.8985901-3.861084,0.1769104-5.8628845-1.7712402-8.2893982c-6.4797974-8.0708771-13.1270447-16.0111694-19.4611816-24.1941833
		c-11.1346436-14.3847046-22.9876099-27.8116302-38.627655-37.7664795
		c-8.6524963-5.5073242-16.5969238-12.0963745-26.2618103-15.9317322
		c-7.9683838-3.1621246-15.1230774-8.7266541-24.3441467-8.2127075c-0.5034485,0.0280914-1.0128479-0.5155487-1.5546265-0.6398773
		c-5.9251709-1.3597565-11.8045959-3.0446014-17.8013306-3.9333954c-6.9579163-1.0312347-14.0379028-1.209671-21.0313568-2.0404663
		C235.9317474,167.369278,231.4605713,166.3256836,226.9624939,165.5085144z M205.9980621,172.3176117
		c-0.4315186-0.4442291-0.8630219-0.8884583-1.2945404-1.3327026c-4.5190277,2.5056152-8.8964539,5.3238525-13.5879974,7.4485168
		c-8.4940948,3.8467712-15.6494141,9.3855286-21.569046,16.4416962c-6.8841858,8.2059021-13.52565,16.6217194-20.0838928,25.0924225
		c-4.1758118,5.3935394-8.7272949,10.679245-11.8410339,16.672699
		c-5.8527069,11.265686-11.1437988,22.8622894-15.9595108,34.6118622
		c-2.6191406,6.3902283-4.0776978,13.3144836-5.5276718,20.1113586c-1.9552765,9.1655273-3.4048004,18.4391785-5.0509644,27.6700439
		c-0.1775818,0.9958801-0.2422256,2.0141296-0.3211288,3.0249634c-0.4463043,5.717804-0.9649963,11.4326782-1.2312622,17.1590881
		c-0.0410995,0.8838806,0.9493866,1.971344,1.7087173,2.7128906c8.4721909,8.273407,18.2331543,14.5797424,29.4745789,19.109314
		c0.0756073-1.2836304,0.2095642-2.4223328,0.1991272-3.5597229c-0.0871277-9.5016479-0.2729797-19.0030518-0.2734222-28.5044861
		c-0.0002136-4.2006836,0.0830383-8.4370422,0.6210632-12.5934448c0.769455-5.944458,1.9697418-11.834198,3.032608-17.7389221
		c0.3026733-1.681366,0.7043304-3.3514099,1.1711731-4.9952698c0.7428589-2.6156311,1.5855713-5.2028503,2.373703-7.8058472
		c2.7063599-8.938385,5.05513-18.0054016,8.2184296-26.7789001c2.6804199-7.4340668,6.2845306-14.5364532,9.5100098-21.7722168
		c2.0861511-4.6798706,3.79216-9.6017151,6.4484711-13.9372406c3.6304626-5.9254608,8.1750031-11.2824707,12.0171814-17.0885925
		c6.168396-9.3214111,12.0744324-18.8163147,18.1105957-28.2255249
		C203.3847504,176.1043854,204.710907,174.2235413,205.9980621,172.3176117z M447.638916,253.5278778
		c-0.3829956-0.0350952-0.7660217-0.0701904-1.1489868-0.1052704c0-4.4981079,0.7109985-9.1350861-0.135437-13.4678192
		c-2.3868713-12.2179108-4.7411194-24.5479889-10.3340759-35.8161011
		c-4.1725464-8.4062347-8.9297791-16.5238037-13.4819336-24.7392578c-1.6747742-3.022522-3.7588806-3.997818-6.223999-0.7350464
		c-6.2246704,8.2386627-12.7217407,16.2933655-18.5243225,24.8200684
		c-3.0765076,4.520813-4.5013428,10.1468353-7.4514465,14.7771606c-3.5824585,5.6228027-3.1040039,12.9371796-7.9904785,17.959137
		c-0.5241394,0.5387268-0.1108093,2.6053772,0.5095215,3.5349121c2.6128235,3.9154968,5.1230164,7.9905701,8.3082275,11.4141693
		c6.7389832,7.2433472,12.3786011,15.1707458,17.5682678,23.5857544c2.1122437,3.4250183,3.4318542,8.680603,9.5618286,8.563446
		c2.9494019-0.0563965,5.9946594,1.2908936,8.8787231,2.3296814c3.7250061,1.3415527,7.3462219,2.9777527,10.9855957,4.5485535
		c3.0121155,1.3001099,4.6448364,0.2561035,5.0586548-2.8745728
		C444.7075806,276.0597534,446.1679077,264.7931213,447.638916,253.5278778z M431.4262695,355.4230347
		c8.8834839,0.3291321,17.219696,1.0436096,25.5214844,0.7580566c3.6255493-0.1246643,8.7416382-1.252594,10.4246216-3.7685852
		c2.987854-4.4666748,4.3495483-10.2361755,5.5220032-15.6489563c1.5472717-7.1436462,2.4612427-14.4467468,3.2461243-21.7245483
		c0.4427795-4.1055298,0.0798035-8.2979126,0.0798035-12.6938477c-1.8978271,0-3.194397-0.0937195-4.4734802,0.0162659
		c-5.4438477,0.4680481-10.947052,1.7565308-16.3059998,1.3014832c-6.0726624-0.515625-12.0193176-2.5531616-18.0112915-3.96875
		c-4.3324585-1.0235291-8.6496277-2.1119995-13.6358948-3.3337708c0.3699951,2.0644226,0.2932434,3.0302124,0.7015076,3.700592
		c4.6838379,7.6918335,7.0296936,15.9444885,6.6574097,25.0122681c-0.1299438,3.1651917,0.2322388,6.394104,0.7564392,9.5292053
		c0.438446,2.6222534,2.1498413,5.1836243,2.030365,7.7121277
		C433.7523499,346.274231,432.4967041,350.1834412,431.4262695,355.4230347z M451.3444519,293.3421021
		c7.8890076,0,14.5353088,0.228302,21.1521912-0.1135254c2.6088257-0.1347961,4.4243469-2.1405334,4.0736389-5.1746826
		c-0.5461121-4.724884-1.6248779-9.4396973-1.6493225-14.1631165c-0.0599976-11.6090393-4.7613831-22.0128174-7.9515686-32.800293
		c-1.8317871-6.194046-4.1368103-12.2542572-6.3796082-18.318924c-2.4272766-6.5635529-4.3626404-13.4311523-7.7178955-19.4997253
		c-4.6506042-8.4113007-11.3036499-15.483017-18.0646362-22.3353729c-0.3528442-0.3576355-0.8649902-0.5581665-1.303009-0.8318481
		c-0.4387207,0.223587-0.8773804,0.4471588-1.3161011,0.6707306c10.3722839,16.5659332,18.8328247,34.1719971,20.8981018,53.4179535
		C455.16922,253.6039886,456.5853271,273.3541565,451.3444519,293.3421021z M389.1877136,94.5527191
		c0.1080322-5.4590073-2.8928223-8.2828217-8.1625061-8.8564987c-12.6981506-1.3823853-23.2805481,4.1381912-33.7891235,9.8864212
		c-8.8730469,4.8535919-17.5986023,9.9790344-26.3305969,15.0848312c-0.8676147,0.5073242-1.3252258,1.7157974-1.973114,2.5988388
		c0.8665466,0.6270905,1.6489868,1.5173874,2.6170654,1.8267212c2.0404053,0.6519547,4.1575012,1.1462097,6.2798157,1.443573
		c5.5511475,0.7778549,11.1068726,1.6806107,16.6912842,2.0002441c2.9483032,0.1687546,5.9908142-1.2940826,8.9378967-1.1208496
		c8.48703,0.4988708,16.2323608-1.8679428,23.660614-5.4921036
		C384.2892456,108.4255753,388.2608032,102.4944992,389.1877136,94.5527191z M405.3721313,176.4263458
		c-2.083252,0.1515045-5.0934753-0.3785706-7.3738403,0.6734314c-7.5558472,3.485733-15.1832275,7.0253754-22.1408997,11.5352173
		c-6.0190125,3.9014587-11.0545044,9.2906952-16.7302551,13.7613831c-4.0940247,3.2248535-4.2481079,3.6801605-0.8792725,7.4944305
		c4.6095276,5.2190247,8.9743042,10.6581573,13.6902466,15.7760468c0.9766846,1.0599823,3.0243225,1.4565125,4.5941772,1.4937134
		c0.6642761,0.0157623,1.5904236-1.5964661,2.0125427-2.6265411c1.0725098-2.6169891,1.5335693-5.553009,2.9351501-7.9554138
		C389.2553711,203.2515717,397.2382507,190.0456085,405.3721313,176.4263458z M127.0880356,148.2218781
		c-0.1794662-0.5955505-0.3589249-1.1911316-0.5383835-1.7867126c-5.1299744-1.0899048-10.2236862-2.4137726-15.3982391-3.2161407
		c-8.2173386-1.2741699-16.4636307-2.6079712-24.746788-3.1168823c-4.7986832-0.2948151-9.7485886,0.6931915-14.5279846,1.6278687
		c-3.9770203,0.7777557-7.8378601,2.2295532-11.6565094,3.6369019c-0.4822884,0.1777649-0.9161453,2.3547668-0.4937592,2.8388824
		c6.2005615,7.107132,14.5637817,9.6601562,23.543396,10.7186737c9.595993,1.1311798,19.0326691,0.6202087,28.0071106-3.3744202
		C116.5832214,153.1881104,121.8199768,150.6698608,127.0880356,148.2218781z M330.1326294,186.3134308
		c5.5005798,4.2397003,10.8385315,8.495285,16.3766174,12.472168c0.8407288,0.603714,3.1033936,0.4460449,3.87146-0.264328
		c5.2394409-4.8458099,9.7350159-10.6629181,15.4760437-14.7566681c6.9837341-4.9799805,14.8756104-8.7295837,22.5445557-12.6815796
		c2.5973816-1.338501,5.7118835-1.6734314,8.5900879-2.4669647c-0.0652466-0.4784088-0.1304321-0.9568176-0.1956482-1.4352264
		c-10.6573181,1.0922089-21.3999023,1.6789551-31.9413452,3.4577179c-6.8104858,1.1491852-13.5210571,3.5858154-19.913269,6.3005981
		C339.7373047,179.1492462,333.4081421,179.9416809,330.1326294,186.3134308z M286.1051331,115.2159882
		c-17.8060913-9.5998154-34.3859711-10.9234619-51.0962372,0.8533249c1.3722687,1.182045,2.1355896,2.4151459,3.0229645,2.5120087
		c6.5498199,0.7150955,13.1183319,1.5264282,19.6933289,1.6503067c4.4069214,0.0830383,8.8750305-0.6858215,13.2413635-1.4816742
		C275.8669434,117.8567581,280.6835022,116.5039215,286.1051331,115.2159882z M155.5729828,138.0455017
		c10.6039429-0.0072327,20.1509094,1.2198639,29.3720093-2.0496368c3.4532318-1.224411,6.7344208-3.012085,9.9210205-4.8439178
		c0.6291962-0.3617096,0.9854889-2.8120422,0.5902252-3.1016693c-6.6894531-4.9013824-14.5843353-5.4860306-21.8862305-3.1804504
		c-5.5944366,1.7664566-10.3629761,6.2051849-15.4138947,9.582489
		C157.2793427,135.0385742,156.825531,136.2574768,155.5729828,138.0455017z M484.5717163,180.4440918
		c9.5360718,7.6747437,15.9700317,17.1807861,26.221344,22.2465057c1.9590759-5.7691803,0.6515503-14.3717957-2.939209-17.0131378
		C501.1584778,180.7523346,493.5706787,179.258194,484.5717163,180.4440918z M409.2850037,141.7593231
		c0.2181396-0.4278564,0.4362793-0.8557129,0.6543884-1.2835693c-2.7295532-2.5574951-5.2105713-5.4689789-8.2416382-7.5971069
		c-5.8922729-4.1369781-11.9769287-8.04422-18.2685852-11.5290985c-1.1955872-0.6622086-3.8220215,0.8836823-5.5355835,1.8560104
		c-0.3329163,0.1889267,0.0701904,2.9284821,0.8827515,3.6634979c3.3330688,3.0149307,6.7687073,5.9939957,10.5143127,8.4576187
		C395.3443604,139.3083649,402.422821,140.2715759,409.2850037,141.7593231z M430.5429382,141.2647858
		c-1.0800171,0.7428741-1.712616,0.9537811-1.9655151,1.3865509c-2.6148071,4.4749756-5.2321777,8.9519196-7.6567078,13.5300598
		c-0.2981873,0.5630493,0.3221741,2.2724915,0.8753967,2.4759674c0.8891602,0.3270569,2.7437439,0.1940002,3.0357056-0.3567505
		C427.5508423,153.1715546,431.8399353,148.5218353,430.5429382,141.2647858z M456.8697205,168.4398956
		c-1.7796631-4.9360199-13.8768921-11.6565704-18.6036072-10.5065308
		C443.15979,163.5312347,448.4975586,168.365799,456.8697205,168.4398956z"/>
	<path class="st2" d="M110.0759277,352.7884216c1.0900421,0.6680908,2.296463,1.2011719,3.2522278,2.0250244
		c9.8107605,8.4569092,21.0059814,14.496521,33.5041351,17.5576782c10.9414825,2.6798706,22.0774078,5.038208,33.2643433,6.1111145
		c11.2428436,1.0782471,22.6142578,0.1661682,33.8011017-2.2267151c5.3115234-1.1360779,10.8675079-1.1312561,16.1771851-2.2735596
		c8.789917-1.8909912,17.4576721-4.3434143,26.2010803-6.4594116c5.7792969-1.3985901,11.617981-2.5516968,17.3981934-3.9468994
		c4.7076416-1.136322,9.4304504-2.2745361,14.0354309-3.756958c8.1324768-2.617981,16.4089966-4.9782104,24.2050171-8.402832
		c9.463501-4.1571655,18.477417-9.3333435,27.7139587-14.0131836c4.8137512-2.4390259,9.8052063-4.5492859,14.5069885-7.1819763
		c7.0253601-3.9337769,14.1783752-7.7599487,20.7111206-12.4245605c9.5073547-6.7885742,18.0713501-14.7124329,22.467804-25.9786987
		c1.1943665-3.0606995,1.4338074-6.483551,2.3052673-9.6875c0.2514954-0.924408,1.0315247-2.0167542,1.8503723-2.3587036
		c0.4940796-0.2063293,1.8435669,0.697113,2.2746582,1.4202271c6.1138611,10.2546082,13.6694031,20.0005493,17.7204285,31.0288086
		c3.5719299,9.7241211,4.5916443,20.8488159,1.2478333,31.5157776c-0.8126221,2.5924377-1.8661194,5.3018494-1.8126221,7.9372253
		c0.161438,7.949646-5.4184875,13.013855-9.5480957,18.3955688c-4.7679443,6.2136841-11.0235596,11.3391418-16.9281311,16.6065369
		c-3.3405762,2.9801025-7.0990906,5.5958862-10.9752502,7.849762c-8.0062866,4.6555481-16.0470886,9.3128662-24.3845825,13.3230896
		c-12.1079712,5.823761-24.3439026,11.4440308-36.8151245,16.425293c-6.7762146,2.706543-14.0713501,4.3370361-21.2746277,5.7027283
		c-13.2384644,2.5098267-26.5820007,4.4653625-39.8819885,6.6505127c-0.1433105,0.0236511-0.2893982,0.0342102-0.4346313,0.0419312
		c-12.8639832,0.6809998-25.7445984,2.1207886-38.587616,1.8399353
		c-14.5511475-0.3181152-29.1017914-1.8848877-43.5831299-3.5232849
		c-5.2579041-0.5948792-10.3328705-2.9066162-15.4594879-4.5350647c-5.5061646-1.7489014-11.0727539-3.3676453-16.4390106-5.4841919
		c-10.1122589-3.9884644-17.7397156-11.7874451-26.1529007-18.2476807
		c-2.9942627-2.2991638-4.6407623-7.2279968-5.4977112-11.2553406c-1.8197556-8.552124-2.7499771-17.2958069-3.9815369-25.9699402
		c-0.7582703-5.3407898-1.3995972-10.6982727-2.0934219-16.0482483
		C109.2674332,353.2260742,109.6716843,353.0072632,110.0759277,352.7884216z"/>
	<path class="st2" d="M217.3673706,176.8707123c2.0101929,8.0228729,3.6306152,15.6791077,5.8854675,23.143692
		c2.1105042,6.9866943,5.0865479,13.7081757,7.3212433,20.6622314c1.9106598,5.945816,3.2552185,12.0713806,4.9501343,18.0892944
		c2.0455933,7.2629395,4.4936066,14.4263153,6.2187347,21.7618408c1.7414856,7.4051819,2.8217926,14.9664612,4.1726685,22.4627991
		c1.5204315,8.4371643,3.0250549,16.8771973,4.5232391,25.3183594c0.3032227,1.708374,0.640686,3.4186707,0.8000336,5.1430664
		c0.45047,4.8757019,1.0317688,9.7543945,1.1406403,14.6412964c0.0726929,3.2626953-0.7917023,6.5384827-0.8358917,9.8138123
		c-0.0411224,3.0484619,0.5297241,6.1000366,0.6836243,9.1576233c0.198288,3.9387512,0.6842651,7.9507446,0.1021271,11.7879944
		c-0.1770172,1.166748-3.3869476,2.203064-5.3591461,2.7087097c-7.187439,1.8426819-14.4387512,3.4360962-21.6666107,5.1209412
		c-0.2828827,0.065918-0.5706329,0.1423035-0.8582306,0.1523743c-17.4879761,0.6130981-34.9740753,1.5286255-52.4656067,1.6498108
		c-5.6811981,0.0393677-11.3751373-2.0092468-17.0664215-3.0861206c-3.3898773-0.6414795-5.0137024-3.2192993-5.0843658-6.1152039
		c-0.2822876-11.565094-0.6453857-23.1621704-0.0794373-34.7033386c0.4612274-9.4061279,1.8741913-18.8072205,3.5048828-28.0982666
		c0.9211884-5.2488403,3.0802917-10.2888489,4.7769623-15.3912659c3.0092773-9.0498047,5.360611-18.4111328,9.3204041-27.0296021
		c5.4134827-11.7823486,11.7178192-23.2017059,18.3093719-34.3821869c5.4738312-9.2846069,11.787384-18.0881042,17.973114-26.93396
		C207.5218353,187.185257,210.5885162,180.82341,217.3673706,176.8707123z"/>
	<path class="st2" d="M226.3527985,176.2255249c4.9945068,0.8440094,9.3545074,0.99646,13.29216,2.3645325
		c8.9380035,3.105423,17.8328552,6.4512939,26.4208374,10.4042358c5.1037598,2.3491974,9.4203186,6.3500061,14.3880615,9.0642395
		c15.1739807,8.2906494,27.0010071,19.9516144,36.3979187,34.3766479
		c8.7081299,13.3676605,18.14151,26.2716675,26.5996704,39.7901611c5.2889709,8.4533081,9.3609314,17.6676636,13.9848328,26.5374756
		c1.7086182,3.2775269,3.5401306,6.4958801,5.1247864,9.8318481c1.9367676,4.0774231,0.9337463,6.3671265-3.9346619,9.2174377
		c-6.8180847,3.9917908-13.5920105,8.0724182-20.5472717,11.8128967
		c-8.1852112,4.4019165-16.3791199,8.8590088-24.8847656,12.5687866
		c-5.8320618,2.5437012-12.2165527,3.8079529-18.3281555,5.7267151c-6.4702454,2.0313416-12.8934631,4.2130127-19.3701782,6.2227783
		c-2.8490601,0.8840637-5.7688293,1.5518799-8.6761475,2.2338867c-3.5533752,0.8336182-5.3322754-0.173645-5.4725952-4.2851257
		c-0.3305054-9.6846008-0.7134399-19.3969116-1.7927246-29.0174561c-0.9048157-8.0651855-2.8254089-16.0163574-4.295105-24.018219
		c-0.1523132-0.8291321-0.3249512-1.6558228-0.440506-2.4902344c-1.7868805-12.90271-2.4247131-25.9321289-6.8848724-38.4579163
		c-2.8191223-7.9171143-3.6727295-16.5125275-5.8505096-24.6857605c-2.123764-7.9705811-4.8730011-15.7725677-7.2290344-23.6838531
		c-1.7006989-5.710907-3.2997437-11.4559937-4.7722473-17.2296753
		C228.7891693,187.4388123,227.734848,182.3077393,226.3527985,176.2255249z"/>
	<path class="st2" d="M250.9437561,159.1004333c-2.9069366,0-5.8397217-0.2404327-8.7133942,0.0688019
		c-2.7785034,0.2989807-4.3000031-1.1508484-4.7549591-3.3193665c-1.8235779-8.6917419-3.420929-17.4334106-4.8624573-26.1960144
		c-0.0774994-0.4710236,2.0449524-1.9036331,3.111908-1.8707199c10.9456482,0.3376389,22.0067139,2.1045761,32.7908325,1.0259171
		c10.3901978-1.039238,20.5232544-4.8459549,30.7096252-7.6532516c6.0840759-1.6767197,11.7361145,0.070015,17.4679871,1.5197906
		c3.8562927,0.9753799,7.7171936,1.9528503,11.5221558,3.1070099c11.4062195,3.4598007,23.0560303,1.8968124,34.6273499,1.7076187
		c2.7597046-0.0451202,4.6643982,0.1187363,6.4988403,2.8127594c5.0959473,7.4838409,13.1391907,11.0931549,21.0696716,14.7415161
		c6.2901917,2.8937836,12.6227112,5.5054016,19.7220764,5.6013794c0.6190186,0.0083618,1.8439331,1.4516754,1.7152405,1.9536285
		c-0.4071655,1.5882568-1.2112122,3.1187897-2.1125488,4.5090637c-0.2642212,0.4075623-1.36026,0.3179474-2.0816345,0.3805237
		c-6.8786011,0.5966339-13.8225098,0.772934-20.6243896,1.8491516c-12.724823,2.0133362-25.7251282,3.4097748-37.922699,7.2490997
		c-8.5815735,2.7011261-17.9307556,5.5005798-24.4813232,12.7801666c-2.0733948,2.304184-4.401947,1.4137878-6.506897,0.3737488
		c-7.3394165-3.6264954-14.4611816-7.7256775-21.936676-11.0325317c-4.5536804-2.014389-9.5716248-3.0357208-14.4412842-4.2641754
		c-5.3748169-1.355835-10.7982483-2.541748-16.2383118-3.6090393c-4.7907715-0.9399261-9.6336365-1.6142273-14.4534912-2.405838
		C251.0141754,158.6532593,250.9789734,158.8768463,250.9437561,159.1004333z"/>
	<path class="st2" d="M226.9624939,165.5085144c4.4980774,0.8171692,8.9692535,1.8607635,13.5005035,2.3990479
		c6.993454,0.8307953,14.0734406,1.0092316,21.0313568,2.0404663c5.9967346,0.8887939,11.8761597,2.5736389,17.8013306,3.9333954
		c0.5417786,0.1243286,1.051178,0.6679688,1.5546265,0.6398773c9.2210693-0.5139465,16.3757629,5.0505829,24.3441467,8.2127075
		c9.6648865,3.8353577,17.609314,10.424408,26.2618103,15.9317322c15.6400452,9.9548492,27.4930115,23.3817749,38.627655,37.7664795
		c6.334137,8.1830139,12.9813843,16.1233063,19.4611816,24.1941833c1.9481506,2.4265137,3.6698303,4.4283142,1.7712402,8.2893982
		c-1.3982849,2.8436584-0.0059814,6.9230347-0.6222229,10.3127136
		c-2.0274048,11.1514587-7.0438538,20.6315308-16.5388489,27.3333435c-2.3589783,1.664978-3.5532227,1.000824-4.2606506-1.7492981
		c-0.4772949-1.8553467-1.4463806-3.6153564-2.3797913-5.3169861c-4.5320129-8.262207-8.9747925-16.5794373-13.7527466-24.6985474
		c-3.0804749-5.2345581-6.6921997-10.1560059-10.0533142-15.2260437
		c-7.6911926-11.6016083-14.8248291-23.6268005-23.2366028-34.6794739
		c-6.6394958-8.7239838-13.753418-17.3043671-22.9576416-23.7351074
		c-6.4669495-4.51828-12.3400574-10.0722504-19.2316284-13.7534332
		c-10.2575684-5.4791718-21.0432434-10.0612946-31.8797607-14.3246765
		c-5.1074677-2.0093842-10.8745728-2.3087311-16.3005066-3.565506c-1.3490906-0.3124847-2.5338898-1.3340149-3.79422-2.0296478
		C226.5264435,166.8249359,226.7444611,166.1667175,226.9624939,165.5085144z"/>
	<path class="st2" d="M205.9980621,172.3176117c-1.2871552,1.9059296-2.6133118,3.7867737-3.8548126,5.7219849
		c-6.0361633,9.4092102-11.9421997,18.9041138-18.1105957,28.2255249
		c-3.8421783,5.8061218-8.3867188,11.1631317-12.0171814,17.0885925c-2.656311,4.3355255-4.3623199,9.25737-6.4484711,13.9372406
		c-3.2254791,7.2357635-6.8295898,14.33815-9.5100098,21.7722168c-3.1632996,8.7734985-5.5120697,17.8405151-8.2184296,26.7789001
		c-0.7881317,2.6029968-1.6308441,5.1902161-2.373703,7.8058472c-0.4668427,1.6438599-0.8684998,3.3139038-1.1711731,4.9952698
		c-1.0628662,5.9047241-2.2631531,11.7944641-3.032608,17.7389221c-0.5380249,4.1564026-0.6212769,8.3927612-0.6210632,12.5934448
		c0.0004425,9.5014343,0.1862946,19.0028381,0.2734222,28.5044861c0.010437,1.1373901-0.1235199,2.2760925-0.1991272,3.5597229
		c-11.2414246-4.5295715-21.002388-10.835907-29.4745789-19.109314c-0.7593307-0.7415466-1.7498169-1.82901-1.7087173-2.7128906
		c0.2662659-5.7264099,0.7849579-11.4412842,1.2312622-17.1590881c0.0789032-1.0108337,0.1435471-2.0290833,0.3211288-3.0249634
		c1.6461639-9.2308655,3.0956879-18.5045166,5.0509644-27.6700439c1.4499741-6.796875,2.9085312-13.7211304,5.5276718-20.1113586
		c4.815712-11.7495728,10.1068039-23.3461761,15.9595108-34.6118622c3.113739-5.993454,7.6652222-11.2791595,11.8410339-16.672699
		c6.5582428-8.4707031,13.199707-16.8865204,20.0838928-25.0924225c5.919632-7.0561676,13.0749512-12.5949249,21.569046-16.4416962
		c4.6915436-2.1246643,9.0689697-4.9429016,13.5879974-7.4485168
		C205.1350403,171.4291534,205.5665436,171.8733826,205.9980621,172.3176117z"/>
	<path class="st2" d="M447.638916,253.5278778c-1.4710083,11.2652435-2.9313354,22.5318756-4.4198608,33.7948151
		c-0.4138184,3.1306763-2.0465393,4.1746826-5.0586548,2.8745728c-3.6393738-1.5708008-7.2605896-3.2070007-10.9855957-4.5485535
		c-2.8840637-1.0387878-5.9293213-2.3860779-8.8787231-2.3296814c-6.1299744,0.117157-7.449585-5.1384277-9.5618286-8.563446
		c-5.1896667-8.4150085-10.8292847-16.3424072-17.5682678-23.5857544
		c-3.1852112-3.4235992-5.6954041-7.4986725-8.3082275-11.4141693c-0.6203308-0.9295349-1.0336609-2.9961853-0.5095215-3.5349121
		c4.8864746-5.0219574,4.40802-12.3363342,7.9904785-17.959137c2.9501038-4.6303253,4.374939-10.2563477,7.4514465-14.7771606
		c5.8025818-8.5267029,12.2996521-16.5814056,18.5243225-24.8200684c2.4651184-3.2627716,4.5492249-2.2874756,6.223999,0.7350464
		c4.5521545,8.2154541,9.3093872,16.3330231,13.4819336,24.7392578
		c5.5929565,11.2681122,7.9472046,23.5981903,10.3340759,35.8161011c0.8464355,4.3327332,0.135437,8.9697113,0.135437,13.4678192
		C446.8728943,253.4576874,447.2559204,253.4927826,447.638916,253.5278778z"/>
	<path class="st2" d="M431.4262695,355.4230347c1.0704346-5.2395935,2.3260803-9.1488037,2.513092-13.1084595
		c0.1194763-2.5285034-1.5919189-5.0898743-2.030365-7.7121277c-0.5242004-3.1351013-0.8863831-6.3640137-0.7564392-9.5292053
		c0.3722839-9.0677795-1.9735718-17.3204346-6.6574097-25.0122681c-0.4082642-0.6703796-0.3315125-1.6361694-0.7015076-3.700592
		c4.9862671,1.2217712,9.3034363,2.3102417,13.6358948,3.3337708c5.9919739,1.4155884,11.9386292,3.453125,18.0112915,3.96875
		c5.3589478,0.4550476,10.8621521-0.8334351,16.3059998-1.3014832c1.2790833-0.1099854,2.5756531-0.0162659,4.4734802-0.0162659
		c0,4.3959351,0.3629761,8.5883179-0.0798035,12.6938477c-0.7848816,7.2778015-1.6988525,14.5809021-3.2461243,21.7245483
		c-1.1724548,5.4127808-2.5341492,11.1822815-5.5220032,15.6489563c-1.6829834,2.5159912-6.7990723,3.6439209-10.4246216,3.7685852
		C448.6459656,356.4666443,440.3097534,355.7521667,431.4262695,355.4230347z"/>
	<path class="st2" d="M451.3444519,293.3421021c5.2408752-19.9879456,3.8247681-39.7381134,1.7417908-59.1488037
		c-2.0652771-19.2459564-10.5258179-36.8520203-20.8981018-53.4179535c0.4387207-0.2235718,0.8773804-0.4471436,1.3161011-0.6707306
		c0.4380188,0.2736816,0.9501648,0.4742126,1.303009,0.8318481c6.7609863,6.852356,13.414032,13.9240723,18.0646362,22.3353729
		c3.3552551,6.068573,5.2906189,12.9361725,7.7178955,19.4997253c2.2427979,6.0646667,4.547821,12.1248779,6.3796082,18.318924
		c3.1901855,10.7874756,7.891571,21.1912537,7.9515686,32.800293c0.0244446,4.7234192,1.1032104,9.4382324,1.6493225,14.1631165
		c0.350708,3.0341492-1.4648132,5.0398865-4.0736389,5.1746826
		C465.8797607,293.5704041,459.2334595,293.3421021,451.3444519,293.3421021z"/>
	<path class="st2" d="M389.1877441,94.5527496c-0.9269409,7.9417496-4.8984985,13.8728256-12.0686951,17.3711472
		c-7.4282532,3.6241608-15.173584,5.9909744-23.660614,5.4921036c-2.9470825-0.173233-5.9895935,1.2896042-8.9378967,1.1208496
		c-5.5844116-0.3196335-11.1401367-1.2223892-16.6912842-2.0002441c-2.1223145-0.2973633-4.2394104-0.7916183-6.2798157-1.443573
		c-0.9680786-0.3093338-1.7505188-1.1996307-2.6170654-1.8267212c0.6478882-0.8830414,1.1054993-2.0915146,1.973114-2.5988388
		c8.7319946-5.1057968,17.45755-10.2312393,26.3305969-15.0848312c10.5085754-5.74823,21.0909729-11.2688065,33.7891235-9.8864212
		C386.2948914,86.2698975,389.2957458,89.0937119,389.1877441,94.5527496z"/>
	<path class="st2" d="M405.3721313,176.4263458c-8.1338806,13.6192627-16.1167603,26.8252258-23.8921509,40.1522675
		c-1.4015808,2.4024048-1.8626404,5.3384247-2.9351501,7.9554138c-0.4221191,1.0300751-1.3482666,2.6423035-2.0125427,2.6265411
		c-1.5698547-0.0372009-3.6174927-0.4337311-4.5941772-1.4937134c-4.7159424-5.1178894-9.080719-10.5570221-13.6902466-15.7760468
		c-3.3688354-3.81427-3.2147522-4.269577,0.8792725-7.4944305c5.6757507-4.4706879,10.7112427-9.8599243,16.7302551-13.7613831
		c6.9576721-4.5098419,14.5850525-8.0494843,22.1408997-11.5352173
		C400.278656,176.0477753,403.2888794,176.5778503,405.3721313,176.4263458z"/>
	<path class="st2" d="M127.0880356,148.2218781c-5.2680588,2.4479828-10.5048141,4.9662323-15.8111572,7.3281708
		c-8.9744415,3.9946289-18.4111176,4.5056-28.0071106,3.3744202c-8.9796143-1.0585175-17.3428345-3.6115417-23.543396-10.7186737
		c-0.4223862-0.4841156,0.0114708-2.6611176,0.4937592-2.8388824c3.8186493-1.4073486,7.6794891-2.8591461,11.6565094-3.6369019
		c4.7793961-0.9346771,9.7293015-1.9226837,14.5279846-1.6278687c8.2831573,0.5089111,16.5294495,1.8427124,24.746788,3.1168823
		c5.1745529,0.8023682,10.2682648,2.126236,15.3982391,3.2161407
		C126.7291107,147.0307465,126.9085693,147.6263275,127.0880356,148.2218781z"/>
	<path class="st2" d="M330.1326294,186.3134308c3.2755127-6.3717499,9.6046753-7.1641846,14.8085022-9.3742828
		c6.3922119-2.7147827,13.1027832-5.151413,19.913269-6.3005981c10.5414429-1.7787628,21.2840271-2.365509,31.9413452-3.4577179
		c0.0652161,0.4784088,0.1304016,0.9568176,0.1956482,1.4352264c-2.8782043,0.7935333-5.9927063,1.1284637-8.5900879,2.4669647
		c-7.6689453,3.9519958-15.5608215,7.7015991-22.5445557,12.6815796c-5.7410278,4.09375-10.2366028,9.9108582-15.4760437,14.7566681
		c-0.7680664,0.7103729-3.0307312,0.868042-3.87146,0.264328
		C340.9711609,194.8087158,335.6332092,190.5531311,330.1326294,186.3134308z"/>
	<path class="st2" d="M230.4720764,157.7779694c-5.3546295,0.7205505-8.9707031,0.3730469-13.3457642,0.5532532
		c-3.4637604,0.1426697-5.1151428-1.2242126-4.8715668-4.81427c0.5166931-7.6158752,1.0086823-15.234848,1.3730621-22.8591461
		c0.2370911-4.9601898,0.0909729-9.9412003,0.4151459-14.8933411c0.1054993-1.6115036-0.3193512-5.9409027,2.2438202-5.9409027
		c3.3133392,0,3.8056641,5.0184021,4.3725128,7.1869965C224.0868988,130.1235809,227.2273712,144.581543,230.4720764,157.7779694z"
		/>
	<path class="st2" d="M286.1051331,115.2159882c-5.4216309,1.2879333-10.2381897,2.64077-15.1385803,3.5339661
		c-4.366333,0.7958527-8.8344421,1.5647125-13.2413635,1.4816742c-6.5749969-0.1238785-13.1435089-0.9352112-19.6933289-1.6503067
		c-0.8873749-0.0968628-1.6506958-1.3299637-3.0229645-2.5120087
		C251.719162,104.2925262,268.2990417,105.6161728,286.1051331,115.2159882z"/>
	<path class="st2" d="M155.5729828,138.0455017c1.2525482-1.7880249,1.7063599-3.0069275,2.5831299-3.5931854
		c5.0509186-3.3773041,9.819458-7.8160324,15.4138947-9.582489c7.3018951-2.3055801,15.1967773-1.720932,21.8862305,3.1804504
		c0.3952637,0.2896271,0.0389709,2.7399597-0.5902252,3.1016693c-3.1865997,1.8318329-6.4677887,3.6195068-9.9210205,4.8439178
		C175.7238922,139.2653656,166.1769257,138.038269,155.5729828,138.0455017z"/>
	<path class="st2" d="M484.5717163,180.4440918c8.9989624-1.1858978,16.5867615,0.3082428,23.282135,5.2333679
		c3.5907593,2.6413422,4.8982849,11.2439575,2.939209,17.0131378
		C500.541748,197.6248779,494.1077881,188.1188354,484.5717163,180.4440918z"/>
	<path class="st2" d="M409.2850037,141.7593231c-6.8621826-1.4877472-13.9406433-2.4509583-19.9943542-6.4326477
		c-3.7456055-2.463623-7.1812439-5.442688-10.5143127-8.4576187c-0.812561-0.7350159-1.2156677-3.4745712-0.8827515-3.6634979
		c1.713562-0.9723282,4.3399963-2.518219,5.5355835-1.8560104c6.2916565,3.4848785,12.3763123,7.3921204,18.2685852,11.5290985
		c3.0310669,2.1281281,5.512085,5.0396118,8.2416382,7.5971069
		C409.721283,140.9036102,409.5031433,141.3314667,409.2850037,141.7593231z"/>
	<path class="st2" d="M430.5429382,141.2647858c1.2969971,7.2570496-2.9920959,11.9067688-5.7111206,17.0358276
		c-0.2919617,0.5507507-2.1465454,0.6838074-3.0357056,0.3567505c-0.5532227-0.203476-1.173584-1.9129181-0.8753967-2.4759674
		c2.42453-4.5781403,5.0419006-9.0550842,7.6567078-13.5300598
		C428.8303223,142.2185669,429.4629211,142.0076599,430.5429382,141.2647858z"/>
	<path class="st2" d="M456.8697205,168.4398956c-8.3721619-0.0740967-13.7099304-4.9086609-18.6045837-10.5048828
		C442.9928284,156.7833252,455.0900574,163.5038757,456.8697205,168.4398956z"/>
</g>
<g id="Laag_4" class="st0">
</g>
<g id="Laag_6">
</g>
<g id="Laag_5">
	<path class="st9" d="M141.7322845,358.5050354c0,66.691803,141.7677155,66.691803,141.7677155,66.691803
		s141.6968384-0.1326904,141.6968384-66.691803S425.2677307,158.6950378,283.5,158.6950378
		S141.7322845,291.8132324,141.7322845,358.5050354z"/>
	
		<linearGradient id="SVGID_1_" gradientUnits="userSpaceOnUse" x1="408.3563843" y1="250.1408691" x2="513.1543579" y2="250.1408691" gradientTransform="matrix(0.9788789 0.204441 -0.204441 0.9788789 55.8101311 -68.6266937)">
		<stop  offset="0" style="stop-color:#CD0C15"/>
		<stop  offset="1" style="stop-color:#8A1006"/>
	</linearGradient>
	<path class="st10" d="M491.5070496,354.7218018c0.2398682-0.8225708,0.4592896-1.6607971,0.6403809-2.5278931
		c10.0639343-48.1868896,30.2632141-144.6460724-72.3726196-166.0817871L465.5625,336.7132263L491.5070496,354.7218018z"/>
	
		<linearGradient id="SVGID_2_" gradientUnits="userSpaceOnUse" x1="303.506012" y1="261.7426758" x2="498.2333984" y2="261.7426758" gradientTransform="matrix(0.9788789 0.204441 -0.204441 0.9788789 55.8101311 -68.6266937)">
		<stop  offset="0" style="stop-color:#DFCB0A"/>
		<stop  offset="0.5466947" style="stop-color:#DFCB0A"/>
		<stop  offset="0.8108863" style="stop-color:#BCAC0D"/>
		<stop  offset="1" style="stop-color:#A5980D"/>
	</linearGradient>
	<path class="st11" d="M286.9270935,309.3332214c-2.2063599,10.5641785,0.9835205,19.8430176,7.3137512,27.8934021
		l160.5075073,16.5239868l23.0274658-5.7284851L465.5625,336.7132263c0,0,26.5021973-134.3944092-45.7876892-150.6011047
		C317.1389771,164.6764069,297.0110779,261.0502319,286.9270935,309.3332214z"/>
	
		<linearGradient id="SVGID_3_" gradientUnits="userSpaceOnUse" x1="303.512207" y1="247.6228943" x2="408.3563843" y2="247.6228943" gradientTransform="matrix(0.9788789 0.204441 -0.204441 0.9788789 55.8101311 -68.6266937)">
		<stop  offset="0" style="stop-color:#9C100B"/>
		<stop  offset="1" style="stop-color:#CD0C15"/>
	</linearGradient>
	<path class="st12" d="M288.1053772,303.7216492l72.4084473,18.4973145c0,0,33.4837952-141.4904633,59.2609863-136.106842
		C338.7680664,169.1936798,298.6324768,254.0063477,288.1053772,303.7216492z"/>
	
		<linearGradient id="SVGID_4_" gradientUnits="userSpaceOnUse" x1="312.7457275" y1="232.1177368" x2="395.6969604" y2="246.744278" gradientTransform="matrix(0.9788789 0.204441 -0.204441 0.9788789 55.8101311 -68.6266937)">
		<stop  offset="0" style="stop-color:#AD9F0D"/>
		<stop  offset="0.2154131" style="stop-color:#C3B30D"/>
		<stop  offset="0.4533053" style="stop-color:#DFCB0A"/>
		<stop  offset="1" style="stop-color:#DFCB0A"/>
	</linearGradient>
	<path class="st13" d="M419.7748108,186.1121216c-91.0932312-19.0250244-117.1908264,54.7480316-128.9592285,105.3390503
		l13.4758606,5.5105591C304.2914429,296.961731,326.6080017,166.6540222,419.7748108,186.1121216z"/>
	
		<linearGradient id="SVGID_5_" gradientUnits="userSpaceOnUse" x1="303.5584106" y1="331.8969116" x2="513.1543579" y2="331.8969116" gradientTransform="matrix(0.9788789 0.204441 -0.204441 0.9788789 55.8101311 -68.6266937)">
		<stop  offset="0" style="stop-color:#509AB8"/>
		<stop  offset="0.0047992" style="stop-color:#519BB9"/>
		<stop  offset="0.0844052" style="stop-color:#57A8CA"/>
		<stop  offset="0.171584" style="stop-color:#5CB1D5"/>
		<stop  offset="0.2720901" style="stop-color:#5EB6DB"/>
		<stop  offset="0.4150641" style="stop-color:#5FB8DD"/>
		<stop  offset="0.5478514" style="stop-color:#5DB5D9"/>
		<stop  offset="0.7150542" style="stop-color:#59ACCE"/>
		<stop  offset="0.8999163" style="stop-color:#519CBB"/>
		<stop  offset="1" style="stop-color:#4C92AF"/>
	</linearGradient>
	<path class="st14" d="M497.8597717,321.7330322c-0.0710449,0.058136-5.4078674,29.0031433-107.9924011,7.578125
		c-102.6358337-21.4356995-95.8901367-50.0864563-95.9319763-50.1681519
		c-2.9457703,11.0009766-5.1203003,21.4066772-6.9570007,30.2009277
		c-10.0639648,48.1869202,92.5004883,69.7080078,92.5004883,69.7080078s102.6045837,21.3289185,112.6685486-26.8580322
		C493.9841309,343.3996887,496.156189,332.9934692,497.8597717,321.7330322z"/>
	
		<linearGradient id="SVGID_6_" gradientUnits="userSpaceOnUse" x1="413.2195435" y1="155.446579" x2="494.0113525" y2="155.446579" gradientTransform="matrix(0.9788789 0.204441 -0.204441 0.9788789 55.8101311 -68.6266937)">
		<stop  offset="0" style="stop-color:#379D31"/>
		<stop  offset="0.211088" style="stop-color:#359830"/>
		<stop  offset="0.584897" style="stop-color:#30892B"/>
		<stop  offset="1" style="stop-color:#277424"/>
	</linearGradient>
	<path class="st15" d="M428.461731,168.3059998c0,0,10.0602417-8.7439728,22.6846008-5.9483643
		c12.6243286,2.7956238,54.7765503,30.2425232,54.7765503,30.2425232s-11.0427246-7.9657135-26.9566345-9.6856384
		c-15.9139099-1.7199097-30.2155151,0.2472534-38.1483459-1.9936218
		c-7.9328613-2.2408752-13.0868225-7.9540558-13.0868225-7.9540558L428.461731,168.3059998z"/>
	
		<linearGradient id="SVGID_7_" gradientUnits="userSpaceOnUse" x1="468.1300354" y1="157.4172363" x2="547.5037842" y2="157.4172363" gradientTransform="matrix(0.9788789 0.204441 -0.204441 0.9788789 55.8101311 -68.6266937)">
		<stop  offset="0" style="stop-color:#8AB21D"/>
		<stop  offset="0.2477688" style="stop-color:#88B01D"/>
		<stop  offset="0.5006742" style="stop-color:#83A91C"/>
		<stop  offset="0.7549988" style="stop-color:#7A9D1A"/>
		<stop  offset="1" style="stop-color:#6D8E17"/>
	</linearGradient>
	<path class="st16" d="M505.9228821,192.6001587c0,0,27.8165588,16.6170807,42.296051,12.2544556
		c0,0,21.7243652-4.7763672,5.6820068-18.2638092c-16.0423584-13.4874268-48.0898132,0.9569855-71.3852234-8.5108185
		L505.9228821,192.6001587z"/>
	
		<linearGradient id="SVGID_8_" gradientUnits="userSpaceOnUse" x1="321.6930847" y1="156.1086273" x2="402.7322388" y2="156.1086273" gradientTransform="matrix(0.9788789 0.204441 -0.204441 0.9788789 55.8101311 -68.6266937)">
		<stop  offset="0" style="stop-color:#277424"/>
		<stop  offset="0.4151037" style="stop-color:#30892B"/>
		<stop  offset="0.7889121" style="stop-color:#359830"/>
		<stop  offset="1" style="stop-color:#379D31"/>
	</linearGradient>
	<path class="st17" d="M417.8182678,166.7603607c-0.5479736-5.837204-5.7195129-12.0395966-18.4075012-14.5305328
		c-12.6879883-2.490921-62.302124,5.79039-62.302124,5.79039s13.3078918-2.8800507,28.579895,1.9132843
		c15.2720337,4.793335,27.5907898,12.3202209,35.7574158,13.4417572s12.547699,0.7323303,15.1764221-2.0512238
		C417.4321594,170.4665375,417.9285278,167.9346466,417.8182678,166.7603607z"/>
	
		<linearGradient id="SVGID_9_" gradientUnits="userSpaceOnUse" x1="268.2006531" y1="158.0802155" x2="347.5744019" y2="158.0802155" gradientTransform="matrix(0.9788789 0.204441 -0.204441 0.9788789 55.8101311 -68.6266937)">
		<stop  offset="0" style="stop-color:#7DA21B"/>
		<stop  offset="0.223413" style="stop-color:#88B01D"/>
		<stop  offset="0.4578827" style="stop-color:#8FBA1E"/>
		<stop  offset="0.708349" style="stop-color:#94BF1F"/>
		<stop  offset="1" style="stop-color:#95C11F"/>
	</linearGradient>
	<path class="st18" d="M337.1086426,158.0202179c0,0-32.1422424,4.0945587-43.6652222-5.6987457
		c0,0-17.9966431-13.0721893,2.1029968-19.0112915s43.6868286,20.1247253,68.8243713,20.7722626L337.1086426,158.0202179z"/>
	
		<linearGradient id="SVGID_10_" gradientUnits="userSpaceOnUse" x1="399.7105103" y1="161.550705" x2="416.9861145" y2="161.550705" gradientTransform="matrix(0.9788789 0.204441 -0.204441 0.9788789 55.8101311 -68.6266937)">
		<stop  offset="0" style="stop-color:#7A5932"/>
		<stop  offset="0.0429604" style="stop-color:#856137"/>
		<stop  offset="0.1150697" style="stop-color:#926A3D"/>
		<stop  offset="0.1943717" style="stop-color:#9B7040"/>
		<stop  offset="0.2854804" style="stop-color:#A07343"/>
		<stop  offset="0.4150641" style="stop-color:#A27543"/>
		<stop  offset="0.5476291" style="stop-color:#9F7242"/>
		<stop  offset="0.7145534" style="stop-color:#956C3E"/>
		<stop  offset="0.8991101" style="stop-color:#876238"/>
		<stop  offset="1" style="stop-color:#7C5A33"/>
	</linearGradient>
	<path class="st19" d="M419.2954102,188.2791595c7.4675598,1.5596161,8.6851807,0.2162933,8.8646851-0.1051636
		c1.9489136-11.7151337,3.7551575-29.1685486-2.4863586-30.4721069
		c-6.2359009-1.3023834-11.5330505,15.3898621-14.4178162,26.9088898
		C411.2556458,184.889389,411.5682678,186.665329,419.2954102,188.2791595z"/>
	
		<linearGradient id="SVGID_11_" gradientUnits="userSpaceOnUse" x1="242.2702026" y1="269.5031433" x2="406.6851501" y2="269.5031433" gradientTransform="matrix(0.9936868 -0.1121896 0.1121896 0.9936868 -28.7167778 33.4457016)">
		<stop  offset="0" style="stop-color:#E00918"/>
		<stop  offset="1" style="stop-color:#9E100B"/>
	</linearGradient>
	<path class="st20" d="M418.6994019,372.8626709c-0.0465088-1.3434753-0.1311035-2.7001953-0.2870178-4.0811462
		c-8.6644592-76.7428589-25.9289246-230.3908844-189.387619-211.9360199l142.1732635,201.9223785L418.6994019,372.8626709z"/>
	
		<linearGradient id="SVGID_12_" gradientUnits="userSpaceOnUse" x1="77.7730255" y1="287.7049561" x2="383.2760315" y2="287.7049561" gradientTransform="matrix(0.9936868 -0.1121896 0.1121896 0.9936868 -28.7167778 33.4457016)">
		<stop  offset="0" style="stop-color:#F4DD06"/>
		<stop  offset="0.5466947" style="stop-color:#F4DD06"/>
		<stop  offset="0.8108863" style="stop-color:#D1BF0C"/>
		<stop  offset="1" style="stop-color:#BBAB0D"/>
	</linearGradient>
	<path class="st21" d="M91.5767136,405.6820374c1.8995438,16.8246155,11.2086563,29.0844116,24.5939331,37.9717407
		l247.2792053-54.1893311l31.4995422-19.8425293l-23.7513733-10.8540344c0,0-26.4992981-213.2686005-142.1732635-201.9223785
		C65.5660858,175.3003845,82.8949966,328.7861938,91.5767136,405.6820374z"/>
	
		<linearGradient id="SVGID_13_" gradientUnits="userSpaceOnUse" x1="77.7827301" y1="265.5527344" x2="242.2702026" y2="265.5527344" gradientTransform="matrix(0.9936868 -0.1121896 0.1121896 0.9936868 -28.7167778 33.4457016)">
		<stop  offset="0" style="stop-color:#B0100F"/>
		<stop  offset="1" style="stop-color:#E00918"/>
	</linearGradient>
	<path class="st22" d="M90.5771179,396.7419434l116.9752808-7.991272c0,0-19.5805969-227.2701874,21.4723663-231.9051666
		C100.012764,171.4112701,81.8523026,317.4942322,90.5771179,396.7419434z"/>
	
		<linearGradient id="SVGID_14_" gradientUnits="userSpaceOnUse" x1="92.2689972" y1="241.2270813" x2="222.4091492" y2="264.1743164" gradientTransform="matrix(0.9936868 -0.1121896 0.1121896 0.9936868 -28.7167778 33.4457016)">
		<stop  offset="0" style="stop-color:#C2B20D"/>
		<stop  offset="0.2154131" style="stop-color:#D9C50B"/>
		<stop  offset="0.4533053" style="stop-color:#F4DD06"/>
		<stop  offset="1" style="stop-color:#F4DD06"/>
	</linearGradient>
	<path class="st23" d="M229.024765,156.8455048C83.9489059,173.2249146,81.2853775,295.9653931,88.5905228,377.1274414
		l22.7855835,1.5942688C111.3761063,378.7217102,80.6465302,173.5977631,229.024765,156.8455048z"/>
	
		<linearGradient id="SVGID_15_" gradientUnits="userSpaceOnUse" x1="77.8552475" y1="397.7681885" x2="406.6851501" y2="397.7681885" gradientTransform="matrix(0.9936868 -0.1121896 0.1121896 0.9936868 -28.7167778 33.4457016)">
		<stop  offset="0" style="stop-color:#5BAFD2"/>
		<stop  offset="0.0405702" style="stop-color:#5CB2D6"/>
		<stop  offset="0.2770259" style="stop-color:#63C2EA"/>
		<stop  offset="0.4150641" style="stop-color:#66C7F1"/>
		<stop  offset="0.5447447" style="stop-color:#64C4ED"/>
		<stop  offset="0.7080067" style="stop-color:#60BCE2"/>
		<stop  offset="0.8885526" style="stop-color:#5AADD0"/>
		<stop  offset="1" style="stop-color:#54A2C2"/>
	</linearGradient>
	<path class="st24" d="M411.9674683,320.5881653c-0.077301,0.1214905,6.1828003,45.8717346-157.1941833,64.3173828
		C91.3145828,403.3604126,87.2982254,357.356842,87.1957855,357.2556763
		c1.0122299,17.8385315,2.8813477,34.4113464,4.4626312,48.4171448
		c8.6644592,76.7429199,172.0587158,58.4502869,172.0587158,58.4502869s163.3597107-18.5986328,154.6952515-95.3415833
		C416.8310852,354.7757568,414.9580383,338.2033691,411.9674683,320.5881653z"/>
	
		<linearGradient id="SVGID_16_" gradientUnits="userSpaceOnUse" x1="249.8999023" y1="120.9395828" x2="376.6521912" y2="120.9395828" gradientTransform="matrix(0.9936868 -0.1121896 0.1121896 0.9936868 -28.7167778 33.4457016)">
		<stop  offset="0" style="stop-color:#3AAA35"/>
		<stop  offset="0.211088" style="stop-color:#39A534"/>
		<stop  offset="0.584897" style="stop-color:#35972F"/>
		<stop  offset="1" style="stop-color:#2D8329"/>
	</linearGradient>
	<path class="st25" d="M233.2258301,126.0479431c0,0,10.6969452-17.9687195,30.8806458-20.0017929
		s96.4697876,18.1672363,96.4697876,18.1672363s-20.3655701-6.4472885-44.9227295-1.1961594
		c-24.5571899,5.2511292-44.9015198,15.2045746-57.8222351,15.7606659
		c-12.9207306,0.5560913-23.4056549-5.426239-23.4056549-5.426239L233.2258301,126.0479431z"/>
	
		<linearGradient id="SVGID_17_" gradientUnits="userSpaceOnUse" x1="336.0476379" y1="124.031311" x2="460.5751648" y2="124.031311" gradientTransform="matrix(0.9936868 -0.1121896 0.1121896 0.9936868 -28.7167778 33.4457016)">
		<stop  offset="0" style="stop-color:#95C11F"/>
		<stop  offset="0.2477688" style="stop-color:#93BF1E"/>
		<stop  offset="0.5006742" style="stop-color:#8EB81E"/>
		<stop  offset="0.7549988" style="stop-color:#86AD1C"/>
		<stop  offset="1" style="stop-color:#7A9E1A"/>
	</linearGradient>
	<path class="st26" d="M360.5762634,124.2133865c0,0,49.6075134,11.1021957,69.0407104-2.5079803
		c0,0,30.0253601-17.7839737-0.5012207-30.0040817s-71.1867981,25.0386047-110.5471497,22.3693237L360.5762634,124.2133865z"/>
	
		<linearGradient id="SVGID_18_" gradientUnits="userSpaceOnUse" x1="106.3062897" y1="121.9782639" x2="233.44664" y2="121.9782639" gradientTransform="matrix(0.9936868 -0.1121896 0.1121896 0.9936868 -28.7167778 33.4457016)">
		<stop  offset="0" style="stop-color:#2D8329"/>
		<stop  offset="0.4151037" style="stop-color:#35972F"/>
		<stop  offset="0.7889121" style="stop-color:#39A534"/>
		<stop  offset="1" style="stop-color:#3AAA35"/>
	</linearGradient>
	<path class="st27" d="M216.6074982,128.9709167c-3.6826782-8.4287262-14.4340363-15.1313705-34.5629578-12.61306
		c-20.1289215,2.5183182-89.9907303,39.2190628-89.9907303,39.2190628s18.4153976-10.8257446,43.5251999-11.1821289
		c25.1098022-0.3563995,47.1612701,4.8104706,59.880722,2.4717255c12.7194519-2.3387604,19.056427-5.06987,21.6066132-10.5082397
		C217.851944,134.6829224,217.3483429,130.6665344,216.6074982,128.9709167z"/>
	
		<linearGradient id="SVGID_19_" gradientUnits="userSpaceOnUse" x1="22.3833065" y1="125.0714264" x2="146.9108429" y2="125.0714264" gradientTransform="matrix(0.9936868 -0.1121896 0.1121896 0.9936868 -28.7167778 33.4457016)">
		<stop  offset="0" style="stop-color:#7DA21B"/>
		<stop  offset="0.223413" style="stop-color:#88B01D"/>
		<stop  offset="0.4578827" style="stop-color:#8FBA1E"/>
		<stop  offset="0.708349" style="stop-color:#94BF1F"/>
		<stop  offset="1" style="stop-color:#95C11F"/>
	</linearGradient>
	<path class="st28" d="M92.0538101,155.5769196c0,0-45.8833694,21.8833466-67.8619156,12.9486542
		c0,0-33.2346954-10.6417694-6.2011986-29.3605347s74.9774857,8.5363007,112.7518768-2.8416748L92.0538101,155.5769196z"/>
	
		<linearGradient id="SVGID_20_" gradientUnits="userSpaceOnUse" x1="228.7058868" y1="130.5161896" x2="255.8091736" y2="130.5161896" gradientTransform="matrix(0.9936868 -0.1121896 0.1121896 0.9936868 -28.7167778 33.4457016)">
		<stop  offset="0" style="stop-color:#8B653A"/>
		<stop  offset="0.0429604" style="stop-color:#956C3E"/>
		<stop  offset="0.1150697" style="stop-color:#A27543"/>
		<stop  offset="0.1943717" style="stop-color:#AA7A47"/>
		<stop  offset="0.2854804" style="stop-color:#AF7E49"/>
		<stop  offset="0.4150641" style="stop-color:#B17F4A"/>
		<stop  offset="0.5476291" style="stop-color:#AE7D49"/>
		<stop  offset="0.7145534" style="stop-color:#A67745"/>
		<stop  offset="0.8991101" style="stop-color:#976D3F"/>
		<stop  offset="1" style="stop-color:#8D663B"/>
	</linearGradient>
	<path class="st29" d="M229.3744965,160.309906c11.8928833-1.3427277,13.0476227-3.942215,13.1572723-4.5093536
		c-2.8482513-18.4131775-8.7266693-45.3067017-18.6669617-44.1844254
		c-9.9313507,1.1212769-9.6283417,28.5946732-8.2708588,47.1751633
		C215.7303619,159.2065735,217.068161,161.6993256,229.3744965,160.309906z"/>
	<g>
		<path d="M415.5705261,89.2326126c4.6965027,0.0000305,9.2225952,0.7383194,13.5451965,2.4686966
			c30.5265808,12.2200851,0.5012512,30.0040894,0.5012512,30.0040894c-7.3858948,5.17276-19.1260681,6.7754059-30.8492737,6.7754059
			c-19.1219788,0-38.1914673-4.2674103-38.1914673-4.2674103l-5.7724304-1.3937454
			c-4.4446716-0.8840256-11.1879578-1.8621063-19.2781677-1.8621063c-6.0108337,0-12.7653503,0.5400009-19.8721619,2.0596848
			c-24.5570679,5.2511597-44.9014893,15.2045746-57.8221741,15.7606659
			c-0.5740356,0.0246887-1.1427307,0.0364838-1.7064209,0.0364838c-7.3433838,0-13.7497559-2.0037231-17.6614838-3.5841522
			c1.7358246,6.8345032,3.072998,14.1499939,4.0535889,20.4763336c4.2934418-0.2468262,8.4704285-0.3675232,12.5492706-0.3673706
			c44.0334167,0.0016479,75.7388,14.0884552,98.7574768,35.6498718c0.1499023-0.0698395,0.2990723-0.1405945,0.4496765-0.2095032
			c0.8495789-0.388916,1.7115784-0.7632446,2.5836487-1.1257477c0.1022644-0.042511,0.2010803-0.0888367,0.3035889-0.131012
			c0.9833374-0.4039154,1.9822388-0.7892456,2.9945068-1.1585693c0.2731628-0.099762,0.5539856-0.1901703,0.8292542-0.287262
			c0.7373962-0.2602386,1.4780579-0.5164185,2.2309875-0.7579041c0.3780823-0.1212616,0.7635803-0.233429,1.1455688-0.3499298
			c0.6650085-0.2027435,1.3325195-0.4024048,2.0095215-0.5904999c0.4208984-0.1169128,0.847168-0.2269897,1.2727356-0.3381653
			c0.6563416-0.1713257,1.3167419-0.3374176,1.9842529-0.4949188c0.4432678-0.1044922,0.8894958-0.2053223,1.337677-0.3035736
			c0.6699829-0.1469269,1.3462524-0.2855835,2.0274048-0.4182587c0.4524231-0.0880737,0.9049988-0.1759949,1.3624268-0.2578278
			c0.7055054-0.1261597,1.420166-0.2407532,2.1375732-0.3516693c0.4440002-0.0686646,0.8853455-0.1406708,1.3339233-0.2034149
			c0.7860718-0.1098328,1.5841675-0.2039185,2.3844299-0.2954102c0.391571-0.044754,0.7776489-0.0965118,1.1727295-0.1367493
			c1.1245117-0.1145935,2.263092-0.2110138,3.415741-0.2886658c0.0770874-0.0051727,0.1515198-0.0136719,0.2286682-0.0186768
			c1.2345886-0.0803375,2.4873352-0.1364899,3.754425-0.1734924c0.3872681-0.0113373,0.7837524-0.0101776,1.1740112-0.0172577
			c0.7497864-0.013855,1.5013428-0.0251312,2.2614136-0.0251312c0.1358948,0,0.2721863,0.0003662,0.4086609,0.0011292
			c0.4931641,0.0027618,0.9945984,0.016922,1.4924927,0.0260925c0.8150024,0.0151672,1.6327515,0.0339966,2.4606628,0.0668335
			c0.5390015,0.0212402,1.0839233,0.050827,1.6285095,0.0796661c0.807251,0.0429077,1.6192627,0.0924072,2.4388428,0.1519928
			c0.5630798,0.0410004,1.1292419,0.0862579,1.6981506,0.1352539c0.8240051,0.0710754,1.6553345,0.1523285,2.4916687,0.2403259
			c0.5740051,0.0604248,1.1479187,0.1209259,1.7277527,0.1894226c0.8665161,0.102417,1.7435913,0.2194977,2.6232605,0.3402557
			c0.5595703,0.076828,1.1157532,0.1490784,1.6806641,0.2333221c0.1332397,0.019928,0.2629089,0.0347595,0.3964844,0.0550842
			c0.9185181-3.6646576,2.0812683-7.8479156,3.4395142-11.809082c-1.5648804,0.8216248-3.5744629,1.1925354-6.2200623,1.1925354
			c-1.9680481,0-4.288147-0.2052917-7.0385132-0.5830383c-8.166687-1.1214905-20.4854126-8.648407-35.7575073-13.4417419
			c-6.9361572-2.177002-13.464386-2.7710419-18.5258484-2.7710419c-2.5041809,0-4.6495667,0.1454468-6.3072205,0.3165436
			l-3.7467651,0.5412445c0,0-6.6646118,0.8491669-15.0145874,0.8491669c-9.9837341,0-22.3757019-1.2149048-28.6505737-6.5479126
			c0,0-17.9966736-13.0721741,2.1029053-19.0113373c2.0536499-0.6068115,4.1423035-0.8795319,6.2666931-0.8794098
			c18.6677246,0.0010376,39.9885254,21.0703125,62.5577393,21.6516571l-0.0102539,0.0015106
			c10.0905151-1.2534485,20.8835449-2.3213196,28.3748779-2.3212128c2.7266235,0.0000458,5.0169373,0.141571,6.675293,0.4671173
			c11.7601624,2.3087616,17.0549011,7.8060913,18.2039185,13.2456665c2.1869507-4.5901794,4.6838379-7.8454437,7.3697815-7.8453827
			c0.2283936,0,0.458252,0.0235443,0.6893005,0.0718079c2.7929993,0.583252,3.9716492,4.4045868,4.2499084,9.4944153
			c2.6504211-1.8556366,8.6802063-5.3904266,16.1671753-5.390274c1.6230774,0.0000305,3.315094,0.1661987,5.055481,0.5516052
			c6.1914368,1.3710022,19.4816895,8.6709137,31.4219971,15.7549133l-0.0525818-0.0326538
			c6.7025452,2.7240753,14.1278687,3.4685364,21.6897888,3.4685364c9.1227417,0,18.4394531-1.0841064,26.9193726-1.0837708
			c8.9212646,0.0003662,16.9178467,1.2008514,22.776123,6.1260529c16.0422363,13.4875031-5.6821289,18.2639313-5.6821289,18.2639313
			c-1.6809082,0.5064392-3.5388184,0.72995-5.5148315,0.72995c-15.0454102,0-36.7811584-12.9844513-36.7811584-12.9844513
			l-3.1939087-1.9813385c-4.3739929-2.4767456-12.9355774-6.5341644-23.7626648-7.7042542
			c-7.1818848-0.7762299-14.0332336-0.8014984-20.1211853-0.8014984c-0.4256592,0-0.8474121,0.0001373-1.2654724,0.0001373
			c-6.8511963,0-12.6593018-0.0334473-16.7617493-1.1923065c-4.9436646-1.3964996-8.8068542-4.1409149-11.0172729-6.011322
			c-0.3125,4.4837494-0.9623108,9.1791534-1.6307373,13.2045746c86.478363,23.0879211,75.9395752,104.454834,66.1637573,153.440094
			c-0.0138245,0.0691528-0.0274353,0.1381531-0.0412598,0.2070007c-0.4723206,2.3628235-0.9413147,4.6480713-1.3983154,6.8486633
			c-0.0409241,0.1971741-0.0810852,0.3904114-0.1217651,0.5862427c-0.2114258,1.0160828-0.4208374,2.0203247-0.6249084,2.9977417
			c-0.1810913,0.8670959-0.4005127,1.7052612-0.6403503,2.5279236
			c-6.8318787,23.4274902-37.0354614,29.0305176-64.3639526,29.0305176c-3.1348267,0-6.2323303-0.073761-9.2518616-0.2027588
			c-12.1755066,64.3953247-154.1741028,80.5734863-154.1741028,80.5734863s-17.0213013,1.9059448-40.3772125,1.9059448
			c-33.134079,0-79.0080109-3.8392639-107.0395279-22.403595l-0.1297531,0.0284119
			c-13.3852463-8.8874207-22.6943283-21.1472473-24.5939102-37.9717407
			c-2.4191666-21.4273376-5.5080032-48.8024292-5.1713333-77.5450134c0.000412-0.0395813,0.0006638-0.079071,0.0011673-0.1186523
			c0.0164948-1.368927,0.0413284-2.7408447,0.0738297-4.115509c0.0022507-0.09552,0.0045853-0.190918,0.0069199-0.2864075
			c0.0334167-1.3675232,0.0744171-2.7372742,0.1247482-4.1093445c0.0020828-0.0571594,0.0045853-0.1144104,0.0066681-0.1716614
			c0.1039963-2.8033447,0.2440796-5.6147461,0.4238281-8.4307556c0.0042496-0.0660095,0.0080032-0.1318359,0.0122528-0.1977539
			c0.0867462-1.3454895,0.1838303-2.6917419,0.2891693-4.0386658c0.0116653-0.1494141,0.0232468-0.2988281,0.0351639-0.4482422
			c0.1053314-1.3204346,0.2195816-2.6411743,0.3436661-3.9620056c0.0137482-0.147583,0.0283356-0.295166,0.0424194-0.4426575
			c0.1289139-1.3493347,0.2660828-2.6986084,0.415329-4.0473328c0.0060883-0.0549316,0.0126648-0.1096802,0.018837-0.1645813
			c0.1527481-1.3722534,0.3160782-2.743927,0.4909134-4.1145935c0.006752-0.0537415,0.0131683-0.1075134,0.0200043-0.1611633
			c0.1703339-1.3289185,0.3531647-2.6565857,0.5449982-3.9830933c0.0250854-0.173584,0.0495834-0.3472595,0.0750809-0.5208435
			c0.1881714-1.2818909,0.387085-2.5624084,0.5961685-3.8412476c0.0324173-0.1980591,0.0653305-0.3959045,0.0982513-0.5939026
			c0.2131653-1.2830811,0.4356613-2.5644226,0.6707458-3.8434143c0.0286713-0.15625,0.0589218-0.3121643,0.0880051-0.4682617
			c0.4942474-2.6576538,1.0369949-5.3052368,1.6309967-7.9396667c0.0383377-0.1703186,0.0755005-0.3410034,0.114418-0.511322
			c0.2839127-1.2443542,0.5810013-2.4851685,0.8883362-3.7229919c0.0555801-0.2237549,0.1111603-0.4475098,0.1674957-0.6710205
			c0.3088379-1.2254028,0.6286697-2.4474792,0.9612503-3.6656494c0.0561676-0.2060242,0.1140823-0.411438,0.1709976-0.6173401
			c0.3464203-1.2519226,0.7025833-2.5007629,1.0749207-3.7440796c0.0319977-0.1069336,0.0657501-0.2131653,0.0979156-0.3200989
			c0.3674164-1.2184143,0.7479172-2.432312,1.1409988-3.6417389c0.0442505-0.1360016,0.0867538-0.2726746,0.1313324-0.4086761
			c0.3973389-1.2124939,0.8109207-2.4190826,1.2350006-3.6217499c0.0774994-0.2198334,0.154335-0.4399872,0.2328339-0.6595764
			c0.4185867-1.1716614,0.8506699-2.338089,1.2954178-3.4994202c0.0875015-0.2284088,0.1762466-0.4564209,0.2647476-0.684494
			c0.4550018-1.1719971,0.9212494-2.3393402,1.4038391-3.4998322c0.0727463-0.1749268,0.1478271-0.3487549,0.2212448-0.5233307
			c0.4925842-1.1728363,0.9970016-2.3405914,1.5185852-3.5007629c0.0285797-0.0636597,0.0558319-0.1278229,0.0845795-0.1914062
			c0.5325851-1.1804199,1.0848389-2.3520813,1.6481705-3.5185089c0.0950851-0.1966553,0.1883316-0.3940735,0.2842484-0.5904083
			c0.5446701-1.1149139,1.1056671-2.2223358,1.6792526-3.323761c0.1194153-0.2294159,0.2392502-0.4585724,0.3600006-0.6873322
			c0.5778351-1.0948334,1.1690826-2.1831665,1.7764969-3.2636566c0.1147537-0.2041779,0.2319183-0.4069214,0.3477478-0.6105804
			c0.6335068-1.113678,1.2788391-2.2215881,1.9447556-3.3190918c0.0631638-0.1040039,0.128746-0.2068329,0.1920776-0.3107452
			c0.6483383-1.0619965,1.3132553-2.1154175,1.9925842-3.1613312c0.0975876-0.1503448,0.192749-0.3018341,0.2910843-0.4518433
			c0.692749-1.0570831,1.4051666-2.1039124,2.1305847-3.1438293c0.1455002-0.2086639,0.2904205-0.4175873,0.4372482-0.6255035
			c0.718338-1.0171661,1.4530029-2.0255737,2.2036667-3.0253296c0.1551666-0.2067566,0.3121719-0.4124146,0.46875-0.6183319
			c0.7699203-1.0125885,1.553421-2.0176697,2.3574219-3.0114136c0.1204147-0.1488342,0.2440796-0.2959137,0.3653336-0.4442596
			c0.8074951-0.9888306,1.6299973-1.9692383,2.4721603-2.938324c0.067337-0.0774994,0.1324997-0.15625,0.2000885-0.2335815
			c0.8693314-0.9954987,1.7624969-1.9775085,2.6692505-2.951416c0.159584-0.1714172,0.3173294-0.34375,0.4780807-0.5145111
			c0.8808365-0.9354095,1.7812424-1.8592529,2.69767-2.7737427c0.1898346-0.1894226,0.3804169-0.3782501,0.5717468-0.5667572
			c0.9252472-0.9114075,1.8666687-1.8131561,2.8282471-2.7026672c0.1718292-0.1589966,0.346756-0.3159943,0.5197601-0.4742432
			c1.0078278-0.9217529,2.0301666-1.8345795,3.0782471-2.7317505c0.0716553-0.0613403,0.145752-0.1213379,0.2175751-0.1824951
			c1.0260925-0.8743439,2.0742493-1.7349243,3.1394196-2.5850067c0.1530914-0.1220856,0.3033295-0.2458344,0.4571686-0.3674927
			c1.0668335-0.8432617,2.1571655-1.6717529,3.2635803-2.4901733c0.2177582-0.1609955,0.4349976-0.3224182,0.6543427-0.4825897
			c1.098999-0.8021545,2.2170715-1.5919037,3.3552399-2.368988c0.2202454-0.1503448,0.4428406-0.2993317,0.6645813-0.4486694
			c1.1719208-0.7897491,2.3601685-1.5687561,3.5739288-2.3313293c0.1525726-0.0959167,0.3088226-0.1895142,0.4621582-0.2849274
			c1.2156677-0.7570801,2.4506683-1.5013275,3.7086639-2.2305756c0.1035919-0.0601654,0.204834-0.1219177,0.3087463-0.1817474
			c1.287674-0.7420044,2.6033478-1.4652557,3.9359283-2.1774292c0.2265015-0.1210785,0.4512482-0.2433319,0.6790771-0.3634949
			c1.2979126-0.6845856,2.6189117-1.3536682,3.959671-2.0094147c0.2598267-0.1270905,0.5208282-0.2533417,0.7822418-0.3793335
			c1.3567505-0.6538391,2.7328339-1.2945862,4.1337585-1.918335c0.2212524-0.0984955,0.4458313-0.1945801,0.6680756-0.29216
			c1.4739227-0.6480865,2.9659271-1.2835846,4.48909-1.8977509c0.0504913-0.02034,0.1023254-0.0397491,0.1529083-0.0600891
			c1.5075073-0.6060028,3.0440826-1.1919098,4.6005096-1.7639923c0.2105865-0.0774231,0.4184113-0.1568451,0.629837-0.2335968
			c1.5229034-0.5528259,3.0732422-1.0864868,4.6433258-1.6063232c0.2891693-0.0957489,0.5780029-0.1915894,0.8688354-0.2861633
			c1.5621643-0.5081787,3.1468353-1.0004272,4.7559204-1.4753418c0.2830811-0.0835876,0.5690765-0.1651611,0.8537445-0.2476654
			c1.6604156-0.4815063,3.3404999-0.9490051,5.0512543-1.394577c0.1679077-0.0436707,0.339325-0.0849152,0.5077515-0.1282501
			c1.7115021-0.440918,3.4477386-0.8641663,5.2101593-1.2684174c0.1481628-0.0340118,0.293335-0.0700073,0.4417572-0.1037598
			c1.7823334-0.4046631,3.5968323-0.7860718,5.4316559-1.1526642c0.3000031-0.0599976,0.5982513-0.1210785,0.8996735-0.1799927
			c1.7915039-0.350174,3.6096649-0.6807556,5.4515839-0.993927c0.0759125-0.0129089,0.1486664-0.0281677,0.2246704-0.0410004
			c-0.4307556-5.9115753-0.7523346-12.715744-0.6734161-19.28508c-3.3627625,3.4748383-9.4147491,5.5719147-19.4568329,7.418335
			c-2.3631592,0.4345245-5.0462799,0.6098785-8.013443,0.6098785c-12.4672089,0-29.9117584-3.0993347-49.3476868-3.0993347
			c-0.8357849,0-1.676712,0.0057373-2.5196228,0.0177002c-17.0472565,0.2420044-31.0004196,5.307251-38.2088394,8.536499
			l-5.31633,2.6456757c0,0-31.6442757,15.0923615-54.9624596,15.0923615c-4.7589188,0-9.174221-0.6293182-12.8994579-2.143692
			c0,0-33.2346649-10.6417542-6.2011662-29.3605804c7.3358498-5.0795441,16.2064362-6.7736969,26.000843-6.7731171
			c19.6394806,0.0011749,42.9728546,6.8153534,64.9932251,6.8153534c7.4669189,0,14.7880478-0.7845001,21.7577591-2.8838196
			l-0.0149994,0.0074921c19.6685944-9.3054047,41.4577484-18.7395782,51.3170013-19.9729919
			c2.9197235-0.3652954,5.6415558-0.5364838,8.1732178-0.5364761c13.6457062,0.0000763,21.7583771,4.9739685,25.4555359,11.3350601
			c1.0901642-8.5864182,3.4960022-15.01017,8.1914978-15.5403366c0.2017212-0.0227737,0.4011688-0.0339966,0.5995483-0.0339737
			c4.1760101,0.0004654,7.613266,4.9847183,10.3950348,12.0945587c3.6968384-4.947998,13.6289978-16.0574188,29.2470856-17.6305847
			c0.9672852-0.0974274,2.0623474-0.1437988,3.2727356-0.1437683c11.1607361,0.0002441,32.0379028,3.945076,51.2077637,8.1726074
			l-0.0183411-0.0043335c1.3693542,0.092865,2.7392273,0.1373825,4.1112366,0.1373825
			C355.1604614,114.2080307,388.2537537,89.2324295,415.5705261,89.2326126 M415.5705566,84.2326431
			c-0.0000916,0-0.0000916,0-0.0000916,0c-14.0241699-0.0001678-28.7374878,5.8439178-44.3147278,12.0309982
			c-16.0220947,6.3639221-32.5897522,12.9444199-48.5758362,12.9444199c-1.1465759,0-2.2922058-0.0345383-3.4108582-0.1026993
			c-24.7324524-5.4427261-42.1906738-8.2027206-51.88974-8.2029648c-1.3902588-0.0000839-2.6600037,0.0567474-3.7738342,0.1689148
			c-12.540741,1.2631989-21.785553,7.9450989-27.5113525,13.6128616c-2.4871063-4.0716705-6.2554626-8.101387-11.6291351-8.1020279
			c-0.3848419,0-0.7750854,0.0220032-1.1604156,0.0654984c-5.7484589,0.6490555-8.8282623,5.3966293-10.5274658,10.2499466
			c-4.7465363-3.3251419-11.8962402-6.076149-22.5592957-6.0761948c-2.7849884,0-5.7437439,0.1934967-8.7939911,0.5751648
			c-8.6965179,1.0879974-26.3476715,7.8975449-52.471283,20.2428741c-5.8780212,1.727478-12.4147186,2.5677795-19.96772,2.5677795
			c-10.942337,0-22.4486694-1.7769165-33.5760803-3.4952393c-11.0541687-1.7070923-21.4952545-3.3194962-31.4168358-3.3200836
			c-11.9641685-0.0007477-21.4002514,2.505661-28.8474998,7.662323c-9.394084,6.5047607-13.6330833,13.3219299-12.5993338,20.262085
			c1.7050629,11.446106,17.361948,17.0617371,19.9375267,17.9110718c4.0662918,1.6203156,8.980217,2.4418488,14.6088066,2.4418488
			c24.1715851,0,55.7810822-14.9432526,57.11483-15.5793304l0.0377502-0.0180054l0.0375061-0.0186615l5.2234421-2.5994415
			c6.5633774-2.930603,19.9068146-7.8290405,36.1450577-8.0595551c0.8192444-0.011673,1.6364136-0.0171661,2.4486694-0.0171661
			c10.558075,0,20.6512451,0.9475708,29.5562439,1.7836609c7.2061615,0.67659,14.0127563,1.3155823,19.7914124,1.3155823
			c3.4670868,0,6.3840942-0.2264099,8.9175873-0.6922455c5.6931915-1.0467987,10.1340027-2.1900635,13.6552582-3.562912
			c0.067276,2.0610962,0.1640625,4.1891937,0.2902222,6.3796082c-0.4566193,0.0861969-0.9084473,0.1729736-1.3548126,0.2602234
			l-0.6244202,0.1245728l-0.2966614,0.0596771c-2.0310822,0.4058228-3.8495026,0.791748-5.5580902,1.179657l-0.2841644,0.0664978
			l-0.1688232,0.0398407c-1.7769165,0.4075775-3.5735016,0.8449097-5.3392639,1.2998352l-0.1981659,0.0499115l-0.3206635,0.0811615
			c-1.6466675,0.4289246-3.3422546,0.8970032-5.1854095,1.4315033l-0.2613373,0.0755005l-0.6156616,0.1790009
			c-1.6224213,0.4788361-3.2667542,0.9889221-4.8867493,1.5159149l-0.8143463,0.2680054l-0.0794983,0.0263367
			c-1.7156677,0.5680847-3.2784882,1.1087494-4.7777405,1.6529999l-0.403595,0.1493225l-0.2454071,0.0912628
			c-1.7154999,0.6304932-3.2660828,1.2251587-4.7401733,1.817749l-0.1555023,0.0610809
			c-1.4543304,0.5864105-2.9694061,1.2268372-4.6341553,1.9588318l-0.243927,0.1063385l-0.4451599,0.1951599
			c-1.3808289,0.6148376-2.8176727,1.2815857-4.2708282,1.9818268c-0.27034,0.1303406-0.539917,0.2607574-0.8084259,0.3920135
			c-1.4138336,0.6914978-2.791748,1.3908234-4.0955048,2.0784912l-0.4707489,0.2514954l-0.2329102,0.125
			c-1.5050049,0.8043365-2.838089,1.5419159-4.0750885,2.2546692l-0.2242432,0.1317596l-0.099411,0.0586548
			c-1.2595062,0.7301788-2.5529175,1.5080872-3.8404999,2.3099213l-0.1706696,0.1049194l-0.3093414,0.1911621
			c-1.1823273,0.7428436-2.3952484,1.5339966-3.7071686,2.4180908l-0.1526642,0.1026611l-0.5364075,0.3625793
			c-1.1695862,0.798584-2.3417511,1.6261749-3.4843445,2.4601746l-0.5375824,0.3960876l-0.1414948,0.10466
			c-1.2307587,0.9103394-2.3398285,1.7566681-3.3914948,2.5879974l-0.2990875,0.2399139l-0.1750793,0.1410828
			c-1.1660004,0.9305115-2.2335052,1.8095093-3.2648468,2.6883392l-0.0571594,0.0477448l-0.1685791,0.1417542
			c-1.0024261,0.858078-2.0494995,1.7871704-3.2015839,2.8409119l-0.1867523,0.1699219l-0.3544159,0.3240051
			c-0.9586639,0.8868256-1.9484253,1.8325806-2.9412537,2.8105011c-0.1990814,0.1962433-0.3972473,0.3924866-0.5945816,0.5894165
			c-0.9801636,0.9781647-1.9242477,1.9489136-2.8061676,2.8854065l-0.3290863,0.3536682l-0.1684113,0.1815796
			c-1.0328369,1.1094208-1.940834,2.1135101-2.7757492,3.0695953l-0.151001,0.175827l-0.0574188,0.067337
			c-0.8441696,0.9713287-1.6850815,1.9707489-2.5705032,3.0549927l-0.1347427,0.1634979l-0.2449188,0.2984161
			c-0.7884979,0.9745941-1.5900879,1.9984283-2.4505005,3.1300049l-0.0861664,0.1133423l-0.4014206,0.5300751
			c-0.7777481,1.0357513-1.5480804,2.0932465-2.2889175,3.1422577l-0.3579102,0.5115814l-0.0965042,0.1384125
			c-0.8086624,1.1593323-1.5321655,2.2269135-2.2111664,3.2630768l-0.1943359,0.3010864l-0.1086655,0.1690063
			c-0.7162476,1.1027527-1.4117508,2.2061615-2.066246,3.2783356l-0.0687485,0.111084l-0.1292496,0.2094116
			c-0.6365051,1.048996-1.2960052,2.1744232-2.017334,3.4424133l-0.121254,0.2124176l-0.2391663,0.4206696
			c-0.6071625,1.0800018-1.2261658,2.2172546-1.8396683,3.3795776l-0.3732452,0.7125854
			c-0.6141663,1.1793365-1.1985855,2.3362579-1.7366714,3.4375916l-0.1855011,0.3846588l-0.107666,0.2241669
			c-0.6405792,1.3262482-1.1977463,2.5158386-1.7042465,3.638504l-0.0680847,0.1537476l-0.0203323,0.0461731
			c-0.5099182,1.1341553-1.0228348,2.3165741-1.5670853,3.6124115l-0.0834122,0.1968384l-0.1445007,0.3425751
			c-0.4725876,1.1363373-0.9462509,2.3172455-1.4483337,3.6103363l-0.0442505,0.11409l-0.2285843,0.5914154
			c-0.4606705,1.2028198-0.909668,2.4159088-1.3348312,3.6058197l-0.1728363,0.4890137l-0.0670013,0.1903229
			c-0.4709167,1.3355103-0.8865814,2.5547485-1.2708282,3.7271729l-0.0833359,0.2590027l-0.0512543,0.159668
			c-0.4049988,1.2459869-0.7995834,2.5055695-1.1734161,3.745163l-0.0370789,0.1210022l-0.0638351,0.2089844
			c-0.354332,1.1833496-0.715416,2.4411011-1.1037521,3.8443298l-0.0618286,0.2225952l-0.1141663,0.4129333
			c-0.3310013,1.2122498-0.6627502,2.4775696-0.9857559,3.7589722l-0.1715775,0.6875
			c-0.326088,1.3132629-0.6324158,2.5970154-0.9105835,3.8161926l-0.074585,0.332489l-0.0430832,0.1933289
			c-0.5983353,2.6535034-1.1599197,5.3872681-1.6687546,8.1232605l-0.0339127,0.1800842l-0.0562515,0.3000793
			c-0.2304993,1.2539062-0.4547501,2.5387573-0.6852493,3.926239l-0.1001663,0.605835
			c-0.2135849,1.306427-0.4166641,2.6137695-0.6088333,3.9225769l-0.0498352,0.3451843l-0.0268326,0.1867371
			c-0.1955795,1.3526001-0.3820801,2.7069092-0.5558319,4.0625l-0.0145035,0.1164246l-0.0070801,0.0574036
			c-0.1736679,1.3613586-0.3420868,2.7724304-0.4992523,4.1844177l-0.0059967,0.0525818l-0.0130844,0.1146851
			c-0.1520844,1.3740845-0.291832,2.7481689-0.4230804,4.1223145l-0.0152512,0.1584167l-0.0282516,0.295929
			c-0.1259155,1.340332-0.2422485,2.6845093-0.3494186,4.0282593l-0.0289154,0.3674927l-0.0069122,0.0890808
			c-0.1070862,1.3690796-0.2057571,2.7380066-0.2940063,4.1062622l-0.0073318,0.1180725l-0.0049133,0.0799866
			c-0.1790009,2.803772-0.3238373,5.6850281-0.4307556,8.5667725l-0.0027466,0.0715027l-0.0039978,0.1033936
			c-0.0510864,1.3912659-0.0926666,2.7814331-0.1265869,4.1692505l-0.0069962,0.2908325
			c-0.0330048,1.3935852-0.0581665,2.7848511-0.0749207,4.1730042l-0.0008316,0.0872498
			c-0.3408356,29.1011658,2.732666,56.3238525,5.2022476,78.1976013
			c1.9262543,17.0610046,10.9419174,31.0492249,26.7965851,41.5762329l1.765419,1.1721802l0.171257-0.0375061
			c29.1016083,18.2080383,74.6100006,22.0750732,107.9983215,22.0750732c23.366333,0,40.2273407-1.8579102,40.93367-1.9369812
			c1.4796753-0.1685791,36.4397583-4.2423401,73.5174255-16.3545837
			c21.9674988-7.176178,40.052063-15.7026062,53.7514038-25.3423462
			c16.1508179-11.3648071,26.3195496-24.3701782,30.2841492-38.7098389c1.801178,0.0446167,3.578949,0.0671082,5.3165894,0.0671082
			c16.6612549,0,30.6533508-2.030426,41.5875854-6.0349426c14.7245178-5.3924866,24.002594-14.3406677,27.576416-26.5958252
			c0.3034363-1.0406494,0.5436707-1.9909973,0.7346802-2.9054871l0.6256714-3.0014343l0.0447388-0.2155762l0.0775146-0.3731689
			c0.4593201-2.2116699,0.9308167-4.5090942,1.4056702-6.8845825l0.0244751-0.1229858l0.0166931-0.0835266
			c2.2420654-11.2347412,4.9535828-26.1635742,6.0326538-42.0353088c1.195343-17.5810242,0.1954041-32.8008423-3.0568237-46.5294342
			c-8.2851257-34.9737396-31.2979736-58.3246918-68.4283752-69.4619598
			c0.0440979-0.3119659,0.0870361-0.6220551,0.1287842-0.9298401c1.6781006,0.8349609,3.5331116,1.5857391,5.5458374,2.1543121
			c4.8877563,1.380661,11.3156738,1.380661,18.1210022,1.380661l0.6280823-0.0000763l0.6374207-0.0000916
			c5.5406494,0,12.4362488,0,19.5838928,0.772583c9.9551086,1.0757904,17.8700562,4.8484192,21.7520142,7.036499
			l3.1060791,1.9268341l0.0355835,0.0220795l0.0360107,0.0214996c0.9358215,0.5590973,23.1069031,13.6920013,39.3453064,13.6920013
			c2.4659424,0,4.7434692-0.2986908,6.7732544-0.888092c2.555603-0.5860443,13.0461426-3.4624481,15.0253296-11.5036469
			c1.2477417-5.0695953-1.2365723-10.2607574-7.3839722-15.4291687c-7.6940308-6.4686737-17.9329834-7.298584-25.9935303-7.2990112
			c-4.3128052-0.0001526-8.8672485,0.2724304-13.2716675,0.5360107c-4.5001221,0.2692413-9.1534729,0.5477448-13.6479797,0.5477448
			c-8.1356506,0-14.3391724-0.944519-19.4803772-2.9698181c-16.1605835-9.5711212-26.7933655-14.8395233-32.4978027-16.1026764
			c-2.0070801-0.4445038-4.0716553-0.6698303-6.1364746-0.6698303c-4.8162231-0.0000916-9.0851746,1.1974945-12.5093994,2.6662292
			c-1.3426208-3.7543488-3.6448669-5.9880524-6.8856201-6.6648254c-0.5638123-0.1177368-1.1395874-0.1774139-1.7113342-0.1774139
			c-2.8658752,0-5.2050781,1.4344177-7.0467224,3.2915039c-3.8797607-4.0981903-9.9020386-7.0939331-17.5637817-8.5980835
			c-1.921814-0.3773346-4.4204102-0.5607452-7.6384888-0.5607452c-6.5628662-0.0001678-16.1824036,0.7771149-28.5939026,2.3101196
			c-10.4265442-0.3840637-21.0482178-5.8004761-31.3248596-11.0405426
			c-7.1221619-3.6315613-13.9815063-7.1290436-20.7864685-9.0597382c1.5400085-0.3730774,3.096283-0.729599,4.6687317-1.065834
			c6.0484924-1.2934189,12.3826599-1.9491653,18.8266602-1.9491653c7.725769,0,14.1476135,0.9449539,18.2042236,1.7464447
			l5.6728821,1.3697052l0.0406494,0.0098419l0.0409241,0.0091705c0.8006592,0.1791534,19.8323975,4.3880768,39.2834167,4.3880768
			c14.9909363,0,26.2815857-2.5476685,33.5635376-7.5728683c2.3200073-1.4014053,16.332489-10.3668671,15.4424438-21.9057083
			c-0.5396423-6.9960022-6.1918945-12.6963348-16.7998047-16.9428329
			c-4.7515259-1.9020844-9.7900085-2.8267517-15.4034424-2.8267517H415.5705566L415.5705566,84.2326431z M256.1248779,143.8143921
			c0.6399231,0,1.2863464-0.0138397,1.9211121-0.0410919c6.5529175-0.2820282,14.4619141-2.6353912,23.5138855-5.5853271
			c-0.1592712,0.4897461-0.2834473,0.9932404-0.3725586,1.5110779c-0.9240417,5.368576,2.4215088,10.1630249,5.4192505,13.2597351
			c-9.9949646-1.743988-20.5133667-2.6191711-31.5401764-2.6195679c-2.7287292-0.0001068-5.5166779,0.0537109-8.3304901,0.1604767
			c-0.4701233-2.7576141-0.9633331-5.4027863-1.4777679-7.926239
			C248.5136108,143.3045502,252.1936035,143.8143921,256.1248779,143.8143921L256.1248779,143.8143921z M341.4678955,162.4424133
			c1.8348999-0.185791,3.7502136-0.2799377,5.6947327-0.2799377c5.9260864,0,11.6553345,0.855072,17.0285034,2.5415802
			c6.8759155,2.1580048,13.2321777,4.9352417,18.8401794,7.3855743c6.8123169,2.9765015,12.6956787,5.5471802,17.7344055,6.23909
			c0.2752075,0.037796,0.5452576,0.0738373,0.8102722,0.1080933c-0.1889343-0.0146027-0.3775635-0.0287781-0.5658569-0.042511
			c-0.8527527-0.0619965-1.6970825-0.1134949-2.536499-0.1580811l-0.137146-0.0073395
			c-0.5218506-0.0276642-1.0434265-0.0551605-1.5597534-0.0755005c-0.8621826-0.0342407-1.7148438-0.0540771-2.5646667-0.0699158
			l-0.4416809-0.0089874c-0.3734131-0.0080109-0.7468262-0.0157623-1.1159058-0.0178375l-0.4365845-0.0012512
			c-0.7910767,0-1.5733337,0.0115814-2.3536682,0.026001l-0.4236755,0.005249
			c-0.2694092,0.0025787-0.5387573,0.0054932-0.8043213,0.0133362c-1.3687439,0.039917-2.6920776,0.1011658-3.9328308,0.1819153
			c-0.0796814,0.0051575-0.1592712,0.0117493-0.2388306,0.0189056c-1.1996765,0.0812531-2.4063416,0.1831818-3.5877686,0.3035889
			c-0.2781677,0.0283356-0.5525818,0.0614166-0.8269043,0.0948334l-0.4066772,0.0485077
			c-0.8421631,0.0962372-1.6816711,0.1956635-2.508667,0.3111572c-0.3580017,0.0500946-0.7109985,0.1052551-1.0639038,0.160675
			l-0.3422546,0.0534058c-0.7562561,0.1169281-1.5097656,0.2380066-2.2535706,0.3710022
			c-0.4829407,0.0864258-0.9605103,0.1790009-1.4377747,0.2719269c-0.7201538,0.1402435-1.4348145,0.2868347-2.1428223,0.4420776
			c-0.4736633,0.1038361-0.9454041,0.210495-1.414093,0.3209991c-0.7070007,0.1668396-1.4055786,0.3424225-2.099823,0.5235901
			l-0.1682434,0.0439148c-0.3947449,0.1029968-0.7894287,0.2061615-1.1797485,0.3145752
			c-0.7175903,0.1993408-1.4249268,0.4105835-2.1295166,0.6254272l-0.3507385,0.1059113
			c-0.2891846,0.0868378-0.5782471,0.173996-0.8635864,0.2655029c-0.8675842,0.278244-1.6839294,0.5626678-2.3680725,0.8040771
			l-0.2911682,0.1000824c-0.1975098,0.0670929-0.3948364,0.1345825-0.5890808,0.2055054
			c-1.0938416,0.3990784-2.1639404,0.8131714-3.1792603,1.2302399c-0.0942383,0.0387573-0.1845093,0.0780029-0.2745972,0.1176758
			l-0.0541687,0.0237427c-0.04776,0.0198669-0.095459,0.0397491-0.1431274,0.0596466
			c-9.76474-8.7007599-20.6167297-15.7825775-32.5095215-21.2296143c8.4813843-0.0121002,15.1782227-0.8530426,15.4611511-0.8891144
			l0.0415039-0.0053253l0.0413513-0.0059204L341.4678955,162.4424133L341.4678955,162.4424133z M407.554718,179.0292511
			c-0.1346436-0.0164948-0.2689819-0.0326843-0.4031677-0.0485229c-0.223999-0.0264893-0.447113-0.0518188-0.6696777-0.0764313
			c0.3754578,0.0193787,0.7401428,0.0334473,1.0957031,0.0423584
			C407.5699158,178.9742889,407.5623779,179.0015717,407.554718,179.0292511L407.554718,179.0292511z"/>
	</g>
</g>
</svg>
