<?xml version="1.0" encoding="utf-8"?>
<!-- Generator: Adobe Illustrator 22.1.0, SVG Export Plug-In . SVG Version: 6.00 Build 0)  -->
<svg version="1.1" xmlns="http://www.w3.org/2000/svg" xmlns:xlink="http://www.w3.org/1999/xlink" x="0px" y="0px"
	 viewBox="0 0 566.9299927 566.9299927" style="enable-background:new 0 0 566.9299927 566.9299927;" xml:space="preserve">
<style type="text/css">
	.st0{display:none;}
	.st1{fill:transparent;}
	.st2{fill:url(#SVGID_1_);}
	.st3{fill:#E0B917;}
	.st4{fill:#FFD815;}
	.st5{fill:url(#SVGID_2_);}
	.st6{fill:url(#SVGID_3_);}
	.st7{fill:url(#SVGID_4_);}
	.st8{fill:url(#SVGID_5_);}
	.st9{fill:url(#SVGID_6_);}
</style>
<g id="Laag_2" class="st0">
</g>
<g id="Laag_1">
	<ellipse class="st1" cx="97.223732" cy="278.1149292" rx="61.356823" ry="83.4121094"/>

		<radialGradient id="SVGID_1_" cx="97.2236938" cy="278.1149292" r="99.875885" gradientTransform="matrix(6.123234e-17 1 -0.8 4.898587e-17 319.7156372 180.8912354)" gradientUnits="userSpaceOnUse">
		<stop  offset="0" style="stop-color:#FFD815"/>
		<stop  offset="0.7861578" style="stop-color:#FFD815"/>
		<stop  offset="0.8639884" style="stop-color:#FDD615"/>
		<stop  offset="0.9323193" style="stop-color:#F5D016"/>
		<stop  offset="0.9970257" style="stop-color:#E6C416"/>
		<stop  offset="1" style="stop-color:#E6C416"/>
	</radialGradient>
	<path class="st2" d="M97.2236938,166.6651001c-47.9226036,0-86.7716599,49.8977509-86.7716599,111.4498291
		c0,61.552002,38.8490524,111.4498291,86.7716599,111.4498291c47.922699,0,86.7716675-49.8978271,86.7716675-111.4498291
		C183.9953613,216.562851,145.1463928,166.6651001,97.2236938,166.6651001z M97.2236938,361.5270386
		c-33.8864403,0-61.3568039-37.3449097-61.3568039-83.4121094c0-46.0672913,27.4703636-83.4121094,61.3568039-83.4121094
		s61.3568878,37.3448181,61.3568878,83.4121094C158.5805817,324.1821289,131.1101379,361.5270386,97.2236938,361.5270386z"/>
	<path class="st3" d="M97.2236938,194.7028198c-33.8864403,0-61.3568039,37.3448181-61.3568039,83.4121094
		c0,46.0671997,27.4703636,83.4121094,61.3568039,83.4121094s61.3568878-37.3449097,61.3568878-83.4121094
		C158.5805817,232.0476379,131.1101379,194.7028198,97.2236938,194.7028198z M147.2399139,317.3757019
		c-18.3388062,28.7466736-50.0161362,28.4729919-50.0161362,28.4729919s-31.6774139,0.2736816-50.0162201-28.4729919
		s8.9563599-39.1367798,17.3185806-39.1367798v-0.114563c-8.3622208,0-35.6573868-10.3900757-17.3185806-39.1367493
		s50.0162201-28.4729919,50.0162201-28.4729919s31.67733-0.2736816,50.0161362,28.4729919
		c18.3388977,28.7466736-8.9562683,39.1367493-17.318573,39.1367493v0.114563
		C138.2836456,278.2389221,165.5788116,288.6290283,147.2399139,317.3757019z"/>
	<polygon class="st4" points="451.7367249,345.401947 451.7367249,385.3845215 472.4595337,385.3845215 472.4595337,361.7984619
		498.1366882,361.7984619 498.1366882,385.3845215 525.2712402,385.3845215 525.2712402,322.5612183 419.6477966,322.5612183
		419.6477966,344.9447021 419.6477966,385.3845215 433.5299072,385.3845215 433.5299072,345.5046387 	"/>
	<path class="st4" d="M413.2117615,294.0857239c-2.6158752,3.2477112,0,16.6807556,0,16.6807556h118.4955139
		c0,0,3.0143433-14.0211487,0-17.0267029C510.7294006,272.8230591,431.7943726,271.014801,413.2117615,294.0857239z"/>

		<linearGradient id="SVGID_2_" gradientUnits="userSpaceOnUse" x1="472.4595337" y1="322.5612183" x2="472.4595337" y2="310.7664795">
		<stop  offset="0" style="stop-color:#FFD815"/>
		<stop  offset="0.2914363" style="stop-color:#F5D016"/>
		<stop  offset="1" style="stop-color:#DEBD15"/>
	</linearGradient>
	<path class="st5" d="M472.4595337,310.7664795h-59.2477722c0,0,6.4360352,2.9597778,6.4360352,11.7947388h52.8117371h52.8117065
		c0-8.8349609,6.4360352-11.7947388,6.4360352-11.7947388H472.4595337z"/>

		<linearGradient id="SVGID_3_" gradientUnits="userSpaceOnUse" x1="369.0209351" y1="251.8428192" x2="369.0209351" y2="304.5205078">
		<stop  offset="0" style="stop-color:#FFD815"/>
		<stop  offset="0.5575922" style="stop-color:#FFD815"/>
		<stop  offset="0.6250824" style="stop-color:#F4CF16"/>
		<stop  offset="0.7262198" style="stop-color:#E7C516"/>
		<stop  offset="0.8414032" style="stop-color:#E0BF15"/>
		<stop  offset="1" style="stop-color:#DEBD15"/>
	</linearGradient>
	<path class="st6" d="M181.5639496,251.8428192l367.3414917,6.9246674c0,0,7.5725098-0.7368774,7.5725098,19.4141846
		s-7.5725098,19.4141846-7.5725098,19.4141846l-367.3414917,6.9246521V251.8428192z"/>

		<linearGradient id="SVGID_4_" gradientUnits="userSpaceOnUse" x1="385.1331787" y1="249.5479889" x2="385.1331787" y2="306.7486267">
		<stop  offset="0" style="stop-color:#FFD818"/>
		<stop  offset="0.4227564" style="stop-color:#FFD815"/>
		<stop  offset="0.5108162" style="stop-color:#F4CF16"/>
		<stop  offset="0.6427778" style="stop-color:#E7C516"/>
		<stop  offset="0.7930666" style="stop-color:#E0BF15"/>
		<stop  offset="1" style="stop-color:#DEBD15"/>
	</linearGradient>
	<path class="st7" d="M348.2323608,278.1149292v23.1970215l64.9794006,5.4363098c0,0,8.8222351,0.4347534,8.8222351-28.6333313
		v0.0667419c0-29.0680847-8.8222351-28.633316-8.8222351-28.633316l-64.9794006,5.4362946v23.1970215V278.1149292z"/>

		<radialGradient id="SVGID_5_" cx="341.6303406" cy="278.1816711" r="20.7809944" gradientTransform="matrix(6.123234e-17 1 -0.4 2.449294e-17 452.9030151 -63.4486694)" gradientUnits="userSpaceOnUse">
		<stop  offset="0" style="stop-color:#FFD815"/>
		<stop  offset="0.4609909" style="stop-color:#FDD715"/>
		<stop  offset="0.7328923" style="stop-color:#F6D116"/>
		<stop  offset="0.9553902" style="stop-color:#E9C718"/>
		<stop  offset="1" style="stop-color:#E6C518"/>
	</radialGradient>
	<path class="st8" d="M335.0595703,278.164978c0-17.6998901-2.4598694-23.4750214-2.4598694-23.4750214
		s2.0743103-4.2405548,7.1395264-4.2405548s8.4931335,4.5352478,8.4931335,4.5352478s3.1253052,3.7828369,3.1253052,23.1469727
		c0,20.1343689-3.1253052,23.1803284-3.1253052,23.1803284s-2.917511,4.6019897-8.8457336,4.6019897
		c-5.9282532,0-7.4836121-4.227417-7.4836121-4.227417S335.0595703,295.5252075,335.0595703,278.164978z"/>

		<radialGradient id="SVGID_6_" cx="200.7582855" cy="278.1149292" r="22.8420925" gradientTransform="matrix(6.123234e-17 1 -0.4 2.449294e-17 312.0042725 77.3566437)" gradientUnits="userSpaceOnUse">
		<stop  offset="0" style="stop-color:#FFD815"/>
		<stop  offset="0.4609909" style="stop-color:#FDD715"/>
		<stop  offset="0.7328923" style="stop-color:#F6D116"/>
		<stop  offset="0.9553902" style="stop-color:#E9C718"/>
		<stop  offset="1" style="stop-color:#E6C518"/>
	</radialGradient>
	<path class="st9" d="M190.1702423,278.0982361c0-17.6998596,3.3360443-26.0302887,3.3360443-26.0302887
		s3.2455139-4.4721222,8.31073-4.4721222c5.0652008,0,9.5293121,4.7358704,9.5293121,4.7358704
		s-2.091156,6.3690491-2.091156,25.7331848c0,20.1343689,2.091156,25.9551697,2.091156,25.9551697
		s-3.9537048,4.6139832-9.8819427,4.6139832s-7.909317-4.3386536-7.909317-4.3386536
		S190.1702423,295.4584656,190.1702423,278.0982361z"/>
	<g>
		<path d="M97.223732,166.6651001c40.8989944,0,75.1675034,36.3539886,84.3401718,85.2683258v-0.0906677l11.9424133,0.225174
			c0,0,3.2454987-4.472168,8.3106689-4.472168c5.0652466,0,9.5293274,4.7359161,9.5293274,4.7359161
			s-0.0084229,0.0262451-0.022171,0.0720825l121.2754974,2.2861633c0,0,2.0744019-4.2405853,7.1395874-4.2405853
			c5.065155,0,8.4930725,4.5352478,8.4930725,4.5352478h0.0000916l64.9793396-5.4363251
			c0,0,0.0072937-0.0003662,0.0215454-0.0003662c0.2942505,0.0000153,3.5353088,0.1530609,5.9995117,6.7751312l129.6727295,2.444397
			c0,0,0.0350952-0.003418,0.100708-0.003418c0.8965454,0,7.4717407,0.6404114,7.4717407,19.4176025
			c0,18.7784729-6.5759277,19.4176636-7.4717407,19.4176636c-0.0654907,0-0.100708-0.003418-0.100708-0.003418
			l-15.9120483,0.2999878c0.3589478,5.2101746-1.2861938,12.8706665-1.2861938,12.8706665
			s-6.4360352,2.9597473-6.4360352,11.7946777v62.8233337h-27.1345215v-23.5860901h-25.6771545v23.5860901h-20.7229309v-39.982605
			l-18.2067566,0.1026917v39.8799133h-13.8820801v-40.4397583v-22.3835754c0-8.8349304-6.4360657-11.7946777-6.4360657-11.7946777
			s-0.3328552-1.7236633-0.6425171-4.071991l-63.6855774-5.3280945l-0.6967468,0.013092
			c-0.3768311,0.5526733-3.2829285,4.5344238-8.8002625,4.5344238c-5.928009,0-7.4833984-4.2271729-7.4835815-4.2275085
			l-120.5769806,2.2730103c0.0126648,0.0390625,0.0202484,0.0605774,0.0202484,0.0605774s-3.9536591,4.6139832-9.8819122,4.6139832
			s-7.9093323-4.3386536-7.9093323-4.3386536l-0.0003357-0.0009155l-11.9908295,0.2260742v-0.2241516
			c-9.1726685,48.9142456-43.4411774,85.2684021-84.3401718,85.2684021c-47.9226723,0-86.7716675-49.8978271-86.7716675-111.4498291
			C10.4520617,216.562851,49.3010597,166.6651001,97.223732,166.6651001 M97.223732,161.6651001
			c-24.7535019,0-47.9449196,12.2776642-65.3020859,34.5712433C14.852478,218.1600189,5.4520621,247.2384338,5.4520621,278.1149292
			s9.4004154,59.954834,26.4695816,81.8785706c17.3571682,22.2936096,40.548584,34.5712585,65.3020859,34.5712585
			c20.9489136,0,41.421669-9.1627502,57.6470871-25.8005066c14.8246307-15.2012634,25.6516571-36.137207,30.7468262-59.3193054
			l5.4785156-0.103302c2.0186615,2.1219482,5.3933868,4.2923584,10.3682404,4.2923584
			c5.6125031,0,9.8095245-2.8119812,12.0064087-4.7141418l115.8311615-2.1835327
			c1.9726257,2.168396,5.2418213,4.1776123,10.0846558,4.1776123c5.2388916,0,8.8573608-2.4311829,10.9344788-4.40979
			l57.9133606,4.8451538c0.0397339,0.21875,0.0642395,0.3461609,0.0679016,0.3652039l0.5149231,2.6664124l2.2618408,0.9107056
			c0.5622253,0.3103638,3.5686646,2.2079773,3.5686646,7.2695618v22.3835754v40.4397583v5h5h13.8820801h5v-5v-34.9080505
			l8.2067566-0.0462646v34.9543152v5h5h20.7229309h5v-5v-18.5860901h15.6771545v18.5860901v5h5h27.1345215h5v-5v-62.8233337
			c0-5.4777527,3.4898682-7.2357483,3.5250854-7.2520142l2.2739258-1.0457458l0.5255127-2.4470825
			c0.1304932-0.6077271,0.9763184-4.6565552,1.3118896-9.0122986l10.9439697-0.2063293
			c0.0477295,0.0009766,0.0993042,0.0015564,0.154541,0.0015564c2.9257202,0,12.4718018-1.7608337,12.4718018-24.4176636
			c0-22.6567688-9.5459595-24.4176025-12.4717407-24.4176025c-0.0552979,0-0.1069336,0.0005798-0.1547241,0.0015411
			l-126.3691101-2.3821411c-3.40625-6.2864227-7.828949-6.8354797-9.2490845-6.8354797h-0.1135864l-0.1350098,0.0055084
			l-0.0950928,0.0043335l-0.0947266,0.0079041l-62.6027222,5.2375031
			c-2.1019592-1.9072266-5.7207642-4.3538361-10.4529419-4.3538361c-4.4028625,0-7.6115112,2.055542-9.6141357,4.1930847
			l-116.7024384-2.1999664c-2.2218323-1.8830719-6.5257111-4.8466949-11.6056671-4.8466949
			c-4.8382874,0-8.4246979,2.5075226-10.4636841,4.4307098l-5.7062531-0.1075897
			c-5.0826874-23.2359161-15.9228058-44.2225647-30.7762299-59.4533691
			C138.645401,170.8278503,118.1726456,161.6651001,97.223732,161.6651001L97.223732,161.6651001z"/>
	</g>
	<g>
		<path d="M97.2566376,210.5144958l-0.0001144,5c1.1873245,0.0000305,29.2682343,0.298111,45.7681198,26.1622314
			c5.5824585,8.7506561,6.8670502,16.0075684,3.8180847,21.5691833c-3.8571777,7.0359497-13.5353546,9.878418-16.9214172,9.878418
			c-2.7614059,0-4.9999924,2.2385864-4.9999924,5v0.114563c0,2.7614136,2.2385864,5,4.9999924,5
			c3.3860626,0,13.064209,2.8424988,16.9214172,9.8784485c3.0489655,5.561615,1.7643738,12.818573-3.8180847,21.5692139
			c-16.5003586,25.8648376-44.5807114,26.1622314-45.7610931,26.1622925c-0.0079575-0.000061-0.0277557-0.000061-0.0451813-0.000061
			c-0.0116196,0-0.0221863,0-0.0274963,0c-1.187294,0-29.2676773-0.2973938-45.7679977-26.1622314
			c-5.5824432-8.7506409-6.8670311-16.0075989-3.818058-21.5692139c3.8572044-7.0359497,13.5352936-9.8784485,16.9212914-9.8784485
			c2.7614136,0,5-2.2385864,5-5v-0.114563c0-2.7614136-2.2385864-5-5-5c-3.3860283,0-13.0640869-2.8424683-16.9212914-9.878418
			c-3.0489731-5.561615-1.7643852-12.8185272,3.818058-21.5691833
			c16.5003204-25.8648529,44.5807037-26.1622314,45.7610855-26.1622925
			c0.0099182,0.0000763,0.0233765,0.0001068,0.0365753,0.0001068c0.0113983,0,0.0226059-0.0000153,0.0311584-0.0000458
			L97.2566376,210.5144958 M97.2566376,210.5144806c-0.0219421,0-0.0328827,0.0001068-0.0328827,0.0001068
			s-0.0110779-0.0001068-0.0328827-0.0001068c-1.145752,0-31.9870071,0.2633209-49.9832916,28.4731293
			c-18.3387947,28.7466431,8.9563522,39.1367188,17.3185272,39.1367188v0.114563
			c-8.362175,0-35.6573219,10.3901367-17.3185272,39.1367798c17.995163,28.2080688,48.8339157,28.473114,49.9832916,28.473114
			c0.0219498,0,0.0328827-0.0000916,0.0328827-0.0000916s0.0110779,0.0000916,0.0328827,0.0000916
			c1.145752,0,31.9869843-0.2633057,49.9832916-28.473114c18.3388519-28.7466431-8.9562836-39.1367798-17.3186188-39.1367798
			v-0.114563c8.3623352,0,35.6574707-10.3900757,17.3186188-39.1367188
			C129.2447357,210.7795563,98.4060135,210.5145111,97.2566376,210.5144806L97.2566376,210.5144806z"/>
	</g>
</g>
</svg>
