<svg xmlns="http://www.w3.org/2000/svg" viewBox="0 0 566.93 566.93"><style>.st4{fill:#ffd815}</style><g id="Laag_1"><ellipse cx="97.224" cy="278.115" rx="61.357" ry="83.412" fill="transparent"/><radialGradient id="SVGID_1_" cx="97.224" cy="278.115" r="99.876" gradientTransform="matrix(0 1 -.8 0 319.716 180.891)" gradientUnits="userSpaceOnUse"><stop offset="0" stop-color="#ffd815"/><stop offset=".786" stop-color="#ffd815"/><stop offset=".864" stop-color="#fdd615"/><stop offset=".932" stop-color="#f5d016"/><stop offset=".997" stop-color="#e6c416"/><stop offset="1" stop-color="#e6c416"/></radialGradient><path d="M97.224 166.665c-47.923 0-86.772 49.898-86.772 111.45s38.85 111.45 86.772 111.45c47.922 0 86.771-49.898 86.771-111.45s-38.849-111.45-86.771-111.45zm0 194.862c-33.887 0-61.357-37.345-61.357-83.412 0-46.067 27.47-83.412 61.357-83.412s61.357 37.345 61.357 83.412c0 46.067-27.47 83.412-61.357 83.412z" fill="url(#SVGID_1_)"/><path d="M97.224 194.703c-33.887 0-61.357 37.345-61.357 83.412 0 46.067 27.47 83.412 61.357 83.412s61.357-37.345 61.357-83.412c0-46.067-27.47-83.412-61.357-83.412zm50.016 122.673c-18.339 28.746-50.016 28.473-50.016 28.473s-31.678.273-50.016-28.473 8.956-39.137 17.318-39.137v-.115c-8.362 0-35.657-10.39-17.318-39.136s50.016-28.473 50.016-28.473 31.677-.274 50.016 28.473c18.339 28.746-8.956 39.136-17.319 39.136v.115c8.363 0 35.658 10.39 17.319 39.137z" fill="#e0b917"/><path class="st4" d="M451.737 345.402v39.983h20.723v-23.587h25.677v23.587h27.134V322.56H419.648v62.824h13.882v-39.88zM413.212 294.086c-2.616 3.247 0 16.68 0 16.68h118.495s3.015-14.02 0-17.026c-20.978-20.917-99.913-22.725-118.495.346z"/><linearGradient id="SVGID_2_" gradientUnits="userSpaceOnUse" x1="472.46" y1="322.561" x2="472.46" y2="310.766"><stop offset="0" stop-color="#ffd815"/><stop offset=".291" stop-color="#f5d016"/><stop offset="1" stop-color="#debd15"/></linearGradient><path d="M472.46 310.766h-59.248s6.436 2.96 6.436 11.795H525.27c0-8.835 6.436-11.795 6.436-11.795H472.46z" fill="url(#SVGID_2_)"/><linearGradient id="SVGID_3_" gradientUnits="userSpaceOnUse" x1="369.021" y1="251.843" x2="369.021" y2="304.521"><stop offset="0" stop-color="#ffd815"/><stop offset=".558" stop-color="#ffd815"/><stop offset=".625" stop-color="#f4cf16"/><stop offset=".726" stop-color="#e7c516"/><stop offset=".841" stop-color="#e0bf15"/><stop offset="1" stop-color="#debd15"/></linearGradient><path d="M181.564 251.843l367.341 6.924s7.573-.736 7.573 19.415-7.573 19.414-7.573 19.414l-367.341 6.925v-52.678z" fill="url(#SVGID_3_)"/><linearGradient id="SVGID_4_" gradientUnits="userSpaceOnUse" x1="385.133" y1="249.548" x2="385.133" y2="306.749"><stop offset="0" stop-color="#ffd818"/><stop offset=".423" stop-color="#ffd815"/><stop offset=".511" stop-color="#f4cf16"/><stop offset=".643" stop-color="#e7c516"/><stop offset=".793" stop-color="#e0bf15"/><stop offset="1" stop-color="#debd15"/></linearGradient><path d="M348.232 278.115v23.197l64.98 5.436s8.822.435 8.822-28.633v.067c0-29.068-8.822-28.634-8.822-28.634l-64.98 5.437v23.197-.067z" fill="url(#SVGID_4_)"/><radialGradient id="SVGID_5_" cx="341.63" cy="278.182" r="20.781" gradientTransform="matrix(0 1 -.4 0 452.903 -63.449)" gradientUnits="userSpaceOnUse"><stop offset="0" stop-color="#ffd815"/><stop offset=".461" stop-color="#fdd715"/><stop offset=".733" stop-color="#f6d116"/><stop offset=".955" stop-color="#e9c718"/><stop offset="1" stop-color="#e6c518"/></radialGradient><path d="M335.06 278.165c0-17.7-2.46-23.475-2.46-23.475s2.074-4.24 7.14-4.24 8.492 4.535 8.492 4.535 3.126 3.782 3.126 23.147c0 20.134-3.126 23.18-3.126 23.18s-2.917 4.602-8.845 4.602c-5.929 0-7.484-4.227-7.484-4.227s3.157-6.162 3.157-23.522z" fill="url(#SVGID_5_)"/><radialGradient id="SVGID_6_" cx="200.758" cy="278.115" r="22.842" gradientTransform="matrix(0 1 -.4 0 312.004 77.357)" gradientUnits="userSpaceOnUse"><stop offset="0" stop-color="#ffd815"/><stop offset=".461" stop-color="#fdd715"/><stop offset=".733" stop-color="#f6d116"/><stop offset=".955" stop-color="#e9c718"/><stop offset="1" stop-color="#e6c518"/></radialGradient><path d="M190.17 278.098c0-17.7 3.336-26.03 3.336-26.03s3.246-4.472 8.311-4.472c5.065 0 9.53 4.736 9.53 4.736s-2.092 6.369-2.092 25.733c0 20.134 2.091 25.955 2.091 25.955s-3.953 4.614-9.882 4.614-7.909-4.339-7.909-4.339-3.385-8.837-3.385-26.197z" fill="url(#SVGID_6_)"/><path d="M97.224 166.665c40.899 0 75.167 36.354 84.34 85.268v-.09l11.942.225s3.246-4.472 8.311-4.472c5.065 0 9.53 4.736 9.53 4.736l-.023.072L332.6 254.69s2.074-4.24 7.14-4.24c5.064 0 8.492 4.535 8.492 4.535l64.98-5.437h.021c.295 0 3.536.153 6 6.775l129.673 2.444s.035-.003.1-.003c.897 0 7.472.64 7.472 19.418s-6.576 19.417-7.472 19.417c-.065 0-.1-.003-.1-.003l-15.913.3c.36 5.21-1.286 12.87-1.286 12.87s-6.436 2.96-6.436 11.795v62.824h-27.134v-23.587H472.46v23.587h-20.723v-39.983l-18.207.103v39.88h-13.882V322.56c0-8.835-6.436-11.794-6.436-11.794s-.333-1.724-.643-4.072l-63.685-5.329-.697.014c-.377.552-3.283 4.534-8.8 4.534-5.928 0-7.484-4.227-7.484-4.228l-120.577 2.273.02.061s-3.953 4.614-9.882 4.614-7.909-4.339-7.909-4.339l-11.991.226v-.225c-9.173 48.915-43.441 85.269-84.34 85.269-47.923 0-86.772-49.898-86.772-111.45s38.85-111.45 86.772-111.45m0-5c-24.754 0-47.945 12.278-65.302 34.571-17.07 21.924-26.47 51.002-26.47 81.879s9.4 59.955 26.47 81.878c17.357 22.294 40.548 34.572 65.302 34.572 20.949 0 41.421-9.163 57.647-25.8 14.824-15.202 25.651-36.138 30.747-59.32l5.478-.103c2.019 2.122 5.394 4.292 10.368 4.292 5.613 0 9.81-2.812 12.007-4.714l115.831-2.184c1.973 2.169 5.242 4.178 10.085 4.178 5.239 0 8.857-2.431 10.934-4.41l57.913 4.845.068.366.515 2.666 2.262.91c.562.311 3.569 2.209 3.569 7.27v67.824H438.53v-39.909l8.207-.046v39.955h30.723v-23.587h15.677v23.587h37.134V322.56c0-5.478 3.49-7.236 3.525-7.252l2.274-1.046.526-2.447c.13-.607.976-4.656 1.312-9.012l10.944-.206.154.001c2.926 0 12.472-1.76 12.472-24.417s-9.546-24.418-12.472-24.418c-.055 0-.107 0-.155.002l-126.369-2.383c-3.406-6.286-7.829-6.835-9.249-6.835h-.113l-.135.005-.095.005-.095.008-62.603 5.237c-2.102-1.907-5.72-4.354-10.453-4.354-4.403 0-7.611 2.056-9.614 4.193l-116.702-2.2c-2.222-1.883-6.526-4.846-11.606-4.846-4.838 0-8.425 2.507-10.464 4.43l-5.706-.107c-5.083-23.236-15.923-44.223-30.776-59.453-16.226-16.638-36.698-25.8-57.647-25.8z"/><path d="M97.257 210.514v5c1.187 0 29.268.299 45.768 26.163 5.582 8.75 6.867 16.007 3.818 21.569-3.857 7.036-13.536 9.878-16.922 9.878a5 5 0 0 0-5 5v.115a5 5 0 0 0 5 5c3.386 0 13.065 2.842 16.922 9.878 3.049 5.562 1.764 12.819-3.818 21.57-16.5 25.864-44.581 26.162-45.761 26.162h-.073c-1.187 0-29.268-.298-45.768-26.162-5.583-8.751-6.867-16.008-3.818-21.57 3.857-7.036 13.535-9.878 16.921-9.878a5 5 0 0 0 5-5v-.115a5 5 0 0 0-5-5c-3.386 0-13.064-2.842-16.921-9.878-3.05-5.562-1.765-12.819 3.818-21.57 16.5-25.864 44.58-26.162 45.761-26.162a5.169 5.169 0 0 0 .068 0l.005-5m0 0h-.033-.033c-1.146 0-31.987.264-49.983 28.474-18.34 28.746 8.956 39.136 17.318 39.136v.115c-8.362 0-35.657 10.39-17.318 39.137 17.995 28.208 48.833 28.473 49.983 28.473h.066c1.145 0 31.987-.264 49.983-28.473 18.339-28.747-8.956-39.137-17.319-39.137v-.115c8.363 0 35.658-10.39 17.319-39.136-17.995-28.208-48.834-28.473-49.983-28.474z"/></g></svg>