<svg xmlns="http://www.w3.org/2000/svg" xmlns:xlink="http://www.w3.org/1999/xlink" viewBox="0 0 556.03 232.9"><defs><radialGradient id="b" cx="91.77" cy="116.45" r="99.88" gradientTransform="matrix(0 1 -.8 0 184.93 24.68)" gradientUnits="userSpaceOnUse"><stop offset="0" stop-color="#ffd815"/><stop offset=".68" stop-color="#ffd815"/><stop offset=".79" stop-color="#ffd815"/><stop offset=".87" stop-color="#fcd515"/><stop offset=".95" stop-color="#f1cd16"/><stop offset="1" stop-color="#e6c416"/></radialGradient><linearGradient id="c" x1="467.01" y1="160.9" x2="467.01" y2="149.1" gradientUnits="userSpaceOnUse"><stop offset="0" stop-color="#ffd815"/><stop offset=".09" stop-color="#fcd515"/><stop offset="1" stop-color="#debd15"/></linearGradient><linearGradient id="d" x1="363.57" y1="90.18" x2="363.57" y2="142.86" gradientUnits="userSpaceOnUse"><stop offset="0" stop-color="#ffd815"/><stop offset=".48" stop-color="#ffd815"/><stop offset=".56" stop-color="#ffd815"/><stop offset=".58" stop-color="#fad415"/><stop offset=".7" stop-color="#eac715"/><stop offset=".82" stop-color="#e1bf15"/><stop offset="1" stop-color="#debd15"/></linearGradient><linearGradient id="e" x1="379.68" y1="87.88" x2="379.68" y2="145.08" gradientUnits="userSpaceOnUse"><stop offset="0" stop-color="#ffd818"/><stop offset=".4" stop-color="#ffd816"/><stop offset=".42" stop-color="#ffd815"/><stop offset=".46" stop-color="#fad415"/><stop offset=".6" stop-color="#eac715"/><stop offset=".77" stop-color="#e1bf15"/><stop offset="1" stop-color="#debd15"/></linearGradient><radialGradient id="a" cx="336.18" cy="116.52" r="20.78" gradientTransform="matrix(0 1 -.4 0 382.78 -219.66)" gradientUnits="userSpaceOnUse"><stop offset="0" stop-color="#ffd815"/><stop offset=".48" stop-color="#fdd615"/><stop offset=".77" stop-color="#f4d016"/><stop offset="1" stop-color="#e6c518"/><stop offset="1" stop-color="#e6c518"/></radialGradient><radialGradient id="f" cx="195.31" cy="116.45" r="22.84" gradientTransform="matrix(0 1 -.4 0 241.89 -78.86)" xlink:href="#a"/></defs><ellipse cx="91.77" cy="116.45" rx="61.36" ry="83.41" fill="#fff"/><path d="M91.77 5C43.85 5 5 54.9 5 116.45S43.85 227.9 91.77 227.9s86.77-49.9 86.77-111.45S139.69 5 91.77 5zm0 194.86c-33.88 0-61.36-37.34-61.36-83.41S57.89 33 91.77 33s61.36 37.34 61.36 83.41-27.47 83.45-61.36 83.45z" fill="url(#b)"/><path d="M91.77 33c-33.88 0-61.36 37.34-61.36 83.41s27.48 83.41 61.36 83.41 61.36-37.34 61.36-83.41S125.66 33 91.77 33zm50 122.67c-18.34 28.75-50 28.47-50 28.47s-31.68.28-50-28.47 9-39.14 17.31-39.14v-.11c-8.36 0-35.65-10.39-17.31-39.14s50-28.47 50-28.47 31.68-.27 50 28.47-9 39.14-17.32 39.14v.11c8.38.04 35.68 10.47 17.34 39.18z" fill="#e0b917"/><path fill="#ffd815" d="M446.29 183.74v39.98h20.72v-23.59h25.68v23.59h27.13V160.9H414.2v62.82h13.88v-39.88l18.21-.1zm-38.53-51.32c-2.62 3.25 0 16.68 0 16.68h118.5s3-14 0-17c-20.98-20.94-99.92-22.75-118.5.32z"/><path d="M467 149.1h-59.24s6.44 3 6.44 11.8h105.62c0-8.84 6.44-11.8 6.44-11.8z" fill="url(#c)"/><path d="M176.11 90.18l367.34 6.92s7.58-.73 7.58 19.42-7.58 19.41-7.58 19.41l-367.34 6.93z" fill="url(#d)"/><path d="M342.78 116.45v23.2l65 5.43s8.82.44 8.82-28.63v.07c0-29.07-8.82-28.64-8.82-28.64l-65 5.44v23.13z" fill="url(#e)"/><path d="M329.61 116.5c0-17.7-2.46-23.48-2.46-23.48a8.15 8.15 0 0 1 7.14-4.24c5.06 0 8.49 4.54 8.49 4.54s3.13 3.78 3.13 23.15c0 20.13-3.13 23.18-3.13 23.18a10.92 10.92 0 0 1-8.85 4.6c-5.92 0-7.48-4.23-7.48-4.23s3.16-6.16 3.16-23.52z" fill="url(#a)"/><path d="M184.72 116.43c0-17.7 3.33-26 3.33-26s3.25-4.47 8.31-4.47 9.53 4.74 9.53 4.74-2.09 6.3-2.09 25.7c0 20.13 2.09 25.95 2.09 25.95S201.94 147 196 147s-7.91-4.34-7.91-4.34-3.37-8.87-3.37-26.23z" fill="url(#f)"/><path d="M91.77 5c40.9 0 75.17 36.35 84.34 85.27v-.09l11.94.22s3.25-4.47 8.31-4.47 9.53 4.74 9.53 4.74a.23.23 0 0 1 0 .07L327.15 93a8.15 8.15 0 0 1 7.14-4.24c5.06 0 8.49 4.54 8.49 4.54l65-5.44c.3 0 3.54.16 6 6.78l129.67 2.46h.1c.9 0 7.48.64 7.48 19.42s-6.58 19.41-7.48 19.41h-.1l-15.91.3c.36 5.21-1.28 12.87-1.28 12.87s-6.44 3-6.44 11.8v62.82h-27.14v-23.59H467v23.59h-20.72v-40l-18.2.1v39.88H414.2v-62.8c0-8.84-6.44-11.8-6.44-11.8s-.33-1.72-.64-4.07l-63.69-5.33h-.7a10.87 10.87 0 0 1-8.8 4.54c-5.92 0-7.48-4.23-7.48-4.23l-120.58 2.27a.15.15 0 0 1 0 .06S201.94 147 196 147s-7.91-4.34-7.91-4.34l-12 .23v-.23c-9.17 48.92-43.44 85.27-84.34 85.27C43.85 227.9 5 178 5 116.45S43.85 5 91.77 5m0-5C67 0 43.83 12.28 26.47 34.57 9.4 56.49 0 85.57 0 116.45s9.4 60 26.47 81.88C43.83 220.62 67 232.9 91.77 232.9c21 0 41.42-9.16 57.65-25.8 14.82-15.2 25.65-36.14 30.75-59.32l5.47-.1A14 14 0 0 0 196 152a18.56 18.56 0 0 0 12-4.72l115.83-2.18a13.19 13.19 0 0 0 10.08 4.18 15.66 15.66 0 0 0 10.94-4.41l57.91 4.84c0 .22.07.35.07.37l.52 2.67 2.26.91c.56.31 3.57 2.2 3.57 7.27v67.82h23.88v-39.94h8.2v39.95H472v-23.63h15.67v23.59h37.14V160.9c0-5.48 3.49-7.24 3.52-7.26l2.28-1 .52-2.45a74.94 74.94 0 0 0 1.32-9l10.94-.21h.15c2.93 0 12.48-1.76 12.48-24.41s-9.54-24.47-12.47-24.47h-.15L417 89.72c-3.41-6.29-7.83-6.84-9.25-6.84h-.44l-62.6 5.24a15.74 15.74 0 0 0-10.45-4.36 13 13 0 0 0-9.62 4.2L208 85.78c-2.22-1.89-6.53-4.85-11.61-4.85a15.39 15.39 0 0 0-10.46 4.43l-5.71-.11C175.11 62 164.27 41 149.42 25.8 133.19 9.16 112.72 0 91.77 0z" fill="#1d1d1b"/><path d="M91.8 48.85v5c1.19 0 29.27.3 45.77 26.16 5.59 8.75 6.87 16 3.82 21.57-3.86 7-13.53 9.88-16.92 9.88a5 5 0 0 0-5 5v.11a5 5 0 0 0 5 5c3.39 0 13.06 2.85 16.92 9.88 3.05 5.56 1.77 12.82-3.82 21.57-16.5 25.87-44.58 26.16-45.76 26.16h-.07c-1.19 0-29.27-.29-45.77-26.16-5.58-8.75-6.87-16-3.82-21.57 3.86-7 13.54-9.88 16.92-9.88a5 5 0 0 0 5-5v-.11a5 5 0 0 0-5-5c-3.38 0-13.06-2.84-16.92-9.88C39.1 96 40.39 88.76 46 80c16.5-25.86 44.58-26.16 45.76-26.16h.07v-5m0 0h-.06c-1.15 0-32 .26-50 28.47-18.34 28.75 9 39.14 17.31 39.14v.11c-8.36 0-35.65 10.39-17.31 39.14 18 28.21 48.83 28.47 50 28.47h.06c1.15 0 32-.26 50-28.47 18.34-28.75-9-39.14-17.32-39.14v-.11c8.36 0 35.66-10.39 17.32-39.14-18-28.21-48.84-28.47-50-28.47z" fill="#1d1d1b"/></svg>