<svg xmlns="http://www.w3.org/2000/svg" xmlns:xlink="http://www.w3.org/1999/xlink" viewBox="0 0 372.84 554.26"><defs><radialGradient id="b" cx="186.42" cy="277.13" r="233.72" gradientUnits="userSpaceOnUse"><stop offset="0" stop-color="#fff"/><stop offset="1" stop-color="#f6f6f6"/></radialGradient><radialGradient id="a" cx="283.25" cy="283.46" r="90.76" gradientTransform="matrix(.99 0 0 1 2.41 .05)" gradientUnits="userSpaceOnUse"><stop offset="0" stop-color="#3c3c3b"/><stop offset="1" stop-color="#1d1d1b"/></radialGradient><radialGradient id="c" cx="152.1" cy="62.09" r="39.93" xlink:href="#a"/><radialGradient id="d" cx="413.94" cy="62.09" r="39.93" xlink:href="#a"/><radialGradient id="e" cx="415.89" cy="-283.77" r="39.93" gradientTransform="matrix(.99 0 0 -1 2.41 221.07)" xlink:href="#a"/><radialGradient id="f" cx="152.1" cy="-283.77" r="39.93" gradientTransform="matrix(.99 0 0 -1 2.41 221.07)" xlink:href="#a"/></defs><rect x="2.5" y="2.5" width="367.84" height="549.26" rx="29.3" ry="29.3" fill="url(#b)"/><path d="M341.03 5a26.8 26.8 0 0 1 26.8 26.8v490.66a26.8 26.8 0 0 1-26.8 26.8H31.8A26.8 26.8 0 0 1 5 522.46V31.8A26.8 26.8 0 0 1 31.8 5h309.23m0-5H31.8A31.84 31.84 0 0 0 0 31.8v490.66a31.84 31.84 0 0 0 31.8 31.8h309.23a31.84 31.84 0 0 0 31.8-31.8V31.8A31.84 31.84 0 0 0 341.03 0z" fill="#1d1d1b"/><path d="M327.37 328.83c44.87 0 44.87-45.35 44.87-45.35s0-65-89.74.1c0 0 89.74-90.81 0-90.87-89.74 3 0 90.84 0 90.84-89.74-64.78-89.74-.08-89.74-.08s0 45.35 44.87 45.35c43.82 0 44.84-43.25 44.87-45.27 0 90.69-44.87 90.64-44.87 90.64h89.74c-44.59 0-44.87-89.57-44.87-90.69.01 1.63.82 45.33 44.87 45.33z" transform="translate(-97.05 -6.37)" fill="url(#a)"/><path d="M172.55 82.09c19.74 0 19.74-20 19.74-20s0-28.61-39.48 0c0 0 39.48-39.95 0-40-39.49 1.3 0 40 0 40-39.49-28.5-39.49 0-39.49 0s0 19.95 19.75 19.95c19.28 0 19.73-19 19.74-19.92 0 39.9-19.74 39.88-19.74 39.88h39.48c-19.62 0-19.74-39.41-19.74-39.9.01.76.36 19.99 19.74 19.99z" transform="translate(-97.05 -6.37)" fill="url(#c)"/><path d="M431.46 82.09c19.75 0 19.75-20 19.75-20s0-28.61-39.49 0c0 0 39.49-39.95 0-40-39.48 1.3 0 40 0 40-39.48-28.5-39.48 0-39.48 0s0 19.95 19.74 19.95c19.28 0 19.73-19 19.74-19.92 0 39.9-19.74 39.88-19.74 39.88h39.48c-19.62 0-19.74-39.41-19.74-39.9.01.76.36 19.99 19.74 19.99z" transform="translate(-97.05 -6.37)" fill="url(#d)"/><path d="M433.4 484.84c19.74 0 19.74 20 19.74 20s0 28.61-39.48-.05c0 0 39.48 40 0 40-39.49-1.3 0-40 0-40-39.49 28.5-39.49 0-39.49 0s0-20 19.75-20c19.28 0 19.73 19 19.74 19.92 0-39.9-19.74-39.88-19.74-39.88h39.48c-19.62 0-19.74 39.41-19.74 39.9 0-.66.34-19.89 19.74-19.89z" transform="translate(-97.05 -6.37)" fill="url(#e)"/><path d="M172.55 484.84c19.74 0 19.74 20 19.74 20s0 28.61-39.48-.05c0 0 39.48 40 0 40-39.49-1.3 0-40 0-40-39.49 28.5-39.49 0-39.49 0s0-20 19.75-20c19.28 0 19.73 19 19.74 19.92 0-39.9-19.74-39.88-19.74-39.88h39.48c-19.62 0-19.74 39.41-19.74 39.9.01-.66.36-19.89 19.74-19.89z" transform="translate(-97.05 -6.37)" fill="url(#f)"/></svg>