<svg xmlns="http://www.w3.org/2000/svg" viewBox="0 0 566.9 566.9"><radialGradient id="a" cx="-211.725" cy="365.262" r="141.732" gradientUnits="userSpaceOnUse"><stop offset="0" stop-color="#be1622"/><stop offset="1" stop-color="#9e151a"/></radialGradient><path fill="url(#a)" d="M-211.7 507L-70 365.3l-141.7-141.8-141.8 141.8z"/><radialGradient id="b" cx="283.465" cy="283.5" r="183.126" gradientUnits="userSpaceOnUse"><stop offset="0" stop-color="#fff"/><stop offset=".993" stop-color="#f6f6f6"/><stop offset="1" stop-color="#f6f6f6"/></radialGradient><path d="M162.7 498.6c-12.9 0-23.4-10.5-23.4-23.4V91.8c0-12.9 10.5-23.4 23.4-23.4h241.6c12.9 0 23.4 10.5 23.4 23.4v383.3c0 12.9-10.5 23.4-23.4 23.4H162.7z" fill="url(#b)"/><path d="M404.3 70.9c11.6 0 20.9 9.4 20.9 20.9v383.3c0 11.6-9.4 20.9-20.9 20.9H162.7c-11.6 0-20.9-9.4-20.9-20.9V91.8c0-11.6 9.4-20.9 20.9-20.9h241.6m0-5H162.7c-14.3 0-25.9 11.6-25.9 25.9v383.3c0 14.3 11.6 25.9 25.9 25.9h241.6c14.3 0 25.9-11.6 25.9-25.9V91.8c0-14.3-11.6-25.9-25.9-25.9z"/><radialGradient id="c" cx="31.939" cy="745.791" r="141.741" gradientUnits="userSpaceOnUse"><stop offset="0" stop-color="#3c3c3b"/><stop offset="1"/></radialGradient><path d="M102.8 816.7c70.8 0 70.9-70.9 70.9-70.9s0-42.8-70.9-70.9S31.9 604 31.9 604s0 42.8-70.9 70.9-70.9 70.9-70.9 70.9 0 70.9 70.9 70.9c69.6 0 70.8-68.3 70.9-70.8C31.9 887.6-39 887.5-39 887.5h141.8c-70.8 0-70.9-141.7-70.9-141.7s.1 70.9 70.9 70.9z" fill="url(#c)"/><radialGradient id="d" cx="283.465" cy="283.465" r="70.906" gradientUnits="userSpaceOnUse"><stop offset="0" stop-color="#3c3c3b"/><stop offset="1"/></radialGradient><path d="M318.9 318.9c35.5 0 35.5-35.4 35.5-35.4s0-35.5-35.5-35.5c0 0 0-35.5-35.5-35.5C248 212.6 248 248 248 248c-35.5 0-35.5 35.5-35.5 35.5s0 35.4 35.5 35.4c34.6 0 35.4-33.8 35.5-35.4 0 70.9-35.5 70.8-35.5 70.8h70.9c-35.2 0-35.4-70-35.5-70.9.1 1.4.7 35.5 35.5 35.5z" fill="url(#d)"/><radialGradient id="e" cx="181.399" cy="110.539" r="31.195" gradientUnits="userSpaceOnUse"><stop offset="0" stop-color="#3c3c3b"/><stop offset="1"/></radialGradient><path d="M197 126.1c15.6 0 15.6-15.6 15.6-15.6s0-15.6-15.6-15.6c0 0 0-15.6-15.6-15.6s-15.6 15.6-15.6 15.6c-15.6 0-15.6 15.6-15.6 15.6s0 15.6 15.6 15.6c15.2 0 15.6-14.9 15.6-15.6 0 31.2-15.6 31.2-15.6 31.2H197c-15.5 0-15.6-30.8-15.6-31.2 0 .6.3 15.6 15.6 15.6z" fill="url(#e)"/><radialGradient id="f" cx="385.618" cy="110.539" r="31.195" gradientUnits="userSpaceOnUse"><stop offset="0" stop-color="#3c3c3b"/><stop offset="1"/></radialGradient><path d="M401.2 126.1c15.6 0 15.6-15.6 15.6-15.6s0-15.6-15.6-15.6c0 0 0-15.6-15.6-15.6-15.6.1-15.6 15.6-15.6 15.6-15.6 0-15.6 15.6-15.6 15.6s0 15.6 15.6 15.6c15.2 0 15.6-14.9 15.6-15.6 0 31.2-15.6 31.2-15.6 31.2h31.2c-15.5 0-15.6-30.8-15.6-31.2 0 .6.3 15.6 15.6 15.6z" fill="url(#f)"/><radialGradient id="g" cx="205.408" cy="296.688" r="31.195" gradientTransform="rotate(180 295.509 376.539)" gradientUnits="userSpaceOnUse"><stop offset="0" stop-color="#3c3c3b"/><stop offset="1"/></radialGradient><path d="M370 440.8c-15.6 0-15.6 15.6-15.6 15.6s0 15.6 15.6 15.6c0 0 0 15.6 15.6 15.6s15.6-15.6 15.6-15.6c15.6 0 15.6-15.6 15.6-15.6s0-15.6-15.6-15.6c-15.2 0-15.6 14.9-15.6 15.6 0-31.2 15.6-31.2 15.6-31.2H370c15.5 0 15.6 30.8 15.6 31.2 0-.6-.3-15.6-15.6-15.6z" fill="url(#g)"/><radialGradient id="h" cx="409.627" cy="296.688" r="31.195" gradientTransform="rotate(180 295.509 376.539)" gradientUnits="userSpaceOnUse"><stop offset="0" stop-color="#3c3c3b"/><stop offset="1"/></radialGradient><path d="M165.8 440.8c-15.6 0-15.6 15.6-15.6 15.6s0 15.6 15.6 15.6c0 0 0 15.6 15.6 15.6S197 472 197 472c15.6 0 15.6-15.6 15.6-15.6s0-15.6-15.6-15.6c-15.2 0-15.6 14.9-15.6 15.6 0-31.2 15.6-31.2 15.6-31.2h-31.2c15.5 0 15.6 30.8 15.6 31.2 0-.6-.3-15.6-15.6-15.6z" fill="url(#h)"/></svg>