<?xml version="1.0" encoding="utf-8"?>
<!-- Generator: Adobe Illustrator 22.1.0, SVG Export Plug-In . SVG Version: 6.00 Build 0)  -->
<svg version="1.1" xmlns="http://www.w3.org/2000/svg" xmlns:xlink="http://www.w3.org/1999/xlink" x="0px" y="0px"
	 viewBox="0 0 566.9 566.9" style="enable-background:new 0 0 566.9 566.9;" xml:space="preserve">
<style type="text/css">
	.st0{fill:url(#SVGID_1_);}
	.st1{fill:url(#SVGID_2_);}
	.st2{fill:url(#SVGID_3_);}
	.st3{fill:url(#SVGID_4_);}
	.st4{fill:url(#SVGID_5_);}
	.st5{fill:url(#SVGID_6_);}
	.st6{fill:url(#SVGID_7_);}
	.st7{fill:url(#SVGID_8_);}
</style>
<g id="Laag_1">
</g>
<g id="Laag_2">
	<radialGradient id="SVGID_1_" cx="-211.7252" cy="365.262" r="141.7323" gradientUnits="userSpaceOnUse">
		<stop  offset="0" style="stop-color:#BE1622"/>
		<stop  offset="1" style="stop-color:#9E151A"/>
	</radialGradient>
	<polygon class="st0" points="-211.7,507 -70,365.3 -211.7,223.5 -353.5,365.3 	"/>
	<g>
		<radialGradient id="SVGID_2_" cx="283.4648" cy="283.5" r="183.1262" gradientUnits="userSpaceOnUse">
			<stop  offset="0" style="stop-color:#FFFFFF"/>
			<stop  offset="0.9928" style="stop-color:#F6F6F6"/>
			<stop  offset="1" style="stop-color:#F6F6F6"/>
		</radialGradient>
		<path class="st1" d="M162.7,498.6c-12.9,0-23.4-10.5-23.4-23.4V91.8c0-12.9,10.5-23.4,23.4-23.4h241.6c12.9,0,23.4,10.5,23.4,23.4
			v383.3c0,12.9-10.5,23.4-23.4,23.4H162.7z"/>
		<path d="M404.3,70.9c11.6,0,20.9,9.4,20.9,20.9v383.3c0,11.6-9.4,20.9-20.9,20.9H162.7c-11.6,0-20.9-9.4-20.9-20.9V91.8
			c0-11.6,9.4-20.9,20.9-20.9H404.3 M404.3,65.9H162.7c-14.3,0-25.9,11.6-25.9,25.9v383.3c0,14.3,11.6,25.9,25.9,25.9h241.6
			c14.3,0,25.9-11.6,25.9-25.9V91.8C430.2,77.5,418.6,65.9,404.3,65.9L404.3,65.9z"/>
	</g>
	<radialGradient id="SVGID_3_" cx="31.9387" cy="745.7913" r="141.7414" gradientUnits="userSpaceOnUse">
		<stop  offset="0" style="stop-color:#3C3C3B"/>
		<stop  offset="1" style="stop-color:#000000"/>
	</radialGradient>
	<path class="st2" d="M102.8,816.7c70.8,0,70.9-70.9,70.9-70.9s0-42.8-70.9-70.9s-70.9-70.9-70.9-70.9s0,42.8-70.9,70.9
		s-70.9,70.9-70.9,70.9s0,70.9,70.9,70.9c69.6,0,70.8-68.3,70.9-70.8c0,141.7-70.9,141.6-70.9,141.6h141.8
		c-70.8,0-70.9-141.7-70.9-141.7S32,816.7,102.8,816.7z"/>
	<radialGradient id="SVGID_4_" cx="283.4646" cy="283.4646" r="70.9063" gradientUnits="userSpaceOnUse">
		<stop  offset="0" style="stop-color:#3C3C3B"/>
		<stop  offset="1" style="stop-color:#000000"/>
	</radialGradient>
	<path class="st3" d="M318.9,318.9c35.5,0,35.5-35.4,35.5-35.4s0-35.5-35.5-35.5c0,0,0-35.5-35.5-35.5v0C248,212.6,248,248,248,248
		c-35.5,0-35.5,35.5-35.5,35.5s0,35.4,35.5,35.4c34.6,0,35.4-33.8,35.5-35.4c0,70.9-35.5,70.8-35.5,70.8h70.9
		c-35.2,0-35.4-70-35.5-70.9C283.5,284.8,284.1,318.9,318.9,318.9z"/>
	<radialGradient id="SVGID_5_" cx="181.3992" cy="110.539" r="31.1948" gradientUnits="userSpaceOnUse">
		<stop  offset="0" style="stop-color:#3C3C3B"/>
		<stop  offset="1" style="stop-color:#000000"/>
	</radialGradient>
	<path class="st4" d="M197,126.1c15.6,0,15.6-15.6,15.6-15.6s0-15.6-15.6-15.6c0,0,0-15.6-15.6-15.6v0c-15.6,0-15.6,15.6-15.6,15.6
		c-15.6,0-15.6,15.6-15.6,15.6s0,15.6,15.6,15.6c15.2,0,15.6-14.9,15.6-15.6c0,31.2-15.6,31.2-15.6,31.2H197
		c-15.5,0-15.6-30.8-15.6-31.2C181.4,111.1,181.7,126.1,197,126.1z"/>
	<radialGradient id="SVGID_6_" cx="385.6185" cy="110.539" r="31.1948" gradientUnits="userSpaceOnUse">
		<stop  offset="0" style="stop-color:#3C3C3B"/>
		<stop  offset="1" style="stop-color:#000000"/>
	</radialGradient>
	<path class="st5" d="M401.2,126.1c15.6,0,15.6-15.6,15.6-15.6s0-15.6-15.6-15.6c0,0,0-15.6-15.6-15.6v0C370,79.4,370,94.9,370,94.9
		c-15.6,0-15.6,15.6-15.6,15.6s0,15.6,15.6,15.6c15.2,0,15.6-14.9,15.6-15.6c0,31.2-15.6,31.2-15.6,31.2h31.2
		c-15.5,0-15.6-30.8-15.6-31.2C385.6,111.1,385.9,126.1,401.2,126.1z"/>
	
		<radialGradient id="SVGID_7_" cx="205.4081" cy="296.688" r="31.1948" gradientTransform="matrix(-1 0 0 -1 591.0177 753.0781)" gradientUnits="userSpaceOnUse">
		<stop  offset="0" style="stop-color:#3C3C3B"/>
		<stop  offset="1" style="stop-color:#000000"/>
	</radialGradient>
	<path class="st6" d="M370,440.8c-15.6,0-15.6,15.6-15.6,15.6s0,15.6,15.6,15.6c0,0,0,15.6,15.6,15.6v0c15.6,0,15.6-15.6,15.6-15.6
		c15.6,0,15.6-15.6,15.6-15.6s0-15.6-15.6-15.6c-15.2,0-15.6,14.9-15.6,15.6c0-31.2,15.6-31.2,15.6-31.2H370
		c15.5,0,15.6,30.8,15.6,31.2C385.6,455.8,385.3,440.8,370,440.8z"/>
	
		<radialGradient id="SVGID_8_" cx="409.6274" cy="296.688" r="31.1948" gradientTransform="matrix(-1 0 0 -1 591.0177 753.0781)" gradientUnits="userSpaceOnUse">
		<stop  offset="0" style="stop-color:#3C3C3B"/>
		<stop  offset="1" style="stop-color:#000000"/>
	</radialGradient>
	<path class="st7" d="M165.8,440.8c-15.6,0-15.6,15.6-15.6,15.6s0,15.6,15.6,15.6c0,0,0,15.6,15.6,15.6v0C197,487.6,197,472,197,472
		c15.6,0,15.6-15.6,15.6-15.6s0-15.6-15.6-15.6c-15.2,0-15.6,14.9-15.6,15.6c0-31.2,15.6-31.2,15.6-31.2h-31.2
		c15.5,0,15.6,30.8,15.6,31.2C181.4,455.8,181.1,440.8,165.8,440.8z"/>
</g>
</svg>
