<?xml version="1.0" encoding="utf-8"?>
<!-- Generator: Adobe Illustrator 22.1.0, SVG Export Plug-In . SVG Version: 6.00 Build 0)  -->
<svg version="1.1" xmlns="http://www.w3.org/2000/svg" xmlns:xlink="http://www.w3.org/1999/xlink" x="0px" y="0px"
	 viewBox="0 0 566.9299927 566.9299927" style="enable-background:new 0 0 566.9299927 566.9299927;" xml:space="preserve">
<style type="text/css">
	.st0{display:none;}
	.st1{fill:url(#SVGID_1_);}
	.st2{display:none;fill:#EDEDED;}
	.st3{fill:url(#SVGID_2_);}
	.st4{fill:url(#SVGID_3_);}
	.st5{fill:url(#SVGID_4_);}
	.st6{fill:url(#SVGID_5_);}
	.st7{fill:url(#SVGID_6_);}
	.st8{fill:url(#SVGID_7_);}
	.st9{fill:url(#SVGID_8_);}
	.st10{display:none;fill:#9D9D9C;}
	.st11{display:none;fill:#DADADA;}
	.st12{fill:url(#SVGID_9_);}
	.st13{fill:url(#SVGID_10_);}
	.st14{fill:url(#SVGID_11_);}
	.st15{fill:#CA9E67;}
	.st16{fill:url(#SVGID_12_);}
	.st17{fill:url(#SVGID_13_);}
	.st18{fill:url(#SVGID_14_);}
</style>
<g id="Laag_2" class="st0">
</g>
<g id="Laag_3">
	
		<linearGradient id="SVGID_1_" gradientUnits="userSpaceOnUse" x1="161.9888916" y1="183.5662537" x2="405.1156921" y2="426.6930542">
		<stop  offset="0" style="stop-color:#DFF2FD"/>
		<stop  offset="0.0933083" style="stop-color:#E3F3FE"/>
		<stop  offset="0.1953265" style="stop-color:#EEF8FE"/>
		<stop  offset="0.2967148" style="stop-color:#FFFFFF"/>
		<stop  offset="0.328593" style="stop-color:#F9FDFF"/>
		<stop  offset="0.4464933" style="stop-color:#E6F5FE"/>
		<stop  offset="0.5213141" style="stop-color:#DFF2FD"/>
		<stop  offset="0.5708222" style="stop-color:#ECF7FE"/>
		<stop  offset="0.6470326" style="stop-color:#FAFDFF"/>
		<stop  offset="0.7035257" style="stop-color:#FFFFFF"/>
		<stop  offset="0.7386715" style="stop-color:#F6FBFF"/>
		<stop  offset="0.8059005" style="stop-color:#E9F6FE"/>
		<stop  offset="0.8843661" style="stop-color:#E2F3FE"/>
		<stop  offset="1" style="stop-color:#DFF2FD"/>
	</linearGradient>
	<ellipse class="st1" cx="283.5523071" cy="305.1296387" rx="135.4337616" ry="201.8813629"/>
	<path class="st2" d="M392.0883789,283.4645386c0,0,10.2279968-0.1738586,9.2364807-8.9025269
		s-18.1860657-10.5367432-22.2554626-20.4660492C375,244.1666718,341.25,161.4186096,341.25,161.4186096
		s-7.25-19.6863251-19.75-19.6863251l-4.735321,18.3833923c0,0,4.735321-4.6869049,11.985321,9.1343231
		c10.5679626,20.1464844,49.4953613,95.1539307,49.4953613,95.1539307L392.0883789,283.4645386z"/>
	<path class="st2" d="M379.069397,254.0959625c0,0-1.069397-19.4292908,5.930603-16.4292908
		c0,0-3.9997864-12.5240479-14.1665649-3.7347412S379.069397,254.0959625,379.069397,254.0959625z"/>
	<path class="st2" d="M372.069397,239.0959625c0,0-1.069397-19.4292908,5.930603-16.4292908
		c0,0-3.9997864-12.5240479-14.1665649-3.7347412S372.069397,239.0959625,372.069397,239.0959625z"/>
	<path class="st2" d="M345.4548035,174.4292908c0,0-1.069397-19.4292908,5.930603-16.4292908
		c0,0-3.9997864-12.5240326-14.1665649-3.7347412C327.052063,163.0545654,345.4548035,174.4292908,345.4548035,174.4292908z"/>
	<path class="st2" d="M336.84021,162.7832642c0,0-1.069397-19.429306,5.930603-16.429306
		c0,0-3.9997864-12.5240326-14.1665649-3.734726S336.84021,162.7832642,336.84021,162.7832642z"/>
	<radialGradient id="SVGID_2_" cx="421.182373" cy="190.1013031" r="72.2271881" gradientUnits="userSpaceOnUse">
		<stop  offset="0" style="stop-color:#936037"/>
		<stop  offset="0.5455013" style="stop-color:#946137"/>
		<stop  offset="0.7419795" style="stop-color:#9A663B"/>
		<stop  offset="0.8815255" style="stop-color:#A37040"/>
		<stop  offset="0.9941053" style="stop-color:#B07E49"/>
		<stop  offset="1" style="stop-color:#B17F4A"/>
	</radialGradient>
	<path class="st3" d="M417.4348755,105.5257111c0,0-2.3813477,25.9593811,34.0714417,106.9678497l8.6546936,19.2642059
		c0,0-12.0035706,20.624527,3.0704956,42.0904083c15.0740967,21.4658813-25.9749451-8.377594-25.9749451-8.377594
		l-29.4538574-84.5915527l-31.9957275-75.3533173l31.9957275-6.9372787L417.4348755,105.5257111z"/>
	<radialGradient id="SVGID_3_" cx="145.899231" cy="420.1787415" r="72.2271881" gradientUnits="userSpaceOnUse">
		<stop  offset="0" style="stop-color:#936037"/>
		<stop  offset="0.5455013" style="stop-color:#946137"/>
		<stop  offset="0.7419795" style="stop-color:#9A663B"/>
		<stop  offset="0.8815255" style="stop-color:#A37040"/>
		<stop  offset="0.9941053" style="stop-color:#B07E49"/>
		<stop  offset="1" style="stop-color:#B17F4A"/>
	</radialGradient>
	<path class="st4" d="M149.6467133,504.754364c0,0,2.3813477-25.9593811-34.0714493-106.967865l-8.6546783-19.2642212
		c0,0,12.0035706-20.6245117-3.0705032-42.0903931s25.9749451,8.377594,25.9749451,8.377594l29.4538727,84.5915527
		l31.9957123,75.3533325l-31.9957123,6.9372559L149.6467133,504.754364z"/>
	<radialGradient id="SVGID_4_" cx="145.922226" cy="190.1013031" r="72.2271881" gradientUnits="userSpaceOnUse">
		<stop  offset="0" style="stop-color:#936037"/>
		<stop  offset="0.5455013" style="stop-color:#946137"/>
		<stop  offset="0.7419795" style="stop-color:#9A663B"/>
		<stop  offset="0.8815255" style="stop-color:#A37040"/>
		<stop  offset="0.9941053" style="stop-color:#B07E49"/>
		<stop  offset="1" style="stop-color:#B17F4A"/>
	</radialGradient>
	<path class="st5" d="M149.6697083,105.5257111c0,0,2.3813477,25.9593811-34.0714493,106.9678497l-8.6546783,19.2642059
		c0,0,12.0035706,20.624527-3.0705109,42.0904083s25.9749527-8.377594,25.9749527-8.377594l29.4538727-84.5915527
		l31.995697-75.3533173l-31.995697-6.9372787L149.6697083,105.5257111z"/>
	<radialGradient id="SVGID_5_" cx="421.182373" cy="420.2166443" r="72.2271881" gradientUnits="userSpaceOnUse">
		<stop  offset="0" style="stop-color:#936037"/>
		<stop  offset="0.5455013" style="stop-color:#946137"/>
		<stop  offset="0.7419795" style="stop-color:#9A663B"/>
		<stop  offset="0.8815255" style="stop-color:#A37040"/>
		<stop  offset="0.9941053" style="stop-color:#B07E49"/>
		<stop  offset="1" style="stop-color:#B17F4A"/>
	</radialGradient>
	<path class="st6" d="M417.4348755,504.7922363c0,0-2.3813477-25.9593811,34.0714417-106.967865l8.6546936-19.2641907
		c0,0-12.0035706-20.6245117,3.0704956-42.0903931c15.0740967-21.4658813-25.9749451,8.3775635-25.9749451,8.3775635
		l-29.4538574,84.5915833l-31.9957275,75.353302l31.9957275,6.9372864L417.4348755,504.7922363z"/>
	
		<radialGradient id="SVGID_6_" cx="283.5523071" cy="52.026577" r="61.9478569" gradientTransform="matrix(1 0 0 0.6 0 20.8106308)" gradientUnits="userSpaceOnUse">
		<stop  offset="0" style="stop-color:#936037"/>
		<stop  offset="0.5455013" style="stop-color:#946137"/>
		<stop  offset="0.7419795" style="stop-color:#9A663B"/>
		<stop  offset="0.8815255" style="stop-color:#A37040"/>
		<stop  offset="0.9941053" style="stop-color:#B07E49"/>
		<stop  offset="1" style="stop-color:#B17F4A"/>
	</radialGradient>
	<path class="st7" d="M360.5099487,31.8044224c0,0-37.734314-28.1848297-37.734314,4.5296078
		c0,0-39.2233887-1.5098686-39.2233887-26.1714706c0,24.661602-39.2232819,26.1714706-39.2232819,26.1714706
		c0-32.7144394-37.734314-4.5296078-37.734314-4.5296078c18.6352539,10.0658932,0,28.3998737,0,28.3998737l6.3172455,28.9076805
		l70.6403503-18.427742l61.4314575,23.2063599l15.5262451-33.6862984
		C360.5099487,60.2042961,341.8746948,41.8703156,360.5099487,31.8044224z"/>
	<radialGradient id="SVGID_7_" cx="407.8027039" cy="182.6797485" r="100.0325241" gradientUnits="userSpaceOnUse">
		<stop  offset="0" style="stop-color:#845630"/>
		<stop  offset="0.4884659" style="stop-color:#855731"/>
		<stop  offset="0.6643907" style="stop-color:#895B34"/>
		<stop  offset="0.7897552" style="stop-color:#916238"/>
		<stop  offset="0.8911235" style="stop-color:#9D6C3E"/>
		<stop  offset="0.9769983" style="stop-color:#AC7A47"/>
		<stop  offset="1" style="stop-color:#B17F4A"/>
	</radialGradient>
	<path class="st8" d="M463.2315063,305.1296082c0,0,16.5635986,1.5340881,15.2784424-14.7260742
		c-1.2851257-16.2601624-34.9208374-18.3389893-36.7689819-43.6319885
		c-1.848175-25.292984,18.4200439-15.0137787,18.4200439-15.0137787s-13.6521301-20.6436615-26.2680054-13.7363586
		c0,0,5.2276917-15.8863068,17.6133118-5.5479431c0,0-8.045105-21.6605072-25.8287659-14.9940643
		c0,0-29.2147827-40.3428802-32.3965759-59.557251s-5.6750488-37.8575592,24.1539001-32.3964386
		c0,0-9.8504333-22.5401993-30.9084778-13.6138611c0,0-1.190918-17.863945,14.2911682-17.863945
		c0,0-14.5837708-11.4909134-23.6671753-3.3636017c0,0-15.9573975-23.6094017-30.6820984,0
		c-14.7246704,23.6094055-7.8329163,30.4087372-7.8329163,30.4087372l52.4978943,67.9460526l26.3016052,68.2465057
		l5.5719299,46.6928864L463.2315063,305.1296082z"/>
	<radialGradient id="SVGID_8_" cx="407.8027039" cy="427.618103" r="100.0325241" gradientUnits="userSpaceOnUse">
		<stop  offset="0" style="stop-color:#845630"/>
		<stop  offset="0.4884659" style="stop-color:#855731"/>
		<stop  offset="0.6643907" style="stop-color:#895B34"/>
		<stop  offset="0.7897552" style="stop-color:#916238"/>
		<stop  offset="0.8911235" style="stop-color:#9D6C3E"/>
		<stop  offset="0.9769983" style="stop-color:#AC7A47"/>
		<stop  offset="1" style="stop-color:#B17F4A"/>
	</radialGradient>
	<path class="st9" d="M463.2315063,305.1682434c0,0,16.5635986-1.5340881,15.2784424,14.7260742
		c-1.2851257,16.2601624-34.9208374,18.3389893-36.7689819,43.6319885
		c-1.848175,25.2929993,18.4200439,15.0338745,18.4200439,15.0338745s-13.6521301,20.6235657-26.2680054,13.7162781
		c0,0,5.2276917,15.8862915,17.6133118,5.5479126c0,0-8.045105,21.6605225-25.8287659,14.9940796
		c0,0-29.2147827,40.342865-32.3965759,59.557251s-5.6750488,37.877655,24.1539001,32.4165344
		c0,0-9.8504333,22.5200806-30.9084778,13.59375c0,0-1.190918,17.8639526,14.2911682,17.8639526
		c0,0-14.5837708,11.4909058-23.6671753,3.3635864c0,0-15.9573975,23.609436-30.6820984,0
		c-14.7246704-23.609375-7.8329163-30.4087219-7.8329163-30.4087219l52.4978943-67.9460449l26.3016052-68.2464905
		l5.5719299-46.6929016L463.2315063,305.1682434z"/>
	<path class="st10" d="M326.165863,185.9823303c0,0-9.8325195,4.5176697-13.8325195-1.2323303
		s-7.8364563-10.5085449-12.5875549-8.6371918c-4.7510986,1.8713379,7.9864807-15.77948,7.9864807-15.77948h20.6010742
		l3.5220032,18.2361298L326.165863,185.9823303z"/>
	<path class="st11" d="M283.4645691,141.7322845c0,0,6.342804,26.5867462,27.1891174,26.5867462S332,152.8726044,332,152.8726044
		s-13.3175049-9.9326324-21,2.1530457C303.3175049,167.1113434,283.4645691,141.7322845,283.4645691,141.7322845z"/>
	<radialGradient id="SVGID_9_" cx="440.3331909" cy="305.1296387" r="28.4912148" gradientUnits="userSpaceOnUse">
		<stop  offset="0" style="stop-color:#CA9E67"/>
		<stop  offset="0.4779597" style="stop-color:#C89D66"/>
		<stop  offset="0.7856082" style="stop-color:#C39964"/>
		<stop  offset="1" style="stop-color:#BD9460"/>
	</radialGradient>
	<path class="st12" d="M430.0779114,271.9759827c-4.479126,0-8.7453308,0.8995667-12.6430359,2.509491
		c1.0209351,9.9928894,1.551178,20.2261963,1.551178,30.6441345c0,10.4180298-0.5302429,20.6513367-1.551178,30.6442261
		c3.8977051,1.6099243,8.1639099,2.509491,12.6430359,2.509491c18.3102417,0,33.153595-14.8434753,33.153595-33.153717
		C463.2315063,286.8193359,448.3881531,271.9759827,430.0779114,271.9759827z"/>
	<radialGradient id="SVGID_10_" cx="159.2789001" cy="182.641861" r="100.0325241" gradientUnits="userSpaceOnUse">
		<stop  offset="0" style="stop-color:#845630"/>
		<stop  offset="0.4884659" style="stop-color:#855731"/>
		<stop  offset="0.6643907" style="stop-color:#895B34"/>
		<stop  offset="0.7897552" style="stop-color:#916238"/>
		<stop  offset="0.8911235" style="stop-color:#9D6C3E"/>
		<stop  offset="0.9769983" style="stop-color:#AC7A47"/>
		<stop  offset="1" style="stop-color:#B17F4A"/>
	</radialGradient>
	<path class="st13" d="M103.8500824,305.0917053c0,0-16.5635834,1.5340881-15.27845-14.7260742
		c1.2851334-16.2601318,34.9208527-18.3389893,36.7690048-43.6319733s-18.3970566-14.9758911-18.3970566-14.9758911
		s13.6291504-20.6815491,26.2450027-13.7742615c0,0-5.227684-15.8862915-17.6133194-5.5479279
		c0,0,8.0451202-21.6605072,25.8287582-14.9940796c0,0,29.2148132-40.342865,32.3966064-59.5572357
		c3.181778-19.2143784,5.6980133-37.8196716-24.1309204-32.358551c0,0,9.8274536-22.5780945,30.885498-13.6517563
		c0,0,1.190918-17.863945-14.2911682-17.863945c0,0,14.5837708-11.4909134,23.6671753-3.3635941
		c0,0,15.9573822-23.6094093,30.6820831,0c14.7246857,23.6094055,7.8329163,30.4087296,7.8329163,30.4087296l-52.497879,67.9460602
		l-26.3016205,68.2465057l-5.5719147,46.6929016L103.8500824,305.0917053z"/>
	<radialGradient id="SVGID_11_" cx="159.2789001" cy="427.5802307" r="100.0325241" gradientUnits="userSpaceOnUse">
		<stop  offset="0" style="stop-color:#845630"/>
		<stop  offset="0.4884659" style="stop-color:#855731"/>
		<stop  offset="0.6643907" style="stop-color:#895B34"/>
		<stop  offset="0.7897552" style="stop-color:#916238"/>
		<stop  offset="0.8911235" style="stop-color:#9D6C3E"/>
		<stop  offset="0.9769983" style="stop-color:#AC7A47"/>
		<stop  offset="1" style="stop-color:#B17F4A"/>
	</radialGradient>
	<path class="st14" d="M103.8500824,305.1303711c0,0-16.5635834-1.5341187-15.27845,14.7260437
		s34.9208527,18.3389893,36.7690048,43.6319885s-18.4200516,15.0338745-18.4200516,15.0338745
		s13.6521378,20.6235962,26.2679977,13.7162781c0,0-5.227684,15.8862915-17.6133194,5.5479431
		c0,0,8.0451202,21.6604919,25.8287582,14.9940796c0,0,29.2148132,40.342865,32.3966064,59.5572205
		c3.181778,19.214386,5.6750336,37.877655-24.1539154,32.4165649c0,0,9.8504486,22.5201111,30.908493,13.5937195
		c0,0,1.190918,17.8639526-14.2911682,17.8639526c0,0,14.5837708,11.4909668,23.6671753,3.3636475
		c0,0,15.9573822,23.609375,30.6820831,0c14.7246857-23.609436,7.8329163-30.4087524,7.8329163-30.4087524l-52.497879-67.9460754
		l-26.3016205-68.2464905l-5.5719147-46.6929016L103.8500824,305.1303711z"/>
	<path class="st15" d="M137.0036926,271.9380798c4.479126,0,8.7453308,0.8995667,12.6430206,2.509491
		c-1.0209198,9.9928894-1.5511627,20.2261963-1.5511627,30.6441345c0,10.4180603,0.5302429,20.6513367,1.5511627,30.6442261
		c-3.8976898,1.6099243-8.1638947,2.509491-12.6430206,2.509491c-18.3102493,0-33.1536102-14.8434753-33.1536102-33.153717
		S118.6934433,271.9380798,137.0036926,271.9380798z"/>
	<radialGradient id="SVGID_12_" cx="283.581604" cy="537.1278076" r="61.8711395" gradientUnits="userSpaceOnUse">
		<stop  offset="0" style="stop-color:#936037"/>
		<stop  offset="0.5455013" style="stop-color:#946137"/>
		<stop  offset="0.7419795" style="stop-color:#9A663B"/>
		<stop  offset="0.8815255" style="stop-color:#A37040"/>
		<stop  offset="0.9941053" style="stop-color:#B07E49"/>
		<stop  offset="1" style="stop-color:#B17F4A"/>
	</radialGradient>
	<path class="st16" d="M283.5523071,519.9966431l-53.4134369-4.3739014c0,0-63.7932281,23.9907837-9.443985,23.9907837
		s62.9160156,19.0193481,62.9160156,19.0193481l0,0c0,0,8.5081482-19.0193481,62.8573914-19.0193481
		s-9.4439697-23.9907837-9.4439697-23.9907837l-53.4134216,4.3739014H283.5523071z"/>
	
		<radialGradient id="SVGID_13_" cx="283.5523071" cy="305.1296082" r="195.4921722" gradientTransform="matrix(6.123234e-17 1 -0.9 5.510911e-17 558.1689453 21.5773029)" gradientUnits="userSpaceOnUse">
		<stop  offset="0" style="stop-color:#CA9E67"/>
		<stop  offset="0.5319468" style="stop-color:#C99D66"/>
		<stop  offset="0.7235342" style="stop-color:#C59A64"/>
		<stop  offset="0.860074" style="stop-color:#BE9561"/>
		<stop  offset="0.9697292" style="stop-color:#B58E5C"/>
		<stop  offset="1" style="stop-color:#B18B5B"/>
	</radialGradient>
	<path class="st17" d="M283.5522461,70.6842346c-80.9238281,0-146.5255585,104.9648285-146.5255585,234.4453735
		s65.6017303,234.445343,146.5255585,234.445343c80.9239502,0,146.5256653-104.9647217,146.5256653-234.445343
		S364.4761963,70.6842346,283.5522461,70.6842346z M283.5522461,507.0109558
		c-74.7979431,0-135.4337006-90.385376-135.4337006-201.8813477s60.6357574-201.8813782,135.4337006-201.8813782
		c74.7980347,0,135.4338074,90.3853836,135.4338074,201.8813782S358.3502808,507.0109558,283.5522461,507.0109558z"/>
	
		<radialGradient id="SVGID_14_" cx="283.3768311" cy="216.6332245" r="54.486866" gradientTransform="matrix(-1 0 0 -1 566.9291382 305.7452087)" gradientUnits="userSpaceOnUse">
		<stop  offset="0" style="stop-color:#CA9E67"/>
		<stop  offset="0.5319468" style="stop-color:#C99D66"/>
		<stop  offset="0.7235342" style="stop-color:#C59A64"/>
		<stop  offset="0.860074" style="stop-color:#BE9561"/>
		<stop  offset="0.9697292" style="stop-color:#B58E5C"/>
		<stop  offset="1" style="stop-color:#B18B5B"/>
	</radialGradient>
	<path class="st18" d="M220.6362762,107.53965c0-34.747551,28.168457-62.916008,62.9160309-62.916008
		c34.7475281,0,62.9159851,28.168457,62.9159851,62.916008S220.6362762,142.2872009,220.6362762,107.53965z"/>
</g>
<g id="Laag_4">
	<g>
		<path d="M283.5522766,10.1625299c0,24.6615868,39.2233276,26.1715012,39.2233276,26.1715012
			c0-12.0143223,5.0883484-15.8150711,11.5288696-15.814703c11.0966797,0.0006332,26.2054749,11.28512,26.2054749,11.28512
			c-18.6352539,10.065834,0,28.3998337,0,28.3998337c0.152832-0.0059433,0.3050842-0.0088654,0.4568481-0.0088654
			c9.0907898,0.000042,16.1835632,10.4888649,16.1835632,10.4888649c2.3734131-2.1235809,5.1210938-2.9077682,7.8872681-2.9075317
			c7.8204346,0.000679,15.7799072,6.2711182,15.7799072,6.2711182c-15.4820862,0-14.2911682,17.8639984-14.2911682,17.8639984
			c3.4805298-1.4753723,6.6548462-2.0911255,9.5291748-2.0911179c14.5159912,0.0000381,21.3793945,15.7049484,21.3793945,15.7049484
			s-2.326416,25.4391785,32.9693298,104.5039215c0.7371826,1.4671631,1.1020203,2.4438324,1.1020203,2.4438324
			c-0.0046692-0.0039215-0.0090942-0.0070038-0.013855-0.0109253c0.0047607,0.010498,0.0091858,0.0205841,0.013855,0.0310822
			l8.6547546,19.2640839c0,0-11.9892578,20.6020966,3.0472412,42.0555115
			c7.7393188,4.9190063,14.7293396,9.3491821,15.3016663,16.590332
			c1.0075684,12.7484131-8.9541626,14.5581055-13.3050842,14.7454224
			c4.3509216,0.1872559,14.3126526,1.9970093,13.3050842,14.7454224
			c-0.5717468,7.2340088-7.5484314,11.6625061-15.278595,16.5756531
			c-15.073822,21.4658508-3.0703125,42.0901794-3.0703125,42.0901794l-8.6547546,19.2641602
			c0,0-0.3359985,0.8968506-1.0100098,2.2584229c-35.3914185,79.2258301-33.0613403,104.7094116-33.0613403,104.7094116
			s-6.8591614,15.6863098-21.3729553,15.6863098c-2.8751831,0-6.053772-0.6166382-9.535614-2.0925293
			c0,0-1.190918,17.8639526,14.2911682,17.8639526c0,0-7.9588318,6.2711792-15.7798767,6.2711792
			c-2.7655334,0-5.5144348-0.7844849-7.8872986-2.9075928c0,0-7.0917358,10.493103-16.183136,10.493103
			c-4.5452881,0-9.5910034-2.6237793-14.4989319-10.493103c-54.3492737,0-62.8573608,19.0193481-62.8573608,19.0193481
			s-8.5667419-19.0193481-62.9159851-19.0193481c-0.0364227,0-0.0692444-0.0007324-0.1055908-0.0007324
			c-4.9012299,7.8408813-9.9369812,10.4550781-14.4754639,10.4550781c-9.0902557,0-16.1826172-10.4921875-16.1826172-10.4921875
			c-2.3734436,2.1235962-5.1210785,2.9075317-7.8872833,2.9075317c-7.8204346,0-15.7799683-6.2711792-15.7799683-6.2711792
			c15.4820862,0,14.2911682-17.8640137,14.2911682-17.8640137c-3.4843903,1.4770508-6.6587677,2.0926514-9.5355988,2.0926514
			c-14.5093994,0-21.3728943-15.6863708-21.3728943-15.6863708s2.3300781-25.4835815-33.0613403-104.7094116
			c-0.6740036-1.3616028-1.0100861-2.2584229-1.0100861-2.2584229l-8.654747-19.2641602
			c0,0,12.0034943-20.6243591-3.0702515-42.0901794c-7.7301712-4.9131775-14.7069168-9.3416748-15.2786713-16.5756531
			c-1.0074158-12.7475281,8.9527512-14.5579224,13.3041687-14.7454224
			c-4.3514175-0.1875-14.3115845-1.9979248-13.3041687-14.7454224c0.5744171-7.2670898,7.6128387-11.7032471,15.38517-16.6434937
			c14.9388351-21.4204407,2.9868317-41.964447,2.9868317-41.964447l8.6545868-19.2640839
			c0.0178299-0.0394897,0.034668-0.0776672,0.05233-0.1169891c-0.0254974,0.0210724-0.0496674,0.0376587-0.0752487,0.0589905
			c0,0,0.4638367-1.2400818,1.4029999-3.0275726c35.0079193-78.5789948,32.6914215-103.8823395,32.6914215-103.8823395
			s6.8507538-15.7405319,21.3701172-15.7401047c2.8699036,0.0000839,6.0399933,0.6151581,9.5153809,2.088356
			c0,0,1.190918-17.8639145-14.2911682-17.8639145c0,0,7.958847-6.2715149,15.7799072-6.2711487
			c2.7655487,0.0001297,5.5144653,0.7844543,7.8873444,2.9075623c0,0,7.092453-10.4891853,16.1836853-10.4886818
			c0.1707153,0.0000114,0.342804,0.0037193,0.5149078,0.0112648c0.7354889-0.7356644,18.2124176-18.5081673-0.0352478-28.3645821
			c0,0,15.10849-11.2866631,26.2054749-11.28512c6.4389801,0.0008965,11.5288544,3.8023777,11.5288544,15.814703
			C244.328949,36.3340302,283.5522766,34.8241158,283.5522766,10.1625299 M103.8510208,305.1309509
			c0-0.0131531-0.0009995-0.026062-0.0009995-0.0392456c0,0-0.1142502,0.0096741-0.3054123,0.0193481
			c0.1911621,0.0095825,0.3054123,0.0193176,0.3054123,0.0193176L103.8510208,305.1309509 M463.2305298,305.1687927
			l0.0010071-0.0004883c0,0,0.114502-0.0097656,0.3060913-0.0193481c-0.1915894-0.0096741-0.3060913-0.0194092-0.3060913-0.0194092
			C463.2315369,305.1427002,463.2305298,305.1557007,463.2305298,305.1687927 M283.5522766,5.1625304
			c-2.7614136,0-5,2.2385831-5,4.9999995c0,15.0157614-20.1029663,19.4490166-29.5839539,20.7040443
			c-0.6079865-4.2409039-1.9889526-7.5968456-4.1742096-10.1762104c-1.9980774-2.3584995-5.7008362-5.170166-11.9933319-5.1709995
			c-12.4007568-0.00175-27.5159149,11.0223331-29.1985779,12.279417c-1.3670959,1.0212498-2.1190033,2.6693325-1.9941711,4.3712521
			c0.1247406,1.7019157,1.1089172,3.2226639,2.6103363,4.0336647c5.0509949,2.7282486,5.4559174,5.4989166,5.5889893,6.4093323
			c0.638916,4.3713684-2.9960327,9.7461433-5.4479675,12.6343002c-6.8626862,0.6997948-12.3439178,5.3584824-15.5439911,8.8364182
			c-2.0795288-0.8871422-4.3615112-1.3447456-6.7711182-1.344883c-9.286499-0.0004196-17.9209137,6.5921669-18.8749237,7.343914
			c-1.6731567,1.3184204-2.32724,3.5521698-1.6295013,5.5649185c0.6976776,2.0126648,2.5940094,3.3623352,4.7241669,3.3623352
			c2.7689209,0,4.8229218,0.7495804,6.2793427,2.2916641c0.9721527,1.0293045,1.6465912,2.3622665,2.1081696,3.7403259
			c-1.2157745-0.1706696-2.4207458-0.2563858-3.6115875-0.2564087c-17.5940857-0.0005035-25.6217499,17.979332-25.954834,18.744751
			c-0.3463287,0.7956085-0.4902344,1.562851-0.3976898,2.4230423c0.0238647,0.4591599,0.2735291,6.9545212-3.4019775,22.1566238
			c-3.4811554,14.3984833-11.3055573,39.8089142-28.8108063,79.1204224
			c-1.0046158,1.9307404-1.5251541,3.300293-1.5825348,3.4534912c-0.0409393,0.1094513-0.0778351,0.2197266-0.1107101,0.3304138
			l-8.3986206,18.6943359c-0.6607513,1.4706726-0.5717545,3.169754,0.2389984,4.5633392
			c0.4008179,0.704071,9.7997971,17.6643066-2.218071,35.7842102c-8.0173874,5.1038818-16.071701,10.4924622-16.8165131,19.9153748
			c-0.4607468,5.8300781,0.9034195,10.5916748,4.0545807,14.1524963c0.3084946,0.3486023,0.6273193,0.6771851,0.9547424,0.9869385
			c-0.3274231,0.3097534-0.6462479,0.6383057-0.9547424,0.986908c-3.1511612,3.5608215-4.5153275,8.3224182-4.0546646,14.1524048
			c0.7417603,9.3844604,8.7327042,14.7669983,16.7173157,19.8521423c12.139328,18.1648254,2.6972198,35.1979065,2.283432,35.9242859
			c-0.7902451,1.3869934-0.8824158,3.0884094-0.2281647,4.5445862l8.6014023,19.1454163
			c0.1452484,0.368988,0.5111847,1.2614746,1.0979919,2.4544983c17.7178955,39.6742249,25.6372833,65.3069763,29.1608582,79.8269043
			c3.7160034,15.3124695,3.4687805,21.8571472,3.4445343,22.3277588c-0.0929565,0.8637695,0.0522614,1.6344299,0.401474,2.4325867
			c0.3338318,0.7628479,8.3764191,18.6820679,25.9536591,18.6820679c1.1975098,0,2.4090424-0.0864258,3.6316833-0.258728
			c-0.4616241,1.3768921-1.1359406,2.7093506-2.1079254,3.7384644c-1.4564209,1.5421143-3.5104218,2.291687-6.2793427,2.291687
			c-2.130249,0-4.0265808,1.3497314-4.7242432,3.3624878c-0.6976624,2.0128784-0.0434113,4.246582,1.6299133,5.5649414
			c0.95401,0.7516479,9.5888367,7.34375,18.8743439,7.34375c2.4477234,0,4.7144775-0.4463501,6.7819519-1.3323364
			c3.4703674,3.7695923,9.6142578,8.9169922,17.2878723,8.9169922c6.4146423,0,12.1688843-3.5092163,17.1343079-10.4397583
			c45.5609436,0.5252686,55.1851807,15.0544434,55.8323364,16.1315918c0.7528381,1.9007568,2.4804077,3.1532593,4.5303955,3.1532593
			c0.002533,0,0.0049133,0,0.0074768,0c2.0531616-0.0030518,3.7801819-1.2596436,4.5284119-3.1646729
			c0.6466064-1.0805054,10.211792-15.572937,55.6595764-16.1188965
			c4.9713745,6.9553223,10.7346497,10.4772339,17.1608276,10.4772339c7.6829224,0,13.831665-5.1588745,17.2998962-8.9299316
			c2.0794373,0.8870239,4.3612671,1.3444214,6.7705994,1.3444214c9.2861023,0,17.9204102-6.5921631,18.8743286-7.343811
			c1.6732483-1.3184204,2.3274231-3.5521851,1.6297607-5.5649414c-0.6977539-2.0127563-2.5939941-3.3624268-4.7242432-3.3624268
			c-2.7827454,0-4.8443298-0.7577515-6.3026733-2.3164062c-0.9607849-1.0269775-1.6286316-2.3500977-2.0869141-3.7140503
			c1.2233887,0.1724854,2.435791,0.2590332,3.6340027,0.2590332c17.5823975,0,25.620575-17.9202271,25.9541626-18.6830444
			c0.348877-0.7979126,0.4940186-1.5682678,0.401062-2.4316101c-0.0242615-0.4706116-0.2714844-7.0152893,3.444519-22.3277283
			c3.5235901-14.5199585,11.4429321-40.1525879,29.1608276-79.8268127c0.5868225-1.1929321,0.9526062-2.0853271,1.0979614-2.4546509
			l8.6013794-19.1453857c0.6609192-1.4709778,0.5717468-3.1704102-0.2394104-4.5641479
			c-0.40271-0.7070923-9.844696-17.7398376,2.2947388-35.9046631c7.9960327-5.092926,15.9760437-10.474762,16.7171631-19.8521729
			c0.4608459-5.8300781-0.9034119-10.5917664-4.0547485-14.1526794c-0.3085022-0.3486023-0.6271057-0.6769409-0.9545593-0.9866943
			c0.3274536-0.3097534,0.6461487-0.6381836,0.9546509-0.9867859c3.1513367-3.5608521,4.5155029-8.3225098,4.054657-14.1524963
			c-0.7423401-9.3928528-8.7466431-14.7764893-16.7383728-19.8656921
			c-12.1051941-18.1523743-2.6754761-35.1654053-2.2621155-35.8909149c0.7901611-1.3870087,0.8821716-3.0883331,0.2279968-4.5444183
			l-8.5440674-19.0177155c-0.0855713-0.2254333-0.500885-1.2927551-1.2526245-2.7999725
			c-17.664917-39.5839081-25.5608826-65.1619568-29.0739746-79.6517334
			c-3.7048035-15.2805405-3.458313-21.8136673-3.4340515-22.284996c0.0928955-0.8630142-0.0519714-1.6331024-0.4006042-2.4307556
			c-0.3337708-0.7636642-8.3756714-18.7026672-25.9609985-18.7026672c-1.1954041-0.0000229-2.4049988,0.0862045-3.6255188,0.2579498
			c0.4616394-1.3771057,1.1360168-2.7098923,2.1081848-3.7391968c1.4563904-1.5420837,3.5104065-2.2916641,6.2793274-2.2916641
			c2.1303406,0,4.0266724-1.3497543,4.7243347-3.3626709c0.6975708-2.0128326,0.0432434-4.246666-1.630188-5.5650024
			c-0.9539795-0.7514954-9.5886536-7.3426628-18.8736572-7.3434143c-2.4481506-0.0002327-4.7152405,0.4462013-6.7831726,1.3325806
			c-3.1916504-3.4655151-8.6436157-8.0956764-15.4677429-8.8175316c-2.3990173-2.8331299-6.1201477-8.2991486-5.4883423-12.6708832
			c0.1318359-0.9119148,0.5329285-3.6870804,5.5874329-6.4172478c1.5014954-0.8110847,2.4856567-2.3319168,2.6104126-4.0339165
			c0.1246643-1.7020836-0.6273193-3.3500843-1.9946594-4.3713341c-1.6826782-1.2567501-16.7975769-12.2784166-29.1972656-12.2790833
			c-6.2937317-0.0004168-9.9967346,2.8111668-11.9949036,5.1699162c-2.184906,2.5791264-3.5658264,5.9360962-4.1737366,10.1774769
			c-9.4776306-1.254509-29.5837708-5.6872711-29.5837708-20.7042274
			C288.5522766,7.4011135,286.3136902,5.1625304,283.5522766,5.1625304L283.5522766,5.1625304z"/>
	</g>
</g>
</svg>
