<svg xmlns="http://www.w3.org/2000/svg" xmlns:xlink="http://www.w3.org/1999/xlink" viewBox="0 0 400.08 558.75"><defs><linearGradient id="d" x1="78.49" y1="178.4" x2="321.62" y2="421.53" gradientUnits="userSpaceOnUse"><stop offset="0" stop-color="#dff2fd"/><stop offset=".1" stop-color="#e3f4fd"/><stop offset=".22" stop-color="#f1f9fe"/><stop offset=".3" stop-color="#fff"/><stop offset=".3" stop-color="#feffff"/><stop offset=".44" stop-color="#e7f5fe"/><stop offset=".52" stop-color="#dff2fd"/><stop offset=".55" stop-color="#e8f6fe"/><stop offset=".64" stop-color="#f9fdff"/><stop offset=".7" stop-color="#fff"/><stop offset=".72" stop-color="#fafdff"/><stop offset=".79" stop-color="#ebf7fe"/><stop offset=".88" stop-color="#e2f3fd"/><stop offset="1" stop-color="#dff2fd"/></linearGradient><radialGradient id="a" cx="337.68" cy="184.94" r="72.23" gradientUnits="userSpaceOnUse"><stop offset="0" stop-color="#936037"/><stop offset=".57" stop-color="#956238"/><stop offset=".77" stop-color="#9b693c"/><stop offset=".92" stop-color="#a77444"/><stop offset="1" stop-color="#b17f4a"/></radialGradient><radialGradient id="e" cx="62.4" cy="415.02" r="72.23" xlink:href="#a"/><radialGradient id="f" cx="62.42" cy="184.94" r="72.23" xlink:href="#a"/><radialGradient id="g" cx="337.68" cy="415.05" r="72.23" xlink:href="#a"/><radialGradient id="h" cx="200.05" cy="46.86" r="61.95" gradientTransform="matrix(1 0 0 .6 0 18.75)" xlink:href="#a"/><radialGradient id="b" cx="324.3" cy="177.52" r="100.03" gradientUnits="userSpaceOnUse"><stop offset="0" stop-color="#845630"/><stop offset=".53" stop-color="#865831"/><stop offset=".72" stop-color="#8d5e35"/><stop offset=".85" stop-color="#98693c"/><stop offset=".96" stop-color="#a97846"/><stop offset="1" stop-color="#b17f4a"/></radialGradient><radialGradient id="i" cx="324.3" cy="422.46" r="100.03" xlink:href="#b"/><radialGradient id="j" cx="356.83" cy="299.97" r="28.49" gradientUnits="userSpaceOnUse"><stop offset="0" stop-color="#ca9e67"/><stop offset=".58" stop-color="#c79c66"/><stop offset=".95" stop-color="#bf9561"/><stop offset="1" stop-color="#bd9460"/></radialGradient><radialGradient id="k" cx="75.78" cy="177.48" r="100.03" xlink:href="#b"/><radialGradient id="l" cx="75.78" cy="422.42" r="100.03" xlink:href="#b"/><radialGradient id="m" cx="200.08" cy="531.97" r="61.87" xlink:href="#a"/><radialGradient id="c" cx="200.05" cy="299.97" r="195.49" gradientTransform="matrix(0 1 -.9 0 470.02 99.91)" gradientUnits="userSpaceOnUse"><stop offset="0" stop-color="#ca9e67"/><stop offset=".59" stop-color="#c89d66"/><stop offset=".81" stop-color="#c19763"/><stop offset=".96" stop-color="#b68e5d"/><stop offset="1" stop-color="#b18b5b"/></radialGradient><radialGradient id="n" cx="199.88" cy="211.47" r="54.49" gradientTransform="rotate(180 199.965 147.71)" xlink:href="#c"/></defs><ellipse cx="200.05" cy="299.97" rx="135.43" ry="201.88" fill="url(#d)"/><path d="M333.94 100.36s-2.39 26 34.07 107l8.65 19.27s-12 20.62 3.07 42.09-26-8.38-26-8.38l-29.43-84.62-32-75.36 32-6.93z" fill="url(#a)"/><path d="M66.15 499.59s2.38-26-34.07-107l-8.66-19.26s12-20.62-3.07-42.09 26 8.38 26 8.38l29.45 84.59 32 75.35-32 6.94z" fill="url(#e)"/><path d="M66.17 100.36s2.38 26-34.07 107l-8.66 19.24s12 20.62-3.07 42.09 26-8.38 26-8.38l29.43-84.59 32-75.36-32-6.93z" fill="url(#f)"/><path d="M333.94 499.63s-2.39-26 34.07-107l8.65-19.26s-12-20.63 3.07-42.09-26 8.37-26 8.37l-29.46 84.6-32 75.35 32 6.94z" fill="url(#g)"/><path d="M277 26.64s-37.73-28.18-37.73 4.53c0 0-39.23-1.51-39.23-26.17 0 24.66-39.22 26.17-39.22 26.17 0-32.71-37.74-4.53-37.74-4.53 18.64 10.07 0 28.4 0 28.4L129.41 84l70.64-18.43 61.43 23.21L277 55s-18.63-18.29 0-28.36z" fill="url(#h)"/><path d="M379.73 300s16.57 1.5 15.27-14.76-34.92-18.34-36.77-43.63 18.42-15 18.42-15S363 206 350.39 212.86c0 0 5.23-15.89 17.62-5.55 0 0-8.05-21.66-25.83-15 0 0-29.22-40.35-32.4-59.56s-5.67-37.86 24.16-32.4c0 0-9.86-22.54-30.91-13.61 0 0-1.19-17.86 14.29-17.86 0 0-14.59-11.5-23.67-3.37 0 0-16-23.61-30.68 0s-7.83 30.41-7.83 30.41l52.49 67.95 26.31 68.24 5.57 46.7z" fill="url(#b)"/><path d="M379.73 300s16.57-1.54 15.28 14.72-34.92 18.34-36.77 43.63 18.42 15 18.42 15S363 394 350.39 387.11c0 0 5.23 15.89 17.62 5.55 0 0-8.05 21.66-25.83 15 0 0-29.22 40.34-32.4 59.55s-5.67 37.88 24.16 32.42c0 0-9.86 22.52-30.91 13.59 0 0-1.19 17.87 14.29 17.87 0 0-14.59 11.49-23.67 3.36 0 0-16 23.61-30.68 0S255.14 504 255.14 504l52.49-67.94 26.31-68.25 5.57-46.69z" fill="url(#i)"/><path d="M346.58 266.81a33 33 0 0 0-12.64 2.51 302.06 302.06 0 0 1 1.55 30.68 301.72 301.72 0 0 1-1.55 30.64 33.15 33.15 0 1 0 12.64-63.8z" fill="url(#j)"/><path d="M20.35 299.93S3.79 301.46 5.07 285.2 40 266.86 41.84 241.57s-18.4-15-18.4-15 13.63-20.69 26.25-13.78c0 0-5.23-15.89-17.61-5.55 0 0 8-21.66 25.82-15 0 0 29.22-40.34 32.4-59.56S96 94.9 66.17 100.36c0 0 9.83-22.57 30.89-13.65 0 0 1.19-17.86-14.3-17.86 0 0 14.59-11.49 23.67-3.37 0 0 16-23.61 30.68 0S145 95.89 145 95.89l-52.5 68-26.3 68.25-5.58 46.69z" fill="url(#k)"/><path d="M20.35 300s-16.56-1.57-15.28 14.69S40 333 41.84 358.33s-18.42 15-18.42 15S37.07 394 49.69 387.08c0 0-5.23 15.88-17.61 5.54 0 0 8 21.66 25.82 15 0 0 29.22 40.34 32.4 59.56s5.7 37.87-24.15 32.41c0 0 9.85 22.52 30.91 13.6 0 0 1.19 17.86-14.3 17.86 0 0 14.59 11.49 23.67 3.36 0 0 16 23.61 30.68 0S145 504 145 504l-52.5-67.94-26.3-68.25-5.58-46.69z" fill="url(#l)"/><path d="M53.5 266.78a33.07 33.07 0 0 1 12.65 2.51 303.62 303.62 0 0 0 0 61.28 33.15 33.15 0 1 1-12.65-63.79z" fill="#ca9e67"/><path d="M200.05 514.83l-53.41-4.37s-63.79 24-9.44 24 62.91 19 62.91 19 8.51-19 62.86-19-9.45-24-9.45-24l-53.41 4.37z" fill="url(#m)"/><path d="M200.05 65.52c-80.92 0-146.52 105-146.52 234.45s65.6 234.44 146.52 234.44S346.58 429.45 346.58 300 281 65.52 200.05 65.52zm0 436.33c-74.8 0-135.43-90.39-135.43-201.88S125.25 98.09 200.05 98.09 335.49 188.47 335.49 300s-60.64 201.85-135.44 201.85z" fill="url(#c)"/><path d="M137.14 102.38a62.92 62.92 0 1 1 125.83 0c.03 34.74-125.83 34.74-125.83 0z" fill="url(#n)"/><path d="M200.05 5c0 24.66 39.23 26.17 39.23 26.17 0-12 5.08-15.81 11.52-15.81 11.1 0 26.21 11.28 26.21 11.28C258.37 36.71 277 55 277 55h.46c9.09 0 16.18 10.49 16.18 10.49a11.47 11.47 0 0 1 7.89-2.91c7.82 0 15.78 6.28 15.78 6.28-15.47.03-14.31 17.89-14.31 17.89a24.22 24.22 0 0 1 9.53-2.09c14.51 0 21.38 15.7 21.38 15.7s-2.33 25.44 33 104.51c.74 1.46 1.11 2.44 1.11 2.44l8.65 19.27s-12 20.6 3 42c7.74 4.92 14.73 9.35 15.3 16.59 1 12.75-8.95 14.56-13.3 14.75 4.35.18 14.31 2 13.3 14.74-.57 7.24-7.55 11.66-15.28 16.58-15.07 21.46-3.07 42.09-3.07 42.09L368 392.66s-.34.9-1 2.26c-35.39 79.23-33.06 104.71-33.06 104.71s-6.86 15.69-21.38 15.69a24.29 24.29 0 0 1-9.53-2.1s-1.19 17.87 14.29 17.87c0 0-8 6.27-15.78 6.27a11.47 11.47 0 0 1-7.89-2.91s-7.09 10.49-16.18 10.49c-4.55 0-9.59-2.62-14.5-10.49-54.35 0-62.86 19-62.86 19s-8.57-19-62.91-19h-.11c-4.9 7.84-9.94 10.46-14.48 10.46-9.09 0-16.18-10.5-16.18-10.5a11.42 11.42 0 0 1-7.89 2.91c-7.82 0-15.78-6.27-15.78-6.27 15.49 0 14.3-17.86 14.3-17.86a24.48 24.48 0 0 1-9.54 2.09c-14.51 0-21.37-15.69-21.37-15.69s2.33-25.48-33.06-104.71a24.44 24.44 0 0 1-1-2.26l-8.66-19.26s12-20.62-3.07-42.09c-7.73-4.91-14.71-9.34-15.28-16.58C4.06 302 14 300.14 18.38 300c-4.38-.24-14.32-2-13.31-14.8.58-7.26 7.61-11.7 15.39-16.64 14.94-21.42 3-42 3-42l8.66-19.27v-.12l-.07.06a28.21 28.21 0 0 1 1.4-3c35-78.58 32.69-103.89 32.69-103.89S73 84.62 87.54 84.62a24.39 24.39 0 0 1 9.52 2.09s1.19-17.86-14.3-17.86c0 0 8-6.27 15.78-6.27a11.46 11.46 0 0 1 7.89 2.9S113.52 55 122.62 55h.51c.74-.74 18.21-18.51 0-28.37 0 0 15.11-11.28 26.21-11.28 6.44 0 11.53 3.8 11.53 15.81 0 0 39.22-1.51 39.22-26.17M20.35 300H20h.31m359.38 0h.31-.31M200.05 0a5 5 0 0 0-5 5c0 15-20.1 19.45-29.58 20.7a19.58 19.58 0 0 0-4.18-10.17c-2-2.36-5.7-5.17-12-5.17-12.4 0-27.51 11-29.2 12.28a5 5 0 0 0 .62 8.4c5 2.73 5.45 5.5 5.59 6.41.64 4.37-3 9.75-5.45 12.63-6.86.7-12.34 5.36-15.54 8.84a17.16 17.16 0 0 0-6.78-1.34c-9.28 0-17.92 6.59-18.87 7.34a5 5 0 0 0 3.09 8.93c2.77 0 4.83.75 6.28 2.29a10 10 0 0 1 2.11 3.74 26 26 0 0 0-3.61-.26c-17.59 0-25.62 18-25.95 18.75a4.58 4.58 0 0 0-.4 2.42c0 .46.27 7-3.4 22.16-3.48 14.4-11.3 39.81-28.78 79.12a35.65 35.65 0 0 0-1.58 3.45c0 .11-.08.22-.11.33l-8.4 18.7a5 5 0 0 0 .24 4.56 35.18 35.18 0 0 1-2.22 35.78C8.89 270 .83 275.39.09 284.81-.37 290.64 1 295.4 4.14 299q.47.53 1 1-.5.46-1 1C1 304.5-.37 309.26.09 315.09c.74 9.38 8.73 14.76 16.71 19.85a35.2 35.2 0 0 1 2.29 35.92 5.07 5.07 0 0 0-.23 4.55l8.6 19.14c.15.37.51 1.27 1.1 2.46 17.72 39.67 25.64 65.31 29.16 79.83 3.72 15.31 3.47 21.85 3.44 22.32a4.66 4.66 0 0 0 .41 2.44c.33.76 8.37 18.68 25.95 18.68a26.29 26.29 0 0 0 3.63-.26 10 10 0 0 1-2.15 3.74c-1.45 1.54-3.51 2.29-6.28 2.29a5 5 0 0 0-3.05 8.95c1 .75 9.59 7.34 18.87 7.34a17.2 17.2 0 0 0 6.79-1.33c3.47 3.77 9.61 8.92 17.28 8.92 6.42 0 12.17-3.51 17.14-10.44 45.56.52 55.18 15 55.83 16.13a4.84 4.84 0 0 0 4.53 3.15 4.85 4.85 0 0 0 4.53-3.16c.64-1.08 10.21-15.58 55.66-16.12 5 6.95 10.73 10.47 17.16 10.47 7.68 0 13.83-5.15 17.3-8.93a17.12 17.12 0 0 0 6.77 1.35c9.28 0 17.92-6.59 18.87-7.35a5 5 0 0 0-3.09-8.92c-2.79 0-4.85-.76-6.3-2.32a10.08 10.08 0 0 1-2.09-3.71 26.29 26.29 0 0 0 3.63.26c17.58 0 25.62-17.92 26-18.69a4.62 4.62 0 0 0 .4-2.43c0-.47-.27-7 3.44-22.33 3.53-14.52 11.44-40.15 29.16-79.82.59-1.2 1-2.09 1.1-2.46l8.6-19.14a5 5 0 0 0-.24-4.57 35.19 35.19 0 0 1 2.3-35.9c8-5.09 16-10.48 16.71-19.85.47-5.83-.9-10.6-4.05-14.16-.31-.35-.63-.67-.95-1 .32-.31.64-.64.95-1 3.15-3.56 4.52-8.32 4.05-14.15-.74-9.4-8.74-14.78-16.73-19.87a35.2 35.2 0 0 1-2.29-35.88 5 5 0 0 0 .23-4.54l-8.54-19c-.09-.23-.5-1.29-1.25-2.8-17.67-39.59-25.57-65.16-29.08-79.65-3.7-15.28-3.46-21.82-3.43-22.29a4.64 4.64 0 0 0-.4-2.43c-.34-.76-8.38-18.7-26-18.7a24.82 24.82 0 0 0-3.63.26 10.09 10.09 0 0 1 2.1-3.76c1.45-1.55 3.51-2.29 6.28-2.29a5 5 0 0 0 3.13-8.89c-1-.75-9.59-7.34-18.87-7.35a17 17 0 0 0-6.78 1.35c-3.2-3.47-8.65-8.1-15.47-8.82-2.4-2.83-6.12-8.3-5.49-12.67.13-.91.53-3.69 5.59-6.42a5 5 0 0 0 .61-8.4c-1.68-1.26-16.8-12.28-29.2-12.28-6.29 0-10 2.81-12 5.17a19.57 19.57 0 0 0-4.17 10.17C225.16 24.45 205.05 20 205.05 5a5 5 0 0 0-5-5z" fill="#1d1d1b"/></svg>