<svg xmlns="http://www.w3.org/2000/svg" viewBox="0 0 566.93 566.93"><style>.st2{display:none;fill:#ededed}</style><g id="Laag_3"><linearGradient id="SVGID_1_" gradientUnits="userSpaceOnUse" x1="161.989" y1="183.566" x2="405.116" y2="426.693"><stop offset="0" stop-color="#dff2fd"/><stop offset=".093" stop-color="#e3f3fe"/><stop offset=".195" stop-color="#eef8fe"/><stop offset=".297" stop-color="#fff"/><stop offset=".329" stop-color="#f9fdff"/><stop offset=".446" stop-color="#e6f5fe"/><stop offset=".521" stop-color="#dff2fd"/><stop offset=".571" stop-color="#ecf7fe"/><stop offset=".647" stop-color="#fafdff"/><stop offset=".704" stop-color="#fff"/><stop offset=".739" stop-color="#f6fbff"/><stop offset=".806" stop-color="#e9f6fe"/><stop offset=".884" stop-color="#e2f3fe"/><stop offset="1" stop-color="#dff2fd"/></linearGradient><ellipse cx="283.552" cy="305.13" rx="135.434" ry="201.881" fill="url(#SVGID_1_)"/><path class="st2" d="M392.088 283.465s10.228-.174 9.237-8.903-18.186-10.537-22.256-20.466c-4.069-9.93-37.819-92.677-37.819-92.677s-7.25-19.687-19.75-19.687l-4.735 18.384s4.735-4.687 11.985 9.134c10.568 20.146 49.495 95.154 49.495 95.154l13.843 19.06z"/><path class="st2" d="M379.07 254.096s-1.07-19.43 5.93-16.43c0 0-4-12.523-14.167-3.734s8.236 20.164 8.236 20.164z"/><path class="st2" d="M372.07 239.096s-1.07-19.43 5.93-16.43c0 0-4-12.523-14.167-3.734s8.236 20.164 8.236 20.164zm-26.615-64.666s-1.07-19.43 5.93-16.43c0 0-4-12.524-14.166-3.735-10.167 8.79 8.236 20.164 8.236 20.164z"/><path class="st2" d="M336.84 162.783s-1.07-19.429 5.93-16.429c0 0-3.999-12.524-14.166-3.735s8.236 20.164 8.236 20.164z"/><radialGradient id="SVGID_2_" cx="421.182" cy="190.101" r="72.227" gradientUnits="userSpaceOnUse"><stop offset="0" stop-color="#936037"/><stop offset=".546" stop-color="#946137"/><stop offset=".742" stop-color="#9a663b"/><stop offset=".882" stop-color="#a37040"/><stop offset=".994" stop-color="#b07e49"/><stop offset="1" stop-color="#b17f4a"/></radialGradient><path d="M417.435 105.526s-2.381 25.96 34.071 106.968l8.655 19.264s-12.004 20.624 3.07 42.09c15.075 21.466-25.974-8.377-25.974-8.377l-29.454-84.592-31.996-75.353 31.996-6.938 9.632 6.938z" fill="url(#SVGID_2_)"/><radialGradient id="SVGID_3_" cx="145.899" cy="420.179" r="72.227" gradientUnits="userSpaceOnUse"><stop offset="0" stop-color="#936037"/><stop offset=".546" stop-color="#946137"/><stop offset=".742" stop-color="#9a663b"/><stop offset=".882" stop-color="#a37040"/><stop offset=".994" stop-color="#b07e49"/><stop offset="1" stop-color="#b17f4a"/></radialGradient><path d="M149.647 504.754s2.381-25.959-34.072-106.968l-8.654-19.264s12.003-20.624-3.07-42.09 25.974 8.377 25.974 8.377l29.454 84.592 31.996 75.353-31.996 6.938-9.632-6.938z" fill="url(#SVGID_3_)"/><radialGradient id="SVGID_4_" cx="145.922" cy="190.101" r="72.227" gradientUnits="userSpaceOnUse"><stop offset="0" stop-color="#936037"/><stop offset=".546" stop-color="#946137"/><stop offset=".742" stop-color="#9a663b"/><stop offset=".882" stop-color="#a37040"/><stop offset=".994" stop-color="#b07e49"/><stop offset="1" stop-color="#b17f4a"/></radialGradient><path d="M149.67 105.526s2.381 25.96-34.072 106.968l-8.654 19.264s12.003 20.624-3.07 42.09 25.974-8.377 25.974-8.377l29.454-84.592 31.996-75.353-31.996-6.938-9.632 6.938z" fill="url(#SVGID_4_)"/><radialGradient id="SVGID_5_" cx="421.182" cy="420.217" r="72.227" gradientUnits="userSpaceOnUse"><stop offset="0" stop-color="#936037"/><stop offset=".546" stop-color="#946137"/><stop offset=".742" stop-color="#9a663b"/><stop offset=".882" stop-color="#a37040"/><stop offset=".994" stop-color="#b07e49"/><stop offset="1" stop-color="#b17f4a"/></radialGradient><path d="M417.435 504.792s-2.381-25.96 34.071-106.968l8.655-19.264s-12.004-20.624 3.07-42.09c15.075-21.466-25.974 8.377-25.974 8.377l-29.454 84.592-31.996 75.353 31.996 6.938 9.632-6.938z" fill="url(#SVGID_5_)"/><radialGradient id="SVGID_6_" cx="283.552" cy="52.027" r="61.948" gradientTransform="matrix(1 0 0 .6 0 20.81)" gradientUnits="userSpaceOnUse"><stop offset="0" stop-color="#936037"/><stop offset=".546" stop-color="#946137"/><stop offset=".742" stop-color="#9a663b"/><stop offset=".882" stop-color="#a37040"/><stop offset=".994" stop-color="#b07e49"/><stop offset="1" stop-color="#b17f4a"/></radialGradient><path d="M360.51 31.804s-37.734-28.184-37.734 4.53c0 0-39.224-1.51-39.224-26.171 0 24.661-39.223 26.171-39.223 26.171 0-32.714-37.734-4.53-37.734-4.53 18.635 10.066 0 28.4 0 28.4l6.317 28.908 70.64-18.428 61.432 23.207 15.526-33.687s-18.635-18.334 0-28.4z" fill="url(#SVGID_6_)"/><radialGradient id="SVGID_7_" cx="407.803" cy="182.68" r="100.033" gradientUnits="userSpaceOnUse"><stop offset="0" stop-color="#845630"/><stop offset=".488" stop-color="#855731"/><stop offset=".664" stop-color="#895b34"/><stop offset=".79" stop-color="#916238"/><stop offset=".891" stop-color="#9d6c3e"/><stop offset=".977" stop-color="#ac7a47"/><stop offset="1" stop-color="#b17f4a"/></radialGradient><path d="M463.232 305.13s16.563 1.534 15.278-14.726c-1.285-16.26-34.92-18.34-36.769-43.632-1.848-25.293 18.42-15.014 18.42-15.014s-13.652-20.644-26.268-13.737c0 0 5.228-15.886 17.613-5.548 0 0-8.045-21.66-25.828-14.994 0 0-29.215-40.342-32.397-59.557s-5.675-37.857 24.154-32.396c0 0-9.85-22.54-30.909-13.614 0 0-1.19-17.864 14.292-17.864 0 0-14.584-11.491-23.668-3.364 0 0-15.957-23.61-30.682 0-14.724 23.61-7.833 30.409-7.833 30.409l52.498 67.946 26.302 68.247 5.572 46.692 40.225 21.152z" fill="url(#SVGID_7_)"/><radialGradient id="SVGID_8_" cx="407.803" cy="427.618" r="100.033" gradientUnits="userSpaceOnUse"><stop offset="0" stop-color="#845630"/><stop offset=".488" stop-color="#855731"/><stop offset=".664" stop-color="#895b34"/><stop offset=".79" stop-color="#916238"/><stop offset=".891" stop-color="#9d6c3e"/><stop offset=".977" stop-color="#ac7a47"/><stop offset="1" stop-color="#b17f4a"/></radialGradient><path d="M463.232 305.168s16.563-1.534 15.278 14.726c-1.285 16.26-34.92 18.34-36.769 43.632-1.848 25.293 18.42 15.034 18.42 15.034s-13.652 20.624-26.268 13.716c0 0 5.228 15.887 17.613 5.548 0 0-8.045 21.66-25.828 14.994 0 0-29.215 40.343-32.397 59.558s-5.675 37.877 24.154 32.416c0 0-9.85 22.52-30.909 13.594 0 0-1.19 17.864 14.292 17.864 0 0-14.584 11.49-23.668 3.364 0 0-15.957 23.609-30.682 0-14.724-23.61-7.833-30.41-7.833-30.41l52.498-67.945 26.302-68.247 5.572-46.693 40.225-21.15z" fill="url(#SVGID_8_)"/><radialGradient id="SVGID_9_" cx="440.333" cy="305.13" r="28.491" gradientUnits="userSpaceOnUse"><stop offset="0" stop-color="#ca9e67"/><stop offset=".478" stop-color="#c89d66"/><stop offset=".786" stop-color="#c39964"/><stop offset="1" stop-color="#bd9460"/></radialGradient><path d="M430.078 271.976c-4.48 0-8.745.9-12.643 2.51a301.6 301.6 0 0 1 1.551 30.644 301.6 301.6 0 0 1-1.551 30.644 33.035 33.035 0 0 0 12.643 2.51c18.31 0 33.154-14.844 33.154-33.154 0-18.31-14.844-33.154-33.154-33.154z" fill="url(#SVGID_9_)"/><radialGradient id="SVGID_10_" cx="159.279" cy="182.642" r="100.033" gradientUnits="userSpaceOnUse"><stop offset="0" stop-color="#845630"/><stop offset=".488" stop-color="#855731"/><stop offset=".664" stop-color="#895b34"/><stop offset=".79" stop-color="#916238"/><stop offset=".891" stop-color="#9d6c3e"/><stop offset=".977" stop-color="#ac7a47"/><stop offset="1" stop-color="#b17f4a"/></radialGradient><path d="M103.85 305.092s-16.564 1.534-15.278-14.726c1.285-16.26 34.92-18.34 36.769-43.632s-18.397-14.976-18.397-14.976 13.629-20.682 26.245-13.774c0 0-5.228-15.887-17.614-5.548 0 0 8.045-21.66 25.829-14.995 0 0 29.215-40.342 32.397-59.557 3.181-19.214 5.698-37.82-24.131-32.358 0 0 9.827-22.578 30.885-13.652 0 0 1.191-17.864-14.291-17.864 0 0 14.584-11.49 23.667-3.364 0 0 15.958-23.609 30.682 0 14.725 23.61 7.833 30.41 7.833 30.41L175.948 169l-26.301 68.247-5.572 46.693-40.225 21.15z" fill="url(#SVGID_10_)"/><radialGradient id="SVGID_11_" cx="159.279" cy="427.58" r="100.033" gradientUnits="userSpaceOnUse"><stop offset="0" stop-color="#845630"/><stop offset=".488" stop-color="#855731"/><stop offset=".664" stop-color="#895b34"/><stop offset=".79" stop-color="#916238"/><stop offset=".891" stop-color="#9d6c3e"/><stop offset=".977" stop-color="#ac7a47"/><stop offset="1" stop-color="#b17f4a"/></radialGradient><path d="M103.85 305.13s-16.564-1.534-15.278 14.726 34.92 18.34 36.769 43.632-18.42 15.034-18.42 15.034 13.652 20.624 26.268 13.717c0 0-5.228 15.886-17.614 5.547 0 0 8.045 21.661 25.829 14.995 0 0 29.215 40.342 32.397 59.557 3.181 19.214 5.675 37.877-24.154 32.416 0 0 9.85 22.52 30.908 13.594 0 0 1.191 17.864-14.291 17.864 0 0 14.584 11.491 23.667 3.364 0 0 15.958 23.61 30.682 0 14.725-23.61 7.833-30.41 7.833-30.41l-52.498-67.945-26.301-68.247-5.572-46.693-40.225-21.15z" fill="url(#SVGID_11_)"/><path d="M137.004 271.938c4.479 0 8.745.9 12.643 2.51a301.604 301.604 0 0 0-1.551 30.644c0 10.418.53 20.651 1.55 30.644a33.035 33.035 0 0 1-12.642 2.51c-18.31 0-33.154-14.844-33.154-33.154s14.843-33.154 33.154-33.154z" fill="#ca9e67"/><radialGradient id="SVGID_12_" cx="283.582" cy="537.128" r="61.871" gradientUnits="userSpaceOnUse"><stop offset="0" stop-color="#936037"/><stop offset=".546" stop-color="#946137"/><stop offset=".742" stop-color="#9a663b"/><stop offset=".882" stop-color="#a37040"/><stop offset=".994" stop-color="#b07e49"/><stop offset="1" stop-color="#b17f4a"/></radialGradient><path d="M283.552 519.997l-53.413-4.374s-63.793 23.99-9.444 23.99 62.916 19.02 62.916 19.02 8.508-19.02 62.857-19.02-9.444-23.99-9.444-23.99l-53.413 4.374h-.059z" fill="url(#SVGID_12_)"/><radialGradient id="SVGID_13_" cx="283.552" cy="305.13" r="195.492" gradientTransform="matrix(0 1 -.9 0 558.169 21.577)" gradientUnits="userSpaceOnUse"><stop offset="0" stop-color="#ca9e67"/><stop offset=".532" stop-color="#c99d66"/><stop offset=".724" stop-color="#c59a64"/><stop offset=".86" stop-color="#be9561"/><stop offset=".97" stop-color="#b58e5c"/><stop offset="1" stop-color="#b18b5b"/></radialGradient><path d="M283.552 70.684c-80.924 0-146.525 104.965-146.525 234.446s65.601 234.445 146.525 234.445S430.078 434.61 430.078 305.13 364.476 70.684 283.552 70.684zm0 436.327c-74.798 0-135.433-90.385-135.433-201.881s60.635-201.882 135.433-201.882 135.434 90.386 135.434 201.882-60.636 201.88-135.434 201.88z" fill="url(#SVGID_13_)"/><radialGradient id="SVGID_14_" cx="283.377" cy="216.633" r="54.487" gradientTransform="rotate(180 283.465 152.873)" gradientUnits="userSpaceOnUse"><stop offset="0" stop-color="#ca9e67"/><stop offset=".532" stop-color="#c99d66"/><stop offset=".724" stop-color="#c59a64"/><stop offset=".86" stop-color="#be9561"/><stop offset=".97" stop-color="#b58e5c"/><stop offset="1" stop-color="#b18b5b"/></radialGradient><path d="M220.636 107.54c0-34.748 28.169-62.916 62.916-62.916 34.748 0 62.916 28.168 62.916 62.916s-125.832 34.747-125.832 0z" fill="url(#SVGID_14_)"/></g><path d="M283.552 10.163c0 24.661 39.224 26.171 39.224 26.171 0-12.014 5.088-15.815 11.528-15.815 11.097.001 26.206 11.285 26.206 11.285-18.635 10.066 0 28.4 0 28.4.153-.006.305-.009.457-.009 9.09 0 16.183 10.49 16.183 10.49 2.374-2.124 5.121-2.908 7.888-2.908 7.82 0 15.78 6.27 15.78 6.27-15.483 0-14.292 17.865-14.292 17.865 3.48-1.476 6.655-2.091 9.53-2.091 14.516 0 21.379 15.705 21.379 15.705s-2.326 25.439 32.97 104.504c.736 1.467 1.101 2.443 1.101 2.443l-.014-.01.014.03 8.655 19.265s-11.99 20.602 3.047 42.055c7.74 4.92 14.73 9.35 15.302 16.59 1.008 12.749-8.954 14.559-13.305 14.746 4.35.187 14.313 1.997 13.305 14.745-.572 7.234-7.548 11.663-15.279 16.576-15.073 21.466-3.07 42.09-3.07 42.09l-8.655 19.264s-.336.897-1.01 2.259c-35.391 79.226-33.061 104.71-33.061 104.71s-6.86 15.686-21.373 15.686c-2.875 0-6.054-.617-9.536-2.093 0 0-1.19 17.864 14.292 17.864 0 0-7.96 6.271-15.78 6.271-2.766 0-5.515-.784-7.888-2.907 0 0-7.091 10.493-16.183 10.493-4.545 0-9.59-2.624-14.499-10.493-54.349 0-62.857 19.019-62.857 19.019s-8.567-19.02-62.916-19.02h-.106c-4.9 7.84-9.937 10.455-14.475 10.455-9.09 0-16.183-10.492-16.183-10.492-2.373 2.123-5.12 2.907-7.887 2.907-7.82 0-15.78-6.271-15.78-6.271 15.482 0 14.291-17.864 14.291-17.864-3.484 1.477-6.659 2.093-9.535 2.093-14.51 0-21.373-15.687-21.373-15.687s2.33-25.483-33.062-104.71a26.844 26.844 0 0 1-1.01-2.258l-8.654-19.264s12.003-20.624-3.07-42.09c-7.73-4.913-14.708-9.342-15.28-16.576-1.007-12.747 8.953-14.557 13.305-14.745-4.352-.187-14.312-1.998-13.304-14.745.574-7.267 7.612-11.704 15.385-16.644 14.939-21.42 2.987-41.964 2.987-41.964l8.654-19.264.053-.117c-.026.02-.05.037-.076.059 0 0 .464-1.24 1.403-3.028 35.008-78.579 32.692-103.882 32.692-103.882s6.85-15.74 21.37-15.74c2.87 0 6.04.615 9.515 2.088 0 0 1.191-17.864-14.291-17.864 0 0 7.959-6.271 15.78-6.271 2.765 0 5.514.784 7.887 2.907 0 0 7.093-10.489 16.184-10.488.17 0 .343.003.515.011.735-.736 18.212-18.508-.035-28.365 0 0 15.108-11.286 26.205-11.285 6.44.001 11.529 3.803 11.529 15.815 0 0 39.223-1.51 39.223-26.171M103.851 305.13l-.001-.04s-.114.01-.305.02c.19.01.305.02.305.02h.001m359.38.038s.115-.01.307-.02a9.6 9.6 0 0 1-.306-.02l-.001.04M283.552 5.163a5 5 0 0 0-5 5c0 15.015-20.103 19.449-29.584 20.704-.608-4.241-1.989-7.597-4.174-10.177-1.998-2.358-5.7-5.17-11.993-5.17-12.401-.002-27.516 11.022-29.199 12.279a5 5 0 0 0 .616 8.405c5.051 2.728 5.456 5.499 5.59 6.409.638 4.371-2.997 9.746-5.449 12.634-6.862.7-12.344 5.359-15.544 8.837-2.08-.887-4.361-1.345-6.77-1.345-9.287 0-17.922 6.592-18.876 7.344a5 5 0 0 0 3.095 8.927c2.769 0 4.823.75 6.28 2.292.972 1.029 1.646 2.362 2.108 3.74a25.97 25.97 0 0 0-3.612-.256c-17.594 0-25.622 17.979-25.955 18.744-.346.796-.49 1.563-.398 2.423.024.46.274 6.955-3.402 22.157-3.48 14.399-11.305 39.809-28.81 79.12-1.005 1.931-1.526 3.3-1.583 3.454-.04.11-.078.22-.11.33l-8.4 18.695a5 5 0 0 0 .24 4.563c.4.704 9.8 17.664-2.218 35.784-8.018 5.104-16.072 10.493-16.817 19.916-.46 5.83.904 10.591 4.055 14.152.308.349.627.677.955.987-.328.31-.647.638-.955.987-3.151 3.56-4.516 8.322-4.055 14.152.742 9.385 8.733 14.767 16.717 19.853 12.14 18.164 2.698 35.197 2.284 35.924a5.044 5.044 0 0 0-.228 4.544l8.601 19.146c.145.369.511 1.261 1.098 2.454 17.718 39.675 25.637 65.307 29.16 79.827 3.717 15.313 3.47 21.857 3.445 22.328-.092.864.053 1.634.402 2.433.334.762 8.376 18.682 25.954 18.682a26.01 26.01 0 0 0 3.631-.26c-.461 1.378-1.136 2.71-2.108 3.74-1.456 1.541-3.51 2.291-6.279 2.291a5 5 0 0 0-3.094 8.927c.954.752 9.589 7.344 18.874 7.344 2.448 0 4.715-.446 6.782-1.332 3.47 3.77 9.614 8.917 17.288 8.917 6.415 0 12.169-3.51 17.134-10.44 45.561.525 55.185 15.055 55.833 16.132.752 1.9 2.48 3.153 4.53 3.153h.007c2.054-.003 3.78-1.26 4.529-3.165.646-1.08 10.212-15.573 55.66-16.119 4.97 6.956 10.734 10.478 17.16 10.478 7.683 0 13.832-5.16 17.3-8.93 2.08.887 4.361 1.344 6.77 1.344 9.287 0 17.921-6.592 18.875-7.344a5 5 0 0 0-3.094-8.927c-2.783 0-4.845-.758-6.303-2.316-.96-1.027-1.629-2.35-2.087-3.715 1.223.173 2.436.26 3.634.26 17.582 0 25.62-17.92 25.954-18.684.349-.797.494-1.568.401-2.431-.024-.47-.271-7.015 3.445-22.328 3.523-14.52 11.443-40.152 29.16-79.827a33.708 33.708 0 0 0 1.098-2.454l8.602-19.146a5 5 0 0 0-.24-4.564c-.402-.707-9.844-17.74 2.295-35.905 7.996-5.092 15.976-10.474 16.717-19.852.461-5.83-.903-10.591-4.054-14.152a15.468 15.468 0 0 0-.955-.987c.328-.31.646-.638.955-.987 3.151-3.56 4.515-8.322 4.054-14.152-.742-9.393-8.746-14.777-16.738-19.866-12.105-18.152-2.675-35.165-2.262-35.891a5.044 5.044 0 0 0 .228-4.544l-8.544-19.018a32.469 32.469 0 0 0-1.253-2.8c-17.665-39.584-25.56-65.162-29.074-79.652-3.705-15.28-3.458-21.813-3.434-22.285.093-.863-.052-1.633-.4-2.43-.334-.764-8.376-18.703-25.961-18.703-1.196 0-2.405.086-3.626.258.462-1.377 1.136-2.71 2.108-3.74 1.457-1.542 3.51-2.291 6.28-2.291a5 5 0 0 0 3.094-8.928c-.954-.751-9.589-7.342-18.874-7.343-2.448 0-4.715.446-6.783 1.332-3.192-3.465-8.644-8.095-15.468-8.817-2.399-2.833-6.12-8.3-5.488-12.671.132-.912.533-3.687 5.587-6.417a5 5 0 0 0 .616-8.406c-1.683-1.256-16.798-12.278-29.197-12.279-6.294 0-9.997 2.812-11.995 5.17-2.185 2.58-3.566 5.936-4.174 10.178-9.478-1.255-29.584-5.688-29.584-20.704a5 5 0 0 0-5-5z" id="Laag_4"/></svg>