<svg xmlns="http://www.w3.org/2000/svg" viewBox="0 0 566.9 566.9"><style>.st5{fill:#fecb37}.st7{font-family:&apos;TrajanPro-Regular&apos;}.st8{font-size:36.5284px}.st9{letter-spacing:-4}.st10{font-size:36.5286px}</style><g id="Laag_2"><radialGradient id="SVGID_1_" cx="283.465" cy="357.11" r="199.949" gradientUnits="userSpaceOnUse"><stop offset=".929" stop-color="#fecb27"/><stop offset=".974" stop-color="#fac727"/><stop offset="1" stop-color="#f4c328"/></radialGradient><circle cx="283.5" cy="357.1" r="199.9" fill="url(#SVGID_1_)"/><circle cx="283.5" cy="357.1" r="168.6" fill="#feda37"/><circle cx="283.5" cy="357.1" r="162" fill="#f6f6f6"/><linearGradient id="SVGID_2_" gradientUnits="userSpaceOnUse" x1="283.465" y1="157.141" x2="283.465" y2="176.614"><stop offset=".493" stop-color="#fecb27"/><stop offset=".533" stop-color="#feca27"/><stop offset="1" stop-color="#f8c628"/></linearGradient><path d="M340.7 157.1c-11.8 0 2.4 3.2-57.2 3.2s-45.4-3.2-57.2-3.2c-11.8 0-11.1 12-11.1 12 1.5 7.1 68.4 7.5 68.4 7.5s66.8-.4 68.4-7.5c-.2 0 .5-12-11.3-12z" fill="url(#SVGID_2_)"/><path class="st5" d="M303.2 105.3V104l-19.7 4.2-19.7-4.2v1.3c0 41.2-28.1 42.6-28.1 42.6l23.9 7.4 23.9-5 23.9 5 23.9-7.4s-28.1-1.4-28.1-42.6z"/><linearGradient id="SVGID_3_" gradientUnits="userSpaceOnUse" x1="283.465" y1="147.075" x2="283.465" y2="163.351"><stop offset=".493" stop-color="#fecb27"/><stop offset=".533" stop-color="#feca27"/><stop offset="1" stop-color="#f8c628"/></linearGradient><path d="M331.3 147.1c-9.9 0 2 2.6-47.8 2.6s-38-2.6-47.8-2.6c-9.9 0-9.3 10-9.3 10 1.3 5.9 57.1 6.2 57.1 6.2s55.9-.4 57.1-6.2c0 0 .6-10-9.3-10z" fill="url(#SVGID_3_)"/><path d="M283.5 51.7c-19.2 0-35.2 1.5-35.2 21.4s11 15.8 15.5 20.4c2 2.1 0 11.6 0 11.6l19.7-.7 19.7.7s-2-9.5 0-11.6c4.5-4.6 15.5-.5 15.5-20.4s-16.1-21.4-35.2-21.4z"/><path class="st5" d="M283.5 8.7c-47.2 0-85.5 19.1-85.5 54.8 0 35.7 38.3 67.5 85.5 67.5S369 99.2 369 63.5c-.1-35.7-38.3-54.8-85.5-54.8zm0 97c-34.7 0-62.8-22.6-62.8-47s28.1-34.3 62.8-34.3c34.7 0 62.8 9.9 62.8 34.3s-28.2 47-62.8 47z"/><path d="M283.5 8.7c47.2 0 85.5 19.1 85.5 54.8 0 29.5-26.1 56.3-61.8 64.7 5.5 13.5 15.5 17.7 20.7 19.1.8-.1 1.8-.2 3.4-.2 9.9 0 9.3 10 9.3 10h.1c11.8 0 11.1 12 11.1 12 76.8 27.9 131.6 101.5 131.6 188 0 110.4-89.5 199.9-199.9 199.9s-200-89.5-200-199.9c0-86.4 54.8-160 131.6-188 0 0-.7-12 11.1-12h.1s-.6-10 9.3-10c1.6 0 2.6.1 3.4.2 5.3-1.3 15.2-5.6 20.7-19.1C224.1 119.8 198 93 198 63.5c0-35.7 38.3-54.8 85.5-54.8m0 97c34.7 0 62.8-22.6 62.8-47s-28.1-34.3-62.8-34.3-62.8 9.9-62.8 34.3 28.1 47 62.8 47m0-102c-25.1 0-46.9 5.1-63 14.7-18 10.7-27.5 26.3-27.5 45.1 0 15.5 6.7 31 18.9 43.7 10.5 11 24.8 19.4 40.6 24.2-4.4 6.9-10.1 9.7-13.9 10.8-.9-.1-1.9-.1-3-.1-5.4 0-8.6 2.2-10.4 4.1-1.9 2-2.9 4.4-3.4 6.4-3.5.8-5.9 2.6-7.3 4.1-2.6 2.8-3.7 6.2-4.1 8.8-18.3 7-35.6 16.6-51.2 28.6-16.4 12.5-30.7 27.4-42.7 44.1C91.7 273 78.6 314.1 78.6 357c0 27.7 5.4 54.5 16.1 79.8 10.3 24.4 25.1 46.3 43.9 65.1 18.8 18.8 40.7 33.6 65.1 43.9 25.3 10.7 52.1 16.1 79.8 16.1s54.5-5.4 79.8-16.1c24.4-10.3 46.3-25.1 65.1-43.9 18.8-18.8 33.6-40.7 43.9-65.1 10.7-25.3 16.1-52.1 16.1-79.8 0-42.9-13.1-84-37.9-118.8-12-16.8-26.3-31.6-42.7-44.1-15.7-12-32.9-21.6-51.2-28.6-.4-2.6-1.5-6-4.1-8.8-1.5-1.5-3.8-3.3-7.3-4.1-.5-2-1.5-4.4-3.4-6.4-1.8-1.9-5-4.1-10.4-4.1-1.2 0-2.2 0-3 .1-3.8-1.1-9.5-3.9-13.9-10.8 15.8-4.8 30.1-13.3 40.6-24.2C367.3 94.5 374 79 374 63.5c0-18.8-9.5-34.3-27.5-45.1-16.2-9.6-37.9-14.7-63-14.7zm0 97c-15.4 0-30.1-4.7-41.3-13.3-10.4-8-16.4-18.4-16.4-28.7 0-26.4 40.4-29.3 57.8-29.3s57.8 2.9 57.8 29.3c0 10.2-6 20.7-16.4 28.7-11.4 8.6-26.1 13.3-41.5 13.3z"/></g><g id="Laag_3"><text transform="translate(259.404 230.22)" class="st7 st8 st9">XII</text><text transform="rotate(30 -283.902 756.17)" class="st7 st10 st9">I</text><text transform="rotate(60 -50.86 475.608)" class="st7 st10 st9">II</text><text transform="rotate(90 36.33 374.02)" class="st7 st8 st9">III</text><text transform="rotate(120 84.847 318.29)" class="st7 st10 st9">IV</text><text transform="rotate(150 117.62 278.137)" class="st7 st10 st9">V</text><text transform="rotate(180 151.34 241.999)" class="st7 st8 st9">VI</text><text transform="rotate(-150 185.014 207.344)" class="st7 st10 st9">VII</text><text transform="rotate(-120 223.527 168.982)" class="st7 st10 st9">VIII</text><text transform="rotate(-90 266.013 109.437)" class="st7 st8 st9">IX</text><text transform="rotate(-60 347.41 7.378)" class="st7 st10 st9">X</text><text transform="rotate(-30 580.629 -252.767)" class="st7 st10 st9">XI</text><path d="M401.8 289.5c-26.2 15.1-36.9 7.2-48.1 14.3-11.2 7.1 9.3 4.5-5.7 13.2-41.1 23.7-35.9 12.7-54.6 23.5-14.6 8.4-9.5 17.1-9.5 17.1s4.9 8.7 19.5.2c18.7-10.8 6.6-11.8 47.7-35.5 14.9-8.6 2.5 7.8 14.2 1.7 11.8-6.2 10.2-19.4 36.5-34.5z"/><ellipse transform="rotate(-30 346.324 321.34)" cx="346.3" cy="321.3" rx="4.7" ry="8.3"/><ellipse transform="rotate(-30 340.122 324.921)" cx="340.1" cy="324.9" rx="4.7" ry="8.3"/><path d="M188.5 302.3c26.2 15.1 24.6 28.3 36.4 34.5 11.8 6.1-.7-10.3 14.2-1.7 12.9 7.4 5.8 11.3 24.5 22.1 14.6 8.4 19.5-.3 19.5-.3s5.1-8.5-9.5-17c-18.7-10.8-19-3-31.4-10.1-14.9-8.6 5.5-6-5.7-13.2-11.2-7.2-21.8.8-48-14.3z"/><ellipse transform="rotate(-60 245.19 335.05)" cx="245.2" cy="335" rx="8.3" ry="4.7"/><circle cx="283.4" cy="357.2" r="8.2"/><circle class="st5" cx="283.4" cy="357.2" r="6.5"/></g></svg>