<svg xmlns="http://www.w3.org/2000/svg" xmlns:xlink="http://www.w3.org/1999/xlink" viewBox="0 0 409.9 558.34"><defs><radialGradient id="b" cx="204.95" cy="353.39" r="199.95" gradientUnits="userSpaceOnUse"><stop offset=".93" stop-color="#fecb27"/><stop offset=".98" stop-color="#f8c628"/><stop offset="1" stop-color="#f4c328"/></radialGradient><linearGradient id="a" x1="204.95" y1="153.42" x2="204.95" y2="172.89" gradientUnits="userSpaceOnUse"><stop offset=".49" stop-color="#fecb27"/><stop offset="1" stop-color="#f8c628"/></linearGradient><linearGradient id="c" x1="204.95" y1="143.35" x2="204.95" y2="159.63" xlink:href="#a"/></defs><circle cx="204.95" cy="353.39" r="199.95" fill="url(#b)"/><circle cx="204.95" cy="353.39" r="168.57" fill="#feda37"/><circle cx="204.95" cy="353.39" r="162.02" fill="#f6f6f6"/><path d="M262.2 153.42c-11.84 0 2.35 3.17-57.25 3.17s-45.41-3.17-57.25-3.17-11.11 12-11.11 12c1.54 7.05 68.36 7.47 68.36 7.47s66.82-.42 68.35-7.47c0 0 .7-12-11.1-12z" fill="url(#a)"/><path d="M224.68 101.55v-1.33L205 104.45l-19.73-4.23v1.33c0 41.25-28.12 42.58-28.12 42.58l23.85 7.36 23.93-5 23.92 5 23.93-7.36s-28.1-1.33-28.1-42.58z" fill="#fecb37"/><path d="M252.8 143.35c-9.9 0 2 2.65-47.85 2.65s-38-2.65-47.85-2.65-9.28 10-9.28 10c1.28 5.9 57.13 6.25 57.13 6.25s55.85-.35 57.13-6.25c0 .03.61-10-9.28-10z" fill="url(#c)"/><path d="M205 47.94c-19.11 0-35.16 1.51-35.16 21.42s11 15.83 15.48 20.43c2 2.09 0 11.63 0 11.63l19.7-.67 19.71.67s-2-9.54 0-11.63c4.46-4.6 15.47-.5 15.47-20.43S224.11 47.94 205 47.94z" fill="#1d1d1b"/><path d="M205 5c-47.2 0-85.47 19.07-85.47 54.77s38.27 67.46 85.47 67.46 85.47-31.76 85.47-67.46S252.15 5 205 5zm0 97c-34.66 0-62.76-22.59-62.76-47S170.29 20.75 205 20.75s62.71 9.89 62.71 34.25-28.1 47-62.71 47z" fill="#fecb37"/><path d="M205 5c47.2 0 85.47 19.07 85.47 54.77 0 29.49-26.12 56.27-61.81 64.7 5.52 13.48 15.5 17.74 20.75 19.07a23.55 23.55 0 0 1 3.44-.19c9.89 0 9.28 10 9.28 10h.13c11.83 0 11.1 12 11.1 12a200 200 0 0 1 131.6 188c0 110.43-89.52 200-199.95 200S5 463.82 5 353.39a200 200 0 0 1 131.6-188s-.73-12 11.11-12h.13s-.61-10 9.28-10a23.64 23.64 0 0 1 3.44.19c5.25-1.33 15.22-5.59 20.75-19.07-35.69-8.43-61.81-35.21-61.81-64.7C119.48 24.07 157.75 5 205 5m0 97c34.66 0 62.76-22.59 62.76-47S239.61 20.75 205 20.75 142.19 30.64 142.19 55s28.1 47 62.76 47M205 0c-25.1 0-46.88 5.08-63 14.7-18 10.73-27.52 26.3-27.52 45.07 0 15.49 6.72 31 18.92 43.71 10.54 11 24.79 19.43 40.63 24.22a24.59 24.59 0 0 1-13.89 10.76c-.86-.07-1.85-.11-3-.11a13.72 13.72 0 0 0-10.4 4.13 14.23 14.23 0 0 0-3.38 6.42 14.5 14.5 0 0 0-7.35 4.15 16.73 16.73 0 0 0-4.13 8.82 204.66 204.66 0 1 0 146.22 0 16.73 16.73 0 0 0-4.13-8.82 14.55 14.55 0 0 0-7.35-4.15 14.23 14.23 0 0 0-3.38-6.42 13.74 13.74 0 0 0-10.4-4.13c-1.2 0-2.18 0-3.05.11a24.65 24.65 0 0 1-13.89-10.76c15.84-4.79 30.1-13.25 40.64-24.22 12.2-12.69 18.92-28.22 18.92-43.71 0-18.76-9.5-34.34-27.47-45.07C251.83 5.08 230 0 205 0zm0 97c-15.45 0-30.13-4.73-41.34-13.31-10.44-8-16.42-18.44-16.42-28.66 0-26.43 40.39-29.28 57.76-29.28S262.71 28.6 262.71 55c0 10.22-6 20.67-16.42 28.66C235.08 92.27 220.39 97 205 97z" fill="#1d1d1b"/><text transform="translate(180.89 226.5)" font-size="36.53" fill="#1d1d1b" font-family="TrajanPro-Regular, Trajan Pro" letter-spacing="-.13em">XII</text><text transform="rotate(30 -316.301 607.873)" font-size="36.53" fill="#1d1d1b" font-family="TrajanPro-Regular, Trajan Pro" letter-spacing="-.13em">I</text><text transform="rotate(60 -86.914 405.781)" font-size="36.53" fill="#1d1d1b" font-family="TrajanPro-Regular, Trajan Pro" letter-spacing="-.13em">II</text><text transform="rotate(90 -1.07 332.9)" font-size="36.53" fill="#1d1d1b" font-family="TrajanPro-Regular, Trajan Pro" letter-spacing="-.13em">III</text><text transform="rotate(120 46.667 293.79)" font-size="36.53" fill="#1d1d1b" font-family="TrajanPro-Regular, Trajan Pro" letter-spacing="-.13em">IV</text><text transform="rotate(150 78.874 265.777)" font-size="36.53" fill="#1d1d1b" font-family="TrajanPro-Regular, Trajan Pro" letter-spacing="-.13em">V</text><text transform="rotate(180 112.085 240.14)" font-size="36.53" fill="#1d1d1b" font-family="TrajanPro-Regular, Trajan Pro" letter-spacing="-.13em">VI</text><text transform="rotate(-150 145.274 216.011)" font-size="36.53" fill="#1d1d1b" font-family="TrajanPro-Regular, Trajan Pro" letter-spacing="-.13em">VII</text><text transform="rotate(-120 183.222 189.79)" font-size="36.53" fill="#1d1d1b" font-family="TrajanPro-Regular, Trajan Pro" letter-spacing="-.13em">VIII</text><text transform="rotate(-90 224.895 146.835)" font-size="36.53" fill="#1d1d1b" font-family="TrajanPro-Regular, Trajan Pro" letter-spacing="-.13em">IX</text><text transform="rotate(-60 304.967 73.501)" font-size="36.53" fill="#1d1d1b" font-family="TrajanPro-Regular, Trajan Pro" letter-spacing="-.13em">X</text><text transform="rotate(-30 534.488 -108.184)" font-size="36.53" fill="#1d1d1b" font-family="TrajanPro-Regular, Trajan Pro" letter-spacing="-.13em">XI</text><path d="M323.24 285.73c-26.21 15.13-36.86 7.15-48.05 14.3s9.28 4.53-5.67 13.16c-41.06 23.71-35.88 12.74-54.61 23.55-14.58 8.42-9.46 17.06-9.46 17.06s4.87 8.66 19.45.24c18.73-10.81 6.63-11.81 47.7-35.52 14.95-8.63 2.45 7.8 14.23 1.68s10.17-19.34 36.41-34.47z" fill="#1d1d1b"/><ellipse cx="267.83" cy="317.61" rx="4.72" ry="8.3" transform="rotate(-30 267.838 317.607)" fill="#1d1d1b"/><ellipse cx="261.63" cy="321.19" rx="4.72" ry="8.3" transform="rotate(-30 261.62 321.18)" fill="#1d1d1b"/><path d="M109.94 298.56c26.21 15.14 24.63 28.35 36.41 34.47s-.72-10.31 14.23-1.68c12.86 7.43 5.76 11.31 24.49 22.12 14.58 8.42 19.51-.33 19.51-.33s5.06-8.55-9.53-17c-18.72-10.81-19-3-31.39-10.15-14.95-8.62 5.52-6-5.67-13.16s-21.84.87-48.05-14.27z" fill="#1d1d1b"/><ellipse cx="166.67" cy="331.32" rx="8.3" ry="4.72" transform="matrix(.5 -.87 .87 .5 -203.59 310)" fill="#1d1d1b"/><circle cx="204.9" cy="353.44" r="8.18" fill="#1d1d1b"/><circle cx="204.9" cy="353.44" r="6.47" fill="#fecb37"/></svg>