<?xml version="1.0" encoding="utf-8"?>
<!-- Generator: Adobe Illustrator 22.1.0, SVG Export Plug-In . SVG Version: 6.00 Build 0)  -->
<svg version="1.1" xmlns="http://www.w3.org/2000/svg" xmlns:xlink="http://www.w3.org/1999/xlink" x="0px" y="0px"
	 viewBox="0 0 566.9 566.9" style="enable-background:new 0 0 566.9 566.9;" xml:space="preserve">
<style type="text/css">
	.st0{display:none;}
	.st1{fill:url(#SVGID_1_);}
	.st2{fill:#FEDA37;}
	.st3{fill:#F6F6F6;}
	.st4{fill:url(#SVGID_2_);}
	.st5{fill:#FECB37;}
	.st6{fill:url(#SVGID_3_);}
	.st7{font-family:'TrajanPro-Regular';}
	.st8{font-size:36.5284px;}
	.st9{letter-spacing:-4;}
	.st10{font-size:36.5286px;}
</style>
<g id="Laag_4" class="st0">
</g>
<g id="Laag_2">
	<radialGradient id="SVGID_1_" cx="283.4646" cy="357.1096" r="199.9486" gradientUnits="userSpaceOnUse">
		<stop  offset="0.9295" style="stop-color:#FECB27"/>
		<stop  offset="0.9737" style="stop-color:#FAC727"/>
		<stop  offset="1" style="stop-color:#F4C328"/>
	</radialGradient>
	<circle class="st1" cx="283.5" cy="357.1" r="199.9"/>
	<circle class="st2" cx="283.5" cy="357.1" r="168.6"/>
	<circle class="st3" cx="283.5" cy="357.1" r="162"/>
	<linearGradient id="SVGID_2_" gradientUnits="userSpaceOnUse" x1="283.4646" y1="157.1411" x2="283.4646" y2="176.6142">
		<stop  offset="0.4927" style="stop-color:#FECB27"/>
		<stop  offset="0.5332" style="stop-color:#FECA27"/>
		<stop  offset="1" style="stop-color:#F8C628"/>
	</linearGradient>
	<path class="st4" d="M340.7,157.1c-11.8,0,2.4,3.2-57.2,3.2s-45.4-3.2-57.2-3.2c-11.8,0-11.1,12-11.1,12c1.5,7.1,68.4,7.5,68.4,7.5
		s66.8-0.4,68.4-7.5C351.8,169.1,352.5,157.1,340.7,157.1z"/>
	<path class="st5" d="M303.2,105.3v-1.3l-19.7,4.2l-19.7-4.2v1.3c0,41.2-28.1,42.6-28.1,42.6l23.9,7.4l23.9-5l23.9,5l23.9-7.4
		C331.3,147.9,303.2,146.5,303.2,105.3z"/>
	<linearGradient id="SVGID_3_" gradientUnits="userSpaceOnUse" x1="283.4646" y1="147.0747" x2="283.4646" y2="163.3506">
		<stop  offset="0.4927" style="stop-color:#FECB27"/>
		<stop  offset="0.5332" style="stop-color:#FECA27"/>
		<stop  offset="1" style="stop-color:#F8C628"/>
	</linearGradient>
	<path class="st6" d="M331.3,147.1c-9.9,0,2,2.6-47.8,2.6s-38-2.6-47.8-2.6c-9.9,0-9.3,10-9.3,10c1.3,5.9,57.1,6.2,57.1,6.2
		s55.9-0.4,57.1-6.2C340.6,157.1,341.2,147.1,331.3,147.1z"/>
	<path d="M283.5,51.7L283.5,51.7C283.5,51.7,283.5,51.7,283.5,51.7C283.5,51.7,283.5,51.7,283.5,51.7L283.5,51.7
		c-19.2,0-35.2,1.5-35.2,21.4c0,19.9,11,15.8,15.5,20.4c2,2.1,0,11.6,0,11.6l19.7-0.7l19.7,0.7c0,0-2-9.5,0-11.6
		c4.5-4.6,15.5-0.5,15.5-20.4C318.7,53.2,302.6,51.7,283.5,51.7z"/>
	<path class="st5" d="M283.5,8.7c-47.2,0-85.5,19.1-85.5,54.8c0,35.7,38.3,67.5,85.5,67.5c47.2,0,85.5-31.8,85.5-67.5
		C368.9,27.8,330.7,8.7,283.5,8.7z M283.5,105.7c-34.7,0-62.8-22.6-62.8-47s28.1-34.3,62.8-34.3c34.7,0,62.8,9.9,62.8,34.3
		S318.1,105.7,283.5,105.7z"/>
	<g>
		<path d="M283.5,8.7c47.2,0,85.5,19.1,85.5,54.8c0,29.5-26.1,56.3-61.8,64.7c5.5,13.5,15.5,17.7,20.7,19.1c0.8-0.1,1.8-0.2,3.4-0.2
			c9.9,0,9.3,10,9.3,10c0,0,0,0,0,0c0,0,0.1,0,0.1,0c11.8,0,11.1,12,11.1,12c0,0,0,0,0,0c76.8,27.9,131.6,101.5,131.6,188
			c0,110.4-89.5,199.9-199.9,199.9S83.5,467.5,83.5,357.1c0-86.4,54.8-160,131.6-188c0,0,0,0,0,0c0,0-0.7-12,11.1-12
			c0,0,0.1,0,0.1,0c0,0,0,0,0,0c0,0-0.6-10,9.3-10c1.6,0,2.6,0.1,3.4,0.2c5.3-1.3,15.2-5.6,20.7-19.1C224.1,119.8,198,93,198,63.5
			C198,27.8,236.3,8.7,283.5,8.7 M283.5,105.7c34.7,0,62.8-22.6,62.8-47s-28.1-34.3-62.8-34.3s-62.8,9.9-62.8,34.3
			S248.8,105.7,283.5,105.7 M283.5,3.7c-25.1,0-46.9,5.1-63,14.7c-18,10.7-27.5,26.3-27.5,45.1c0,15.5,6.7,31,18.9,43.7
			c10.5,11,24.8,19.4,40.6,24.2c-4.4,6.9-10.1,9.7-13.9,10.8c-0.9-0.1-1.9-0.1-3-0.1c-5.4,0-8.6,2.2-10.4,4.1
			c-1.9,2-2.9,4.4-3.4,6.4c-3.5,0.8-5.9,2.6-7.3,4.1c-2.6,2.8-3.7,6.2-4.1,8.8c-18.3,7-35.6,16.6-51.2,28.6
			c-16.4,12.5-30.7,27.4-42.7,44.1c-24.8,34.8-37.9,75.9-37.9,118.8c0,27.7,5.4,54.5,16.1,79.8c10.3,24.4,25.1,46.3,43.9,65.1
			c18.8,18.8,40.7,33.6,65.1,43.9c25.3,10.7,52.1,16.1,79.8,16.1s54.5-5.4,79.8-16.1c24.4-10.3,46.3-25.1,65.1-43.9
			c18.8-18.8,33.6-40.7,43.9-65.1c10.7-25.3,16.1-52.1,16.1-79.8c0-42.9-13.1-84-37.9-118.8c-12-16.8-26.3-31.6-42.7-44.1
			c-15.7-12-32.9-21.6-51.2-28.6c-0.4-2.6-1.5-6-4.1-8.8c-1.5-1.5-3.8-3.3-7.3-4.1c-0.5-2-1.5-4.4-3.4-6.4c-1.8-1.9-5-4.1-10.4-4.1
			c-1.2,0-2.2,0-3,0.1c-3.8-1.1-9.5-3.9-13.9-10.8c15.8-4.8,30.1-13.3,40.6-24.2c12.2-12.7,18.9-28.2,18.9-43.7
			c0-18.8-9.5-34.3-27.5-45.1C330.3,8.8,308.6,3.7,283.5,3.7L283.5,3.7z M283.5,100.7c-15.4,0-30.1-4.7-41.3-13.3
			c-10.4-8-16.4-18.4-16.4-28.7c0-26.4,40.4-29.3,57.8-29.3s57.8,2.9,57.8,29.3c0,10.2-6,20.7-16.4,28.7
			C313.6,96,298.9,100.7,283.5,100.7L283.5,100.7z"/>
	</g>
</g>
<g id="Laag_3">
	<text transform="matrix(1 0 0 1 259.4043 230.2207)" class="st7 st8 st9">XII</text>
	<text transform="matrix(0.866 0.5 -0.5 0.866 340.0425 243.278)" class="st7 st10 st9">I</text>
	<text transform="matrix(0.5 0.866 -0.866 0.5 386.4467 281.849)" class="st7 st10 st9">II</text>
	<text transform="matrix(0 1 -1 0 410.3506 337.6895)" class="st7 st8 st9">III</text>
	<text transform="matrix(-0.5 0.866 -0.866 -0.5 402.9093 403.9584)" class="st7 st10 st9">IV</text>
	<text transform="matrix(-0.866 0.5 -0.5 -0.866 358.5476 460.1939)" class="st7 st10 st9">V</text>
	<text transform="matrix(-1 0 0 -1 302.6816 483.9971)" class="st7 st8 st9">VI</text>
	<text transform="matrix(-0.866 -0.5 0.5 -0.866 241.5638 479.4118)" class="st7 st10 st9">VII</text>
	<text transform="matrix(-0.5 -0.866 0.866 -0.5 188.9516 447.0466)" class="st7 st10 st9">VIII</text>
	<text transform="matrix(0 -1 1 0 156.5762 375.4502)" class="st7 st8 st9">IX</text>
	<text transform="matrix(0.5 -0.866 0.866 0.5 167.3159 304.5456)" class="st7 st10 st9">X</text>
	<text transform="matrix(0.866 -0.5 0.5 0.866 204.1876 256.4437)" class="st7 st10 st9">XI</text>
	<path d="M401.8,289.5c-26.2,15.1-36.9,7.2-48.1,14.3c-11.2,7.1,9.3,4.5-5.7,13.2c-41.1,23.7-35.9,12.7-54.6,23.5
		c-14.6,8.4-9.5,17.1-9.5,17.1s4.9,8.7,19.5,0.2c18.7-10.8,6.6-11.8,47.7-35.5c14.9-8.6,2.5,7.8,14.2,1.7
		C377.1,317.8,375.5,304.6,401.8,289.5z"/>
	<ellipse transform="matrix(0.866 -0.5 0.5 0.866 -114.263 216.2219)" cx="346.3" cy="321.3" rx="4.7" ry="8.3"/>
	<ellipse transform="matrix(0.866 -0.5 0.5 0.866 -116.8843 213.6006)" cx="340.1" cy="324.9" rx="4.7" ry="8.3"/>
	<g>
		<path d="M188.5,302.3c26.2,15.1,24.6,28.3,36.4,34.5c11.8,6.1-0.7-10.3,14.2-1.7c12.9,7.4,5.8,11.3,24.5,22.1
			c14.6,8.4,19.5-0.3,19.5-0.3s5.1-8.5-9.5-17c-18.7-10.8-19-3-31.4-10.1c-14.9-8.6,5.5-6-5.7-13.2
			C225.3,309.4,214.7,317.4,188.5,302.3z"/>
		<ellipse transform="matrix(0.5 -0.866 0.866 0.5 -167.5577 379.8593)" cx="245.2" cy="335" rx="8.3" ry="4.7"/>
	</g>
	<circle cx="283.4" cy="357.2" r="8.2"/>
	<circle class="st5" cx="283.4" cy="357.2" r="6.5"/>
</g>
<g id="Laag_5">
</g>
</svg>
