<?xml version="1.0" encoding="utf-8"?>
<!-- Generator: Adobe Illustrator 22.1.0, SVG Export Plug-In . SVG Version: 6.00 Build 0)  -->
<svg version="1.1" xmlns="http://www.w3.org/2000/svg" xmlns:xlink="http://www.w3.org/1999/xlink" x="0px" y="0px"
	 viewBox="0 0 566.9 566.9" style="enable-background:new 0 0 566.9 566.9;" xml:space="preserve">
<style type="text/css">
	.st0{display:none;}
	.st1{display:inline;}
	.st2{display:inline;fill:#E30613;}
	.st3{display:inline;fill:#E52B2A;}
	.st4{display:inline;fill:#E51C24;}
	.st5{display:inline;fill:#C11718;}
	.st6{display:inline;fill:#A01916;}
	.st7{display:inline;fill:#B71918;}
	.st8{display:inline;fill:#911915;}
	.st9{display:inline;fill:#581114;}
	.st10{display:inline;fill:#E52321;}
	.st11{display:inline;fill:#8E181C;}
	.st12{display:inline;fill:#411014;}
	.st13{fill:url(#SVGID_1_);}
	.st14{fill:url(#SVGID_2_);}
	.st15{fill:url(#SVGID_3_);}
	.st16{fill:url(#SVGID_4_);}
	.st17{fill:url(#SVGID_5_);}
	.st18{fill:url(#SVGID_6_);}
	.st19{fill:url(#SVGID_7_);}
	.st20{fill:url(#SVGID_8_);}
	.st21{fill:url(#SVGID_9_);}
	.st22{fill:url(#SVGID_10_);}
	.st23{fill:url(#SVGID_11_);}
	.st24{fill:url(#SVGID_12_);}
	.st25{fill:url(#SVGID_13_);}
	.st26{fill:url(#SVGID_14_);}
	.st27{fill:#9D9D9C;}
	.st28{fill:url(#SVGID_15_);}
</style>
<g id="Laag_1" class="st0">
	<path class="st1" d="M270.8,417.1c-3.7,2-7.5,4-11.2,6.1c-6.1,3.6-11.8,8-18.3,10.8c-8.1,3.5-16.5,4.7-25.8,2.5
		c-20-4.9-31.5-18.2-40.1-35.5c-6.3-12.7-13.5-24.6-27-31.5c-4.1-2.1-7.1-6.3-10.5-9.7c-9.2-9.1-21.7-11-33-15.4
		c-2.6-1-6.4-1.1-8.8,0.1c-4.4,2.2-6.1-1-8.2-3c-2.5-2.4-1.4-4.8,0.6-7.5c2.4-3.4,3.6-7.5,5.4-11.2c4-8.2,8.9-15.7,15.8-21.8
		c1.8-1.5,3.2-3.8,4-6c5.2-13.8,3.2-27.5-1.5-40.9c-3.4-9.8-7.1-19.4-10.8-29.1c-1.3-3.5-2.9-6.8-4.1-10.3c-1-3.2-0.5-5.4,3.3-7.2
		c9.6-4.5,19-9.4,28.1-15c7.1-4.4,9.8-12.2,13.2-19.5c2.9-6.4,5.6-14.3,10.9-17.8c9.6-6.4,18-15.3,30-17.9c0.6-0.1,1.2-0.8,1.8-0.8
		c9.3,0.8,17.2-3.7,25.5-6.6c10.9-3.7,22.2-6.5,33.1-10.1c15.2-5,26.9-14.2,32.7-29.7c2.5-6.8,8.2-8.2,13.2-2.9
		c8.9,9.4,19.6,16.5,31.1,22.1c7.1,3.5,15.4,4.8,23.1,7.1c1.1,0.3,2.1,0.8,3.8,1.4c1.5-3.9,3.2-7.8,4.6-11.8c1.6-4.8,5.7-7,9.7-4
		c5.8,4.5,10.9,9.9,16.4,14.9c6,5.4,12.8,8.7,21,9.2c3.7,0.2,7.3,1.4,10.9,2.5c3.2,1,6.2,2.7,9.4,3.8c5.6,1.9,6.8,7,8.5,11.6
		c1.7,4.6,3.3,9.4,3.6,14.2c0.7,8.5,5.8,14.9,9.3,22.1c6.3,13.2,13,26.3,13.5,41.5c0.2,5.3,1.6,10.5,1.6,15.7
		c0.1,8.2-3.4,15.1-8.9,21c-7.3,7.8-14.5,15.6-22.4,24c8.5,5.3,10.2,13.1,12.9,20.4c0.4,1.2,0.6,2.7,0.3,3.9
		c-2.6,10.4-4.3,21.2-10.2,30.3c-5.1,7.9-11.1,15.4-16.8,23c-3.6,4.8-8,9.1-10.8,14.3c-6.3,11.7-11.9,23.8-17.8,35.8
		c-2.1,4.3-3.5,9.4-6.7,12.7c-3.1,3.3-7.7,5.6-12.1,7c-15.2,4.8-30.8,5.9-46.7,6.6c-14.2,0.6-27.9,4.7-39.3,14.3
		c-1.5,1.2-5.5,0.8-7.5-0.4c-1.6-0.9-2.7-4.2-2.5-6.4c0.5-6.2,1.6-12.4,2.7-18.5c0.4-2.4,1.4-4.7,2.1-7.1
		C271.5,417.9,271.1,417.5,270.8,417.1z M279.2,395.7c-4-0.6-7.6-1.7-11.1-1.6c-8.7,0.2-16.4-2.7-24.3-6.1
		c-11.1-4.9-20.7-12.1-27.4-21.4c-9.1-12.7-20.2-22.9-31.1-33.7c-6.2-6.2-11.2-13.9-15.7-21.4c-2.6-4.4-3.4-10-4.9-15.1
		c-9.6,4.2-9.6,4.2-20.5,2.1c-0.8-0.2-1.7-0.1-2.5-0.1c-9,0.8-16.9,4.3-23.7,10.1c-6.3,5.4-11.6,11.5-14.3,19.6
		c-1.2,3.7-0.3,5.5,3.7,5.6c11.9,0.4,22.4,5.9,32,11.8c9.6,5.9,17.6,14.6,26.3,22.1c6.5,5.6,12.7,11.7,15.9,19.9
		c5.1,12.9,12.5,23.8,23.6,32.5c8.9,6.9,28.2,8.1,38.1,1.8c7.2-4.6,14.7-8.8,22.2-12.8c2.9-1.6,6.4-2.1,9.9-3.2
		c-0.6-1.3-1-2.1-1.4-2.9C277.8,400.8,279.7,397.7,279.2,395.7z M319.5,162.6c-0.3-0.2,0.5,0.9,1.4,1c9.4,1.5,18.9,2.9,28.3,4.1
		c9.4,1.1,18.8,1.3,27.4,6.2c7.3,4.2,15.1,8,18.7,16.2c2.2,5,3.2,10.6,4.9,15.9c3.5,10.8,2,21.7,1.3,32.7
		c-0.6,9.1-1.4,18.3-1.7,27.4c-0.1,1.7,1.5,4.5,3.1,5.1c3.6,1.4,7.5,2.3,11.4,2.6c1.7,0.1,4-1.1,5.4-2.4c3.8-3.7,7.2-7.9,11-11.6
		c9.1-8.6,15-18.4,12.7-31.5c-1-5.8-1.7-11.8-3.7-17.3c-4.2-11-8.9-21.9-14.2-32.5c-2.6-5.3-5.4-10.1-6-16.2
		c-0.6-5.7-2.4-11.5-5-16.7c-3.9-7.8-12.2-8.8-19.6-9.4c-10.4-0.9-18.7-5-25.9-12.2c-8.1-8.1-7.8-8.7-13.4,1.2
		c-0.2,0.4-0.7,0.7-1,1.1c-7.4,12.8-21.1,19.1-30.7,29.6C322.3,157.6,321.2,159.9,319.5,162.6z M279.4,435.2
		c7.4-2.7,13.6-5.9,20.1-7c12.3-2.1,24.9-2.8,37.3-4.2c5.2-0.6,10.5-1.2,15.5-2.5c3.5-0.9,7-2.6,10-4.6c8.4-5.5,11.1-15.1,14.9-23.5
		c6.3-14,13.1-27.6,23.1-39.4c9.1-10.8,19-21.1,22.6-35.2c1.2-4.5,1.4-9.4,1-14.1c-0.7-7.6-6.6-12.4-11-17.9c-1.3-1.7-4.3-2.1-7-3.4
		c0,3.3-0.7,5.8,0.1,7.5c3.2,6.1,0.8,12.4-1.3,17.1c-3.5,7.9-9.2,15.1-15,21.7c-8.3,9.6-17.6,18.4-26.4,27.6
		c-7,7.4-13.9,14.9-20.8,22.4c-2.4,2.6-5.2,2.9-8.5,1.5c-1.4-0.6-3.5-0.5-5,0.1c-6.5,2.7-12.9,5.8-19.4,8.7
		c-3.3,1.5-7.7,2.2-9.9,4.7c-7.9,8.9-14.1,19.1-18.2,30.3C280.8,428,280.3,431.3,279.4,435.2z M186.9,173.5
		c-1.9,10-3.1,18.8-5.3,27.2c-2,7.3-4.9,14.3-7.9,21.3c-3.6,8.4-8,16.4-11.7,24.8c-2.4,5.6-4.9,11.3-6.1,17.3
		c-1.8,8.8,2,16.6,6,24.1c0.5,0.9,1.8,1.4,3.4,2.6c0.4-3.3,0.2-5.7,0.9-7.8c3.3-10.3,9.1-19.2,15.5-27.9c3.3-4.5,6.3-9.6,7.7-14.9
		c1.8-6.6,2.9-12.5,11.9-10.1c0.2-1.7,0.2-2.9,0.5-4c0.3-1.1,0.9-2,1.4-3c5.7-12.9,17.7-19.4,29.6-22.5c10.5-2.7,22.4-0.1,33.6,0.6
		c11.2,0.7,22.4,2.2,32.8-3.6c4.6-2.5,9.3-4.8,14.4-7.4c-0.6-1.6-1.3-4-2.3-6.3c-2-4.8-4.5-9.6-9.5-11.6c-10.8-4.3-22-5.3-33.2-1.8
		c-9.6,3-19,6.3-29.4,5.1c-5.2-0.6-10.6,0.1-16,0.1c-7.6-0.1-15.3-0.1-22.9-0.5C195.9,174.9,191.2,174,186.9,173.5z M223.1,283.6
		c0.4-2.6,0.6-3.4,0.6-4.2c-0.3-12.2,5.9-21.3,14-29.5c10.5-10.6,24.8-14.6,37.4-21.6c3-1.7,7-2,10.5-2c4.9,0,9.8,0.6,14.6,1.5
		c6.1,1.2,12.6,1.8,17.4,6.7c4,4.1,8,8.1,11.9,12.3c5.1,5.6,8.9,11.6,8.5,19.8c-0.2,3.4,1.4,7,2.4,10.4c0.9,2.9,2,5.8,3.2,8.6
		c1.5,3.4,3.1,2.8,4.6-0.1c2.9-5.4,6.4-10.6,8.7-16.2c5.6-13.7,4.8-27.9-3.6-39.6c-7.9-11-17.8-21.4-31.8-25.2
		c-5.3-1.4-11.1-2.4-16.7,1.2c-6.9,4.5-14.7,6.6-23,6.2c-13.2-0.7-26.4-1.5-39.6-2c-9.1-0.4-16.6,3.9-23.3,9.6
		c-9.3,7.9-8.7,18.9-8.8,29.6c0,2.4,1,4.8,1.6,7.2c1.5,6.3,2.7,12.8,4.8,18.9C217.4,277.9,220.3,280.1,223.1,283.6z M319.3,173.9
		c0.8,8.6,5.2,14.7,8.4,21.4c0.4,0.8,1.5,1.3,2.3,1.8c5.6,3.7,12.2,6.4,16.6,11.1c8.3,8.9,20,15.7,21.7,29.6
		c0.4,2.9,0.8,5.9,1.8,8.6c2.7,7.6,0.9,15.2-2.2,21.5c-5.2,10.8-7.3,21.6-6.1,33.3c0.8,8.2,1.1,16.4,1.5,24.7c0.1,1.1,0,2.4-0.5,3.4
		c-2.7,5.2-5.5,10.3-8.3,15.5c-1.8,3.4-3.4,6.8-5.1,10.2c0.7,0.5,1.3,1,2,1.5c0.1-0.7,0.1-1.5,0.5-2c12-13.4,24.2-26.7,35.9-40.3
		c5.8-6.7,9.2-14.6,6.3-23.9c-1.6-5.2-3.1-10.4-4.4-15.6c-3-11.7-3.1-23.5-0.3-35.3c1.3-5.4,1.8-11,2.1-16.6
		c0.1-3.4-1.5-6.8-1.4-10.2c0.4-6.7-1.8-12.6-5-18.1c-1.8-3.1-4.4-6.6-7.5-8.2c-10.1-5-20.8-8.2-32.3-8.5c-3.9-0.1-7.8-1.1-11.7-1.8
		C329.2,175.5,324.6,174.8,319.3,173.9z M198.3,250c-0.5,0.5-1.2,0.9-1.6,1.6c-4.6,7.2-8.5,15-13.8,21.7c-8.4,10.7-6,33.1,2.1,43.3
		c6.5,8.2,13.7,15.3,21.5,22.2c5.2,4.6,9.1,10.6,13.6,15.9c4.1,4.8,7.5,10.4,12.4,14.3c10.9,8.9,23.8,13.8,37.7,14.8
		c12.1,0.8,24.2,0.7,36.1-3.6c11.8-4.3,21.7-10.4,27.9-21.5c5.1-9,10.3-18.1,14.7-27.4c2.4-5.1,4.1-10.8,1.4-17.5
		c-3.6,3.1-6.3,6.9-9.5,10.3c-7.8,8.2-15.6,16.3-23.7,24.1c-4.4,4.2-8.7,9-14,11.7c-10.4,5.3-22,7.2-33.6,8.6
		c-10.1,1.2-24.4-6.4-27.5-15.8c-3.5-10.5-12.8-15.4-20.1-22.1c-2.5-2.3-6.4-3.1-9.3-5c-5.4-3.7-8.1-11.9-6.1-18.3
		c1.2-3.9,1-8.5,0.2-12.6c-0.9-4.9-5-9.4-1-14.7c0.6-0.7,0.3-2.3,0-3.4C203.3,267.7,200.8,259.1,198.3,250z M261.9,297.2
		c-1.9-4.2-3.7-8-5.5-11.8c-3.7-7.6-5.3-15.3,1.5-22c5.7-5.7,12.1-10.8,21.1-9.2c3.2,0.6,6.5,1.1,9.7,1.6c6,1,13.1,9.5,13,15.5
		c0,4.1-0.5,8.3,5.5,9.3c1.6,0.2,3,3.1,4.1,5c0.9,1.6,1.3,3.6,1.9,5.5c2.2,6.2,3.7,12.2-0.9,18.2c-7.4,9.7-16.2,17.5-26.9,23.4
		c-10.1,5.5-19.9,11.6-32.3,9c-0.7-0.1-1.6,0.3-2.4,0.4c2.8,10.9,10.4,16.7,20.9,15.8c4.4-0.4,8.8-1.1,13.1-2.2
		c8.3-2.1,15.9-5.6,21.7-12.2c8-9,15.3-18.9,24.2-26.8c7.4-6.5,12.1-11.9,4.9-21.1c-0.7-0.9-0.8-2.1-1.2-3.2c-3-9.1-6.9-18-8.6-27.3
		c-2.2-12.3-10.6-19.7-20-24.6c-9-4.7-20.1-4.5-30.3-0.6c-2.8,1.1-5.4,2.8-8.3,3.9c-9.9,3.7-18.9,8.7-26.4,16.2
		c-5.9,5.9-7.9,22.3-3.4,29C241.4,294.3,251.6,300.3,261.9,297.2z M285.4,97.9c-2.8,4-5.1,7.5-7.7,10.8
		c-9.1,11.6-21.5,18.8-35.3,22.5c-10.3,2.8-20,6.3-28.6,12.5c-2.1,1.5-3.2,5.3-5.3,5.8c-7.3,1.9-3.3,9-6.3,12.6
		c-0.1,0.1,1.1,1.8,1.7,1.9c5.3,0.6,10.5,1.4,15.8,1.4c7.1-0.1,14.3-0.5,21.3-1.5c9.5-1.2,19.2-2.4,28.4-4.8
		c8.6-2.3,16.8-2.3,25.3,0.1c3.4,0.9,8.5,1.6,10.7-0.3c6.8-5.6,12.5-12.6,18.9-18.6c4.9-4.6,10.4-8.7,16.8-14.1
		C318.9,121.6,302.2,109.6,285.4,97.9z M189.4,161.8c1-4.1,1.9-7.9,2.7-11.7c0.2-1.1,0.9-2.9,0.4-3.2c-0.9-0.7-2.6-1.2-3.6-0.8
		c-4.2,1.2-8.8,2-12.3,4.4c-9.9,7-19.3,14.6-24.9,25.7c-3.9,7.6-6.8,16-14.1,21.1c-6.5,4.6-13.5,8.7-20.4,12.6
		c-5.7,3.2-7.2,5.4-5.6,10.4c0.9,2.7,2.2,5.4,3.2,8.1c3.6,9.2,8.1,18.3,10.3,27.8c2.5,10.7,2.9,21.9,4.3,33.1
		c5.6-0.5,12.6-1.1,19.9-1.7c-6.8-12-7.9-24-3-35.7c5.5-13.1,12.5-25.5,18.4-38.5c2.9-6.5,5.2-13.4,6.6-20.4
		c1.5-7.4,1.3-15,2.5-22.5c0.4-2.5,2.4-5.7,4.6-6.8C181.6,162.3,185.6,162.4,189.4,161.8z M217.5,294.4c0,6.1-0.3,11.9,0.2,17.7
		c0.2,2,1.7,4.6,3.4,5.7c8.8,5.5,17.7,10.9,28.4,12c4.2,0.4,8.8,2.7,12.5,1.7c8-2.1,16.3-4.5,22.4-10.8c1-1,2.3-2,3.6-2.5
		c7.1-3,12.3-8.1,16.5-14.4c1.9-2.9,1.3-9.8-1.6-11.8c-3.5-2.5-4.6,1.8-6.7,3.1c-0.7,0.4-1.3,0.9-2.1,1.3
		c-8.1,3.5-16.7,6.2-24.2,10.7c-11.5,7.1-31.2,0.2-37.6-7.2C228.1,294.6,223.9,293.5,217.5,294.4z M292.1,278.6
		c-0.4-2.4-0.4-5-1.3-7.2c-2.6-6.2-14-10-20.6-7.1c-5.9,2.6-8.7,10.1-6.4,17.2c3.1,9.5,8.8,13.1,16.6,10.4
		C290.3,288.4,292,286.6,292.1,278.6z"/>
	<path class="st1" d="M125.7,422.2c-2,7.2-2.1,16.2-8.5,22c-4.7,4.2-9.7,8.3-16.7,10.1c-6.9,1.8-13,0.3-19.4-0.4
		c-8.4-0.9-16.5-9.3-19.7-17.5c-4.2-10.5-1.6-20.5,1.1-30.2c2.1-7.3,7-13.8,10.6-20.7c4.2-8,8.5-16,12.3-24.3c1.4-3,1.5-6.7,2.3-10
		c0.8-3.4,2.8-4.2,5.3-1.7c1.9,1.9,4.2,4.1,4.6,6.5c2.7,14.1,7.2,27,17.1,38.1C121.2,401.5,124.9,411,125.7,422.2z M91.7,377.2
		c0.1-0.1-1.2,0.1-1.6,0.8c-4.9,8.9-10.1,17.8-14.2,27.1c-2.5,5.7-3.3,12.2-4.7,18.3c-1.2,5.5,0,10.4,3.8,15
		c8.6,10.5,29.4,4.8,34.4-3c5.2-8.2,7.6-22.3-0.6-33.7C103,393.7,97.5,385.6,91.7,377.2z"/>
	<path class="st2" d="M279.2,395.7c0.5,2-1.4,5.1-5.2,7.1c0.4,0.8,0.8,1.6,1.4,2.9c-3.5,1.1-7,1.7-9.9,3.2c-7.5,4-15,8.2-22.2,12.8
		c-9.9,6.3-29.2,5.2-38.1-1.8c-11.1-8.7-18.6-19.6-23.6-32.5c-3.2-8.3-9.4-14.3-15.9-19.9c-8.7-7.5-16.6-16.2-26.3-22.1
		c-9.6-5.9-20.1-11.4-32-11.8c-3.9-0.1-4.9-1.9-3.7-5.6c2.7-8.1,8-14.2,14.3-19.6c6.8-5.9,14.7-9.4,23.7-10.1
		c0.8-0.1,1.7-0.1,2.5,0.1c11,2.1,11,2.1,20.5-2.1c1.6,5.1,2.3,10.7,4.9,15.1c4.5,7.6,9.5,15.3,15.7,21.4
		c10.9,10.8,22.1,21,31.1,33.7c6.7,9.4,16.3,16.6,27.4,21.4c7.9,3.5,15.5,6.4,24.3,6.1C271.6,394,275.2,395.1,279.2,395.7z"/>
	<path class="st3" d="M319.5,162.6c1.7-2.7,2.8-5,4.5-6.9c9.6-10.5,23.2-16.8,30.7-29.6c0.2-0.4,0.7-0.7,1-1.1
		c5.6-9.9,5.2-9.3,13.4-1.2c7.3,7.2,15.5,11.3,25.9,12.2c7.4,0.6,15.7,1.6,19.6,9.4c2.5,5.1,4.4,11,5,16.7c0.7,6.1,3.4,11,6,16.2
		c5.2,10.6,9.9,21.5,14.2,32.5c2.1,5.5,2.7,11.5,3.7,17.3c2.3,13.1-3.6,22.9-12.7,31.5c-3.9,3.7-7.2,7.9-11,11.6
		c-1.4,1.3-3.6,2.6-5.4,2.4c-3.9-0.3-7.8-1.1-11.4-2.6c-1.5-0.6-3.1-3.4-3.1-5.1c0.3-9.2,1-18.3,1.7-27.4
		c0.8-10.9,2.2-21.9-1.3-32.7c-1.7-5.3-2.7-10.8-4.9-15.9c-3.6-8.2-11.3-11.9-18.7-16.2c-8.6-4.9-18-5.1-27.4-6.2
		c-9.5-1.1-18.9-2.6-28.3-4.1C320,163.5,319.2,162.4,319.5,162.6z"/>
	<path class="st4" d="M279.4,435.2c0.9-3.8,1.4-7.1,2.5-10.2c4-11.3,10.3-21.4,18.2-30.3c2.2-2.5,6.5-3.1,9.9-4.7
		c6.4-2.9,12.8-5.9,19.4-8.7c1.5-0.6,3.6-0.7,5-0.1c3.3,1.4,6.1,1.1,8.5-1.5c7-7.4,13.8-15,20.8-22.4c8.8-9.2,18-18,26.4-27.6
		c5.8-6.6,11.5-13.8,15-21.7c2.1-4.7,4.4-11.1,1.3-17.1c-0.9-1.7-0.1-4.2-0.1-7.5c2.7,1.2,5.6,1.7,7,3.4c4.3,5.5,10.3,10.4,11,17.9
		c0.4,4.6,0.2,9.6-1,14.1c-3.7,14.1-13.6,24.5-22.6,35.2c-10,11.8-16.8,25.4-23.1,39.4c-3.8,8.4-6.5,17.9-14.9,23.5
		c-3.1,2-6.5,3.7-10,4.6c-5.1,1.3-10.3,1.9-15.5,2.5c-12.4,1.4-25,2.2-37.3,4.2C293,429.2,286.8,432.5,279.4,435.2z"/>
	<path class="st5" d="M186.9,173.5c4.3,0.5,8.9,1.4,13.6,1.7c7.6,0.4,15.3,0.4,22.9,0.5c5.3,0,10.7-0.7,16-0.1
		c10.4,1.2,19.8-2.1,29.4-5.1c11.2-3.5,22.4-2.5,33.2,1.8c5,2,7.5,6.8,9.5,11.6c1,2.3,1.7,4.8,2.3,6.3c-5.1,2.6-9.9,4.8-14.4,7.4
		c-10.5,5.8-21.6,4.3-32.8,3.6c-11.2-0.7-23.2-3.3-33.6-0.6c-12,3.1-23.9,9.6-29.6,22.5c-0.4,1-1.1,2-1.4,3c-0.3,1.1-0.3,2.2-0.5,4
		c-9-2.4-10.2,3.4-11.9,10.1c-1.4,5.3-4.4,10.4-7.7,14.9c-6.4,8.7-12.2,17.6-15.5,27.9c-0.7,2.1-0.6,4.5-0.9,7.8
		c-1.6-1.2-2.9-1.6-3.4-2.6c-4-7.5-7.9-15.4-6-24.1c1.2-5.9,3.7-11.7,6.1-17.3c3.7-8.4,8-16.4,11.7-24.8c3-6.9,6-14,7.9-21.3
		C183.9,192.2,185,183.5,186.9,173.5z"/>
	<path class="st6" d="M223.1,283.6c-2.9-3.5-5.7-5.7-6.7-8.5c-2.1-6.1-3.3-12.6-4.8-18.9c-0.6-2.4-1.6-4.8-1.6-7.2
		c0.1-10.7-0.5-21.7,8.8-29.6c6.7-5.7,14.1-9.9,23.3-9.6c13.2,0.5,26.4,1.3,39.6,2c8.4,0.4,16.2-1.7,23-6.2
		c5.6-3.7,11.3-2.6,16.7-1.2c14,3.8,23.9,14.1,31.8,25.2c8.4,11.7,9.3,25.9,3.6,39.6c-2.3,5.6-5.8,10.8-8.7,16.2
		c-1.5,2.8-3.1,3.5-4.6,0.1c-1.2-2.8-2.3-5.7-3.2-8.6c-1-3.4-2.5-7-2.4-10.4c0.4-8.1-3.4-14.2-8.5-19.8c-3.9-4.2-7.9-8.2-11.9-12.3
		c-4.7-4.9-11.2-5.5-17.4-6.7c-4.8-0.9-9.7-1.5-14.6-1.5c-3.5,0-7.5,0.3-10.5,2c-12.5,7-26.9,11-37.4,21.6
		c-8.1,8.2-14.3,17.3-14,29.5C223.7,280.2,223.5,281,223.1,283.6z"/>
	<path class="st7" d="M319.3,173.9c5.4,0.8,9.9,1.5,14.4,2.2c3.9,0.6,7.8,1.7,11.7,1.8c11.5,0.3,22.2,3.4,32.3,8.5
		c3.1,1.5,5.6,5,7.5,8.2c3.2,5.5,5.4,11.4,5,18.1c-0.2,3.4,1.5,6.8,1.4,10.2c-0.2,5.6-0.8,11.2-2.1,16.6
		c-2.8,11.9-2.7,23.6,0.3,35.3c1.3,5.2,2.8,10.4,4.4,15.6c2.9,9.3-0.5,17.2-6.3,23.9c-11.7,13.6-24,26.9-35.9,40.3
		c-0.4,0.4-0.3,1.3-0.5,2c-0.7-0.5-1.3-1-2-1.5c1.7-3.4,3.4-6.8,5.1-10.2c2.7-5.2,5.6-10.3,8.3-15.5c0.5-1,0.6-2.2,0.5-3.4
		c-0.4-8.2-0.7-16.5-1.5-24.7c-1.2-11.8,0.9-22.6,6.1-33.3c3.1-6.3,4.9-13.9,2.2-21.5c-1-2.7-1.4-5.7-1.8-8.6
		c-1.8-13.9-13.4-20.7-21.7-29.6c-4.4-4.7-11-7.5-16.6-11.1c-0.8-0.5-1.9-1-2.3-1.8C324.5,188.7,320.1,182.5,319.3,173.9z"/>
	<path class="st8" d="M198.3,250c2.5,9.1,5,17.7,7.3,26.4c0.3,1.1,0.6,2.7,0,3.4c-4,5.3,0.1,9.8,1,14.7c0.7,4.1,1,8.7-0.2,12.6
		c-1.9,6.4,0.7,14.5,6.1,18.3c2.9,2,6.8,2.7,9.3,5c7.3,6.7,16.6,11.7,20.1,22.1c3.1,9.4,17.4,17,27.5,15.8
		c11.6-1.4,23.2-3.3,33.6-8.6c5.3-2.7,9.6-7.4,14-11.7c8.1-7.9,16-16,23.7-24.1c3.2-3.4,5.9-7.2,9.5-10.3c2.7,6.7,1.1,12.4-1.4,17.5
		c-4.4,9.4-9.6,18.4-14.7,27.4c-6.3,11.1-16.1,17.2-27.9,21.5c-11.9,4.3-24,4.5-36.1,3.6c-13.9-1-26.8-5.9-37.7-14.8
		c-4.8-3.9-8.3-9.5-12.4-14.3c-4.5-5.4-8.4-11.4-13.6-15.9c-7.8-6.8-15-14-21.5-22.2c-8.1-10.2-10.5-32.6-2.1-43.3
		c5.3-6.7,9.2-14.4,13.8-21.7C197.1,250.9,197.8,250.4,198.3,250z"/>
	<path class="st9" d="M261.9,297.2c-10.4,3-20.6-2.9-24.3-8.3c-4.5-6.6-2.5-23.1,3.4-29c7.5-7.5,16.5-12.5,26.4-16.2
		c2.8-1.1,5.4-2.8,8.3-3.9c10.2-3.9,21.3-4.1,30.3,0.6c9.4,4.8,17.8,12.3,20,24.6c1.7,9.3,5.6,18.2,8.6,27.3
		c0.4,1.1,0.5,2.4,1.2,3.2c7.2,9.2,2.5,14.5-4.9,21.1c-9,7.9-16.2,17.7-24.2,26.8c-5.8,6.6-13.4,10.2-21.7,12.2
		c-4.3,1.1-8.7,1.8-13.1,2.2c-10.5,0.9-18.1-4.9-20.9-15.8c0.8-0.2,1.6-0.6,2.4-0.4c12.3,2.6,22.2-3.5,32.3-9
		c10.7-5.9,19.5-13.7,26.9-23.4c4.5-5.9,3.1-12,0.9-18.2c-0.7-1.8-1-3.8-1.9-5.5c-1.1-1.9-2.5-4.8-4.1-5c-6.1-0.9-5.6-5.1-5.5-9.3
		c0.1-5.9-7.1-14.5-13-15.5c-3.2-0.5-6.5-1.1-9.7-1.6c-9.1-1.6-15.4,3.5-21.1,9.2c-6.8,6.7-5.1,14.4-1.5,22
		C258.3,289.3,260,293.1,261.9,297.2z"/>
	<path class="st2" d="M285.4,97.9c16.8,11.8,33.5,23.7,55.8,28.3c-6.5,5.4-11.9,9.4-16.8,14.1c-6.5,6.1-12.1,13.1-18.9,18.6
		c-2.2,1.8-7.3,1.2-10.7,0.3c-8.5-2.4-16.6-2.4-25.3-0.1c-9.3,2.4-18.9,3.6-28.4,4.8c-7.1,0.9-14.2,1.4-21.3,1.5
		c-5.3,0.1-10.5-0.8-15.8-1.4c-0.7-0.1-1.8-1.8-1.7-1.9c3.1-3.7-0.9-10.7,6.3-12.6c2.1-0.6,3.2-4.3,5.3-5.8
		c8.6-6.2,18.3-9.7,28.6-12.5c13.8-3.7,26.2-10.9,35.3-22.5C280.3,105.4,282.6,101.8,285.4,97.9z"/>
	<path class="st10" d="M189.4,161.8c-3.9,0.7-7.8,0.6-10.9,2.1c-2.2,1.1-4.2,4.3-4.6,6.8c-1.2,7.4-1,15.1-2.5,22.5
		c-1.4,7-3.7,13.9-6.6,20.4c-5.8,13-12.9,25.4-18.4,38.5c-4.9,11.7-3.8,23.7,3,35.7c-7.3,0.6-14.3,1.2-19.9,1.7
		c-1.4-11.2-1.8-22.4-4.3-33.1c-2.3-9.6-6.8-18.6-10.3-27.8c-1-2.7-2.3-5.3-3.2-8.1c-1.7-5-0.1-7.2,5.6-10.4c7-3.9,13.9-8,20.4-12.6
		c7.3-5.1,10.2-13.5,14.1-21.1c5.6-11.1,15-18.8,24.9-25.7c3.4-2.4,8.1-3.2,12.3-4.4c1.1-0.3,2.7,0.1,3.6,0.8
		c0.4,0.3-0.2,2.1-0.4,3.2C191.3,153.9,190.4,157.7,189.4,161.8z"/>
	<path class="st11" d="M217.5,294.4c6.4-0.9,10.6,0.3,14.9,5.2c6.4,7.4,26.1,14.3,37.6,7.2c7.4-4.6,16.1-7.2,24.2-10.7
		c0.7-0.3,1.4-0.8,2.1-1.3c2.1-1.3,3.2-5.6,6.7-3.1c2.9,2,3.5,9,1.6,11.8c-4.2,6.3-9.4,11.5-16.5,14.4c-1.3,0.6-2.6,1.5-3.6,2.5
		c-6.1,6.4-14.4,8.7-22.4,10.8c-3.8,1-8.3-1.2-12.5-1.7c-10.7-1.1-19.6-6.5-28.4-12c-1.7-1.1-3.2-3.7-3.4-5.7
		C217.2,306.3,217.5,300.4,217.5,294.4z"/>
	<path class="st12" d="M292.1,278.6c-0.1,7.9-1.7,9.8-11.7,13.2c-7.8,2.7-13.5-0.9-16.6-10.4c-2.3-7.2,0.4-14.6,6.4-17.2
		c6.6-2.9,18,0.9,20.6,7.1C291.7,273.6,291.6,276.2,292.1,278.6z"/>
	<path class="st2" d="M91.7,377.2c5.9,8.4,11.4,16.5,17.1,24.4c8.3,11.4,5.9,25.5,0.6,33.7c-5,7.9-25.8,13.6-34.4,3
		c-3.8-4.6-5-9.4-3.8-15c1.3-6.2,2.1-12.6,4.7-18.3c4.1-9.3,9.4-18.1,14.2-27.1C90.5,377.3,91.8,377.2,91.7,377.2z"/>
</g>
<g id="Laag_2">
	<linearGradient id="SVGID_1_" gradientUnits="userSpaceOnUse" x1="73.5041" y1="148.442" x2="204.0903" y2="223.836">
		<stop  offset="0" style="stop-color:#D50F22"/>
		<stop  offset="0.1025" style="stop-color:#D01021"/>
		<stop  offset="0.2502" style="stop-color:#C2121F"/>
		<stop  offset="0.4255" style="stop-color:#AB131B"/>
		<stop  offset="0.6202" style="stop-color:#8D1313"/>
		<stop  offset="0.7752" style="stop-color:#71100B"/>
	</linearGradient>
	<path class="st13" d="M87.7,311.7c0,0-0.2-48.3-8.2-69.3s-16.2-54-25.1-60.8c0,0,9.3-12.3,25.1-17.6c37.7-12.7,40.5-30.8,49.1-49.4
		c13.9-30,35.6-48.1,50.8-51c15.2-2.9,46.9,3.6,46.9,3.6l6.7,96.8l-75.6,140.9l-33.7,41.8L87.7,311.7z"/>
	<linearGradient id="SVGID_2_" gradientUnits="userSpaceOnUse" x1="226.5205" y1="44.4433" x2="305.9112" y2="181.9519">
		<stop  offset="0" style="stop-color:#D50F22"/>
		<stop  offset="8.093656e-02" style="stop-color:#CF1021"/>
		<stop  offset="0.199" style="stop-color:#C1121F"/>
		<stop  offset="0.3399" style="stop-color:#AA131A"/>
		<stop  offset="0.4969" style="stop-color:#8B1213"/>
		<stop  offset="0.6142" style="stop-color:#71100B"/>
	</linearGradient>
	<path class="st14" d="M149.8,185.3c0,0-32.7-63.3,20.2-92.4c24.2-13.3,71.9-32.6,84.9-44.1c13-11.6,31.6-28.9,33.1-39.8
		c0,0,20.3,6.7,28.4,20.3c8.1,13.6,40.5,23.9,53.6,26.8c13,2.9,22,3.4,29.8,14.7s-19,68.1-19,68.1l-107.8,50.9l-107-4.6L149.8,185.3
		z"/>
	<linearGradient id="SVGID_3_" gradientUnits="userSpaceOnUse" x1="136.7656" y1="448.1828" x2="263.6165" y2="321.332">
		<stop  offset="0" style="stop-color:#D50F22"/>
		<stop  offset="0.1177" style="stop-color:#D21022"/>
		<stop  offset="0.2144" style="stop-color:#CB1121"/>
		<stop  offset="0.3038" style="stop-color:#BE121E"/>
		<stop  offset="0.3887" style="stop-color:#AD131B"/>
		<stop  offset="0.4704" style="stop-color:#971316"/>
		<stop  offset="0.5487" style="stop-color:#7C110F"/>
		<stop  offset="0.5786" style="stop-color:#71100B"/>
	</linearGradient>
	<path class="st15" d="M326.6,474.7c0,0-33.5,3-43,11c-9.5,8.1-37.9,24.2-60.9,19.1s-50.7-46.2-64.6-71.9
		c-13.9-25.7-83.6-90.9-119.5-82.9c0,0-6.4-14.8,3.7-33.5s38.9-37.6,55-36.1s35.6,6.8,45.7-2.8c10-9.6,90.7,69.3,90.7,69.3l144.4,89
		L326.6,474.7z"/>
	<linearGradient id="SVGID_4_" gradientUnits="userSpaceOnUse" x1="366.2361" y1="335.7928" x2="471.4699" y2="441.0265">
		<stop  offset="0.3708" style="stop-color:#71100B"/>
		<stop  offset="0.5126" style="stop-color:#911315"/>
		<stop  offset="0.6623" style="stop-color:#AE131B"/>
		<stop  offset="0.7987" style="stop-color:#C3121F"/>
		<stop  offset="0.9158" style="stop-color:#D01022"/>
		<stop  offset="1" style="stop-color:#D50F22"/>
	</linearGradient>
	<path class="st16" d="M520.2,244.9c0,0,23.3,33.2,13.6,70.4c-15.6,60-55.6,56.3-71.4,102c-5.7,16.6-17.9,65.5-40.8,67.2
		c-22.9,1.6-114.4,3.7-130.1,21.4c0,0-11.4-17.5-3-41c8.4-23.5,25.4-29.4,23.4-39.7c-2-10.4,147.4-182.2,147.4-182.2l39.7-12.8
		L520.2,244.9z"/>
	<linearGradient id="SVGID_5_" gradientUnits="userSpaceOnUse" x1="185.0455" y1="412.9634" x2="257.0144" y2="340.9945">
		<stop  offset="0" style="stop-color:#A5151B"/>
		<stop  offset="6.149369e-02" style="stop-color:#A1151A"/>
		<stop  offset="0.1404" style="stop-color:#971418"/>
		<stop  offset="0.2287" style="stop-color:#871313"/>
		<stop  offset="0.317" style="stop-color:#71100B"/>
	</linearGradient>
	<path class="st17" d="M134.8,313.1c0,0,5.2,48.9,31,80.6c31.2,0,43,44.2,79.3,47.9c23,0,47.8,2.2,62-1.3
		c14.1-3.5-36.6-85.9-36.6-85.9l-58-38.5L134.8,313.1z"/>
	<linearGradient id="SVGID_6_" gradientUnits="userSpaceOnUse" x1="483.624" y1="117.4552" x2="365.0768" y2="236.0024">
		<stop  offset="0" style="stop-color:#D50F22"/>
		<stop  offset="7.805213e-02" style="stop-color:#D01021"/>
		<stop  offset="0.1907" style="stop-color:#C2121F"/>
		<stop  offset="0.3242" style="stop-color:#AB131B"/>
		<stop  offset="0.4725" style="stop-color:#8D1313"/>
		<stop  offset="0.5906" style="stop-color:#71100B"/>
	</linearGradient>
	<path class="st18" d="M316.6,127.6c0,0-9.7-27,29-44.1s13.9-41,37-49.9c0,0,20.4,27.6,34.2,30.6c13.8,3,46.6,21.8,51.2,52.8
		c7.2,48.3,56.7,64.6,71.6,81.7s-6,42.3-22.8,60.9c-16.9,18.5-16.1,44.2-47.4,45.5s-39.3-4.1-39.3-4.1L316.6,127.6z"/>
	<linearGradient id="SVGID_7_" gradientUnits="userSpaceOnUse" x1="321.9182" y1="261.0623" x2="472.4322" y2="261.0623">
		<stop  offset="0.3021" style="stop-color:#71100B"/>
		<stop  offset="0.4744" style="stop-color:#861313"/>
		<stop  offset="0.7016" style="stop-color:#9E151A"/>
		<stop  offset="0.8849" style="stop-color:#AD151D"/>
		<stop  offset="1" style="stop-color:#B2161F"/>
	</linearGradient>
	<path class="st19" d="M321.9,115.1c0,0,22.6-11.3,39.7-5.6c17.1,5.7,57.7,15.1,82.5,29c24.8,13.8,9.3,111.1,21.7,123.7
		c12.4,12.5,6,51.2-7.9,86.3s-39.8,62.2-75,65.9C347.6,417.9,321.9,115.1,321.9,115.1z"/>
	<linearGradient id="SVGID_8_" gradientUnits="userSpaceOnUse" x1="306.9868" y1="306.348" x2="393.3899" y2="409.3192">
		<stop  offset="0.3415" style="stop-color:#71100B"/>
		<stop  offset="0.5059" style="stop-color:#831212"/>
		<stop  offset="0.6964" style="stop-color:#941417"/>
		<stop  offset="0.8672" style="stop-color:#9E151A"/>
		<stop  offset="1" style="stop-color:#A2151B"/>
	</linearGradient>
	<path class="st20" d="M219.6,379.7c0,0,18.3,72.4,87.5,60.7c26.7-4.5,79.1-15.5,94.1-40.1c15-24.6,29-21.5,45.4-46.7
		c-10.8-29.5,10.6-70.7-8.8-80.7C418.3,262.7,219.6,379.7,219.6,379.7z"/>
	<linearGradient id="SVGID_9_" gradientUnits="userSpaceOnUse" x1="184.7916" y1="105.3187" x2="272.3435" y2="256.963">
		<stop  offset="0" style="stop-color:#AA151D"/>
		<stop  offset="0.1889" style="stop-color:#A7151C"/>
		<stop  offset="0.357" style="stop-color:#A1151A"/>
		<stop  offset="0.5172" style="stop-color:#951417"/>
		<stop  offset="0.6716" style="stop-color:#851312"/>
		<stop  offset="0.8168" style="stop-color:#71100B"/>
	</linearGradient>
	<path class="st21" d="M156,324c0,0-54.8-11.4-33.6-79.1s34.5-61.3,35.7-124.2c21.1-12.8,54.3,15.6,102.4,9.1
		c44-6,35.7-19.6,73.7-13.8c38.1,5.8,52.8,29.4,51.7,54.1S156,324,156,324z"/>
	<linearGradient id="SVGID_10_" gradientUnits="userSpaceOnUse" x1="152.9116" y1="280.4124" x2="267.3548" y2="280.4124">
		<stop  offset="0" style="stop-color:#9A1418"/>
		<stop  offset="0.1208" style="stop-color:#951417"/>
		<stop  offset="0.295" style="stop-color:#891314"/>
		<stop  offset="0.5006" style="stop-color:#75110D"/>
		<stop  offset="0.5389" style="stop-color:#71100B"/>
	</linearGradient>
	<path class="st22" d="M219.6,179.8c0,0-33.6-12.8-47.8,6.8c-14.1,19.6-20.4,50.7-15.2,74.5c5.8,26.8-14.4,48.5,4.8,72.1
		c19.2,23.6,46.7,43.8,58.2,46.5c11.5,2.7,23.7,11.3,45.9-1C278.4,371.5,219.6,179.8,219.6,179.8z"/>
	<radialGradient id="SVGID_11_" cx="313.3316" cy="241.6943" r="108.0573" gradientUnits="userSpaceOnUse">
		<stop  offset="0.5389" style="stop-color:#590C02"/>
		<stop  offset="1" style="stop-color:#8E1315"/>
	</radialGradient>
	<path class="st23" d="M259.1,324c0,0-48.4-0.8-56-27.9s-24.6-40.3-16.3-71.5s8-40,46.8-48.3s59.5-3.7,78.5-6.4
		c19-2.7,36.3-13.9,57.8-9.5c21.5,4.4,64.3,39.8,69.7,61c5.5,21.2,0.8,43.1-4,59s-11.5,34.6-24.6,38.2L259.1,324z"/>
	<radialGradient id="SVGID_12_" cx="313.4351" cy="294.8337" r="93.3892" gradientUnits="userSpaceOnUse">
		<stop  offset="0.5389" style="stop-color:#5F0D04"/>
		<stop  offset="0.636" style="stop-color:#630E05"/>
		<stop  offset="0.7604" style="stop-color:#6E100A"/>
		<stop  offset="0.8989" style="stop-color:#7F1210"/>
		<stop  offset="1" style="stop-color:#8E1315"/>
	</radialGradient>
	<path class="st24" d="M317.3,291.1c0,0-32.7,25.1-58.2,18.5s-42.2-22.4-34.1-40.7c8.1-18.3,13.8-35.5,33.9-48s43.2-22.2,59.4-22.2
		s43.2,1,54.4,15.8c11.2,14.8,16.8,42.5,22.4,58.4c5.6,15.9,10.5,33.4,8.5,47.8c-2.4,17.7-20.3,26.2-17.5,53.5
		c-25.2,20.7-86.9,19.4-105,11.8c-18.1-7.6-35.1-17.3-35.1-22.9S317.3,291.1,317.3,291.1z"/>
	<radialGradient id="SVGID_13_" cx="305.0276" cy="281.6251" r="29.0966" gradientUnits="userSpaceOnUse">
		<stop  offset="0" style="stop-color:#5B0C03"/>
		<stop  offset="1" style="stop-color:#540A00"/>
	</radialGradient>
	<path class="st25" d="M274.5,277.3c0,11.6-4.7,32.2,30.3,31.7c35-0.6,47.1-48.4,0-54.7C304.8,254.3,274.5,252.3,274.5,277.3z"/>
	<linearGradient id="SVGID_14_" gradientUnits="userSpaceOnUse" x1="277.006" y1="362.9894" x2="277.006" y2="268.857">
		<stop  offset="0" style="stop-color:#A2151B"/>
		<stop  offset="0.6044" style="stop-color:#610D05"/>
	</linearGradient>
	<path class="st26" d="M335.8,276.8c0,0,35.5,17,20.4,34.8S311.6,363,253.1,363s-59-56.3-59-60.7c0-20.9,23.8-27.2,30.9-33.4
		C225,268.9,272.2,348.7,335.8,276.8z"/>
	<path class="st27" d="M360.7,116.9"/>
	<g>
		<g>
			<path d="M288,9c0,0,20.3,6.7,28.4,20.3c8.1,13.5,40.5,23.9,53.5,26.8c1.6-9.4,1-17.9,12.7-22.4c0,0,20.4,27.6,34.2,30.6
				c13.8,3,46.6,21.8,51.2,52.8c7.2,48.3,56.7,64.6,71.6,81.7c12.8,14.7-0.8,35.4-15.6,52.7c6.2,11.4,16.8,36.6,9.7,63.9
				c-15.6,60-55.6,56.3-71.4,102c-5.7,16.6-17.9,65.5-40.8,67.2c-22.9,1.6-114.4,3.7-130.1,21.4c0,0-5.5-8.4-6-21.3
				c-0.7,0.4-1.3,0.8-1.8,1.3c-8.3,7-30.7,20.1-51.5,20.1c-3.2,0-6.3-0.3-9.4-1c-23-5.1-50.7-46.2-64.6-71.9
				c-13.1-24.2-75.7-83.5-113-83.5c-2.3,0-4.5,0.2-6.5,0.7c0,0-6.4-14.8,3.7-33.5c8-15,28-30,44-34.7c-1.1-14-3.1-29.8-6.9-39.6
				c-8-21-16.2-54-25.1-60.8c0,0,9.3-12.3,25.1-17.6c37.7-12.7,40.5-30.8,49.1-49.4c13.9-30,35.6-48.1,50.8-51
				c2.8-0.5,6.1-0.7,9.6-0.7c12.8,0,28.8,2.8,34.8,3.9c13.7-6.7,25.5-13,31.1-18C267.9,37.2,286.5,19.9,288,9 M283.8,2.3L283,8.3
				c-1.4,10-24,30.1-31.5,36.8c-5.4,4.8-18.5,11.6-28.5,16.5c-7.2-1.3-22-3.7-34.1-3.7c-4.1,0-7.7,0.3-10.6,0.8
				c-8.8,1.7-18.9,7.6-28.4,16.6c-10.3,9.8-19.2,22.6-26,37.2c-1.2,2.5-2.2,5-3.3,7.5c-6.6,15.6-12.3,29-42.9,39.3
				C60.8,165,50.8,178,50.4,178.6l-3,4l4,3c5.2,3.9,11.7,23.9,16.5,38.4c2.3,6.9,4.6,14.1,6.9,20.2c2.7,7.1,4.8,18.9,6.2,34.3
				c-17,6.3-35.3,21.4-43,35.8c-11.1,20.6-4.1,37.2-3.8,37.8l1.6,3.8l4-0.9c1.7-0.4,3.5-0.6,5.4-0.6c15,0,37.7,11.5,62.4,31.6
				c22.8,18.6,40.5,38.9,46.2,49.3c6.1,11.2,38,67.7,67.9,74.4c3.3,0.7,6.8,1.1,10.5,1.1c18.3,0,37.9-9.4,49.4-17.2
				c1.9,9.1,5.5,14.7,5.7,15l3.6,5.5l4.3-4.9c2.8-3.2,12.8-9.2,47.8-13.7c23.1-3,48.7-4.3,65.7-5.2c5.4-0.3,10-0.5,13.3-0.8
				c23.4-1.7,35.5-39.9,42.7-62.8c1-3,1.8-5.7,2.5-7.7c6.7-19.5,18.3-29.5,30.4-40.1c15.1-13.1,32.1-28,41-62.3
				c6.9-26.5-1.7-50.8-8.6-64.5c8.4-10.1,13.8-18.5,16.8-26.1c4.8-12.1,3.7-22.4-3.4-30.5c-4.7-5.4-12-10.4-20.5-16.1
				c-20.1-13.7-45.1-30.8-49.9-63c-2.8-18.6-14.5-32-23.9-40c-11.9-10.1-24.2-15.4-31.2-17c-8.7-1.9-23.8-18.6-31.2-28.6l-2.3-3.1
				l-3.5,1.4c-12.1,4.6-13.9,13.1-15.1,20.9c-16.6-4.5-39.5-13.8-45.1-23.2c-9-15-30.2-22.1-31.1-22.4L283.8,2.3L283.8,2.3z"/>
		</g>
	</g>
	
		<radialGradient id="SVGID_15_" cx="19.1667" cy="405.2081" r="49.0941" gradientTransform="matrix(0.7014 0 0 1 25.3049 0)" gradientUnits="userSpaceOnUse">
		<stop  offset="0" style="stop-color:#CD1626"/>
		<stop  offset="0.2501" style="stop-color:#CC1625"/>
		<stop  offset="0.4582" style="stop-color:#C51624"/>
		<stop  offset="0.6513" style="stop-color:#BB1621"/>
		<stop  offset="0.8342" style="stop-color:#AC151D"/>
		<stop  offset="1" style="stop-color:#9A1418"/>
	</radialGradient>
	<path class="st28" d="M61,408.6c-19.8-16.6-22.3-57.2-22.3-57.2s-2.4,40.6-22.3,57.2C2.8,420,2.5,459,38.7,459
		C75,459,74.7,420,61,408.6z"/>
	<g>
		<path d="M38.7,351.4c0,0,2.4,40.6,22.3,57.2C74.7,420,75,459,38.7,459c-36.2,0-35.9-39-22.3-50.4C36.3,392,38.7,351.4,38.7,351.4
			 M33.8,351.1c0,0.4-2.6,38.7-20.5,53.6c-9.5,7.9-13,24.6-8.1,38.1C10,456.3,22.3,464,38.7,464c16.5,0,28.7-7.7,33.6-21.2
			c4.9-13.5,1.3-30.2-8.1-38.1c-18-15-20.5-53.2-20.5-53.6L33.8,351.1L33.8,351.1L33.8,351.1z"/>
	</g>
</g>
</svg>
