<svg xmlns="http://www.w3.org/2000/svg" viewBox="0 0 566.9 566.9"><style>.st1,.st2{display:inline}.st2{fill:#e30613}</style><g id="Laag_2"><linearGradient id="SVGID_1_" gradientUnits="userSpaceOnUse" x1="73.504" y1="148.442" x2="204.09" y2="223.836"><stop offset="0" stop-color="#d50f22"/><stop offset=".102" stop-color="#d01021"/><stop offset=".25" stop-color="#c2121f"/><stop offset=".425" stop-color="#ab131b"/><stop offset=".62" stop-color="#8d1313"/><stop offset=".775" stop-color="#71100b"/></linearGradient><path d="M87.7 311.7s-.2-48.3-8.2-69.3-16.2-54-25.1-60.8c0 0 9.3-12.3 25.1-17.6 37.7-12.7 40.5-30.8 49.1-49.4 13.9-30 35.6-48.1 50.8-51 15.2-2.9 46.9 3.6 46.9 3.6L233 164l-75.6 140.9-33.7 41.8-36-35z" fill="url(#SVGID_1_)"/><linearGradient id="SVGID_2_" gradientUnits="userSpaceOnUse" x1="226.52" y1="44.443" x2="305.911" y2="181.952"><stop offset="0" stop-color="#d50f22"/><stop offset=".081" stop-color="#cf1021"/><stop offset=".199" stop-color="#c1121f"/><stop offset=".34" stop-color="#aa131a"/><stop offset=".497" stop-color="#8b1213"/><stop offset=".614" stop-color="#71100b"/></linearGradient><path d="M149.8 185.3S117.1 122 170 92.9c24.2-13.3 71.9-32.6 84.9-44.1 13-11.6 31.6-28.9 33.1-39.8 0 0 20.3 6.7 28.4 20.3 8.1 13.6 40.5 23.9 53.6 26.8 13 2.9 22 3.4 29.8 14.7s-19 68.1-19 68.1L273 189.8l-107-4.6-16.2.1z" fill="url(#SVGID_2_)"/><linearGradient id="SVGID_3_" gradientUnits="userSpaceOnUse" x1="136.766" y1="448.183" x2="263.616" y2="321.332"><stop offset="0" stop-color="#d50f22"/><stop offset=".118" stop-color="#d21022"/><stop offset=".214" stop-color="#cb1121"/><stop offset=".304" stop-color="#be121e"/><stop offset=".389" stop-color="#ad131b"/><stop offset=".47" stop-color="#971316"/><stop offset=".549" stop-color="#7c110f"/><stop offset=".579" stop-color="#71100b"/></linearGradient><path d="M326.6 474.7s-33.5 3-43 11c-9.5 8.1-37.9 24.2-60.9 19.1s-50.7-46.2-64.6-71.9C144.2 407.2 74.5 342 38.6 350c0 0-6.4-14.8 3.7-33.5s38.9-37.6 55-36.1 35.6 6.8 45.7-2.8c10-9.6 90.7 69.3 90.7 69.3l144.4 89-51.5 38.8z" fill="url(#SVGID_3_)"/><linearGradient id="SVGID_4_" gradientUnits="userSpaceOnUse" x1="366.236" y1="335.793" x2="471.47" y2="441.026"><stop offset=".371" stop-color="#71100b"/><stop offset=".513" stop-color="#911315"/><stop offset=".662" stop-color="#ae131b"/><stop offset=".799" stop-color="#c3121f"/><stop offset=".916" stop-color="#d01022"/><stop offset="1" stop-color="#d50f22"/></linearGradient><path d="M520.2 244.9s23.3 33.2 13.6 70.4c-15.6 60-55.6 56.3-71.4 102-5.7 16.6-17.9 65.5-40.8 67.2-22.9 1.6-114.4 3.7-130.1 21.4 0 0-11.4-17.5-3-41s25.4-29.4 23.4-39.7c-2-10.4 147.4-182.2 147.4-182.2l39.7-12.8 21.2 14.7z" fill="url(#SVGID_4_)"/><linearGradient id="SVGID_5_" gradientUnits="userSpaceOnUse" x1="185.046" y1="412.963" x2="257.014" y2="340.995"><stop offset="0" stop-color="#a5151b"/><stop offset=".061" stop-color="#a1151a"/><stop offset=".14" stop-color="#971418"/><stop offset=".229" stop-color="#871313"/><stop offset=".317" stop-color="#71100b"/></linearGradient><path d="M134.8 313.1s5.2 48.9 31 80.6c31.2 0 43 44.2 79.3 47.9 23 0 47.8 2.2 62-1.3 14.1-3.5-36.6-85.9-36.6-85.9l-58-38.5-77.7-2.8z" fill="url(#SVGID_5_)"/><linearGradient id="SVGID_6_" gradientUnits="userSpaceOnUse" x1="483.624" y1="117.455" x2="365.077" y2="236.002"><stop offset="0" stop-color="#d50f22"/><stop offset=".078" stop-color="#d01021"/><stop offset=".191" stop-color="#c2121f"/><stop offset=".324" stop-color="#ab131b"/><stop offset=".472" stop-color="#8d1313"/><stop offset=".591" stop-color="#71100b"/></linearGradient><path d="M316.6 127.6s-9.7-27 29-44.1 13.9-41 37-49.9c0 0 20.4 27.6 34.2 30.6 13.8 3 46.6 21.8 51.2 52.8 7.2 48.3 56.7 64.6 71.6 81.7s-6 42.3-22.8 60.9c-16.9 18.5-16.1 44.2-47.4 45.5s-39.3-4.1-39.3-4.1L316.6 127.6z" fill="url(#SVGID_6_)"/><linearGradient id="SVGID_7_" gradientUnits="userSpaceOnUse" x1="321.918" y1="261.062" x2="472.432" y2="261.062"><stop offset=".302" stop-color="#71100b"/><stop offset=".474" stop-color="#861313"/><stop offset=".702" stop-color="#9e151a"/><stop offset=".885" stop-color="#ad151d"/><stop offset="1" stop-color="#b2161f"/></linearGradient><path d="M321.9 115.1s22.6-11.3 39.7-5.6c17.1 5.7 57.7 15.1 82.5 29 24.8 13.8 9.3 111.1 21.7 123.7 12.4 12.5 6 51.2-7.9 86.3s-39.8 62.2-75 65.9c-35.3 3.5-61-299.3-61-299.3z" fill="url(#SVGID_7_)"/><linearGradient id="SVGID_8_" gradientUnits="userSpaceOnUse" x1="306.987" y1="306.348" x2="393.39" y2="409.319"><stop offset=".342" stop-color="#71100b"/><stop offset=".506" stop-color="#831212"/><stop offset=".696" stop-color="#941417"/><stop offset=".867" stop-color="#9e151a"/><stop offset="1" stop-color="#a2151b"/></linearGradient><path d="M219.6 379.7s18.3 72.4 87.5 60.7c26.7-4.5 79.1-15.5 94.1-40.1s29-21.5 45.4-46.7c-10.8-29.5 10.6-70.7-8.8-80.7-19.5-10.2-218.2 106.8-218.2 106.8z" fill="url(#SVGID_8_)"/><linearGradient id="SVGID_9_" gradientUnits="userSpaceOnUse" x1="184.792" y1="105.319" x2="272.344" y2="256.963"><stop offset="0" stop-color="#aa151d"/><stop offset=".189" stop-color="#a7151c"/><stop offset=".357" stop-color="#a1151a"/><stop offset=".517" stop-color="#951417"/><stop offset=".672" stop-color="#851312"/><stop offset=".817" stop-color="#71100b"/></linearGradient><path d="M156 324s-54.8-11.4-33.6-79.1 34.5-61.3 35.7-124.2c21.1-12.8 54.3 15.6 102.4 9.1 44-6 35.7-19.6 73.7-13.8 38.1 5.8 52.8 29.4 51.7 54.1S156 324 156 324z" fill="url(#SVGID_9_)"/><linearGradient id="SVGID_10_" gradientUnits="userSpaceOnUse" x1="152.912" y1="280.412" x2="267.355" y2="280.412"><stop offset="0" stop-color="#9a1418"/><stop offset=".121" stop-color="#951417"/><stop offset=".295" stop-color="#891314"/><stop offset=".501" stop-color="#75110d"/><stop offset=".539" stop-color="#71100b"/></linearGradient><path d="M219.6 179.8s-33.6-12.8-47.8 6.8c-14.1 19.6-20.4 50.7-15.2 74.5 5.8 26.8-14.4 48.5 4.8 72.1 19.2 23.6 46.7 43.8 58.2 46.5 11.5 2.7 23.7 11.3 45.9-1 12.9-7.2-45.9-198.9-45.9-198.9z" fill="url(#SVGID_10_)"/><radialGradient id="SVGID_11_" cx="313.332" cy="241.694" r="108.057" gradientUnits="userSpaceOnUse"><stop offset=".539" stop-color="#590c02"/><stop offset="1" stop-color="#8e1315"/></radialGradient><path d="M259.1 324s-48.4-.8-56-27.9-24.6-40.3-16.3-71.5 8-40 46.8-48.3 59.5-3.7 78.5-6.4 36.3-13.9 57.8-9.5 64.3 39.8 69.7 61c5.5 21.2.8 43.1-4 59S424.1 315 411 318.6L259.1 324z" fill="url(#SVGID_11_)"/><radialGradient id="SVGID_12_" cx="313.435" cy="294.834" r="93.389" gradientUnits="userSpaceOnUse"><stop offset=".539" stop-color="#5f0d04"/><stop offset=".636" stop-color="#630e05"/><stop offset=".76" stop-color="#6e100a"/><stop offset=".899" stop-color="#7f1210"/><stop offset="1" stop-color="#8e1315"/></radialGradient><path d="M317.3 291.1s-32.7 25.1-58.2 18.5-42.2-22.4-34.1-40.7c8.1-18.3 13.8-35.5 33.9-48s43.2-22.2 59.4-22.2 43.2 1 54.4 15.8c11.2 14.8 16.8 42.5 22.4 58.4 5.6 15.9 10.5 33.4 8.5 47.8-2.4 17.7-20.3 26.2-17.5 53.5-25.2 20.7-86.9 19.4-105 11.8-18.1-7.6-35.1-17.3-35.1-22.9s71.3-72 71.3-72z" fill="url(#SVGID_12_)"/><radialGradient id="SVGID_13_" cx="305.028" cy="281.625" r="29.097" gradientUnits="userSpaceOnUse"><stop offset="0" stop-color="#5b0c03"/><stop offset="1" stop-color="#540a00"/></radialGradient><path d="M274.5 277.3c0 11.6-4.7 32.2 30.3 31.7 35-.6 47.1-48.4 0-54.7 0 0-30.3-2-30.3 23z" fill="url(#SVGID_13_)"/><linearGradient id="SVGID_14_" gradientUnits="userSpaceOnUse" x1="277.006" y1="362.989" x2="277.006" y2="268.857"><stop offset="0" stop-color="#a2151b"/><stop offset=".604" stop-color="#610d05"/></linearGradient><path d="M335.8 276.8s35.5 17 20.4 34.8S311.6 363 253.1 363s-59-56.3-59-60.7c0-20.9 23.8-27.2 30.9-33.4 0 0 47.2 79.8 110.8 7.9z" fill="url(#SVGID_14_)"/><path d="M288 9s20.3 6.7 28.4 20.3c8.1 13.5 40.5 23.9 53.5 26.8 1.6-9.4 1-17.9 12.7-22.4 0 0 20.4 27.6 34.2 30.6 13.8 3 46.6 21.8 51.2 52.8 7.2 48.3 56.7 64.6 71.6 81.7 12.8 14.7-.8 35.4-15.6 52.7 6.2 11.4 16.8 36.6 9.7 63.9-15.6 60-55.6 56.3-71.4 102-5.7 16.6-17.9 65.5-40.8 67.2-22.9 1.6-114.4 3.7-130.1 21.4 0 0-5.5-8.4-6-21.3-.7.4-1.3.8-1.8 1.3-8.3 7-30.7 20.1-51.5 20.1-3.2 0-6.3-.3-9.4-1-23-5.1-50.7-46.2-64.6-71.9-13.1-24.2-75.7-83.5-113-83.5-2.3 0-4.5.2-6.5.7 0 0-6.4-14.8 3.7-33.5 8-15 28-30 44-34.7-1.1-14-3.1-29.8-6.9-39.6-8-21-16.2-54-25.1-60.8 0 0 9.3-12.3 25.1-17.6 37.7-12.7 40.5-30.8 49.1-49.4 13.9-30 35.6-48.1 50.8-51 2.8-.5 6.1-.7 9.6-.7 12.8 0 28.8 2.8 34.8 3.9 13.7-6.7 25.5-13 31.1-18 13.1-11.8 31.7-29.1 33.2-40m-4.2-6.7l-.8 6c-1.4 10-24 30.1-31.5 36.8-5.4 4.8-18.5 11.6-28.5 16.5-7.2-1.3-22-3.7-34.1-3.7-4.1 0-7.7.3-10.6.8-8.8 1.7-18.9 7.6-28.4 16.6-10.3 9.8-19.2 22.6-26 37.2-1.2 2.5-2.2 5-3.3 7.5-6.6 15.6-12.3 29-42.9 39.3-16.9 5.7-26.9 18.7-27.3 19.3l-3 4 4 3c5.2 3.9 11.7 23.9 16.5 38.4 2.3 6.9 4.6 14.1 6.9 20.2 2.7 7.1 4.8 18.9 6.2 34.3-17 6.3-35.3 21.4-43 35.8-11.1 20.6-4.1 37.2-3.8 37.8l1.6 3.8 4-.9c1.7-.4 3.5-.6 5.4-.6 15 0 37.7 11.5 62.4 31.6 22.8 18.6 40.5 38.9 46.2 49.3 6.1 11.2 38 67.7 67.9 74.4 3.3.7 6.8 1.1 10.5 1.1 18.3 0 37.9-9.4 49.4-17.2 1.9 9.1 5.5 14.7 5.7 15l3.6 5.5 4.3-4.9C298 506 308 500 343 495.5c23.1-3 48.7-4.3 65.7-5.2 5.4-.3 10-.5 13.3-.8 23.4-1.7 35.5-39.9 42.7-62.8 1-3 1.8-5.7 2.5-7.7 6.7-19.5 18.3-29.5 30.4-40.1 15.1-13.1 32.1-28 41-62.3 6.9-26.5-1.7-50.8-8.6-64.5 8.4-10.1 13.8-18.5 16.8-26.1 4.8-12.1 3.7-22.4-3.4-30.5-4.7-5.4-12-10.4-20.5-16.1-20.1-13.7-45.1-30.8-49.9-63-2.8-18.6-14.5-32-23.9-40-11.9-10.1-24.2-15.4-31.2-17-8.7-1.9-23.8-18.6-31.2-28.6l-2.3-3.1-3.5 1.4C368.8 33.7 367 42.2 365.8 50c-16.6-4.5-39.5-13.8-45.1-23.2-9-15-30.2-22.1-31.1-22.4l-5.8-2.1z"/><radialGradient id="SVGID_15_" cx="19.167" cy="405.208" r="49.094" gradientTransform="matrix(.7014 0 0 1 25.305 0)" gradientUnits="userSpaceOnUse"><stop offset="0" stop-color="#cd1626"/><stop offset=".25" stop-color="#cc1625"/><stop offset=".458" stop-color="#c51624"/><stop offset=".651" stop-color="#bb1621"/><stop offset=".834" stop-color="#ac151d"/><stop offset="1" stop-color="#9a1418"/></radialGradient><path d="M61 408.6c-19.8-16.6-22.3-57.2-22.3-57.2s-2.4 40.6-22.3 57.2C2.8 420 2.5 459 38.7 459c36.3 0 36-39 22.3-50.4z" fill="url(#SVGID_15_)"/><path d="M38.7 351.4S41.1 392 61 408.6C74.7 420 75 459 38.7 459c-36.2 0-35.9-39-22.3-50.4 19.9-16.6 22.3-57.2 22.3-57.2m-4.9-.3c0 .4-2.6 38.7-20.5 53.6-9.5 7.9-13 24.6-8.1 38.1C10 456.3 22.3 464 38.7 464c16.5 0 28.7-7.7 33.6-21.2 4.9-13.5 1.3-30.2-8.1-38.1-18-15-20.5-53.2-20.5-53.6h-9.9z"/></g></svg>