<svg xmlns="http://www.w3.org/2000/svg" viewBox="0 0 539.83 511.7"><defs><linearGradient id="a" x1="63.62" y1="146.11" x2="194.21" y2="221.5" gradientUnits="userSpaceOnUse"><stop offset="0" stop-color="#d50f22"/><stop offset=".13" stop-color="#ce0f20"/><stop offset=".31" stop-color="#bb0f1c"/><stop offset=".53" stop-color="#9c1015"/><stop offset=".78" stop-color="#71100b"/></linearGradient><linearGradient id="b" x1="216.64" y1="42.11" x2="296.03" y2="179.62" gradientUnits="userSpaceOnUse"><stop offset="0" stop-color="#d50f22"/><stop offset=".1" stop-color="#ce0f20"/><stop offset=".25" stop-color="#ba0f1c"/><stop offset=".43" stop-color="#9b1015"/><stop offset=".61" stop-color="#71100b"/></linearGradient><linearGradient id="c" x1="126.88" y1="445.85" x2="253.73" y2="319" gradientUnits="userSpaceOnUse"><stop offset="0" stop-color="#d50f22"/><stop offset=".14" stop-color="#d20f21"/><stop offset=".25" stop-color="#c80f1f"/><stop offset=".35" stop-color="#b60f1b"/><stop offset=".45" stop-color="#9e1015"/><stop offset=".54" stop-color="#7f100e"/><stop offset=".58" stop-color="#71100b"/></linearGradient><linearGradient id="d" x1="356.35" y1="333.46" x2="461.59" y2="438.69" gradientUnits="userSpaceOnUse"><stop offset=".37" stop-color="#71100b"/><stop offset=".39" stop-color="#76100c"/><stop offset=".58" stop-color="#9f1016"/><stop offset=".75" stop-color="#bd0f1c"/><stop offset=".9" stop-color="#cf0f21"/><stop offset="1" stop-color="#d50f22"/></linearGradient><linearGradient id="e" x1="175.16" y1="410.63" x2="247.13" y2="338.66" gradientUnits="userSpaceOnUse"><stop offset="0" stop-color="#a5151b"/><stop offset=".08" stop-color="#9f1419"/><stop offset=".19" stop-color="#8f1314"/><stop offset=".3" stop-color="#75100c"/><stop offset=".32" stop-color="#71100b"/></linearGradient><linearGradient id="f" x1="473.74" y1="115.12" x2="355.19" y2="233.67" gradientUnits="userSpaceOnUse"><stop offset="0" stop-color="#d50f22"/><stop offset=".1" stop-color="#ce0f20"/><stop offset=".24" stop-color="#bb0f1c"/><stop offset=".41" stop-color="#9c1015"/><stop offset=".59" stop-color="#71100b"/></linearGradient><linearGradient id="g" x1="312.03" y1="258.73" x2="462.55" y2="258.73" gradientUnits="userSpaceOnUse"><stop offset=".3" stop-color="#71100b"/><stop offset=".59" stop-color="#921315"/><stop offset=".84" stop-color="#aa151c"/><stop offset="1" stop-color="#b2161f"/></linearGradient><linearGradient id="h" x1="297.1" y1="304.01" x2="383.51" y2="406.99" gradientUnits="userSpaceOnUse"><stop offset=".34" stop-color="#71100b"/><stop offset=".35" stop-color="#72100b"/><stop offset=".6" stop-color="#8c1314"/><stop offset=".83" stop-color="#9c1419"/><stop offset="1" stop-color="#a2151b"/></linearGradient><linearGradient id="i" x1="174.91" y1="102.99" x2="262.46" y2="254.63" gradientUnits="userSpaceOnUse"><stop offset="0" stop-color="#aa151d"/><stop offset=".23" stop-color="#a6151c"/><stop offset=".44" stop-color="#9c1418"/><stop offset=".63" stop-color="#8a1213"/><stop offset=".82" stop-color="#71100b"/></linearGradient><linearGradient id="j" x1="143.03" y1="278.08" x2="257.47" y2="278.08" gradientUnits="userSpaceOnUse"><stop offset="0" stop-color="#9a1418"/><stop offset=".16" stop-color="#931316"/><stop offset=".4" stop-color="#801110"/><stop offset=".54" stop-color="#71100b"/></linearGradient><radialGradient id="k" cx="303.45" cy="239.36" r="108.06" gradientUnits="userSpaceOnUse"><stop offset=".54" stop-color="#590c02"/><stop offset="1" stop-color="#8e1315"/></radialGradient><radialGradient id="l" cx="303.55" cy="292.5" r="93.39" gradientUnits="userSpaceOnUse"><stop offset=".54" stop-color="#5f0d04"/><stop offset=".68" stop-color="#650e06"/><stop offset=".87" stop-color="#74100c"/><stop offset="1" stop-color="#841212"/></radialGradient><radialGradient id="m" cx="295.14" cy="279.29" r="29.1" gradientUnits="userSpaceOnUse"><stop offset="0" stop-color="#5b0c03"/><stop offset="1" stop-color="#540a00"/></radialGradient><linearGradient id="n" x1="267.12" y1="360.66" x2="267.12" y2="266.52" gradientUnits="userSpaceOnUse"><stop offset="0" stop-color="#a2151b"/><stop offset=".6" stop-color="#610d05"/></linearGradient><radialGradient id="o" cx="9.11" cy="426.33" r="43.35" gradientTransform="matrix(.85 0 0 1 26.22 0)" gradientUnits="userSpaceOnUse"><stop offset="0" stop-color="#cd1626"/><stop offset=".31" stop-color="#ca1625"/><stop offset=".57" stop-color="#bf1522"/><stop offset=".81" stop-color="#ae151e"/><stop offset="1" stop-color="#9a1418"/></radialGradient></defs><path d="M77.78 309.36S77.54 261 69.58 240s-16.16-54-25.09-60.8a57.44 57.44 0 0 1 25.09-17.58c37.67-12.69 40.47-30.81 49.1-49.41 13.93-30 35.58-48.09 50.77-51s46.89 3.62 46.89 3.62l6.66 96.83-75.63 141-33.65 41.82z" fill="url(#a)"/><path d="M139.94 183s-32.69-63.32 20.18-92.41C184.29 77.29 232 58 245 46.44s31.59-28.9 33.1-39.81c0 0 20.27 6.71 28.38 20.27S347 50.78 360 53.68s22 3.37 29.8 14.71-19 68.05-19 68.05l-107.75 50.93-107-4.64z" fill="url(#b)"/><path d="M316.71 472.4s-33.46 3-43 11-37.91 24.2-60.86 19.07-50.66-46.2-64.56-71.86-83.55-90.89-119.47-82.83c0 0-6.39-14.75 3.66-33.49s38.86-37.59 55-36.14 35.63 6.78 45.68-2.85 90.71 69.29 90.71 69.29l144.45 89z" fill="url(#c)"/><path d="M510.27 242.52s23.26 33.2 13.59 70.39c-15.6 60-55.56 56.29-71.37 102-5.73 16.55-17.89 65.54-40.84 67.18s-114.43 3.7-130.12 21.38c0 0-11.42-17.47-3-41s25.42-29.38 23.38-39.75 147.35-182.2 147.35-182.2l39.66-12.84z" fill="url(#d)"/><path d="M125 310.8s5.21 48.91 31 80.63c31.18 0 43 44.15 79.27 47.87 23 0 47.84 2.23 62-1.29s-36.61-85.88-36.61-85.88l-58-38.54z" fill="url(#e)"/><path d="M306.7 125.31s-9.75-27 29-44.11 13.9-41 37-49.93c0 0 20.44 27.57 34.2 30.56s46.58 21.76 51.2 52.76c7.19 48.26 56.69 64.57 71.6 81.72s-6 42.33-22.85 60.88-16.13 44.18-47.44 45.52-39.25-4.06-39.25-4.06z" fill="url(#f)"/><path d="M312 112.72s22.62-11.26 39.7-5.59 57.72 15.11 82.5 29 9.29 111.15 21.69 123.69S462 311 448 346s-39.83 62.23-75 65.86-61-299.14-61-299.14z" fill="url(#g)"/><path d="M209.7 377.35S228 449.74 297.21 438c26.68-4.52 79.1-15.49 94.05-40.13s28.95-21.52 45.44-46.68c-10.78-29.51 10.61-70.67-8.85-80.74S209.7 377.35 209.7 377.35z" fill="url(#h)"/><path d="M146.15 321.69s-54.81-11.45-33.55-79.11 34.5-61.26 35.67-124.21c21.13-12.84 54.31 15.63 102.4 9.09 44-6 35.67-19.6 73.72-13.84S377.22 143 376 167.69s-229.85 154-229.85 154z" fill="url(#i)"/><path d="M209.7 177.46s-33.61-12.83-47.75 6.76-20.42 50.72-15.23 74.51c5.84 26.84-14.4 48.51 4.76 72.14s46.68 43.76 58.22 46.48 23.68 11.34 45.91-1c12.95-7.17-45.91-198.89-45.91-198.89z" fill="url(#j)"/><path d="M249.22 321.69s-48.4-.83-56-27.94-24.57-40.28-16.34-71.54 8-40 46.8-48.26 59.53-3.68 78.48-6.42 36.32-13.87 57.8-9.48 64.26 39.77 69.74 61 .79 43.06-4 59-11.53 34.64-24.61 38.19z" fill="url(#k)"/><path d="M307.39 288.72s-32.73 25.12-58.17 18.51-42.24-22.39-34.1-40.71 13.77-35.54 33.86-48 43.16-22.17 59.35-22.17 43.16 1 54.35 15.77 16.79 42.46 22.39 58.38 10.48 33.4 8.55 47.82c-2.36 17.66-20.34 26.15-17.51 53.52-25.25 20.72-86.92 19.41-105 11.77S236 366.25 236 360.66s71.39-71.94 71.39-71.94z" fill="url(#l)"/><path d="M264.63 275c0 11.56-4.72 32.25 30.28 31.66s47.14-48.38 0-54.69c0 .03-30.28-1.97-30.28 23.03z" fill="url(#m)"/><path d="M325.87 274.48s35.5 17 20.43 34.78-44.61 51.4-103.13 51.4-59-56.31-59-60.71c0-20.91 23.82-27.16 30.91-33.43.04 0 47.19 79.81 110.79 7.96z" fill="url(#n)"/><path d="M278.08 6.63s20.27 6.71 28.38 20.27S346.94 50.76 360 53.67c1.63-9.44.95-17.87 12.73-22.4 0 0 20.44 27.57 34.2 30.56s46.58 21.76 51.2 52.76c7.19 48.26 56.69 64.57 71.6 81.72 12.8 14.72-.8 35.39-15.59 52.68 6.16 11.42 16.84 36.59 9.73 63.92-15.6 60-55.56 56.29-71.37 102-5.73 16.55-17.89 65.54-40.84 67.18s-114.43 3.7-130.12 21.38a45.71 45.71 0 0 1-6-21.33 15.8 15.8 0 0 0-1.77 1.27c-8.27 7-30.7 20.06-51.48 20.06a43.11 43.11 0 0 1-9.38-1c-23-5.13-50.66-46.2-64.56-71.86-13.1-24.19-75.72-83.54-113-83.54a29.9 29.9 0 0 0-6.52.68s-6.4-14.75 3.65-33.46c8-15 28-30 44-34.7-1.12-14-3.15-29.76-6.86-39.55-8-21-16.16-54-25.09-60.8a57.44 57.44 0 0 1 25.09-17.58c37.67-12.69 40.47-30.81 49.1-49.41 13.93-30 35.58-48.09 50.77-51a52.78 52.78 0 0 1 9.64-.75c12.75 0 28.77 2.76 34.8 3.89 13.66-6.68 25.54-13 31.09-18 13-11.58 31.59-28.9 33.1-39.81M274 0l-.83 6c-1.38 10-24 30.13-31.48 36.76-5.44 4.84-18.5 11.58-28.48 16.48-7.21-1.3-22-3.66-34.08-3.66a56.12 56.12 0 0 0-10.57.83C159.69 58 149.61 63.94 140.14 73c-10.26 9.79-19.25 22.64-26 37.17-1.17 2.53-2.24 5-3.26 7.46-6.61 15.57-12.32 29-42.91 39.32a62.24 62.24 0 0 0-27.47 19.3l-3 4 4 3c5.16 3.95 11.72 23.89 16.5 38.44 2.28 6.93 4.64 14.08 6.94 20.16 2.69 7.09 4.83 18.9 6.22 34.29-17 6.35-35.32 21.44-43 35.83-11.07 20.63-4.15 37.15-3.85 37.84l1.64 3.8 4-.91a25.15 25.15 0 0 1 5.43-.56c15 0 37.72 11.51 62.38 31.58 22.85 18.59 40.53 38.9 46.18 49.34 6.09 11.25 38 67.68 67.87 74.36a48.43 48.43 0 0 0 10.47 1.11c18.29 0 37.92-9.37 49.39-17.22a47.18 47.18 0 0 0 5.71 15l3.58 5.48 4.34-4.89c2.82-3.17 12.77-9.17 47.8-13.73 23.14-3 48.75-4.35 65.7-5.23 5.37-.28 10-.53 13.25-.76 23.37-1.67 35.47-39.93 42.7-62.8 1-3 1.79-5.65 2.5-7.73 6.74-19.47 18.26-29.51 30.45-40.13 15.06-13.11 32.12-28 41-62.26 6.89-26.5-1.73-50.79-8.59-64.51 8.39-10.11 13.76-18.47 16.81-26.12 4.81-12.1 3.66-22.36-3.43-30.51-4.69-5.4-12-10.39-20.48-16.15-20.11-13.71-45.13-30.76-49.94-63-2.77-18.59-14.52-32-23.88-40C427.34 63.8 415 58.45 408 56.94c-8.69-1.88-23.78-18.57-31.25-28.65l-2.26-3.06-3.55 1.37c-12.08 4.65-13.94 13.11-15.09 20.9-16.62-4.46-39.47-13.77-45.1-23.17-9-15-30.2-22.15-31.09-22.44L274 0zM34.1 375.4s21.06 42.51 26.95 57.17c5.32 13.26.15 44.7-26.95 44.7-29.35 0-32.27-31.44-26.94-44.7C13 417.91 34.1 375.4 34.1 375.4m0-11.27l-4.48 9.05c-.86 1.74-21.21 42.85-27.1 57.53-3.9 9.71-3.8 26.3 4.07 37.94 4.2 6.21 12.38 13.62 27.51 13.62 11.34 0 20.57-4.79 26.7-13.86 8.16-12.07 8.61-28.43 4.89-37.7-5.89-14.71-26.24-55.79-27.11-57.53l-4.48-9.05z" fill="#1d1d1b"/><path d="M61.05 432.57C55.16 417.91 34.1 375.4 34.1 375.4S13 417.91 7.16 432.57c-5.33 13.26-2.41 44.7 26.94 44.7 27.1 0 32.27-31.44 26.95-44.7z" fill="url(#o)"/></svg>