<?xml version="1.0" encoding="utf-8"?>
<!-- Generator: Adobe Illustrator 22.1.0, SVG Export Plug-In . SVG Version: 6.00 Build 0)  -->
<svg version="1.1" xmlns="http://www.w3.org/2000/svg" xmlns:xlink="http://www.w3.org/1999/xlink" x="0px" y="0px"
	 viewBox="0 0 566.9 566.9" style="enable-background:new 0 0 566.9 566.9;" xml:space="preserve">
<style type="text/css">
	.st0{fill:url(#SVGID_1_);}
	.st1{fill:url(#SVGID_2_);}
	.st2{fill:url(#SVGID_3_);}
	.st3{fill:url(#SVGID_4_);}
	.st4{fill:url(#SVGID_5_);}
	.st5{fill:url(#SVGID_6_);}
	.st6{fill:url(#SVGID_7_);}
	.st7{fill:url(#SVGID_8_);}
</style>
<g id="Laag_1">
</g>
<g id="Laag_2">
	<radialGradient id="SVGID_1_" cx="-211.7252" cy="365.262" r="141.7323" gradientUnits="userSpaceOnUse">
		<stop  offset="0" style="stop-color:#BE1622"/>
		<stop  offset="1" style="stop-color:#9E151A"/>
	</radialGradient>
	<polygon class="st0" points="-211.7,507 -70,365.3 -211.7,223.5 -353.5,365.3 	"/>
	<radialGradient id="SVGID_2_" cx="-227.5406" cy="70.8661" r="141.7415" gradientUnits="userSpaceOnUse">
		<stop  offset="0" style="stop-color:#3C3C3B"/>
		<stop  offset="1" style="stop-color:#000000"/>
	</radialGradient>
	<path class="st1" d="M-156.7,141.7c70.9,0,70.9-70.8,70.9-70.8S-85.8,0-156.7,0c0,0,0-70.9-70.9-70.9v0
		c-70.9,0-70.9,70.9-70.9,70.9c-70.9,0-70.9,70.9-70.9,70.9s0,70.8,70.9,70.8c69.2,0,70.8-67.6,70.9-70.7
		c0,141.6-70.9,141.6-70.9,141.6h141.7c-70.4,0-70.9-139.9-70.9-141.7C-227.5,73.5-226.2,141.7-156.7,141.7z"/>
	<g>
		<radialGradient id="SVGID_3_" cx="283.4648" cy="283.4648" r="183.1262" gradientUnits="userSpaceOnUse">
			<stop  offset="0" style="stop-color:#FFFFFF"/>
			<stop  offset="0.9928" style="stop-color:#F6F6F6"/>
			<stop  offset="1" style="stop-color:#F6F6F6"/>
		</radialGradient>
		<path class="st2" d="M162.7,498.6c-12.9,0-23.4-10.5-23.4-23.4V91.8c0-12.9,10.5-23.4,23.4-23.4h241.6c12.9,0,23.4,10.5,23.4,23.4
			v383.3c0,12.9-10.5,23.4-23.4,23.4H162.7z"/>
		<path d="M404.3,70.9c11.6,0,20.9,9.4,20.9,20.9v383.3c0,11.6-9.4,20.9-20.9,20.9H162.7c-11.6,0-20.9-9.4-20.9-20.9V91.8
			c0-11.6,9.4-20.9,20.9-20.9H404.3 M404.3,65.9H162.7c-14.3,0-25.9,11.6-25.9,25.9v383.3c0,14.3,11.6,25.9,25.9,25.9h241.6
			c14.3,0,25.9-11.6,25.9-25.9V91.8C430.2,77.5,418.6,65.9,404.3,65.9L404.3,65.9z"/>
	</g>
	<radialGradient id="SVGID_4_" cx="283.5" cy="283.4734" r="70.8796" gradientUnits="userSpaceOnUse">
		<stop  offset="0" style="stop-color:#3C3C3B"/>
		<stop  offset="1" style="stop-color:#000000"/>
	</radialGradient>
	<path class="st3" d="M318.9,318.9c35.4,0,35.4-35.4,35.4-35.4s0-21.4-35.4-35.4c-35.5-14-35.5-35.4-35.5-35.4s0,21.4-35.4,35.4
		c-35.5,14-35.4,35.4-35.4,35.4s0,35.4,35.4,35.4c34.8,0,35.4-34.2,35.4-35.4c0,70.9-35.4,70.8-35.4,70.8h70.9
		c-35.4,0-35.5-70.9-35.5-70.9S283.5,318.9,318.9,318.9z"/>
	<radialGradient id="SVGID_5_" cx="181.3992" cy="110.5036" r="31.198" gradientUnits="userSpaceOnUse">
		<stop  offset="0" style="stop-color:#3C3C3B"/>
		<stop  offset="1" style="stop-color:#000000"/>
	</radialGradient>
	<path class="st4" d="M197,126.1c15.6,0,15.6-15.6,15.6-15.6s0-9.4-15.6-15.6s-15.6-15.6-15.6-15.6s0,9.4-15.6,15.6
		s-15.6,15.6-15.6,15.6s0,15.6,15.6,15.6c15.3,0,15.6-15,15.6-15.6c0,31.2-15.6,31.2-15.6,31.2H197c-15.6,0-15.6-31.2-15.6-31.2
		S181.4,126.1,197,126.1z"/>
	<radialGradient id="SVGID_6_" cx="385.6096" cy="110.56" r="31.198" gradientUnits="userSpaceOnUse">
		<stop  offset="0" style="stop-color:#3C3C3B"/>
		<stop  offset="1" style="stop-color:#000000"/>
	</radialGradient>
	<path class="st5" d="M401.2,126.2c15.6,0,15.6-15.6,15.6-15.6s0-9.4-15.6-15.6c-15.6-6.2-15.6-15.6-15.6-15.6s0,9.4-15.6,15.6
		c-15.6,6.2-15.6,15.6-15.6,15.6s0,15.6,15.6,15.6c15.3,0,15.6-15,15.6-15.6c0,31.2-15.6,31.2-15.6,31.2h31.2
		c-15.6,0-15.6-31.2-15.6-31.2S385.6,126.2,401.2,126.2z"/>
	
		<radialGradient id="SVGID_7_" cx="-14.5609" cy="36.6144" r="31.198" gradientTransform="matrix(-1 0 0 -1 371.0089 493.0636)" gradientUnits="userSpaceOnUse">
		<stop  offset="0" style="stop-color:#3C3C3B"/>
		<stop  offset="1" style="stop-color:#000000"/>
	</radialGradient>
	<path class="st6" d="M370,440.9c-15.6,0-15.6,15.6-15.6,15.6s0,9.4,15.6,15.6c15.6,6.2,15.6,15.6,15.6,15.6s0-9.4,15.6-15.6
		s15.6-15.6,15.6-15.6s0-15.6-15.6-15.6c-15.3,0-15.6,15-15.6,15.6c0-31.2,15.6-31.2,15.6-31.2H370c15.6,0,15.6,31.2,15.6,31.2
		S385.6,440.9,370,440.9z"/>
	
		<radialGradient id="SVGID_8_" cx="189.6495" cy="36.6708" r="31.198" gradientTransform="matrix(-1 0 0 -1 371.0089 493.0636)" gradientUnits="userSpaceOnUse">
		<stop  offset="0" style="stop-color:#3C3C3B"/>
		<stop  offset="1" style="stop-color:#000000"/>
	</radialGradient>
	<path class="st7" d="M165.8,440.8c-15.6,0-15.6,15.6-15.6,15.6s0,9.4,15.6,15.6s15.6,15.6,15.6,15.6s0-9.4,15.6-15.6
		s15.6-15.6,15.6-15.6s0-15.6-15.6-15.6c-15.3,0-15.6,15-15.6,15.6c0-31.2,15.6-31.2,15.6-31.2h-31.2c15.6,0,15.6,31.2,15.6,31.2
		S181.3,440.8,165.8,440.8z"/>
</g>
</svg>
