<svg xmlns="http://www.w3.org/2000/svg" xmlns:xlink="http://www.w3.org/1999/xlink" viewBox="0 0 371.87 552.81"><defs><radialGradient id="b" cx="185.94" cy="276.4" r="233.1" gradientUnits="userSpaceOnUse"><stop offset="0" stop-color="#fff"/><stop offset="1" stop-color="#f6f6f6"/></radialGradient><radialGradient id="a" cx="283.02" cy="282.87" r="81.09" gradientUnits="userSpaceOnUse"><stop offset="0" stop-color="#3c3c3b"/><stop offset="1" stop-color="#1d1d1b"/></radialGradient><radialGradient id="c" cx="159.62" cy="60.64" r="37.65" xlink:href="#a"/><radialGradient id="d" cx="406.58" cy="60.64" r="37.65" xlink:href="#a"/><radialGradient id="e" cx="406.58" cy="-288.07" r="37.65" gradientTransform="matrix(1 0 0 -1 0 218)" xlink:href="#a"/><radialGradient id="f" cx="159.62" cy="-288.07" r="37.65" gradientTransform="matrix(1 0 0 -1 0 218)" xlink:href="#a"/></defs><rect x="2.5" y="2.5" width="366.87" height="547.81" rx="29.23" ry="29.23" fill="url(#b)"/><path d="M340.14 5a26.73 26.73 0 0 1 26.73 26.73v489.35a26.72 26.72 0 0 1-26.73 26.72H31.73A26.72 26.72 0 0 1 5 521.08V31.73A26.72 26.72 0 0 1 31.73 5h308.41m0-5H31.73A31.76 31.76 0 0 0 0 31.73v489.35a31.76 31.76 0 0 0 31.73 31.72h308.41a31.77 31.77 0 0 0 31.73-31.72V31.73A31.77 31.77 0 0 0 340.14 0z" fill="#1d1d1b"/><path d="M316.42 328.61c34.66 0 41-24.15 36.31-45.21-6.39-28.49-69.63-39.26-69.63-90.5 0 51.24-63.4 62-69.8 90.5-4.73 21.06 1.65 45.21 36.31 45.21 31.25 0 33.37-36.79 33.49-44v.39c-.44 12.57-5.56 87.85-60.6 87.85h120c-50.09 0-57.91-62.32-59.13-83 1.13 12.48 6.63 38.76 33.05 38.76z" transform="translate(-98.86 -7.46)" fill="url(#a)"/><path d="M175.13 81.87c16.09 0 19.06-11.21 16.86-21-3-13.23-32.34-18.23-32.34-42 0 23.8-29.44 28.8-32.41 42-2.19 9.78.77 21 16.86 21 14.52 0 15.5-17.08 15.55-20.44v.19c-.21 5.84-2.59 40.8-28.14 40.8h55.72c-23.26 0-26.89-28.94-27.46-38.56.54 5.81 3.09 18.01 15.36 18.01z" transform="translate(-98.86 -7.46)" fill="url(#c)"/><path d="M422.09 81.87c16.09 0 19.06-11.21 16.86-21-3-13.23-32.34-18.23-32.34-42 0 23.8-29.44 28.8-32.41 42-2.19 9.78.77 21 16.86 21 14.52 0 15.5-17.08 15.55-20.44v.19c-.21 5.84-2.58 40.8-28.14 40.8h55.73c-23.25 0-26.89-28.94-27.46-38.56.53 5.81 3.08 18.01 15.35 18.01z" transform="translate(-98.86 -7.46)" fill="url(#d)"/><path d="M422.09 484.84c16.09 0 19.06 11.21 16.86 21-3 13.23-32.34 18.23-32.34 42 0-23.8-29.44-28.8-32.41-42-2.19-9.78.77-21 16.86-21 14.52 0 15.5 17.08 15.55 20.44v-.19c-.21-5.84-2.58-40.8-28.14-40.8h55.73c-23.25 0-26.89 28.94-27.46 38.56.53-5.85 3.08-18.01 15.35-18.01z" transform="translate(-98.86 -7.46)" fill="url(#e)"/><path d="M175.13 484.84c16.09 0 19.06 11.21 16.86 21-3 13.23-32.34 18.23-32.34 42 0-23.8-29.44-28.8-32.41-42-2.19-9.78.77-21 16.86-21 14.52 0 15.5 17.08 15.55 20.44v-.19c-.21-5.84-2.59-40.8-28.14-40.8h55.72c-23.26 0-26.89 28.94-27.46 38.56.54-5.85 3.09-18.01 15.36-18.01z" transform="translate(-98.86 -7.46)" fill="url(#f)"/></svg>