<svg xmlns="http://www.w3.org/2000/svg" viewBox="0 0 566.9 566.9"><radialGradient id="a" cx="-211.725" cy="365.262" r="141.732" gradientUnits="userSpaceOnUse"><stop offset="0" stop-color="#be1622"/><stop offset="1" stop-color="#9e151a"/></radialGradient><path fill="url(#a)" d="M-211.7 507L-70 365.3l-141.7-141.8-141.8 141.8z"/><radialGradient id="b" cx="-227.541" cy="70.866" r="141.742" gradientUnits="userSpaceOnUse"><stop offset="0" stop-color="#3c3c3b"/><stop offset="1"/></radialGradient><path d="M-156.7 141.7c70.9 0 70.9-70.8 70.9-70.8S-85.8 0-156.7 0c0 0 0-70.9-70.9-70.9S-298.5 0-298.5 0c-70.9 0-70.9 70.9-70.9 70.9s0 70.8 70.9 70.8c69.2 0 70.8-67.6 70.9-70.7 0 141.6-70.9 141.6-70.9 141.6h141.7c-70.4 0-70.9-139.9-70.9-141.7.2 2.6 1.5 70.8 71 70.8z" fill="url(#b)"/><radialGradient id="c" cx="283.465" cy="283.465" r="183.126" gradientUnits="userSpaceOnUse"><stop offset="0" stop-color="#fff"/><stop offset=".993" stop-color="#f6f6f6"/><stop offset="1" stop-color="#f6f6f6"/></radialGradient><path d="M162.7 498.6c-12.9 0-23.4-10.5-23.4-23.4V91.8c0-12.9 10.5-23.4 23.4-23.4h241.6c12.9 0 23.4 10.5 23.4 23.4v383.3c0 12.9-10.5 23.4-23.4 23.4H162.7z" fill="url(#c)"/><path d="M404.3 70.9c11.6 0 20.9 9.4 20.9 20.9v383.3c0 11.6-9.4 20.9-20.9 20.9H162.7c-11.6 0-20.9-9.4-20.9-20.9V91.8c0-11.6 9.4-20.9 20.9-20.9h241.6m0-5H162.7c-14.3 0-25.9 11.6-25.9 25.9v383.3c0 14.3 11.6 25.9 25.9 25.9h241.6c14.3 0 25.9-11.6 25.9-25.9V91.8c0-14.3-11.6-25.9-25.9-25.9z"/><radialGradient id="d" cx="283.5" cy="283.473" r="70.88" gradientUnits="userSpaceOnUse"><stop offset="0" stop-color="#3c3c3b"/><stop offset="1"/></radialGradient><path d="M318.9 318.9c35.4 0 35.4-35.4 35.4-35.4s0-21.4-35.4-35.4c-35.5-14-35.5-35.4-35.5-35.4s0 21.4-35.4 35.4c-35.5 14-35.4 35.4-35.4 35.4s0 35.4 35.4 35.4c34.8 0 35.4-34.2 35.4-35.4 0 70.9-35.4 70.8-35.4 70.8h70.9c-35.4 0-35.5-70.9-35.5-70.9s.1 35.5 35.5 35.5z" fill="url(#d)"/><radialGradient id="e" cx="181.399" cy="110.504" r="31.198" gradientUnits="userSpaceOnUse"><stop offset="0" stop-color="#3c3c3b"/><stop offset="1"/></radialGradient><path d="M197 126.1c15.6 0 15.6-15.6 15.6-15.6s0-9.4-15.6-15.6-15.6-15.6-15.6-15.6 0 9.4-15.6 15.6-15.6 15.6-15.6 15.6 0 15.6 15.6 15.6c15.3 0 15.6-15 15.6-15.6 0 31.2-15.6 31.2-15.6 31.2H197c-15.6 0-15.6-31.2-15.6-31.2s0 15.6 15.6 15.6z" fill="url(#e)"/><radialGradient id="f" cx="385.61" cy="110.56" r="31.198" gradientUnits="userSpaceOnUse"><stop offset="0" stop-color="#3c3c3b"/><stop offset="1"/></radialGradient><path d="M401.2 126.2c15.6 0 15.6-15.6 15.6-15.6s0-9.4-15.6-15.6c-15.6-6.2-15.6-15.6-15.6-15.6s0 9.4-15.6 15.6c-15.6 6.2-15.6 15.6-15.6 15.6s0 15.6 15.6 15.6c15.3 0 15.6-15 15.6-15.6 0 31.2-15.6 31.2-15.6 31.2h31.2c-15.6 0-15.6-31.2-15.6-31.2s0 15.6 15.6 15.6z" fill="url(#f)"/><radialGradient id="g" cx="-14.561" cy="36.614" r="31.198" gradientTransform="rotate(180 185.504 246.532)" gradientUnits="userSpaceOnUse"><stop offset="0" stop-color="#3c3c3b"/><stop offset="1"/></radialGradient><path d="M370 440.9c-15.6 0-15.6 15.6-15.6 15.6s0 9.4 15.6 15.6c15.6 6.2 15.6 15.6 15.6 15.6s0-9.4 15.6-15.6 15.6-15.6 15.6-15.6 0-15.6-15.6-15.6c-15.3 0-15.6 15-15.6 15.6 0-31.2 15.6-31.2 15.6-31.2H370c15.6 0 15.6 31.2 15.6 31.2s0-15.6-15.6-15.6z" fill="url(#g)"/><radialGradient id="h" cx="189.649" cy="36.671" r="31.198" gradientTransform="rotate(180 185.504 246.532)" gradientUnits="userSpaceOnUse"><stop offset="0" stop-color="#3c3c3b"/><stop offset="1"/></radialGradient><path d="M165.8 440.8c-15.6 0-15.6 15.6-15.6 15.6s0 9.4 15.6 15.6 15.6 15.6 15.6 15.6 0-9.4 15.6-15.6 15.6-15.6 15.6-15.6 0-15.6-15.6-15.6c-15.3 0-15.6 15-15.6 15.6 0-31.2 15.6-31.2 15.6-31.2h-31.2c15.6 0 15.6 31.2 15.6 31.2s-.1-15.6-15.6-15.6z" fill="url(#h)"/></svg>