<svg xmlns="http://www.w3.org/2000/svg" viewBox="0 0 562.88 413.28"><defs><linearGradient id="a" x1="10.17" y1="42.39" x2="445.29" y2="477.51" gradientUnits="userSpaceOnUse"><stop offset="0" stop-color="#d2e6ef"/><stop offset="1" stop-color="#d3e7f0"/></linearGradient><linearGradient id="b" x1="60.2" y1="18.03" x2="345.54" y2="303.36" gradientUnits="userSpaceOnUse"><stop offset="0" stop-color="#a9b4b9"/><stop offset=".09" stop-color="#b2bec4"/><stop offset=".22" stop-color="#b8c5cb"/><stop offset=".51" stop-color="#bac7cd"/><stop offset=".67" stop-color="#b5c2c7"/><stop offset=".87" stop-color="#a7b2b7"/><stop offset="1" stop-color="#9aa4a9"/></linearGradient><linearGradient id="c" x1="123.09" y1="227.17" x2="349.42" y2="227.17" gradientUnits="userSpaceOnUse"><stop offset="0" stop-color="#606262"/><stop offset=".35" stop-color="#5b5c5c"/><stop offset=".8" stop-color="#4b4c4c"/><stop offset="1" stop-color="#424343"/></linearGradient></defs><path d="M280 409.42h-.11c-1.39-.14-34.27-3.44-46.4-16.19-6.93-7.28-16.65-23.88-26.95-41.47-7.34-12.54-14.93-25.51-21.67-35.31-15.76-22.94-70.68-75.54-71.23-76.07a8.24 8.24 0 0 0-4.62-2c-3.55 0-5.49 5.07-6.5 9.33-4.26 18-3.65 100.36-3.64 101.19v1.34l-21.65 14.6-24.09-10.34v-1.62c0-1-1.29-99.09-4.29-117.22-2.43-14.75-6.08-18.2-6.69-18.69l-.49-.11-.08-.27C-1.67 180.17-.81 175.15 5.9 136.13c.68-3.93 1.44-8.38 2.22-13.2C20.5 45.87 35.3 6.74 53.36 3.32a46.34 46.34 0 0 1 8.48-.82c24 0 34.26 21.17 35.29 23.44C99.07 29.16 139 94.65 206.71 146.8c64.94 50 168.86 100.94 182.65 107.61a14 14 0 0 1 8.69-3.1c5.9 0 11.85 3.68 17.69 10.94C428.66 278.3 451 288 453.82 289.2c9.43 1.06 77.52 9 87.09 15.54 11.48 7.86 30.3 35 11.44 64.55s-96.75 41-100.06 41.46h-.18z" fill="url(#a)"/><path d="M61.84 5c23.89 0 33.07 22.1 33.07 22.1s40 67.53 110.27 121.68S389.8 257.4 389.8 257.4a11.45 11.45 0 0 1 8.25-3.59c4.07 0 9.46 2.19 15.75 10 14.33 17.82 39.39 27.83 39.39 27.83s76.81 8.67 86.31 15.16 29.24 32.2 10.75 61.2-98.31 40.33-98.31 40.33l-171.8-1.36s-33.2-3.2-44.83-15.42S203 338.44 186.94 315s-71.56-76.46-71.56-76.46-2.92-2.66-6.35-2.66c-3.19 0-6.82 2.31-8.93 11.25-4.39 18.54-3.71 101.79-3.71 101.79L77 362l-21.35-9.16s-1.26-99.07-4.32-117.59-8.12-20.58-8.12-20.58c-46.52-39.18-40.86-39.94-32.6-91.36S32.59 9.8 53.82 5.78a42.85 42.85 0 0 1 8-.78m0-5a47.9 47.9 0 0 0-9 .87C41.11 3.1 31.47 17.21 22.57 45.27c-6.06 19.12-11.76 45.12-16.92 77.26-.78 4.81-1.54 9.25-2.21 13.17-3.37 19.6-5.4 31.42-.58 43C7.53 190 18.08 200.07 40 218.5l.6.51.19.08c.68.74 3.55 4.5 5.62 17 3 17.94 4.24 115.85 4.25 116.84v3.25l3 1.28L75 366.6l2.51 1.07 2.26-1.52 19.42-13.06 2.23-1.5v-2.69c0-.83-.62-82.86 3.57-100.6 1.21-5.11 2.92-7.4 4.07-7.4a5.75 5.75 0 0 1 3 1.35c2.4 2.3 55.48 53.28 70.82 75.6 6.68 9.73 14.25 22.66 21.58 35.17 10.36 17.71 20.16 34.44 27.29 41.93 12.55 13.19 44.38 16.6 48 16.95h.44l171.8 1.36h.75a348.82 348.82 0 0 0 42.9-9.46c30.75-8.93 50.57-20.08 58.91-33.13 19.83-31 0-59.67-12.13-68-1.88-1.29-6.88-4.71-48.82-10.83-18.05-2.64-35.37-4.66-39.05-5.09-3.74-1.6-24.62-11-36.77-26.07-6.34-7.88-12.94-11.87-19.64-11.87a16.18 16.18 0 0 0-8.95 2.7C371 242.7 271.18 193.28 208.23 144.82 141.66 93.56 102.09 29.32 99.36 24.8 97.89 21.52 87.25 0 61.84 0z" fill="#1d1d1b"/><path d="M75 18.65s52.41 72.83 93.58 110.73c35.17 32.39 175.23 123.55 210.44 135.06 0 0-12.86 25.05-42 42-23.77 13.82-66.92-14.95-82.48-24.43-3.52-2.15-10.84-7.64-13.56-10.75-16.45-18.73-117.94-132.51-117.94-132.51S87.65 92.57 83.16 84.33C65.91 52.66 42.53 3.75 75 18.65z" fill="url(#b)"/><path d="M349.42 298.11s-50.95-12.43-82.06-36.82-144.27-122.56-144.27-122.56 85.13 104.63 100.68 122.77 74.98 85.57 125.65 36.61z" fill="url(#c)"/><path fill="#eaf6fb" d="M92.18 345.83l-14.16 9.8-17.53-6.81v-17.14l15.84 4.35 15.85-8.98v18.78z"/></svg>