<svg xmlns="http://www.w3.org/2000/svg" viewBox="0 0 566.93 566.93"><style>.st0{display:none}.st6{display:inline;fill:#fff}</style><g id="Laag_3"><linearGradient id="SVGID_1_" gradientUnits="userSpaceOnUse" x1="12.211" y1="119.22" x2="447.331" y2="554.339"><stop offset="0" stop-color="#d2e6ef"/><stop offset=".185" stop-color="#d2e7ef"/><stop offset="1" stop-color="#d3e7f0"/></linearGradient><path d="M282.048 486.244l-.11-.01c-1.393-.134-34.268-3.435-46.404-16.186-6.927-7.277-16.65-23.885-26.942-41.469-7.344-12.545-14.938-25.517-21.673-35.317-15.76-22.937-70.676-75.536-71.23-76.066-.576-.514-2.64-1.973-4.62-1.973-3.551 0-5.496 5.074-6.502 9.33-4.263 18.036-3.647 100.362-3.64 101.191l.01 1.345-21.668 14.577-24.088-10.337-.02-1.624c-.013-.99-1.298-99.089-4.29-117.214-2.437-14.753-6.083-18.209-6.694-18.695l-.488-.113-.084-.268C.367 256.993 1.229 251.979 7.938 212.953c.675-3.929 1.44-8.381 2.215-13.2C22.543 122.694 37.341 83.57 55.395 80.15c2.888-.546 5.74-.824 8.479-.824 24.035 0 34.264 21.166 35.293 23.444 1.936 3.217 41.851 68.707 109.578 120.854 64.94 50.002 168.863 100.945 182.649 107.617 1.649-1.318 4.635-3.106 8.697-3.106 5.898 0 11.85 3.68 17.691 10.938 12.917 16.053 35.236 25.758 38.075 26.948 9.426 1.069 77.517 8.977 87.094 15.54 11.48 7.867 30.3 35.044 11.439 64.56-18.89 29.56-96.754 40.985-100.06 41.457l-.185.026-172.097-1.36z" fill="url(#SVGID_1_)"/><path d="M63.874 81.826c23.897 0 33.07 22.098 33.07 22.098s39.954 67.536 110.276 121.681C277.54 279.75 391.836 334.23 391.836 334.23s3.046-3.595 8.255-3.595c4.068 0 9.457 2.193 15.744 10.006 14.336 17.816 39.392 27.825 39.392 27.825s76.838 8.666 86.311 15.158c9.474 6.491 29.235 32.216 10.746 61.15-18.49 28.935-98.308 40.33-98.308 40.33l-171.798-1.359s-33.2-3.2-44.833-15.42c-11.633-12.221-32.275-53.063-48.365-76.48-16.09-23.416-71.562-76.455-71.562-76.455s-2.922-2.667-6.349-2.667c-3.192 0-6.822 2.315-8.935 11.255-4.381 18.537-3.707 101.787-3.707 101.787l-19.424 13.067-21.343-9.159s-1.264-99.067-4.323-117.59c-3.059-18.521-8.121-20.58-8.121-20.58-46.513-39.18-40.86-39.941-32.594-91.352C20.887 148.741 34.63 86.627 55.86 82.607c2.839-.538 5.506-.78 8.014-.78m0-5c-2.894 0-5.903.291-8.944.867-11.783 2.232-21.417 16.34-30.317 44.402-6.065 19.12-11.76 45.115-16.928 77.261-.772 4.805-1.537 9.25-2.211 13.173-3.368 19.593-5.401 31.419-.578 43.018 4.67 11.231 15.22 21.349 37.099 39.78l.604.509.184.074c.683.741 3.56 4.503 5.62 16.987 2.964 17.942 4.245 115.852 4.258 116.839l.041 3.25 2.986 1.28 21.343 9.16 2.503 1.074 2.26-1.52 19.424-13.068 2.23-1.5-.022-2.689c-.006-.826-.62-82.854 3.574-100.596 1.209-5.115 2.915-7.405 4.069-7.405.948 0 2.312.796 2.973 1.357 2.397 2.297 55.48 53.276 70.817 75.597 6.683 9.726 14.253 22.658 21.575 35.164 10.368 17.713 20.162 34.444 27.29 41.931 12.555 13.19 44.387 16.604 47.975 16.95l.22.021.22.002 171.798 1.359.375.003.371-.053c.83-.119 20.56-2.973 42.908-9.463 30.747-8.928 50.566-20.073 58.906-33.124 19.835-31.04-.027-59.672-12.132-67.968-1.881-1.289-6.877-4.713-48.812-10.836-18.05-2.636-35.377-4.661-39.053-5.084-3.745-1.6-24.622-10.976-36.77-26.073-6.339-7.877-12.946-11.871-19.64-11.871-3.873 0-6.898 1.35-8.957 2.701-18.104-8.81-117.917-58.226-180.863-106.693-66.57-51.256-106.138-115.499-108.874-120.018-1.47-3.277-12.105-24.799-37.522-24.799z"/><linearGradient id="SVGID_2_" gradientUnits="userSpaceOnUse" x1="62.239" y1="94.852" x2="347.578" y2="380.191"><stop offset="0" stop-color="#a9b4b9"/><stop offset=".018" stop-color="#abb7bc"/><stop offset=".112" stop-color="#b4c0c5"/><stop offset=".237" stop-color="#b9c5cb"/><stop offset=".515" stop-color="#bac7cd"/><stop offset=".649" stop-color="#b7c3c8"/><stop offset=".82" stop-color="#acb7bc"/><stop offset="1" stop-color="#9aa4a9"/></linearGradient><path d="M77.069 95.473s52.409 72.834 93.575 110.738c35.17 32.382 175.236 123.541 210.446 135.052 0 0-12.865 25.053-41.981 41.98-23.768 13.82-66.925-14.947-82.479-24.426-3.526-2.15-10.838-7.644-13.563-10.748-16.45-18.736-117.941-132.51-117.941-132.51s-35.441-46.161-39.932-54.407c-17.248-31.667-40.627-80.575-8.125-65.679z" fill="url(#SVGID_2_)"/><linearGradient id="SVGID_3_" gradientUnits="userSpaceOnUse" x1="125.126" y1="303.995" x2="351.458" y2="303.995"><stop offset="0" stop-color="#606262"/><stop offset=".353" stop-color="#5b5d5d"/><stop offset=".806" stop-color="#4c4d4d"/><stop offset="1" stop-color="#424343"/></linearGradient><path d="M351.458 374.933s-50.955-12.424-82.06-36.82c-31.106-24.397-144.272-122.555-144.272-122.555s85.136 104.633 100.684 122.77c15.548 18.138 74.982 85.564 125.648 36.605z" fill="url(#SVGID_3_)"/><path fill="#eaf6fb" d="M94.215 422.657l-14.154 9.799-17.53-6.805v-17.148l15.842 4.355 15.842-8.982z"/></g><g id="Laag_1" class="st0"><path d="M70.493 182.016l1.556.329c.875-5.315 1.188-10.46 2.629-15.267 2.756-9.198 5.636-18.43 9.455-27.216 2.79-6.42 8.263-12.479 17.936-12.52 9.921-.043 17.951 2.573 24.047 10.206 3.533 4.424 6.378 9.396 9.553 14.108 7.291 10.823 14.164 21.964 22.028 32.354 6.324 8.355 13.528 16.123 20.954 23.539 5.87 5.861 12.673 10.787 19.056 16.135 5.7 4.774 11.2 9.81 17.13 14.278 8.983 6.769 18.208 13.224 27.437 19.657 5.179 3.61 10.508 7.018 15.886 10.327 10.84 6.668 21.695 13.318 32.674 19.754 5.974 3.501 12.276 6.438 18.315 9.833 6.048 3.4 12.288 6.602 17.845 10.702 8.97 6.617 18.912 11.002 29.247 14.8 5.449 2.004 10.728 4.467 16.164 6.509 2.044.768 4.32 1.327 6.483 1.299 6.908-.088 11.931 2.063 16.91 7.643 4.825 5.407 11.937 9.467 18.808 12.19 10.259 4.068 21.181 5.905 32.406 6.667 9.061.614 18.6 2.34 26.73 6.137 7.396 3.455 14 9.948 16.037 18.712 1.878 8.083 3.371 16.41 3.53 24.659.06 3.136-3.394 7.438-6.42 9.333-9.297 5.82-19.036 10.986-28.864 15.884-4.284 2.136-9.186 3.054-13.835 4.433-8.834 2.619-17.603 5.53-26.562 7.62-5.676 1.325-11.642 1.863-17.487 1.93-27.039.312-54.082.556-81.12.361-11.965-.086-23.926-1.195-35.88-1.984-6.198-.41-12.422-.84-18.555-1.782-11.334-1.74-21.008-6.632-27.539-16.445-6.97-10.472-13.934-20.958-20.527-31.667-4.146-6.734-7.266-14.105-11.483-20.788-3.098-4.907-7.428-9.018-10.865-13.735-10.48-14.383-21.82-28.007-35.093-39.903-3.735-3.348-7.78-6.496-12.105-9.008-7.264-4.218-10.129-3.871-10.795 5.513-.925 13.04-.322 26.182-.653 39.274-.235 9.3-1.089 18.585-1.302 27.885-.047 2.04 1.614 4.072 2.181 6.19.443 1.656 1.227 4.206.45 5.036-3.859 4.115-7.956 8.096-12.451 11.485-2.004 1.511-5.178 2.203-7.754 2.062a55.965 55.965 0 0 1-13.394-2.404c-1.555-.482-3.246-3.046-3.454-4.826-.416-3.545.061-7.211.334-10.815.605-7.99 1.96-15.984 1.83-23.958-.21-12.851-.34-25.856-2.413-38.483-2.182-13.28-2.7-27.556-11.668-38.708-5.178-6.438-11.519-11.985-17.633-17.61-4.507-4.146-6.856-9.106-8.35-14.95-3.2-12.527 1.24-24.501 2.346-36.66 1.151-12.64 4.04-25.12 6.245-38.115zm412.34 213.54c-1.09-4.355-1.786-7.469-2.657-10.533-1.73-6.083-10.66-13.435-16.744-14.235-4.027-.529-7.998-1.5-11.983-2.327-5.508-1.143-10.985-2.45-16.515-3.473-4.603-.851-9.244-1.591-13.9-2.033-11.989-1.138-21.249-7.693-30.309-14.784-3.312-2.593-6.673-4.637-10.776-.869-2.708 2.488-5.835 4.575-8.962 6.543-12.005 7.554-23.863 15.382-36.212 22.333-9.043 5.091-18.924 8.783-29.638 6.389-5.272-1.178-10.26-3.598-15.406-5.37-12.46-4.293-22.695-12.203-32.424-20.649-9.267-8.045-17.892-16.831-26.754-25.34-7.61-7.304-15.531-14.331-22.633-22.104-9.178-10.044-16.779-21.684-26.711-30.845-11.132-10.267-17.516-23.81-27.37-34.838-4.91-5.495-8.83-11.874-13.199-17.852-3.555-4.866-7.745-9.397-10.524-14.672-4.33-8.218-6.849-17.462-11.671-25.33-8.101-13.216-11.494-28.036-16.608-42.29-.686-1.912-2.31-3.489-3.501-5.221-1.502 1.227-3.286 2.23-4.46 3.717-8.104 10.25-9.117 22.942-11.776 35.047-.982 4.468-1.596 9.015-2.439 13.515-1.214 6.482-2.665 12.925-3.69 19.436-1.653 10.505-2.4 21.2-4.787 31.523-1.386 6-.17 10.989 1.588 16.326 2.127 6.458 7.57 9.883 12.371 13.926 5.05 4.252 9.781 8.956 15.184 12.694a46.528 46.528 0 0 0 13.538 6.393c6.846 1.944 13.218 6.07 20.9 4.883 1.683-.26 3.707.89 5.408 1.727 2.43 1.198 4.68 2.754 7.055 4.072 3.217 1.784 6.919 2.978 9.632 5.327 6.212 5.378 11.953 11.3 17.88 17.006 3.5 3.369 7.456 6.39 10.38 10.203 5.302 6.918 9.837 14.418 14.991 21.457 2.506 3.423 6.143 6.053 8.46 9.574 4.233 6.43 7.814 13.288 11.76 19.91 5.688 9.544 11.167 19.233 17.313 28.475 3.355 5.045 7.49 9.757 12 13.809 8.41 7.555 19.733 7.125 29.947 9.247 8.163 1.697 16.73 1.902 25.123 1.964 31.663.232 63.334.445 94.99-.069 7.385-.12 14.923-2.548 22.022-4.988 5.919-2.034 11.357-5.531 16.9-8.579 6.602-3.63 13.624-6.792 19.476-11.409 5.9-4.655 10.607-10.827 15.8-16.369 2.204-2.352 4.341-4.707 8.93-1.317zm-368.9-254.046l-1.984 1.251c3.69 10.32 6.995 20.799 11.208 30.9 2.78 6.668 7.695 12.484 10.192 19.224 4.939 13.33 12.203 24.952 21.535 35.592 5.981 6.82 11.377 14.22 16.42 21.77 3.004 4.497 4.798 9.77 11.183 10.574.908.114 1.863.75 2.572 1.392 4.198 3.796 8.228 7.781 12.512 11.474 3.76 3.242 7.963 5.978 11.644 9.3 7.302 6.589 13.975 13.935 21.648 20.037 10.128 8.054 20.92 15.28 31.513 22.74 11.451 8.064 22.651 16.57 34.624 23.78 8.921 5.374 18.95 8.887 28.379 13.448 3.7 1.79 7.025 3.059 11.01.622 7.558-4.62 15.35-8.855 22.922-13.45 3.935-2.387 7.61-5.2 12.029-8.254-4.964-2.648-9.002-5.11-13.286-7.021-7.671-3.421-15.819-5.903-23.171-9.88-11.326-6.124-22.128-13.214-33.19-19.831-13.012-7.783-26.1-15.437-39.087-23.26-11.781-7.1-23.858-13.8-35.096-21.685-12.513-8.78-24.341-18.556-36.239-28.182-6.56-5.309-12.973-10.884-18.88-16.9-8.888-9.052-18.027-18.023-25.681-28.077-9.246-12.143-16.955-25.447-25.558-38.094-1.919-2.821-4.787-4.997-7.219-7.47zm12.762 162.443l-23.92-8.326c1.189 6.478 2.324 12.56 3.419 18.65 1.18 6.568 2.899 13.102 3.362 19.722 1.005 14.368 1.336 28.782 2.001 43.175.121 2.615 1.066 4.05 4.115 2.65 3.076-1.412 6.334-2.428 11.023-4.183v-71.688zm190.632 65.881c-2.64-1.293-4.23-2.134-5.87-2.865-6.74-3-14.572-4.691-19.98-9.258-7.404-6.252-16.083-9.972-23.817-15.34-8.427-5.85-16.184-12.658-24.396-18.83-4.937-3.71-10.187-7.005-15.296-10.486l-1.29 1.398c2.077 2.106 4.09 4.281 6.244 6.307 8.658 8.145 17.067 16.59 26.127 24.267 9.707 8.224 19.634 16.31 31.693 21.112 8.051 3.205 15.836 7.79 26.585 3.695zM123.632 388.62c-3.778.915-6.422 1.81-9.135 2.156-4.588.587-3.005 4.093-2.356 5.99.518 1.513 4.176 3.6 4.675 3.205 3.175-2.515 5.927-5.591 8.581-8.687.219-.254-1.328-2.022-1.765-2.664zm350.457 21.63c6.08-.107 8.61-3.106 7.385-8.719l-7.385 8.72z"/><path class="st6" d="M482.833 395.556c-4.59-3.39-6.727-1.035-8.93 1.317-5.194 5.542-9.901 11.714-15.801 16.369-5.852 4.617-12.874 7.78-19.476 11.41-5.543 3.047-10.981 6.544-16.9 8.578-7.099 2.44-14.637 4.868-22.022 4.988-31.656.514-63.327.301-94.99.069-8.394-.062-16.96-.267-25.123-1.964-10.214-2.122-21.537-1.692-29.947-9.247-4.51-4.052-8.645-8.764-12-13.81-6.146-9.241-11.625-18.93-17.312-28.473-3.947-6.623-7.528-13.48-11.76-19.911-2.318-3.52-5.955-6.15-8.46-9.574-5.155-7.039-9.69-14.54-14.993-21.457-2.923-3.813-6.88-6.834-10.379-10.203-5.927-5.707-11.668-11.628-17.88-17.006-2.713-2.349-6.415-3.543-9.632-5.327-2.375-1.318-4.625-2.874-7.055-4.072-1.7-.838-3.725-1.987-5.409-1.727-7.68 1.187-14.053-2.939-20.899-4.883a46.528 46.528 0 0 1-13.538-6.393c-5.403-3.738-10.134-8.442-15.184-12.694-4.802-4.043-10.244-7.468-12.371-13.926-1.758-5.337-2.974-10.326-1.588-16.326 2.387-10.324 3.134-21.018 4.787-31.523 1.025-6.511 2.476-12.954 3.69-19.436.843-4.5 1.457-9.047 2.439-13.515 2.659-12.105 3.672-24.797 11.775-35.047 1.175-1.486 2.959-2.49 4.461-3.717 1.19 1.732 2.815 3.309 3.5 5.222 5.115 14.253 8.508 29.073 16.609 42.289 4.822 7.868 7.342 17.112 11.671 25.33 2.78 5.275 6.969 9.806 10.524 14.672 4.369 5.978 8.289 12.357 13.198 17.852 9.855 11.028 16.239 24.57 27.37 34.838 9.933 9.161 17.534 20.8 26.712 30.845 7.102 7.773 15.024 14.8 22.633 22.105 8.862 8.508 17.487 17.294 26.754 25.34 9.73 8.445 19.964 16.355 32.424 20.647 5.146 1.773 10.134 4.193 15.406 5.37 10.714 2.395 20.595-1.297 29.638-6.388 12.349-6.951 24.207-14.78 36.212-22.333 3.127-1.968 6.254-4.055 8.962-6.543 4.103-3.768 7.464-1.724 10.776.869 9.06 7.091 18.32 13.646 30.309 14.784 4.656.442 9.297 1.182 13.9 2.033 5.53 1.023 11.007 2.33 16.515 3.473 3.985.827 7.956 1.798 11.983 2.327 6.084.8 15.014 8.152 16.744 14.235.871 3.064 1.566 6.178 2.657 10.533z"/><path class="st6" d="M113.933 141.51c2.432 2.473 5.3 4.649 7.22 7.47 8.602 12.647 16.311 25.951 25.557 38.094 7.654 10.054 16.793 19.025 25.681 28.077 5.907 6.016 12.32 11.591 18.88 16.9 11.898 9.626 23.726 19.402 36.239 28.182 11.238 7.885 23.315 14.585 35.096 21.684 12.986 7.824 26.075 15.478 39.086 23.261 11.063 6.617 21.865 13.707 33.19 19.832 7.353 3.976 15.5 6.458 23.172 9.879 4.284 1.91 8.322 4.373 13.286 7.021-4.42 3.054-8.094 5.867-12.029 8.254-7.573 4.595-15.364 8.83-22.921 13.45-3.986 2.437-7.311 1.168-11.011-.622-9.43-4.561-19.458-8.074-28.379-13.447-11.973-7.212-23.173-15.717-34.624-23.781-10.592-7.46-21.385-14.686-31.513-22.74-7.673-6.102-14.346-13.448-21.648-20.037-3.68-3.322-7.884-6.058-11.644-9.3-4.284-3.693-8.314-7.678-12.512-11.474-.71-.642-1.664-1.278-2.572-1.392-6.385-.803-8.18-6.077-11.183-10.575-5.043-7.55-10.439-14.95-16.42-21.769-9.332-10.64-16.596-22.262-21.535-35.592-2.497-6.74-7.412-12.556-10.192-19.224-4.213-10.101-7.518-20.58-11.208-30.9l1.984-1.25zM126.695 303.953v71.688c-4.689 1.755-7.947 2.77-11.023 4.183-3.05 1.4-3.994-.035-4.115-2.65-.665-14.393-.996-28.807-2.001-43.175-.463-6.62-2.182-13.154-3.362-19.722-1.095-6.09-2.23-12.172-3.42-18.65l23.921 8.326zM317.327 369.834c-10.749 4.096-18.534-.49-26.585-3.695-12.059-4.802-21.986-12.888-31.693-21.112-9.06-7.676-17.469-16.122-26.127-24.267-2.154-2.026-4.167-4.2-6.245-6.307l1.291-1.398c5.11 3.481 10.359 6.776 15.296 10.486 8.212 6.172 15.969 12.98 24.396 18.83 7.734 5.368 16.413 9.088 23.817 15.34 5.408 4.567 13.24 6.257 19.98 9.258 1.64.73 3.23 1.572 5.87 2.865zM123.632 388.62c.437.642 1.984 2.41 1.765 2.664-2.654 3.096-5.406 6.172-8.581 8.687-.5.395-4.157-1.692-4.675-3.205-.649-1.897-2.232-5.403 2.356-5.99 2.713-.346 5.357-1.24 9.135-2.156zM474.089 410.25l7.385-8.719c1.224 5.613-1.305 8.612-7.385 8.72z"/></g></svg>