<svg xmlns="http://www.w3.org/2000/svg" viewBox="0 0 566.93 566.93"><style>.st6{display:inline;fill:#fff}</style><g id="Laag_3"><linearGradient id="SVGID_1_" gradientUnits="userSpaceOnUse" x1="12.211" y1="119.22" x2="447.331" y2="554.339"><stop offset="0" stop-color="#d2e6ef"/><stop offset=".185" stop-color="#d2e7ef"/><stop offset="1" stop-color="#d3e7f0"/></linearGradient><path d="M282.048 486.244l-.11-.01c-1.393-.134-34.268-3.435-46.404-16.186-6.927-7.277-16.65-23.885-26.942-41.469-7.344-12.545-14.938-25.517-21.673-35.317-15.76-22.937-70.676-75.536-71.23-76.066-.576-.514-2.64-1.973-4.62-1.973-3.551 0-5.496 5.074-6.502 9.33-4.263 18.036-3.647 100.362-3.64 101.191l.01 1.345-21.668 14.577-24.088-10.337-.02-1.624c-.013-.99-1.298-99.089-4.29-117.214-2.437-14.753-6.083-18.209-6.694-18.695l-.488-.113-.084-.268C.367 256.993 1.229 251.979 7.938 212.953c.675-3.929 1.44-8.381 2.215-13.2C22.543 122.694 37.341 83.57 55.395 80.15c2.888-.546 5.74-.824 8.479-.824 24.035 0 34.264 21.166 35.293 23.444 1.936 3.217 41.851 68.707 109.578 120.854 64.94 50.002 168.863 100.945 182.649 107.617 1.649-1.318 4.635-3.106 8.697-3.106 5.898 0 11.85 3.68 17.691 10.938 12.917 16.053 35.236 25.758 38.075 26.948 9.426 1.069 77.517 8.977 87.094 15.54 11.48 7.867 30.3 35.044 11.439 64.56-18.89 29.56-96.754 40.985-100.06 41.457l-.185.026-172.097-1.36z" fill="url(#SVGID_1_)"/><path d="M63.874 81.826c23.897 0 33.07 22.098 33.07 22.098s39.954 67.536 110.276 121.681C277.54 279.75 391.836 334.23 391.836 334.23s3.046-3.595 8.255-3.595c4.068 0 9.457 2.193 15.744 10.006 14.336 17.816 39.392 27.825 39.392 27.825s76.838 8.666 86.311 15.158c9.474 6.491 29.235 32.216 10.746 61.15-18.49 28.935-98.308 40.33-98.308 40.33l-171.798-1.359s-33.2-3.2-44.833-15.42c-11.633-12.221-32.275-53.063-48.365-76.48-16.09-23.416-71.562-76.455-71.562-76.455s-2.922-2.667-6.349-2.667c-3.192 0-6.822 2.315-8.935 11.255-4.381 18.537-3.707 101.787-3.707 101.787l-19.424 13.067-21.343-9.159s-1.264-99.067-4.323-117.59c-3.059-18.521-8.121-20.58-8.121-20.58-46.513-39.18-40.86-39.941-32.594-91.352C20.887 148.741 34.63 86.627 55.86 82.607c2.839-.538 5.506-.78 8.014-.78m0-5c-2.894 0-5.903.291-8.944.867-11.783 2.232-21.417 16.34-30.317 44.402-6.065 19.12-11.76 45.115-16.928 77.261-.772 4.805-1.537 9.25-2.211 13.173-3.368 19.593-5.401 31.419-.578 43.018 4.67 11.231 15.22 21.349 37.099 39.78l.604.509.184.074c.683.741 3.56 4.503 5.62 16.987 2.964 17.942 4.245 115.852 4.258 116.839l.041 3.25 2.986 1.28 21.343 9.16 2.503 1.074 2.26-1.52 19.424-13.068 2.23-1.5-.022-2.689c-.006-.826-.62-82.854 3.574-100.596 1.209-5.115 2.915-7.405 4.069-7.405.948 0 2.312.796 2.973 1.357 2.397 2.297 55.48 53.276 70.817 75.597 6.683 9.726 14.253 22.658 21.575 35.164 10.368 17.713 20.162 34.444 27.29 41.931 12.555 13.19 44.387 16.604 47.975 16.95l.22.021.22.002 171.798 1.359.375.003.371-.053c.83-.119 20.56-2.973 42.908-9.463 30.747-8.928 50.566-20.073 58.906-33.124 19.835-31.04-.027-59.672-12.132-67.968-1.881-1.289-6.877-4.713-48.812-10.836-18.05-2.636-35.377-4.661-39.053-5.084-3.745-1.6-24.622-10.976-36.77-26.073-6.339-7.877-12.946-11.871-19.64-11.871-3.873 0-6.898 1.35-8.957 2.701-18.104-8.81-117.917-58.226-180.863-106.693-66.57-51.256-106.138-115.499-108.874-120.018-1.47-3.277-12.105-24.799-37.522-24.799z"/><linearGradient id="SVGID_2_" gradientUnits="userSpaceOnUse" x1="62.239" y1="94.852" x2="347.578" y2="380.191"><stop offset="0" stop-color="#a9b4b9"/><stop offset=".018" stop-color="#abb7bc"/><stop offset=".112" stop-color="#b4c0c5"/><stop offset=".237" stop-color="#b9c5cb"/><stop offset=".515" stop-color="#bac7cd"/><stop offset=".649" stop-color="#b7c3c8"/><stop offset=".82" stop-color="#acb7bc"/><stop offset="1" stop-color="#9aa4a9"/></linearGradient><path d="M77.069 95.473s52.409 72.834 93.575 110.738c35.17 32.382 175.236 123.541 210.446 135.052 0 0-12.865 25.053-41.981 41.98-23.768 13.82-66.925-14.947-82.479-24.426-3.526-2.15-10.838-7.644-13.563-10.748-16.45-18.736-117.941-132.51-117.941-132.51s-35.441-46.161-39.932-54.407c-17.248-31.667-40.627-80.575-8.125-65.679z" fill="url(#SVGID_2_)"/><linearGradient id="SVGID_3_" gradientUnits="userSpaceOnUse" x1="125.126" y1="303.995" x2="351.458" y2="303.995"><stop offset="0" stop-color="#606262"/><stop offset=".353" stop-color="#5b5d5d"/><stop offset=".806" stop-color="#4c4d4d"/><stop offset="1" stop-color="#424343"/></linearGradient><path d="M351.458 374.933s-50.955-12.424-82.06-36.82c-31.106-24.397-144.272-122.555-144.272-122.555s85.136 104.633 100.684 122.77c15.548 18.138 74.982 85.564 125.648 36.605z" fill="url(#SVGID_3_)"/><path fill="#eaf6fb" d="M94.215 422.657l-14.154 9.799-17.53-6.805v-17.148l15.842 4.355 15.842-8.982z"/></g></svg>