<?xml version="1.0" encoding="utf-8"?>
<!-- Generator: Adobe Illustrator 22.1.0, SVG Export Plug-In . SVG Version: 6.00 Build 0)  -->
<svg version="1.1" xmlns="http://www.w3.org/2000/svg" xmlns:xlink="http://www.w3.org/1999/xlink" x="0px" y="0px"
	 viewBox="0 0 566.9299927 566.9299927" style="enable-background:new 0 0 566.9299927 566.9299927;" xml:space="preserve">
<style type="text/css">
	.st0{display:none;}
	.st1{fill:url(#SVGID_1_);}
	.st2{fill:url(#SVGID_2_);}
	.st3{fill:url(#SVGID_3_);}
	.st4{fill:#EAF6FB;}
	.st5{display:inline;}
	.st6{display:inline;fill:#FFFFFF;}
</style>
<g id="Laag_2" class="st0">
</g>
<g id="Laag_3">
	<g>
		
			<linearGradient id="SVGID_1_" gradientUnits="userSpaceOnUse" x1="12.2113037" y1="119.2199707" x2="447.3306274" y2="554.3392944">
			<stop  offset="0" style="stop-color:#D2E6EF"/>
			<stop  offset="0.1846252" style="stop-color:#D2E7EF"/>
			<stop  offset="1" style="stop-color:#D3E7F0"/>
		</linearGradient>
		<path class="st1" d="M282.0483398,486.2441406l-0.1098633-0.0107422
			c-1.3935547-0.1337891-34.2685547-3.4345703-46.4047852-16.1855469
			c-6.9262695-7.2773438-16.6489258-23.8847656-26.9418945-41.46875
			c-7.34375-12.5449219-14.9379883-25.5166016-21.6723633-35.3173828
			c-15.7597656-22.9365234-70.6767578-75.5361328-71.2294922-76.0654297
			c-0.5771484-0.5146484-2.6411133-1.9736328-4.6206055-1.9736328c-3.5517578,0-5.4960938,5.0742188-6.5019531,9.3300781
			c-4.2631836,18.0361328-3.6474609,100.3623047-3.640625,101.1914062l0.0107422,1.3447266l-21.6689453,14.5771484
			l-24.0874023-10.3369141l-0.0209961-1.6240234c-0.012207-0.9892578-1.296875-99.0888672-4.2900391-117.2138672
			c-2.4360352-14.7529297-6.0820312-18.2089844-6.6933594-18.6953125l-0.487793-0.1132812l-0.0839844-0.2675781
			c-43.237793-36.4223633-42.3759766-41.4365234-35.6669922-80.4624023c0.675293-3.9282227,1.440918-8.3808594,2.215332-13.1987305
			c12.3891602-77.0615234,27.1875-116.1845703,45.2416992-119.6035156c2.8881836-0.546875,5.7407227-0.8242188,8.4790039-0.8242188
			c24.034668,0,34.2641602,21.1655273,35.293457,23.4433594c1.9355469,3.2177734,41.8505859,68.7075195,109.5776367,120.8544922
			c64.9399414,50.0019531,168.8632812,100.9453125,182.6484375,107.6171875
			c1.6494141-1.3183594,4.6357422-3.1064453,8.6972656-3.1064453c5.8984375,0,11.8505859,3.6796875,17.6914062,10.9384766
			c12.9169922,16.0527344,35.2353516,25.7578125,38.0751953,26.9482422
			c9.4257812,1.0683594,77.5166016,8.9765625,87.09375,15.5400391
			c11.4804688,7.8662109,30.2998047,35.0439453,11.4384766,64.5595703
			C535.5,475.6816406,457.6357422,487.1064453,454.3300781,487.578125l-0.1855469,0.0263672L282.0483398,486.2441406z"/>
		<g>
			<path d="M63.8738976,81.8261871c23.8968849,0,33.0709496,22.0982819,33.0709496,22.0982819
				s39.9529953,67.5354156,110.2747574,121.6806641c70.3217468,54.1453247,184.6162415,108.6245728,184.6162415,108.6245728
				s3.0458069-3.5951538,8.2548218-3.5950317c4.0686035,0.000061,9.4570007,2.1934509,15.7440186,10.0063782
				c14.3362427,17.8158264,39.3925781,27.8248291,39.3925781,27.8248291s76.8381042,8.6660156,86.3111877,15.1577454
				c9.4731445,6.4918518,29.2349243,32.2161865,10.7451172,61.151001
				c-18.4897461,28.934845-98.3071289,40.3291626-98.3071289,40.3291626l-171.7980042-1.35849
				c0,0-33.2009277-3.1997375-44.8335114-15.4205933c-11.6325836-12.2209167-32.2749176-53.0626526-48.3648224-76.4793396
				c-16.0898438-23.416748-71.5625839-76.4553223-71.5625839-76.4553223s-2.9216232-2.6667786-6.3485031-2.6667786
				c-3.1917725,0-6.821991,2.315155-8.9349136,11.2546082c-4.3815842,18.5373535-3.7075043,101.7869263-3.7075043,101.7869263
				l-19.423584,13.0674133l-21.3429146-9.1591797c0,0-1.2645836-99.0674133-4.3232498-117.5892334
				c-3.0586662-18.521759-8.1210861-20.5808411-8.1210861-20.5808411
				c-46.5129166-39.1808319-40.8590813-39.940918-32.5941658-91.3519135
				c8.2649164-51.4109192,22.0079193-113.5235825,43.2388344-117.5443344
				C58.6988068,82.069191,61.3662415,81.8261871,63.8738976,81.8261871 M63.8739319,76.8262177
				c-2.8939171,0-5.9029999,0.2919998-8.9438324,0.8678284c-11.7835846,2.2315826-21.4171677,16.3405838-30.3173351,44.4019165
				c-6.0645828,19.1208344-11.7599163,45.1153412-16.9277496,77.2615051c-0.7724166,4.8046722-1.5366664,9.250412-2.211,13.1727448
				c-3.368,19.5926666-5.401,31.4186707-0.5778332,43.017746c4.6703334,11.2315216,15.2191677,21.3488312,37.0983315,39.7790985
				l0.6048355,0.509491l0.1840401,0.0748596c0.6822319,0.7407837,3.5586777,4.5029297,5.6202927,16.9870605
				c2.9628334,17.9414062,4.2442474,115.8515015,4.2568321,116.8384094l0.0415001,3.2494202l2.986248,1.2814941
				l21.3429184,9.1591797l2.5029144,1.0741577l2.2599182-1.5203247l19.423584-13.0674133l2.2305832-1.5006714l-0.0217514-2.6884155
				c-0.0066681-0.826416-0.620079-82.8539124,3.5735855-100.5962524c1.2089996-5.1151733,2.9148331-7.4047546,4.0690002-7.4047546
				c0.9477158,0,2.311676,0.7961731,2.9728851,1.3570862c2.3967056,2.2970276,55.4800568,53.2752075,70.8171997,75.5965881
				c6.6829987,9.7261658,14.2533264,22.6581726,21.5744171,35.1643982
				c10.3689117,17.7127686,20.1628265,34.4431763,27.2897491,41.930603
				c12.5558319,13.1908264,44.3872375,16.6044006,47.9754944,16.9502563l0.219574,0.0211487l0.2206116,0.0017395
				l171.7979736,1.3585205l0.374939,0.0029907l0.3711548-0.053009c0.829071-0.1183167,20.5604248-2.9729919,42.9076538-9.4621582
				c30.7471619-8.9283142,50.5660706-20.072998,58.9061584-33.1244812
				c19.835083-31.0401917-0.0263672-59.6720276-12.131958-67.9678345
				c-1.8809204-1.2889404-6.8771973-4.7128601-48.8119507-10.8363342
				c-18.0500793-2.6357422-35.3773499-4.6610718-39.0530396-5.0839844
				c-3.7451477-1.5993958-24.6216431-10.9757385-36.7697754-26.0723572
				c-6.3389282-7.8774109-12.9465027-11.8716736-19.6393433-11.8718262
				c-3.8736267-0.000061-6.8991089,1.3500366-8.9573669,2.7017517
				c-18.1039429-8.8105469-117.91745-58.2267456-180.8633728-106.6930084
				c-66.5694733-51.256073-106.1377106-115.4990005-108.8736267-120.0183945
				C99.9253998,98.3483582,89.2905502,76.8262177,63.8739319,76.8262177L63.8739319,76.8262177z"/>
		</g>
	</g>
	<linearGradient id="SVGID_2_" gradientUnits="userSpaceOnUse" x1="62.2388878" y1="94.8517609" x2="347.5783081" y2="380.1911926">
		<stop  offset="0" style="stop-color:#A9B4B9"/>
		<stop  offset="0.0181856" style="stop-color:#ABB7BC"/>
		<stop  offset="0.1122085" style="stop-color:#B4C0C5"/>
		<stop  offset="0.2369437" style="stop-color:#B9C5CB"/>
		<stop  offset="0.5147636" style="stop-color:#BAC7CD"/>
		<stop  offset="0.6486062" style="stop-color:#B7C3C8"/>
		<stop  offset="0.820403" style="stop-color:#ACB7BC"/>
		<stop  offset="1" style="stop-color:#9AA4A9"/>
	</linearGradient>
	<path class="st2" d="M77.068512,95.4731064c0,0,52.4089966,72.8342209,93.5758209,110.7378616
		c35.1696777,32.3818817,175.235733,123.5412292,210.4452972,135.0520325c0,0-12.8650208,25.0529785-41.9806519,41.9806519
		c-23.7679138,13.8185425-66.9249268-14.9477844-82.4786377-24.4267273
		c-3.5266418-2.149231-10.8380737-7.6444092-13.5628815-10.7479248
		c-16.4498901-18.7361755-117.941658-132.5108643-117.941658-132.5108643s-35.4410324-46.1602631-39.9319992-54.4056396
		C67.9458389,129.4854126,44.5673714,80.5767441,77.068512,95.4731064z"/>
	<linearGradient id="SVGID_3_" gradientUnits="userSpaceOnUse" x1="125.1258011" y1="303.994812" x2="351.4580994" y2="303.994812">
		<stop  offset="0" style="stop-color:#606262"/>
		<stop  offset="0.3534981" style="stop-color:#5B5D5D"/>
		<stop  offset="0.8063515" style="stop-color:#4C4D4D"/>
		<stop  offset="1" style="stop-color:#424343"/>
	</linearGradient>
	<path class="st3" d="M351.4580994,374.933197c0,0-50.9546204-12.4239807-82.0603638-36.8206177
		C238.2920074,313.7159119,125.1258011,215.558136,125.1258011,215.558136s85.1362686,104.632843,100.6840591,122.7703247
		C241.357666,356.4659729,300.7920227,423.8921204,351.4580994,374.933197z"/>
	<polygon class="st4" points="94.214653,422.6570129 80.0605164,432.4560242 62.5312462,425.6511536 62.5312462,408.5028687 
		78.3729477,412.8580017 94.214653,403.8755493 	"/>
</g>
<g id="Laag_1" class="st0">
	<path class="st5" d="M70.4926758,182.0161285c1.2600174,0.2662811,2.0996399,0.4437103,1.5560608,0.3288116
		c0.8753662-5.3148804,1.1885681-10.45961,2.6288071-15.2666168c2.7559586-9.1985016,5.636322-18.4295044,9.4558945-27.2163239
		c2.7903442-6.4191437,8.2630615-12.4789047,17.9356384-12.5202713c9.9212646-0.0424576,17.9513245,2.5730667,24.0468826,10.206337
		c3.5329819,4.4242249,6.3784714,9.3960419,9.5529099,14.1082458c7.2910919,10.8230743,14.1636963,21.9639282,22.0281372,32.3535614
		c6.324173,8.3547821,13.5281219,16.1234283,20.9541168,23.5388947
		c5.8696289,5.8613129,12.6727905,10.7872162,19.0559998,16.1350098c5.6989441,4.7745209,11.2001648,9.8105316,17.129776,14.2783508
		c8.9833069,6.7687225,18.2076111,13.2233887,27.4371033,19.6571655
		c5.1788788,3.6101379,10.5075378,7.0181274,15.8859406,10.3265991
		c10.8403625,6.6683655,21.6955261,13.3179016,32.6743469,19.7538757c5.9733582,3.501709,12.2755737,6.4378357,18.3146667,9.8332214
		c6.0481567,3.4005127,12.2879028,6.6018372,17.8451538,10.7016907
		c8.9692993,6.6170654,18.9118958,11.0025024,29.2466125,14.8011169c5.4490051,2.0028687,10.7279053,4.4662781,16.1638184,6.5081787
		c2.0446777,0.7680359,4.321228,1.3265686,6.4833374,1.2989197c6.9077759-0.0883789,11.9312439,2.063324,16.9104004,7.6435852
		c4.8245544,5.4069824,11.9367371,9.4661865,18.808197,12.1904602c10.2583008,4.0670471,21.180481,5.9041443,32.4057007,6.6655884
		c9.0612793,0.6146545,18.6000671,2.3406372,26.7293091,6.1377869c7.3960876,3.4546814,14.0013733,9.9473572,16.0375366,18.7115479
		c1.8779602,8.0829773,3.3713989,16.4101562,3.5299683,24.6586914c0.0602722,3.1368713-3.3934937,7.4379883-6.4199524,9.3330383
		c-9.2967529,5.8211365-19.036438,10.986145-28.8640137,15.884552c-4.2844849,2.1355896-9.1862793,3.0541992-13.8352966,4.4324646
		c-8.833252,2.618927-17.6026001,5.5300903-26.561676,7.6205139c-5.6763,1.3244019-11.6420593,1.8626709-17.4874878,1.9300537
		c-27.0384827,0.3119507-54.0818787,0.5558472-81.1201782,0.3612976c-11.964325-0.0860596-23.9256287-1.195282-35.8787537-1.9848022
		c-6.1990967-0.4094238-12.4225769-0.8398132-18.5551453-1.7812195
		c-11.3346252-1.7399292-21.0083466-6.6326904-27.5393677-16.4457397
		c-6.9696655-10.4721985-13.9344635-20.9572754-20.5275116-31.6669006
		c-4.1456757-6.7339478-7.265152-14.1048889-11.4829865-20.7874146c-3.0976257-4.9078064-7.4278717-9.0183105-10.8645477-13.7350159
		c-10.4803314-14.383667-21.8194275-28.0078735-35.0926056-39.9030762
		c-3.7356415-3.3478699-7.7798004-6.4967651-12.1054535-9.0084229c-7.2644043-4.2180176-10.1286774-3.8709717-10.7946167,5.5135193
		c-0.9253235,13.0401611-0.3220367,26.1820679-0.6531982,39.2733459c-0.23526,9.3001404-1.0887756,18.585022-1.3023224,27.8850708
		c-0.046875,2.0406799,1.6143341,4.0725098,2.1811523,6.1907959c0.4429474,1.655426,1.2272949,4.2051697,0.4492493,5.0350647
		c-3.8582001,4.1157227-7.9554901,8.096344-12.450386,11.4854736c-2.0041809,1.5111389-5.1776657,2.2032471-7.7542191,2.0617065
		c-4.5109634-0.2477722-9.0819397-1.0671387-13.3931885-2.403656c-1.5557861-0.4823303-3.2461853-3.0461426-3.4548645-4.8266296
		c-0.4154205-3.5441589,0.061348-7.2106323,0.3342056-10.8141174c0.6051254-7.9909668,1.9596405-15.9848328,1.8296356-23.9582825
		c-0.2095642-12.8513184-0.3385849-25.8566589-2.4126205-38.4830322
		c-2.1815414-13.2807312-2.6991043-27.5559692-11.6681442-38.7078857
		c-5.1777191-6.4378967-11.5185471-11.9850159-17.6330185-17.6101074
		c-4.5069199-4.1461182-6.8561211-9.1065979-8.3494644-14.9508362c-3.200882-12.5267029,1.2390518-24.5005798,2.3461151-36.6598663
		C65.3991089,207.4913025,68.2883148,195.0104523,70.4926758,182.0161285z M482.8328857,395.5559998
		c-1.0908203-4.3545227-1.7854614-7.4688416-2.6567688-10.5329285
		c-1.7297974-6.0829468-10.6602173-13.4348145-16.7442017-14.2346802
		c-4.0267944-0.5294189-7.9976807-1.5005493-11.9825439-2.3273926c-5.5085754-1.1430359-10.9855957-2.4504089-16.5158081-3.4730225
		c-4.6024475-0.8509827-9.2432251-1.5910645-13.8999634-2.0331421
		c-11.9882812-1.1381226-21.2486267-7.6923523-30.3081055-14.7840881c-3.3123169-2.592865-6.6736755-4.6370239-10.776001-0.8686829
		c-2.7084656,2.487915-5.8350525,4.5750122-8.9624329,6.5428162c-12.0049133,7.5537109-23.8634033,15.3816528-36.2120667,22.3335876
		c-9.0428467,5.0908813-18.9236145,8.7822571-29.6378784,6.388092c-5.2716675-1.1779785-10.2600403-3.5974731-15.4059143-5.3701477
		c-12.4600525-4.29245-22.6950684-12.2025452-32.4238586-20.6482544
		c-9.2671204-8.0448914-17.8926392-16.831543-26.7547913-25.3393555
		c-7.6089172-7.3047791-15.5305939-14.3319702-22.6327362-22.1044312
		c-9.1781769-10.0444641-16.7787018-21.6840515-26.7110748-30.8450928
		c-11.1320496-10.2675476-17.5155029-23.8098602-27.3704376-34.8386841
		c-4.909729-5.4945068-8.8293762-11.8736572-13.1980438-17.8517761c-3.5557098-4.8656769-7.7449188-9.3972015-10.5239563-14.6718445
		c-4.3295441-8.2175293-6.8491516-17.4620667-11.6716995-25.3299713
		c-8.1008377-13.2162323-11.493309-28.0357361-16.607666-42.2894897c-0.6863861-1.9129944-2.3108521-3.4893951-3.5009155-5.2216492
		c-1.5019913,1.227005-3.285965,2.2310486-4.460556,3.7168732c-8.1032867,10.2503967-9.1165314,22.9421692-11.7758789,35.0471039
		c-0.9815216,4.4677734-1.5956497,9.015152-2.4385681,13.5147247c-1.2142868,6.4821167-2.6649628,12.925354-3.6896667,19.4363556
		c-1.6532516,10.504715-2.4007645,21.1991882-4.787056,31.5231476c-1.3867722,5.9996033-0.1704559,10.9886475,1.5874176,16.3254395
		c2.1273956,6.4585876,7.5697556,9.8833923,12.3713989,13.9264832c5.050209,4.2523499,9.7812576,8.9562683,15.1836624,12.6941223
		c4.0628815,2.8110962,8.785408,5.0439453,13.5382233,6.3932495c6.846489,1.9436646,13.2182007,6.0698547,20.8993759,4.8828125
		c1.6835022-0.2601929,3.7078094,0.8889771,5.4085999,1.7271729c2.4299774,1.1976318,4.6802216,2.7539978,7.0549011,4.0711975
		c3.2167511,1.7843018,6.9188538,2.9787292,9.632309,5.3276978c6.2118835,5.3775024,11.9531403,11.2990417,17.8798828,17.0054626
		c3.4993134,3.3692017,7.4564209,6.3904724,10.3790283,10.2033386c5.3024902,6.9176331,9.8382263,14.4179077,14.9919586,21.4568481
		c2.5064087,3.4233398,6.142746,6.0532532,8.4600372,9.5738525c4.2329102,6.4308472,7.813446,13.2878723,11.7604675,19.9108887
		c5.6876221,9.5436707,11.1661377,19.2321777,17.3122559,28.4743042c3.3551331,5.0452576,7.4895172,9.757019,12.0002594,13.8090515
		c8.4100647,7.5546265,19.7333984,7.1245422,29.946991,9.247406c8.1631165,1.6966858,16.7294006,1.9019775,25.1226196,1.9634705
		c31.663269,0.2322998,63.3340149,0.4455261,94.9900208-0.0685425c7.3853455-0.1200256,14.9233398-2.5481262,22.0220947-4.987854
		c5.9189148-2.0343628,11.3573303-5.5319214,16.8999329-8.5789795c6.6025696-3.6296997,13.6239624-6.7924194,19.4762268-11.4094543
		c5.8999634-4.6546936,10.6070557-10.8273621,15.8003845-16.3690186
		C476.1064148,394.5212097,478.243042,392.165802,482.8328857,395.5559998z M113.9330292,141.5104218
		c-0.6613312,0.4169769-1.3226547,0.8339386-1.9839935,1.250885c3.6904297,10.3188629,6.9952011,20.7985992,11.2076874,30.8997345
		c2.7806778,6.6677704,7.6951294,12.4842529,10.1920776,19.2236481
		c4.9390259,13.3307953,12.2032623,24.9524689,21.5354309,35.5926056
		c5.9810638,6.8193054,11.3767242,14.2187653,16.4195557,21.7690887c3.0037994,4.4973907,4.7979279,9.7714081,11.1830444,10.5742645
		c0.9077454,0.1141357,1.8629913,0.7504578,2.5726471,1.392334c4.1970215,3.7959595,8.2276154,7.7813721,12.5113525,11.4743347
		c3.7599335,3.2414551,7.9634094,5.9780579,11.6442719,9.2996216c7.3018188,6.5889893,13.9747314,13.9351807,21.6480255,20.037384
		c10.1277313,8.0540466,20.9204102,15.279541,31.5131531,22.7392883
		c11.4512024,8.0642395,22.651001,16.5696716,34.6238708,23.7812195c8.9208679,5.37323,18.9494934,8.8861694,28.3786011,13.4471436
		c3.7002869,1.789856,7.0254211,3.0587769,11.0110474,0.6220398c7.5568237-4.6200256,15.3485718-8.8551331,22.9215698-13.4498291
		c3.9341736-2.3869629,7.6095581-5.2003784,12.0284424-8.2541809c-4.9634094-2.6480713-9.0018616-5.11026-13.2862854-7.0210571
		c-7.6708984-3.4211426-15.8183899-5.9028015-23.1707153-9.8790894
		c-11.3258362-6.1253052-22.1282654-13.2146912-33.1906128-19.8318176
		c-13.0111389-7.7828674-26.0998535-15.4365845-39.0858459-23.2609863
		c-11.781601-7.0987854-23.85849-13.798584-35.0966187-21.6841125
		c-12.5124512-8.7798462-24.3411102-18.5562439-36.238327-28.1820068
		c-6.5612946-5.30867-12.9729767-10.883728-18.8804474-16.9000092c-8.8880005-9.0516663-18.0265656-18.023056-25.6814575-28.0771332
		c-9.2452545-12.1428223-16.9548645-25.4469452-25.5571365-38.093338
		C119.2331848,146.1590118,116.3645325,143.9833832,113.9330292,141.5104218z M126.6952972,303.9527893
		c-7.814827-2.7198486-15.9706345-5.5583191-23.9211884-8.3254089c1.189537,6.4772949,2.3253784,12.5597534,3.419838,18.6496277
		c1.1803131,6.5675964,2.8988037,13.1017761,3.3618393,19.7219849c1.0049362,14.3677979,1.336441,28.7821655,2.0015335,43.1748352
		c0.1208649,2.615448,1.065361,4.0506592,4.1146393,2.6504211c3.0760574-1.4125366,6.3343506-2.4281311,11.0233383-4.1828918
		C126.6952972,352.2512207,126.6952972,328.0629578,126.6952972,303.9527893z M317.3271179,369.834259
		c-2.6398926-1.2932129-4.2304993-2.1346436-5.870636-2.8649902c-6.7392273-3.0010681-14.5715332-4.6916504-19.9798889-9.258667
		c-7.4039307-6.2520142-16.0821228-9.9715576-23.8164368-15.340332
		c-8.4273376-5.849884-16.1838531-12.6568298-24.3964233-18.8287964c-4.937088-3.7104187-10.1865997-7.005188-15.2957001-10.4867249
		c-0.4303131,0.4660034-0.860611,0.9320374-1.2909546,1.3980713c2.0777283,2.1064453,4.0909424,4.2814941,6.2444763,6.307312
		c8.658905,8.1452942,17.0678864,16.5906677,26.1272736,24.2665405c9.7068787,8.2245178,19.6342163,16.3108215,31.693634,21.1119995
		C298.7929993,369.343811,306.5780334,373.9296265,317.3271179,369.834259z M123.6317749,388.6200256
		c-3.7778473,0.9153137-6.4213028,1.8097839-9.1347198,2.1564026c-4.5883255,0.5861206-3.0047379,4.0921326-2.3557816,5.9890747
		c0.5178986,1.513855,4.1756287,3.6008911,4.6744308,3.205719c3.1749039-2.515686,5.9275284-5.5916138,8.5816956-8.6867676
		C125.6158524,391.0297546,124.0694199,389.2616272,123.6317749,388.6200256z M474.088562,410.2502747
		c6.0808716-0.1074524,8.6097107-3.1067505,7.3850098-8.7188416
		C478.9786987,404.4768677,476.7865906,407.0648804,474.088562,410.2502747z"/>
	<path class="st6" d="M482.8328857,395.5559998c-4.5898438-3.3901978-6.7264709-1.03479-8.930542,1.3170166
		c-5.1933289,5.5416565-9.9004211,11.714325-15.8003845,16.3690186
		c-5.8522644,4.6170349-12.8736572,7.7797546-19.4762268,11.4094543
		c-5.5426025,3.0470581-10.9810181,6.5446167-16.8999329,8.5789795c-7.0987549,2.4397278-14.6367493,4.8678284-22.0220947,4.987854
		c-31.6560059,0.5140686-63.3267517,0.3008423-94.9900208,0.0685425c-8.393219-0.0614929-16.9595032-0.2667847-25.1226196-1.9634705
		c-10.2135925-2.1228638-21.5369263-1.6927795-29.946991-9.247406c-4.5107422-4.0520325-8.6451263-8.7637939-12.0002594-13.8090515
		c-6.1461182-9.2421265-11.6246338-18.9306335-17.3122559-28.4743042
		c-3.9470215-6.6230164-7.5275574-13.4800415-11.7604675-19.9108887c-2.3172913-3.5205994-5.9536285-6.1505127-8.4600372-9.5738525
		c-5.1537323-7.0389404-9.6894684-14.5392151-14.9919586-21.4568481c-2.9226074-3.8128662-6.879715-6.834137-10.3790283-10.2033386
		c-5.9267426-5.7064209-11.6679993-11.6279602-17.8798828-17.0054626c-2.7134552-2.3489685-6.4155579-3.543396-9.632309-5.3276978
		c-2.3746796-1.3171997-4.6249237-2.8735657-7.0549011-4.0711975c-1.7007904-0.8381958-3.7250977-1.9873657-5.4085999-1.7271729
		c-7.6811752,1.1870422-14.052887-2.9391479-20.8993759-4.8828125c-4.7528152-1.3493042-9.4753418-3.5821533-13.5382233-6.3932495
		c-5.4024048-3.737854-10.1334534-8.4417725-15.1836624-12.6941223
		c-4.8016434-4.0430908-10.2440033-7.4678955-12.3713989-13.9264832c-1.7578735-5.336792-2.9741898-10.3258362-1.5874176-16.3254395
		c2.3862915-10.3239594,3.1338043-21.0184326,4.787056-31.5231476c1.024704-6.5110016,2.4753799-12.9542389,3.6896667-19.4363556
		c0.8429184-4.4995728,1.4570465-9.0469513,2.4385681-13.5147247c2.6593475-12.1049347,3.6725922-24.7967072,11.7758789-35.0471039
		c1.1745911-1.4858246,2.9585648-2.4898682,4.460556-3.7168732c1.1900635,1.732254,2.8145294,3.3086548,3.5009155,5.2216492
		c5.114357,14.2537537,8.5068283,29.0732574,16.607666,42.2894897c4.8225479,7.8679047,7.3421555,17.112442,11.6716995,25.3299713
		c2.7790375,5.2746429,6.9682465,9.8061676,10.5239563,14.6718445c4.3686676,5.9781189,8.2883148,12.3572693,13.1980438,17.8517761
		c9.8549347,11.0288239,16.2383881,24.5711365,27.3704376,34.8386841
		c9.932373,9.1610413,17.5328979,20.8006287,26.7110748,30.8450928c7.1021423,7.7724609,15.023819,14.7996521,22.6327362,22.1044312
		c8.8621521,8.5078125,17.4876709,17.2944641,26.7547913,25.3393555
		c9.7287903,8.4457092,19.9638062,16.3558044,32.4238586,20.6482544c5.145874,1.7726746,10.1342468,4.1921692,15.4059143,5.3701477
		c10.7142639,2.394165,20.5950317-1.2972107,29.6378784-6.388092c12.3486633-6.9519348,24.2071533-14.7798767,36.2120667-22.3335876
		c3.1273804-1.967804,6.2539673-4.0549011,8.9624329-6.5428162c4.1023254-3.7683411,7.4636841-1.7241821,10.776001,0.8686829
		c9.0594788,7.0917358,18.3198242,13.6459656,30.3081055,14.7840881c4.6567383,0.4420776,9.2975159,1.1821594,13.8999634,2.0331421
		c5.5302124,1.0226135,11.0072327,2.3299866,16.5158081,3.4730225c3.9848633,0.8268433,7.9557495,1.7979736,11.9825439,2.3273926
		c6.0839844,0.7998657,15.0144043,8.1517334,16.7442017,14.2346802
		C481.0474243,388.0871582,481.7420654,391.2014771,482.8328857,395.5559998z"/>
	<path class="st6" d="M113.9330292,141.5104218c2.4315033,2.4729614,5.3001556,4.6485901,7.2193375,7.4700317
		c8.602272,12.6463928,16.311882,25.9505157,25.5571365,38.093338c7.654892,10.0540771,16.793457,19.0254669,25.6814575,28.0771332
		c5.9074707,6.0162811,12.3191528,11.5913391,18.8804474,16.9000092
		c11.8972168,9.6257629,23.7258759,19.4021606,36.238327,28.1820068
		c11.2381287,7.8855286,23.3150177,14.5853271,35.0966187,21.6841125
		c12.9859924,7.8244019,26.074707,15.4781189,39.0858459,23.2609863
		c11.0623474,6.6171265,21.8647766,13.7065125,33.1906128,19.8318176
		c7.3523254,3.9762878,15.4998169,6.4579468,23.1707153,9.8790894c4.2844238,1.9107971,8.322876,4.3729858,13.2862854,7.0210571
		c-4.4188843,3.0538025-8.0942688,5.867218-12.0284424,8.2541809c-7.572998,4.594696-15.3647461,8.8298035-22.9215698,13.4498291
		c-3.9856262,2.4367371-7.3107605,1.1678162-11.0110474-0.6220398c-9.4291077-4.5609741-19.4577332-8.0739136-28.3786011-13.4471436
		c-11.9728699-7.2115479-23.1726685-15.71698-34.6238708-23.7812195
		c-10.5927429-7.4597473-21.3854218-14.6852417-31.5131531-22.7392883
		c-7.6732941-6.1022034-14.3462067-13.4483948-21.6480255-20.037384c-3.6808624-3.3215637-7.8843384-6.0581665-11.6442719-9.2996216
		c-4.2837372-3.6929626-8.3143311-7.6783752-12.5113525-11.4743347c-0.7096558-0.6418762-1.6649017-1.2781982-2.5726471-1.392334
		c-6.3851166-0.8028564-8.179245-6.0768738-11.1830444-10.5742645
		c-5.0428314-7.5503235-10.4384918-14.9497833-16.4195557-21.7690887
		c-9.3321686-10.6401367-16.596405-22.2618103-21.5354309-35.5926056
		c-2.4969482-6.7393951-7.4113998-12.5558777-10.1920776-19.2236481
		c-4.2124863-10.1011353-7.5172577-20.5808716-11.2076874-30.8997345
		C112.6103745,142.3443604,113.271698,141.9273987,113.9330292,141.5104218z"/>
	<path class="st6" d="M126.6952972,303.9527893c0,24.1101685,0,48.2984314,0,71.6885681
		c-4.6889877,1.7547607-7.9472809,2.7703552-11.0233383,4.1828918c-3.0492783,1.400238-3.9937744-0.0349731-4.1146393-2.6504211
		c-0.6650925-14.3926697-0.9965973-28.8070374-2.0015335-43.1748352
		c-0.4630356-6.6202087-2.1815262-13.1543884-3.3618393-19.7219849c-1.0944595-6.0898743-2.2303009-12.1723328-3.419838-18.6496277
		C110.7246628,298.3944702,118.8804703,301.2329407,126.6952972,303.9527893z"/>
	<path class="st6" d="M317.3271179,369.834259c-10.7490845,4.0953674-18.5341187-0.490448-26.5846558-3.6955872
		c-12.0594177-4.801178-21.9867554-12.8874817-31.693634-21.1119995
		c-9.0593872-7.6758728-17.4683685-16.1212463-26.1272736-24.2665405c-2.1535339-2.0258179-4.166748-4.2008667-6.2444763-6.307312
		c0.4303436-0.4660339,0.8606415-0.9320679,1.2909546-1.3980713c5.1091003,3.4815369,10.3586121,6.7763062,15.2957001,10.4867249
		c8.2125702,6.1719666,15.9690857,12.9789124,24.3964233,18.8287964c7.734314,5.3687744,16.4125061,9.0883179,23.8164368,15.340332
		c5.4083557,4.5670166,13.2406616,6.2575989,19.9798889,9.258667
		C313.0966187,367.6996155,314.6872253,368.5410461,317.3271179,369.834259z"/>
	<path class="st6" d="M123.6317749,388.6200256c0.437645,0.6416016,1.9840775,2.409729,1.765625,2.6644287
		c-2.6541672,3.0951538-5.4067917,6.1710815-8.5816956,8.6867676c-0.4988022,0.3951721-4.1565323-1.691864-4.6744308-3.205719
		c-0.6489563-1.8969421-2.2325439-5.4029541,2.3557816-5.9890747
		C117.2104721,390.4298096,119.8539276,389.5353394,123.6317749,388.6200256z"/>
	<path class="st6" d="M474.088562,410.2502747c2.6980286-3.1853943,4.8901367-5.773407,7.3850098-8.7188416
		C482.6982727,407.1435242,480.1694336,410.1428223,474.088562,410.2502747z"/>
</g>
</svg>
