<?xml version="1.0" encoding="utf-8"?>
<!-- Generator: Adobe Illustrator 22.1.0, SVG Export Plug-In . SVG Version: 6.00 Build 0)  -->
<svg version="1.1" id="Laag_1" xmlns="http://www.w3.org/2000/svg" xmlns:xlink="http://www.w3.org/1999/xlink" x="0px" y="0px"
	 viewBox="0 0 566.9 566.9" style="enable-background:new 0 0 566.9 566.9;" xml:space="preserve">
<style type="text/css">
	.st0{fill:#6F0411;}
	.st1{fill:#4F0106;}
	.st2{fill:#79081A;}
	.st3{fill:#550206;}
	.st4{fill:#810312;}
	.st5{fill:#620410;}
	.st6{fill:#76020C;}
	.st7{fill:#67010D;}
	.st8{fill:#810516;}
	.st9{fill:#8D0316;}
	.st10{fill:#760614;}
	.st11{fill:#6C0613;}
	.st12{fill:#870D20;}
	.st13{fill:#55040A;}
	.st14{fill:#6B020D;}
	.st15{fill:#64060F;}
	.st16{fill:#6B0511;}
	.st17{fill:#65050E;}
	.st18{fill:#6F0209;}
	.st19{fill:#76081A;}
	.st20{fill:#AF2535;}
	.st21{fill:#7D1124;}
	.st22{fill:#550811;}
	.st23{fill:#4E0811;}
	.st24{fill:#660713;}
	.st25{fill:#65121E;}
	.st26{fill:#4C0F16;}
	.st27{fill:#722733;}
	.st28{fill:#4C0406;}
	.st29{fill:#5E020E;}
	.st30{fill:#4F0D19;}
	.st31{fill:#520406;}
	.st32{fill:#731B24;}
	.st33{fill:#750F1C;}
	.st34{fill:#4C1017;}
	.st35{fill:#720C1A;}
	.st36{fill:#601221;}
	.st37{fill:#641623;}
	.st38{fill:#690413;}
	.st39{fill:#720514;}
	.st40{fill:#5F020C;}
	.st41{fill:#7B0A1A;}
	.st42{fill:#811624;}
	.st43{fill:#923240;}
	.st44{fill:#7E2630;}
	.st45{fill:#4A0309;}
	.st46{fill:#680514;}
	.st47{fill:#5A010A;}
	.st48{fill:#740109;}
	.st49{fill:#70020E;}
	.st50{fill:#620209;}
	.st51{fill:#440206;}
	.st52{fill:#751720;}
	.st53{fill:#8A353E;}
	.st54{fill:#78242B;}
	.st55{fill:#88202B;}
	.st56{fill:#832129;}
	.st57{fill:#9F3A43;}
	.st58{fill:#7B0712;}
	.st59{fill:#862431;}
	.st60{fill:#500208;}
	.st61{fill:#760312;}
	.st62{fill:#540109;}
	.st63{fill:#620310;}
	.st64{fill:#4B0205;}
	.st65{fill:#651A1E;}
	.st66{fill:#310203;}
	.st67{fill:#9A2E48;}
	.st68{fill:#84010D;}
	.st69{fill:#52030B;}
	.st70{fill:#751F29;}
	.st71{fill:#9C1321;}
	.st72{fill:#85333B;}
	.st73{fill:#490208;}
	.st74{fill:#420102;}
	.st75{fill:#510108;}
	.st76{fill:#901023;}
	.st77{fill:#83091B;}
	.st78{fill:#830A1C;}
	.st79{fill:#530208;}
	.st80{fill:#8B2634;}
	.st81{fill:#4D0205;}
	.st82{fill:#63010C;}
	.st83{fill:#70030F;}
	.st84{fill:#710515;}
	.st85{fill:#510106;}
	.st86{fill:#791E26;}
	.st87{fill:#7F2932;}
	.st88{fill:#67101C;}
	.st89{fill:#410105;}
	.st90{fill:#61111A;}
	.st91{fill:#951129;}
	.st92{fill:#440209;}
	.st93{fill:#3C0205;}
	.st94{fill:#810A1E;}
	.st95{fill:#330102;}
	.st96{fill:#420103;}
	.st97{fill:#5E0203;}
	.st98{fill:#3A0101;}
	.st99{fill:#610101;}
	.st100{fill:#280102;}
	.st101{fill:#7B1927;}
	.st102{fill:#320103;}
	.st103{fill:#780607;}
	.st104{fill:#800518;}
	.st105{fill:#5C0811;}
	.st106{fill:#790B1E;}
	.st107{fill:#750306;}
	.st108{fill:#820E12;}
	.st109{fill:#8E0E10;}
	.st110{fill:#800B0D;}
	.st111{fill:#8A0920;}
	.st112{fill:#701B1D;}
	.st113{fill:#9E2024;}
	.st114{fill:#981618;}
	.st115{fill:#19282C;}
	.st116{fill:#190806;}
	.st117{fill:#61080B;}
	.st118{fill:#3B0B0B;}
	.st119{fill:#922025;}
	.st120{fill:#370406;}
	.st121{fill:#2E1115;}
	.st122{fill:#71141A;}
	.st123{fill:#360D0E;}
	.st124{fill:#6F282B;}
	.st125{fill:#2E393E;}
	.st126{fill:#09080D;}
	.st127{fill:#171617;}
	.st128{fill:#4D5355;}
	.st129{fill:#1E3332;}
</style>
<g>
	<path class="st0" d="M31,368c-4.7-2.9-7.2-7.1-7.8-12.5c-4.5-13.4-6.4-27-1.9-40.9c0.3-0.9,1-1.9,0.8-2.7
		c-4.1-15.4-0.5-32.1-7.6-47.1c2.3-14,5.2-28,6.6-42c1-9.8,4-20.1,8.7-26.7c5.3-7.5,10.4-18.3,21.7-20.7c3,0.7,5.7,2.2,8.8,2.8
		c4.1,0.8,5.6,3.4,4.9,7.4c0.3,2.6-1,6.2,3.1,6.6c3,0.3,5.4-1.8,6.3-4.7c1.8-5.4,3.9-10.6,7.7-14.8c5.5-6.1,9.6-5.8,14.1,0.8
		c0.7,1,1.2,2.2,1.9,3.2c8.4,12.2,8.1,12-0.1,25c-4.9,7.6-9.9,15-16.5,21.2c-2.9,2.7-5.7,4.8-9.7,4.7c-0.9,0.2-2.3,0.1-2.6,0.8
		c-4.2,7.6-8.9,8.2-14.8-0.4c-1.5,9.3-0.6,17.1-1.3,24.8c-1.1,12.6-5,24.4-7.6,36.6c-1.2,5.6-4.5,10.2-8.2,14.6
		c-5.3,6.2-4.8,11.9-0.9,19.5c5.9,11.7,8.2,24.7,3.3,37.8c-1.3,3.5-4.1,5.4-7.5,6.5C31.9,367.9,31.4,367.9,31,368z"/>
	<path class="st1" d="M513.1,347.1c-3.6,5.6,2.8,10.1,1.7,15.4c-3,2.5-5.8,1.1-8.5-0.7c-15.3-14.8-23.9-7.2-28.1,6.2
		c-6.2,20-21.3,33.5-30.4,51c-2.9,5.5-8.5,7-14.3,7.6c-12.5,1.4-24.9-1.1-37.3-2.3c-6.1-0.6-9.1-5-9.4-11.1
		c0.4-6.4,2.6-12.2,4.7-18.2c6.7-5.6,12.8-0.6,17.4,2.7c7.6,5.5,12.6,4.4,17.4-2.9c2.3-2.6,4.5-5.2,7.2-7.3
		c4.8-3.6,6.6-9.5,10.5-13.7c9.5-13,14.4-28.5,22.1-42.5c5.6-10.4,9.6-21.6,16.5-31.3c3-0.6,4.6,1.4,6.1,3.3
		c9.6,11.8,15.8,25.9,24.4,38.3C514.4,343.4,514.6,345.4,513.1,347.1z"/>
	<path class="st2" d="M186.8,533.1c-4.2-1.9-7.1-5.3-9.7-8.9c-1.2-2.1-1.6-4.3-0.1-6.5c4.9-2.5,4.8-9.2,9.8-11.7
		c15.7,10,33.7,10.9,51.3,13.7c13.4,2.1,25.7-0.9,38.3-4.4c6.8-1.9,13.1-4,17.3-10c2.8-3.9,7.4-4.2,11.5-5.5
		c5.8-0.9,7.1-8.8,13.5-8.7c4.1,7.4,2.6,10.6-6.6,13.6c16-0.3,28.2,7,39.4,16.7c2.4,2.1,4.3,4.6,4.1,8.1c-5.2,4.3-11.7,5.2-18,6.2
		c-10.4,1.7-19.4,7.9-29.9,9c-20.5,0.5-40.9,0.8-61.4-0.3c-16.4-0.8-31.6-4.6-47.2-8.4c-0.9-0.2-1.9-0.2-2.8-0.3
		C193,534.9,189.7,534.9,186.8,533.1z"/>
	<path class="st3" d="M340.8,37.7c20.3-4.5,40.3-3,59.9,3.6c0.5,4.5-3.3,4.4-5.9,5.7c-4.1,1.1-8-0.1-11.9-1.3
		c-11-3.4-22.3-0.2-33.4-1c-4-0.3-3.8,3.3-2.2,6.1c2.1,3.6,5.4,6,8.8,8.1c14.5,8.9,22.5,21.9,24,38.9c1,11.5,2.1,22.9,3.5,34.3
		c0.4,3.7,1,7.6-3.1,10c-7.9-0.2-15.3-2.3-22.2-6.3c-5.7-5.6-6.9-11.5-3.5-19.4c3.8-8.8,3.3-17.4-5.2-24.4
		c-4.8-3.9-8.1-9.4-12.4-13.9c-1.5-1.6-2.8-3.5-5.4-2.8c-1.8,0.4-3.7,0.6-5.5,0.4c-1.5-0.2-3-0.7-4.3-1.4c-1.3-0.9-2.7-1.5-4.3-1.7
		c-24.8-3-49.5-5.3-74.5-2.7c-4.7,1.1-9.5,5.7-14.2,0c-0.5-1.6-0.3-3.1,0.9-4.3c14.4-4.4,29.7-5.7,43.5-12.4c5.5-1,11-0.9,16.5-0.2
		c14.7,3,30.1,2.9,43.4,11.4c-8.4-5-17.7-7.1-27-9.4c-0.2-1.7,0.3-3.4,1.7-4C318.7,46,328.6,39,340.8,37.7z"/>
	<path class="st4" d="M513.1,347.1c-9.6-15.8-17.2-32.7-30-46.4c-1.6-5.7-1.3-11.3,0.9-16.9c0.8-1,1.7-1.9,2.9-2.2
		c16.4-3.2,32.9-5.4,49.3-7.9c7.2-1.1,12.7,4.9,13.7,12.5c0.3,2.4,0.3,4.9,1.3,7.2c0.3,2-0.3,3.8-1,5.6c-1.7,4.1-3.1,8.1-1.9,12.7
		c1.1,4.2-0.6,7.8-2.5,11.6c-4,7.7-9.4,14.6-12.7,22.9c-2.7,6.7-4.9,12.8,0.6,19c-1.6,5.8-7.5,8.7-9.3,14.8
		C519.6,368.9,519.4,356.9,513.1,347.1z"/>
	<path class="st5" d="M550.5,294.9c-1.2-2-3.5-2.9-3.5-6.1c0.2-10-5.5-15.5-14.6-12.8c-15.5,4.7-31.6,5.1-47.4,7.6
		c-1-0.9-1.3-2-0.9-3.2c-0.6,0.5-0.1,1.1-0.2,1.7c-1.6,8.5,1.4,18.1-6.3,25c-6.3-3.9-7.3-11.1-10.6-17c-0.8-4.8-0.4-9.4,1.8-13.8
		c3.8-9.1,4.8-18.7,6-28.4c0.5-4,0.6-8.1,3.5-11.4c3.6-2.6,7.7-2.4,10.3,0.5c9.6,10.7,21.9,8.6,33.1,5.8c9.5-2.4,17.5-2.3,25.7,2.4
		c1.2-0.8,1.5,3.8,3.1,0.5c3.3,3.9,5.8,8.3,5.6,13.7c0.1,9.3-1.3,18.5-1.2,27.8C555,290.2,555.6,294.4,550.5,294.9z"/>
	<path class="st6" d="M340.8,37.7c-10.7,6.9-23.6,9.3-34,16.7c-3,1.4-6-0.1-9,0.4c-8.9-0.5-17.8-2.7-26.6,0.5
		c-13.9,5.3-28.3,8.3-42.8,10.7c-3.4,0.6-6.7,0.8-10.1,0.1c-8.2-4.1-17.4-3.3-26.1-5c-3.1-0.6-7.2,0.5-7.7-4.6l0,0
		c4.2-3.2,8.9-1.9,13.5-1.8c-1.6-5.1,1.7-8.4,4.4-12c0.8-1,1.8-1.7,2.9-2.3c15.3-4,29.8-10.4,45.4-13.4c13.4-2.6,26.6,0.5,39.9,1.2
		c11.4,0.6,22.9,2,33.4,7.3c4.7,2.4,9.8-0.8,14.7,0.5C339.4,36.6,340.1,37.1,340.8,37.7z"/>
	<path class="st7" d="M72.1,225.5c9.5-1.1,12.4-10.2,18.2-15.6c2.7-2.5,4.2-7.3,6.8-10.8c2.9-3.9,5-8.4,7.4-12.6
		c-6.3-3.6-8.7-10.2-12.6-15.7c-2-2.8-5.5,0.1-7,2.1c-3,3.9-6.8,7.7-7.1,12.9c-0.4,5.8-4.3,7.6-8.8,9.5c-4,1.6-6,0.8-6.3-3.5
		c-0.1-2.5,0-5,0-7.5c4.8-2.6,8.4-6.2,9.6-11.8c0.4-2.1,1.3-4.2,2.8-5.8c14.4-16.3,20.2-37.3,30.7-55.7c0.6-0.6,1.3-1.3,1.9-1.9
		c0.7,0.6,1.3,1.3,1.6,2.2c1.7,6.8-1.4,12.7-3.7,18.8c-1.6,4.3-6.9,9.5-1.4,13.2c5.2,3.5,10.6,0.3,14.2-5c1.1-1.6,2.2-4.1,5.1-2.3
		c1.5,2.3,1.4,4.7,1,7.2c-2.4,8.8-3.1,17.7-3,26.8c0.1,12.9-2.9,24.8-12.5,34.2c-4.9,4.8-5.7,11.7-8.7,17.5
		c-4.9,9.5-10.8,13.3-19.1,11.6C77,232.3,72.4,231.3,72.1,225.5z"/>
	<path class="st8" d="M484.9,452.4c-3.8,7.9-10.5,13.6-15.3,20.7c-6.4,1.2-12,5.7-19,4.7c-10.1-9-24.1-9.9-35.1-16.9
		c-2.8-1.8-5.9-0.7-8.9,0.7c-8.7,4-18.4,5.8-25.7,12.8c-1.8,1.7-4.4,2.5-6.9,1c-1.6-6.4,1.6-11.5,6.3-14.4
		c8.1-5.1,16.2-10.5,25.7-13.1c6.6-1.8,12.9-2,19,1.4c3.9,2.2,8.2,2.8,12.6,3c9.3,0.4,11.6-1.7,14.6-10.7c4-12.1,9.2-23.7,17-34
		c6.5-8.7,11.5-18.4,18.8-26.6c4.5-5.1,8.7-9.7,16.3-8.9c3.5,0.4,6-3.2,9.6-3.2c1,0,1.9,0.4,2.6,1.1c0.1,1.9,0.3,3.8,0.4,5.6
		c-1.6,1.8-2.4,4.9-5.2,5.1c-13.7,1-18.3,13-25.2,21.6c-7.5,9.4-12.8,20.6-19.9,30.5c-0.3,0.5-0.5,0.7-0.5,0.8
		c-3,5.2-2.9,17.6,0.5,18.3c6.5,1.4,11.4-2.7,15.1-7.3c3.9-4.8,7.2-10.2,10.5-15.5c1.8-3,3.9-5.7,6.9-7.5c3-1.9,5.3-1.9,5.8,2.4
		C500.2,434.8,493.4,444.2,484.9,452.4z"/>
	<path class="st9" d="M503.7,424.4c-0.7-4.7-2.6-1.9-4-0.6c-5.9,5.6-9.8,12.9-13.8,19.8c-4,7.1-10.9,9-17.2,12.1
		c-2.7,1.3-5.6-0.3-5.7-3c-0.2-6.5-4.1-13,0.7-19.7c11.7-16.6,21.8-34.4,34.8-50.1c1.9-2.3,4.5-3.7,7.4-3.4
		c4.4,0.4,7.8-1.6,11.2-3.9c1.6,9.1,1.2,17.8-4.3,25.7c-4.9,7-1.2,16-5.4,23.1C506,425.5,504.9,425.6,503.7,424.4z"/>
	<path class="st10" d="M94.4,482.7c-7.7-4.6-15.7-8.8-22.2-15.1c-7.6-10.2-6.7-22-6.1-33.7c0.2-3-0.4-6.9,3.5-7.7
		c3.5-0.8,6.2,1.8,7.1,4.9c5.5,17.1,21.6,20.4,35.1,26.4c11.3,5,23.7,7,30.5,19.4c2.8,5.1,10,6,15,9.1c6,6.8,15.4,10.9,16.3,21.6
		c-3.7,3.5-7.5,3.2-10.4-0.7c-12.7-17-33.3-17.7-50.7-25.1c-4.2-1.7-8.5,0.1-12.5,2.1C97.9,484.3,96.1,483.7,94.4,482.7z"/>
	<path class="st11" d="M156.6,488.2c-7.4-4.8-16.2-6.3-21-16.6c-3.1-6.8-14.7-8.2-22.7-11.5c-15-6.3-32.8-9.2-38.2-28.5
		c-0.6-2.1-2.2-3.8-6.2-3.7c2.1,12.2-5.3,25.1,4.7,36.6c0.9,1,0.1,2.3-1,3.1c-11.3-11.8-14-27.2-16.7-42.3c-1.6-8.8-1.5-18-2.1-27
		c-4-5.4-4.1-12-5.1-18.2c2.6-8.3,5.8-16.3,8.8-24.5c1.1-3.2,1.5-10.5,8.8-6.5c0.8,1.9,0.8,3.9,0.3,5.9c-3.1,6.4-2.3,12,1.6,18.4
		c5.6,9,3.8,20,4.8,30.1c1.9,19.3,9.3,34.5,27.4,43.5c9.8,4.9,19.7,9.5,30.3,12.2c8.1,2.1,15.2,5.2,18.6,13.9
		c1.7,4.4,6.5,6.7,8.6,11C157.8,485.6,157.7,487,156.6,488.2z"/>
	<path class="st12" d="M374.2,475.1c10.2-4.7,18.9-12,30.1-15.2c5-1.4,8.5-3.5,13.3-0.7c7.1,4.3,14.9,7.1,22.8,9.4
		c4.8,1.4,8.3,4,10.7,8.3c-1.2,7-7.5,6.2-12.1,7.6c-5.2,1.6-11.1,0.5-16,3.8c-8.7,0.5-17.2-0.2-24.8-5.2c-1.6-1.1-2.9-0.3-3.7,1.3
		c-8.3,3.3-15.1-2.2-22.6-3.9c-0.9-0.5-1.6-1.3-2.1-2.2C369.6,475,370.7,473.4,374.2,475.1z"/>
	<path class="st13" d="M338.7,36c-6.6,3.2-12.6,4-20,0.3c-13.4-6.6-28.8-4.6-43.2-7c-21.8-3.6-41.1,4.9-61,10.8
		c-3,0.9-6,1.6-9.1,1.5c-2.8,1.8-4.6,0.7-5.9-2c4.2-5.7,10-8.7,16.5-11.4c30.8-13.2,61.9-12.4,93.3-2.6
		C319.1,28.8,330,29.4,338.7,36z"/>
	<path class="st14" d="M516.5,370c-0.5,0-1.1,0-1.6,0c-21.3-2.4-29.3,14.6-40,27.6c-8.5,10.3-17.2,20.2-20.9,33.8
		c-2.2,8-9.9,10.4-19.3,9.3c-18.8-2.3-36.8-1.9-51.5,12.7c-5.2,5.1-10.4,9.8-12.3,17.2c-0.8,3.1-1.7,6.3-6.2,5.1
		c-7.4-8.6-7.6-14.7-0.5-23c3.9-4.5,8.5-8.2,13.9-10.9c1.7-0.8,3.7-1.2,5.1-2.4c13.6-10.9,28.6-13.5,45.6-10.2
		c9.6,1.9,16.9-2.9,20.4-12.5c1.1-3.2,2.7-6.3,5.2-8.8c12.8-12.4,22-27.8,33.6-41.3c5.4-6.3,11-10.2,19.4-6c2.3,1.2,4.7,2.2,7.4,1.9
		C516.5,364.7,517.2,367.2,516.5,370z"/>
	<path class="st15" d="M122.7,94.1c12.3-6.4,19.4-20.4,33.8-23.7c5.5,2.2,10.9-1.4,16.4-0.2c4.1,0.8,8.2,0.8,9.3,5.9
		c0.1,3.7-3.8,5.3-4.6,8.5c-8.7,8.7-20,14.2-27.7,24c-1.1,0.6,0.5,0.4-0.7,0.6c-8.3,1.2-14.9,4.8-19.1,12.5c-0.7,1.4-3.1,2-4.7-0.1
		c-0.5-1.2-0.9-2.5-0.4-3.6C128.8,109.5,128.4,101.5,122.7,94.1z"/>
	<path class="st16" d="M355.4,529.5c-11.2-13.8-25.6-21.7-43.8-23.2c2.5-4.9,11.3-6.8,6.2-14.4c-1.4-8-5.5-14.8-9.3-21.8
		c-2.9-5-8.9-8.4-7.9-15.4c4.8-3.8,10.2-3.3,15.6-2.3c3.6,9.5,2.5,20,7.3,29.4c2.6,5,5.3,8,10.7,8.8c7.7,1.2,15.1,3.3,21.8,7.6
		c9.9,9.4,10.7,13.8,5,27.7C360,528.3,357.7,528.8,355.4,529.5z"/>
	<path class="st17" d="M394.8,45.4c2-1.4,3.9-2.7,5.9-4.1c8.5,6.3,19.2,7.4,28.3,12.4c8.9,4.9,17.1,10.8,22.1,19.4
		c9.6,16.4,24.1,29.7,31.1,47.7c5.9,15.1,13.9,29.7,13.9,46.6c-0.8,0.7-1.6,0.8-2.6,0.4c-8.3-6.7-11.6-16.8-13.6-26
		c-2.5-11.7-8.2-21.6-14.3-30.7c-5.9-8.8-10.4-18.3-16.6-26.9c-6.1-8.5-13.2-15.7-22.9-20.1c-6.1-2.8-13.6-2.4-18.8-7.5
		C403.8,52.3,397.4,50.9,394.8,45.4z"/>
	<path class="st18" d="M494.3,167.4c0.6,0,1.3,0,1.9,0c0.6,9.5,1,19.1-1.7,28.4c-4.1-2-7.4-1.8-9.8,2.8c-1.6,2.9-3.8,5.6-7.7,5.4
		c-8.7-6.8-10-18.7-18.1-26c-3-2.7-5.4-5.8-9.2-7.4c-15-13.1-32.4-17.9-51.9-14.8c-3.3,0.5-6.2,1.2-7.6-2.9c-0.1-1,0-1.9,0.4-2.9
		c5.3-5.8,12.1-3.8,18.4-3.4c21,1.3,40.5,8.4,59.9,16.1c3.3,1.3,6.3,3.2,8.1,6c4.6,7,9.2,6.1,14.3,0.7
		C492.1,168.5,493.1,167.8,494.3,167.4z"/>
	<path class="st19" d="M122.7,94.1c9.3,3.7,8.7,11.1,6.5,18.8c-0.9,3.2-3.1,6-2.7,9.5c3,5.6,1.3,9.8-3.8,13.1
		c-3.4,7.7-8.2,12.7-17.6,11.4c-5.8-0.8-7.4-2.8-5.5-8.6c3-9,9.4-16.9,8.1-27.2c3-4.5,8.2-7.4,9.5-13.1
		C118.5,95.8,120.5,94.8,122.7,94.1z"/>
	<path class="st20" d="M550.6,245.7c-0.3,0.8-0.7,1.7-1,2.5c-0.3-0.7-0.6-1.4-0.9-2.1c-7.7-3.3-15.5-6.1-24.1-4.2
		c-6.7-2-11.3-7.5-17.6-10.4c-5.6-2.5-10.4-6.8-17.1-7c-3.4-0.1-4.8-2.4-4.8-5.7c2.9-5.5,1.6-13.5,9.7-15.8
		c8.3,7.7,20.5,8.4,29.1,16.1c3.6,3.2,10,3.2,9.5,10.6c0,0.6,6.7,4.1,9.9,6.9C546.3,239.2,550.2,241.1,550.6,245.7z"/>
	<path class="st21" d="M100.3,482.5c3.8-5.9,9.4-4.2,14.3-2.9c11.6,3.2,22.4,8.8,34.2,11.5c6.8,1.6,11.2,8,15.2,13.4
		c3.1,4.2,5.9,3.2,9.5,2.4c3.8-3.1,7.5-3,11.3,0.1c2.3,5.8-1.6,8.5-5.6,11.2c-4.3-4-10.7-2.1-15.3-5.5c-11.2-1.3-22.6-0.3-33.5-4
		c-2.5-2-4.1-4.5-4.6-7.8c-2-12-6.6-16.2-18.5-16.9C104.8,483.8,102.2,484.8,100.3,482.5z"/>
	<path class="st22" d="M105.8,110.9c-0.1,2.2,0.5,4.8-0.6,6.4c-9.8,15.6-13,34.8-26.7,48.3c-2.5,2.5-4.1,5.4-4.6,8.9
		c-0.8,6.7-4.7,9.8-11.3,9.7c2.3-5-2.8-4.7-4.3-4.4c-4.3,0.9-5.5-1.8-7-4.5c13.7-2.5,18.6-16,28.8-23c2.9-2,0.8-7.5,3.2-11.1
		C90.3,130.6,96.9,119.9,105.8,110.9z"/>
	<path class="st23" d="M361.1,525.9c0.1-9.2,3.7-19.2-5.6-26.4c3.5-3.2,6.9-1.3,10.4-0.1c2.9,1.1,5.9,3.1,8.5-0.1
		c2.7-3.3,2.4-6.8,0.3-10.4c-1.8-3-5.1-5.9-2.4-10c7.4,1.8,14.8,3.7,22.2,5.5c1.4,4.6-0.4,8.3-3.1,11.9
		C382.6,507.6,372.9,517.8,361.1,525.9z"/>
	<path class="st24" d="M533.9,364.9c-8.4-2.7-8.2-7.6-5-14.8c3.8-8.4,7.8-16.4,12.7-24.2c3.4-5.5,7.1-10.7,3.9-18
		c-1.2-2.7,0.7-6.6,3.2-9.2c6.2,2.3,3.9,7.4,3.7,11.7c-0.5,10.8-4,21.1-5.6,31.8C544.6,350.9,540.1,358.4,533.9,364.9z"/>
	<path class="st25" d="M196,533.3c5.2,0.8,11.2,0.1,15.4,2.6c18.2,10.5,38.6,5.1,57.7,7.5c12.2,1.5,25.6,0.2,38.5,1.4
		c-19.4,6.3-39.3,2.8-59.1,3.3c-6.8-3.8-14-1.3-21.1-1.4l-0.8,0.2l-0.7-0.5c-6.1-2-12.6-2-18.8-3.6c-2.9,0.6-5-1.5-7.5-2.2
		C198.8,537.9,195,536.8,196,533.3z"/>
	<path class="st26" d="M15.7,342.2C4.9,329,8.3,313.4,8.8,298.5c0.3-8.2,3.1-16.2,4.8-24.4c7.5,3.2,5.1,10.4,5.9,15.9
		c0.8,5.5,0.3,11.2,2.9,16.4c0.3,0.6,0.7,1.2,0.5,1.8C18.8,319.2,19.6,331.2,15.7,342.2z"/>
	<path class="st27" d="M100.3,482.5c6.9-2.5,13.1-0.3,19.4,2.3c6,2.5,10.4,6,8.3,13.3c-1.3,4.2,2.4,6.9,2.4,10.6
		c-9.5-3.6-19-6.7-25.4-15.7c-2.8-4-7-6.9-10.6-10.3C96.3,482.6,98.3,482.6,100.3,482.5z"/>
	<path class="st28" d="M181,77.3c-3.6-9.2-11.3-3.6-17.1-4.4c-2.8-0.4-6.1,1.9-7.3-2.6c9-3.7,18.2-6.6,27.9-8.2
		c10.4-3,20.6-1.9,30.5,2.3c0.7,2.8-1.2,3.8-3.1,4.9c-8.5,1.8-17.2,2.9-24.8,7.8C185.2,78.4,183,79.1,181,77.3z"/>
	<path class="st29" d="M15.7,342.2c-0.3-9.9,0.5-19.6,4.2-29.1c3.3-8.3-2.8-15.9-3.1-24.2c-0.2-4.6,1.4-10.7-3.2-14.8
		c0.3-3.1,0.6-6.1,0.9-9.2c4.1-0.2,5.4,2,5.2,5.8c-0.3,4.4,2.6,9,2.1,12.5c-1.7,12.3,5.9,24.3,0.6,36.6c-3.9,9.1,2.5,18.3,0.2,27.5
		c-0.6,2.5,0.4,5.4,0.7,8.2C19.5,351.7,17.1,347.2,15.7,342.2z"/>
	<path class="st30" d="M546.9,342.2c-2-3.8-1-7.1-0.2-11.3c2.2-10.5,5.8-21.2,2-32.2c0-1.6,0.3-2.9,1.8-3.8
		c3.7-4.3,1.7-9.4,1.8-14.1c0.1-7.4,1-14.6,3.9-21.4c4.7,11.1,2.3,22.8,1.6,33.9c-1.1,15.5-3.4,31.1-8.9,46
		C548.4,340.5,548.3,341.7,546.9,342.2z"/>
	<path class="st31" d="M494.8,203.1c-2.7,5.6-5.3,11.2-8,16.8c-1.4,1.2-0.4,3.6-2.2,4.5c-1.3,0.5-2.6,0.4-3.8-0.4
		c-2.8-4.1-1.2-9.5-4-13.6c-0.4-0.8-0.6-1.7-0.8-2.5c-0.2-1.9-0.1-3.6,1.6-4.9c3.2-1.6,4.9-4.3,6.4-7.4c3.5-7.1,7.1-6.2,10.5,0.1
		C494.6,198.2,494.7,200.7,494.8,203.1z"/>
	<path class="st32" d="M423,488.3c3-4.9,8.1-5.1,12.9-5.7c5.6-0.7,11-1.6,15.2-5.7c6.2-1,11.5-6.4,18.5-3.9
		C457,487,440.6,489.6,423,488.3z"/>
	<path class="st33" d="M199.4,39.7c2,0.7,4,1.3,5.9,2c-1.2,1.7-3.2,3.4-3.5,5.3c-1.7,11-9.4,10.4-17.4,9.5
		C187.8,49.4,193.7,44.6,199.4,39.7z"/>
	<path class="st34" d="M49.6,379.4c2.7,6,0.7,13,3.7,18.9c-1.1,0.3-2.1,0.5-3.2,0.8C49,385.5,35.9,379.3,31,368c0,0,0.3-0.2,0.3-0.2
		C40.4,366.9,44.7,373.7,49.6,379.4z"/>
	<path class="st35" d="M503.7,424.4c1.2,0,2.3,0,3.5,0c-4.3,11.8-8.9,23.4-22.3,27.9C491.2,443,497.4,433.7,503.7,424.4z"/>
	<path class="st33" d="M214.7,66.1c-9.4-6.7-20.2-2.6-30.3-4c-0.1-1.9-3.6-3.7,0-5.6c7,3.4,14.8,2.7,22.2,3.7
		c4.4,0.6,8.4,1.3,11.8,4c0.7,0.8,0.9,1.6,0.7,2.6C217.3,68.8,215.5,70.4,214.7,66.1z"/>
	<path class="st36" d="M163.8,512.7c3.7,0.1,7.3,0.5,11,0.2c4.4-0.3,4.2,2.5,4.3,5.3c-2.3,1.5-1.8,3.9-2,6
		C172.7,520.4,168.3,516.6,163.8,512.7z"/>
	<path class="st37" d="M227.4,546.6c7.3-3.4,14.5-6.1,21.1,1.4C241.4,547.9,234.3,549.9,227.4,546.6z"/>
	<path class="st15" d="M117.3,98c2.8,8.7-5.7,9.2-9.5,13.1c0-0.7,0-1.3-0.1-2C110.5,105,112.7,100.5,117.3,98z"/>
	<path class="st37" d="M196,533.3c1.9,2.1,4.5,3.7,3.8,7.2c-4.6-1.9-9.3-3.7-12.9-7.3C189.9,533.2,192.9,533.2,196,533.3z"/>
	<path class="st37" d="M207.2,542.6c6.5,0,13.1-0.8,18.8,3.6C219.4,546.8,213,546.4,207.2,542.6z"/>
	<path class="st29" d="M49.6,379.4c-7.1-2.3-10.8-10-18.3-11.6c9.2-7.7,10-16.9,7.3-28.2c-1.6-7.1-1.7-13.7-7.3-19.8
		c-2.9-3.1-2.2-11.1,2.4-15.2c12.3-11,12.1-26.7,15.6-40.8c2.5-10.4,3-21.5,2.3-32.4c-0.2-2.5-1.4-6.2,2.4-7.1
		c3.2-0.7,3.6,2.8,4.9,4.8c1.2,1.8,2,3.9,4.8,4.6c2.5-2.9-1-12.8,8.5-8c12.4,9.7,20.6,7.8,26.7-6.7c3.1-7.4,5.9-14.5,11.8-20.6
		c6.9-7.1,8.3-17.1,8.4-27c0.1-9.6-0.8-19.2,3.8-28.2c0.5,0.4,1.1,0.8,1.2,1.4c1.1,17.7,4.4,35.8-3.3,52.5
		c-6.5,14.2-12.2,28.7-18,43.2c-6.2,15.6-9.3,16.3-22.7,5.8c-1.9-1.5-3.6-3.5-6.1-4.2c-3.1,8.6-3.1,8.6-9.9,8.3
		c3.8,29.4,2.6,58.7-2.2,88.7c4.1,0,6.9-5.3,10.4-1.6c2.6,4.3-0.5,7.2-2.5,10.4c-1.4,1.4-2.8,2.7-5,1.8c-6.1,1.9-5.8,7.7-7.4,12.3
		C55.1,367.7,54,374.2,49.6,379.4z"/>
	<path class="st38" d="M479.3,236.9c-1.8,11-3.7,22-5.5,33c-0.5,3.2-1.3,6.1-3.8,8.2c-4.9,5.5-2.5,12.2-3.3,18.3
		c0.2-2.4-1.3-5.2,1.4-7.1c4.2,5,6.9,10.9,9.3,16.9c1.1,5-1.4,8.4-4.6,11.7c-2-2-2.9-3.6-1.1-5.7c-0.2,0-0.3,0-1.1-0.1
		c2.2,7.3-1.8,13.3-3.6,19.8c-1.4,1.9-2.6,3.9-4.9,4.8c-6.6-3-9.6-8.7-10.5-15.4c-0.5-3.8-1.6-5.9-5.7-5.4c-7.7,1-13.2-2.3-16.8-9
		c-4.9,3.1-5,7.6-5.8,11.9c-1.3,7.4-4.7,13.6-10.7,18.1c-5.1,3.8-8.4,9.2-12.7,13.7c-8.4,8.8-6.5,18.4-2.9,27.9
		c3,7.9,8.6,12.8,18,11.7c5.4-0.6,10.8,0.1,13.5,6c-5.6,5.7-9.8,15.1-19.6,4.1c-3.4-3.8-9.7-6.3-15.9-5.9c-5.8-3-4-9.2-6.1-13.8
		c-1.3-5.7-4.4-9.5-10.5-10.4c-2.5-0.4-5.1-1.4-6.3-3.6c-4-7.2-12.7-10.8-14.9-19.4c2.8-2,5.3-1.1,7.9,0.5c2.2,1.6,4.4,3.3,6.7,4.8
		c2.2,0.8,4.8,5.4,6.6,0.9c4.2-10.8,14.4-16.3,21-24.9c6.5-8.3,10.3-17.8,15.7-26.5c13.9-22.1,13.9-44.5,3.7-67.7
		c-0.5-1.1-1-2.4-1-3.6c1.3-18.3,3.4-36.4,16.2-51c4-4.5,8.9-3.8,13.5-0.7c2.9,2,5.1,4.8,6.1,8.1c3.9,11.6,13.4,19.5,18.7,30.1
		c2.2,4.4,6.7,2.5,9.4,4.9c0.3,2,1.5,3.7,1.7,5.7C482,231.1,481.6,234.2,479.3,236.9z"/>
	<path class="st39" d="M428.6,396.3c-4.4-2.2-8.6-5-13.9-3.7c-11.6,2.8-17.5-4.9-20.1-13.4c-2.5-8.1-7.5-17.3,0.8-26.1
		c5.9-6.3,9.9-14,17.4-19.1c5.2-3.5,8.1-9.5,8.2-16.1c0.1-4,1.6-7.2,3.4-10.5c1.2-2.3,2.3-4.7,5.3-4.4c3,0.3,2.2,3.2,3,5.1
		c2.9,7.6,9.6,6.1,15.2,5.5c5.4-0.6,7.6-0.2,6.1,6.1c-1.7,7.3,5,11.3,8.2,16.6c-1,11.5-8,20.4-13.3,30c-1.4,2.7-2.9,5.4-4.8,7.9
		c-7.7,0.9-7-4.7-4.7-8.1c5-7.3,6.6-16.4,11.3-23.3c4.7-7-0.5-7.4-3.5-10c-3.9-3.3-7-3.3-9.9,1.5c-7,11.5-19.4,19.8-20.8,34.7
		c-0.1,0.9-0.6,1.8-0.8,2.7c-2.6,13,0.2,12.5,9.5,9.2c8.5-3.1,10.6-0.8,9.1,8.2C432.4,391.3,430.5,393.8,428.6,396.3z"/>
	<path class="st40" d="M507.4,360.6c-15.3-2.4-19.8,11.1-27.1,19.4c-8.3,9.5-14.7,20.7-24.3,29.3c-1.8,1.6-3.4,3.9-4,6.2
		c-5.5,18.7-17.1,18-31.7,15.6c-10.9-1.8-19.9-0.8-28.7,6.4c-5.2,4.2-12.2,6-17.9,9.8c-12.7,8.4-14.5,14.6-8.9,27.8
		c0.1,2.1-0.6,3.8-2.4,4.9c-2.9,1.4-6.1,1.4-9.2,1c-3.7-0.5-4.6-2.2-6-6.2c-3.3-9.7,3.8-18.2,1.5-27.3c0.3-3.4,3-4.5,5.7-5.3
		c14.3-4.5,24.6-13.4,31.2-26.9c0.7-1.4,1.7-2.5,3.6-2.1c-0.1,5.5,2.4,9.4,8.1,9.3c11.5-0.2,22.8,3.1,34.4,2.1
		c7.3-0.6,12.9-2.5,16.1-10.1c5-11.8,16.4-19.4,21.4-31.3c1.1-2.6,4.1-5.1,3.8-7.3c-1.3-10,6.9-14.6,11.2-21.3
		c3.5-5.5,8.8-3.5,13.5-2.2C502.1,353.4,505.2,356.7,507.4,360.6z"/>
	<path class="st41" d="M434.3,388.9c-0.9-7.4-4.1-9.5-10.9-5.2c-3.5,2.2-10.2,2.8-11.2,0.5c-1.6-3.6,0.3-8.8,1-13.3
		c2-13.3,10.1-23.3,18.5-33.1c1.8-2.1,3.7-4,4.7-6.8c1.9-5.2,5.8-5.3,9.6-2.4c3.2,2.4,5.8,5.6,10,6.6c0.8,0.2,1.4,1.8,2,2.8
		c-10.3,3.5-5.6,15.3-11.7,21.3c-2,1.9-3.6,4.3-5,6.7c-1.9,3.2-3.2,6.5,2.2,7.8c1.1,0.2,1.7,0.8,1.9,1.9
		C440.6,379.1,441.6,387.5,434.3,388.9z"/>
	<path class="st42" d="M389.2,413.1c-7.2,18.2-21.9,27.7-39.4,33.9c-6.2,6.9-14.4,6.1-22.5,5.6c-9.2-1.2-18.3-0.8-27.4,1.5
		c-8.7,2.2-11.8,0.2-12.1-7.5c13.9-5.4,28.2-9.1,43.2-8.9c9.3,0.1,17.9-1.5,25.6-6.9c2.1-0.9,4.4-1.1,6.6-0.9
		c4.4,1.3,7.8-0.2,10.5-3.8c7.3-7.3,8.1-15.2,3.2-24.4c-4.2-7.8,3.9-21.8,12.2-22.3c1.3,5,2.5,10,3.8,15
		C393.8,401.1,389.2,406.7,389.2,413.1z"/>
	<path class="st43" d="M465.9,332.5c1-3.8,2.2-7.6,3-11.5c0.7-3.6,0.9-7.2,1.4-11c3.1,1,0.3,4.5,2.6,5.9c2.5-2.7,3.9-6,4.6-9.7
		c5.7-10.2,6-21.4,4.4-34.6c4,4.8,2.5,8.7,3.2,12c-0.7,5.7,0.9,11.6-1.9,17c-3.2,11.5-10.2,21.2-15.1,31.9
		C467.3,333.3,466.6,333.3,465.9,332.5z"/>
	<path class="st44" d="M465.9,332.5c0.7,0,1.4,0,2.2,0c-7.6,14.3-12.4,30.1-22.6,43.1c-0.6-0.6-1.3-1.2-1.9-1.9
		c4.7-13.3,14.2-24.2,18.7-37.5C463.5,335,464.7,333.7,465.9,332.5z"/>
	<path class="st45" d="M310.5,469.4c2.6,7.5,11.4,12.9,7.4,22.6c-4.6,2.1-4.9,9.4-11.3,9.4c-6.2,0.6-12.4,3.6-18.6,0.3
		c-3.6-3-7.4-4.1-12-2c-8.8,3.8-17,2.1-24.6-3.6c-3.2-2.8-4.5-6-1.4-9.7c3.9-4.6,1.4-7.5-2.2-10.9c-9.2-8.8-21.4-13.7-29.4-24.2
		c-7.4-9.6-7-13.3,4.5-18.8c7.1,0.7,13.8,2.2,18.5,8.2c-6.6,3.2-7.3,5.5-1.6,11.8c10.2,11.2,23.7,15.8,36.1,22.7
		c1.9,1.1,4,1.8,6,2.7C300.4,486.2,300.4,486.2,310.5,469.4z"/>
	<path class="st46" d="M287.9,499.4c6,3.4,12.5,1.3,18.7,1.9c-6.3,1.6-11.5,4.7-15.3,10.4c-2.8,4.1-8.2,3.9-12.5,5.5
		c-22.1,8.4-44.1,6.1-66.5,0.8c-9.9-2.4-19.9-3.6-27.6-11c-3.8,0-7.5,0-11.3-0.1c-4.8-6.9-11-12.7-16.9-18.7c0-1.2,0-2.5,0-3.7
		c15.5,2.7,27.8,11.4,39.2,21.4c4.1,3.6,7.9,4.5,13.4,4.1c7.3-0.5,14.6,0.1,22,2.8c15.6,5.8,30.6,1.3,45.2-4.6
		c1.2-0.5,3.3-1.1,2-3.2c-5.9-9.3,1.7-6.9,6.1-7C285.8,497.9,286.9,498.7,287.9,499.4z"/>
	<path class="st47" d="M229.8,69.8c4.1,1.9,7.5-0.4,11.1-1.9c15.6-1.3,31.2-2,46.7,0.5c2.7,4.6,2.1,6-3.6,7
		c-4.6,0.9-9.3,0.6-13.6,2.9c-3.5,1.8-4.1,3.7-0.5,5.9c10.4,6.5,19.6,15.1,34,11.8c9-2.1,23.8,10.7,25.6,22.2
		c3.9,25.6,19.1,46.3,27.9,69.8c3.7,9.9,12.3,17.2,19.5,25c3.6,3.9,7.5,2.5,8.9-2.7c0.9-3.5-0.6-6.7-1.3-10.1
		c-2.5-11.4-0.4-21.9,6.1-31.5c4.8,3.4,5.6,8.8,6.5,13.9c1.4,8.6,1.2,17.4,0.1,26c-1.9,15.4-16.8,23.1-29,15.5
		c-12.7-20.4-28.9-38.9-35-63c-2.5-9.7-6-20.2-11.4-27.2c-5.9-7.7-11.6-14.4-14.3-24c-1.3-4.7-11-5.7-15.8-2.1
		c-2.9,2.1-5.8,3.4-9.1,4.2c-2.5,2.6-0.3,4.8,0.8,6.8c4.5,7.9,1.9,14.5-3.8,20.3c-6.9,7.1-15.1,12-25.1,13.7
		c-20.7,3.6-35,15.2-43,34.7c-2.8,6.9-6,13.7-8.7,20.7c-1,2.6-1.9,5.5-4.2,7.3c-14.3,11.6-21,27.1-25.3,44.5
		c-2.9,11.7-5.1,23-1.2,34.7c-1.8,3.4-4.5,5.5-8.4,3.9c-3.3-1.4-3.8-4.8-4-7.9c-0.4-6.3-0.4-12.5,1.2-18.6c3-11.8,5.4-23.7,8.5-35.4
		c11-14.8,20.8-30.3,24.9-48.7c1.5-6.5,5.1-12,8.9-17.4c4.5-6.4,8.4-13.1,11.1-20.5c3.2-8.5,9.3-12.6,18.4-13.5
		c8.6-0.8,17.6-0.7,25.4-5.3c3.1-1.8,7.6-3.4,6.7-8c-1-4.7-5.7-4-9.3-4.2c-14.2-0.5-27.3,5.6-41.2,7.4c-5,0.7-10.1,2.7-11.9-4.6
		c1.4-5.6,6.3-6,10.8-7.2c5.9-1.5,12.3-0.9,17.7-4.6c13.3-0.2,26.2-4.9,39.6-3.9c2.2,0.2,4.6-0.7,5.8,0.2c-15.1-1.9-30.5,2.5-46,4
		c-2.3,1.8-5,2-7.8,2.3c-9.4,1.1-18.4,3.7-25.9,9.8c-4.6-8-4-12.4,3-18.3c2.2-1.9,4.7-3.3,3.8-6.7c-0.8-3.5-3.8-2.1-6-2.8
		c-9.3-3.3-1.8-7.1-0.1-10.7C206.8,76.2,218.2,72.9,229.8,69.8z"/>
	<path class="st48" d="M494.3,167.4c-0.4,6.2-6,7.5-9.9,10.2c-3.3,2.4-4.9-0.5-6.3-3.1c-3.6-6.8-8.8-11-16.9-10.9
		c-5,0.1-7.9-4.8-12.2-6.2c-17.3-6-35.3-8.2-53.6-8.5c-1.4,0-2.9,1.1-4.3,1.7c-6.2-0.2-9.6-3.8-11.3-9.4c4.9-8.5-1.1-16.8-0.4-25.4
		c0.6-7.8-2.3-15.9-3-23.9c-1.4-14.5-10-23.7-21.7-30.7c-4.4-2.7-7.8-6.2-11-10c-2-2.4-1.8-5.2,0.1-7.8c1.8-2.5,4.2-4.1,7.1-1.9
		c4.2,3.2,8.6,0.6,12.6,0.1c10.9-1.3,20.9,2.8,31.3,3.9c4.8,2.5,9.8,4.8,13.1,9.4c-8,0.6-16,0.3-23.7-1.7
		c-5.7-1.4-10.8-0.8-17.4,1.8c7.8,7.9,16.1,13.7,21,22.7c3.7,6.8,5.7,13.5,5.9,21.3c0.4,11.8-2,23.6,1.1,35.4
		c1.6,6.2,4.4,8.5,10.3,8.1c11.2-0.7,22.5,0.3,33.7,0.7c11.5,0.4,22.6,4.4,33,9.7c2.2,1.1,3.8,3.4,6.5,3.3c1.7-1.2,1.2-3,0.6-4.2
		c-5.8-11.3-7.1-24.8-16-34.4c-9.6-10.4-12.1-24.6-20.6-35.4c-2.7-3.5-5.2-6.8-8.7-9.5c-3.4-2.5-7.6-4.8-6.8-10.2
		c16.5,6.4,23.9,20.9,32.9,34.7c5.7,8.7,8.6,19.4,17.1,26.1c1.9,1.5,2.3,3.5,2.5,5.7C480.6,143.1,487.5,155.2,494.3,167.4z"/>
	<path class="st49" d="M323.5,73.5c1.3,0,2.6,0.1,3.9,0.1c5.2,4.9,7.3,11,7.5,18.2c0.3,8.2,0.2,16.7,4.9,24c2.2,1.6,3.4,3.8,3.6,6.5
		c-0.7,5,3.2,6.8,6.4,9.1c5.5,4,12.5,4.9,18.2,8.5c3.2,7.9,7.5,14.9,13.4,21.2c7.3,7.8,4.6,14.6-5.7,16.5
		c-12.3,2.3-23.4-3.7-31.1-19c-6.2-12.3-13.8-23.8-14.7-38.8c-0.9-16-15.1-25.5-31.3-23.6c-8.8,1-15.7-3-22.2-8.2
		c-2.3-1.8-3.5-4.5-2.6-7.5c1-3.5,3.8-4.2,7-5.1c10.9-3.1,22.4-1,33.1-4.4C317.4,70.4,320.8,70.9,323.5,73.5z"/>
	<path class="st50" d="M342.3,122.3c-1.2-1.9-2.5-3.7-3.7-5.6c-2.9-6-4.1-12.3-3.8-18.9c0.2-5.9,0.1-11.8-3.3-17.1
		c-1.8-2.7-2-5.3,1.4-7c0.3-1.4,0.7-4,2.5-1.9c6.8,8,13.8,15.6,20.9,23.3c5.6,6.1,4.6,15.2,0.8,22c-3.7,6.8-2.2,11.5,2.1,16.5
		C349.6,135.8,346,129,342.3,122.3z"/>
	<path class="st51" d="M229.8,69.8c-1.4,1.5-3,4.5-4.3,4.4c-10.4-0.6-17.5,6.4-25.8,10.6c-11.6,5.5-20.7,15.6-34,18.1
		c-3.1,0.6-4.9,3.7-7.4,5.4c-3.2,2.1-6.7,3.9-9.3-0.9c6.9-11,18.9-16.2,28.2-24.3c9.9-8.1,21.3-12.8,33.8-15.1
		c1.2-0.6,2.5-1.2,3.7-1.9c1.2,1.8,2.4,2,3.8,0.2c3.7-1.7,7.5-1.8,11.2,0C229.7,67.4,229.8,68.6,229.8,69.8z"/>
	<path class="st52" d="M342.3,122.3c5.9,3.4,8.6,11.5,16.9,11.3c6.2,4.4,14.2,3.8,20.7,7.5c3.8,3.1,7.5,6.2,11.3,9.4
		c0,0.7,0,1.3,0,2c-7.8,4-10.7-5.1-16.6-6.1c-3.5-1.4-6-3.9-7.8-7.1c-8-0.9-15.5-3.2-21.8-8.3C342.2,128.8,338.2,126.7,342.3,122.3z
		"/>
	<path class="st53" d="M323.5,73.5c-3.1-0.5-6.3-1-9.4-1.5c-8.2,0.7-16.6,2.2-24.4-2.1c-16.2-3.7-32.6-1.4-48.9-2
		c12.1-4.1,24.5-1.8,36.8-1.8c13.6,0,27.2,2.2,40.8,3.4C320.9,69.8,323.6,69.9,323.5,73.5z"/>
	<path class="st54" d="M299,53c2.6,0.5,5.2,0.9,7.8,1.4c12.2,0.5,22.6,5.8,33.6,11.3c-4.5,4.4-8.5,0.4-9.9-0.6
		c-11-7.6-23.2-8.2-35.7-8.7c-1.1,0-2.2-1-3.3-1.5C293.6,52.6,296.9,55,299,53z"/>
	<path class="st55" d="M332.9,73.7c-0.4,1.2-1.6,2.8-1.2,3.4c7.9,12.3,3.2,26.7,6.9,39.6c-4-5.6-5.7-9.6-5.6-16.7
		c0.2-9.3-2.1-17.9-5.7-26.4C329.2,73.6,331,73.7,332.9,73.7z"/>
	<path class="st56" d="M229.7,66.3c-3.7,0-7.5,0-11.2,0c0-0.7,0-1.4,0-2.1c15.4,0.1,30.3-1.8,44.5-8.2c2.7-1.2,5.4-1.3,8.2-1.2
		c0.7-0.8,1.4-0.7,1.9,0.2C259.6,62.5,244.7,64.7,229.7,66.3z"/>
	<path class="st57" d="M273.1,55c-0.6-0.1-1.3-0.1-1.9-0.2c9.1-4.2,18.6-0.8,27.9-1.8c-2,2.7-5,1.3-7.5,1.9
		C285.4,55,279.2,55,273.1,55z"/>
	<path class="st58" d="M479.3,236.9c0-3.2,0-6.3,0-9.5c1.3-0.9,0.5-3,2-3.8c1.2,0,2.3,0,3.5,0c11,10.7,24.5,15.6,39.6,16.9
		c8.5,0.2,17.4-1.4,24.3,5.7c-1.6,0.7-2.7,4.5-5.1,1.3c-5-6.7-11-4.8-17.7-3c-7.1,1.9-14.6,3-22,3.3c-4.9,0.2-9.8-1.9-13.1-6.1
		C487.8,238,484.1,236,479.3,236.9z"/>
	<path class="st59" d="M468.1,289.3c0,3.7,0,7.4,0,12.3c-5.7-8-1.7-15.2-1.5-22.2c0.1-1.4,1.3-2.9,3.3-1.4
		C469.3,281.8,468.7,285.6,468.1,289.3z"/>
	<path class="st60" d="M149,107.3c3,2,5.5,1.1,8.4-0.7c13.4-8.5,27-16.8,42.2-21.8c-1.8,2.4-3.5,4.8-6.6,9.1
		c8.1-2.8,13.8-3.2,13.9,5.9c0,2.2,0.6,4.9-2.2,5.3c-11.2,1.7-8.4,10.2-8.8,17.2c-1,5.5-2.9,10-9.8,9.4c-3.6-5.8,0.2-10.7,1.7-16
		c0.9-3.4,3.6-7.5-1.4-9.8c-4.3-2-6.6,1.2-9.2,4.2c-10.7,12.3-15.6,26.8-17.8,42.6c-3.2,7.3-8.3,13.1-13.9,18.6
		c-6.4,6.3-10.1,14-13,22.4c-5.5,15.9-11.2,31.6-12.8,48.5c-6.9-2.3-10.7,0.2-11.6,7.4c-0.2,1.8-1.3,3.5-2.1,5.2
		c-6.6,14.4-9,15.1-20.9,5.2c-6.9-5.7-5.7-5.1-9.7,2.3c-4.8,8.8-2.7,16.1,1.5,23.6c4.9,8.7,5.7,17.5,2.9,26.9
		c-1.4,4.8-1.3,9.7-0.8,14.8c0.5,5,0,10.1-6.9,10.6c-4.4-2.6-5,1.5-6.8,3.7c-1.1,1.3-2.2,3.4-4.5,2.2c-1.9-1-2.2-3.2-1.6-5
		c3.4-11.1,0.2-23,4.6-34c1.4-3.5,1.7-8.4,0.6-11.9c-4.5-13.4,2.6-27.7-3.3-40.9c-1-2.3-0.8-5.5,1.4-8.3c3.5-0.1,3,4.4,6.1,5.2
		c3.7-3.5,0-8.8,3-13.2c5.3,4.4,10.4,8.8,15.7,12.9c3.5,2.7,7.2,4.3,9.6-1.6c8-19.4,17.5-38.4,23.7-58.4c4.5-14.6,2.1-30.6,2.2-45.9
		c0-2.5,0-5,0-7.5c1.7-4.2,3.7-8.4,3.8-13.1c1.2-0.9,2.7-1.6,3.5-2.8c3.9-5.7,5-15.5,15.9-10.3C146.6,109.5,148,108,149,107.3z"/>
	<path class="st61" d="M363,478.8c0-1.5,0.4-2.9,1.9-3.7c1.1-0.6,2.9-1,3-1.7c3.4-19.3,18.9-27.2,34-34.1
		c10.2-4.6,22.3-2.7,33.2-0.8c9.3,1.6,16.1-1.8,17.5-9.5c2.8-15.1,13.9-24,22.4-34.8c3.5-4.4,6.9-8.8,10.1-13.4
		c8-11.6,15.6-14.3,29.8-10.8c-4.7,1.7-8.1,6.3-14.4,4.3c-2.8-0.9-5.9,2.3-8.2,5.1c-14.1,17.3-26.2,35.9-36,56
		c-0.4,0.8-0.9,1.6-1.2,2.5c-5.7,18.7-13.8,21.9-32.4,12.8c-2.2-1.1-4.7-1.7-7.1-1.8c-13.9-0.8-36.3,13.5-41.4,26.2
		c-2.4,0.1-3.7,1.3-3.8,3.7C368,481,365.5,481,363,478.8z"/>
	<path class="st62" d="M64.7,349.4c1.2-0.6,2.5-1.3,3.7-1.9c8.9,3.9,13.9,2.6,21.3-5.1c4.1-4.3,7.1-12.3,14.5-8.9
		c7.2,3.4,3.2,10.9,2.8,16.8c-0.1,0.9-0.2,1.9,0.9,3.2c2.9-2.2,4.5-5.7,7.3-7.9c2.9-4,4.8-8.3,4.7-13.5c0-3.2,1-7,5.9-4.4
		c2,4.3,1.5,8.7,0.7,13.1c-2.6,7.6-7.5,14.3-10.9,21.3C108.5,377,96.8,391.3,103,410c1.6,4.7,2.5,9.6,5.5,13.8
		c1.1,1.5,3.2,3.2,2.9,4.7c-2.9,15.6,12.2,14.6,19.4,19.8c8.9,6.4,20.3,9.4,32,8.4c6.2-0.6,9.9,3.4,13.2,7.6c4.6,5.9,9,12,12.4,18.7
		c7,13.4,16,23.1,33,19.9c3-0.6,6.2-0.2,9.2,0.9c8.2,3.4,13.1-2.4,18.5-6.8c2.7-0.1,4.9,1.1,7,2.4c6.2,3.8,6.2,8.6-0.3,11.8
		c-6.5,3.2-13.9,5.7-20.8,2.6c-8.4-3.8-16.9-4.2-25.5-3.6c-8.8,0.6-15-3.6-20.5-9.2c-9.2-9.4-20.5-16.5-30-25.1
		c-13.5-12.3-29.7-16.1-45.6-22.2c-29.3-11.2-39.8-34.3-42.3-63.8c-0.4-4.5,2-8.4,3.7-12.5c2.6-6.1,2.4-10.8-5.1-13.3
		c-3.9-1.3-7.4-3.8-5.3-9C64.6,353.1,64.7,351.2,64.7,349.4z"/>
	<path class="st63" d="M64.6,355c0.5,4.3,2.9,6.9,7.1,7.4c9.5,1.1,9.5,7.6,6.5,13.6c-9.6,19.1-1.5,35.2,7.1,51.5
		c8.6,16.2,23.6,22,39.9,27.4c11.6,3.8,22.9,7.7,33,17.4c9.4,9.1,22.4,15.4,31.2,25.9c4.1,4.9,8.8,9.2,14.2,9.4
		c13.2,0.5,26.2,1.3,38.9,4.9c1.3,0.4,3-0.5,4.5-1c4.3-1.3,11-0.7,11.6-5.9c0.6-5.5-6.7-5.3-10.1-8c-0.9-0.3-1.7-0.8-2.2-1.6
		c0-0.5-0.1-0.9-0.1-1.4c1.7-2.6,3.8-2,6-0.8c7.5,5.7,15.3,7.6,24.3,3.1c4.1-2.1,8.5-2.5,11.4,2.5c-3.3,0.4-6.8-0.8-10,1
		c-0.4,1.6,0.3,2.3,1.7,2.7c1.9,0.6,5-0.9,5.4,2.2c0.4,2.8-2.4,3-4.4,3.8c-17.9,7.4-35.8,13.6-55.1,4c-4.3-2.1-10.5-1.9-14.5-0.9
		c-8.6,2.1-13.6-1.7-19.4-6.3c-8.1-6.4-15.1-14.5-26.4-15.9c-3-0.4-5.7-3.5-8.5-5.4c-5.3-3.9-10.3-7.9-12.2-14.7
		c-1.2-4.1-4.9-5.2-8.7-6.2c-14.4-4-28.3-9.5-41.4-16.7c-15.6-8.5-21.8-22.9-23.9-39.5c-1.2-9.2-1.4-18.5-2-27.8
		c-0.2-2.7-1.7-4.6-3.5-6.4C58.9,367.2,59.4,361.1,64.6,355z"/>
	<path class="st64" d="M363,478.8c2.5,0,5,0,7.5,0c0.6,0,1.2,0.1,1.8,0.2c0.4,3.5,2,6.6,4.5,9c5.4,5.1,1.7,9.9-0.9,14.2
		c-2.8,4.7-6.6,1.5-9.7-0.1c-3.4-1.8-6.9-2.9-10.7-2.5c-5-1.8-9.8-3.9-14.9-5.2c-5.6-1.4-14.1,0-16.1-4.7
		c-3.6-8.3-9.1-16.4-8.5-26.2c0.2-3.4,0.1-6.9,0.1-10.3c3.2-2.7,7.2-2.3,11-2.6c7.9,0.9,15.4-1,22.8-3.5c3,3.9,5.4,7.5,0.4,11.9
		c-6.4,5.7,3.3,12.7-0.9,18.9C353.8,479.9,358.4,478.4,363,478.8z"/>
	<path class="st65" d="M211,67.9c-11.7,4-22.8,9.5-33.8,15.1c-2.3-4.2,3.5-3.1,3.7-5.7C190.6,72.9,199.7,67,211,67.9z"/>
	<path class="st66" d="M310.5,469.4c0.8,6.1-3,10.6-5.5,15.4c-1.8,3.5-5,3.6-8.9,1.9c-16.1-6.7-31.6-14.7-47.1-22.6
		c-7.4-3.8-10-12.6-17.8-16.1c-2.7-1.2-1.3-4.9,1.3-5.8c2.5-0.9,5.5-0.6,8.3-0.8c6.6-2.8,13.4,0.2,20-0.6c5,0.5,9.6,2.4,14.1,4.5
		c8.6,3.9,16.7,9.1,26.2,11C304.2,460.6,307.4,465,310.5,469.4z"/>
	<path class="st67" d="M301.1,456.2c-11,0.7-19.6-5.8-29.2-9.5c-3.4-1.3-6.8-2.5-10.3-3.8c-1.4-1-3.7-0.6-4.3-2.7
		c-0.1-0.9,0.1-1.8,0.4-2.7c2.7-5.5,7.1-6.3,12.6-4.9c7.8,2,14.1,6.2,19.9,11.6c0.5,0.9,0.4,1.8-0.3,2.6c-2.9,6.8,3,5.6,5.7,5.4
		c8.3-0.5,16.5-1.7,24.7-2.8c2.5-0.3,4.8-1.3,6.9,1c-3.2,2.7-7.3,1.7-11,2.6C311.5,455.9,305.5,452.3,301.1,456.2z"/>
	<path class="st68" d="M426.8,62.3c5.9,8.6,16.3,13,20.9,22.6c0.6,1.3,2.8,2.2,2.9,3.4c2.1,15.1,15,24.2,20.5,37.1
		c4.2,9.9,9.6,19.8,11.5,30.6c0.3,1.4,0.2,3.6-0.7,4.3c-2.1,1.8-4.3-0.1-5.8-1.3c-5.1-4.1-10.8-6.6-17.1-8.9
		c-18.3-6.9-37.1-4.8-55.8-5.2c-6.6-0.1-9.1-1.7-10.9-9c-2.5-10.6-1.8-21-1.1-31.3c1.5-19.8-8-33.1-22.6-44.1
		c-2.5-1.9-5.9-3.4-5.3-6.9c0.7-3.9,4.5-2.2,7.1-2.6c12.8-2.2,25.2,0.7,37.5,3.8C413.2,59.9,421.1,58.4,426.8,62.3z"/>
	<path class="st69" d="M374.2,144.8c7.4-1.3,9.5,9,16.9,7.7c2.5,5.5,5-0.2,7.4-0.2c19.5-0.3,38.1,1.9,52.5,16.9
		c11.2,11.5,20.4,24.4,26.3,39.4l-0.1-0.1c1.3,4.3,4.8,8.3,1.6,13.1c-4.1,2.6-6.6,4.8-10-2.3c-6-12.4-16.1-22.3-21.6-35.4
		c-3.4-8.1-11.2-6.9-15.7,1.2c-2.9,5.2-6.4,10-9.1,15.2c-2.1,4.1-4.3,8.5-1,13.2c1.2,1.7,1.2,3.6-0.3,5.1
		c-5.8,6.2-3.6,12.6-0.6,19.1c6.1,13.1,6.5,27.2,5.9,41.2c-0.3,7.4-7.2,12-9.5,18.9c-6.1,18-16.4,33.3-31,45.8
		c-4.6,3.9-9.3,8.5-6.4,16.6c-5.6-0.8-8.9-3-11.1-7.1c10.9-15.4,22.4-30.4,33.1-46c6.9-10,4.5-21.1,2.7-31.5
		c-1.3-7.9-2.2-14.4,4.1-20.5c2.9-2.8,3.2-6.9,1.2-10.5c-2.7-5-2.6-10.1-2.3-15.4c-0.9-8.7,3.4-16.3,5.6-24.3c1.7-6.2,2-12.3-2-17.8
		c-1.3-1.8-3.1-3.5-5.4-3c-2.8,0.5-2.5,3.2-2.6,5.3c-0.2,3.7-1.5,7.4-1.3,11.1c0.9,12.8-4.6,22.8-13.1,31.5
		c-3.6,3.9-7.2,8.4-13.1,4.2c-4.8-3.4-10.9-6.6-6.9-14.4c9.4,7.4,23.9,2,25.5-11.2c1.7-13.8,3.4-28.4-4.9-41.4
		c-6.7-4.5-10.8-11.4-15.3-17.7C372.4,149.4,372.1,146.9,374.2,144.8z"/>
	<path class="st70" d="M477.4,208.7c-7.2-14.2-18.8-25.4-26.3-39.4c9.4,3,13.5,11.8,18,18.9c2.9,4.6,6.2,9.6,8.4,14.9
		C477.5,204.9,477.5,206.8,477.4,208.7z"/>
	<path class="st71" d="M524.3,240.5c-14.7,5-25-6-37.1-10.3c-2.6-0.9-2.3-4.1-2.5-6.6c0.2-1.5,0.5-2.9,2-3.7
		c9,3.7,17.6,8.2,26.4,12.4C517.7,234.5,519.8,239.1,524.3,240.5z"/>
	<path class="st72" d="M479,221.7c1.2-4.6-1.9-8.7-1.6-13.1c4.9,4.1,3.7,9.7,3.9,15c-0.2,1.5-0.3,3-2,3.8
		C479.2,225.5,479.1,223.6,479,221.7z"/>
	<path class="st73" d="M117.1,347.5c-2.6,1.3-4.3,3.4-5.8,5.9c-1.3,2.1-1.8,6.3-5.6,4.5c-3-1.4-1.8-5-1.5-7.6
		c0.7-5.3,5-12.2-0.9-15.1c-6.8-3.3-8.3,5.6-12,9.2c-3.9,3.8-8.2,6.7-13.3,8.2c-4.3,1.3-8.9,1.2-9.7-5.1c1.3-3.1,2.5-6.2,3.8-9.4
		c3.6-2,6.3-5.7,5.1-9.1c-3-8.4,0.1-16,1.9-23.7c2.4-10-3.5-17.6-7.6-25.2c-2.5-4.5-2.6-10.3-1.4-11.7c4.1-4.6,3.7-9.5,4-14.7
		c0.2-4.1,2.5-3.6,4.9-1.6c3.6,3,7.8,5.4,10.7,8.9c5.7,6.9,8.9,4.4,11.7-2.2c1.9-4.6,4.1-9.1,5.8-13.7c3.9-11.1,3.8-11.1,11.7-2.8
		c5.1,7.6,2.4,15.9,2.2,24c-0.7,2.6-1.8,5-4.3,6.3c-1,0.2-1.9-0.1-2.5-1c-2-3.7-0.9-7.9-1.9-12.9c-2.6,2.7-2.9,5.6-4.1,8.1
		c-6.1,12.8-13.6,13.8-23.2,2.9c-0.6-0.7-1.2-1.4-2.9-2.2c-0.8,7.4-0.8,14.5,1.4,21.5c3.7,11.2,8.3,22.1,5.5,34.4
		c-1.1,4.9,2,5.1,5.6,3.5c1.1-0.5,2.1-1.4,3.1-2.1c9.9-7.2,13.2-6.6,21,3.9C120.2,335.2,119,341.4,117.1,347.5z"/>
	<path class="st39" d="M389.2,379.4c-7.8,0.1-4.1,8.8-8.7,11.5c-6.4,3.9-2.3,8-0.1,12.3c5.1,10.4,3.4,16.7-6.2,24.9
		c-12-12.9-29.4-9.4-44.1-14c-10-3.1-20.5-5-30.4,1.8c-2.9,2-6.7,0.6-9.9-1c-7.1-3.2-14.3-6.3-22.3-6.1c-1.9,0-3.9-0.2-5.5-1.2
		c-20.3-11.7-44.2-18.1-57.8-39.5c-1.8-1.7-3.1-3.6-3.8-5.9c-0.2-1.5,0-2.9,1.1-4c0.9-0.5,1.8-0.6,2.8-0.6c2.6,0.6,4.3,2.3,6.1,4.1
		c26.4,25.1,57.2,35.1,93,26.6c9.8-2.3,17.5-9.3,25.7-14.7c5.2-3.5,3.3-10.2,3.7-15.7c1.5-6.3,4.2-12.1,10.4-14.7
		c4.8-2.1,10.5-3.9,12.2,4.2c5.9,5.4,11.7,10.9,16.1,17.6c1.3,2,2.8,3.3,5.3,3.1C385,367.5,387.1,373.5,389.2,379.4z"/>
	<path class="st74" d="M355.5,347.4c-6.1-7.6-11.6-3.1-16.1,1.6c-2.4,2.4-3.1,6.5-4.6,9.8c-8,15.8-22.8,21.2-38.7,24.8
		c-17,3.9-33.4,0.7-49.7-4.4c-13.1-4.1-26.6-6.9-36.1-18.3c-4.7-5.6-7.7-12.1-11.6-18.1c-0.6-1.4-1-2.8-1-4.3c0-1.5,0.4-2.8,1.3-4
		c5.2-1.4,6.7,2.8,7.9,5.9c4.2,11.2,14.4,14.6,24,19c-0.8-4.2-4.7-5.7-7.1-8.5c-6.6-7.6-12.4-15.6-17-24.5c-1.1-2.2-1.1-7.3-6.1-3.7
		c-4,2.4-4.8-1.7-6.8-3.4c-0.5-0.7-1-1.4-1.3-2.2c-0.7-2-2-4,0-6c0.7-0.5,1.5-0.9,2.3-1.3c3.6-2.8,1.2-5.8-0.1-8.3
		c-3.9-7.5-4.4-15.2-3.4-23.6c1.4-11.2,3.8-22.3,7.7-32.6c9.5-25.2,28.8-40.8,54-49.3c4.1-1.4,8.6-1.8,12.5,1.2c0,5-4.7,4-7.3,5.6
		c-14.5,5.7-26.5,15.2-37.6,25.6c-6.3,5.9-9.2,14-9.1,22.9c0,4.4-0.2,8.7-2.7,12.6c-10.6,16.7-9.9,32.9,2.3,48.5
		c3.7,4.7,5.9,10.3,8,15.9c2.4,6.7,6.7,12.2,12.5,16c6.5,4.3,13.5,7.9,19.1,13.4c1.3,1.3,3.3,2.2,5.1,2c10.5-1.5,20.3,1.3,30.3,3.8
		c4.6,1.2,9.3,0,13.7-2.1c3.4-1.6,6.8-3.5,10.5-4c15.8-2,24.4-12.4,30-25.9c4.1-10,11.4-17.9,17.3-26.6c5.1-7.6,9.9-15.2,10.8-24.5
		c0.2-2.1,0.9-4.4,3.8-4.5c4.8,8.9,3.3,17.8-1.4,25.7c-5.4,9-9.6,19-17.3,26.7c-2.3,2.3-6.1,6.1-0.6,9.1c3.9,2.2,7.9,2,10-3.1
		c2-4.7,5.5-8.3,8.4-12.4c11.6-16.1,15.4-34.3,14.4-53.8c-0.6-11.1-7-5.7-11.9-4.9c-3.9-6.8-0.5-15.2-5.1-22.2
		c-1.8-2.7,1.3-5.2,4.8-4c3.2,1.1,6,3.1,9.4,3.7c2.2,0.7,4.3,1.5,6.2,2.9c1.6,1.4,0.5,3.4,1,5.1c4,0.8,4.6-6.7,9.4-3.9
		c2.7,5.4-3.6,10.4-0.7,15.9c1.5,23.1,0.1,45.4-14.1,65.3c-4.3,6-6.4,13.6-11.5,19.1c-2.6,2.8-4.9,7-10,4.3
		C360.7,348,358.2,347.2,355.5,347.4z"/>
	<path class="st75" d="M363,349.4c6.2-0.7,8.8-5.8,11.1-10.3c7.1-13.9,18.2-25.9,20.6-41.9c1.9-12.5,2.8-25.2,2.1-37.9
		c2.3-8.1,4.9-16.2,7.1-24.4c0.7-2.6,1.9-6,6.1-5.6c0,5.1-0.6,10,2.4,15c3.3,5.4,1.1,10.9-3.8,14.8c-4,3.2-4.7,6.7-2.7,11.5
		c4,9.8,1.7,20.3,2,30.4c0,1.5-0.5,3.2-1.4,4.4C395,320.9,383.6,336.5,372,352c-0.6,0.8-2.3,0.8-3.4,1.1
		C365.9,353.1,364,351.9,363,349.4z"/>
	<path class="st76" d="M201.6,362.5c1.2,1.3,2.5,2.5,3.7,3.8c8.9,14.5,17.7,29.2,34,37c7.1,3.3,14,7.4,19.7,12.3
		c15.7,13.4,33.7,10.7,51.5,9c12.1-1.2,24.2-1.8,36.2-0.4c4.8,0.5,10.3,0.9,10.6,7.9c-6.1,7.4-14.5,8.7-23.2,8.1
		c-15.4-1.2-29.4,5.3-44.3,6.9c0-0.6,0-1.2,0-1.9c-6.7-11-17.9-13.4-29.3-14.1c-6.8-0.4,1.2,6.4-2.6,8.4l0,0.1
		c-4.4,2.8-8.8,2.6-13.3,0.2c1.6-14-7.6-20.9-16.9-29.5c-11.2-10.4-24.6-20.4-26.6-37.8C200.7,369,198.7,365.6,201.6,362.5z"/>
	<path class="st77" d="M289.8,413.2c4.5,1.6,9.2,2.4,13.2-1c10.3-8.9,20.7-0.5,31,0.1c9.1,0.5,17.6,5.1,27.3,4.3
		c6.8-0.5,10.2,5.9,13,11.6c-2.1,3.7-4.5,6.9-9.4,3.8c-6.4-6.9-14.7-8.8-23.7-8.7c-16.7,0.1-33.5,0.7-50.1,2.2
		c-7.1,0.6-9.9-2.1-9.7-8.9C283.1,412.8,285.8,411.3,289.8,413.2z"/>
	<path class="st78" d="M282.3,416.9c1.6,4.6,3.1,6.8,9.6,6.1c17-1.9,34.3-1.4,51.4-2.5c7.6-0.5,13.4,4.6,20.6,5.1
		c3.9,0.3,0.2,4.1,0.9,6.3c-2.5,0-5,0-7.5,0c-3.2-5.4-8.5-5.1-13.9-5.7c-21.1-2.4-41.9,3.7-62.9,2.1c-5.1-0.4-9.3-1.2-13.6-4.6
		c-9.3-7.5-20.6-12-29.7-19.9c1.4-1.4,3.4-2,5.1-1.2c10.7,5,22.4,6.4,33.6,9.5C278.7,412.7,281.2,414,282.3,416.9z"/>
	<path class="st79" d="M252.2,493.8c-2.1,0.1-4.3-0.3-5.6,1.9c-0.7,0.5-1.4,0.6-2.2,0.3c-1.8-1.5-3.2-3.4-5.6-4.2
		c-5.9-3.5-11.4-7.5-17.7-10.3c-5.1-4.1-10.4-7.9-16.3-10.7c-13-5.9-22.3-16.6-33-25.5c-4.9-4-4.7-9.8-4.2-15.5
		c0.2-1.4,0.7-2.7,1.7-3.7c4.9,0.6,7.2-1.2,8.8-6.4c3.1-9.7,5.2-19.6,8.2-29.3c4.6-0.3,4.2,3.7,5.1,6.2c2,5.8,4.3,11.4,7.6,16.5
		c4.9,5.7,10.9,9.9,17,14.1c2.5,1.7,5.5,3,6.1,6.5c-9.7,7.8-8.9,7.2-1.1,17.1c7.8,9.8,19.4,14.2,28.1,22.5c5,4.7,10.1,8.4,2.3,14.6
		C248.2,490.5,250.8,492,252.2,493.8z"/>
	<path class="st80" d="M222.2,433.9c-8.6-5.6-17.8-10.6-24.4-18.8c-1.3-1.7-1.2-3.5-0.6-5.3c3.7-1.7,4.9,1.7,6.6,3.4
		c7.4,7.2,15.8,12.7,25.9,15.6c5.7,1.7,11,4.2,14.9,8.8c3.9,3.6,8.8,1.1,13.1,1.9c1.2,1.2,2.5,2.4,3.7,3.6c-7,0.2-14,0.6-20.8-1.6
		C235.1,437.6,228.9,435.3,222.2,433.9z"/>
	<path class="st81" d="M383.6,242.4c-5.2,1.3-9-2.3-13.6-4.7c6,8.2,4.1,16.9,4.3,25.3c2.1,2.9,2.5,5.7-1,7.9c-4-1.9-3.3-5.8-3.2-9
		c0.2-9.6-3-17.6-9.7-24.5c-5.8-6.3-12.3-11.9-18.6-17.6c-0.1-1,0.1-1.9,0.9-2.6c2.9-1.6,5.5-0.5,8.1,1c3.5,2,6.4,4.9,10,6.9
		c-7.6-13.7-17-26.2-25.8-39.1c-7.6-11.3-13.9-23.5-18.9-36.3c-3.9-9.8-7.4-19.8-11.2-29.7c-1.3-3.3-2.7-6.5-6.8-7
		c-2.5-0.3-5.3-0.3-6.9,1.8c-1.7,2.1,0,4.2,1.2,5.9c5.3,7.4,6.3,16.2,8.4,24.6c2.3,9.3-2.1,15.7-11.5,18.1c-9,2.3-18,4.4-27.6,4.4
		c-12.4,0-22.7,5.1-30.8,15c-6.9,8.4-14.7,16.1-21.1,25c-1.9,2.6-4.1,5.8-8.4,4.4c6.6-19,15.4-36.8,33.1-47.9
		c9.5-5.9,19.4-10.7,31.2-11.5c13.1-0.9,19.1-7.4,21.1-18.8c0.8-4.4,0.3-8.3-2.2-12.4c-2.2-3.7-6.4-7.2-4-12.5
		c3.7-0.2,6.4,0.1,9.5-4.3c2.5-3.6,10.6-2.2,15.9-0.4c3.7,1.3,6.6,4.6,6.6,9.4c0,6.8-1.3,14.7,10,13.2c0.7-0.1,2.3,2.3,2.4,3.6
		c1.4,13.9,11.2,24.9,13.1,38.6c1.2,9,8.1,15.3,12.4,22.8c5.7,10.1,12.2,19.8,18.4,29.6c-0.8,7.3,4.9,10.5,9.5,13.7
		c4.3,2.9,5.7-3.6,9.2-4.3C389.6,236.1,388.1,239.8,383.6,242.4z"/>
	<path class="st82" d="M374.2,144.8c1.4,10.4,11,15.7,15,24.5c0.1,5-0.1,9.8-2.4,14.6c-3.1,6.6-1.5,13.5,1.1,20
		c2.3,5.8,0.9,10.4-4,13.9c-2.9,2.2-5.7,2.2-8.1-1c-9.8-13.1-21.1-24.7-26.8-41c-3.5-10.1-8.2-20.6-13.8-30.2
		c-3.4-5.9-6.4-11.9-6.3-19.3c0.2-12.1-9.4-18.8-16.9-26.4c-2.5-2.5-6.7-2.9-9.8-1.7c-9.5,3.7-16.9-0.4-24.2-5.6
		c-2.5-1.8-5.2-3.4-7.7-5.3c-2.8-2.1-8.5-2-7.7-6.8c0.6-4.3,6.3-3.2,9.2-5.4c5.3-4.1,13.5,2,18-5.2c8.2,0.3,16.5-1.5,24.4,2.1
		c-0.9,4.6-4.7,3.5-7.5,3.3c-8.8-0.5-17.3,0.8-26,2c-2.3,0.3-4.3,0.9-5.3,3.1c-1,2.4,0,4.5,1.9,5.8c6.7,4.4,13.3,9.4,22.3,7.6
		c16.6-3.2,33.1,10.2,33.3,27.6c0.2,20.2,12.2,34.8,23.7,49.1c5.2,6.5,15.3,7.1,23.4,3.7c6.2-2.6,4-7.5,0.2-11.2
		c-6.8-6.6-12.9-13.5-13.4-23.7C369.2,141.1,371.7,143,374.2,144.8z"/>
	<path class="st83" d="M203.5,122.3c2.3,4.7,5.6,2.8,9.5,2.2c15.1-2.3,29.5-9,45.2-8c4.7,0.3,8.9,0.6,10.6,5.7
		c1.7,5.3-2.8,6.7-5.9,9.3c-8.3,6.9-18.7,6.7-28.3,7.3c-9.9,0.6-13.6,5.7-18.7,13.5c-16.5,25.4-22.1,56.1-40.4,80.4
		c-1.1,1.4-2.5,2.6-3.8,3.9c-3.8-5.7,0.4-10.1,3-14.2c5-8,8.5-16.3,8-25.9c0.1-0.9,0.3-1.8,0.6-2.7c2.7-9.8,10.3-16.8,14.7-25.6
		c7.1-9.4,7.1-20.8,9.3-33.8c-8.4,5.5-13,12.3-17.5,18.9c-3.7,5.4-8.1,9.4-14.3,11.3c-3.5,1-7.4,2.2-9.9-2.1
		c0.6-2.9,3.2-3.6,5.3-4.8c9.6-5.1,15.7-12.9,18.6-23.4C192.8,128.9,196.4,123.7,203.5,122.3z"/>
	<path class="st84" d="M184.7,195.5c1.3,10.7-2.2,19.9-8.4,28.5c-2.6,3.7-5.2,7.8-4.8,12.8c-2.2,17.7-10.3,34.4-9.4,52.6
		c0.1,2.7-1,6.4,2,7.6c3.3,1.4,5.8-1,7.3-4c1-5.3,3.9-2.5,5.9-1.2c2.7,1.7,4,4.7,6.1,7c0.9,1,1.6,2,2.4,3.1
		c3.9,4.5,4.7,10.7,8.2,15.5l0,0c3.9,6.3,4.6,13.5,5.6,20.7c0,1.2,0,2.5,0.1,3.7c1.1,5.7,7.5,10.2,3.7,16.9c-0.6,0-1.2,0-1.9,0
		c-5.3-2.1-5.3-6.9-6.3-11.5c-3.2-15.2-8.4-29.3-23.4-37.1c-4-2-5.1,1.3-7,3.7c-2,2.6-4,5.9-8.1,2.9c-3.2-5.1-7.3-6.2-13.4-5.1
		c-10.2,2-13.1-0.4-13.8-10.5c-0.4-6-3.4-11.2-3.6-17.2c0-2.1,0.3-4,1.6-5.7c4.6-1.7,5,2.4,6.3,4.9c1.8,3.3,1.9,7.2,3.6,10.5
		c3.3,4.7,5.3,1.6,6.6-1.4c3-6.9,6.6-13.4,8.7-20.7c6.3-22.2,15.2-43.6,23.1-65.3C177.6,202.1,178.4,196.4,184.7,195.5z"/>
	<path class="st85" d="M182.8,300.6c-5-0.7-3.4-11.2-11.3-7.6c-5.5-4.5-5.9-11.1-4.4-16.8c4.4-17.6,6.5-36.2,18.7-51
		c1-1.2,1.3-3.2,2.5-3.9c14-8,15.3-23.3,21.3-36c9.2-19.6,23.6-31.8,45.4-35.1c11.6-1.8,20.4-8.4,27.1-18c4-5.7-0.3-9.8-1.8-14.7
		c-0.8-2.5-7-6,0.2-8.5c1.3,3.2,2,6.7,3.9,9.4c14.1,20.9-3.3,36-20.6,37.6c-21.2,2-37.5,12.4-47.7,31.3
		c-4.6,8.4-12.2,15.1-14.5,24.9c1.5,3.9-0.8,6.6-3.3,8.9c-11.7,10.6-19.4,23.1-19.2,39.5c0,3-0.6,6.2-1.5,9.2
		c-2.5,8.7-3.9,16.7,4.9,23.1C184.8,294.7,185.2,298,182.8,300.6z"/>
	<path class="st86" d="M203.5,122.3c-4.2,4.6-10,7.5-13.1,13.1c-1.8,3-3.8,4.3-6.4,0.7c-0.3-2.2,0.6-3.6,2.7-4.3
		c4.2-2.1,6.2-6.3,9.3-9.6c8.6-11.7,21.8-9.8,33.8-11.2l0,0c-3.3,6-9.9,3.1-14.6,5.4C211.2,118.4,206,117.6,203.5,122.3z"/>
	<path class="st87" d="M229.7,111.1c15.8-5.4,32.1-7,48.7-4.4C262,106,246.2,111.9,229.7,111.1C229.8,111.1,229.7,111.1,229.7,111.1
		z"/>
	<path class="st88" d="M128.4,278.1c0,1.9,0,3.8,0,5.6c-4.9-0.9-5.9-6.8-10.4-8.3c-0.6-2.3-0.1-4.5,0.8-6.6c0-8.8,0-17.6,0.1-26.4
		c-1.3-14.8,5-28,8.4-41.9c4.9-20.1,19.5-33.1,31.1-48.3c0.7-0.6,1.5-0.9,2.4-0.7c3.8,2.8,1.1,5.6-0.4,7.9c-2.8,4.3-6,8.5-9.7,12.2
		c-7.9,8.1-7.8,8.2-1,15.8c-9.5,14.6-14,31.2-19.6,47.4c-3.4,9.7-1.1,19.8,0,29.7C130.5,269.3,132,274,128.4,278.1z"/>
	<path class="st51" d="M160.3,152.2c-0.6,0-1.2,0.1-1.8,0.1c-1-14.2,4.7-26.2,12.3-37.5c1.9-2.8,4.5-5.2,5.8-8.3
		c3-7.2,8.2-4,12.5-2.6c5.2,1.6,3,5.8,2.1,9.3c-1.6,6.2-5.9,11.7-4.5,18.7c-0.7,1.2-1.3,2.4-2,3.6
		C178.7,144.1,169.7,148.5,160.3,152.2z"/>
	<path class="st89" d="M169.7,430c-0.9,7.7,2.5,12.4,8.3,17.9c11.6,11,24.9,19.1,38.4,27c2.5,1.4,4.6,3.1,5.8,5.8
		c0.8,4.8-3.7,6.8-5.4,10.3c-2.4,4.8-2.3,7.6,4,8c3.3,0.2,7-0.6,9.4,2.8c-8,4.8-16.5,1.9-24.9,1.5c-1.7-0.1-3-2.2-3.5-4.1
		c-5.6-18-21-28.2-32.6-41.5c-1.8-2-4.2-2.4-6.8-2.5c-17.1-1.2-32-7.5-45-18.6c-6.4-5.5-7.5-9.1-1.7-15.4c3.4-3.7,3-6.7,0.2-9.8
		c-14.3-15.6-9.2-32-1-47.7c3.7-7.2,7-14.4,9.8-21.9c0-5,0-10,0-15c-3.6-9-2.8-10.9,5.9-13.2c1.5-0.4,3-0.8,4.5-1.1
		c14.5-3.1,14.7-3.1,22.8,9c2.6,4,7.1,7.3,4.7,13.1c-4.4,2.3-6.8-1.3-9.7-3.4c-11.2-8.1-19.6-4.1-22.4,9.5
		c-2.2,11-3.1,22.1-4.6,33.1c-0.9,6.6,0.4,12.4,5.9,16.7C146.3,401.8,158.2,415.7,169.7,430z"/>
	<path class="st73" d="M124.7,341.9c-0.5,8.3-3.2,15.9-7.8,22.7c-5.1,7.6-6,16.2-7.2,24.7c-0.9,6.7,1,12.5,5.8,17.9
		c4.3,4.9,13.8,11.1-0.2,17.1c-3.7,1.6-2.3,6.4,1.3,9.2c13.8,10.8,28.6,19,46.9,19.1c7,0.1,10.4,6.6,14.7,10.7
		c8.1,7.6,15,16.5,22.4,24.9c0.8,0.9,1.7,1.9,2.2,3c1.8,3.7-1.5,10.3,4.2,11.2c7.4,1.2,15.3,2.6,22.7-1.1c0.5-0.7,1.2-1.2,2-1.6
		c4.5-0.8,8.3-4,13.1-4.1c0.6,0,1.2,0,1.8,0c0,0,0,0.1,0,0.1c2,5-1.8,6.3-5.1,7.8c-3.2,1.4-6.5,1.7-9.9,1.6c-4.1,0-8.2-0.6-12.1,0.1
		c-17.1,3-25.6-7.2-32.8-20.2c-4.5-8.1-9.1-16.3-15.9-22.8c-2-1.9-3.7-4-7.1-3.6c-15.9,2-29.6-3.5-41.9-13.2c-4.3-3.4-11.5-1.7-14-8
		c-0.4-1-6.8-4.9,1.3-4.4c3.1,0.2,1.5-2.7,0.3-3.9c-9-8.4-8.8-20.1-10.9-30.9c-0.9-4.7-1-9.6,4-13.4c3.4-2.6,3.6-7.7,5-11.8
		c1-2.9,1.4-6.3,3.1-8.7C116.2,357.3,120.9,349.9,124.7,341.9z"/>
	<path class="st90" d="M156.7,323c-2.2-0.8-3.1-2.6-4-4.7c-2.2-5.5-6.2-7.2-11.8-5.2c-2.6,0.9-5.2,2.2-7.9,2.5
		c-7.4,0.6-9.6,4.5-8.3,11.3c-6.6,3.7,0.4,11.8-5,16.1c-1.2,0.9-0.7,3.6-2.5,4.6c0-6.9,0-13.8,0-20.7c-3.9-10.6-1.7-22-4.4-32.7
		c-1.1-4.4-1.4-9.2-1.4-13.8c0-3.1-1.2-7.2,4-7.8l0,0c3.7,6.3,3.2,13.6,4.6,20.1c0.2-5.3-3.1-10.7-0.7-16.4c8.5-4.2,5.6,5.7,9.3,7.5
		c1.1,7.5,3.7,14.6,4.3,22.4c0.6,7.2,7.9,4.1,12,2.9c8.3-2.4,12.4,0.3,13.7,8.4C160.4,320.1,159.1,321.8,156.7,323z"/>
	<path class="st79" d="M231.6,505.1c4.5-4,13.8-0.1,15-9.4c0.6,0.6,1.2,1.2,1.9,1.8C246.3,505.2,237.7,509,231.6,505.1z"/>
	<path class="st91" d="M257.9,439.3c0-0.3-0.1-0.6-0.1-0.9c0.3-3.9-7.1-5.9-3.9-9.1c2.8-2.9,8-0.6,12.3-0.1c7,0.9,13.1,3.4,18.7,7.1
		c2.6,1.7,8,3.2,4.8,8.7c-6.8-1.3-11-7.4-17.6-9.6C266,433.5,261.5,433.6,257.9,439.3z"/>
	<path class="st92" d="M383.6,242.4c1.2-3.8,2.5-7.5,3.7-11.3c0.2-0.9,0-2.3,0.6-2.7c13.8-10,9.9-25.5,12.6-39c0.6-3.3-2-9,3-9.3
		c4.7-0.3,9.6,2.7,11.7,7.8c3.6,8.7,1.1,17.1-2.2,25.1c-2.2,5.3-3.5,10.5-3.1,16.2c-7.9,8.5-5,21.7-13.1,30c-4.7-5.7,3.7-9.7,1.9-15
		c-3.1-3.5-6.3,1.8-9.4,0C387.2,244.2,384.9,244.6,383.6,242.4z"/>
	<path class="st93" d="M115.3,272.4c-4.6,8.1-0.5,16.3,0.4,24.2c1.2,10.1,2.5,20.1,1.4,30.2c-1.4-0.5-3.3-0.7-4.2-1.7
		c-4.9-5.7-9-3.9-13,1c-1,1.2-2.1,2.5-3.4,3.1c-3,1.5-6.6,3.1-9.6,1.3c-3.1-1.8-0.9-5.1,0-7.6c3.1-8.5,0.6-17.1-2.4-24.3
		c-4.1-9.8-4.3-19.9-5.9-29.9c-0.3-2.2-1.3-4.4,1.7-5.3c2.4-0.7,4.2,0.3,5.4,2.5c1,1.9,2,3.9,3.4,5.5c5.2,5.8,11.2,5.4,15-1.4
		c2-3.5,3.1-7.4,4.8-11.1c1-2.1,0.5-6.1,3.7-5.6c3.6,0.5,2.6,4.4,2.6,7C115.4,264.3,115.3,268.4,115.3,272.4z"/>
	<path class="st93" d="M119.1,276.2c0.3,7.8,3.9,15.3,2.1,23.3c-3.8-8.6-4.9-17.8-5.9-27c1.2-1.2,2.4-2.4,3.6-3.6
		C118.9,271.3,119,273.7,119.1,276.2z"/>
	<path class="st91" d="M171.5,308.1c17.9,6.2,21.9,22.4,25.9,37.9c1.2,4.4,2.2,8.7,4.2,12.8c0,1.3,0,2.5,0,3.8
		c0.5,8.4,1.7,19.4,6.6,23.5c8.9,7.4,12.9,18.9,23.3,24.6c5.7,3.1,9.9,7.8,13.5,13.6c3.4,5.3,2.4,9-0.3,13.4
		c-16.8-7.5-35.6-11.5-46.9-28.1c-4.1-6.8-7.4-13.7-5.5-22c0.6-2.4,0.2-5.1-0.9-7.3c-8.1-16.4-11.8-34.8-21.7-50.5
		c-3.2-5.1-4.9-10.8-3.8-16.9C166.5,309.7,166.6,305.9,171.5,308.1z"/>
	<path class="st47" d="M203.5,358.7c0.5-6-5.2-10.7-3.7-16.9c6,3.7,6.8,10.8,10.8,16c11.5,14.6,28.8,16.3,44.5,21.3
		c20.2,6.5,40.2,4.3,59.7-3.9c8.4-3.5,12.5-12,20-16.5c1.7,13.7-0.1,14.4-11.4,22c-14.2,9.5-29.5,15.3-45.9,13.2
		c-25.8-3.3-51.2-9.3-69.1-31.1C207.1,361.3,205.1,360.1,203.5,358.7z"/>
	<path class="st94" d="M282.3,416.9c-14.7-5.6-30.5-6.9-45-13.1c-17-7.1-25.9-21-31.9-37.5c7.2,7.5,13.3,16.4,22.6,21.5
		c12.1,6.6,24.2,13.8,37.1,18.1c8,2.6,17.2,1.9,24.7,7.3C286.8,413.5,284.2,414.5,282.3,416.9z"/>
	<path class="st95" d="M349.8,219.9c-2.3-1.3-4.8-2.2-7.5-1.9c-5.2,0.9-9.1-2.2-12.4-5.1c-15.6-13.2-33.7-15.2-53-13.4
		c-4,0.4-8.1,1-11.5-2.2c-25.1,1.6-43.2,14.5-57,34.9c-11,16.3-12.6,35.2-15.6,53.6c-0.9,5.4,1.6,11.5,5.4,16.4
		c2.3,2.9,2.2,6.6,0.7,9.7c-1.1,2.3-3.2,0.2-4.9-0.2c-9.3-9.6-14.1-21.1-13.7-34.5c0.3-9.6-0.7-19.3,1.2-28.9
		c3.1-15.8,14.3-26,24.7-36.6c9.1-9.3,19.2-17.7,29.6-25.6c2.3-1.7,4.6-3.6,7.4-3.9c6.9-0.8,13.2-2.3,19-6.6
		c3.7-2.7,8.5-0.7,12.6,0.8c6.8,2.4,12.5,1.1,18.4-3c20.8-14.1,21.6-13.5,36.5,6.9c7.3,10,13.8,20.7,22.6,29.6
		C356.5,213.8,358.7,218.8,349.8,219.9z"/>
	<path class="st96" d="M349.8,219.9c3.5-2,6.6-3.9,2.1-8.3c-12.3-12-21.7-26.2-31.1-40.5c-3.9-5.9-8.2-6.9-14-3
		c-1.8,1.2-4.2,1.6-5.8,3.1c-9.6,8.5-19.8,12.5-32.3,5.9c-1.4-0.8-4.2-0.8-5.4,0.1c-12.4,8.7-28.9,9.7-39.8,21.5
		c-10.8,11.6-24.2,20.8-33.2,33.9c-3.7,5.5-6.7,12.7-6.8,19.2c-0.5,18.7-5,38.3,8.8,54.8c1.1,1.3,1.2,3.5,1.8,5.2
		c-0.6,0-1.2,0-1.9,0c-3.4-2.4-4.7-6.5-7.6-9.4c-0.6-0.6-1.2-1.2-1.8-1.9c0.7-4.8-2.3-7.6-5.6-10.1c-5.2-3.9-6.6-7.6-3.6-14.3
		c2.7-6,3.3-13.2,3.4-19.9c0.2-14.9,8.1-25.5,18.1-35c2.8-2.7,4.9-5.6,6.5-9c9.3-10.4,19-20.5,27.7-31.4c8-10.1,18.4-15.4,30.6-15.2
		c10.5,0.1,20.3-2.5,30.3-4.7c7.2-1.5,10.6-7.5,8.5-14.3c-2.9-9.3-2.7-20-10.7-27.4c-2-1.9-2.9-5.1-0.3-6.5
		c4.5-2.4,9.6-4.5,14.6-1.4c2.3,1.5,3.6,3.9,4.5,6.8c6.5,21.4,15.8,41.6,26.1,61.3c4.2,8,10.4,15.4,16,22.5
		c5.6,7.1,8.8,15.8,15.2,22.3c1.3,1.4,2.8,3.9,0.2,5.7c-2,1.4-3.5-0.3-4.8-1.5C356.3,225.7,353.1,222.8,349.8,219.9z"/>
	<path class="st97" d="M361.1,234.9c11.4,9.5,11.9,22.4,11.3,35.6c1.6,1.9,1.6,3.7,0,5.6c-2.7,17.9-13.4,31.4-23.7,45.4
		c-3.3,4.4-5.3,9.8-7.9,14.8c-5.7,10.7-12.5,20.2-25.6,22.4c-4.7,0.8-9.1,2.2-13.2,4.4c-8,4.3-16,4.6-24.2,0.9
		c-1.4-0.6-3-1.6-4.4-1.4c-15.5,2.7-27.5-4.8-39.2-13.3c-6.3-4.6-12.3-9.3-15.8-16.6c-2.8-5.9-3.7-12.7-8.4-17.6
		c-10-10.4-11.3-23-10.2-36.4c0-0.3-0.1-0.7,0-0.9c9.9-14.5,6-34.3,16.9-47.9c10.7-13.3,24.6-23.3,41.2-28.8
		c0.6,0.9,0.6,1.7,0.2,2.7c-1.1,1.7-2.6,2.7-4.3,3.6c-8.5,5.6-14.3,14.5-23.5,19.5c-4.8,2.6-6.2,9.1-7.4,14.7
		c-2.8,13.4-5,26.9-7.8,40.3c-2.4,11.5-2.8,24,5.5,34.6c2.9,3.7,5.4,5.3,10.1,4.5c6.2-1.1,9.1,2.6,9.8,8.5
		c1.5,12.5,14.6,23.5,26.9,22.3c14.9-1.5,29.8-1.9,44.7,0.2c3,0.4,5.5-0.5,7.7-2.5c6.6-8,9.7-18,15.2-26.6
		c5.3-8.4,10.5-16.8,18.6-23c13.8-10.8,15-29.3,10.9-49c-0.6-2.7-1.9-5.2-3-7.8C360.6,240.4,358.8,237.7,361.1,234.9z"/>
	<path class="st98" d="M372.3,276.2c0-1.9,0-3.7,0-5.6c2.7-2,1.6-4.9,1.9-7.5c3-2.8,5.6-8.9,10.1-6.1c4.9,3.1,4.3,10.3,4.3,15.5
		c0.1,15.6-3,30.7-10.8,44.4c-4.5,8-11,14.5-15.1,23c-2.5,5.2-10,0.5-14.3-1.4c-4.4-1.9-1.3-5.8,0.8-8.5
		c5.6-7.4,10.6-15.3,15.9-22.9C371.9,297.2,372.8,287.2,372.3,276.2z"/>
	<path class="st95" d="M199.7,323.1c0.5-2.2-1.3-5.6,1.9-6.5c2.8-0.8,4.4,2.1,5.4,4.3c6.2,14.2,14.8,26.4,27.1,35.9
		c1.1,0.8,2.3,2.6,2.1,3.8c-0.4,2.5-3.1,2.4-4.5,1.8c-9.1-3.5-18.3-6.9-23.9-15.7c-2.6-4.1-3.2-9.6-8-12.3
		C197.6,330.6,196.9,326.9,199.7,323.1z"/>
	<path class="st99" d="M257.9,203c0-0.6,0-1.3,0-1.9c1.6-3,5.9-0.7,7.5-3.7c8.7,1.6,17.1-1.8,25.9-1.4c20.1,0.9,35.6,11,51,22
		c0,0.6,0,1.2,0,1.9c-3.1,2.2-5.8,0.5-8.5-0.8c-19.3-15.6-42.1-16.2-65.3-15C264.9,204.3,261.1,206.1,257.9,203z"/>
	<path class="st98" d="M389.2,244.3c3.1,1.5,6.3-12.2,9.4,0c-3.4,3.7-5.8,8.7-12,8.6C385.5,249.2,388.4,247.1,389.2,244.3z"/>
	<path class="st85" d="M199.7,323.1c0,3.7,0,7.5,0.1,11.2c0,1.3,0,2.5-0.1,3.8c-3.9-6.3-5.1-13.4-5.6-20.7
		C197.1,318.3,197.4,321.7,199.7,323.1z"/>
	<path class="st85" d="M184.7,302.5c4.2,1.8,5.7,5.7,7.6,9.4c0.6,1.9,1.2,3.8,1.9,5.6C189.2,313.6,187,308,184.7,302.5z"/>
	<path class="st100" d="M169.7,430c-5.3-0.6-8.3-4.6-10.6-8.5c-7.2-12.1-18.4-20.1-28.8-28.8c-5.2-4.3-7.8-9.4-7.3-15.2
		c1.3-14.8,3.3-29.5,5.7-44.1c1.4-8.4,16.5-11.7,23.9-5.8c3.1,2.5,4.9,6.7,9.7,6.6c8.1,2.1,10.4,8.6,12,15.7
		c2.2,8.7-0.5,16.6-4.4,24.1c-3.2,6.2-2.9,12.1-1.6,18.8c2.1,11,6.3,22.1,1.4,33.4C169.7,427.5,169.7,428.8,169.7,430z"/>
	<path class="st89" d="M169.7,426.3c-1.4-12.2-0.6-24.5-5.1-36.4c-2-5.4-0.5-11.4,2.9-16.9c4.4-7.1,7-15.1,4.2-23.8
		c1.7-0.4,3.4,0.2,4,1.5c5.1,11.8,10.6,23.5,12.4,36.5c0.2,1.2-0.6,2.4-1.4,3.3c1.8,13.5-5.3,25.1-8.8,37.3
		C175.2,436.6,172.8,425.5,169.7,426.3z"/>
	<path class="st101" d="M186.6,390.6c-3.1-14.5-7.5-28.4-15-41.3c-0.4-6.7-5.4-10.5-9.3-15c-0.4-4.5-3.7-7.6-5.7-11.2
		c0.6-1.9,1.2-3.7,1.8-5.6c2.9-1.5,4.8-3.6,5.8-6.8c1.2-3.7,3.4-6,7.3-2.6c-8.7,6.9-3.2,15,0.4,20.3c8,11.6,10.6,25.1,16.3,37.5
		c4.3,9.3,9.5,18.5,6.1,29.8c-1.4,4.7,7.5,7.7,3.5,13.7c0,1.9,0,3.7,0,5.6C191.4,408.1,190.4,398.7,186.6,390.6z"/>
	<path class="st102" d="M231.6,501.3c-0.6,0-1.2,0-1.9,0c-1.5,0-3.1,0.2-4.6,0c-4.2-0.8-10.3,2.7-12.4-3c-1.9-5.3,2.5-9.6,5.7-13.7
		c1.1-1.4,2.5-2.6,3.8-3.9c7.6,0.5,11.9,7.4,18.7,9.4C243.6,498.7,235.2,498,231.6,501.3z"/>
	<path class="st89" d="M231.6,501.3c2.1-4.6,9.4-4.8,9.4-11.2c2.6,1,3.7,2.9,3.8,5.6C241,499.1,236.8,501.4,231.6,501.3z"/>
	<path class="st103" d="M334.8,218c2.5,0.6,5,1.3,7.5,1.9c8.6,2.1,12.6,9.8,18.8,15c0.6,2.5,1.3,5,1.9,7.5c1,5.2,3.5,10.3,1.3,15.7
		c-6.1,0.7-7.4,0-7.3-8.2c0.1-9-3.5-14.8-11.4-18.4c-8.6-4.1-15.6-12.5-26-11.5c-13.7,1.3-25.6-6-38.8-6.7c-5.1-0.3-10-0.7-13.7,3.8
		c-6.1,8.6-14.7,12.4-24.8,13.6c-1-2.8,0-5.5,2.2-6.5c8.1-3.8,13.2-11.1,20-16.4c4-3.1,8.8-4.8,13.9-4.7
		C298.4,203.8,317.9,205.9,334.8,218z"/>
	<path class="st104" d="M184.7,195.5c-8.7,12-11.4,26.6-16.8,40c-8,20-12.9,41.1-22.3,60.6c-1.1,2.3-2.5,4.5-5.5,4.1
		c-3-0.4-4-2.6-4.2-5.3c0-6.8-0.6-13.5-3-20c-1.7-4.8-2.1-9.6-0.2-14.5c1.6-2.3,3.1-1.5,4.4,0.2c2.1,2.8,2.7,6.2,4.4,10.6
		c4.1-11.5,10.8-20.8,11.4-32.6c0.3-6.2,2.6-12.2,7.3-16.9c2.7-2.7,4.5-6.1,4.9-9.9c0.6-6.2,3.3-11.1,7.6-15.6
		c4.7-5.1,4.6-12.1,5.4-18.5c0.3-2.3-0.9-4.3-3.4-5c-2.8-0.8-5.1,0.2-6.5,2.6c-2.7,4.5-5.2,9.2-8.1,13.7c-2,3.2-4.1,6.5-8.8,5.4
		c-4.1-3.3-0.1-6.8-0.4-10.2c0.2-0.9,0.6-1.7,1-2.5c3.5-5.3,7.6-10.3,8.9-16.8c1.1-2,2.3-4,5.2-3c8.2,2.8,16.5-0.1,20.8-8.1
		c3.9-7.2,10.3-12.3,14.8-18.9c1.6-2.3,4.2-4.1,7.2-1.9c2.9,2.1,2.5,4.7,0.5,7.2c-1.4,1.8-2.3,3.8-1.9,6c1.7,9.1-3.4,16-7.6,23.2
		c-6.2,7.4-13.1,14.3-15,24.4C184.7,194.3,184.7,194.9,184.7,195.5z"/>
	<path class="st105" d="M165.9,161.8c-1.8,0.7-3,1.9-3.7,3.7c-2.9,5.8-6.6,11-9.4,16.9l0,0c-1.3,1.3-1.6,3.4-3.8,3.7
		c-3.3,0.3-6.5-0.5-7.8-3.7c-1.4-3.4,1.5-5.6,3.5-7.9c4.5-5.1,9-10.1,13.3-15.3c1.7-2,4.3-3.8,2.3-7.1c7.1-7.1,16.6-10.7,24.4-16.8
		c1.9,2.9,3.8,0.6,5.7,0C188.2,149.8,179.2,157.7,165.9,161.8z"/>
	<path class="st84" d="M184.7,193.6c-0.2-11.3,6.8-18.2,15-24.4C194.7,177.4,189.7,185.5,184.7,193.6z"/>
	<path class="st106" d="M149,186.1c0.7-1.8,2-3.1,3.8-3.7c-0.6,3.7-1.3,7.5-1.9,11.2c-4.2,12.3-9.5,24.2-12.9,36.9
		c-1.8,6.8-3.9,13-2.6,20c0.5,3.1,1.2,6.2-1.3,8.8c-2.4,9.2,4.2,17.1,3.7,26c-0.2,3.3,1.2,6.9-1.8,9.6c-3.7-5.1-2.4-12.4-7.5-16.9
		c0.4-13-5.3-26-1.7-38.7C132,220.8,135.9,201.5,149,186.1z"/>
	<path class="st99" d="M321.7,351.3c-2.4,2.8-5.5,4.1-9.1,3.5c-15.4-2.5-30.8-2.4-46.3,0c-11.6,1.8-27.4-13.2-27.9-25.3
		c-0.2-4.7-2.4-8.8-8.3-5.8c-5.8,3-8.1-0.1-11-4.5c-10.3-15.7-9.5-31.6-3.8-48.8c3.2-9.5,3.1-20.1,5.1-30.1
		c1.9-9.1,5.5-17.3,15.6-20.2c2.7-0.8,3.8-2.8,5.5-4.7c3.6-4.1,6.4-9.4,12.6-10.4c-1.4,8.3-7.4,14-12,20.3
		c-3.5,4.7-5.9,9.4-6.2,15.2c-0.1,2.8-0.5,5.5-1.5,8.2c-5.2,14.3-1.6,27.8,4,41c1.6,3.6,3.7,7.3,6.2,10.4c6.8,8.1,8.9,17.6,9.2,27.8
		c0.2,8.2,4.2,12.1,12.3,13.7c13.7,2.7,27.3,6,41.5,5.8C312.4,347.2,317.6,347.7,321.7,351.3z"/>
	<path class="st107" d="M321.7,351.3c-20-1.6-40.1-3-59.8-7.7c-6.6-1.6-11.5-6.3-10.7-12.4c2-15.1-5.8-26.3-13.3-37.4
		c-4-6-5-12.1-7-18.6c-4.5-15.1,0.2-28.9,4.1-42.5c3.1-10.6,12-18.9,19-27.8c1.2-0.6,2.5-1.3,3.7-1.9c18.1-3.1,36.2-2.6,54,1.9
		c8.8,2.2,16.7,6.4,22.9,13.1c-9.6-3.5-19.2-7-28.7-10.7c-2.6-1-4.8-2.1-8-1.3c-5.4,1.3-11.1,1.4-16.6-0.5c-1.4-0.5-3.2-0.8-4.6-0.4
		c-14.6,4.3-23.6,16.1-34.1,26c0.6,0.7,0.8,1.5,0.7,2.3c-1.6,4.3-4.6,8.1-4.6,12.9c-0.1,0.8-0.4,1.6-0.6,2.4
		c-1.9,5.1,0.6,9.6,2.1,14.2c0.3,0.9,0.5,1.7,0.7,2.6c-0.1,13.8,2.7,26.1,13.9,35.9c6.7,5.8,7.6,14.6,7.2,23.3
		c-0.3,6.2,1,11.3,8.6,11.6c4.5,1.4,9.3,0.9,13.8,1.8c10.8,8.6,22.2,1.1,33.1,0.4c5.1-0.3,7.1-8.8,9.6-14.2c1.7-3.7,5.4-5.7,7.5-9
		c2.3-6.6,6.3-11.6,12.3-15.5c11.5-7.6,16.3-18.8,15.2-32.6c0.1-2.7-1-5.5,0.6-8.1c0-5.6,0-11.3,0-16.9c12.2,23.6,7.6,44.9-12,62.7
		c-10.7,9.7-16.6,23.2-23,36C326.1,344.7,324.5,348.3,321.7,351.3z"/>
	<path class="st108" d="M242.9,233c0-0.6,0-1.2,0-1.9c6.1-7.1,17.7-5.9,22.5-15c3.9-0.6,5.7,2.3,4.3,4.7c-4.2,7.6,0.9,8,6,8.9
		c4.3,1.7,10.3,1.6,9,8.9c-3.7,3.1-7.5,0.8-11.2,0.3c-2.2-0.6-4.4-1.5-6.5-2.5c-2.2-1-4.4-2-6.6-3c-5.2-2.4-8-0.9-8.6,4.8
		c-0.6,1.7-1.4,3.2-2.5,4.5c-5.2,3-5.5,6.9-2.1,11.5c0.3,0.8,0.6,1.6,0.7,2.5c3.9,9.5,13.9,11.6,25.9,5.3c0.7-0.5,1.4-0.9,2.2-1.4
		c4.1-2.2,7.3-5.1,8.4-10c0.4-1.7,1.4-3.4,3.8-3c2.4,2.3,3.5,5.4,3.3,8.4c-0.3,7.4,3.5,12.9,7.4,18.5c3.1,4,8.9,3.5,12.1,7.2
		c0.1,1-0.1,1.8-0.6,2.6c-2.7,2.6-6,3.4-9.5,3c-4.8-0.6-9.3,0.3-13.6,2.3c-10,4.8-21.3,1.4-31.8,5.4c-6,2.3-14.5-10-14.3-19.7
		c0.1-4.4,0.8-8.7-2-12.5v0c-0.8-5-3.2-9.8-1.9-15l0,0C239.6,243.2,240.1,237.7,242.9,233z"/>
	<path class="st109" d="M274.8,231.2c-5.7-1.1-16.8,1.5-6.6-10.2c1.7-2-0.8-3.8-2.8-4.8c0.6-4.4,4.2-5.9,7.5-5.4
		c9.4,1.3,19.8-2.4,27.8,5.7c0.9,1,3,1.7,4.2,1.4c15.2-3.8,27.8,1.5,39.5,10.7c0.5,0.4,1.1,0.6,1.7,0.8c3.6,3.8,10.5,5.5,8.2,13
		c-3.2,2.7-5.8,0.3-8.3-1.3c-6.3-4-13-7-20.4-8.4c-3.8-2.1-7.7-2.7-11.9-1.4c-7.7,1.2-14.1-1-19.6-6.5c-1.5-1.6-3.1-3.2-5.1-4.1
		C280.9,216.9,274.6,221.6,274.8,231.2z"/>
	<path class="st110" d="M353.5,242.5c1.1-6.5-5.4-8.5-7.5-13.2c8.4,3.3,13.8,8.6,13.2,18.6c-0.2,4.1-1.5,8.9,3.6,11.4
		c1.3,2.3,2.2,4.8,1.9,7.5c-1.7,1.5-3.6,1.7-5.7,0.7c-4.4-5.3-3.2-12.2-5.5-18.1C352.9,247.1,351.6,244.8,353.5,242.5z"/>
	<path class="st111" d="M134.1,259.3c-4.2-24.4,4.2-45.6,16.9-65.7c8.9-2.4,9.7-11.2,13.3-17.5c2.9-5,5.6-8.2,11.5-6.4
		c6.2,1.8,5.9,6.7,4.7,11.3c-2,7.5-1.6,16.1-9.9,21c-2.4,1.4-2.9,5.3-2.7,8.6c0.3,4.6-1.5,9.1-4.7,11.8c-4.4,3.8-6.8,8.2-7.1,13.6
		c-0.6,15.1-10.2,27-13.8,42.3C137.6,271.9,138.4,264.4,134.1,259.3z"/>
	<path class="st88" d="M152.8,182.4c0.3-7.2,4.3-12.3,9.4-16.9C161.9,172.7,157.9,177.8,152.8,182.4z"/>
	<path class="st103" d="M239.1,263.1c3.5,2.1,6,5.2,4.6,9.1c-2,5.5,0.5,9.3,2.9,13.8c3.6,6.8,7.3,11,14.8,4.8c2.4-2,5.5-2,8-0.9
		c3.5,1.6,6.7,0.9,9.8-0.4c10-4.1,20.7-4.1,31.1-5.7c6.7-3.6,10.4,1.4,14,5.3c3.5,3.9,4,8.9,1.9,13.9c-0.8,2-2.5,4.7-4.5,4.1
		c-11.2-3.6-12.2,6.1-16.2,11.9c-4.7,1.9-4.2-2.2-4.8-4.5c-2.8-10.4-8.7-12.5-18.3-6.8c-6,3.5-8.1,10.2-12.8,14.6
		c-2.6,2.2-3.4,4.6-1.5,7.8c1.5,2.4,4,4.7,2.7,8.1c-8.9,1.3-12-3.3-11.2-11.4c1.3-12.5-2.9-22-12.8-30.2c-6.3-5.2-7.4-14-7.8-22.2
		C239,270.6,239.1,266.8,239.1,263.1z"/>
	<path class="st110" d="M304.8,319.3c-1.1-5.8,3.6-9.6,5.1-14.5c0.9-2.8,4.6-3.1,7.2-1.2c7.7,5.9,7.6-1.5,8.1-5.3
		c1-7.3-4.7-12.6-14.8-14.6c0-0.6,0-1.3,0-1.9c4-4.7,4-4.7,11.7-0.4c3.6,3.3,7,6.8,11,9.5c7.4,5,9.9,4.6,15.9-2.8
		c2.7-3.3,5-6.7,6-11c0.6-2.6,1.1-5.5,4.8-5.4c6,8-0.2,14.3-3.3,20.7c-1.5,3.2-4.5,6.3-8,7.5c-8.5,3-11.5,9.3-11.9,17.5
		c-2.5,2.5-5,5-7.5,7.5c-1.1,1.1-2.4,2.1-3.1,3.4c-2.6,4.7-6.3,8.1-11.9,7.1c-5.6-0.9-5.4-5.8-5.7-10.3c-0.1-1.5-1.8-1.3-2.9-1.7
		C303.9,322.4,303.3,321.1,304.8,319.3z"/>
	<path class="st103" d="M306.7,323.2c0.9-1.6,1.7-3.6,4-2.9c2,0.5,1.6,2.5,1.1,3.8c-1.4,3.6-2.7,7.7,1.8,9.5
		c4.1,1.6,7.6-1.1,9.9-4.7c1.4-2.2,3-3.8,5.8-3.9c-1.6,6.9-6.5,17-10.2,16.3c-11.1-2.1-22.8,10.8-33-1.3c4.6-4.5,12-2,16.6-6.4
		C306.2,331,305.3,326.7,306.7,323.2z"/>
	<path class="st112" d="M304.8,334.2c-4.6,7.2-12.3,4.5-18.7,5.9c-5-0.9-10.4,1.8-15-1.9c-1.4-5.6-12-9.2-3.6-16.9
		c2,1.8,3.5,3.9,5.2,5.9c5.5,7.1,13.3,4,20.2,4.6C296.9,332.1,301.3,330.9,304.8,334.2z"/>
	<path class="st103" d="M336.7,317.5c-1.6-9.3,1.1-15.2,10.8-19c9.7-3.8,14.1-16.2,11.7-26.1c-1.6-1.9-1.6-3.7,0-5.6
		c1.9,0,3.7,0,5.6,0c1.4,16.5-5.2,29.1-19.5,37.1C339.7,307.2,339.6,313,336.7,317.5z"/>
	<path class="st103" d="M242.9,233c-1.4,5.2-0.1,11.4-5.6,15C236.4,242,238.4,237.1,242.9,233z"/>
	<path class="st103" d="M237.2,248.1c1.5,4.9,2.3,9.9,1.9,15C236.6,258.3,233,253.7,237.2,248.1z"/>
	<path class="st113" d="M321.6,283.7c-3.6-1.7-6.6-6.5-11.2-1.9c-4.9-0.7-10.1-0.6-13.1-5.6c-1.3-4.8-1.6-9.4-1.3-14.6
		c0.4-6.6-5.5-12-6.2-19c-0.4-3.9-3-7.8,0.7-11.3c3.5-3.3,7.6-2.3,11.3-0.5c4.6,2.2,8.4,0,12.4-1.6c4.3-2.8,8-1.8,11.3,1.8
		c1,1,1.4,2.1,1.3,3.5c-1.3,4.5-7.8,6.6-5.6,12.6c-4.6,12.6-3.7,15.6,7.9,25.1c1.7,1.4,3.3,2.8,5,4.3c3.2,4.7,9.3-0.5,12.7,3.6
		c0.5,4-0.7,7.4-3.9,9.9C334.3,292.6,328.5,286.3,321.6,283.7z"/>
	<path class="st114" d="M314.2,229.3c-4.5,4.8-9.2,7.1-15.5,2.8c-2.1-1.5-4.8-1.4-7,0.5c-2.4,2-2.1,4.5-0.6,6.7
		c3.5,5.6,0.6,14.1,8.3,17.8c0.7,0.3,1.2,2.8,0.8,3.2c-5,4.6-1.1,10.8-2.9,15.9c-8.2-7.7-8.1-18.1-9.4-28.1
		c-2.4-2.7-4.7-5.3-3.8-9.3c0.4-6.9-6.8-4.3-9.4-7.6c-1.7-3.6-7.3-8.1-1.3-10.9c5.5-2.6,12.6-7.5,18.7-0.6
		C298.1,226.3,304.8,230.8,314.2,229.3z"/>
	<path class="st115" d="M276.7,262.5c-0.7,0.1-1.4,0.2-2.1,0.3c-5.5,0.3-10.4,3.2-16.2,2.4c-5.7-0.8-9.2-2.9-9.9-8.8
		c1.5-13.3,5.8-17.7,17.1-17.5c2.6,0.9,4.6,2.9,3.8,5.5c-3.2,9.8,2.9,9.7,9.5,9.4C280.8,257.3,278.3,259.8,276.7,262.5z"/>
	<path class="st116" d="M267.3,240.6c-12,0.1-14.6,2.6-17,16.8c-2,1-2.9-0.4-3.9-1.8l0-0.1c-1.5-4.8-3.8-9.6,2-13.3
		c0.6-1.3,1.3-2.6,1.9-3.9c4.2-7.7,10.5-5.7,16.9-3.7c1.9,0.7,3.7,1.4,5.6,2.1c2.4,1.3,3.9,3,2.2,5.8
		C271.7,244.9,269.8,241.9,267.3,240.6z"/>
	<path class="st117" d="M274.8,242.5c-0.7-1.9-1.3-3.7-2-5.6c3.8,0.6,7.5,1.2,11.3,1.8c1.8,2.9,4.6,5.4,3.8,9.3
		c-2,6.2-3.6,12.6-11.2,14.5c0.5-2.9,1-5.8,1.5-8.7C275.7,250.4,275.5,246.4,274.8,242.5z"/>
	<path class="st118" d="M246.5,255.7c1.3,0.6,2.6,1.2,3.9,1.8c3.1,7.6,9.1,6.5,15.4,5.5c2.9-0.5,6-5.6,9-0.1
		c-6.9,6.7-19.9,7-26.5,0.8C245.7,261.3,244.2,259,246.5,255.7z"/>
	<path class="st103" d="M267.2,234.8c-5.9,0.1-12-0.9-16.9,3.7c0.5-2.9-1.4-7.4,1.9-8.3C257.7,228.6,262.9,231.1,267.2,234.8z"/>
	<path class="st118" d="M248.5,242.3c-2.5,4.2-1.7,8.8-2,13.3C239.7,248,240.1,245.4,248.5,242.3z"/>
	<path class="st119" d="M325.4,234.9c0-1.3,0-2.5,0-3.8c11.1-0.6,18.8,7.4,28.1,11.4c0.6,1.9,1.3,3.7,1.9,5.6
		c1.7,3.5,1.2,6.3-2.6,8.1C346,246.1,332.1,245.2,325.4,234.9z"/>
	<path class="st109" d="M351.7,255.5c3.4-1.4,3.9-4.3,3.7-7.5c2.8,6,3,12.4,3.8,18.8c0,1.9,0,3.7,0,5.6c-3.3,5.5-1.7,13.8-9.4,16.9
		c-2.5,1.9-5,2.3-7.5,0c1.2-3.1,2.5-6.2,3.7-9.3c0.2-2.2,1.8-3.8,2.9-5.6c2.8-3.6,4.4-7.4,2.1-12
		C349.9,260.2,349.5,257.6,351.7,255.5z"/>
	<path class="st120" d="M304.8,334.2c-4.3,0-8.7,0-13,0c-0.4-5,7.3-2.9,6.8-7.9c0-1.3,0,0.3,0-0.9c0.3-6.8,1.3-15.1-7.2-16.8
		c-7.1-1.4-12.5,4-15.3,10.9c-1.7,2.5-2.5,5.6-5.2,7.5c-3.7-0.3-3.8-2.9-3.5-5.7c5.6-4,6.6-11.6,13-15.3
		c13.2-7.7,20.8-4.6,22.6,10.2c0.1,1.1,1.1,2.1,1.7,3.2c0.1,1.6,0.4,3,1.9,3.9C309.2,327.4,309.2,331.2,304.8,334.2z"/>
	<path class="st108" d="M342.3,289.3c2.5,0,5,0,7.5,0c-3.7,8-8,9.8-14.9,5.5c-4.9-3-9.7-6.4-13.2-11.2
		C329.3,282.8,334.8,289.7,342.3,289.3z"/>
	<path class="st121" d="M301,326.9c1.2,7.9-7,3.9-9.3,7.3c-4.4,0-8.7,0.3-13.1,0c-4.3-0.3-8-1.8-7.7-7.3c0-3.2,0.4-6.1,3.8-7.6
		c4.9,2.9,10.2,4.2,15.9,4.3C294.3,323.8,298.2,324,301,326.9z"/>
	<path class="st122" d="M351.7,255.5c0.5,7,7.3,14.5-1.8,20.6c-2.1-1.3-2.8-3.3-2.9-5.6c0.2-4.5,2-9.3-2-13.1
		c-0.9-0.9-1.6-1.9-2.2-2.9c-1.1-2.7-3.1-4.5-5.8-5.6c-5.1-4.5-11.8,0.8-17-2.8c-5.2-7.1,2.7-8,5.4-11.3c7.2,3.1,12.6,9.4,21,10.7
		C350.5,246.3,348.3,253,351.7,255.5z"/>
	<path class="st123" d="M320,246.2c6.3-0.6,12.9-4.6,18.5,1.8c-2,2.5-5,1.9-7.7,2.5c-7.7,1.6-9.3,6.4-4.5,12.8
		c3.8,5.1,10.3,6.8,14.6,11.4c-1.3,4.3-4.5,4.3-8,3.5c-4.5-4.2-9.9-7.1-13.8-12.1C313.2,258.6,316.4,252.6,320,246.2z"/>
	<path class="st124" d="M332.9,278.1c2.6-1.2,5.3-2.4,7.9-3.6c1.3-3.4,3.3-5.3,7.2-3.4c0.7,1.7,1.3,3.3,2,5
		c-1.3,1.3-2.5,2.6-3.8,3.8C341.7,278.9,336.3,285.2,332.9,278.1z"/>
	<path class="st125" d="M274.8,242.5c5,2.6,3.5,7.2,3.4,11.3c-3.1,1.6-5.5,5.6-9.8,2c-3.7-3.1-3.3-6.3-1.1-9.9
		c1.1-1.8,0.7-3.5,0-5.3C269.8,241.2,272.3,241.9,274.8,242.5z"/>
	<path class="st126" d="M301,326.9c-6.5-0.6-13-1.3-19.5-1.8c-3.7-0.3-6.5-1.5-6.8-5.8c1.5-6.8,11.1-16.1,16.3-14.5
		c7.5,2.3,11,8.4,10.1,16.5C300.9,323.2,301,325.1,301,326.9z"/>
	<path class="st127" d="M347.9,271.2c-2.4,1.1-4.8,2.3-7.2,3.4c-7.1-0.4-11.7-5-16.2-9.7c-2.9-3-4.6-6.6-2.9-10.9
		c1.9-4.6,5.5-6.4,10.4-6c2.2,0.2,4.3,0,6.5,0c3.9,0.3,5.8,2.4,5.8,6.2c-3.6,2.4-6.4-0.8-9.6-1.2c-1.9,0-4.5-1.6-5.2,1.3
		c-0.8,3.5,2.9,3.8,4.8,5.4c6.3,5.3,6.3,5.3,11.4-4.1C352.1,259.9,350.4,265.5,347.9,271.2z"/>
	<path class="st128" d="M345.7,255.5c-0.4,1.5-1.6,3.8-1.1,4.2c4.3,3.6,0.7,5.1-1.7,6.8c-3,2.1-5.1,1.1-6.7-2
		c-0.7-1.3-2.1-2.2-3.2-3.3c-2-3.7-5.3-7.6,1.8-9.5c3.9-2,6,3.1,9.5,2.6C344.8,254.7,345.2,255.1,345.7,255.5z"/>
	<path class="st129" d="M334.8,251.6c-3.7,2.6-2.1,6.2-1.8,9.5c-3.6-1.6-8.3-3-6.4-8.3C328.1,248.8,331.6,249.2,334.8,251.6z"/>
</g>
</svg>
