<svg xmlns="http://www.w3.org/2000/svg" viewBox="0 0 480 548.72"><defs><linearGradient id="a" x1="26.77" y1="433.52" x2="140.72" y2="529.14" gradientUnits="userSpaceOnUse"><stop offset="0" stop-color="#6ab42d"/><stop offset=".12" stop-color="#66ae2b"/><stop offset=".29" stop-color="#5c9c27"/><stop offset=".49" stop-color="#4a8020"/><stop offset=".5" stop-color="#497e1f"/><stop offset=".59" stop-color="#549024"/><stop offset=".73" stop-color="#60a429"/><stop offset=".86" stop-color="#68b02c"/><stop offset="1" stop-color="#6ab42d"/></linearGradient><linearGradient id="b" x1="4.98" y1="240.26" x2="168.07" y2="240.26" gradientUnits="userSpaceOnUse"><stop offset="0" stop-color="#ffd500"/><stop offset=".5" stop-color="#ffd600"/><stop offset="1" stop-color="#ffd400"/></linearGradient><linearGradient id="c" x1="236.28" y1="223.84" x2="338.59" y2="271.54" gradientUnits="userSpaceOnUse"><stop offset="0" stop-color="#ffce00"/><stop offset=".5" stop-color="#fdc100"/><stop offset="1" stop-color="#ffd000"/></linearGradient><linearGradient id="d" x1="239.09" y1="321.91" x2="239.09" y2="5" gradientUnits="userSpaceOnUse"><stop offset="0" stop-color="#803978"/><stop offset=".5" stop-color="#8c347c"/><stop offset="1" stop-color="#8e317f"/></linearGradient><linearGradient id="e" x1="226.24" y1="278.77" x2="324.21" y2="395.53" gradientUnits="userSpaceOnUse"><stop offset="0" stop-color="#ffde00"/><stop offset=".5" stop-color="#ffd600"/><stop offset="1" stop-color="#ffde00"/></linearGradient><linearGradient id="f" x1="55.12" y1="290.36" x2="214.3" y2="318.42" gradientUnits="userSpaceOnUse"><stop offset="0" stop-color="#ffe400"/><stop offset=".5" stop-color="#ffdf00"/><stop offset="1" stop-color="#ffe400"/></linearGradient></defs><path d="M49 407s13.37 60.57-4.66 98.82l9.66 37.9s30.69-51.89 60.12-54.2 69.58-11.62 69.58-11.62S66.47 449.32 49 407z" fill="url(#a)"/><path d="M58.84 8.66c44.82 18.19 93.08 65.74 103.92 108.84 19.3 76.71-20.27 197-20.27 197s-16 170.29-48.18 156.54C64.67 458.36 33.74 401.8 19.38 367.9-42 223.06 116.31 109.93 58.84 8.66z" fill="url(#b)"/><path d="M425.78 84.55C379 72.39 326 96.53 302.37 127.4 304.05 222.29 257 295.31 257 295.31s-133.65 111-99.65 119.14c31.35 7.52 57.46 5.62 85.6-18.11 119.85-101.03 91.9-252.12 182.83-311.79z" fill="url(#c)"/><path d="M243.17 17.92c-26.46-38.55-10.53 10.56-73.61 128.69-9.47 17.74 34.1 81.82 34.1 81.82l8.69 93.48 96.06-73.54s5.81-70.29-5.07-115.58c-9.86-41.11-30.54-71.7-60.17-114.87z" fill="url(#d)"/><path d="M196.55 120.83C219 108.08 230.47 102 230.47 102l4.07 8.28z" fill="#010101"/><path d="M268.73 109.93l21.34 15.14-24.13-7.57 2.79-7.57z"/><ellipse cx="272.84" cy="152.59" rx="5.17" ry="13.7" fill="#010101"/><path d="M229.6 151c0 8.45-3.14 15.29-7 15.29s-5.86-6.84-5.86-15.29 2-15.28 5.86-15.28 7 6.83 7 15.28zm43.97 45.18c0 3.58-15.82 28.92-24.32 28.92s-19.65-23-19.65-26.6 10.37 1.18 23.15 1.18 20.82-7.09 20.82-3.5z"/><path d="M475 254.49c-38.16-22.64-104.64-66.26-164.15-34.49-69.8 37.22-143.31 112.1-143.31 112.1s-64.33 99.84-51.77 132.47c15.38 40 75.69 23.18 110 9.82 60.09-23.46 146.1-225.08 249.23-219.9z" fill="url(#e)"/><path d="M86.93 109.93c40.89 4.5 111.52 35.73 124.21 96.24 16.24 77.42-13.4 200.83-13.4 200.83s-14.29 71.87-48.28 80.07c-41.63 10.05-84.76-19-93.12-54.87-19.17-82.1 88.5-265.92 30.59-322.27z" fill="url(#f)"/><path d="M230.35 5c3.05 0 6.86 4.24 12.82 12.92 28.7 41.82 49 71.84 59.21 111v-1.55c19.34-25.29 58.4-46.06 97.63-46.06a102.31 102.31 0 0 1 25.78 3.21c-41.23 27.06-58 72.92-75.23 124.39 1.94-.1 3.88-.16 5.82-.16 45.54 0 90 28.75 118.63 45.71-1.31-.07-2.61-.1-3.91-.1-101.39 0-186 196.84-245.33 220-18.24 7.1-43.82 15.17-66.1 15.17a72.24 72.24 0 0 1-14.95-1.44 72.51 72.51 0 0 1-12.24 1 74.26 74.26 0 0 1-8.84-.53c-3.24.38-6.42.69-9.49.93C84.71 491.83 54 543.72 54 543.72l-9.69-37.86c11.07-23.48 10.3-55.36 8.06-76.49-13.78-20.42-25.6-43.95-33-61.44-61.37-144.87 96.94-258 39.47-359.27 44.82 18.19 93.08 65.74 103.92 108.84a170.07 170.07 0 0 1 4.16 24.63c1.21.89 2.4 1.79 3.58 2.72C218.44 54.46 219.94 5 230.35 5m0-5c-6.28 0-9.24 6.69-10.51 9.55-2 4.6-4.08 11-6.9 19.91-6.83 21.55-18 56.75-42.05 103.8a165.57 165.57 0 0 0-3.28-17c-5.34-21.24-19.72-44.69-40.49-66-20-20.54-43.57-37-66.39-46.22a5 5 0 0 0-1.88-.37 5 5 0 0 0-4.35 7.47c11.84 20.87 14.92 43.43 9.7 71-4.76 25.13-15.78 51.31-27.45 79-13.12 31.17-26.7 63.41-33.09 98C-3.66 298.73 0 335 14.77 369.88c4.28 10.11 16 36.11 32.78 61.24 3.87 38.17-2 60.54-7.74 72.61a5 5 0 0 0-.32 3.37l9.68 37.9a5 5 0 0 0 4.14 3.71 5.65 5.65 0 0 0 .71.05 5 5 0 0 0 4.3-2.46c8.18-13.81 34.22-50 56.22-51.75 2.82-.22 5.87-.52 9.09-.89a79.51 79.51 0 0 0 8.84.5 78.26 78.26 0 0 0 12.15-.95 78.69 78.69 0 0 0 15 1.35c12.81 0 35-2.69 67.91-15.51 24.51-9.55 51.54-45.1 82.84-86.25 23-30.32 49.17-64.67 76.39-90.44 30.53-28.89 58.1-42.93 84.29-42.93 1.22 0 2.45 0 3.66.09h.29a5 5 0 0 0 2.54-9.3q-3.06-1.81-6.35-3.8c-28.08-16.81-70.39-42.14-113.65-42.6 7.72-22.83 15.7-44.76 26-63.82 12.42-23 26.71-39.26 45-51.24a5 5 0 0 0-1.49-9 107.42 107.42 0 0 0-27-3.37c-19.44 0-39.66 4.86-58.47 14C327 97.5 314 106.93 304.26 117.44c-11.42-36-31.77-65.64-57-102.35C240.43 5.08 235.92 0 230.35 0z" fill="#1d1d1b"/></svg>