<svg id="Laag_1" xmlns="http://www.w3.org/2000/svg" viewBox="0 0 566.9 566.9"><style>.st15{fill:#64060f}.st29{fill:#5e020e}.st33{fill:#750f1c}.st37{fill:#641623}.st39{fill:#720514}.st47{fill:#5a010a}.st51{fill:#440206}.st73{fill:#490208}.st79{fill:#530208}.st84{fill:#710515}.st85{fill:#510106}.st88{fill:#67101c}.st89{fill:#410105}.st91{fill:#951129}.st93{fill:#3c0205}.st95{fill:#330102}.st98{fill:#3a0101}.st99{fill:#610101}.st103{fill:#780607}.st108{fill:#820e12}.st109{fill:#8e0e10}.st110{fill:#800b0d}.st118{fill:#3b0b0b}</style><path d="M31 368c-4.7-2.9-7.2-7.1-7.8-12.5-4.5-13.4-6.4-27-1.9-40.9.3-.9 1-1.9.8-2.7-4.1-15.4-.5-32.1-7.6-47.1 2.3-14 5.2-28 6.6-42 1-9.8 4-20.1 8.7-26.7 5.3-7.5 10.4-18.3 21.7-20.7 3 .7 5.7 2.2 8.8 2.8 4.1.8 5.6 3.4 4.9 7.4.3 2.6-1 6.2 3.1 6.6 3 .3 5.4-1.8 6.3-4.7 1.8-5.4 3.9-10.6 7.7-14.8 5.5-6.1 9.6-5.8 14.1.8.7 1 1.2 2.2 1.9 3.2 8.4 12.2 8.1 12-.1 25-4.9 7.6-9.9 15-16.5 21.2-2.9 2.7-5.7 4.8-9.7 4.7-.9.2-2.3.1-2.6.8-4.2 7.6-8.9 8.2-14.8-.4-1.5 9.3-.6 17.1-1.3 24.8-1.1 12.6-5 24.4-7.6 36.6-1.2 5.6-4.5 10.2-8.2 14.6-5.3 6.2-4.8 11.9-.9 19.5 5.9 11.7 8.2 24.7 3.3 37.8-1.3 3.5-4.1 5.4-7.5 6.5-.5.1-1 .1-1.4.2z" fill="#6f0411"/><path d="M513.1 347.1c-3.6 5.6 2.8 10.1 1.7 15.4-3 2.5-5.8 1.1-8.5-.7-15.3-14.8-23.9-7.2-28.1 6.2-6.2 20-21.3 33.5-30.4 51-2.9 5.5-8.5 7-14.3 7.6-12.5 1.4-24.9-1.1-37.3-2.3-6.1-.6-9.1-5-9.4-11.1.4-6.4 2.6-12.2 4.7-18.2 6.7-5.6 12.8-.6 17.4 2.7 7.6 5.5 12.6 4.4 17.4-2.9 2.3-2.6 4.5-5.2 7.2-7.3 4.8-3.6 6.6-9.5 10.5-13.7 9.5-13 14.4-28.5 22.1-42.5 5.6-10.4 9.6-21.6 16.5-31.3 3-.6 4.6 1.4 6.1 3.3 9.6 11.8 15.8 25.9 24.4 38.3 1.3 1.8 1.5 3.8 0 5.5z" fill="#4f0106"/><path d="M186.8 533.1c-4.2-1.9-7.1-5.3-9.7-8.9-1.2-2.1-1.6-4.3-.1-6.5 4.9-2.5 4.8-9.2 9.8-11.7 15.7 10 33.7 10.9 51.3 13.7 13.4 2.1 25.7-.9 38.3-4.4 6.8-1.9 13.1-4 17.3-10 2.8-3.9 7.4-4.2 11.5-5.5 5.8-.9 7.1-8.8 13.5-8.7 4.1 7.4 2.6 10.6-6.6 13.6 16-.3 28.2 7 39.4 16.7 2.4 2.1 4.3 4.6 4.1 8.1-5.2 4.3-11.7 5.2-18 6.2-10.4 1.7-19.4 7.9-29.9 9-20.5.5-40.9.8-61.4-.3-16.4-.8-31.6-4.6-47.2-8.4-.9-.2-1.9-.2-2.8-.3-3.3-.8-6.6-.8-9.5-2.6z" fill="#79081a"/><path d="M340.8 37.7c20.3-4.5 40.3-3 59.9 3.6.5 4.5-3.3 4.4-5.9 5.7-4.1 1.1-8-.1-11.9-1.3-11-3.4-22.3-.2-33.4-1-4-.3-3.8 3.3-2.2 6.1 2.1 3.6 5.4 6 8.8 8.1 14.5 8.9 22.5 21.9 24 38.9 1 11.5 2.1 22.9 3.5 34.3.4 3.7 1 7.6-3.1 10-7.9-.2-15.3-2.3-22.2-6.3-5.7-5.6-6.9-11.5-3.5-19.4 3.8-8.8 3.3-17.4-5.2-24.4-4.8-3.9-8.1-9.4-12.4-13.9-1.5-1.6-2.8-3.5-5.4-2.8-1.8.4-3.7.6-5.5.4-1.5-.2-3-.7-4.3-1.4-1.3-.9-2.7-1.5-4.3-1.7-24.8-3-49.5-5.3-74.5-2.7-4.7 1.1-9.5 5.7-14.2 0-.5-1.6-.3-3.1.9-4.3 14.4-4.4 29.7-5.7 43.5-12.4 5.5-1 11-.9 16.5-.2 14.7 3 30.1 2.9 43.4 11.4-8.4-5-17.7-7.1-27-9.4-.2-1.7.3-3.4 1.7-4 10.7-5 20.6-12 32.8-13.3z" fill="#550206"/><path d="M513.1 347.1c-9.6-15.8-17.2-32.7-30-46.4-1.6-5.7-1.3-11.3.9-16.9.8-1 1.7-1.9 2.9-2.2 16.4-3.2 32.9-5.4 49.3-7.9 7.2-1.1 12.7 4.9 13.7 12.5.3 2.4.3 4.9 1.3 7.2.3 2-.3 3.8-1 5.6-1.7 4.1-3.1 8.1-1.9 12.7 1.1 4.2-.6 7.8-2.5 11.6-4 7.7-9.4 14.6-12.7 22.9-2.7 6.7-4.9 12.8.6 19-1.6 5.8-7.5 8.7-9.3 14.8-4.8-11.1-5-23.1-11.3-32.9z" fill="#810312"/><path d="M550.5 294.9c-1.2-2-3.5-2.9-3.5-6.1.2-10-5.5-15.5-14.6-12.8-15.5 4.7-31.6 5.1-47.4 7.6-1-.9-1.3-2-.9-3.2-.6.5-.1 1.1-.2 1.7-1.6 8.5 1.4 18.1-6.3 25-6.3-3.9-7.3-11.1-10.6-17-.8-4.8-.4-9.4 1.8-13.8 3.8-9.1 4.8-18.7 6-28.4.5-4 .6-8.1 3.5-11.4 3.6-2.6 7.7-2.4 10.3.5 9.6 10.7 21.9 8.6 33.1 5.8 9.5-2.4 17.5-2.3 25.7 2.4 1.2-.8 1.5 3.8 3.1.5 3.3 3.9 5.8 8.3 5.6 13.7.1 9.3-1.3 18.5-1.2 27.8.1 3 .7 7.2-4.4 7.7z" fill="#620410"/><path d="M340.8 37.7c-10.7 6.9-23.6 9.3-34 16.7-3 1.4-6-.1-9 .4-8.9-.5-17.8-2.7-26.6.5-13.9 5.3-28.3 8.3-42.8 10.7-3.4.6-6.7.8-10.1.1-8.2-4.1-17.4-3.3-26.1-5-3.1-.6-7.2.5-7.7-4.6 4.2-3.2 8.9-1.9 13.5-1.8-1.6-5.1 1.7-8.4 4.4-12 .8-1 1.8-1.7 2.9-2.3 15.3-4 29.8-10.4 45.4-13.4 13.4-2.6 26.6.5 39.9 1.2 11.4.6 22.9 2 33.4 7.3 4.7 2.4 9.8-.8 14.7.5.7.6 1.4 1.1 2.1 1.7z" fill="#76020c"/><path d="M72.1 225.5c9.5-1.1 12.4-10.2 18.2-15.6 2.7-2.5 4.2-7.3 6.8-10.8 2.9-3.9 5-8.4 7.4-12.6-6.3-3.6-8.7-10.2-12.6-15.7-2-2.8-5.5.1-7 2.1-3 3.9-6.8 7.7-7.1 12.9-.4 5.8-4.3 7.6-8.8 9.5-4 1.6-6 .8-6.3-3.5-.1-2.5 0-5 0-7.5 4.8-2.6 8.4-6.2 9.6-11.8.4-2.1 1.3-4.2 2.8-5.8 14.4-16.3 20.2-37.3 30.7-55.7l1.9-1.9c.7.6 1.3 1.3 1.6 2.2 1.7 6.8-1.4 12.7-3.7 18.8-1.6 4.3-6.9 9.5-1.4 13.2 5.2 3.5 10.6.3 14.2-5 1.1-1.6 2.2-4.1 5.1-2.3 1.5 2.3 1.4 4.7 1 7.2-2.4 8.8-3.1 17.7-3 26.8.1 12.9-2.9 24.8-12.5 34.2-4.9 4.8-5.7 11.7-8.7 17.5-4.9 9.5-10.8 13.3-19.1 11.6-4.2-1-8.8-2-9.1-7.8z" fill="#67010d"/><path d="M484.9 452.4c-3.8 7.9-10.5 13.6-15.3 20.7-6.4 1.2-12 5.7-19 4.7-10.1-9-24.1-9.9-35.1-16.9-2.8-1.8-5.9-.7-8.9.7-8.7 4-18.4 5.8-25.7 12.8-1.8 1.7-4.4 2.5-6.9 1-1.6-6.4 1.6-11.5 6.3-14.4 8.1-5.1 16.2-10.5 25.7-13.1 6.6-1.8 12.9-2 19 1.4 3.9 2.2 8.2 2.8 12.6 3 9.3.4 11.6-1.7 14.6-10.7 4-12.1 9.2-23.7 17-34 6.5-8.7 11.5-18.4 18.8-26.6 4.5-5.1 8.7-9.7 16.3-8.9 3.5.4 6-3.2 9.6-3.2 1 0 1.9.4 2.6 1.1.1 1.9.3 3.8.4 5.6-1.6 1.8-2.4 4.9-5.2 5.1-13.7 1-18.3 13-25.2 21.6-7.5 9.4-12.8 20.6-19.9 30.5-.3.5-.5.7-.5.8-3 5.2-2.9 17.6.5 18.3 6.5 1.4 11.4-2.7 15.1-7.3 3.9-4.8 7.2-10.2 10.5-15.5 1.8-3 3.9-5.7 6.9-7.5 3-1.9 5.3-1.9 5.8 2.4-4.7 10.8-11.5 20.2-20 28.4z" fill="#810516"/><path d="M503.7 424.4c-.7-4.7-2.6-1.9-4-.6-5.9 5.6-9.8 12.9-13.8 19.8-4 7.1-10.9 9-17.2 12.1-2.7 1.3-5.6-.3-5.7-3-.2-6.5-4.1-13 .7-19.7 11.7-16.6 21.8-34.4 34.8-50.1 1.9-2.3 4.5-3.7 7.4-3.4 4.4.4 7.8-1.6 11.2-3.9 1.6 9.1 1.2 17.8-4.3 25.7-4.9 7-1.2 16-5.4 23.1-1.4 1.1-2.5 1.2-3.7 0z" fill="#8d0316"/><path d="M94.4 482.7c-7.7-4.6-15.7-8.8-22.2-15.1-7.6-10.2-6.7-22-6.1-33.7.2-3-.4-6.9 3.5-7.7 3.5-.8 6.2 1.8 7.1 4.9 5.5 17.1 21.6 20.4 35.1 26.4 11.3 5 23.7 7 30.5 19.4 2.8 5.1 10 6 15 9.1 6 6.8 15.4 10.9 16.3 21.6-3.7 3.5-7.5 3.2-10.4-.7-12.7-17-33.3-17.7-50.7-25.1-4.2-1.7-8.5.1-12.5 2.1-2.1.4-3.9-.2-5.6-1.2z" fill="#760614"/><path d="M156.6 488.2c-7.4-4.8-16.2-6.3-21-16.6-3.1-6.8-14.7-8.2-22.7-11.5-15-6.3-32.8-9.2-38.2-28.5-.6-2.1-2.2-3.8-6.2-3.7 2.1 12.2-5.3 25.1 4.7 36.6.9 1 .1 2.3-1 3.1-11.3-11.8-14-27.2-16.7-42.3-1.6-8.8-1.5-18-2.1-27-4-5.4-4.1-12-5.1-18.2 2.6-8.3 5.8-16.3 8.8-24.5 1.1-3.2 1.5-10.5 8.8-6.5.8 1.9.8 3.9.3 5.9-3.1 6.4-2.3 12 1.6 18.4 5.6 9 3.8 20 4.8 30.1 1.9 19.3 9.3 34.5 27.4 43.5 9.8 4.9 19.7 9.5 30.3 12.2 8.1 2.1 15.2 5.2 18.6 13.9 1.7 4.4 6.5 6.7 8.6 11 .3 1.5.2 2.9-.9 4.1z" fill="#6c0613"/><path d="M374.2 475.1c10.2-4.7 18.9-12 30.1-15.2 5-1.4 8.5-3.5 13.3-.7 7.1 4.3 14.9 7.1 22.8 9.4 4.8 1.4 8.3 4 10.7 8.3-1.2 7-7.5 6.2-12.1 7.6-5.2 1.6-11.1.5-16 3.8-8.7.5-17.2-.2-24.8-5.2-1.6-1.1-2.9-.3-3.7 1.3-8.3 3.3-15.1-2.2-22.6-3.9-.9-.5-1.6-1.3-2.1-2.2-.2-3.3.9-4.9 4.4-3.2z" fill="#870d20"/><path d="M338.7 36c-6.6 3.2-12.6 4-20 .3-13.4-6.6-28.8-4.6-43.2-7-21.8-3.6-41.1 4.9-61 10.8-3 .9-6 1.6-9.1 1.5-2.8 1.8-4.6.7-5.9-2 4.2-5.7 10-8.7 16.5-11.4 30.8-13.2 61.9-12.4 93.3-2.6 9.8 3.2 20.7 3.8 29.4 10.4z" fill="#55040a"/><path d="M516.5 370h-1.6c-21.3-2.4-29.3 14.6-40 27.6-8.5 10.3-17.2 20.2-20.9 33.8-2.2 8-9.9 10.4-19.3 9.3-18.8-2.3-36.8-1.9-51.5 12.7-5.2 5.1-10.4 9.8-12.3 17.2-.8 3.1-1.7 6.3-6.2 5.1-7.4-8.6-7.6-14.7-.5-23 3.9-4.5 8.5-8.2 13.9-10.9 1.7-.8 3.7-1.2 5.1-2.4 13.6-10.9 28.6-13.5 45.6-10.2 9.6 1.9 16.9-2.9 20.4-12.5 1.1-3.2 2.7-6.3 5.2-8.8 12.8-12.4 22-27.8 33.6-41.3 5.4-6.3 11-10.2 19.4-6 2.3 1.2 4.7 2.2 7.4 1.9 1.7 2.2 2.4 4.7 1.7 7.5z" fill="#6b020d"/><path class="st15" d="M122.7 94.1c12.3-6.4 19.4-20.4 33.8-23.7 5.5 2.2 10.9-1.4 16.4-.2 4.1.8 8.2.8 9.3 5.9.1 3.7-3.8 5.3-4.6 8.5-8.7 8.7-20 14.2-27.7 24-1.1.6.5.4-.7.6-8.3 1.2-14.9 4.8-19.1 12.5-.7 1.4-3.1 2-4.7-.1-.5-1.2-.9-2.5-.4-3.6 3.8-8.5 3.4-16.5-2.3-23.9z"/><path d="M355.4 529.5c-11.2-13.8-25.6-21.7-43.8-23.2 2.5-4.9 11.3-6.8 6.2-14.4-1.4-8-5.5-14.8-9.3-21.8-2.9-5-8.9-8.4-7.9-15.4 4.8-3.8 10.2-3.3 15.6-2.3 3.6 9.5 2.5 20 7.3 29.4 2.6 5 5.3 8 10.7 8.8 7.7 1.2 15.1 3.3 21.8 7.6 9.9 9.4 10.7 13.8 5 27.7-1 2.4-3.3 2.9-5.6 3.6z" fill="#6b0511"/><path d="M394.8 45.4c2-1.4 3.9-2.7 5.9-4.1 8.5 6.3 19.2 7.4 28.3 12.4 8.9 4.9 17.1 10.8 22.1 19.4 9.6 16.4 24.1 29.7 31.1 47.7 5.9 15.1 13.9 29.7 13.9 46.6-.8.7-1.6.8-2.6.4-8.3-6.7-11.6-16.8-13.6-26-2.5-11.7-8.2-21.6-14.3-30.7-5.9-8.8-10.4-18.3-16.6-26.9-6.1-8.5-13.2-15.7-22.9-20.1-6.1-2.8-13.6-2.4-18.8-7.5-3.5-4.3-9.9-5.7-12.5-11.2z" fill="#65050e"/><path d="M494.3 167.4h1.9c.6 9.5 1 19.1-1.7 28.4-4.1-2-7.4-1.8-9.8 2.8-1.6 2.9-3.8 5.6-7.7 5.4-8.7-6.8-10-18.7-18.1-26-3-2.7-5.4-5.8-9.2-7.4-15-13.1-32.4-17.9-51.9-14.8-3.3.5-6.2 1.2-7.6-2.9-.1-1 0-1.9.4-2.9 5.3-5.8 12.1-3.8 18.4-3.4 21 1.3 40.5 8.4 59.9 16.1 3.3 1.3 6.3 3.2 8.1 6 4.6 7 9.2 6.1 14.3.7.8-.9 1.8-1.6 3-2z" fill="#6f0209"/><path d="M122.7 94.1c9.3 3.7 8.7 11.1 6.5 18.8-.9 3.2-3.1 6-2.7 9.5 3 5.6 1.3 9.8-3.8 13.1-3.4 7.7-8.2 12.7-17.6 11.4-5.8-.8-7.4-2.8-5.5-8.6 3-9 9.4-16.9 8.1-27.2 3-4.5 8.2-7.4 9.5-13.1 1.3-2.2 3.3-3.2 5.5-3.9z" fill="#76081a"/><path d="M550.6 245.7c-.3.8-.7 1.7-1 2.5l-.9-2.1c-7.7-3.3-15.5-6.1-24.1-4.2-6.7-2-11.3-7.5-17.6-10.4-5.6-2.5-10.4-6.8-17.1-7-3.4-.1-4.8-2.4-4.8-5.7 2.9-5.5 1.6-13.5 9.7-15.8 8.3 7.7 20.5 8.4 29.1 16.1 3.6 3.2 10 3.2 9.5 10.6 0 .6 6.7 4.1 9.9 6.9 3 2.6 6.9 4.5 7.3 9.1z" fill="#af2535"/><path d="M100.3 482.5c3.8-5.9 9.4-4.2 14.3-2.9 11.6 3.2 22.4 8.8 34.2 11.5 6.8 1.6 11.2 8 15.2 13.4 3.1 4.2 5.9 3.2 9.5 2.4 3.8-3.1 7.5-3 11.3.1 2.3 5.8-1.6 8.5-5.6 11.2-4.3-4-10.7-2.1-15.3-5.5-11.2-1.3-22.6-.3-33.5-4-2.5-2-4.1-4.5-4.6-7.8-2-12-6.6-16.2-18.5-16.9-2.5-.2-5.1.8-7-1.5z" fill="#7d1124"/><path d="M105.8 110.9c-.1 2.2.5 4.8-.6 6.4-9.8 15.6-13 34.8-26.7 48.3-2.5 2.5-4.1 5.4-4.6 8.9-.8 6.7-4.7 9.8-11.3 9.7 2.3-5-2.8-4.7-4.3-4.4-4.3.9-5.5-1.8-7-4.5 13.7-2.5 18.6-16 28.8-23 2.9-2 .8-7.5 3.2-11.1 7-10.6 13.6-21.3 22.5-30.3z" fill="#550811"/><path d="M361.1 525.9c.1-9.2 3.7-19.2-5.6-26.4 3.5-3.2 6.9-1.3 10.4-.1 2.9 1.1 5.9 3.1 8.5-.1 2.7-3.3 2.4-6.8.3-10.4-1.8-3-5.1-5.9-2.4-10 7.4 1.8 14.8 3.7 22.2 5.5 1.4 4.6-.4 8.3-3.1 11.9-8.8 11.3-18.5 21.5-30.3 29.6z" fill="#4e0811"/><path d="M533.9 364.9c-8.4-2.7-8.2-7.6-5-14.8 3.8-8.4 7.8-16.4 12.7-24.2 3.4-5.5 7.1-10.7 3.9-18-1.2-2.7.7-6.6 3.2-9.2 6.2 2.3 3.9 7.4 3.7 11.7-.5 10.8-4 21.1-5.6 31.8-2.2 8.7-6.7 16.2-12.9 22.7z" fill="#660713"/><path d="M196 533.3c5.2.8 11.2.1 15.4 2.6 18.2 10.5 38.6 5.1 57.7 7.5 12.2 1.5 25.6.2 38.5 1.4-19.4 6.3-39.3 2.8-59.1 3.3-6.8-3.8-14-1.3-21.1-1.4l-.8.2-.7-.5c-6.1-2-12.6-2-18.8-3.6-2.9.6-5-1.5-7.5-2.2-.8-2.7-4.6-3.8-3.6-7.3z" fill="#65121e"/><path d="M15.7 342.2C4.9 329 8.3 313.4 8.8 298.5c.3-8.2 3.1-16.2 4.8-24.4 7.5 3.2 5.1 10.4 5.9 15.9.8 5.5.3 11.2 2.9 16.4.3.6.7 1.2.5 1.8-4.1 11-3.3 23-7.2 34z" fill="#4c0f16"/><path d="M100.3 482.5c6.9-2.5 13.1-.3 19.4 2.3 6 2.5 10.4 6 8.3 13.3-1.3 4.2 2.4 6.9 2.4 10.6-9.5-3.6-19-6.7-25.4-15.7-2.8-4-7-6.9-10.6-10.3 1.9-.1 3.9-.1 5.9-.2z" fill="#722733"/><path d="M181 77.3c-3.6-9.2-11.3-3.6-17.1-4.4-2.8-.4-6.1 1.9-7.3-2.6 9-3.7 18.2-6.6 27.9-8.2 10.4-3 20.6-1.9 30.5 2.3.7 2.8-1.2 3.8-3.1 4.9-8.5 1.8-17.2 2.9-24.8 7.8-1.9 1.3-4.1 2-6.1.2z" fill="#4c0406"/><path class="st29" d="M15.7 342.2c-.3-9.9.5-19.6 4.2-29.1 3.3-8.3-2.8-15.9-3.1-24.2-.2-4.6 1.4-10.7-3.2-14.8.3-3.1.6-6.1.9-9.2 4.1-.2 5.4 2 5.2 5.8-.3 4.4 2.6 9 2.1 12.5-1.7 12.3 5.9 24.3.6 36.6-3.9 9.1 2.5 18.3.2 27.5-.6 2.5.4 5.4.7 8.2-3.8-3.8-6.2-8.3-7.6-13.3z"/><path d="M546.9 342.2c-2-3.8-1-7.1-.2-11.3 2.2-10.5 5.8-21.2 2-32.2 0-1.6.3-2.9 1.8-3.8 3.7-4.3 1.7-9.4 1.8-14.1.1-7.4 1-14.6 3.9-21.4 4.7 11.1 2.3 22.8 1.6 33.9-1.1 15.5-3.4 31.1-8.9 46-.5 1.2-.6 2.4-2 2.9z" fill="#4f0d19"/><path d="M494.8 203.1c-2.7 5.6-5.3 11.2-8 16.8-1.4 1.2-.4 3.6-2.2 4.5-1.3.5-2.6.4-3.8-.4-2.8-4.1-1.2-9.5-4-13.6-.4-.8-.6-1.7-.8-2.5-.2-1.9-.1-3.6 1.6-4.9 3.2-1.6 4.9-4.3 6.4-7.4 3.5-7.1 7.1-6.2 10.5.1.1 2.5.2 5 .3 7.4z" fill="#520406"/><path d="M423 488.3c3-4.9 8.1-5.1 12.9-5.7 5.6-.7 11-1.6 15.2-5.7 6.2-1 11.5-6.4 18.5-3.9-12.6 14-29 16.6-46.6 15.3z" fill="#731b24"/><path class="st33" d="M199.4 39.7c2 .7 4 1.3 5.9 2-1.2 1.7-3.2 3.4-3.5 5.3-1.7 11-9.4 10.4-17.4 9.5 3.4-7.1 9.3-11.9 15-16.8z"/><path d="M49.6 379.4c2.7 6 .7 13 3.7 18.9-1.1.3-2.1.5-3.2.8C49 385.5 35.9 379.3 31 368l.3-.2c9.1-.9 13.4 5.9 18.3 11.6z" fill="#4c1017"/><path d="M503.7 424.4h3.5c-4.3 11.8-8.9 23.4-22.3 27.9 6.3-9.3 12.5-18.6 18.8-27.9z" fill="#720c1a"/><path class="st33" d="M214.7 66.1c-9.4-6.7-20.2-2.6-30.3-4-.1-1.9-3.6-3.7 0-5.6 7 3.4 14.8 2.7 22.2 3.7 4.4.6 8.4 1.3 11.8 4 .7.8.9 1.6.7 2.6-1.8 2-3.6 3.6-4.4-.7z"/><path d="M163.8 512.7c3.7.1 7.3.5 11 .2 4.4-.3 4.2 2.5 4.3 5.3-2.3 1.5-1.8 3.9-2 6-4.4-3.8-8.8-7.6-13.3-11.5z" fill="#601221"/><path class="st37" d="M227.4 546.6c7.3-3.4 14.5-6.1 21.1 1.4-7.1-.1-14.2 1.9-21.1-1.4z"/><path class="st15" d="M117.3 98c2.8 8.7-5.7 9.2-9.5 13.1 0-.7 0-1.3-.1-2 2.8-4.1 5-8.6 9.6-11.1z"/><path class="st37" d="M196 533.3c1.9 2.1 4.5 3.7 3.8 7.2-4.6-1.9-9.3-3.7-12.9-7.3 3 0 6 0 9.1.1zM207.2 542.6c6.5 0 13.1-.8 18.8 3.6-6.6.6-13 .2-18.8-3.6z"/><path class="st29" d="M49.6 379.4c-7.1-2.3-10.8-10-18.3-11.6 9.2-7.7 10-16.9 7.3-28.2-1.6-7.1-1.7-13.7-7.3-19.8-2.9-3.1-2.2-11.1 2.4-15.2 12.3-11 12.1-26.7 15.6-40.8 2.5-10.4 3-21.5 2.3-32.4-.2-2.5-1.4-6.2 2.4-7.1 3.2-.7 3.6 2.8 4.9 4.8 1.2 1.8 2 3.9 4.8 4.6 2.5-2.9-1-12.8 8.5-8 12.4 9.7 20.6 7.8 26.7-6.7 3.1-7.4 5.9-14.5 11.8-20.6 6.9-7.1 8.3-17.1 8.4-27 .1-9.6-.8-19.2 3.8-28.2.5.4 1.1.8 1.2 1.4 1.1 17.7 4.4 35.8-3.3 52.5-6.5 14.2-12.2 28.7-18 43.2-6.2 15.6-9.3 16.3-22.7 5.8-1.9-1.5-3.6-3.5-6.1-4.2-3.1 8.6-3.1 8.6-9.9 8.3 3.8 29.4 2.6 58.7-2.2 88.7 4.1 0 6.9-5.3 10.4-1.6 2.6 4.3-.5 7.2-2.5 10.4-1.4 1.4-2.8 2.7-5 1.8-6.1 1.9-5.8 7.7-7.4 12.3-2.3 5.9-3.4 12.4-7.8 17.6z"/><path d="M479.3 236.9c-1.8 11-3.7 22-5.5 33-.5 3.2-1.3 6.1-3.8 8.2-4.9 5.5-2.5 12.2-3.3 18.3.2-2.4-1.3-5.2 1.4-7.1 4.2 5 6.9 10.9 9.3 16.9 1.1 5-1.4 8.4-4.6 11.7-2-2-2.9-3.6-1.1-5.7-.2 0-.3 0-1.1-.1 2.2 7.3-1.8 13.3-3.6 19.8-1.4 1.9-2.6 3.9-4.9 4.8-6.6-3-9.6-8.7-10.5-15.4-.5-3.8-1.6-5.9-5.7-5.4-7.7 1-13.2-2.3-16.8-9-4.9 3.1-5 7.6-5.8 11.9-1.3 7.4-4.7 13.6-10.7 18.1-5.1 3.8-8.4 9.2-12.7 13.7-8.4 8.8-6.5 18.4-2.9 27.9 3 7.9 8.6 12.8 18 11.7 5.4-.6 10.8.1 13.5 6-5.6 5.7-9.8 15.1-19.6 4.1-3.4-3.8-9.7-6.3-15.9-5.9-5.8-3-4-9.2-6.1-13.8-1.3-5.7-4.4-9.5-10.5-10.4-2.5-.4-5.1-1.4-6.3-3.6-4-7.2-12.7-10.8-14.9-19.4 2.8-2 5.3-1.1 7.9.5 2.2 1.6 4.4 3.3 6.7 4.8 2.2.8 4.8 5.4 6.6.9 4.2-10.8 14.4-16.3 21-24.9 6.5-8.3 10.3-17.8 15.7-26.5 13.9-22.1 13.9-44.5 3.7-67.7-.5-1.1-1-2.4-1-3.6 1.3-18.3 3.4-36.4 16.2-51 4-4.5 8.9-3.8 13.5-.7 2.9 2 5.1 4.8 6.1 8.1 3.9 11.6 13.4 19.5 18.7 30.1 2.2 4.4 6.7 2.5 9.4 4.9.3 2 1.5 3.7 1.7 5.7.6 3.3.2 6.4-2.1 9.1z" fill="#690413"/><path class="st39" d="M428.6 396.3c-4.4-2.2-8.6-5-13.9-3.7-11.6 2.8-17.5-4.9-20.1-13.4-2.5-8.1-7.5-17.3.8-26.1 5.9-6.3 9.9-14 17.4-19.1 5.2-3.5 8.1-9.5 8.2-16.1.1-4 1.6-7.2 3.4-10.5 1.2-2.3 2.3-4.7 5.3-4.4 3 .3 2.2 3.2 3 5.1 2.9 7.6 9.6 6.1 15.2 5.5 5.4-.6 7.6-.2 6.1 6.1-1.7 7.3 5 11.3 8.2 16.6-1 11.5-8 20.4-13.3 30-1.4 2.7-2.9 5.4-4.8 7.9-7.7.9-7-4.7-4.7-8.1 5-7.3 6.6-16.4 11.3-23.3 4.7-7-.5-7.4-3.5-10-3.9-3.3-7-3.3-9.9 1.5-7 11.5-19.4 19.8-20.8 34.7-.1.9-.6 1.8-.8 2.7-2.6 13 .2 12.5 9.5 9.2 8.5-3.1 10.6-.8 9.1 8.2-1.9 2.2-3.8 4.7-5.7 7.2z"/><path d="M507.4 360.6c-15.3-2.4-19.8 11.1-27.1 19.4-8.3 9.5-14.7 20.7-24.3 29.3-1.8 1.6-3.4 3.9-4 6.2-5.5 18.7-17.1 18-31.7 15.6-10.9-1.8-19.9-.8-28.7 6.4-5.2 4.2-12.2 6-17.9 9.8-12.7 8.4-14.5 14.6-8.9 27.8.1 2.1-.6 3.8-2.4 4.9-2.9 1.4-6.1 1.4-9.2 1-3.7-.5-4.6-2.2-6-6.2-3.3-9.7 3.8-18.2 1.5-27.3.3-3.4 3-4.5 5.7-5.3 14.3-4.5 24.6-13.4 31.2-26.9.7-1.4 1.7-2.5 3.6-2.1-.1 5.5 2.4 9.4 8.1 9.3 11.5-.2 22.8 3.1 34.4 2.1 7.3-.6 12.9-2.5 16.1-10.1 5-11.8 16.4-19.4 21.4-31.3 1.1-2.6 4.1-5.1 3.8-7.3-1.3-10 6.9-14.6 11.2-21.3 3.5-5.5 8.8-3.5 13.5-2.2 4.4 1 7.5 4.3 9.7 8.2z" fill="#5f020c"/><path d="M434.3 388.9c-.9-7.4-4.1-9.5-10.9-5.2-3.5 2.2-10.2 2.8-11.2.5-1.6-3.6.3-8.8 1-13.3 2-13.3 10.1-23.3 18.5-33.1 1.8-2.1 3.7-4 4.7-6.8 1.9-5.2 5.8-5.3 9.6-2.4 3.2 2.4 5.8 5.6 10 6.6.8.2 1.4 1.8 2 2.8-10.3 3.5-5.6 15.3-11.7 21.3-2 1.9-3.6 4.3-5 6.7-1.9 3.2-3.2 6.5 2.2 7.8 1.1.2 1.7.8 1.9 1.9-4.8 3.4-3.8 11.8-11.1 13.2z" fill="#7b0a1a"/><path d="M389.2 413.1c-7.2 18.2-21.9 27.7-39.4 33.9-6.2 6.9-14.4 6.1-22.5 5.6-9.2-1.2-18.3-.8-27.4 1.5-8.7 2.2-11.8.2-12.1-7.5 13.9-5.4 28.2-9.1 43.2-8.9 9.3.1 17.9-1.5 25.6-6.9 2.1-.9 4.4-1.1 6.6-.9 4.4 1.3 7.8-.2 10.5-3.8 7.3-7.3 8.1-15.2 3.2-24.4-4.2-7.8 3.9-21.8 12.2-22.3 1.3 5 2.5 10 3.8 15 .9 6.7-3.7 12.3-3.7 18.7z" fill="#811624"/><path d="M465.9 332.5c1-3.8 2.2-7.6 3-11.5.7-3.6.9-7.2 1.4-11 3.1 1 .3 4.5 2.6 5.9 2.5-2.7 3.9-6 4.6-9.7 5.7-10.2 6-21.4 4.4-34.6 4 4.8 2.5 8.7 3.2 12-.7 5.7.9 11.6-1.9 17-3.2 11.5-10.2 21.2-15.1 31.9-.8.8-1.5.8-2.2 0z" fill="#923240"/><path d="M465.9 332.5h2.2c-7.6 14.3-12.4 30.1-22.6 43.1-.6-.6-1.3-1.2-1.9-1.9 4.7-13.3 14.2-24.2 18.7-37.5 1.2-1.2 2.4-2.5 3.6-3.7z" fill="#7e2630"/><path d="M310.5 469.4c2.6 7.5 11.4 12.9 7.4 22.6-4.6 2.1-4.9 9.4-11.3 9.4-6.2.6-12.4 3.6-18.6.3-3.6-3-7.4-4.1-12-2-8.8 3.8-17 2.1-24.6-3.6-3.2-2.8-4.5-6-1.4-9.7 3.9-4.6 1.4-7.5-2.2-10.9-9.2-8.8-21.4-13.7-29.4-24.2-7.4-9.6-7-13.3 4.5-18.8 7.1.7 13.8 2.2 18.5 8.2-6.6 3.2-7.3 5.5-1.6 11.8 10.2 11.2 23.7 15.8 36.1 22.7 1.9 1.1 4 1.8 6 2.7 18.5 8.3 18.5 8.3 28.6-8.5z" fill="#4a0309"/><path d="M287.9 499.4c6 3.4 12.5 1.3 18.7 1.9-6.3 1.6-11.5 4.7-15.3 10.4-2.8 4.1-8.2 3.9-12.5 5.5-22.1 8.4-44.1 6.1-66.5.8-9.9-2.4-19.9-3.6-27.6-11-3.8 0-7.5 0-11.3-.1-4.8-6.9-11-12.7-16.9-18.7v-3.7c15.5 2.7 27.8 11.4 39.2 21.4 4.1 3.6 7.9 4.5 13.4 4.1 7.3-.5 14.6.1 22 2.8 15.6 5.8 30.6 1.3 45.2-4.6 1.2-.5 3.3-1.1 2-3.2-5.9-9.3 1.7-6.9 6.1-7 1.4-.1 2.5.7 3.5 1.4z" fill="#680514"/><path class="st47" d="M229.8 69.8c4.1 1.9 7.5-.4 11.1-1.9 15.6-1.3 31.2-2 46.7.5 2.7 4.6 2.1 6-3.6 7-4.6.9-9.3.6-13.6 2.9-3.5 1.8-4.1 3.7-.5 5.9 10.4 6.5 19.6 15.1 34 11.8 9-2.1 23.8 10.7 25.6 22.2 3.9 25.6 19.1 46.3 27.9 69.8 3.7 9.9 12.3 17.2 19.5 25 3.6 3.9 7.5 2.5 8.9-2.7.9-3.5-.6-6.7-1.3-10.1-2.5-11.4-.4-21.9 6.1-31.5 4.8 3.4 5.6 8.8 6.5 13.9 1.4 8.6 1.2 17.4.1 26-1.9 15.4-16.8 23.1-29 15.5-12.7-20.4-28.9-38.9-35-63-2.5-9.7-6-20.2-11.4-27.2-5.9-7.7-11.6-14.4-14.3-24-1.3-4.7-11-5.7-15.8-2.1-2.9 2.1-5.8 3.4-9.1 4.2-2.5 2.6-.3 4.8.8 6.8 4.5 7.9 1.9 14.5-3.8 20.3-6.9 7.1-15.1 12-25.1 13.7-20.7 3.6-35 15.2-43 34.7-2.8 6.9-6 13.7-8.7 20.7-1 2.6-1.9 5.5-4.2 7.3-14.3 11.6-21 27.1-25.3 44.5-2.9 11.7-5.1 23-1.2 34.7-1.8 3.4-4.5 5.5-8.4 3.9-3.3-1.4-3.8-4.8-4-7.9-.4-6.3-.4-12.5 1.2-18.6 3-11.8 5.4-23.7 8.5-35.4 11-14.8 20.8-30.3 24.9-48.7 1.5-6.5 5.1-12 8.9-17.4 4.5-6.4 8.4-13.1 11.1-20.5 3.2-8.5 9.3-12.6 18.4-13.5 8.6-.8 17.6-.7 25.4-5.3 3.1-1.8 7.6-3.4 6.7-8-1-4.7-5.7-4-9.3-4.2-14.2-.5-27.3 5.6-41.2 7.4-5 .7-10.1 2.7-11.9-4.6 1.4-5.6 6.3-6 10.8-7.2 5.9-1.5 12.3-.9 17.7-4.6 13.3-.2 26.2-4.9 39.6-3.9 2.2.2 4.6-.7 5.8.2-15.1-1.9-30.5 2.5-46 4-2.3 1.8-5 2-7.8 2.3-9.4 1.1-18.4 3.7-25.9 9.8-4.6-8-4-12.4 3-18.3 2.2-1.9 4.7-3.3 3.8-6.7-.8-3.5-3.8-2.1-6-2.8-9.3-3.3-1.8-7.1-.1-10.7 9.5-7.8 20.9-11.1 32.5-14.2z"/><path d="M494.3 167.4c-.4 6.2-6 7.5-9.9 10.2-3.3 2.4-4.9-.5-6.3-3.1-3.6-6.8-8.8-11-16.9-10.9-5 .1-7.9-4.8-12.2-6.2-17.3-6-35.3-8.2-53.6-8.5-1.4 0-2.9 1.1-4.3 1.7-6.2-.2-9.6-3.8-11.3-9.4 4.9-8.5-1.1-16.8-.4-25.4.6-7.8-2.3-15.9-3-23.9-1.4-14.5-10-23.7-21.7-30.7-4.4-2.7-7.8-6.2-11-10-2-2.4-1.8-5.2.1-7.8 1.8-2.5 4.2-4.1 7.1-1.9 4.2 3.2 8.6.6 12.6.1 10.9-1.3 20.9 2.8 31.3 3.9 4.8 2.5 9.8 4.8 13.1 9.4-8 .6-16 .3-23.7-1.7-5.7-1.4-10.8-.8-17.4 1.8 7.8 7.9 16.1 13.7 21 22.7 3.7 6.8 5.7 13.5 5.9 21.3.4 11.8-2 23.6 1.1 35.4 1.6 6.2 4.4 8.5 10.3 8.1 11.2-.7 22.5.3 33.7.7 11.5.4 22.6 4.4 33 9.7 2.2 1.1 3.8 3.4 6.5 3.3 1.7-1.2 1.2-3 .6-4.2-5.8-11.3-7.1-24.8-16-34.4-9.6-10.4-12.1-24.6-20.6-35.4-2.7-3.5-5.2-6.8-8.7-9.5-3.4-2.5-7.6-4.8-6.8-10.2 16.5 6.4 23.9 20.9 32.9 34.7 5.7 8.7 8.6 19.4 17.1 26.1 1.9 1.5 2.3 3.5 2.5 5.7 1.3 14.1 8.2 26.2 15 38.4z" fill="#740109"/><path d="M323.5 73.5c1.3 0 2.6.1 3.9.1 5.2 4.9 7.3 11 7.5 18.2.3 8.2.2 16.7 4.9 24 2.2 1.6 3.4 3.8 3.6 6.5-.7 5 3.2 6.8 6.4 9.1 5.5 4 12.5 4.9 18.2 8.5 3.2 7.9 7.5 14.9 13.4 21.2 7.3 7.8 4.6 14.6-5.7 16.5-12.3 2.3-23.4-3.7-31.1-19-6.2-12.3-13.8-23.8-14.7-38.8-.9-16-15.1-25.5-31.3-23.6-8.8 1-15.7-3-22.2-8.2-2.3-1.8-3.5-4.5-2.6-7.5 1-3.5 3.8-4.2 7-5.1 10.9-3.1 22.4-1 33.1-4.4 3.5-.6 6.9-.1 9.6 2.5z" fill="#70020e"/><path d="M342.3 122.3c-1.2-1.9-2.5-3.7-3.7-5.6-2.9-6-4.1-12.3-3.8-18.9.2-5.9.1-11.8-3.3-17.1-1.8-2.7-2-5.3 1.4-7 .3-1.4.7-4 2.5-1.9 6.8 8 13.8 15.6 20.9 23.3 5.6 6.1 4.6 15.2.8 22-3.7 6.8-2.2 11.5 2.1 16.5-9.6 2.2-13.2-4.6-16.9-11.3z" fill="#620209"/><path class="st51" d="M229.8 69.8c-1.4 1.5-3 4.5-4.3 4.4-10.4-.6-17.5 6.4-25.8 10.6-11.6 5.5-20.7 15.6-34 18.1-3.1.6-4.9 3.7-7.4 5.4-3.2 2.1-6.7 3.9-9.3-.9 6.9-11 18.9-16.2 28.2-24.3C187.1 75 198.5 70.3 211 68c1.2-.6 2.5-1.2 3.7-1.9 1.2 1.8 2.4 2 3.8.2 3.7-1.7 7.5-1.8 11.2 0 0 1.1.1 2.3.1 3.5z"/><path d="M342.3 122.3c5.9 3.4 8.6 11.5 16.9 11.3 6.2 4.4 14.2 3.8 20.7 7.5 3.8 3.1 7.5 6.2 11.3 9.4v2c-7.8 4-10.7-5.1-16.6-6.1-3.5-1.4-6-3.9-7.8-7.1-8-.9-15.5-3.2-21.8-8.3-2.8-2.2-6.8-4.3-2.7-8.7z" fill="#751720"/><path d="M323.5 73.5c-3.1-.5-6.3-1-9.4-1.5-8.2.7-16.6 2.2-24.4-2.1-16.2-3.7-32.6-1.4-48.9-2 12.1-4.1 24.5-1.8 36.8-1.8 13.6 0 27.2 2.2 40.8 3.4 2.5.3 5.2.4 5.1 4z" fill="#8a353e"/><path d="M299 53c2.6.5 5.2.9 7.8 1.4 12.2.5 22.6 5.8 33.6 11.3-4.5 4.4-8.5.4-9.9-.6-11-7.6-23.2-8.2-35.7-8.7-1.1 0-2.2-1-3.3-1.5 2.1-2.3 5.4.1 7.5-1.9z" fill="#78242b"/><path d="M332.9 73.7c-.4 1.2-1.6 2.8-1.2 3.4 7.9 12.3 3.2 26.7 6.9 39.6-4-5.6-5.7-9.6-5.6-16.7.2-9.3-2.1-17.9-5.7-26.4 1.9 0 3.7.1 5.6.1z" fill="#88202b"/><path d="M229.7 66.3h-11.2v-2.1c15.4.1 30.3-1.8 44.5-8.2 2.7-1.2 5.4-1.3 8.2-1.2.7-.8 1.4-.7 1.9.2-13.5 7.5-28.4 9.7-43.4 11.3z" fill="#832129"/><path d="M273.1 55c-.6-.1-1.3-.1-1.9-.2 9.1-4.2 18.6-.8 27.9-1.8-2 2.7-5 1.3-7.5 1.9-6.2.1-12.4.1-18.5.1z" fill="#9f3a43"/><path d="M479.3 236.9v-9.5c1.3-.9.5-3 2-3.8h3.5c11 10.7 24.5 15.6 39.6 16.9 8.5.2 17.4-1.4 24.3 5.7-1.6.7-2.7 4.5-5.1 1.3-5-6.7-11-4.8-17.7-3-7.1 1.9-14.6 3-22 3.3-4.9.2-9.8-1.9-13.1-6.1-3-3.7-6.7-5.7-11.5-4.8z" fill="#7b0712"/><path d="M468.1 289.3v12.3c-5.7-8-1.7-15.2-1.5-22.2.1-1.4 1.3-2.9 3.3-1.4-.6 3.8-1.2 7.6-1.8 11.3z" fill="#862431"/><path d="M149 107.3c3 2 5.5 1.1 8.4-.7 13.4-8.5 27-16.8 42.2-21.8-1.8 2.4-3.5 4.8-6.6 9.1 8.1-2.8 13.8-3.2 13.9 5.9 0 2.2.6 4.9-2.2 5.3-11.2 1.7-8.4 10.2-8.8 17.2-1 5.5-2.9 10-9.8 9.4-3.6-5.8.2-10.7 1.7-16 .9-3.4 3.6-7.5-1.4-9.8-4.3-2-6.6 1.2-9.2 4.2-10.7 12.3-15.6 26.8-17.8 42.6-3.2 7.3-8.3 13.1-13.9 18.6-6.4 6.3-10.1 14-13 22.4-5.5 15.9-11.2 31.6-12.8 48.5-6.9-2.3-10.7.2-11.6 7.4-.2 1.8-1.3 3.5-2.1 5.2-6.6 14.4-9 15.1-20.9 5.2-6.9-5.7-5.7-5.1-9.7 2.3-4.8 8.8-2.7 16.1 1.5 23.6 4.9 8.7 5.7 17.5 2.9 26.9-1.4 4.8-1.3 9.7-.8 14.8.5 5 0 10.1-6.9 10.6-4.4-2.6-5 1.5-6.8 3.7-1.1 1.3-2.2 3.4-4.5 2.2-1.9-1-2.2-3.2-1.6-5 3.4-11.1.2-23 4.6-34 1.4-3.5 1.7-8.4.6-11.9-4.5-13.4 2.6-27.7-3.3-40.9-1-2.3-.8-5.5 1.4-8.3 3.5-.1 3 4.4 6.1 5.2 3.7-3.5 0-8.8 3-13.2 5.3 4.4 10.4 8.8 15.7 12.9 3.5 2.7 7.2 4.3 9.6-1.6 8-19.4 17.5-38.4 23.7-58.4 4.5-14.6 2.1-30.6 2.2-45.9v-7.5c1.7-4.2 3.7-8.4 3.8-13.1 1.2-.9 2.7-1.6 3.5-2.8 3.9-5.7 5-15.5 15.9-10.3.6.2 2-1.3 3-2z" fill="#500208"/><path d="M363 478.8c0-1.5.4-2.9 1.9-3.7 1.1-.6 2.9-1 3-1.7 3.4-19.3 18.9-27.2 34-34.1 10.2-4.6 22.3-2.7 33.2-.8 9.3 1.6 16.1-1.8 17.5-9.5 2.8-15.1 13.9-24 22.4-34.8 3.5-4.4 6.9-8.8 10.1-13.4 8-11.6 15.6-14.3 29.8-10.8-4.7 1.7-8.1 6.3-14.4 4.3-2.8-.9-5.9 2.3-8.2 5.1-14.1 17.3-26.2 35.9-36 56-.4.8-.9 1.6-1.2 2.5-5.7 18.7-13.8 21.9-32.4 12.8-2.2-1.1-4.7-1.7-7.1-1.8-13.9-.8-36.3 13.5-41.4 26.2-2.4.1-3.7 1.3-3.8 3.7-2.4 2.2-4.9 2.2-7.4 0z" fill="#760312"/><path d="M64.7 349.4c1.2-.6 2.5-1.3 3.7-1.9 8.9 3.9 13.9 2.6 21.3-5.1 4.1-4.3 7.1-12.3 14.5-8.9 7.2 3.4 3.2 10.9 2.8 16.8-.1.9-.2 1.9.9 3.2 2.9-2.2 4.5-5.7 7.3-7.9 2.9-4 4.8-8.3 4.7-13.5 0-3.2 1-7 5.9-4.4 2 4.3 1.5 8.7.7 13.1-2.6 7.6-7.5 14.3-10.9 21.3-7.1 14.9-18.8 29.2-12.6 47.9 1.6 4.7 2.5 9.6 5.5 13.8 1.1 1.5 3.2 3.2 2.9 4.7-2.9 15.6 12.2 14.6 19.4 19.8 8.9 6.4 20.3 9.4 32 8.4 6.2-.6 9.9 3.4 13.2 7.6 4.6 5.9 9 12 12.4 18.7 7 13.4 16 23.1 33 19.9 3-.6 6.2-.2 9.2.9 8.2 3.4 13.1-2.4 18.5-6.8 2.7-.1 4.9 1.1 7 2.4 6.2 3.8 6.2 8.6-.3 11.8-6.5 3.2-13.9 5.7-20.8 2.6-8.4-3.8-16.9-4.2-25.5-3.6-8.8.6-15-3.6-20.5-9.2-9.2-9.4-20.5-16.5-30-25.1-13.5-12.3-29.7-16.1-45.6-22.2-29.3-11.2-39.8-34.3-42.3-63.8-.4-4.5 2-8.4 3.7-12.5 2.6-6.1 2.4-10.8-5.1-13.3-3.9-1.3-7.4-3.8-5.3-9 .2-2 .3-3.9.3-5.7z" fill="#540109"/><path d="M64.6 355c.5 4.3 2.9 6.9 7.1 7.4 9.5 1.1 9.5 7.6 6.5 13.6-9.6 19.1-1.5 35.2 7.1 51.5 8.6 16.2 23.6 22 39.9 27.4 11.6 3.8 22.9 7.7 33 17.4 9.4 9.1 22.4 15.4 31.2 25.9 4.1 4.9 8.8 9.2 14.2 9.4 13.2.5 26.2 1.3 38.9 4.9 1.3.4 3-.5 4.5-1 4.3-1.3 11-.7 11.6-5.9.6-5.5-6.7-5.3-10.1-8-.9-.3-1.7-.8-2.2-1.6 0-.5-.1-.9-.1-1.4 1.7-2.6 3.8-2 6-.8 7.5 5.7 15.3 7.6 24.3 3.1 4.1-2.1 8.5-2.5 11.4 2.5-3.3.4-6.8-.8-10 1-.4 1.6.3 2.3 1.7 2.7 1.9.6 5-.9 5.4 2.2.4 2.8-2.4 3-4.4 3.8-17.9 7.4-35.8 13.6-55.1 4-4.3-2.1-10.5-1.9-14.5-.9-8.6 2.1-13.6-1.7-19.4-6.3-8.1-6.4-15.1-14.5-26.4-15.9-3-.4-5.7-3.5-8.5-5.4-5.3-3.9-10.3-7.9-12.2-14.7-1.2-4.1-4.9-5.2-8.7-6.2-14.4-4-28.3-9.5-41.4-16.7-15.6-8.5-21.8-22.9-23.9-39.5-1.2-9.2-1.4-18.5-2-27.8-.2-2.7-1.7-4.6-3.5-6.4-6.1-6.1-5.6-12.2-.4-18.3z" fill="#620310"/><path d="M363 478.8h7.5c.6 0 1.2.1 1.8.2.4 3.5 2 6.6 4.5 9 5.4 5.1 1.7 9.9-.9 14.2-2.8 4.7-6.6 1.5-9.7-.1-3.4-1.8-6.9-2.9-10.7-2.5-5-1.8-9.8-3.9-14.9-5.2-5.6-1.4-14.1 0-16.1-4.7-3.6-8.3-9.1-16.4-8.5-26.2.2-3.4.1-6.9.1-10.3 3.2-2.7 7.2-2.3 11-2.6 7.9.9 15.4-1 22.8-3.5 3 3.9 5.4 7.5.4 11.9-6.4 5.7 3.3 12.7-.9 18.9 4.4 2 9 .5 13.6.9z" fill="#4b0205"/><path d="M211 67.9c-11.7 4-22.8 9.5-33.8 15.1-2.3-4.2 3.5-3.1 3.7-5.7 9.7-4.4 18.8-10.3 30.1-9.4z" fill="#651a1e"/><path d="M310.5 469.4c.8 6.1-3 10.6-5.5 15.4-1.8 3.5-5 3.6-8.9 1.9C280 480 264.5 472 249 464.1c-7.4-3.8-10-12.6-17.8-16.1-2.7-1.2-1.3-4.9 1.3-5.8 2.5-.9 5.5-.6 8.3-.8 6.6-2.8 13.4.2 20-.6 5 .5 9.6 2.4 14.1 4.5 8.6 3.9 16.7 9.1 26.2 11 3.1 4.3 6.3 8.7 9.4 13.1z" fill="#310203"/><path d="M301.1 456.2c-11 .7-19.6-5.8-29.2-9.5-3.4-1.3-6.8-2.5-10.3-3.8-1.4-1-3.7-.6-4.3-2.7-.1-.9.1-1.8.4-2.7 2.7-5.5 7.1-6.3 12.6-4.9 7.8 2 14.1 6.2 19.9 11.6.5.9.4 1.8-.3 2.6-2.9 6.8 3 5.6 5.7 5.4 8.3-.5 16.5-1.7 24.7-2.8 2.5-.3 4.8-1.3 6.9 1-3.2 2.7-7.3 1.7-11 2.6-4.7 2.9-10.7-.7-15.1 3.2z" fill="#9a2e48"/><path d="M426.8 62.3c5.9 8.6 16.3 13 20.9 22.6.6 1.3 2.8 2.2 2.9 3.4 2.1 15.1 15 24.2 20.5 37.1 4.2 9.9 9.6 19.8 11.5 30.6.3 1.4.2 3.6-.7 4.3-2.1 1.8-4.3-.1-5.8-1.3-5.1-4.1-10.8-6.6-17.1-8.9-18.3-6.9-37.1-4.8-55.8-5.2-6.6-.1-9.1-1.7-10.9-9-2.5-10.6-1.8-21-1.1-31.3 1.5-19.8-8-33.1-22.6-44.1-2.5-1.9-5.9-3.4-5.3-6.9.7-3.9 4.5-2.2 7.1-2.6 12.8-2.2 25.2.7 37.5 3.8 5.3 5.1 13.2 3.6 18.9 7.5z" fill="#84010d"/><path d="M374.2 144.8c7.4-1.3 9.5 9 16.9 7.7 2.5 5.5 5-.2 7.4-.2 19.5-.3 38.1 1.9 52.5 16.9 11.2 11.5 20.4 24.4 26.3 39.4l-.1-.1c1.3 4.3 4.8 8.3 1.6 13.1-4.1 2.6-6.6 4.8-10-2.3-6-12.4-16.1-22.3-21.6-35.4-3.4-8.1-11.2-6.9-15.7 1.2-2.9 5.2-6.4 10-9.1 15.2-2.1 4.1-4.3 8.5-1 13.2 1.2 1.7 1.2 3.6-.3 5.1-5.8 6.2-3.6 12.6-.6 19.1 6.1 13.1 6.5 27.2 5.9 41.2-.3 7.4-7.2 12-9.5 18.9-6.1 18-16.4 33.3-31 45.8-4.6 3.9-9.3 8.5-6.4 16.6-5.6-.8-8.9-3-11.1-7.1 10.9-15.4 22.4-30.4 33.1-46 6.9-10 4.5-21.1 2.7-31.5-1.3-7.9-2.2-14.4 4.1-20.5 2.9-2.8 3.2-6.9 1.2-10.5-2.7-5-2.6-10.1-2.3-15.4-.9-8.7 3.4-16.3 5.6-24.3 1.7-6.2 2-12.3-2-17.8-1.3-1.8-3.1-3.5-5.4-3-2.8.5-2.5 3.2-2.6 5.3-.2 3.7-1.5 7.4-1.3 11.1.9 12.8-4.6 22.8-13.1 31.5-3.6 3.9-7.2 8.4-13.1 4.2-4.8-3.4-10.9-6.6-6.9-14.4 9.4 7.4 23.9 2 25.5-11.2 1.7-13.8 3.4-28.4-4.9-41.4-6.7-4.5-10.8-11.4-15.3-17.7-1.3-2.1-1.6-4.6.5-6.7z" fill="#52030b"/><path d="M477.4 208.7c-7.2-14.2-18.8-25.4-26.3-39.4 9.4 3 13.5 11.8 18 18.9 2.9 4.6 6.2 9.6 8.4 14.9 0 1.8 0 3.7-.1 5.6z" fill="#751f29"/><path d="M524.3 240.5c-14.7 5-25-6-37.1-10.3-2.6-.9-2.3-4.1-2.5-6.6.2-1.5.5-2.9 2-3.7 9 3.7 17.6 8.2 26.4 12.4 4.6 2.2 6.7 6.8 11.2 8.2z" fill="#9c1321"/><path d="M479 221.7c1.2-4.6-1.9-8.7-1.6-13.1 4.9 4.1 3.7 9.7 3.9 15-.2 1.5-.3 3-2 3.8l-.3-5.7z" fill="#85333b"/><path class="st73" d="M117.1 347.5c-2.6 1.3-4.3 3.4-5.8 5.9-1.3 2.1-1.8 6.3-5.6 4.5-3-1.4-1.8-5-1.5-7.6.7-5.3 5-12.2-.9-15.1-6.8-3.3-8.3 5.6-12 9.2-3.9 3.8-8.2 6.7-13.3 8.2-4.3 1.3-8.9 1.2-9.7-5.1 1.3-3.1 2.5-6.2 3.8-9.4 3.6-2 6.3-5.7 5.1-9.1-3-8.4.1-16 1.9-23.7 2.4-10-3.5-17.6-7.6-25.2-2.5-4.5-2.6-10.3-1.4-11.7 4.1-4.6 3.7-9.5 4-14.7.2-4.1 2.5-3.6 4.9-1.6 3.6 3 7.8 5.4 10.7 8.9 5.7 6.9 8.9 4.4 11.7-2.2 1.9-4.6 4.1-9.1 5.8-13.7 3.9-11.1 3.8-11.1 11.7-2.8 5.1 7.6 2.4 15.9 2.2 24-.7 2.6-1.8 5-4.3 6.3-1 .2-1.9-.1-2.5-1-2-3.7-.9-7.9-1.9-12.9-2.6 2.7-2.9 5.6-4.1 8.1-6.1 12.8-13.6 13.8-23.2 2.9-.6-.7-1.2-1.4-2.9-2.2-.8 7.4-.8 14.5 1.4 21.5 3.7 11.2 8.3 22.1 5.5 34.4-1.1 4.9 2 5.1 5.6 3.5 1.1-.5 2.1-1.4 3.1-2.1 9.9-7.2 13.2-6.6 21 3.9 1.4 6.5.2 12.7-1.7 18.8z"/><path class="st39" d="M389.2 379.4c-7.8.1-4.1 8.8-8.7 11.5-6.4 3.9-2.3 8-.1 12.3 5.1 10.4 3.4 16.7-6.2 24.9-12-12.9-29.4-9.4-44.1-14-10-3.1-20.5-5-30.4 1.8-2.9 2-6.7.6-9.9-1-7.1-3.2-14.3-6.3-22.3-6.1-1.9 0-3.9-.2-5.5-1.2-20.3-11.7-44.2-18.1-57.8-39.5-1.8-1.7-3.1-3.6-3.8-5.9-.2-1.5 0-2.9 1.1-4 .9-.5 1.8-.6 2.8-.6 2.6.6 4.3 2.3 6.1 4.1 26.4 25.1 57.2 35.1 93 26.6 9.8-2.3 17.5-9.3 25.7-14.7 5.2-3.5 3.3-10.2 3.7-15.7 1.5-6.3 4.2-12.1 10.4-14.7 4.8-2.1 10.5-3.9 12.2 4.2 5.9 5.4 11.7 10.9 16.1 17.6 1.3 2 2.8 3.3 5.3 3.1 8.2-.6 10.3 5.4 12.4 11.3z"/><path d="M355.5 347.4c-6.1-7.6-11.6-3.1-16.1 1.6-2.4 2.4-3.1 6.5-4.6 9.8-8 15.8-22.8 21.2-38.7 24.8-17 3.9-33.4.7-49.7-4.4-13.1-4.1-26.6-6.9-36.1-18.3-4.7-5.6-7.7-12.1-11.6-18.1-.6-1.4-1-2.8-1-4.3s.4-2.8 1.3-4c5.2-1.4 6.7 2.8 7.9 5.9 4.2 11.2 14.4 14.6 24 19-.8-4.2-4.7-5.7-7.1-8.5-6.6-7.6-12.4-15.6-17-24.5-1.1-2.2-1.1-7.3-6.1-3.7-4 2.4-4.8-1.7-6.8-3.4-.5-.7-1-1.4-1.3-2.2-.7-2-2-4 0-6 .7-.5 1.5-.9 2.3-1.3 3.6-2.8 1.2-5.8-.1-8.3-3.9-7.5-4.4-15.2-3.4-23.6 1.4-11.2 3.8-22.3 7.7-32.6 9.5-25.2 28.8-40.8 54-49.3 4.1-1.4 8.6-1.8 12.5 1.2 0 5-4.7 4-7.3 5.6-14.5 5.7-26.5 15.2-37.6 25.6-6.3 5.9-9.2 14-9.1 22.9 0 4.4-.2 8.7-2.7 12.6-10.6 16.7-9.9 32.9 2.3 48.5 3.7 4.7 5.9 10.3 8 15.9 2.4 6.7 6.7 12.2 12.5 16 6.5 4.3 13.5 7.9 19.1 13.4 1.3 1.3 3.3 2.2 5.1 2 10.5-1.5 20.3 1.3 30.3 3.8 4.6 1.2 9.3 0 13.7-2.1 3.4-1.6 6.8-3.5 10.5-4 15.8-2 24.4-12.4 30-25.9 4.1-10 11.4-17.9 17.3-26.6 5.1-7.6 9.9-15.2 10.8-24.5.2-2.1.9-4.4 3.8-4.5 4.8 8.9 3.3 17.8-1.4 25.7-5.4 9-9.6 19-17.3 26.7-2.3 2.3-6.1 6.1-.6 9.1 3.9 2.2 7.9 2 10-3.1 2-4.7 5.5-8.3 8.4-12.4 11.6-16.1 15.4-34.3 14.4-53.8-.6-11.1-7-5.7-11.9-4.9-3.9-6.8-.5-15.2-5.1-22.2-1.8-2.7 1.3-5.2 4.8-4 3.2 1.1 6 3.1 9.4 3.7 2.2.7 4.3 1.5 6.2 2.9 1.6 1.4.5 3.4 1 5.1 4 .8 4.6-6.7 9.4-3.9 2.7 5.4-3.6 10.4-.7 15.9 1.5 23.1.1 45.4-14.1 65.3-4.3 6-6.4 13.6-11.5 19.1-2.6 2.8-4.9 7-10 4.3-2.6-1.4-5.1-2.2-7.8-2z" fill="#420102"/><path d="M363 349.4c6.2-.7 8.8-5.8 11.1-10.3 7.1-13.9 18.2-25.9 20.6-41.9 1.9-12.5 2.8-25.2 2.1-37.9 2.3-8.1 4.9-16.2 7.1-24.4.7-2.6 1.9-6 6.1-5.6 0 5.1-.6 10 2.4 15 3.3 5.4 1.1 10.9-3.8 14.8-4 3.2-4.7 6.7-2.7 11.5 4 9.8 1.7 20.3 2 30.4 0 1.5-.5 3.2-1.4 4.4-11.5 15.5-22.9 31.1-34.5 46.6-.6.8-2.3.8-3.4 1.1-2.7 0-4.6-1.2-5.6-3.7z" fill="#510108"/><path d="M201.6 362.5c1.2 1.3 2.5 2.5 3.7 3.8 8.9 14.5 17.7 29.2 34 37 7.1 3.3 14 7.4 19.7 12.3 15.7 13.4 33.7 10.7 51.5 9 12.1-1.2 24.2-1.8 36.2-.4 4.8.5 10.3.9 10.6 7.9-6.1 7.4-14.5 8.7-23.2 8.1-15.4-1.2-29.4 5.3-44.3 6.9v-1.9c-6.7-11-17.9-13.4-29.3-14.1-6.8-.4 1.2 6.4-2.6 8.4v.1c-4.4 2.8-8.8 2.6-13.3.2 1.6-14-7.6-20.9-16.9-29.5-11.2-10.4-24.6-20.4-26.6-37.8-.4-3.5-2.4-6.9.5-10z" fill="#901023"/><path d="M289.8 413.2c4.5 1.6 9.2 2.4 13.2-1 10.3-8.9 20.7-.5 31 .1 9.1.5 17.6 5.1 27.3 4.3 6.8-.5 10.2 5.9 13 11.6-2.1 3.7-4.5 6.9-9.4 3.8-6.4-6.9-14.7-8.8-23.7-8.7-16.7.1-33.5.7-50.1 2.2-7.1.6-9.9-2.1-9.7-8.9 1.7-3.8 4.4-5.3 8.4-3.4z" fill="#83091b"/><path d="M282.3 416.9c1.6 4.6 3.1 6.8 9.6 6.1 17-1.9 34.3-1.4 51.4-2.5 7.6-.5 13.4 4.6 20.6 5.1 3.9.3.2 4.1.9 6.3h-7.5c-3.2-5.4-8.5-5.1-13.9-5.7-21.1-2.4-41.9 3.7-62.9 2.1-5.1-.4-9.3-1.2-13.6-4.6-9.3-7.5-20.6-12-29.7-19.9 1.4-1.4 3.4-2 5.1-1.2 10.7 5 22.4 6.4 33.6 9.5 2.8.6 5.3 1.9 6.4 4.8z" fill="#830a1c"/><path class="st79" d="M252.2 493.8c-2.1.1-4.3-.3-5.6 1.9-.7.5-1.4.6-2.2.3-1.8-1.5-3.2-3.4-5.6-4.2-5.9-3.5-11.4-7.5-17.7-10.3-5.1-4.1-10.4-7.9-16.3-10.7-13-5.9-22.3-16.6-33-25.5-4.9-4-4.7-9.8-4.2-15.5.2-1.4.7-2.7 1.7-3.7 4.9.6 7.2-1.2 8.8-6.4 3.1-9.7 5.2-19.6 8.2-29.3 4.6-.3 4.2 3.7 5.1 6.2 2 5.8 4.3 11.4 7.6 16.5 4.9 5.7 10.9 9.9 17 14.1 2.5 1.7 5.5 3 6.1 6.5-9.7 7.8-8.9 7.2-1.1 17.1 7.8 9.8 19.4 14.2 28.1 22.5 5 4.7 10.1 8.4 2.3 14.6-3.2 2.6-.6 4.1.8 5.9z"/><path d="M222.2 433.9c-8.6-5.6-17.8-10.6-24.4-18.8-1.3-1.7-1.2-3.5-.6-5.3 3.7-1.7 4.9 1.7 6.6 3.4 7.4 7.2 15.8 12.7 25.9 15.6 5.7 1.7 11 4.2 14.9 8.8 3.9 3.6 8.8 1.1 13.1 1.9 1.2 1.2 2.5 2.4 3.7 3.6-7 .2-14 .6-20.8-1.6-5.5-3.9-11.7-6.2-18.4-7.6z" fill="#8b2634"/><path d="M383.6 242.4c-5.2 1.3-9-2.3-13.6-4.7 6 8.2 4.1 16.9 4.3 25.3 2.1 2.9 2.5 5.7-1 7.9-4-1.9-3.3-5.8-3.2-9 .2-9.6-3-17.6-9.7-24.5-5.8-6.3-12.3-11.9-18.6-17.6-.1-1 .1-1.9.9-2.6 2.9-1.6 5.5-.5 8.1 1 3.5 2 6.4 4.9 10 6.9-7.6-13.7-17-26.2-25.8-39.1-7.6-11.3-13.9-23.5-18.9-36.3-3.9-9.8-7.4-19.8-11.2-29.7-1.3-3.3-2.7-6.5-6.8-7-2.5-.3-5.3-.3-6.9 1.8-1.7 2.1 0 4.2 1.2 5.9 5.3 7.4 6.3 16.2 8.4 24.6 2.3 9.3-2.1 15.7-11.5 18.1-9 2.3-18 4.4-27.6 4.4-12.4 0-22.7 5.1-30.8 15-6.9 8.4-14.7 16.1-21.1 25-1.9 2.6-4.1 5.8-8.4 4.4 6.6-19 15.4-36.8 33.1-47.9 9.5-5.9 19.4-10.7 31.2-11.5 13.1-.9 19.1-7.4 21.1-18.8.8-4.4.3-8.3-2.2-12.4-2.2-3.7-6.4-7.2-4-12.5 3.7-.2 6.4.1 9.5-4.3 2.5-3.6 10.6-2.2 15.9-.4 3.7 1.3 6.6 4.6 6.6 9.4 0 6.8-1.3 14.7 10 13.2.7-.1 2.3 2.3 2.4 3.6 1.4 13.9 11.2 24.9 13.1 38.6 1.2 9 8.1 15.3 12.4 22.8 5.7 10.1 12.2 19.8 18.4 29.6-.8 7.3 4.9 10.5 9.5 13.7 4.3 2.9 5.7-3.6 9.2-4.3 2 5.1.5 8.8-4 11.4z" fill="#4d0205"/><path d="M374.2 144.8c1.4 10.4 11 15.7 15 24.5.1 5-.1 9.8-2.4 14.6-3.1 6.6-1.5 13.5 1.1 20 2.3 5.8.9 10.4-4 13.9-2.9 2.2-5.7 2.2-8.1-1-9.8-13.1-21.1-24.7-26.8-41-3.5-10.1-8.2-20.6-13.8-30.2-3.4-5.9-6.4-11.9-6.3-19.3.2-12.1-9.4-18.8-16.9-26.4-2.5-2.5-6.7-2.9-9.8-1.7-9.5 3.7-16.9-.4-24.2-5.6-2.5-1.8-5.2-3.4-7.7-5.3-2.8-2.1-8.5-2-7.7-6.8.6-4.3 6.3-3.2 9.2-5.4 5.3-4.1 13.5 2 18-5.2 8.2.3 16.5-1.5 24.4 2.1-.9 4.6-4.7 3.5-7.5 3.3-8.8-.5-17.3.8-26 2-2.3.3-4.3.9-5.3 3.1-1 2.4 0 4.5 1.9 5.8 6.7 4.4 13.3 9.4 22.3 7.6 16.6-3.2 33.1 10.2 33.3 27.6.2 20.2 12.2 34.8 23.7 49.1 5.2 6.5 15.3 7.1 23.4 3.7 6.2-2.6 4-7.5.2-11.2-6.8-6.6-12.9-13.5-13.4-23.7 2.4 1.8 4.9 3.7 7.4 5.5z" fill="#63010c"/><path d="M203.5 122.3c2.3 4.7 5.6 2.8 9.5 2.2 15.1-2.3 29.5-9 45.2-8 4.7.3 8.9.6 10.6 5.7 1.7 5.3-2.8 6.7-5.9 9.3-8.3 6.9-18.7 6.7-28.3 7.3-9.9.6-13.6 5.7-18.7 13.5-16.5 25.4-22.1 56.1-40.4 80.4-1.1 1.4-2.5 2.6-3.8 3.9-3.8-5.7.4-10.1 3-14.2 5-8 8.5-16.3 8-25.9.1-.9.3-1.8.6-2.7 2.7-9.8 10.3-16.8 14.7-25.6 7.1-9.4 7.1-20.8 9.3-33.8-8.4 5.5-13 12.3-17.5 18.9-3.7 5.4-8.1 9.4-14.3 11.3-3.5 1-7.4 2.2-9.9-2.1.6-2.9 3.2-3.6 5.3-4.8 9.6-5.1 15.7-12.9 18.6-23.4 3.3-5.4 6.9-10.6 14-12z" fill="#70030f"/><path class="st84" d="M184.7 195.5c1.3 10.7-2.2 19.9-8.4 28.5-2.6 3.7-5.2 7.8-4.8 12.8-2.2 17.7-10.3 34.4-9.4 52.6.1 2.7-1 6.4 2 7.6 3.3 1.4 5.8-1 7.3-4 1-5.3 3.9-2.5 5.9-1.2 2.7 1.7 4 4.7 6.1 7 .9 1 1.6 2 2.4 3.1 3.9 4.5 4.7 10.7 8.2 15.5 3.9 6.3 4.6 13.5 5.6 20.7 0 1.2 0 2.5.1 3.7 1.1 5.7 7.5 10.2 3.7 16.9h-1.9c-5.3-2.1-5.3-6.9-6.3-11.5-3.2-15.2-8.4-29.3-23.4-37.1-4-2-5.1 1.3-7 3.7-2 2.6-4 5.9-8.1 2.9-3.2-5.1-7.3-6.2-13.4-5.1-10.2 2-13.1-.4-13.8-10.5-.4-6-3.4-11.2-3.6-17.2 0-2.1.3-4 1.6-5.7 4.6-1.7 5 2.4 6.3 4.9 1.8 3.3 1.9 7.2 3.6 10.5 3.3 4.7 5.3 1.6 6.6-1.4 3-6.9 6.6-13.4 8.7-20.7 6.3-22.2 15.2-43.6 23.1-65.3 1.8-4.1 2.6-9.8 8.9-10.7z"/><path class="st85" d="M182.8 300.6c-5-.7-3.4-11.2-11.3-7.6-5.5-4.5-5.9-11.1-4.4-16.8 4.4-17.6 6.5-36.2 18.7-51 1-1.2 1.3-3.2 2.5-3.9 14-8 15.3-23.3 21.3-36 9.2-19.6 23.6-31.8 45.4-35.1 11.6-1.8 20.4-8.4 27.1-18 4-5.7-.3-9.8-1.8-14.7-.8-2.5-7-6 .2-8.5 1.3 3.2 2 6.7 3.9 9.4 14.1 20.9-3.3 36-20.6 37.6-21.2 2-37.5 12.4-47.7 31.3-4.6 8.4-12.2 15.1-14.5 24.9 1.5 3.9-.8 6.6-3.3 8.9-11.7 10.6-19.4 23.1-19.2 39.5 0 3-.6 6.2-1.5 9.2-2.5 8.7-3.9 16.7 4.9 23.1 2.3 1.8 2.7 5.1.3 7.7z"/><path d="M203.5 122.3c-4.2 4.6-10 7.5-13.1 13.1-1.8 3-3.8 4.3-6.4.7-.3-2.2.6-3.6 2.7-4.3 4.2-2.1 6.2-6.3 9.3-9.6 8.6-11.7 21.8-9.8 33.8-11.2-3.3 6-9.9 3.1-14.6 5.4-4 2-9.2 1.2-11.7 5.9z" fill="#791e26"/><path d="M229.7 111.1c15.8-5.4 32.1-7 48.7-4.4-16.4-.7-32.2 5.2-48.7 4.4.1 0 0 0 0 0z" fill="#7f2932"/><path class="st88" d="M128.4 278.1v5.6c-4.9-.9-5.9-6.8-10.4-8.3-.6-2.3-.1-4.5.8-6.6 0-8.8 0-17.6.1-26.4-1.3-14.8 5-28 8.4-41.9 4.9-20.1 19.5-33.1 31.1-48.3.7-.6 1.5-.9 2.4-.7 3.8 2.8 1.1 5.6-.4 7.9-2.8 4.3-6 8.5-9.7 12.2-7.9 8.1-7.8 8.2-1 15.8-9.5 14.6-14 31.2-19.6 47.4-3.4 9.7-1.1 19.8 0 29.7.4 4.8 1.9 9.5-1.7 13.6z"/><path class="st51" d="M160.3 152.2c-.6 0-1.2.1-1.8.1-1-14.2 4.7-26.2 12.3-37.5 1.9-2.8 4.5-5.2 5.8-8.3 3-7.2 8.2-4 12.5-2.6 5.2 1.6 3 5.8 2.1 9.3-1.6 6.2-5.9 11.7-4.5 18.7-.7 1.2-1.3 2.4-2 3.6-6 8.6-15 13-24.4 16.7z"/><path class="st89" d="M169.7 430c-.9 7.7 2.5 12.4 8.3 17.9 11.6 11 24.9 19.1 38.4 27 2.5 1.4 4.6 3.1 5.8 5.8.8 4.8-3.7 6.8-5.4 10.3-2.4 4.8-2.3 7.6 4 8 3.3.2 7-.6 9.4 2.8-8 4.8-16.5 1.9-24.9 1.5-1.7-.1-3-2.2-3.5-4.1-5.6-18-21-28.2-32.6-41.5-1.8-2-4.2-2.4-6.8-2.5-17.1-1.2-32-7.5-45-18.6-6.4-5.5-7.5-9.1-1.7-15.4 3.4-3.7 3-6.7.2-9.8-14.3-15.6-9.2-32-1-47.7 3.7-7.2 7-14.4 9.8-21.9v-15c-3.6-9-2.8-10.9 5.9-13.2 1.5-.4 3-.8 4.5-1.1 14.5-3.1 14.7-3.1 22.8 9 2.6 4 7.1 7.3 4.7 13.1-4.4 2.3-6.8-1.3-9.7-3.4-11.2-8.1-19.6-4.1-22.4 9.5-2.2 11-3.1 22.1-4.6 33.1-.9 6.6.4 12.4 5.9 16.7 14.5 11.3 26.4 25.2 37.9 39.5z"/><path class="st73" d="M124.7 341.9c-.5 8.3-3.2 15.9-7.8 22.7-5.1 7.6-6 16.2-7.2 24.7-.9 6.7 1 12.5 5.8 17.9 4.3 4.9 13.8 11.1-.2 17.1-3.7 1.6-2.3 6.4 1.3 9.2 13.8 10.8 28.6 19 46.9 19.1 7 .1 10.4 6.6 14.7 10.7 8.1 7.6 15 16.5 22.4 24.9.8.9 1.7 1.9 2.2 3 1.8 3.7-1.5 10.3 4.2 11.2 7.4 1.2 15.3 2.6 22.7-1.1.5-.7 1.2-1.2 2-1.6 4.5-.8 8.3-4 13.1-4.1h1.8v.1c2 5-1.8 6.3-5.1 7.8-3.2 1.4-6.5 1.7-9.9 1.6-4.1 0-8.2-.6-12.1.1-17.1 3-25.6-7.2-32.8-20.2-4.5-8.1-9.1-16.3-15.9-22.8-2-1.9-3.7-4-7.1-3.6-15.9 2-29.6-3.5-41.9-13.2-4.3-3.4-11.5-1.7-14-8-.4-1-6.8-4.9 1.3-4.4 3.1.2 1.5-2.7.3-3.9-9-8.4-8.8-20.1-10.9-30.9-.9-4.7-1-9.6 4-13.4 3.4-2.6 3.6-7.7 5-11.8 1-2.9 1.4-6.3 3.1-8.7 5.6-7 10.3-14.4 14.1-22.4z"/><path d="M156.7 323c-2.2-.8-3.1-2.6-4-4.7-2.2-5.5-6.2-7.2-11.8-5.2-2.6.9-5.2 2.2-7.9 2.5-7.4.6-9.6 4.5-8.3 11.3-6.6 3.7.4 11.8-5 16.1-1.2.9-.7 3.6-2.5 4.6v-20.7c-3.9-10.6-1.7-22-4.4-32.7-1.1-4.4-1.4-9.2-1.4-13.8 0-3.1-1.2-7.2 4-7.8 3.7 6.3 3.2 13.6 4.6 20.1.2-5.3-3.1-10.7-.7-16.4 8.5-4.2 5.6 5.7 9.3 7.5 1.1 7.5 3.7 14.6 4.3 22.4.6 7.2 7.9 4.1 12 2.9 8.3-2.4 12.4.3 13.7 8.4 1.8 2.6.5 4.3-1.9 5.5z" fill="#61111a"/><path class="st79" d="M231.6 505.1c4.5-4 13.8-.1 15-9.4.6.6 1.2 1.2 1.9 1.8-2.2 7.7-10.8 11.5-16.9 7.6z"/><path class="st91" d="M257.9 439.3c0-.3-.1-.6-.1-.9.3-3.9-7.1-5.9-3.9-9.1 2.8-2.9 8-.6 12.3-.1 7 .9 13.1 3.4 18.7 7.1 2.6 1.7 8 3.2 4.8 8.7-6.8-1.3-11-7.4-17.6-9.6-6.1-1.9-10.6-1.8-14.2 3.9z"/><path d="M383.6 242.4c1.2-3.8 2.5-7.5 3.7-11.3.2-.9 0-2.3.6-2.7 13.8-10 9.9-25.5 12.6-39 .6-3.3-2-9 3-9.3 4.7-.3 9.6 2.7 11.7 7.8 3.6 8.7 1.1 17.1-2.2 25.1-2.2 5.3-3.5 10.5-3.1 16.2-7.9 8.5-5 21.7-13.1 30-4.7-5.7 3.7-9.7 1.9-15-3.1-3.5-6.3 1.8-9.4 0-2.1 0-4.4.4-5.7-1.8z" fill="#440209"/><path class="st93" d="M115.3 272.4c-4.6 8.1-.5 16.3.4 24.2 1.2 10.1 2.5 20.1 1.4 30.2-1.4-.5-3.3-.7-4.2-1.7-4.9-5.7-9-3.9-13 1-1 1.2-2.1 2.5-3.4 3.1-3 1.5-6.6 3.1-9.6 1.3-3.1-1.8-.9-5.1 0-7.6 3.1-8.5.6-17.1-2.4-24.3-4.1-9.8-4.3-19.9-5.9-29.9-.3-2.2-1.3-4.4 1.7-5.3 2.4-.7 4.2.3 5.4 2.5 1 1.9 2 3.9 3.4 5.5 5.2 5.8 11.2 5.4 15-1.4 2-3.5 3.1-7.4 4.8-11.1 1-2.1.5-6.1 3.7-5.6 3.6.5 2.6 4.4 2.6 7 .2 4 .1 8.1.1 12.1z"/><path class="st93" d="M119.1 276.2c.3 7.8 3.9 15.3 2.1 23.3-3.8-8.6-4.9-17.8-5.9-27l3.6-3.6c0 2.4.1 4.8.2 7.3z"/><path class="st91" d="M171.5 308.1c17.9 6.2 21.9 22.4 25.9 37.9 1.2 4.4 2.2 8.7 4.2 12.8v3.8c.5 8.4 1.7 19.4 6.6 23.5 8.9 7.4 12.9 18.9 23.3 24.6 5.7 3.1 9.9 7.8 13.5 13.6 3.4 5.3 2.4 9-.3 13.4-16.8-7.5-35.6-11.5-46.9-28.1-4.1-6.8-7.4-13.7-5.5-22 .6-2.4.2-5.1-.9-7.3-8.1-16.4-11.8-34.8-21.7-50.5-3.2-5.1-4.9-10.8-3.8-16.9.6-3.2.7-7 5.6-4.8z"/><path class="st47" d="M203.5 358.7c.5-6-5.2-10.7-3.7-16.9 6 3.7 6.8 10.8 10.8 16 11.5 14.6 28.8 16.3 44.5 21.3 20.2 6.5 40.2 4.3 59.7-3.9 8.4-3.5 12.5-12 20-16.5 1.7 13.7-.1 14.4-11.4 22-14.2 9.5-29.5 15.3-45.9 13.2-25.8-3.3-51.2-9.3-69.1-31.1-1.3-1.5-3.3-2.7-4.9-4.1z"/><path d="M282.3 416.9c-14.7-5.6-30.5-6.9-45-13.1-17-7.1-25.9-21-31.9-37.5 7.2 7.5 13.3 16.4 22.6 21.5 12.1 6.6 24.2 13.8 37.1 18.1 8 2.6 17.2 1.9 24.7 7.3-3 .3-5.6 1.3-7.5 3.7z" fill="#810a1e"/><path class="st95" d="M349.8 219.9c-2.3-1.3-4.8-2.2-7.5-1.9-5.2.9-9.1-2.2-12.4-5.1-15.6-13.2-33.7-15.2-53-13.4-4 .4-8.1 1-11.5-2.2-25.1 1.6-43.2 14.5-57 34.9-11 16.3-12.6 35.2-15.6 53.6-.9 5.4 1.6 11.5 5.4 16.4 2.3 2.9 2.2 6.6.7 9.7-1.1 2.3-3.2.2-4.9-.2-9.3-9.6-14.1-21.1-13.7-34.5.3-9.6-.7-19.3 1.2-28.9 3.1-15.8 14.3-26 24.7-36.6 9.1-9.3 19.2-17.7 29.6-25.6 2.3-1.7 4.6-3.6 7.4-3.9 6.9-.8 13.2-2.3 19-6.6 3.7-2.7 8.5-.7 12.6.8 6.8 2.4 12.5 1.1 18.4-3 20.8-14.1 21.6-13.5 36.5 6.9 7.3 10 13.8 20.7 22.6 29.6 4.2 3.9 6.4 8.9-2.5 10z"/><path d="M349.8 219.9c3.5-2 6.6-3.9 2.1-8.3-12.3-12-21.7-26.2-31.1-40.5-3.9-5.9-8.2-6.9-14-3-1.8 1.2-4.2 1.6-5.8 3.1-9.6 8.5-19.8 12.5-32.3 5.9-1.4-.8-4.2-.8-5.4.1-12.4 8.7-28.9 9.7-39.8 21.5-10.8 11.6-24.2 20.8-33.2 33.9-3.7 5.5-6.7 12.7-6.8 19.2-.5 18.7-5 38.3 8.8 54.8 1.1 1.3 1.2 3.5 1.8 5.2h-1.9c-3.4-2.4-4.7-6.5-7.6-9.4-.6-.6-1.2-1.2-1.8-1.9.7-4.8-2.3-7.6-5.6-10.1-5.2-3.9-6.6-7.6-3.6-14.3 2.7-6 3.3-13.2 3.4-19.9.2-14.9 8.1-25.5 18.1-35 2.8-2.7 4.9-5.6 6.5-9 9.3-10.4 19-20.5 27.7-31.4 8-10.1 18.4-15.4 30.6-15.2 10.5.1 20.3-2.5 30.3-4.7 7.2-1.5 10.6-7.5 8.5-14.3-2.9-9.3-2.7-20-10.7-27.4-2-1.9-2.9-5.1-.3-6.5 4.5-2.4 9.6-4.5 14.6-1.4 2.3 1.5 3.6 3.9 4.5 6.8 6.5 21.4 15.8 41.6 26.1 61.3 4.2 8 10.4 15.4 16 22.5s8.8 15.8 15.2 22.3c1.3 1.4 2.8 3.9.2 5.7-2 1.4-3.5-.3-4.8-1.5-3.2-2.7-6.4-5.6-9.7-8.5z" fill="#420103"/><path d="M361.1 234.9c11.4 9.5 11.9 22.4 11.3 35.6 1.6 1.9 1.6 3.7 0 5.6-2.7 17.9-13.4 31.4-23.7 45.4-3.3 4.4-5.3 9.8-7.9 14.8-5.7 10.7-12.5 20.2-25.6 22.4-4.7.8-9.1 2.2-13.2 4.4-8 4.3-16 4.6-24.2.9-1.4-.6-3-1.6-4.4-1.4-15.5 2.7-27.5-4.8-39.2-13.3-6.3-4.6-12.3-9.3-15.8-16.6-2.8-5.9-3.7-12.7-8.4-17.6-10-10.4-11.3-23-10.2-36.4 0-.3-.1-.7 0-.9 9.9-14.5 6-34.3 16.9-47.9 10.7-13.3 24.6-23.3 41.2-28.8.6.9.6 1.7.2 2.7-1.1 1.7-2.6 2.7-4.3 3.6-8.5 5.6-14.3 14.5-23.5 19.5-4.8 2.6-6.2 9.1-7.4 14.7-2.8 13.4-5 26.9-7.8 40.3-2.4 11.5-2.8 24 5.5 34.6 2.9 3.7 5.4 5.3 10.1 4.5 6.2-1.1 9.1 2.6 9.8 8.5 1.5 12.5 14.6 23.5 26.9 22.3 14.9-1.5 29.8-1.9 44.7.2 3 .4 5.5-.5 7.7-2.5 6.6-8 9.7-18 15.2-26.6 5.3-8.4 10.5-16.8 18.6-23 13.8-10.8 15-29.3 10.9-49-.6-2.7-1.9-5.2-3-7.8-.9-2.7-2.7-5.4-.4-8.2z" fill="#5e0203"/><path class="st98" d="M372.3 276.2v-5.6c2.7-2 1.6-4.9 1.9-7.5 3-2.8 5.6-8.9 10.1-6.1 4.9 3.1 4.3 10.3 4.3 15.5.1 15.6-3 30.7-10.8 44.4-4.5 8-11 14.5-15.1 23-2.5 5.2-10 .5-14.3-1.4-4.4-1.9-1.3-5.8.8-8.5 5.6-7.4 10.6-15.3 15.9-22.9 6.8-9.9 7.7-19.9 7.2-30.9z"/><path class="st95" d="M199.7 323.1c.5-2.2-1.3-5.6 1.9-6.5 2.8-.8 4.4 2.1 5.4 4.3 6.2 14.2 14.8 26.4 27.1 35.9 1.1.8 2.3 2.6 2.1 3.8-.4 2.5-3.1 2.4-4.5 1.8-9.1-3.5-18.3-6.9-23.9-15.7-2.6-4.1-3.2-9.6-8-12.3-2.2-3.8-2.9-7.5-.1-11.3z"/><path class="st99" d="M257.9 203v-1.9c1.6-3 5.9-.7 7.5-3.7 8.7 1.6 17.1-1.8 25.9-1.4 20.1.9 35.6 11 51 22v1.9c-3.1 2.2-5.8.5-8.5-.8-19.3-15.6-42.1-16.2-65.3-15-3.6.2-7.4 2-10.6-1.1z"/><path class="st98" d="M389.2 244.3c3.1 1.5 6.3-12.2 9.4 0-3.4 3.7-5.8 8.7-12 8.6-1.1-3.7 1.8-5.8 2.6-8.6z"/><path class="st85" d="M199.7 323.1c0 3.7 0 7.5.1 11.2 0 1.3 0 2.5-.1 3.8-3.9-6.3-5.1-13.4-5.6-20.7 3 .9 3.3 4.3 5.6 5.7z"/><path class="st85" d="M184.7 302.5c4.2 1.8 5.7 5.7 7.6 9.4.6 1.9 1.2 3.8 1.9 5.6-5-3.9-7.2-9.5-9.5-15z"/><path d="M169.7 430c-5.3-.6-8.3-4.6-10.6-8.5-7.2-12.1-18.4-20.1-28.8-28.8-5.2-4.3-7.8-9.4-7.3-15.2 1.3-14.8 3.3-29.5 5.7-44.1 1.4-8.4 16.5-11.7 23.9-5.8 3.1 2.5 4.9 6.7 9.7 6.6 8.1 2.1 10.4 8.6 12 15.7 2.2 8.7-.5 16.6-4.4 24.1-3.2 6.2-2.9 12.1-1.6 18.8 2.1 11 6.3 22.1 1.4 33.4v3.8z" fill="#280102"/><path class="st89" d="M169.7 426.3c-1.4-12.2-.6-24.5-5.1-36.4-2-5.4-.5-11.4 2.9-16.9 4.4-7.1 7-15.1 4.2-23.8 1.7-.4 3.4.2 4 1.5 5.1 11.8 10.6 23.5 12.4 36.5.2 1.2-.6 2.4-1.4 3.3 1.8 13.5-5.3 25.1-8.8 37.3-2.7 8.8-5.1-2.3-8.2-1.5z"/><path d="M186.6 390.6c-3.1-14.5-7.5-28.4-15-41.3-.4-6.7-5.4-10.5-9.3-15-.4-4.5-3.7-7.6-5.7-11.2.6-1.9 1.2-3.7 1.8-5.6 2.9-1.5 4.8-3.6 5.8-6.8 1.2-3.7 3.4-6 7.3-2.6-8.7 6.9-3.2 15 .4 20.3 8 11.6 10.6 25.1 16.3 37.5 4.3 9.3 9.5 18.5 6.1 29.8-1.4 4.7 7.5 7.7 3.5 13.7v5.6c-6.4-6.9-7.4-16.3-11.2-24.4z" fill="#7b1927"/><path d="M231.6 501.3h-1.9c-1.5 0-3.1.2-4.6 0-4.2-.8-10.3 2.7-12.4-3-1.9-5.3 2.5-9.6 5.7-13.7 1.1-1.4 2.5-2.6 3.8-3.9 7.6.5 11.9 7.4 18.7 9.4 2.7 8.6-5.7 7.9-9.3 11.2z" fill="#320103"/><path class="st89" d="M231.6 501.3c2.1-4.6 9.4-4.8 9.4-11.2 2.6 1 3.7 2.9 3.8 5.6-3.8 3.4-8 5.7-13.2 5.6z"/><path class="st103" d="M334.8 218c2.5.6 5 1.3 7.5 1.9 8.6 2.1 12.6 9.8 18.8 15 .6 2.5 1.3 5 1.9 7.5 1 5.2 3.5 10.3 1.3 15.7-6.1.7-7.4 0-7.3-8.2.1-9-3.5-14.8-11.4-18.4-8.6-4.1-15.6-12.5-26-11.5-13.7 1.3-25.6-6-38.8-6.7-5.1-.3-10-.7-13.7 3.8-6.1 8.6-14.7 12.4-24.8 13.6-1-2.8 0-5.5 2.2-6.5 8.1-3.8 13.2-11.1 20-16.4 4-3.1 8.8-4.8 13.9-4.7 20 .7 39.5 2.8 56.4 14.9z"/><path d="M184.7 195.5c-8.7 12-11.4 26.6-16.8 40-8 20-12.9 41.1-22.3 60.6-1.1 2.3-2.5 4.5-5.5 4.1-3-.4-4-2.6-4.2-5.3 0-6.8-.6-13.5-3-20-1.7-4.8-2.1-9.6-.2-14.5 1.6-2.3 3.1-1.5 4.4.2 2.1 2.8 2.7 6.2 4.4 10.6 4.1-11.5 10.8-20.8 11.4-32.6.3-6.2 2.6-12.2 7.3-16.9 2.7-2.7 4.5-6.1 4.9-9.9.6-6.2 3.3-11.1 7.6-15.6 4.7-5.1 4.6-12.1 5.4-18.5.3-2.3-.9-4.3-3.4-5-2.8-.8-5.1.2-6.5 2.6-2.7 4.5-5.2 9.2-8.1 13.7-2 3.2-4.1 6.5-8.8 5.4-4.1-3.3-.1-6.8-.4-10.2.2-.9.6-1.7 1-2.5 3.5-5.3 7.6-10.3 8.9-16.8 1.1-2 2.3-4 5.2-3 8.2 2.8 16.5-.1 20.8-8.1 3.9-7.2 10.3-12.3 14.8-18.9 1.6-2.3 4.2-4.1 7.2-1.9 2.9 2.1 2.5 4.7.5 7.2-1.4 1.8-2.3 3.8-1.9 6 1.7 9.1-3.4 16-7.6 23.2-6.2 7.4-13.1 14.3-15 24.4-.1.5-.1 1.1-.1 1.7z" fill="#800518"/><path d="M165.9 161.8c-1.8.7-3 1.9-3.7 3.7-2.9 5.8-6.6 11-9.4 16.9-1.3 1.3-1.6 3.4-3.8 3.7-3.3.3-6.5-.5-7.8-3.7-1.4-3.4 1.5-5.6 3.5-7.9 4.5-5.1 9-10.1 13.3-15.3 1.7-2 4.3-3.8 2.3-7.1 7.1-7.1 16.6-10.7 24.4-16.8 1.9 2.9 3.8.6 5.7 0-2.2 14.5-11.2 22.4-24.5 26.5z" fill="#5c0811"/><path class="st84" d="M184.7 193.6c-.2-11.3 6.8-18.2 15-24.4-5 8.2-10 16.3-15 24.4z"/><path d="M149 186.1c.7-1.8 2-3.1 3.8-3.7-.6 3.7-1.3 7.5-1.9 11.2-4.2 12.3-9.5 24.2-12.9 36.9-1.8 6.8-3.9 13-2.6 20 .5 3.1 1.2 6.2-1.3 8.8-2.4 9.2 4.2 17.1 3.7 26-.2 3.3 1.2 6.9-1.8 9.6-3.7-5.1-2.4-12.4-7.5-16.9.4-13-5.3-26-1.7-38.7 5.2-18.5 9.1-37.8 22.2-53.2z" fill="#790b1e"/><path class="st99" d="M321.7 351.3c-2.4 2.8-5.5 4.1-9.1 3.5-15.4-2.5-30.8-2.4-46.3 0-11.6 1.8-27.4-13.2-27.9-25.3-.2-4.7-2.4-8.8-8.3-5.8-5.8 3-8.1-.1-11-4.5-10.3-15.7-9.5-31.6-3.8-48.8 3.2-9.5 3.1-20.1 5.1-30.1 1.9-9.1 5.5-17.3 15.6-20.2 2.7-.8 3.8-2.8 5.5-4.7 3.6-4.1 6.4-9.4 12.6-10.4-1.4 8.3-7.4 14-12 20.3-3.5 4.7-5.9 9.4-6.2 15.2-.1 2.8-.5 5.5-1.5 8.2-5.2 14.3-1.6 27.8 4 41 1.6 3.6 3.7 7.3 6.2 10.4 6.8 8.1 8.9 17.6 9.2 27.8.2 8.2 4.2 12.1 12.3 13.7 13.7 2.7 27.3 6 41.5 5.8 4.8-.2 10 .3 14.1 3.9z"/><path d="M321.7 351.3c-20-1.6-40.1-3-59.8-7.7-6.6-1.6-11.5-6.3-10.7-12.4 2-15.1-5.8-26.3-13.3-37.4-4-6-5-12.1-7-18.6-4.5-15.1.2-28.9 4.1-42.5 3.1-10.6 12-18.9 19-27.8 1.2-.6 2.5-1.3 3.7-1.9 18.1-3.1 36.2-2.6 54 1.9 8.8 2.2 16.7 6.4 22.9 13.1-9.6-3.5-19.2-7-28.7-10.7-2.6-1-4.8-2.1-8-1.3-5.4 1.3-11.1 1.4-16.6-.5-1.4-.5-3.2-.8-4.6-.4-14.6 4.3-23.6 16.1-34.1 26 .6.7.8 1.5.7 2.3-1.6 4.3-4.6 8.1-4.6 12.9-.1.8-.4 1.6-.6 2.4-1.9 5.1.6 9.6 2.1 14.2.3.9.5 1.7.7 2.6-.1 13.8 2.7 26.1 13.9 35.9 6.7 5.8 7.6 14.6 7.2 23.3-.3 6.2 1 11.3 8.6 11.6 4.5 1.4 9.3.9 13.8 1.8 10.8 8.6 22.2 1.1 33.1.4 5.1-.3 7.1-8.8 9.6-14.2 1.7-3.7 5.4-5.7 7.5-9 2.3-6.6 6.3-11.6 12.3-15.5 11.5-7.6 16.3-18.8 15.2-32.6.1-2.7-1-5.5.6-8.1v-16.9c12.2 23.6 7.6 44.9-12 62.7-10.7 9.7-16.6 23.2-23 36-1.6 3.8-3.2 7.4-6 10.4z" fill="#750306"/><path class="st108" d="M242.9 233v-1.9c6.1-7.1 17.7-5.9 22.5-15 3.9-.6 5.7 2.3 4.3 4.7-4.2 7.6.9 8 6 8.9 4.3 1.7 10.3 1.6 9 8.9-3.7 3.1-7.5.8-11.2.3-2.2-.6-4.4-1.5-6.5-2.5l-6.6-3c-5.2-2.4-8-.9-8.6 4.8-.6 1.7-1.4 3.2-2.5 4.5-5.2 3-5.5 6.9-2.1 11.5.3.8.6 1.6.7 2.5 3.9 9.5 13.9 11.6 25.9 5.3.7-.5 1.4-.9 2.2-1.4 4.1-2.2 7.3-5.1 8.4-10 .4-1.7 1.4-3.4 3.8-3 2.4 2.3 3.5 5.4 3.3 8.4-.3 7.4 3.5 12.9 7.4 18.5 3.1 4 8.9 3.5 12.1 7.2.1 1-.1 1.8-.6 2.6-2.7 2.6-6 3.4-9.5 3-4.8-.6-9.3.3-13.6 2.3-10 4.8-21.3 1.4-31.8 5.4-6 2.3-14.5-10-14.3-19.7.1-4.4.8-8.7-2-12.5-.8-5-3.2-9.8-1.9-15 2.3-4.6 2.8-10.1 5.6-14.8z"/><path class="st109" d="M274.8 231.2c-5.7-1.1-16.8 1.5-6.6-10.2 1.7-2-.8-3.8-2.8-4.8.6-4.4 4.2-5.9 7.5-5.4 9.4 1.3 19.8-2.4 27.8 5.7.9 1 3 1.7 4.2 1.4 15.2-3.8 27.8 1.5 39.5 10.7.5.4 1.1.6 1.7.8 3.6 3.8 10.5 5.5 8.2 13-3.2 2.7-5.8.3-8.3-1.3-6.3-4-13-7-20.4-8.4-3.8-2.1-7.7-2.7-11.9-1.4-7.7 1.2-14.1-1-19.6-6.5-1.5-1.6-3.1-3.2-5.1-4.1-8.1-3.8-14.4.9-14.2 10.5z"/><path class="st110" d="M353.5 242.5c1.1-6.5-5.4-8.5-7.5-13.2 8.4 3.3 13.8 8.6 13.2 18.6-.2 4.1-1.5 8.9 3.6 11.4 1.3 2.3 2.2 4.8 1.9 7.5-1.7 1.5-3.6 1.7-5.7.7-4.4-5.3-3.2-12.2-5.5-18.1-.6-2.3-1.9-4.6 0-6.9z"/><path d="M134.1 259.3c-4.2-24.4 4.2-45.6 16.9-65.7 8.9-2.4 9.7-11.2 13.3-17.5 2.9-5 5.6-8.2 11.5-6.4 6.2 1.8 5.9 6.7 4.7 11.3-2 7.5-1.6 16.1-9.9 21-2.4 1.4-2.9 5.3-2.7 8.6.3 4.6-1.5 9.1-4.7 11.8-4.4 3.8-6.8 8.2-7.1 13.6-.6 15.1-10.2 27-13.8 42.3-4.7-6.4-3.9-13.9-8.2-19z" fill="#8a0920"/><path class="st88" d="M152.8 182.4c.3-7.2 4.3-12.3 9.4-16.9-.3 7.2-4.3 12.3-9.4 16.9z"/><path class="st103" d="M239.1 263.1c3.5 2.1 6 5.2 4.6 9.1-2 5.5.5 9.3 2.9 13.8 3.6 6.8 7.3 11 14.8 4.8 2.4-2 5.5-2 8-.9 3.5 1.6 6.7.9 9.8-.4 10-4.1 20.7-4.1 31.1-5.7 6.7-3.6 10.4 1.4 14 5.3 3.5 3.9 4 8.9 1.9 13.9-.8 2-2.5 4.7-4.5 4.1-11.2-3.6-12.2 6.1-16.2 11.9-4.7 1.9-4.2-2.2-4.8-4.5-2.8-10.4-8.7-12.5-18.3-6.8-6 3.5-8.1 10.2-12.8 14.6-2.6 2.2-3.4 4.6-1.5 7.8 1.5 2.4 4 4.7 2.7 8.1-8.9 1.3-12-3.3-11.2-11.4 1.3-12.5-2.9-22-12.8-30.2-6.3-5.2-7.4-14-7.8-22.2 0-3.8.1-7.6.1-11.3z"/><path class="st110" d="M304.8 319.3c-1.1-5.8 3.6-9.6 5.1-14.5.9-2.8 4.6-3.1 7.2-1.2 7.7 5.9 7.6-1.5 8.1-5.3 1-7.3-4.7-12.6-14.8-14.6v-1.9c4-4.7 4-4.7 11.7-.4 3.6 3.3 7 6.8 11 9.5 7.4 5 9.9 4.6 15.9-2.8 2.7-3.3 5-6.7 6-11 .6-2.6 1.1-5.5 4.8-5.4 6 8-.2 14.3-3.3 20.7-1.5 3.2-4.5 6.3-8 7.5-8.5 3-11.5 9.3-11.9 17.5l-7.5 7.5c-1.1 1.1-2.4 2.1-3.1 3.4-2.6 4.7-6.3 8.1-11.9 7.1-5.6-.9-5.4-5.8-5.7-10.3-.1-1.5-1.8-1.3-2.9-1.7-1.6-1-2.2-2.3-.7-4.1z"/><path class="st103" d="M306.7 323.2c.9-1.6 1.7-3.6 4-2.9 2 .5 1.6 2.5 1.1 3.8-1.4 3.6-2.7 7.7 1.8 9.5 4.1 1.6 7.6-1.1 9.9-4.7 1.4-2.2 3-3.8 5.8-3.9-1.6 6.9-6.5 17-10.2 16.3-11.1-2.1-22.8 10.8-33-1.3 4.6-4.5 12-2 16.6-6.4 3.5-2.6 2.6-6.9 4-10.4z"/><path d="M304.8 334.2c-4.6 7.2-12.3 4.5-18.7 5.9-5-.9-10.4 1.8-15-1.9-1.4-5.6-12-9.2-3.6-16.9 2 1.8 3.5 3.9 5.2 5.9 5.5 7.1 13.3 4 20.2 4.6 4 .3 8.4-.9 11.9 2.4z" fill="#701b1d"/><path class="st103" d="M336.7 317.5c-1.6-9.3 1.1-15.2 10.8-19 9.7-3.8 14.1-16.2 11.7-26.1-1.6-1.9-1.6-3.7 0-5.6h5.6c1.4 16.5-5.2 29.1-19.5 37.1-5.6 3.3-5.7 9.1-8.6 13.6zM242.9 233c-1.4 5.2-.1 11.4-5.6 15-.9-6 1.1-10.9 5.6-15zM237.2 248.1c1.5 4.9 2.3 9.9 1.9 15-2.5-4.8-6.1-9.4-1.9-15z"/><path d="M321.6 283.7c-3.6-1.7-6.6-6.5-11.2-1.9-4.9-.7-10.1-.6-13.1-5.6-1.3-4.8-1.6-9.4-1.3-14.6.4-6.6-5.5-12-6.2-19-.4-3.9-3-7.8.7-11.3 3.5-3.3 7.6-2.3 11.3-.5 4.6 2.2 8.4 0 12.4-1.6 4.3-2.8 8-1.8 11.3 1.8 1 1 1.4 2.1 1.3 3.5-1.3 4.5-7.8 6.6-5.6 12.6-4.6 12.6-3.7 15.6 7.9 25.1 1.7 1.4 3.3 2.8 5 4.3 3.2 4.7 9.3-.5 12.7 3.6.5 4-.7 7.4-3.9 9.9-8.6 2.6-14.4-3.7-21.3-6.3z" fill="#9e2024"/><path d="M314.2 229.3c-4.5 4.8-9.2 7.1-15.5 2.8-2.1-1.5-4.8-1.4-7 .5-2.4 2-2.1 4.5-.6 6.7 3.5 5.6.6 14.1 8.3 17.8.7.3 1.2 2.8.8 3.2-5 4.6-1.1 10.8-2.9 15.9-8.2-7.7-8.1-18.1-9.4-28.1-2.4-2.7-4.7-5.3-3.8-9.3.4-6.9-6.8-4.3-9.4-7.6-1.7-3.6-7.3-8.1-1.3-10.9 5.5-2.6 12.6-7.5 18.7-.6 6 6.6 12.7 11.1 22.1 9.6z" fill="#981618"/><path d="M276.7 262.5l-2.1.3c-5.5.3-10.4 3.2-16.2 2.4-5.7-.8-9.2-2.9-9.9-8.8 1.5-13.3 5.8-17.7 17.1-17.5 2.6.9 4.6 2.9 3.8 5.5-3.2 9.8 2.9 9.7 9.5 9.4 1.9 3.5-.6 6-2.2 8.7z" fill="#19282c"/><path d="M267.3 240.6c-12 .1-14.6 2.6-17 16.8-2 1-2.9-.4-3.9-1.8v-.1c-1.5-4.8-3.8-9.6 2-13.3.6-1.3 1.3-2.6 1.9-3.9 4.2-7.7 10.5-5.7 16.9-3.7 1.9.7 3.7 1.4 5.6 2.1 2.4 1.3 3.9 3 2.2 5.8-3.3 2.4-5.2-.6-7.7-1.9z" fill="#190806"/><path d="M274.8 242.5c-.7-1.9-1.3-3.7-2-5.6 3.8.6 7.5 1.2 11.3 1.8 1.8 2.9 4.6 5.4 3.8 9.3-2 6.2-3.6 12.6-11.2 14.5l1.5-8.7c-2.5-3.4-2.7-7.4-3.4-11.3z" fill="#61080b"/><path class="st118" d="M246.5 255.7l3.9 1.8c3.1 7.6 9.1 6.5 15.4 5.5 2.9-.5 6-5.6 9-.1-6.9 6.7-19.9 7-26.5.8-2.6-2.4-4.1-4.7-1.8-8z"/><path class="st103" d="M267.2 234.8c-5.9.1-12-.9-16.9 3.7.5-2.9-1.4-7.4 1.9-8.3 5.5-1.6 10.7.9 15 4.6z"/><path class="st118" d="M248.5 242.3c-2.5 4.2-1.7 8.8-2 13.3-6.8-7.6-6.4-10.2 2-13.3z"/><path d="M325.4 234.9v-3.8c11.1-.6 18.8 7.4 28.1 11.4.6 1.9 1.3 3.7 1.9 5.6 1.7 3.5 1.2 6.3-2.6 8.1-6.8-10.1-20.7-11-27.4-21.3z" fill="#922025"/><path class="st109" d="M351.7 255.5c3.4-1.4 3.9-4.3 3.7-7.5 2.8 6 3 12.4 3.8 18.8v5.6c-3.3 5.5-1.7 13.8-9.4 16.9-2.5 1.9-5 2.3-7.5 0 1.2-3.1 2.5-6.2 3.7-9.3.2-2.2 1.8-3.8 2.9-5.6 2.8-3.6 4.4-7.4 2.1-12-1.1-2.2-1.5-4.8.7-6.9z"/><path d="M304.8 334.2h-13c-.4-5 7.3-2.9 6.8-7.9v-.9c.3-6.8 1.3-15.1-7.2-16.8-7.1-1.4-12.5 4-15.3 10.9-1.7 2.5-2.5 5.6-5.2 7.5-3.7-.3-3.8-2.9-3.5-5.7 5.6-4 6.6-11.6 13-15.3 13.2-7.7 20.8-4.6 22.6 10.2.1 1.1 1.1 2.1 1.7 3.2.1 1.6.4 3 1.9 3.9 2.6 4.1 2.6 7.9-1.8 10.9z" fill="#370406"/><path class="st108" d="M342.3 289.3h7.5c-3.7 8-8 9.8-14.9 5.5-4.9-3-9.7-6.4-13.2-11.2 7.6-.8 13.1 6.1 20.6 5.7z"/><path d="M301 326.9c1.2 7.9-7 3.9-9.3 7.3-4.4 0-8.7.3-13.1 0-4.3-.3-8-1.8-7.7-7.3 0-3.2.4-6.1 3.8-7.6 4.9 2.9 10.2 4.2 15.9 4.3 3.7.2 7.6.4 10.4 3.3z" fill="#2e1115"/><path d="M351.7 255.5c.5 7 7.3 14.5-1.8 20.6-2.1-1.3-2.8-3.3-2.9-5.6.2-4.5 2-9.3-2-13.1-.9-.9-1.6-1.9-2.2-2.9-1.1-2.7-3.1-4.5-5.8-5.6-5.1-4.5-11.8.8-17-2.8-5.2-7.1 2.7-8 5.4-11.3 7.2 3.1 12.6 9.4 21 10.7 4.1.8 1.9 7.5 5.3 10z" fill="#71141a"/><path d="M320 246.2c6.3-.6 12.9-4.6 18.5 1.8-2 2.5-5 1.9-7.7 2.5-7.7 1.6-9.3 6.4-4.5 12.8 3.8 5.1 10.3 6.8 14.6 11.4-1.3 4.3-4.5 4.3-8 3.5-4.5-4.2-9.9-7.1-13.8-12.1-5.9-7.5-2.7-13.5.9-19.9z" fill="#360d0e"/><path d="M332.9 278.1c2.6-1.2 5.3-2.4 7.9-3.6 1.3-3.4 3.3-5.3 7.2-3.4.7 1.7 1.3 3.3 2 5-1.3 1.3-2.5 2.6-3.8 3.8-4.5-1-9.9 5.3-13.3-1.8z" fill="#6f282b"/><path d="M274.8 242.5c5 2.6 3.5 7.2 3.4 11.3-3.1 1.6-5.5 5.6-9.8 2-3.7-3.1-3.3-6.3-1.1-9.9 1.1-1.8.7-3.5 0-5.3 2.5.6 5 1.3 7.5 1.9z" fill="#2e393e"/><path d="M301 326.9c-6.5-.6-13-1.3-19.5-1.8-3.7-.3-6.5-1.5-6.8-5.8 1.5-6.8 11.1-16.1 16.3-14.5 7.5 2.3 11 8.4 10.1 16.5-.2 1.9-.1 3.8-.1 5.6z" fill="#09080d"/><path d="M347.9 271.2c-2.4 1.1-4.8 2.3-7.2 3.4-7.1-.4-11.7-5-16.2-9.7-2.9-3-4.6-6.6-2.9-10.9 1.9-4.6 5.5-6.4 10.4-6 2.2.2 4.3 0 6.5 0 3.9.3 5.8 2.4 5.8 6.2-3.6 2.4-6.4-.8-9.6-1.2-1.9 0-4.5-1.6-5.2 1.3-.8 3.5 2.9 3.8 4.8 5.4 6.3 5.3 6.3 5.3 11.4-4.1 6.4 4.3 4.7 9.9 2.2 15.6z" fill="#171617"/><path d="M345.7 255.5c-.4 1.5-1.6 3.8-1.1 4.2 4.3 3.6.7 5.1-1.7 6.8-3 2.1-5.1 1.1-6.7-2-.7-1.3-2.1-2.2-3.2-3.3-2-3.7-5.3-7.6 1.8-9.5 3.9-2 6 3.1 9.5 2.6.5.4.9.8 1.4 1.2z" fill="#4d5355"/><path d="M334.8 251.6c-3.7 2.6-2.1 6.2-1.8 9.5-3.6-1.6-8.3-3-6.4-8.3 1.5-4 5-3.6 8.2-1.2z" fill="#1e3332"/></svg>