<svg xmlns="http://www.w3.org/2000/svg" xmlns:xlink="http://www.w3.org/1999/xlink" viewBox="0 0 371.87 552.81"><defs><radialGradient id="b" cx="185.94" cy="276.4" r="233.1" gradientUnits="userSpaceOnUse"><stop offset="0" stop-color="#fff"/><stop offset="1" stop-color="#f6f6f6"/></radialGradient><radialGradient id="a" cx="184.16" cy="275.42" r="81.09" gradientUnits="userSpaceOnUse"><stop offset="0" stop-color="#3c3c3b"/><stop offset="1" stop-color="#1d1d1b"/></radialGradient><radialGradient id="c" cx="60.76" cy="53.18" r="37.65" xlink:href="#a"/><radialGradient id="d" cx="307.72" cy="53.18" r="37.65" xlink:href="#a"/><radialGradient id="e" cx="307.72" cy="-295.53" r="37.65" gradientTransform="matrix(1 0 0 -1 0 203.09)" xlink:href="#a"/><radialGradient id="f" cx="60.76" cy="-295.53" r="37.65" gradientTransform="matrix(1 0 0 -1 0 203.09)" xlink:href="#a"/></defs><rect x="2.5" y="2.5" width="366.87" height="547.81" rx="29.23" ry="29.23" fill="url(#b)"/><path d="M340.14 5a26.73 26.73 0 0 1 26.73 26.73v489.35a26.73 26.73 0 0 1-26.73 26.73H31.73A26.73 26.73 0 0 1 5 521.08V31.73A26.73 26.73 0 0 1 31.73 5h308.41m0-5H31.73A31.76 31.76 0 0 0 0 31.73v489.35a31.77 31.77 0 0 0 31.73 31.73h308.41a31.77 31.77 0 0 0 31.73-31.73V31.73A31.76 31.76 0 0 0 340.14 0z" fill="#1d1d1b"/><path d="M217.57 321.15c34.65 0 41-24.15 36.31-45.21-6.4-28.49-69.64-39.26-69.64-90.5 0 51.24-63.4 62-69.79 90.5-4.73 21.06 1.65 45.21 36.3 45.21 31.26 0 33.37-36.79 33.49-44v.41c-.45 12.57-5.56 87.86-60.6 87.86h120c-50.08 0-57.9-62.33-59.13-83 1.13 12.45 6.64 38.73 33.06 38.73z" fill="url(#a)"/><path d="M76.27 74.41c16.1 0 19.06-11.21 16.86-21-3-13.23-32.33-18.23-32.33-42 0 23.8-29.44 28.8-32.41 42-2.2 9.78.76 21 16.86 21 14.51 0 15.49-17.08 15.55-20.41v.18C60.6 60 58.22 95 32.66 95h55.73C65.13 95 61.5 66 60.93 56.41c.52 5.8 3.07 18 15.34 18z" fill="url(#c)"/><path d="M323.23 74.41c16.1 0 19.06-11.21 16.87-21-3-13.23-32.34-18.23-32.34-42 0 23.8-29.44 28.8-32.41 42-2.2 9.78.77 21 16.86 21 14.51 0 15.49-17.08 15.55-20.43v.18C307.56 60 305.18 95 279.62 95h55.73c-23.26 0-26.89-29-27.46-38.59.52 5.8 3.11 18 15.34 18z" fill="url(#d)"/><path d="M323.23 477.38c16.1 0 19.06 11.21 16.87 21-3 13.23-32.34 18.24-32.34 42 0-23.79-29.44-28.8-32.41-42-2.2-9.78.77-21 16.86-21 14.51 0 15.49 17.08 15.55 20.44v-.19c-.2-5.84-2.58-40.8-28.14-40.8h55.73c-23.26 0-26.89 28.95-27.46 38.56.52-5.81 3.11-18.01 15.34-18.01z" fill="url(#e)"/><path d="M76.27 477.38c16.1 0 19.06 11.21 16.86 21-3 13.23-32.33 18.24-32.33 42 0-23.79-29.44-28.8-32.41-42-2.2-9.78.76-21 16.86-21 14.51 0 15.49 17.08 15.55 20.44v-.19c-.2-5.84-2.58-40.8-28.14-40.8h55.73c-23.26 0-26.89 28.95-27.46 38.56.52-5.81 3.07-18.01 15.34-18.01z" fill="url(#f)"/></svg>