<svg xmlns="http://www.w3.org/2000/svg" xmlns:xlink="http://www.w3.org/1999/xlink" viewBox="0 0 562.52 403.82"><defs><radialGradient id="b" cx="281.26" cy="368.69" r="196.1" gradientUnits="userSpaceOnUse"><stop offset="0" stop-color="#b1dde8"/><stop offset=".41" stop-color="#aedbe6"/><stop offset=".74" stop-color="#a4d5e2"/><stop offset="1" stop-color="#96ccdb"/></radialGradient><radialGradient id="a" cx="281.19" cy="385.73" r="159.09" gradientUnits="userSpaceOnUse"><stop offset="0" stop-color="#8bbac7"/><stop offset=".36" stop-color="#88b9c7"/><stop offset=".64" stop-color="#7eb5c5"/><stop offset=".91" stop-color="#6dafc3"/><stop offset="1" stop-color="#65acc2"/></radialGradient><radialGradient id="c" cx="281.26" cy="344.41" r="196.31" xlink:href="#a"/><linearGradient id="d" x1="81.32" y1="362.09" x2="481.11" y2="362.09" gradientUnits="userSpaceOnUse"><stop offset="0" stop-color="#265964"/><stop offset=".68" stop-color="#265964"/><stop offset=".8" stop-color="#265964"/></linearGradient><radialGradient id="e" cx="494.55" cy="178.27" r="95.23" xlink:href="#a"/><radialGradient id="f" cx="281.26" cy="198.64" r="184.39" xlink:href="#b"/><linearGradient id="g" x1="86.52" y1="25.41" x2="475.99" y2="25.41" gradientUnits="userSpaceOnUse"><stop offset="0" stop-color="#326d7b"/><stop offset=".57" stop-color="#336f7d"/><stop offset=".77" stop-color="#377484"/><stop offset=".91" stop-color="#3e7e8f"/><stop offset="1" stop-color="#45889b"/></linearGradient></defs><path d="M283.28 344.41H5c0 17.82 49.62 19.6 51.72 28.23v5.85l15.12 4.94 78.09 9.57h262.66l78.08-9.55 15.13-4.94v-5.85c2.1-8.63 51.72-10.41 51.72-28.23z" fill="url(#b)"/><path d="M281.19 393c-124 0-224.61-9.11-224.61-20.34v5.85c0 11.23 100.56 20.33 224.61 20.33s224.61-9.1 224.61-20.33v-5.85c0 11.21-100.56 20.34-224.61 20.34z" fill="url(#a)"/><ellipse cx="281.26" cy="344.41" rx="276.26" ry="27.46" fill="url(#c)"/><path d="M281.26 371.87c78.6 0 149.54-3.26 199.85-8.5-37.25-6.57-112.79-11.06-199.92-11.06s-162.6 4.49-199.87 11.05c50.32 5.24 121.29 8.51 199.94 8.51z" fill="url(#d)"/><path d="M552.39 114.78c-5.25-60.88-76.34-57.87-76.34-57.87h-23.68l-16.16 242.74c36.44-67.44 124.08-93.2 116.18-184.87zm-93 106.15l16.65-118.25s32-6.43 37 17.56 5.02 55.32-53.64 100.69z" fill="url(#e)"/><path d="M393.6 369.5c3-36 33.71-44.88 52-87.83C480.34 200.23 476 25.41 476 25.41H86.52s-4.34 174.82 30.38 256.26c18.18 42.64 48.57 56.28 51.95 87.83 34.34 1.52 72.38 2.37 112.41 2.37s78.02-.87 112.34-2.37z" fill="url(#f)"/><ellipse cx="281.26" cy="25.41" rx="194.74" ry="20.41" fill="url(#g)"/><path d="M281.26 5C388.81 5 476 14.14 476 25.41c0 0 .31 12.14.11 31.5h1.58c10.65 0 69.94 2.5 74.71 57.89 7.6 88.2-73.35 115.4-111.9 177.48q-2.08 3.87-4.28 7.36a175.42 175.42 0 0 1-15.87 21c82.05 4.76 137.18 13.6 137.18 23.73 0 17.82-49.62 19.59-51.72 28.23v5.85c0 11.23-100.56 20.33-224.61 20.33s-224.61-9.1-224.61-20.33v-5.85a1.8 1.8 0 0 0 .14.68v-.68C54.62 364 5 362.23 5 344.41c0-10.08 54.66-18.9 136.12-23.67-8.39-10.51-17.21-22.63-24.22-39.07C82.18 200.23 86.52 25.41 86.52 25.41 86.52 14.14 173.71 5 281.26 5m181.93 213c54.86-43.77 54.81-74.25 49.89-97.71-3.27-15.62-18-18.34-27.85-18.34a51.81 51.81 0 0 0-9.18.78l-1.79 12.71c-1.75 32.34-5 69.09-11.07 102.56M281.26 0C229.07 0 180 2.13 143 6c-18.11 1.9-32.38 4.13-42.42 6.61-9.41 2.33-19 5.67-19.1 12.72 0 1.68-1 45.27 2.18 98 4.36 72.09 14 126 28.6 160.34a156.82 156.82 0 0 0 19.08 32.69c-36.71 2.35-67.58 5.56-89.71 9.32-12.36 2.11-22 4.39-28.56 6.78-5.63 2-13.11 5.5-13.11 12 0 14.46 20 20 36.12 24.47 5.24 1.46 12.9 3.58 15.46 5.21v4.4c0 6.79 8.64 10 21.6 12.81 11.51 2.46 27.91 4.66 48.73 6.55 42.57 3.85 99.14 6 159.28 6s116.71-2.12 159.27-6c20.83-1.89 37.23-4.09 48.74-6.55 13-2.78 21.6-6 21.6-12.81v-4.31c2.4-1.64 10.26-3.82 15.6-5.3 16.09-4.46 36.12-10 36.12-24.47 0-6.5-7.54-10-13.2-12-6.65-2.39-16.33-4.68-28.79-6.79-22.24-3.77-53.22-7-90-9.32a154.36 154.36 0 0 0 9.91-13.89c0-.05.07-.1.1-.16 1.49-2.37 2.95-4.87 4.33-7.44 12.81-20.57 30.79-37.58 48.17-54 17-16.12 34.64-32.78 47-52.57 14-22.45 19.72-46.61 17.37-73.84-2.15-25-15.32-43.59-38.08-53.85-14.92-6.72-30.45-8.23-38.15-8.54.1-15.78-.13-25.86-.15-26.63-.07-7-9.69-10.39-19.1-12.72-10-2.48-24.3-4.71-42.41-6.61-37-3.87-86-6-138.22-6zm199.21 107.13c1.33-.13 3-.23 4.76-.23 13.24 0 21 4.83 23 14.36 2.18 10.44 3.62 23.17-2.3 38.41-5.74 14.75-17.41 29.8-35.53 45.76 4.09-26.16 7.07-56.21 8.88-89.56l1.23-8.74z" fill="#1d1d1b"/></svg>