<svg xmlns="http://www.w3.org/2000/svg" viewBox="0 0 566.9 566.9"><path d="M374.4 414.1c-1 1.7-15.6 5.5-17.9 4.2-1 3.7-4.5 2.9-7 3.7-3.1 1-6.5 1.2-9.8 1.7-.3 0-.6-.1-1.1-.1-.1-1-.1-2-.2-3-.3 0-.6-.1-.9-.1-.2 1.1-.4 2.2-.5 2.9-6.6 0-13.6.7-20.4-.2-5.1-.7-10.1-.3-15.1-.5-6.9-.3-13.7-.1-20.6.6-5.8.5-11.5.9-17.3 1.2-.7 0-1.5-.7-2.3-1.1-.6 2.5-3.2 2.4-5 2.3-6.2-.4-12.4-1.1-18.5-2-4.7-.7-9.4-2-14.1-2.7-5.3-.8-10.7-1.3-16.1-1.7-2.3-.2-4.7.3-7.1.4-2.8.2-5.6.5-7.6-2.4-1.7 4.5-5.6 2.1-8.4 2.3-3 .3-6-.7-9-1.2-.8-.1-1.5-.7-2-.9-6.1-1.1-11.6-3.2-17.4-4.9.5-.9.9-1.6 1.3-2.4-.3 0-.6-.2-.9-.1-1.6.2-3.4.9-4.9.6-7.5-1.7-14.9-4-22.5-5.5-4.8-.9-9.7-.7-14.6-1.2-1.4-.1-2.7-.8-4-1.3-1.1-.4-2.1-.9-3.2-1.4.4-1.6.1-2.3-2.3-1.5-2.3.8-5 1.7-7.2 1.3-2.6-.5-4.9-2.5-7.5-3.7-.8-.4-1.9-.3-2.9-.4.3.9.3 2.2 1 2.6 1.6 1 3.6 1.4 5.2 2.4 3.4 2.2 6.6 4.9 10.1 6.9 6 3.5 12.2 6.7 18.5 9.8 5.8 2.9 11.7 5.4 17.5 8.2.5.2.8.8 1.5 1.5-3.5 1.5-6.4.2-9.2-1.1-7.6-3.6-15.2-7.3-22.6-11.2-3.2-1.7-5.9-4-8.9-6-4.9-3.3-9.7-6.9-14.9-9.8-8-4.4-16.3-8.4-24.6-12.3-10-4.6-19.6-10-28.5-16.5-2.7-2-4.3-5.3-6.9-7.4-6.7-5.4-11.5-12.3-15.6-19.5s-5.8-15.5-5.7-23.8c0-3.8 2.5-7.7 4.3-11.4 1.4-2.9 3.4-5.5 5-8.3.6-1 1.2-2.3 1.2-3.4 0-5.1 1.7-9.6 4.1-14 .3-.5.4-1.2.8-1.6 8.1-9.5 17.2-17.5 28.5-23.3 7.9-4.1 16-6.3 24.4-7.6 3.3-.5 6.3-1 9.3-3.1 2.3-1.7 5.7-1.8 8.6-2.7.3-.1.7.1.9-.1 3-3.2 7.4-2.9 11-4.6 3.2-1.5 5.6-.1 5.5 3.2-6.7 1-7.4 1.4-7.9 4.5 1.5.1 3 .2 4.5.2 0 .3.1.5.1.8-1.2 1-2.4 2.1-3.8 3.3 3.9 1.1 7.2-3.8 10.8-1.2-4.7 3-9.1 5.7-13.5 8.4-.5.3-1.1.5-1.7.5-9.2-.2-18.2.3-27.2 2.4-7.5 1.7-14.5 4.4-20.7 9-3 2.3-6.3 4.3-8.8 7.1-2.5 2.8-4 6.4-5.9 9.6-3.2 5.6-5.2 11.5-4.7 18.2.1 1.2-1.1 3-2.3 3.7-5.3 3.2-7.8 8.4-9.3 13.9-.7 2.7.5 6 1 9 .6 3.4 1.3 6.7 2 10 .4 0 .9 0 1.3-.1 0-2.1-.1-4.2 0-6.3.1-1.2.1-2.6.8-3.5.9-1.2 2.8-2.9 3.6-2.6 1.5.6 2.4 2.4 3.5 3.8.3.4.2 1 .5 2.3 2-1.9 3.6-3.5 5.9-5.9.5 3 .8 5.1 1.1 7 1.7-.7 3.5-1.8 5.5-2.2 2.7-.6 3.6.6 2.9 3.2-1 3.7-.8 4.2 2.8 5.3 4.6 1.5 6.7 5.5 8.8 9.4.3.6 0 1.5 0 2.9-1.2-1.4-2-2.2-2.5-3.1-2.8-4.7-7.5-4.3-11.8-4-3.7.3-9.7 5.9-9.7 9.3 0 2.1 1.5 4.6 3.2 6 .9.8 3.5.1 5.1-.4 1.9-.7 3.5-1.9 5.7-2.4-.3.4-.6.8-.9 1.3-.5.9-.9 1.7-1.4 2.6 1 .1 2.1.4 3.1.4 1.1-.1 2.2-.4 3.5-.7-1.6 4.8 5.2 4.7 4.7 9.6-2.1-1.1-4-1.8-5.4-3-1.8-1.6-3.1-3.6-6.1-3.1-1.1.2-2.3-.6-4.4-1.2.8 1.3 1.1 2.1 1.6 2.3 2.7 1.2 3.6 3.5 4.1 6.1.1.8 1 1.4 1.5 2.1.5-.5 1.2-1 1.5-1.7.7-1.9 1.9-1.8 3.5-1.1 1.7.7 3.4 1.2 5.1 1.9 1.8.8 3.6 1.3 4.1 3.9.9 4.9 7.5 7.9 12.1 6.2 1-.4 2.3-.3 3.9-.5-.3 1.4-.5 2.1-.7 2.9.2.1.3.1.5.2.4-.7.9-1.3 1-1.5 5.8 1.7 11.3 3.2 16.7 5.2 2.3.8 4.2 2.8 6.4 4.3 1.1-3.1 3.5-.7 5.6-.6 5.1.3 10.2.3 15.3.6 1.9.1 3.9.4 5.8.8 8.5 1.9 17 3.7 25.4 6 7.7 2.1 15.1 4.9 22.8 7.1 2.6.7 5.5.7 8.2.7 12.3 0 24.5-.3 36.8-.2 3.2 0 6.4 1.2 9.6 2 7.1 1.7 14.1 3.8 21.3 5 2.8.5 5.9-1.1 8.9-1.4s6-.3 9.1-.5c1.9-.1 3.8-.6 5.7-.8.9-.1 1.7.1 2.6.2.2.3.3.7.5 1-1.2 1-2.3 2-3.5 3 1.9 2.1 2.8-.6 4.3-1.2-.2-1.2-.3-2.2-.5-3.4 6.3-.3 12.5-.7 19-1-.1 1.1-.2 2-.3 3 .2.1.4.3.6.4.4-.7.7-1.6 1.3-2.2.5-.6 1.3-1.4 1.9-1.4 8.4.1 16.8.3 25.2.7 1.6.1 3.2 1 4.8 1.6.2.1.3.6.5.5 1.8-.3 3.6-.8 5.3-.8 5.8 0 11-2.4 16.4-4 3.1-.9 6.3-1.5 9.4-2.4 6.1-1.9 12.1-4.2 18.4-5.8 8.5-2.2 17.3-2.6 26.1-2.1 2.8.1 5.7.5 8.6-1.2 6-3.6 12.6-6.1 19.5-7.8 7.4-1.8 14.6-4.8 22.1-6.2 6.6-1.2 13-2.7 19.3-5 2.7-1 5.5-2 8.3-3.6.1 1.1.2 1.9.4 3 .2-.6.4-1.1.8-2.3.6 1.5.8 2.2 1.1 3 .2 0 .5-.1.7-.1-.2-1.1-.4-2.2-.7-4 1.1 1.3 1.8 2.3 2.9 3.5 0-2-.1-3.3.1-4.6 0-.2 1.9-.6 2.2-.2.5.6.5 1.6.9 3.6 1.3-6.5 6.2-6.6 10.1-7.8 1.2.8 2.3 1.6 3.8 2.6-1.1-3.7-.5-4.9 2.6-5.7 4.6-1.2 8.4-4.1 12.3-6.5 3.7-2.3 7-5.4 10.9-8.5 5.3 1.8 5.5-6.8 10.6-6.9.5-3.7 2.5-6.5 6.3-8 3.5-1.4 4.5-4.8 5.4-7.8 2-6.1 3.4-12.4 2.2-18.8-.8-4.2-2-8.3-3.1-12.4-.5-2-1.2-4-1.9-6-.1-.4-.4-.9-.8-1.2-3.8-2.9-6.2-6.6-7.7-11.1-.8-2.3-2.6-4.2-4-6.3-1.3-2-2.7-3.9-3.9-5.9-.3-.5.1-1.5.3-2.8 4.5 3.8 7.3 7.8 8.2 13.1.2 1.4 1 3 2.1 3.8 6 4 10.2 9.4 13.2 15.8.9 2 1 4.5 1.5 6.7.4 1.7.8 3.3 1.2 5 1.7 7 1 14-.9 20.8-.5 1.7-1.2 3.4-1.8 5.2-1.1 3.5-2.8 6.5-6 8.5-2.7 1.7-5.1 3.7-7.8 5.3-1.7 1-3.7 1.5-5.9 2.4-.1.3-.4 1.1-.8 2.4-.8-1-1.3-1.6-1.8-2.3-.1.2-.3.4-.3.5 2.2 2.5.2 4.3-1.4 5.6-5 3.7-10.2 7.1-15.3 10.6-.7.5-1.7.7-2.6.8-3.8.5-6.8 2.3-9.8 4.8-3.6 3-7.9 4.6-12.5 3.9-.4.7-.7 2-1.3 2.1-5.4 1.3-9.5 5.8-14.9 7.1-.1-.3-.1-.6-.2-.8-.7.8-1.2 1.9-2 2.4-5.1 3.2-10.3 6.3-15.5 9.4-8.2 4.9-16.4 10.1-24.8 14.7-9.8 5.3-19.7 10.3-29.9 14.9-6.8 3.1-14 5.5-21.1 7.8-1.8.6-4.1 2-6.4-.2.6-.4 1-.9 1.4-1 4.5-1.2 9.1-2.2 13.6-3.5 2.5-.7 4.9-1.8 7.3-2.9 8.8-4.1 17.7-7.9 26.3-12.4 7.1-3.7 13.9-8.3 20.8-12.5 7.2-4.4 14.4-8.7 21.5-13.1 1.4-.9 4.3-.2 4-3.6-2.8 1.3-5.7 2-8.5 2.9-3 .9-5.9 3.6-9.5 2.2-.3-.1-.8.4-1.2.6-1.6.9-3 .8-4.2-.9-.4-.6-1.5-.7-2.3-1.1.4 1.4.7 2.3 1 3.2-2.4.6-4.9 1.1-7.3 1.7v-.4c-.7.4-1.3 1-2 1.2-6.2 2.1-12.7 3.7-18.7 6.3-5.7 2.5-11.3 5.3-17.5 5.1-9.1-.3-17.6 2.3-26.4 3.8-1.7.7-3 .3-4.5.2zM33 281.8c1.8-1.2 4.2-2.1 5.4-3.9 3.9-5.8 9.8-8.9 15.6-12.2 7.6-4.2 16.2-5.2 24.5-6.9 1.5-.3 3-.8 4.5-1.2 0-.3 0-.6-.1-.8-.8-.3-1.7-.7-2.5-1 .3-.7.7-1.4 1.2-2.5-1.7.4-3.4 1.4-4.2 1-2-1.3-2.9-.5-4 1.5.3-3.1-1.3-3.3-3.3-2.8-17.1 4.4-32.3 11.9-44 25.5-.7.8-1.1 1.9-1.6 3 1.8.7 3.2 1.2 5.5 2.1-.4-2.4-.7-4.2-1-5.9.2-.1.5-.2.7-.4.9 1.3 1.9 2.6 3.3 4.5zM9.7 326.2c.6-5 1.1-9.3 1.7-14.1-3.8 3.3-4.5 8.7-1.7 14.1zm78.9-70.9c3.7.3 6.4-.9 6-2.7-.2-.8-1.9-1.9-2.8-1.9-2.8 0-3.4 2-3.2 4.6zm-62.7 99.4c.4.1.7.1 1.1.2.4-1.3.7-2.7 1.1-4.1-1.8-.2-3.1-.3-4.8-.5.9 1.5 1.7 2.9 2.6 4.4zm402.7-211.4c.9-.1 1.9-.5 2.7-.2 9 3.2 17.8 7.2 24.6 14.1 2 2 3.6 4.9 4.4 7.6 1.6 6 2.7 12.1 3.7 18.2.2 1.3-1 2.9-1.6 4.4-.8 1.8-1.2 4-2.5 5.3-2.1 2.1-4.7 3.6-7.4 5.5-.7-3.5-.7-6.5-1.8-8.9-1.1-2.4-.9-4.3-.3-6.8 1.3-5.9-.3-11.3-4.7-15.6-3.3-3.2-6.7-6.3-10.2-9.4-.6-.5-1.4-.6-2.2-.9-1.2-.4-2.6-.6-3.7-1.2-7.6-4.3-16-5.9-24.6-6.9-3.9-.4-7.9-1-11.7-.7-4.3.2-8.5 1.2-12.7 2.1-.8.2-1.2 1.6-1.6 2.2-6.5-3.8-12.5-7.7-18.8-10.7-5.1-2.4-10.6-3.9-15.9-5.7-3.7-1.2-7.4-2.8-11.3-3.2-3.3-.3-5.7-3.8-9.3-2.3-2.7-3.2-6 0-9.1-.8-3-.8-6.3-.7-9.5-.9-5.2-.4-10.3-.7-15.5-1-4.8-.2-9.6-.7-14.4-.2-8.3.9-16.7.1-24.8 2.9-3.7 1.3-8 1-11.5 2.5-4.4 1.9-9.2 1.1-13.5 3.8-7.3 4.5-15.3 7.9-22.9 11.7-.4.2-.8.7-1 1.2-1.6 2.5-4.4 2.8-6.8 2.6-3.7-.2-7.3-1.2-10.9-1.9-1.1-.2-2.2-.2-3.3-.3-4.2-.3-8.4-.7-12.6-1-.4 0-.8-.1-1.2-.1-9.1 1.3-18.3 2.4-27.4 4-3 .5-5.7 2.2-8.6 3.3l-4.8 1.8c-.7.3-1.5.6-2.2 1-1.5.7-3.3 2.4-4.3 1.9-1.3-.6-1.8-2.7-2.9-4.6-2.1 1.7-4.7 3.7-7.5 5.9 1 .8 1.6 1.4 2.3 1.8.5.3 1.2.4 1.8.6 0-.6 0-1.3.1-1.9.2-1 .5-2 .7-3 .6.6 1.1 1.2 1.7 1.7 2 1.8.6 3.1-.5 4.6-2 2.6-4.1 5.2-5.7 8-2.9 5-3.6 10.4-2.9 16.1.3 2.2.1 4.2-1.9 5.8-1 .8-1.9 2.2-2 3.4-.1 3.5-2.9 3-4.7 3-2.1 0-2.6-1.9-2.8-4-.3-2.6-1.1-5.2-2-7.6-.3-.7-1.4-1.2-2.3-1.9 0-10.7 4.7-19.4 12.7-26.3 6.2-5.3 12.8-10.2 19.7-14.7 3.3-2.2 7.7-2.8 11.4-4.3 2.8-1.2 5.3-3.2 8.1-4 10.3-3.1 20.9-5.1 31.6-6.5 10.6-1.4 21-3.6 31.4-5.8 13.2-2.8 26.3-6.1 39.5-8.9 5.8-1.2 11.9-2.6 17.6-2.1 5 .4 9.5-1.7 14.5-1 5 .6 10 0 15.1.2 5.9.2 11.8.6 17.7 1.3 4.5.5 8.8 1.8 13.3 2.5 7.2 1.1 14.4 2 21.6 3 6 .9 12.1 1.6 18 2.9 1.9.4 3.6.1 5.4.4 1.3.2 3.2-.7 3.7 1.6 0 .2 1.8 0 2.7-.2.9-.2 1.9-1.2 2.6-1 3.1 1 6 2.3 9 3.5 1.6.6 3.1 1.4 4.7 2 2.8 1.1 5.6 2.5 8.6 3.3 8.4 2.2 16.9 4.1 25.3 6.2 1.5.4 2.9 1.4 4.3 2.1-.4.2-.5.4-.7.5zm-191.4-13c0 .2.1.4.1.6 1-.6 1.9-1.4 2.9-1.8 1.7-.6 3.4-1.2 5.1-1.4 7.9-1.2 15.7-2.7 23.7-3.3 8.4-.6 16.9-.4 25.3-.2 6.3.2 12.7.6 18.9 1.5 7.1 1 14 3.1 21.1 4 7.9 1 15.1 3.9 22.2 6.9 4.5 1.9 8.8 4.2 13.1 6.3.1-.2.2-.3.3-.5-2-1.3-4-2.5-5.9-3.7.4-.9.7-1.6.9-2-3.2-1.2-6-2.3-8.8-3.4 1.8-5.1 1.8-5 6.4-4 2.3.5 4.7.3 7 .4 0-.4.1-.7.1-1.1-3.7-.6-7.4-1.1-11.1-1.7-3.3-.5-6.6-1.1-9.9-1.8-.9-.2-1.7-.9-2.6-1-1.9-.1-3.8.4-5.6.1-4.3-.6-8.6-1.7-13-2.3-5.4-.8-10.9-1-16.2-2-13.3-2.4-26.7-2.4-40.2-2.2-8.5.2-16.9.8-25.2 2.8-3.7.9-7.4 1.5-11.1 2.3-2.2.5-4.4.8-6.5 1.5-5.1 1.4-10.1 3-15.1 4.5-4.2 1.3-8.4 2.7-12.5 4.1-.6.2-1.1 1.1-2 2.1 4.3-1.4 7.8-2.4 11.2-3.5.5 2.3.9 4.2 1.2 5.6-3.2 2.6-6.1 5-9 7.4 6.1-2.5 11.7-5.8 17.6-8.3 5.7-2.2 11.7-3.9 17.6-5.9zm223.3 48.6c-.6-4.8-2-8.9-4-12.8-.8-1.5-1.2-3.1-1.7-4.4-.8-.6-1.6-1.2-2.3-1.9-.5-.6-.7-1.6-1.3-2-5.1-3.3-9.6-7.8-16-9.1-2-.4-3.8-2.2-5.7-3.4-1.2-.5-2.8-.2-4.4-.6-7.6-1.7-15.2-3.6-22.8-5.4-1.8-.4-3.5-1.1-5.2-1.6-2.7-.8-5.5-1.6-8.4-2.5.9 4.1 4.2 1.9 5.8 3.4-.1 1.2-.1 2.3-.2 3.5 1.8-.6 3.1-1 4.7-1.4.2.6.4 1.4.9 2.8-4.5 0-8.6.5-12.5-.2-2.1-.4-3 .3-4.6 1.5.8.3 1.3.6 1.7.6 10.2-1.6 20.3-.9 30 2.2 6.6 2.1 13 4.9 19.5 7.4 8.6 3.3 15.4 8.1 19.3 17.1 1.7 4 2.7 7.4 1.4 11.5-.1.4.6 1.2.9 1.7.3 0 .6-.1.9-.1.6-2.4 1.1-4.8 1.7-7.3.4.1 1 .4 2.3 1zM144 148.2c14.4-3.4 29.2-1.3 44-1.8-1.4-.3-2.8-.6-4.6-1 .8-.3 1.2-.3 1.5-.5s.5-.6 1-1.2c-4.7-.3-9.1-.6-14.2-.9.7-1.5 1-3 1.9-3.7.6-.4 2.1.6 3.3 1 1.8-2.8 3.5-3.2 5-1.5 1.3-1.1 2.5-2.2 3.7-3.4-.8-.2-1.6-.6-2.4-.5-6.6.8-13.2 1.5-19.8 2.7-3.8.6-7.4 2-11.1 3-1.7.5-3.3 1-5 1.5-4 1.2-8 2.3-12 3.6-4.7 1.5-8.7 4.2-12.8 6.8-1.5 1-3 2-4.1 2.7.5 1.7.8 2.9 1.1 4.1 3.7-2.1 7.6-4.3 11-6.3.1-1.4.2-2.5.4-3.4 0-.2 1.3-.4 1.5-.2.5.7.7 1.5 1 2.5 2.7-.9 5.6-1.8 8.4-2.8-.8-1.2-1.4-1.9-1.9-2.7.9-.4 1.7-.9 2.6-1.3.6 1 1 1.9 1.5 3.3zm56.2-10.4c-3.1-2.2-5.5-4-8-5.7-.1-.1-1.2.8-1.2 1.2-.1 3-1.2 5.4-3.7 7.3-.4.3-.2 2 .1 2.2 2.8 1.4 5.8 2.7 8.8 4 .4-3-1.6-7.2 4-9zm182.4 1.3c-2.2-3-4.4-6.1-6.5-9-2.2 1.7-4.1 3-5.9 4.5-.5.4-.6 2-.3 2.3 2.5 2.4 5.1 4.6 7.5 6.6 1.3-1 3.1-2.6 5.2-4.4zM93.1 183.4c.8 2.5 1.2 4.6 2.2 6.4.4.7 2.1.7 3.3 1 .2-.9.6-1.8.5-2.8-.1-3.2-2.5-4-6-4.6zm15.3-13.8c.4-.8 1.1-1.6 1-2-.6-1.2-1.5-2.3-2.4-3.6-.6.8-1.1 1.3-1.5 1.9.9 1.3 1.7 2.3 2.9 3.7z"/><path d="M305.5 158.1c-.4 2.2-.8 4.5-1.2 6.7l.1-.1c-1.8-.3-3.7-.3-5.3-1-2.9-1.3-6.3-.6-8.3 1.9-1 1.3-2.7 2.1-3.3 3.4-1.3 2.9-2.5 5.3-6.2 4.9-.5 2.5-2.8 4.1-3.3 6.8-.6 3.4.9 5.9 2.2 8.7-.3.2-.6.5-.9.7-.8-.7-2-1.2-2.4-2.1-1.2-2.7-2.9-3.3-5.8-1.6 2.2 2.8 7.8 2.5 6.7 7.9-.7-.1-1.4-.3-2.6-.6.6 1.3 1.1 2.3 1.5 3.3.9 2.3 2.5 2 4.4 1.3v-8.6c1.9 2.1 3.2 4.2 2.1 6.9-1.1 2.5-1.5 5.8-3.4 7.3-1.9 1.6-5.4 2.2-7.9 1.7s-4.2-3.4-4.1-6.2c0-1.9.9-3.9 1.4-5.8.2-.9.6-1.7.9-2.5-3-.6-6.3 1.1-9.3 5.1-1.1-2.8-3-5.4-2.6-7.5.5-2.4 3-4.4 4.8-6.7-2.6-2.5-4.5.1-5.9 1.3-1.4 1.1-2.3 3.3-2.6 5.2-.2 1.3 1.1 2.7 1.8 4.1.5 1.1 1.1 2.3 2 4.1-2.1-1.9-3.5-3.3-5.1-4.8-.3 1.5-.5 2.6-.8 3.7-.5-.5-1-1.1-1.7-1.9-.3 1.1-.5 1.8-.7 2.4-2.5-.3-4.9 3.5-5.1 8.4 1.2-1.2 2.3-2.5 2.7-4 .5-2 1.1-3.5 3.5-3.2-2.9 4.1-1 8.5-.7 12.8 2.6-4.1.5-8.5.6-12.7.4-.6.9-1.3 1.3-1.9.6 4 .9 8.1 1.8 12.1.5 2.5-1.6 5.5-4.1 5.1-1.1-.1-2.3 0-3.4-.3-2.1-.7-3.8-1.9-3.6-3.7-1.4-1.2-2.8-1.8-3.2-2.8-1.7-4.1-2.1-8.2.2-12.3.7-1.3 1.2-2.7 1.9-4.5-3.9 1.1-5.4 3.2-5.6 6.6-.2 3.8-1.9 7.4-.4 11.5.5 1.3-1.4 3.4-2.5 5.8-1.9-3.7-3.3-6.4-5.1-9.7-.8 2.2-1.4 3.9-2.3 6.2 1.7-.4 2.7-.6 3.9-.9-.9 5.8-7.3 10.2-10.3 8.3-1.7.6-2.8 1.3-4.1 1.5-.5.1-1.5-.7-1.7-1.3-1.5-4.1-3.6-8-1.8-12.7 1.1-2.8-.4-4.4-3.2-3.7l-.3-2.4c-.1-.8-.2-1.5-.4-2.7 2.9 1 5-.4 4.9-2.5-.1-2.2-.3-5-2.8-6.5-.9 1-1.6 1.8-2.2 2.4.9.6 2.2 1.1 2.6 2 .3.7-.6 1.9-1.6 2.8-.3-.8-.6-1.7-1-3-1.1 2.4-3.7 3.6-2.2 6.7.5.9-.1 2.8-.8 3.8-.9 1.2-2.4 2.1-3.6 3.1-.7-1.1-1.8-2.2-1.9-3.3 0-1.4.7-2.9 1.4-4.2.5-.8 1.6-1.3 2.9-2.4-1.8-.5-2.9-.8-4-1.1 3-3 5.8-6 9.2-9.4-1.9-.2-3.2-.3-4.5-.4 0-.2-.1-.5-.1-.7 1.4-.3 3.1-1.1 4.2-.6 3.1 1.3 6.6 2.4 7.7 6.3.2.6 1.4 1.3 2 1.2 1.5-.3 3.1-.8 4.3-1.6 3.4-2.3 6.9-2.3 10.6-.8.8.3 1.7.3 3 .6-1.2-3.9-4.8-2.2-7.4-4.5 3.4.6 6.2-2.6 8.7 1.3.9 1.4 4.4-.2 6.3-2.7-2.2-3.4-3.2 2.5-4.8.4-.5-.6-.9-1.6-1.4-1.6-3.2-.2-6.4-.2-9.6-.2-.5 0-1.4.5-1.4.8 0 .9.4 1.7.6 2.3-1.6.3-3.4 1-5.2 1-1.5 0-2.9-1-4.4-1.5.7-1.2 1.3-2.4 2.1-3.5.3-.5.9-.7.8-.6-1.1-3.1-2.1-5.8-3.1-8.5-.2-.7-.2-1.5-.6-2-2.1-2.1-1-3.1 1.2-3.6 6.7-1.4 12.6-.2 18 4.5 4 3.4 7.4 7 10.3 11.3.7 1 3.2 1.5 4.7 1.1 1.1-.2 3.8-.7 2.6-3.4-.1-.1.7-.5.9-.8.5-.7.9-1.6 1.8-3-4.2 1.3-7.4 1.5-10.8-.5.9-1.1 1.5-1.8 2.5-2.9-2.2-.6-4.1-1.1-6.1-1.6.2-2.8.2-2.8 7.6-3.1-1-2.5-1.9-4.9-2.8-7.2-1.5-3.7.9-9.7 4.6-11 .6-.2 1.3.1 2.4.2-1.4 3.8-7.7 4-6.3 8.6 2.4-.3 4.9-.7 8-1.1 0 .9.1 2.1.2 3.9-1.6-.4-2.8-.8-4.1-1.1 2.9 3.4 5.7 6.8 8.6 10.2-.1.1-.1.2-.2.4-2.4-1.3-4.9-2.6-7.9-4.2 3.6 6.8 10.7 9 18.5 6-1.3 1.6-2.2 2.7-2.9 3.8-.4.6-.4 1.4-.6 2.1.7 0 1.5.3 2.2.1 2.4-.6 4.8-1.2 7.5-2-3.1-3.7.8-6.2.8-9.3l-.1.1c.2 1 .3 2 .6 3.4 0 0 .4.4.7.3 5.4-2 9.8-5.2 10.9-11.1.7-3.8-2.2-6.2-5.4-8.2-.6.6-1.1 1.2-1.8 1.6-.6.4-1.4.5-2.1.8-.1-.8-.6-2-.3-2.4 1.8-2.2 1.2-4.4.2-6.6 3.2-1.6 3 2.1 5 2.8-.2-2.1-.5-4.1-.7-6.2 5.4-.1 6 4.7 9 7.1-.1-1.3-.1-2.6-.4-3.8-.6-2.8 1.8-8.1 4.3-8.2 1.7-.1 3.5 1.6 5 2.3-2.1 3.1-3.8 5.6-5.5 8 .4-2 .9-4 1.3-5.9-1.9-.3-3.2 1.1-3.4 4.3 0 .7.9 1.4 1.4 2.1-.1.7-.3 1.4-.5 2.9 1-.7 1.4-1.1 1.8-1.3 3.4-2 6.7-4 10.1-5.9.3.4.6.7.9 1.1-1.1.6-2.2 1.2-3.3 1.7.2.2.3.4.5.6 1.2-.5 2.3-1 3.5-1.5.1 0 .5.8.8 1.2-2.4.1-3.8 1.7-4.9 3.6 4-.4 8.1.5 11.8-1.8.9-.6 3 .9 5.3 1.7-2.7 2-4.4 3-7.1 2.3-2.2-.5-5-.7-6.6 2.2-.7 1.3-2.4 2.1-3.4 3.2-.2.2.2 1.1.3 1.6 0-.2 0-.1.1 0zm-13.8-6.2c.3 1.8.5 3.6.8 5.3.3-.1.6-.1 1-.2.3-2 1.4-4.2-1.8-5-.4-1.4-.6-2.9-1.2-4.2-.9-1.7-2.3-1.9-3.8-.9.9 1.4 1.9 2.6 2.4 4 .4 1.7 1.3 1.5 2.6 1zm-72.7 46c4.5-6.7 6.6-7.8 10.2-5.2-6.4 5.4-10.8 12.2-14.4 19.6.4.3.7.6 1.1.9 1.7-1.9 3.4-3.7 5.1-5.6.2.1.4.2.5.3l-2.1 5.1c.3.2.6.4 1 .6.9-1.1 1.9-2.2 2.5-3.4 2.2-4.1 3.8-8.5 6.5-12.2 1.3-1.7 1.3-2.2.1-3.1 1-1.1 2-2.2 2.9-3.2-2.7-2.4-5.2-3-8.1-1.2-2.4 1.5-5.6 2-7.5 3.9-1.6 1.6-1.8 4.6-2.7 7 3.5 1.2 5.7-.1 6.8-3.9-.4.2-1 .3-1.9.4zm29.9-8.1c2.7.3 6.3-4.5 6-7.9-4.9.3-4.9 4.5-6 7.9zm-19.8-22l-.9.9c3 2.6 5.9 5.3 8.9 7.9.3-.2.6-.5.8-.7-1.6-2.4-3.1-4.9-5.1-8-.7 1.5-.9 2.1-1.2 2.7-1.1-1.2-1.8-2-2.5-2.8zm-1.7 1.7c-2.1-2.5-4.1-3.5-6.7-3-.7.1-1.3.7-2 1 .5.7 1 1.9 1.6 1.9 2.2.3 4.3.1 7.1.1zm14.1 25.7c.2 0 1.1.2 1.3 0 2.3-2.8 6.3-5 3.5-10-1 .2-2.2.5-3.7.8 1.5 1.1 3.2 2.2 3.1 2.4-1.1 2.2-2.5 4.3-4.2 6.8zm4.8-.1c-.4-.2-.7-.5-1.1-.7-1.7 2.6-3.3 5.3-5.3 8.5 6-.5 4.3-5.4 6.4-7.8zM231.5 177v-.8c-2.6-.4-5.1-.8-7.7-1-.6 0-1.2 1-1.8 1.5.6.4 1.2 1.1 1.8 1.1 2.5-.2 5.1-.5 7.7-.8zm-1.9-3c-.1-.2-.1-.3-.2-.5-1.7-.8-3.4-1.7-5.3-2.3-.6-.2-1.5.5-2.3.9.5.7 1 1.8 1.5 1.9 2.1.2 4.2 0 6.3 0zm46.4 26.1c-1-1.6-1.8-2.9-3-4.9-.6 3-1.5 5.2.6 7.4.8-.8 1.5-1.5 2.4-2.5zm-6.3-16.9c.2.3.4.7.7 1 1.4-.8 2.8-1.5 4.2-2.3-.4-.8-.8-2.1-1.4-2.2-2.8-.4-2.7 2-3.5 3.5zm-37.1 18.9c.5.1 1.1.2 1.6.4.5-2.9 1-5.9 1.5-8.8-.4-.1-.7-.1-1.1-.2-.6 2.9-1.3 5.8-2 8.6zM124.7 331.6c-1.3 0-2.6-.3-3.7.1s-1.9 1.6-2.9 2.5c0 .4 0 .7.1 1.1 4 .7 8.1 1.4 12.6 2.2-.4-1.4-.5-2-.5-2.1 3.5 1.7 7.2 3.5 10.5 5.1-1.1.2-2.5.7-4 .9-1.7.2-3.5.9-4.7-1-.3-.4-.9-.8-1.3-.7-5.3.9-10-1.4-14.9-2.7-.1 0-.3.2-.5.3 1 5.5.8 6.6-2.3 7.7-2.5.9-5.3 2.5-7.2-1.6.6-.5 1.3-1 2-1.5 2-1.6 4.1-3.1 6-4.8.4-.3.2-2-.3-2.4-.8-.7-2.1-1.3-3.1-1.2-2.5.2-4.9 1-7.3 1.2-.8 0-2.1-1.1-2.4-2-1.9-5.6-2.6-6.1-8.5-6.4-5.3-.2-7.1.3-9.3 2.8 1.2.3 2.1.7 3.2.9 1.6.4 3.4.3 4.8 1 2.2 1.1 4.2 2.5 6 4.1 1.1 1 1.8 2.5 2.6 3.7-1.8.9-3.7 2.8-5.5 2.6-3.5-.3-7.7-.4-8.5-5.4-.1-.6-.9-1.3-1.4-1.5-3.4-.9-6.8-1.7-10.2-2.5-.1.3-.1.6-.2.8 2.8 2.3 5.7 4.3 8.2 6.8 2.5 2.6 5.3 5.3 5.3 9.7-2.7.3-5.2.7-7.5-1.7-3.4-3.5-6.4-7.1-8-11.7-.3-.8-1.3-1.6-2.1-2-.6-.3-1.7-.3-2.2.1-.4.3-.2 1.4 0 2.1.1.7.5 1.3.8 2.1-1.1.3-1.9.5-2.8.7.3 1.8.6 3.5.9 5.2-.4.1-.7.2-1.1.3-.4-.9-1.1-1.8-1.1-2.8-.1-3.3-.2-6.6.1-9.9.2-1.5 1.3-2.9 2-4.4.3-.6.7-1.7.5-1.9-.5-.5-1.4-.9-2.1-.8-1.4.1-2.8.6-4.2.9-.9.2-1.9.4-2.7.2-2.1-.5-4.1-1.3-4.5-3.9 1.8-.2 3.6-.6 5.4-.6 1.4 0 2.8.2 4.2.5 1.8.3 3.7-.1 5.2 1.7.5.7 2.7.2 4.1-.1.9-.2 1.7-1.2 2.5-1.8.2.2.4.4.7.6-1 1.4-2 2.8-2.9 4.4-.4.8-.4 1.8-.5 2.7.9-.2 1.8-.4 2.6-.7.8-.4 1.5-1 2.4-1.4 2.6-1.3 2.6-2.9.7-5.1-.9-1.1-.9-3-1.3-4.5 5.3-.7 8.2-3.1 8.1-7.8-.2-7.8.2-9-6.1-10.9-2.8 3.8 3.5 6.5 1 10.4-1.4-1.7-3.1-3-5.3.6 1.3-3.3 3-5.5 2.6-7.3-.5-2-2.8-3.5-4.4-5.3 1.8-1.8 3.5-1.8 5.6-.5 1.2.8 2.9.9 4.9 1.4-2.1-2-3.5-3.3-4.8-4.6.3-.4.5-.7.8-1.1 1.2.3 2.4.7 3.9 1.1.4-2.7-1.2-4.4-3.1-5.4-2.5-1.2-4.1-2.5-4.6-5.5-.2-1.6-1.7-2.3-3.6-1.6-.8.3-1.8-.4-2.8-.6.8-.7 1.6-1.9 2.3-1.8 1.6.3 3.1 1.2 4.6 1.9l2.1.9c.2-.8.5-1.7.5-2.4-.3-3.1-.8-6.2-1-9.3-.1-1 .5-2.1 1.2-3.2 1.7 2.7 3 5.4 2.8 8.6-.1 3.6-.9 7.2 1.2 10.5 1.1 1.8 1.9 2.6 3.8 0 0 4.6.5 8.4 3.4 10.7 2.9-1.3 5.5-2.3 8-3.5.5-.2 1.1-.9 1.1-1.3-.1-.6-.6-1.5-1.1-1.6-.8-.2-1.9-.1-2.5.4-1.1.7-1.9 1.7-3 2.7-1.9-2-2-4-.8-5.9 3.1-4.9 6.2-.3 9.6.4.7-3.4-3.5-7.1.3-9.7 2.9-2 5-6 10.3-4.1-1.3 1-2.7 1.8-3.7 2.9-1.8 1.9-3.7 3.9-4.9 6.2-.5.9.4 2.7 1 3.9.2.4 1.5.6 2.1.4 3.8-1.1 6.1 1.4 8.7 3.2 1.8 1.2 3.3 2.8 5.6 4.8 0 2.4-3.8.4-4.8 2.2 1.9 2.2 3.7 4.5 5.6 6.7 1.6-.1 3.3-.2 5.3-.4-.6 4.3-2 5.5-6.6 6.6.8 2.6-.8 2.9-2.8 3.9-2.7 1.4-4.7 4.1-6.9 6.2.1.3.3.6.4.9.8 0 1.6 0 2.4-.1.9-.1 1.7-.4 2.9-.1-.4.5-.8 1.2-1.3 1.6-1.7 1.4-3.4 2.7-5.2 4-.5.4-1.4.1-2 .4-.9.4-1.7 1.1-2.5 1.7.8.7 1.4 1.7 2.3 2 3 .9 5.4-.3 7.3-3.1.3-.4.9-.5 1.4-.8-.2 1.2-.3 2.2-.4 3.3l3.6.3h6.4c-.6.3-.6.7-.6 1.2zm-28.3-11.9c.1.2.2.5.4.7 1.2-.4 3.1-.5 3.6-1.4 2-3.7 5.3-2.7 8.2-2.3 2.1.3 3-.4 3.9-2 2-3.6-.1-7-.1-10.8 1.3 1.8 2.6 3.7 3.9 5.5 3.9-1.5 4.4-4 1.2-6.8-1.7-1.5-3.8-2.5-5.9-.8-1.5 1.3-3.3 2.9-1.8 5.4.2.4-.1 1.1-.2 1.6-.6-.1-1.6-.1-1.9-.5-1.4-1.8-2.8-2.3-4.7-.7-1.4 1.1-3.5 1.5-3.3 4 0 .4-.6.8-.9 1.2-.3-.1-.6-.1-.9-.2.1-1.7-.4-4.2.5-5 1.9-1.7 4.6-2.4 7.4-3.8-.8-1.2-2-2.8-3.1-4.4 2.6-1.6 6.8-1.3 9.4.9-.1-4.8-4.4-4.1-6.4-5.3.3-1.5.5-2.7.7-3.9-1.5-.2-3.3-1-4.6-.5-1.9.7-3.4 2.3-2.8 4.9 1.3-.3 2.4-.5 3.6-.8-.1 3.2-4 7.2-8.6 8.6 1.8-2.7 3.2-5 4.7-7.2-1.3-.2-2 .3-2.6.3-4.4-.1-5.9 4.3-9.2 5.9-.4.2-.7 1.1-.7 1.6-.1 2.2 0 4.3 0 6.7 3.4-.6 4.3 2.9 6.6 6v-9.1c2.1 3.7 1.4 8.6 7.3 8.8-1.5 1.6-2.6 2.5-3.7 3.4zm-4.3-2.8c-2.9.7-5.1 1.2-7.2 1.6 0 .3.1.7.1 1 .7.6 1.4 1.1 2.1 1.7-.6.8-1.2 1.5-1.8 2.3 3.6 1.7 5.9-.1 8.2-1.7-.1-.3-.2-.6-.2-.8-1.1.3-2.3.6-4.1 1.1 1-1.8 1.8-3.3 2.9-5.2zm16.7-26.1c1.5 1.1.5 4.8 3.8 3.7.4-.1.8-1.6.6-2.2-.6-2.2-2.3-2.5-4.4-1.5zm-15.4 42.9c-1.5-.5-2.6-.8-4.1-1.3.5 1.9.9 3.3 1.4 5.3 1.2-1.8 1.8-2.6 2.7-4zm380.1-139c-.7 1.6-1.4 3.2-2.1 4.7 1.3 2.4 2.9 5.1 4.6 8.1l2.1-1.8c.5-.5.8-1.2 1.4-1.6 5.8-3.4 5.8-9.4 5.8-14.9 0-7.9-2.7-15.3-5.6-22.6-.5-1.2-.5-2.6-.9-4.4 1 .5 1.5.8 2.5 1.3-.4-1.3-.6-2.5-1.2-3.4-2.3-3.6-1.7-12.4 1.2-15.8 1-1.2 1.6-2.6 2.5-3.9 3.1-4.8 8.1-7.1 13.2-9.1 14.7-5.7 28.4-3.1 40.5 6.3 7.2 5.5 12.7 13.2 14.9 22.2.9 4 1.4 8 2.9 11.9.3.6.3 1.4.7 1.9 1.3 2.2 1.2 3.3-.4 5 .5 1.2 1.3 2.4 1.4 3.5.7 8.7-.7 17.2-3.4 25.3-1.2 3.6-3.2 7-4.9 10.4-.1.3-.2.7-.5.8-4.1 1.5-4 5.9-6.2 8.6-3.2 3.8-7 7.1-10.8 10.8-.7-1.4-1.3-2.3-2-3.7 3.4-3.1 7-6.2 11.1-10 .5-3.3 3.1-7.3 4.8-7 .2-1.1.1-2.3.5-3.3 1.4-3.4 3.5-6.6 4.2-10.2 1.3-6.9 3.9-13.7 1.8-21.1-.9-3-.4-6.4-.6-10.7-2.2-2.5-3.2-6.7-3.8-11.3-.1-1.1-.5-2.2-1-3.2-.4-.8-1.2-1.3-1.5-2.1-2.8-5.9-6.7-10.9-12.1-14.5-7.9-5.3-16.6-7.9-26.1-5.6-4.5 1.1-9.4 2.4-13 5-2.8 2.1-6.4 3.9-7.7 8.1-1.1 3.8-1.9 7.4-.8 11.3 1.7 6.5 3.4 13 4.7 19.6.4 2.2-.3 4.7-.5 7.6 2.5 1.8 2.1 7.7.3 10.5-.3.4-.3 1.1-.3 1.6-.1 5.6-3.7 10.5-9 12.3-1.8.6-3.7 1.3-5.5 2-4.4 1.7-8.6.1-10.5-3.8-1.4-3 .4-7 4.2-9.2.4-.2.8-.5 1.6-.9-1.3-1-2.4-1.8-3.1-2.3 2.4-.8 4.5-1.6 6.6-2.4.1 0 0 0 0 0zm22.1-58c-.2-.5-.3-1-.5-1.5-1.3 0-3.2-.6-3.6 0-.9 1.3-1.1 3.1-1.6 4.7.4.2.7.3 1.1.5 1.5-1.2 3.1-2.4 4.6-3.7z"/><path d="M456.3 210.2c-.9.1-1.8.3-2.3.4-.7 1.8-1.3 3.3-1.9 4.9-1.8 5.3-3.8 10.5-5.3 15.9-1.3 4.4-2 8.9-3.1 13.3-.2.9-1.1 1.7-1.6 2.5-.3-.2-.7-.4-1-.5 1.3-6.1 2.5-12.1 3.9-18.2.8-3.4 1.8-6.7 2.6-10.1.2-.8-.5-1.8-.8-2.6-.7.5-1.6.8-2 1.5-.7 1.1-.6 3-2.8 2.4-.2-.1-.6.5-.8.8-2.6 5-7.8 5.4-12.4 7-1.9.6-3.8 1.4-5.7 2.1-5.9 2.1-11.8 4.2-17.8 6.1-5.5 1.8-11.1 3.4-16.7 5-1.3.4-2.6.5-4 .7-.2-.4-.4-.8-.7-1.1.9-.9 1.6-2.2 2.6-2.5 8-2.3 16.1-4.3 24.2-6.5 5.4-1.5 10.7-3.2 16-4.8.6-.2 1-.9 1.5-1.3l-.3-.9c-1.5.3-3.1.7-5.3 1.2 8.7-4.6 16.9-8.8 25-13.1-.1-.3-.2-.5-.3-.8-.5 0-1.1-.1-2.5-.2 6.3-1.2 6.4-1.3 7-6.3-4.2 2.6-7.8 5-11.6 7.1-3.9 2.1-8 3.7-12 5.6-.3-.5-.5-.9-.8-1.4 1.3-.8 2.5-1.9 4-2.4 7.4-2.8 14.3-6.2 20.2-11.5 3.9-3.5 8.3-6.5 12.1-10.1 6.1-5.7 7.2-15.5 3.1-22.7-1-1.7-1.3-3.9-2-5.8-2.1-5.3-5.8-9.7-10.2-13.1-4.5-3.5-9.6-6.3-14.5-9.3-3.7-2.3-8.1-2.6-12.1-4-5.7-2-12-2.7-17.2-5.5-8.1-4.4-17-5.9-25.6-8.5-2.7-.8-5.6-.9-8.4-1.4-.5-.1-.8-.8-.7-.7-1.9.3-3.6 1-5 .7-4.8-.9-9.6-1.4-14.1-3.8-2.7-1.4-6.2-1.2-9.4-1.7-2.1-.3-4.2-.7-6.3-.9-8.5-.7-17-1.3-25.5-1.9-2.1-.1-4.2.3-6.2 0-1.4-.2-2.7-1.2-3.9-2.5 5.1-1.9 10-2.5 15.1-.6-1.4.4-2.8.8-4.2 1.1v.5h15.3c-1.7-.6-2.7-1-3.7-1.4 0-.2-.1-.4-.1-.6.7-.2 1.5-.6 2.2-.5 8.7.8 17.3 2.2 25.6 5 1.4.5 2.9.9 4.3 1.6 5.6 2.7 11.7 1.6 17.5 2.2 10.1 1 20.1 2.5 29.6 6.5 1.1.5 2.3 1.1 3.1 1.9 3.6 3.3 8.2 4 12.7 4.5 8.1.8 15.3 3.9 22.2 7.8 1.5.8 2.3 2.8 3.1 3.8 1.7.5 3.4.6 4.5 1.4 7.9 5.6 14.3 12.7 17.5 21.8 1.7 4.8 1.1 10.3 1.5 15.5 0 .5-.6 1-1 1.6-.4.5-.9.9-1.1 1.5-.9 2.3-1.9 4.7-2.6 7.1-1.1 3.9-5.4 3.9-7.5 6.5-.8 1-2.4 1.7-2.6 2.7-.4 2.8-.5 5.9-.8 9zM168.5 368.1c-6.8-3.6-11.3-9.5-15.4-15.6-5.4-7.9-10.4-16-14.9-24.4-3.4-6.3-6.2-12.9-8.4-19.7-3.5-10.8-6.2-22-9.3-32.9-2.7-9.3-3.8-19-7.9-28-2.7-5.9-4.6-12.1-7.4-18-3.2-6.6-6.8-13-11.6-18.7-3.6-4.3-6.7-9.2-7.4-15-.1-1-.1-2 0-3 .2-3.8.4-7.6.6-11.3 0-.5-.1-1.1.1-1.5 3.1-5.7 2.9-13.2 9-17.4.7-.4 1.2-1.2 1.6-1.9 3.3-4.9 8.3-7.7 13-11.1 7.7-5.7 15.8-10.7 24.5-14.6 2.7-1.2 5.6-2.1 8.3-3.1.3-.1.7-.1.9-.2 7-5.2 15.5-3.4 23.3-4.9 2.9-.5 5.6-.9 8.5-2.1 4.3-1.7 9.1-2.3 13.7-3.4 3.7-.9 7.4-1.8 11.1-2.5 1.6-.3 3.3 0 5.8 0-2.4 2.4-23.9 7.8-25.1 7.2-.8.8-1.4 1.8-2.3 2.1-3.4 1-6.8 2.5-10.3 2.5-5.8 0-11.5.8-16.8 2.7-8.2 2.9-16.5 5.6-24.2 9.5-7.4 3.8-14.1 9-21.1 13.7-8.4 5.6-13.9 13.3-16.4 23-.8 3.1-.4 6.4-.6 9.6 0 .4.1.9 0 1.2-2.2 5.8 1 9.7 4.6 13.6 1.1 1.2 1.8 2.9 2.8 4.5.7.2 2.2.3 3.4.9 4 1.9 7.7 4.6 11.8 5.9 6.1 1.9 11.5 4.8 16.7 8.4 8.8 6.2 18.3 9.7 29.3 8.8 2.2-.2 4.7.7 6.9 1.4 6.2 2.1 12.3 4.3 18.5 6.5 1 .3 1.9.9 2.8 1.4-.1.4-.3.8-.4 1.2-2.1-.3-4.2-.5-6.3-.8s-4.2-.5-6.2-1.3c-2.7-1-5.2-2.7-8-3.7-2.6-.9-5.5-1.7-8.2-1.7-5 .1-9.8-.5-14.3-2.5-6.7-3-14-4.8-19.5-10.2-1.4-1.4-3.7-2.1-5.8-2.8-6.2-2.3-12.7-3.9-17.7-8.8-.5-.5-1.6-.4-2.5-.6.1.9 0 2.1.5 2.6 8.6 8.9 10.8 21 15.3 31.8 5.7 13.4 8.2 27.7 11.7 41.8 2.4 9.8 5.6 19.4 9.9 28.7 4.7 10.2 10.1 19.9 16 29.4 4.3 6.9 9.6 13 15.2 18.8 1 1.5 1.4 3.2 2.2 4.5-.1.1 0 0 0 0z"/><path d="M258.4 256c-.6 1.9-1.7 2.1-3.7 1.9-5.4-.5-10.8-.4-16.2-.7-8-.4-16.1-.3-24.1-1.2-11.6-1.4-23.3-2.8-34.9-4.5-8.7-1.2-17.3-2.6-25.9-4.3-4.4-.8-8.7-2.4-13-3.5-.6-.2-1.3.2-1.8 0-.8-.4-1.5-1-2.3-1.6.7-.4 1.4-.9 2.2-1.2.5-.2 1.1 0 2 0-4.5-3-7.2-3.2-9.7-.7 1.3.2 2.5.3 4.1.5-.5.9-.8 1.5-1.2 2.1-.9 1.7-.2 2.4 1.5 2.7 8.5 1.7 16.9 3.6 25.5 5.1 6.7 1.2 13.4 1.9 20.1 2.9 4.7.7 9.4 1.6 14.1 2.2 3.9.5 7.9.7 11.8 1.1 6.2.6 12.5 1.2 18.7 1.9.9.1 1.7.9 2.4 1.7-6.3-.1-12.5.2-18.7-.7-8.3-1.3-16.8-1.5-25.1-2.6-5.1-.7-10.1-2.2-15.2-3.1-4.2-.7-8.6-.9-12.8-1.7-6.5-1.3-12.9-2.9-19.3-4.6-3.1-.8-6.2-2-9.2-3.3-1-.4-2-1.9-2.1-2.9-.2-2.1-1.1-2.5-2.9-2.7-1.3-.1-2.5-.7-3.7-1.4 7-.5 7.3-.6 6.5-4-3.3 1.3-8.2-.1-10.7-3.3 3.5.8 6.5 1.5 9.5 2.2.1-.3.2-.7.3-1-5.6-4.1-13-5.4-18.1-10.4.2-.4.4-.7.6-1.1 5.6 3 11.2 6 16.8 8.9 3.6 1.9 7.2 3.5 10.7 5.4 7.7 4.2 16.1 5.3 24.6 6.4 3.8.5 7.3 2.3 11.1 3.3 5 1.3 10.1 2.5 15.1 3.6 1.8.4 3.6.8 5.5 1.1 0 .3-.1.6-.1.9-4.1-.4-8.2-.7-12.2-1.3-4.2-.6-8.3-1.8-12.5-2.4-4-.6-7.9-2.6-12.7-1.9 4.3 2.7 47.8 9 51.5 7.4-4.1-.5-7.7-.9-11.2-1.3 0-.2 0-.5-.1-.7 1.3-.1 2.6-.2 3.9-.2 4.3 0 8.6-.1 12.8.2 10.6.6 21.1 1.5 31.6 2.2 3 .2 6.1 0 9.2.2.8 0 1.5.7 2.3 1-.7.5-1.5 1.6-2.2 1.6-2.6-.1-5.2-.6-7.7-1.2-1.8.3-3.7.8-5.5.8-5-.2-10-.2-14.9-1.1-3.6-.7-7.1.2-10.6-.4-2.2-.4-4.5-.5-6.8-.7 0 .3-.1.7-.1 1 4.1.3 8.3.5 12.4.8.5 0 1.1-.1 1.5.1 5.7 2.1 11.7.6 17.5 1.1 5.2.5 10.5.8 15.7 1.1.7 0 1.4-.6 2-.5 1.2-.1 2.4.4 3.7.8zm3.7 79.8c-.7-.6-1.3-1.2-1.8-1.6-5.1 1.5-11.9.4-12.6 8.1-.7 0-2.3-.2-2.4 0-.2 1.1-.1 2.3-.1 3.3-1 1-3 2.1-2.9 3.1.2 2.4-1 5.5 1.8 7.4 3.2-2 2-4.7 1.1-7.6 2.5.1 4.3-.4 4-3.3-.1-.5 1.2-1.1 1.6-1.5.9 1.4 1.9 2.4 2.1 3.5.4 2 1.1 4.4.4 6.1-.9 1.9-3.1 1.3-4.8.1-.3-.2-.7-.1-.5-.1-.6 4.5-1.1 8.9-1.6 13-2-.7-3.3-1.1-4.7-1.7-3.9-1.6-4.8-4.9-4.6-8.2 1.3-1.3 2.4-2.2 3.1-3.3.2-.2-.8-1.2-1.3-1.9-1.1.8-2.3 1.7-3.6 2.7-1.3-2.8.3-5.2 1.7-7.3 1.3-2 3.3-3.6 4.9-5.3-2.3-1.6-3.7-1-5.2.8-.7.9-2.3 1-3.5 1.5-.3-.4-.6-.8-.9-1.1 1.1-1.4 2.1-2.8 3.5-4.5.1-.5.5-1.6.9-3.2-3.1.8-6.3-.7-9.5 1.5-3.5 2.4-11.1.9-14.5-2.8-.8 1.7-1.7 3.1-2 4.7-.6 2.8-2.3 4.1-5.1 3.3-2.3-.7-3.8 0-4.9 1.9-2.9 4.6-7.6 6-12.4 7.5-.6.2-1.3.3-1.8 0-.6-.3-1.1-1-1.6-1.5.5-.4 1.1-.8 1.6-1.1 4.2-2 9.1-2.5 12.5-6.1 1-1.1 1.8-2.9 3-3.3 1.6-.6 3.6-.1 6-.1.3-.5 1-1.6 1.7-2.7-2.9-.9-2.9-.9-7.3-6 4.4.7 8.2 1.8 12 1.8 3.9 0 7.8-1 12.2-1.6-2.2-2.9-1.7-4.1.7-4.7 4.2-1 7.4.7 10.5 3.2 1.6 1.3 3.3 2.4 5 3.6 0 0-.3.3-.7 1 3.4 1.3 4.6-.8 5.3-2.7 1.8 1.3 3.3 3.2 5.2 3.5 2.3.3 5-3.2 4.8-5.7-.1-1-1.3-2-2.3-3.4 1.5-.1 3.3-.6 4.9-.4 2.9.4 4.7-.7 5.1-3.7.6-5-1.1-8.7-5-10.3-.9-.3-1.9-.1-3.1.2 3.3 2.8 4.6 6.1 3.5 10.4-.9-.4-1.6-.7-2.4-1.1 2.3-3.6 2.3-3.7 0-4.9-1.8 1.8-3.4 3.5-5.4 5.5-.7-1.9-1.3-3.5-2.3-5.8 2.1 1 3.6 1.7 5.1 2.4.1-6.6.1-6.6-4.6-8.1-.1.8-.2 1.6-.3 2.3-1.5.1-3 .3-4.5.4l-.5-.5c.7-.6 1.4-1.1 2-1.7.5-.4 1-.9 1.4-1.4-.5-.5-1.1-1.4-1.5-1.3-2.3.5-5 .8-6.8 2.2-1.3 1-1.4 3.6-2.2 6.1 2.4-.6 3.8-1 5.6-1.5-.1 1.9-.2 3.3-.3 4.9 1.5-.5 2.8-1 4.8-1.6-1 1.2-1.5 1.8-2.1 2.5.4 0 .7-.1.9 0 1 .4 2.1.8 2.9 1.4.2.1-.4 1.9-.6 1.9-1.1 0-2.3-.2-3.3-.6-2.8-1.3-5.6-2.9-8.4-4.2-.4-.2-1.2.2-2.7.6.7-3.2 1.3-6 1.9-8.8l-.8-.8c-1.7 1.1-4.1 1.8-4.8 3.4-.6 1.3.4 4.1 1.6 5.1 2.4 2.1 1 3.5 0 5.5-3-2.2-5.5-4.3-4.9-8.3.4-2.8 3.8-6.2 7.9-7.2 1.9-.4 3.6-1.9 5.5-2.5 1.7-.5 3.7-.8 5.4-.6 3.7.4 3.6.6 3-2.9 3.2-2.7 6.6-2.1 10.3-.6-.7.8-1.3 1.5-2.1 2.4 1 .6 1.8 1.1 2.8 1.8-.6.7-1.2 1.4-2.1 2.4 7.2 1.8 6.5 9.7 10.9 14.3-1.2.7-2.8 1.8-4.5 2.9 2.3 2.5 1.9 4.5-.6 6.8-.8.9-3.2 1.6-2.7 4.1zm-21.2 27.4c4-1.9 4-4.6 0-8v8zm10.1-56.9c2.4.3 4.5.5 6.7.8.1-.4.2-.8.3-1.3-2-.9-4.1-1.8-6.2-2.8-.3 1.5-.5 2.3-.8 3.3zm70.3 47c-.6 1.5-1.3 3-2.1 4.9-1.8-1.3-3.4-2.4-5.3-3.7-2 2.9-2.9 7.1-7.3 8.3-.5-.9-.9-1.8-1.3-2.5-2.5 1.7-5 3.4-7.6 5.1-2.6-4.3-.8-8.1-.3-11.8.1-1.2 2.8-2 4.8-3.4-1.5-.4-2.7-.7-3.9-1 .9-.5 1.8-1.1 2.6-1.6l3 3c1.4-1.6 2.9-3.1 4.1-4.7.5-.7.5-1.7 0-2.3-1.2-1.7-3.1-3.3-3.4-5.2-.2-1.1 2.3-2.5 3.5-3.9 1.2-1.5 2.3-3.1 3.4-4.7.2-.3.1-.8.1-1.5-3.6 1.5-5.5 6.6-10.1 4.6 2.1-.8 4.2-1.6 6.5-2.5-1.2-2.6-2.8-2.1-4.4-1.8-3.5.6-5.8-.6-6.7-3.8 2.5.4 4.8.6 7 1.3 4.1 1.2 6.2.3 7.7-3.7.7-1.9.9-3.9 1.8-5.7.6-1.2 1.8-2.2 3.1-3l-1.5 4.8c.2.1.5.2.7.3l6.9-5.7c1.1 2.8 1.9 4.9 2.9 7.5-1.2-.7-2-1.2-2.6-1.6-.2 1.7-.5 3.4-.7 5.1-.3.2-.5.5-.8.7-1.5-3.7-2.9-1.9-4.3-.7-.7.6-1.6 1.2-2.2 1.9-.5.5-1.1 1.3-1.1 1.9.4 3.9-.6 5.6-4 7.7-1.1.7-1.9 2-3 3.1 2.2 1.8 3.9 1.9 6.6 1.4 5.1-.9 9.1-3.6 13.8-6.4-.1 1.5-.2 2.4-.3 3.3.3.1.5.1.8.2l2.1-6.3c-.3-.1-.6-.3-1-.4l2.4-1.2c-1.4-1.5-2.8-2.9-4.2-4.4-1.2 1-2.2 1.8-3.2 2.6-1.7-1.2-1.7-2.4.1-3.1 3.7-1.5 4-2 2.7-5.7 1.7.2 1.7.2 3.7 7.6 2.1-1.6 4.7-2.3 5.8-5.1.5-1.3 1.7-2.5 2.8-3.5.4-.3 1.3-.1 1.9-.1 0 .6.2 1.4-.1 1.9-.7 1-1.7 1.8-2.3 2.8-.5.7-.6 1.7-.6 2.5 3.9-3.5 8.3-3 12.9-2.8-1.8-3.1.5-4.4 2.4-5.8 3.2-2.2 3.7-5.6 4.3-9 .1-.8.7-1.5 1.2-2.2.4-.7 1.5-1.4 1.4-1.8-1.3-3.9 2.2-3.8 4-5.3 2.3 4.2 2 5.6-1.8 8-1.5 1-1.6 1.9-1.3 3.5.4 2.4.5 4.7-2.6 5.9-1.3.5-2 2.4-2.9 3.7.8.5 1.6 1.6 2.3 1.5 6.7-1.4 12.8-3.8 15.5-11 .3-.8 1.8-1.2 2.7-1.8 0 1.1.5 2.6 0 3.2-3.2 4.1-6.5 8.1-9.8 12 2.2-.7 4.9-1.2 7.3-2.4 2.3-1.2 4.3-3.1 6.8-4.9.3 1.2.5 1.6.4 1.7-2 1.8-3.9 3.8-6.1 5.3-2 1.4-4.4 2.2-6.8 3.4 1 1.7 1.7 2.7 2.3 3.8-.2.2-.4.3-.6.5-3.2-2.5-6.4-5.1-9.5-7.5.2.5.5 1.4.6 1.7l-3.9.9c-.3.1-1-.1-1-.2-.1-.7 0-1.4 0-2-4.6-.3-6.7 3.4-9.2 6.3-.5-.2-1-.2-1.3-.5-.8-.5-1.8-1.8-2.2-1.7-1.6.7-3.7 1.5-4.5 2.9-1.3 2.3-2.5 2.5-4.2 1.1-1.4 1.9-2.6 3.6-4.2 5.8.5.3.8.5 1.2.7 1.9.8 3.9 2 3.2 4.2-.8 2.5-2.8 4.2-5.6 4.6-1.1.2-2.2.6-3.3.8 0 .3 0 .7-.1 1 3.2.8 6.3 1.6 9.9 2.6-.3-1.8-.6-2.9-1-5 1.8 2 3.1 3.4 4.4 4.8-5.4 3.3-10.2 2.8-14.7-1.4-.1.3-.3.6-.4.9 1.1 1.9 2.1 3.8 3.4 5.5.2.3 2.2 0 2.6-.6 1.1-1.6 1.6-1.5 2.7 0 .8 1.1 2 1.8 2.8 3.6-2.8-.3-5.6-.7-8.5-.9-4.4-.3-1.9-4.9-4.1-6.9-.6 1.1-.9 1.7-1.2 2.3-.7-2.1-1.4-4.4-2.4-7.5-.4 2.1-.6 3.3-1 5.3-.6-2.9-1-5.1-1.5-7.6-2.2.9-4.2 1.8-6.1 2.6.1.3.3.6.4.9 1.7-.5 3.3-1 4.7-1.4 0 1.9-.2 3.5.1 5 .2 1.3.6 2.9 1.5 3.6 1.4 1.5 3.1.8 4.3-.9zm1.1-9.9c3.2 1.9 6.1.6 8.9.5-3-5.6-4.9-6.2-9-2.5.8.3 1.5.7 2.1.9-.5.3-1.1.6-2 1.1zm-18.2 8c-.3-.2-.6-.4-.9-.7-1.3 1.6-2.6 3.1-3.9 4.7-1.8 2.2 1.4 3.2 1.3 5 1-.7 2.6-1.2 2.8-2 .6-2.3.5-4.7.7-7zm6.6-2.1c-1.5 3.3-2.7 6.1-4.1 9.1 5.4-.4 7.3-4.4 4.1-9.1zM125.4 182.9c2.2 2.3 4.9 4 6 6.4 1.2 2.5 1.2 5.8-.8 8.7-.4-.3-.8-.5-.9-.8-1.3-4.4-3.4-8.2-6.1-11.9-4.4-6.1-9.5-7-14.6-1.5-1.5-6 2.7-10.9 8.5-9.7 6.1 1.3 11.1 4.7 15.7 8.7 5.2 4.6 9.9 9.9 17 11.8.9.3 1.8 1 2.6 1.6 3.5 2.5 6.6 1.9 9.8-2.9-6.3 1.1-11.7-.1-16.9-3.4 2.4-1.4 4.7-2.9 7-4.3-.1-.3-.2-.7-.3-1-8 3.5-14.3 1.3-19.4-5.6 1.2-3.5 6.5-4.7 5.9-10-1.2 1.2-2 2.2-2.9 3.1-3.5 3.3-9.1 3.9-12.9 1-2.2-1.7-4.2-2.3-6.7-1.2-.5.2-1.1.2-1.7.3-.2-.3-.4-.5-.5-.8 1.2-.9 2.4-1.8 3.5-2.8 1.3-1.3 2.4-3 3.8-4.2 1-.9 2.3-1.6 3.5-2.3.5 1.3 1.2 2.7 1.6 4 .2.8.2 1.7.2 2.6.7-.8 1.5-1.5 2.1-2.4 1-1.5 1.7-3.2 2.7-5.1 2.6 2.7 4.8 1.4 6.9.2 2.1-1.2 3.2-.5 4.1 1.5 1.6 3.4 2.8 6.6-1 9.3-.2.2-.3.5-.4.8-.1.3-.1.6-.3 1.3 1-.2 1.7-.6 2.4-.4 1.1.2 2.8.6 3 1.3.3 1-.4 2.4-1.1 3.3-.6 1-1.7 1.7-2.6 2.6.2.4.4.8.6 1.1 2-.6 4.1-1.2 6.1-2 2.4-.9 5.2-2.7 7-.2 1.6 2.2.2 4.9-1.5 7-.4.5-.5 1.4-.7 2.1.7 0 1.5 0 2.2.1 2.7.2 5.5.1 8.2.7 2.2.5 3.5 2.5 2.3 4.7-1.8 3.2-1.8 7.7-5.9 9.3-1.2.5-2.7-.2-4.1-.1-.9 0-1.7.3-2.6.4.3.9.5 1.9 1 2.8.5.8 1.2 1.4 1.9 2.1-1 .5-2.2 1.7-3 1.4-2.3-.7-4.5-2-6.7-3-1-.5-2.1-.9-3.8-1.7 2.5 5.4 2.5 5.4.5 8.2-1.6-2-3.4-3.6-4.5-5.7-1-1.9-1.6-4.1-1.8-6.2-.3-3.9-1.7-7.1-3.8-10.2-.2-.4-.3-.9-.4-1.3.3-.2.5-.3.8-.5 1.1 1.6 2.3 3.1 3.3 4.8 1.1 1.7 2 3.5 3.1 5.6 1.9-7-8.3-17-15.4-17.6zm19.4 13c-1.8 4.7 1.5 9.8 6.1 9.5-2-3.1-4.1-6.3-6.1-9.5zm277.5 129.7c.5.6 1.1 1.2 1.4 1.5 1.1-.7 2.3-1.4 3.5-2.1v-6c.6 1.5 1 2.2 1.6 3.7.8-3.6 1.5-6.5 2.2-9.4.2 0 .3-.1.5-.1.1.7.3 1.4.4 2.1.2.7.3 1.5.5 2.2.1.4.5.8.4 1.2-1.3 6-3 11.7-9.1 14.7-3.1 1.5-4.6 1-5.9-3.2-1.3 2.1-2.6 3.6-3.2 5.4-1.8 5.6-5.3 10.1-8.9 14.5-5.1 6.5-10.1 13.2-15.8 19.2-4.2 4.6-9.3 8.4-14.2 12.3-1.9 1.5-4.4 2.1-6.7 3.1-.7.3-1.4.7-2.2 1 .2.5.2 1 .4 1 4 1.3 3.5 4.5 3.1 7.5-1.2 9.1-9.2 15.1-16.7 17.1-3.4.9-6.8 2-10.4 2.5 1.8-.9 3.5-2 5.4-2.8 5.5-2.4 9.7-6.4 13.5-10.9 1.3-1.5 2.5-3.2 3.6-4.9.5-.8.8-2 .6-2.9-.3-1.1-1.2-2.1-1.9-3.2-.8.9-1.5 1.7-2.3 2.6-.3.3-.7.5-1.3.9.1-.7.1-1.2.2-2.1-10.2 4.3-17.8 13.1-29.8 15.2 4-2.1 7.3-3.7 10.6-5.4l-.3-.9c-1.4.5-2.9.8-4.2 1.5-2.7 1.4-5.2 2.8-8.4 2.1-.7-.2-1.7 1-3.3 2 1.9.4 3 .7 4 .9 0 .2 0 .3.1.5-3.2.4-6.5.9-9.7 1.3-.1-.3-.1-.7-.2-1 1.9-.5 3.9-1 5.7-1.5-1.9-1.9-6-1.1-6.9 1.4-1.4 3.7-4.5 1.4-6.7 2.3-.1-.3-.3-.6-.4-.9.9-.6 1.8-1.2 2.2-1.4-1.9-.4-4.8-2-6.4-1.1-3.1 1.6-2.8-.4-3.3-1.9v.1c2.3-.8 4.5-1.9 6.9-2.3 6-1 12.2-1.4 18.2-2.6 4-.8 7.9-2.4 11.8-3.9 5.6-2.1 11.4-3.5 16.6-6.7 6.6-4 13.2-7.7 19.6-12 9.5-6.3 17.6-14.3 24.1-23.6 5.2-7.5 9.3-15.8 13.7-23.9 1.5-2.8 2.7-5.8 4.3-9.3.1 2.3.1 4 .4 5.7.1.4.8 1 1.3 1.1.3.2.9-.3 1.4-.6z"/><path d="M262.1 335.8c2.1.9 4.1 2 6.3 2.6.6.2 2.1-.7 2.3-1.4 1-3.3 1.6-6.7 2.4-10.1.5-2.2 1-4.4 1.6-6.8 1.7.1 3.1.1 4.5.2 1-2.1-.1-3.5-1.7-3.9-.9-.3-2.2.8-3.2 1.5-.8.5-1.4 1.3-2.5 1.8 4-3.8-2.2-7.3.1-11 1-.1 2-.2 3.1-.3v-.6h-3.7c-.8-1.7-1.6-3.4-2.6-5.3-2 .5-4.1 1-6.9 1.7.5-2.4.9-4.6 1.4-6.9 2.6-.2 5.4-.7 8.1-.4 2.9.3 2.7-1 2.4-3-.3-1.7-.4-3.5-.3-5.3 0-.4 1.3-1.2 1.7-1 5.6 1.8 11.4 3.6 12.8 10.5.3 1.3 0 2.6-.4 3.9-.2-1.5-.4-2.9-.6-4.4-1.1.4-2.2.7-3.1 1-.3-1.2-.5-2.7-1-4-.3-.7-1.3-1-2-1.5-.3.9-1 1.8-.8 2.5.3 1.8 1.1 3.4 1.9 5.8-1.8-1-3.1-1.6-3.9-2.1-1.8.1-3.5.1-5.1.2-.7.1-1.4.3-2.1.4.2.7.3 1.5.6 2.2.1.3.7.4 1 .6 4.7 2.4 4.7 2.4 8.3 7.9.5-1.1.9-2.3 1.6-3.2 1.3-1.8 3-2.8 5.5-2 .7.2 1.8-.8 2.6-1.3.8-.6 1.7-1.9 2.3-1.8.8.1 1.6 1.3 2.2 2.1.5.8.8 1.8 1.3 2.9 2.2-1.4.6-5.8 4.6-5.2 2.6.4 3.4 1 4.3 3.5-.7.1-1.4.3-2 .3-2.1 0-3.7.4-4.4 2.8-.5 1.5-1.8 2.7-2.7 4.1-.4.6-.8 1.5-.6 2.2.6 3.1.4 5-.4 7.5.2 1.9.8 3.8.6 5.6-.1.8-1.7 1.4-3 2.5.5 1.9-1.3 1.9-3.3 2.1.7-1.2 1.3-2.3 1.9-3.5-3.3-.3-3.2-.3-3.2 2.5 0 .6-.7 1.2-1 1.9-1.4 2.8-.6 4 2.4 4.6 1.8.3 3.5 1.4 5.3 1.8 1.3.3 2.7.1 4.5.1-.8-1.5-1.3-2.4-2-3.7 2.2.2 3.9.4 6.5.7-2.2 1.7-1 5.3-4.7 4.8 0 3.6-3.1 2.4-5.7 3.8.6-1.8.9-2.8 1.3-3.9-.1-.2-.2-.4-.4-.6-.6.4-1.4.8-1.7 1.3-.9 1.8-2 2.1-3.8 1.3-1.3-.6-3-.8-4.1-1.7-2.9-2.3-1.3-4.9-.2-7.5-5.7-5.2-6.1-3.8-8.3-1.9 0 2.9.7 5.3-.2 6.7-1.7 2.5-4.6 2.3-7.7.2-.9-.6-2-1-2.8-1.4v6.2c-1.7.2-2.6.3-3.5.4-1.1.2-2.3.6-3.3.4-1.4-.2-2.6-.9-4-1.4 2.9-1.6 5.4-2.9 7.8-4.2-.1-1.2-.2-2.5-.3-3.8zm24.3-8.5c1.1-1.1 2.1-1.8 2.7-2.8.5-1 .5-2.2.8-3.3.1-.4.6-.8 1-1 3.4-1.9 4.1-4.7 2-7.9-.3-.5-.9-1.4-.8-1.5 2.3-2-1-2.8-.7-4.1-4.5-.1-7.3 2-8.7 5.9-.6 1.8-1 3.7-1.5 5.5 1.5-1.4 1.9.7 1.7 1.6-.7 3.5 2.2 5 3.5 7.6zm-10-36.2c-1.7 3.5-.9 5.6 2.4 6.2 0-2.4.9-5.1-2.4-6.2zm10 39.2c-.4-.4-.8-.7-1.3-1.1-3.4-.1-.7-2.6-1.2-3.8-.8.1-1.6.2-2.9.3.8 2 1.6 3.9 2.3 5.8.4.3.7.7 1.1 1 .6-.7 1.3-1.5 2-2.2zm-6.6-4.4c.3-.5.7-.9 1-1.4-1-.9-1.9-2-3-2.7-.2-.1-1.4 1.3-2.1 2 1.4.7 2.7 1.4 4.1 2.1zm6.9 124.8c.3 1.5.5 2.3.8 3.7-2.1.1-4.1.2-6.1.3l-1.2-2.1c-.5.5-.9 1.1-1.5 1.5-.4.3-1 .3-1.4.4l-14.4.3c-1.4 0-2.9.1-4.3.2-.6 0-1.5.5-1.8.3-3.8-3.3-7.9.3-12-.7-4.4-1.1-9.1-.9-13.6-1.5-7.1-.9-14.3-1.5-21.3-2.9-8.1-1.6-16-3.8-24-5.8-9.2-2.3-18.5-4.5-27.7-7-3.7-1-7.2-2.8-10.8-4.2-2.4-.9-4.8-1.7-7.3-2.7 3.8-3.2 7.2-.8 10.2.6 7.7 3.7 15.8 6 24.1 7.6 1.2.2 2.3.8 3.5 1.1 5.2.9 10.4 1.9 15.6 2.5 8.1 1.1 16.1 2.1 24.2 2.8 4.9.4 9.8.2 14.7.4 6.5.3 13.1.9 19.6 1.2 6.3.3 12.6.6 19 .5 8.5-.1 17.1-.6 25.6-.8 5.9-.1 11.8.1 17.7.1 2.6 0 5.3-.6 7.9-.7.8 0 1.6.6 2.2 1.4-23.1 2.2-46 3-69.5 2 1.5 1.6 5.5 2.2 7.9 2 2.6-.2 5.2 0 7.8.1 2.7.1 5.4.3 8 .2 2.8-.1 5.3-.5 8.1-.8zm-52.1-2.3c0 .5 0 1-.1 1.4H253v-.2c-6.1-.3-12.3-.8-18.4-1.2zm-2.4 1.2c0-.5.1-1 .1-1.4-5.2-.3-10.5-.6-15.7-1 0 .4-.1.8-.1 1.3 5.3.3 10.5.7 15.7 1.1zm-38.1-5.6c-.1.4-.2.9-.2 1.3 3.7.7 7.5 1.4 11.2 2.1.1-.4.1-.8.2-1.1-3.7-.8-7.5-1.6-11.2-2.3zm21.1 4.1c0-.3.1-.7.1-1-2.6-.2-5.2-.4-7.9-.6 0 .4-.1.7-.1 1.1 2.6.1 5.3.3 7.9.5zm241.1-237.9c.7 5.3 4 8.7 10 9.9-.7-.8-1.1-1.3-1.4-1.6 3.3.1 6.7.4 10 .3 1.4 0 2.8-.5 4.1-1.1.5-.2.6-1.2.2-2.1 4.7-2.7 9.3-5.5 13.7-8 .1.5.5 1.6.9 3-.7-.1-1.3-.3-2.9-.6 1.5 1.2 2.2 1.8 2.5 2 1.5-.9 2.8-2.4 3.8-2.2 1.7.3 3.1 1.7 5.4 3.1-3.3 2.1-5.8 3.4-8.1 5.1-1.1.8-2 2.3-2.4 3.6-1.7 6 1.5 10.1 5.6 13.9.6.6 1.3 1.1 1.9 1.5-1.2 1.6-2.1 2.9-3.7 4.9.1-1.6.2-2.3.2-3.4-1.8 1.1-3.7 2.4-3.5-.6-1.2-.3-2.6-.3-2.9-.8-.8-1.4-1.8-3.2-1.5-4.5.6-3-.4-6.3 1.8-8.9 1.4-1.7 1.4-3.3-.9-4.8 2.2-1 4.1-1.9 6.3-2.9-2.9-2.4-6.3-2.1-9 0-.8.6-1.6 1.5-2.5 1.6-5.2.9-7.5 5.1-9.9 8.9-.7 1.2-.4 3-.5 4.5-.3 4.7 1.1 8.8 4.2 12.4 2.4 2.6 4.8 5.3 7.4 8.2-2.7 1.2-5.4 2.5-8.2 3.7-5.4 2.4-10.8 4.8-16.1 7.3-3.2 1.5-6.6 2.8-9.4 4.9-5.8 4.4-12.7 7.9-14 16.3-.1.8-.9 1.7-1.5 2.2-2.3 1.9-3.5 4.5-4.4 7.2-2 6-4 11.9-6 17.9.2.1.5.3.7.4-.9.2-1.8.4-3 .6 0-.8-.1-1.6.1-2.3 2.4-9.4 5.1-18.7 10-27.2.9-1.6 2.5-2.8 3.1-4.5.9-2.4 1.2-5.1 1.5-7.7.6-4.9.8-9.8 1.5-14.7.3-2.4 1.4-4.8 2.1-7.2.3.1.6.1.9.2-.5 3.9-.9 7.8-1.4 11.7-.4 2.8-1 5.6-1.1 8.5-.1.9.9 1.9 1.3 2.9.8-.4 1.5-.8 2.3-1.3 2.6-1.7 5.8-2.9 7.7-5.2 3-3.4 6.5-6.1 10.5-7.6 4.8-1.9 9.9-3.1 15-4.2 2.7-.6 3.6-1.5 2.1-4-.5-.9-1.1-1.9-1.9-2.3-5.5-2.8-5.8-8.1-6.3-13.2-.2-2.2.2-4.5 0-6.7 0-.6-1-1.4-1.6-1.6-3.6-.9-7.3-1.4-9.3-5.2-.5-.9-2.1-1.2-2.9-2-2.9-2.6-.7-5.6-.5-8.3zm17.3-15.5c2.5-2.3 3.8-5.4 3.3-8.6-1-6.9-2.4-13.7-4.1-20.4-.7-2.9-2.6-5.6-4-8.4-.3-.6-.8-1.1-.8-1.7-.1-6.4-1.5-13 2.6-18.8 2.6-3.6 5.2-7 9.2-9.3 1-.5 2.1-1.9 2.1-2.9-.1-3.9 2-6.8 3.6-10 1.3-2.6 3.4-2.8 5.4-1.3 5.7 4.4 12.3 5.5 19.2 6.3 3.2.4 6.4-.4 9.6.8 3.3 1.2 6.9 1.5 10 2.9 3.8 1.7 7.4 4 10.8 6.3 3.5 2.4 7.1 4.8 9.9 8 2.3 2.5 3.5 6.1 4.9 9.3 2.3 5.1 4.6 10.3 6.7 15.5.7 1.7 1 3.6 1.1 5.4.2 3.7 0 7.4 0 12-.9-2.7-1.6-4.7-2.2-6.7-1-4.1-1.8-8.2-3-12.2-.2-.8-1.6-1.2-2.8-1.9.9-.3 1.6-.6 2.4-.9-2.8-2-5.3-4.1-6.2-7.2.2-.2.5-.3.7-.5-2.3-3.7-4.6-7.4-7-10.9-1.3-1.9-3.1-3.4-4.6-5.1l-5.1-5.7c-2.4-2.8-6-2.1-9.1-3.2-1.5-.5-3-1.2-4.4-1.8-.8-.3-1.6-1-2.4-1-4-.1-7.9 0-11.9 0-1.4 0-2.8-.3-4.2-.6-.7-.1-1.6-.8-2-.6-3.6 1.9-5.9-.8-8.7-2.1-2.6-1.3-4.7.4-6.7 1.5-.3.2-.2 1.7.2 2.4.7 1.2 1.7 2.2 2.3 2.9-3 2.6-5.9 5-8.7 7.6-5.6 5.3-7.5 12.5-8.4 19.7-.4 2.6 1.4 5.6 2.2 8.4 1.5 5 3.2 9.9 4.7 14.9 1.6 5.8 1.4 11.5-1 17.1-.7 1.6-2 2.2-3.6.8-.1 0 0 0 0 0zM426.9 217c-.7.4-1.8 1.2-2.1 1-2.2-1.6-3.5.3-5.2 1.1-5.3 2.7-10.5 5.4-15.9 7.9-2.7 1.3-5.6 2.2-8.5 3.3-.1 0-.2.1-.3.1-5.6-2-9.9 2.9-15.2 2.8-4.7-.1-9.5.3-14.1 1.2-2.8.5-5.3 2.5-7.9 3.6-6.2 2.7-12.6 4.7-19.5 5.2-5.5.4-11 1.5-16.5 1.7-8.4.3-16.8 1.5-25.2-.6-1.2-.3-2.6.3-3.9.4-5.8.6-11.5 1.2-17.3 1.6-6.2.5-12.3 1.3-18.5 1.3-7 0-14-.8-21.1-1.2-4.7-.3-9.6.1-13.9-1.3-4.8-1.6-9.5-1-14.2-1.4-2.1-.2-4.3 1.1-6.4 1-4.2-.1-8.4-.7-12.6-1.1 0-.4-.1-.9-.1-1.3 1.8-.3 3.7-.7 5.5-.8 4.1-.1 8.2.1 12.3.1 1.5 0 3-.3 4.5-.7 5-1.3 9.7.8 14.6 1.3 5.2.5 10.3 1.1 15.5 1.5 5.1.4 10.3 1 15.4 1 7.9 0 15.7-.3 23.6-.8 2.6-.1 5.2-1 7.8-1.6 7.8-1.8 15.4 1.1 23.2.7 6.5-.4 13.1-.1 19.6-.8 4-.4 7.8-2.2 11.7-3.4 3.8-1.2 7.7-2.2 11.5-3.5 1.2-.4 2.2-1.5 3.4-2 5.3-2.1 10.7-3.3 16.5-3.5 9.9-.3 19.7-1.3 29.1-4.5 4.3-1.4 7.9-4.5 12.1-6.2 3.7-1.5 7.7-2.3 11.5-3.4.3.4.4.9.6 1.3z"/><path d="M174.6 444.1c2.9.7 5.8 1.3 8.6 2.2 7.4 2.3 14.6 5.1 22.1 6.9 7.2 1.8 14.6 2.9 22 4.1 5.4.9 10.9 1.5 16.4 1.9 5.9.4 11.8.4 17.7.7 1.5.1 3.1.4 5.2.8 4.8-1.6 10.5-.8 16.2-.9 5.4-.1 10.8-1.9 16.3.5 1.2-2.1 9.7-2.7 13.9-.3-.3-.9-.5-1.4-.9-2.5 24.1-1.9 47.3-7.5 70-15.4.1.4.3.7.4 1.1-4.4 1.9-8.7 3.8-13.1 5.7-3 1.3-6 2.4-9.1 3.6-.8.3-1.5.7-2.3.8-6.5 1.2-13 2.3-19.4 3.5-2.1.4-4 1.6-6.1 1.9-4.7.6-9.4.8-14.1 1.3-2.4.3-4.9 1.4-7.2 1-2.2-.4-3.6 1.2-5.4 1.2-2.6-.1-5.2-.5-7.8-.4-5.6.4-11.3 1.3-16.9 1.5-6.4.2-12.7 0-19.1-.1-6.2-.1-12.5-.3-18.7-.5-2.4-.1-4.7-.6-7-.9-4.8-.6-9.6-.8-14.3-1.7-7.9-1.6-15.8-3.1-23.5-5.5-7.8-2.5-15.2-6-22.7-9.1-.4-.2-.8-.6-1.2-.9-.1-.2-.1-.4 0-.5zm146.2-251c2 1 4.5-2.5 6 .5.7 1.4.8 3 1.3 4.5s1.2 2.9 1.9 4.3c.6 1.1 1.3 2.2 2 3.2l-.6.9c-2.3-.2-4.7-.5-7-.7-.4.4-1.1 1.1-1.7 1.9-.5-.8-1.2-1.6-1.6-2.5-.8-1.9-5.5-3.1-8.8-2-4.3 1.3-4.3 1.3-7.3-.2-.8 3.8 2.6 5.3 4.5 8.7-2.2-1.2-3.6-2-5.1-2.8-.7 2.5-.4 5.5-3.8 6.4-1.3-3-2.4-5.9-3.8-9.1-5.7 3.9-9.6 8.1-11.3 14.1-.2.8.5 2.4 1.3 2.8 3.7 2.1 5.1 5.8 4.6 9.1-.5 2.9-3.4 5.5-5.3 8.2-.1.2-1.8-.3-2-.7-1.2-3.2-3.3-5.6-5.7-8.1-1.7-1.8-2.6-4.5-1-7.3.5-.8.5-1.9.8-2.9-3.4.3-7.2-1.5-7.8-3.5-.5-2-.7-4 1.9-5-.6.1-1.1.2-1.7.3 1.5-3.6 4.1-4.2 6.7-1.2 2 2.3 3.7 4.8 5.8 7.4 2-3.4 3.7-6.9 6.1-9.9 1.4-1.9 3.7-3.3 5.8-4.5 1.6-.9 3.5-1 5.7-1.6.3 1.7.5 3.3.8 5 3.4-2.1.8-6.8-4.3-7.6-1.7-.3-3.5.2-5.2.3-.1-.2-.2-.5-.3-.7 2-1.2 4-2.3 5.7-3.4-4-3.6-7.8-7-11.7-10.5-.3.7-.7 1.6-1.1 2.6-.8-.1-1.7-.2-2.5-.4.3-4 2.8-5.9 5.2-7.4 1.4 1.4 2.6 2.6 3.9 3.8.3.3.7.5 1 .7 1.5 1.1 1.3 3.8 4.1 3.6 3.9-.4 7.4-1.7 9.8-5 1.1-1.5 2.2-2.3 3.2-.6-2 4.8-6 6.5-10.5 7.6h2.7c-2.3 3.1-1.1 4.9 1.6 6.9 2.5 1.9 4.1 2.5 6.3-.3.6-.8 3.6-.8 4.5-.1 2.6 2.2 5.1 4 8.4 4.8.6.1 1.2.1 1.9.2 0-.6.1-1.1.1-1.7 0-.2-.2-.4-.2-.6.1-1.6.8-3.3.3-4.6-.7-1.2-2.4-2-3.6-2.9zm-34.5 43.3c1.2-2 2.2-3.8 3-5.1-.8-4.9-3.5-7.7-8-7.8 1.6 4 3.2 8.2 5 12.9zm-8.6-16.8c2.1-3.1 1.6-4.2-2.1-5.6.4 1.2.6 2.4 1 3.5.2.6.6 1.2 1.1 2.1zm36.2-18.1c-1.7-3.2-3.1-3.3-5.8-.7 2 .2 3.6.4 5.8.7zM170.5 295c.8-1 1.7-2 2.5-3.1 1.1-1.5 2.2-3 3.7-4.9.6 1.4 1 2.4 1.4 3.4h6.5c.2.4.4.8.6 1.1-1.1 1.2-2.3 2.3-3.4 3.5.1.7 1 2.7.5 3-1.2.9-2.8 1.2-4.3 1.6-.7.2-1.5.3-2.2.4.1.7.1 1.6.4 2.2.7 1.3 1.6 2.6 2.3 3.6 1.9-.5 3.6-.9 5.7-1.4-1 4-1.9 7.2-2.8 10.5 4.2-.4 4.1-4 5.4-6.6 2.3.8 3.2 2.5 2.5 4.1-.9 2.3-.8 5.1-3.4 6.6-.6.3-.9 1.2-1.4 1.8.7.5 1.4 1.4 2.1 1.4 1.8.2 3.6.1 6.3.1-1.7-2.1-2.8-3.4-3.9-4.8 1.2-1 2.2-2.1 3.4-2.7.8-.4 2.1 0 3.1.1-.1.8-.2 1.7-.4 2.4-.4 1.2-1 2.3-1.8 4.3 2.6-.8 4.5-1.3 6.3-1.8l.3.9c-1.3.6-2.7 1-4 1.7-.6.3-1.5 1.2-1.4 1.6.1.6 1 1.3 1.6 1.5 1.2.3 2.6.3 4.1.5-.1.9-.2 1.6-.3 2.4-.4 0-.8.1-1 0-2.3-1.5-5.6.4-7.5-2.2-.5.7-1.3 1.4-1.3 2 0 1 .5 2.1.9 3.3-3-.7-1.2-6.2-5.7-5-1 2.1.8 5.7-3.7 6.4 0-1 .2-2 0-2.9-.5-2.5-1-5.1-2-7.4-.3-.7-2.3-.8-3.6-1-2-.2-3.9-.3-6.5-.5-1.3 1.6-1.2 1.7 2.7 3.6-1.3-.1-2.7-.2-4.8-.4-1 1.1-2.5 2.8-4 4.6-2.9-1.4-3.1-2.3-1-4.9.5-.7.7-1.6 1-2.4-.8-.2-1.6-.2-2.3-.6-1.4-.7-2.6-1.6-4.3-2.6 2-1.5 5.1.4 4.5-3h3.7c.7-3.8 1.3-7.3 2-11.3 1.6.7 2.7 1.3 3.9 1.7.6.2 1.3 0 2 0 0-.6-.1-1.1-.1-1.7-.2-2.3-.3-4.6-.7-6.8-.2-.7-1.1-1.5-1.6-2.3zm2.5 21.4c-.1 1-.5 2.3-.1 3 1.7 2.7 3.7-.2 5.6.3.4-.5.7-.9 1.1-1.4-.8-.3-1.6-.6-2.5-.8-1.3-.5-2.7-.7-4.1-1.1 0-1.1.1-2.4.1-3.6 1.5.4 2.8.7 5 1.3-1-1.9-1.4-2.9-2-3.7-.5-.6-1.4-1.1-2.1-1.2-.3 0-.8 1.1-1.1 1.8-.5.9-.9 1.8-1.3 2.7l-1.8 4.2.9.3c.8-.7 1.6-1.3 2.3-1.8zm-3.7.6c-4.1-1-5.4.1-4.7 4.4 1.6-1.6 3-2.9 4.7-4.4zm348.1-50c2.1 2.2 4.6 4.3 6.3 6.8 1.3 2 1.5 4.6 2.4 6.9.3.7 1.3 1.1 2.1 1.6.1-.8.2-1.5.2-2.3-.1-2.2-.2-4.5-.3-6.7-.2-.4-.8-1.2-1.3-2.1-.3-.5-.5-1.1-.7-1.6-.3.5-.7 1.1-1.4 2.2-.4-1.9-.7-3.4-1-5.2 7 3 7.6 5.4 6.3 14.1-.2 1.1-1.3 2.7 1.3 2.2-.7 1.2-1.3 2.4-2.3 4h4.4c-.9-1.6-1.5-2.8-2.2-4 .7-.8 1.8-1.5 2-2.4.3-1.3.1-2.8.1-4.6.4.1 1.4 0 1.7.4 2.5 3.4 5 6.9 7.3 10.5.4.6-.5 1.9-1.3 2.8.2-4.4-4.4-3.1-5.7-5.5.6-.5 1.2-1.1 2.2-2-3.3-.6-2.6 1.8-3.1 3-.6 1.3-1.2 2.7-1.9 4.4 1.8 2.7 6.6 3.2 10.1.6 1.3 1.2 2.8 2.3 4 3.7 6 7.2 9.3 15.4 7.7 24.8-1.6 9.3-6 17.5-12.6 24.4-1.5 1.6-3.5 2.6-5.8 4.3 4.4-7.7 8.5-14.7 12.8-22.1 0-.5-.4-1.6-.1-2.5 2.4-7.2 2.4-14.3-.7-21.2-.9-2.1-3.2-3.5-4.9-5.3-.2.2-.5.4-.7.6.3.8.7 1.5 1.3 3-2.2-.8-3.9-1.4-5.6-2 2.9 4.4 6.4 8.5 6.7 14-.3.2-.6.4-.9.5-.7-1.3-1.5-2.5-2.2-3.8-1.5-2.8-2.6-6-4.6-8.5-1.9-2.3-4.9-3.5-8.1-3.3-3.3.3-4.1-.7-3.8-4 .6-6.7-1.1-12.8-4.5-18.6-1.3-2.3-2.1-4.8-3.2-7.1z"/><path d="M490 372.3c5.3-5.6 10.6-11.3 15.9-16.8.5-.5 1.5-.7 2.3-.7 4.3.5 8.4.6 12-2.3 1.3-1.1 2.4-2.4 3.1-4.2-.5.1-1 .2-1.8.3.3-1.1.6-2.1.9-3.1-.2-.1-.3-.2-.5-.3-1.4 1.7-2.5 3.8-4.2 5-1.3.9-3.5.8-5.8 1.2.6-1.3 1-2.2 1.3-2.9 1.6.2 3 .3 3.6.3 1.5-2.2 2.6-4 3.8-5.7 2.4.4 3.5 4.9 6 1.7.3-1.6.9-3.2.6-4.5-.3-1.2-1.6-2.1-2.6-3.2-2.3 2.4-4.4 4-6.8 2.1-.4 1.1-.6 2.2-1.2 3.1-.3.4-1.2.3-1.9.4.1-.6.3-1.3.2-1.9-.3-1.7-.8-3.5-1.2-5.5 4.1-1.7 8.7-1.8 13.5-.2 2.4-3.1.4-4.6-1.3-5.4.3-2.7.8-4.8.7-7-.1-4.1 1.4-6.1 6.9-7.8-.1 1.3-.3 2.5-.2 3.6.1 1.3.1 2.9.7 3.9.3.5 2.1.1 3.3.1-.1.2-.3.9-.5.9-3.9.4-3.8 3.6-4.6 6.3-1 3.6-2.1 7.3-3.3 10.9-.6 1.9.7 6.3 2.7 8-1 2.6-1.9 5.2-3.1 8.2-1.6-1.8-2.5-2.8-3.8-4.2.3 1.7.8 3 .7 4.1-.2 1.3-.6 3.2-1.5 3.8-3 1.8-6.4 3-9.7 4.6-.6-1.3-1.1-2.6-1.6-3.8-.2 0-.4.1-.6.1.1.9.1 1.8.2 2.7-.1.1-.3.1-.4.2l-2.4-5.7c-.4.1-.7.2-1.1.4.4 1 .8 1.9 1.1 2.9.1.4.1 1.1-.2 1.4-1 1.2-2.2 2.4-3.6 3.9-.8-.7-1.8-1.5-2.8-2.3-.5 1.8-1 3.7-1.7 6.2-.4-1.1-.7-1.7-1.1-2.7-.6 1.9-.9 2.7-1.2 3.6-.6-.4-1.3-.8-1.8-1.3-1.2-1.1-3.4-.5-4 1.1-.3.7-.4 1.5-.8 2.6-.9-.7-1.5-1.3-2.2-1.8.2-.2 0-.3 0-.3zm74.2-191.8c0 2.7.2 5.2 0 7.7-.4 5.7-.4 11.5-1.7 17-1.2 4.8-3.9 9.3-6.3 13.7-1.8 3.4-3.9 6.8-6.5 9.6-4.7 5-9.6 10.1-15.2 14-2.7 1.9-5.4 3.6-8 5.8-.9.8-2.4.8-3.6 1.8l-2.7-.6c.2.6.4 1.3.6 1.9-.7.4-1.5.9-2.3 1.5-.3-.4-.6-.9-.9-1.4 1.2 5.4-4.1 4.3-6.1 6-3.2 2.6-7.3 4.1-11.1 5.9-2.3 1.1-4.6 2.1-7.2 3.2-.2-1.5-.3-2.7-.5-4.2 1.5-.6 2.8-2.6 4.9-.7.2.2.9 0 1.4-.2 2.2-.8 4.3-1.7 6.8-2.7-.5-.8-1-1.4-1.3-2-.7-1.8-.8-2.9 1.4-4.3 5.3-3.4 9.9-7.7 14.9-11.6 1.7-1.3 3.5-2.4 5.2-3.6.7.9 1.3 1.7 2.2 2.8-2.5 1.4-4.9 2.7-7.4 4-.1-.2-.2-.4-.3-.7-.5.9-.9 2.3-1.7 2.6-4.3 1.9-8.3 4.1-11.4 8.5.7.1 1.7.4 1.8.2 1.8-3 5.6-2.4 8-4.5 1.9-1.7 4.4-2.8 6.5-4.3 3.5-2.5 6.8-5.2 10.3-7.6 5.6-3.9 10-9 14.5-13.9 4.6-5 7.2-11.3 9-17.7.6-2.2 3.2-4.4.8-7-.1-.1.1-.9.4-1.1 3.3-2.9 3.2-6.5 2.2-10.4-.4-1.8 0-3.9.4-5.8.2-.6 1.5-1 2.9-1.9zM303.9 403.8c-1.7 3.4-3.5 4.3-8.1 4-2.2-.1-4.4 0-6.5 0 0 .3-.1.6-.1.9l2.1 1.2c0 .2-.1.4-.1.7h-5.8c0-.1 0-.3-.1-.4.8-.4 1.5-.7 2.5-1.3-1.9-.7-3.4-1.3-4.6-1.8-1.3.4-2.5 1.3-3.8 1.3-6.4-.1-12.9-.5-19.3-.8-5.4-.2-10.9.2-16.2-.6-7.7-1.2-15.3-3.2-22.9-4.9-.5-.1-1-.5-1.4-1.2 6.4 1.4 12.9 2.7 19.3 4.1.1-.4.2-.8.2-1.2-1-.2-2.1-.3-3-.7-.8-.3-1.4-1.1-2.1-1.4-.9-.3-1.9-.3-2.9-.4-1.3-.1-2.6.2-3.8-.2-5.4-1.7-10.8-3.6-16.2-5.5-.5-.2-.9-.2-1.7.2 1.4.9 2.8 1.9 4.1 2.8-.1.1-.1.3-.2.4-2.1-1-4.2-2.1-6.4-3.1-1.8-.9-3.7-1.7-5.3-2.9-.7-.5-.8-1.9-1.2-2.8l-.1.2c1-1.6 2.2-1.3 3.7-.7 5.9 2.5 11.8 5.4 18 7 9.6 2.5 19.5 4.1 29.3 6.1.7.1 1.3.4 2.5 1.4-.8.3-1.7.5-2.5.8.3.4.6.7 1 1.1.9-.7 1.9-1.4 2.9-2.2 5.2 0 11-.1 16.7.1.8 0 1.5.9 1.6.9 1.6-.3 2.8-.5 3.9-.6l11.4-.9c3.9-.3 7.7-.7 11.6-.8 1 .1 2.3.8 3.5 1.2zM395.2 193c9.6-1 9.6-1 12-3.7-.2-1.9-.3-3.5-.4-4.4 3.9-.3 6.9-.3 10-.7 1.1-.1 2-1.2 3-1.9-.8-.8-1.6-1.5-2.4-2.3-.3-.3-.5-.6-1.1-1.2 2.1-1.2 2.8-4.7 6.3-2.4.2.1 1-.3 1-.4 0-.6-.1-1.4-.4-1.9-1.5-1.8-2.8-3.6-2.3-6.1.8-3.5 1.6-6.9 2.4-10.4.4.1.7.1 1.1.2-.2 1.2-.1 2.5-.6 3.5-1.1 2.4-.9 4.4.9 6.5 1.7 1.9 3 4.3 4.4 6.4.4.6.9 1.1 1.8 2.1-3 1.2-5.9 2.3-8.7 3.4 0 .9.4 2-.1 2.5-2 2.4-4 4.9-6.3 7-2.7 2.4-5.7 4.5-8.6 6.6-.7.5-1.8 1-2.5.8-2.9-.7-2.3 1.1-2.3 2.8 6.2-2.2 12.5-4 16.7-9.5.3.2.6.5.9.7-1.4 1.7-2.7 3.5-4.2 5.1-.9 1-2.3 1.6-3.3 2.5-1.7 1.3-3.1 2.9-5.7 2.2-.7-.2-1.7.7-2.8 1.2 1.4.8 2.5 1.3 3.1 1.6 3.9-1.6 7.6-2.9 11.1-4.5 1-.5 1.6-2.1 2.5-3.5-.9 6.5-4.3 11.3-8.5 15.6-1.6 1.7-2.9 1.4-3.2-1.1-.1-.9.1-1.9-.4-2.6-.5-.9-1.7-2.3-2.3-2.1-4.9 1.2-6.6-2.8-8.8-5.6-1.5-1.7-1.7-4.2-2.3-6.4zm-57.9 99c4.3.5 8.6 1 12.8 1.5.2-.2.3-.4.5-.6-.8-.7-1.5-1.4-2.3-2-1.9-1.6-3.9-3.2-6.4-5.2 3.9-1.9 6.6-2 9.7.1-.6-2-1.2-4-1.8-6.1 3.6-.5 4.5.8 6.1 8.3-.8.5-1.7 1-2.1 1.3 3.8 1.3 7.8 2.6 11.8 3.9.1-.2.3-.4.4-.6-1.1-1.6-2.2-3.3-3.7-5.5-1.8-.1-3.5-3.5-3.2-8 3.7-.9 6.9 2.7 8.2 8l-2.7.9c1.3 1.8 4.3 1.9 6.5.1-2.5-1.7-2.2-9.2 1.1-12.2.5 3.1.9 5.7 1.4 8.8l-3-1c1.1 2 2.6 3.6 2.7 5.3.1 1.9-1.7 3.9-1.7 5.8 0 1.7 1.3 3.3 2.5 5.8-2.9-1.6-5.3-3-7.8-4.5-.7-.4-1.2-.9-1.9-1.3-.4.6-.8 1.3-1.3 1.8-.7.7-1.4 1.4-2.2 1.9-3 1.8-6 3.5-8.9 5.2.9.1 2.2.1 3.8.2-.6.8-1.4 1.5-1.8 2.4-.5 1-.6 2.2-1 3.2s-1 2-1.6 3.3c-3.3-3.7-3.5-7.2-1.2-10.6.3-.5.8-1 1.1-1.5 1.2-2.6 2.3-5.4 6.1-3.1-.2-2.7-2.6-4.5-4.3-3.5-.8.4-1.4 1.1-2.2 1.4-.8.4-1.8.5-2.8.8-1.4-2-3.1-2.4-5.5-1.3-2.5 1.1-4.3-.2-5.3-3zm85.8 56.6c1.2 2.6 2.3 5.2 3.5 8.1 2.6-.7 5.1-1.3 8-2 .5.4 1.5 1.3 2.5 2.2 2.2-2.1.3-3.2-1-4.4 2-1.9 2-1.9 6.2 4.9-4.1 1.3-6.4 6.2-11.7 5-.4-.1-1 .6-1.4.9-1.6 1-3.3.3-4.5-1.1-.8-.9-2.4-1.2-3.4-1.6-1 1.2-1.9 2.2-2.8 3.2-.8-1.1-1.6-2.2-2.3-3.4-1.8-3.1-3.6-6.1-5.1-9.3-.3-.8.4-2.4 1.1-3.2 1-1.1 2.4-1.8 3.7-2.7 1.8-1.3 2.3-4.1 1-5.9-.5-.6-.7-1.4-1.1-2.1.3-.2.5-.4.8-.7 1.8 1.4 3.5 3 5.5 4.1.8.4 2.6-.2 3.2-.9 1-1 1.3-2.6 2.2-4.5.4 1.5.7 2.3 1.1 3.6 2.4-1.2 4.6-2.4 6.7-3.5.3 1.1.6 2.6.9 4-1.2.7-2.5 1.4-3.8 2.2 1.2 1.1 2.3 2.2 3.6 3.5-2 1.7-5.9 2.6-3.5 7-.3 0-.6 0-.9-.1-.7-1.3-1.3-2.6-2.1-4.1-.8.6-1.5 1.2-2.5 2.1-.9-1.4-1.7-2.6-2.5-3.8.2-.2.3-.4.5-.6.6.5 1.1 1 2.3 2 .5-.8 1.7-1.8 1.6-2.7-.4-2.1-1.8-1.2-3.3-.9-3.5.8-6 2.5-7.8 5.6-1.2 1.9-1.4 3.3.4 4.9.7-.6 1.4-1.1 2.1-1.7.6.9 1.2 1.9 1.8 2.9 1.8-.9 2.4-1.7.8-3.3-.7-.7-.8-2.1-1.1-3.2.5-.2.9-.4 1.3-.5z"/><path d="M432.2 316.3c1.5-5.9 3.1-11.7 4.6-17.6.3 0 .7.1 1 .1.2.6.4 1.1.6 1.8 1.2-1.8 2.9-3.5 3.4-5.4.8-3.8 3.9-5.4 6.3-7.6 7-6.7 15.4-11.2 24.2-15.1 6-2.6 11.7-6 17.5-9.1.6-.3 1.4-.2 3-.5-.9 1.6-1.5 2.5-2 3.5-.2.4-.7 1.1-.5 1.3 2.6 3.1-.9 5.6-.3 9.4-1.4-1.2-2-1.8-2.9-2.5.4 1.2.8 2.2 1.5 4-1.7 0-3.3.4-4.7.1-7-1.8-13.5-.2-20.4 1.7-6 1.7-9.4 6.7-14.6 9.2-.7.3-.7 1.8-1.3 2.3-5.8 5.3-8.2 12.6-11.5 19.3-.9 1.8-1.8 3.7-2.8 5.5-.4 0-.7-.2-1.1-.4zM258.3 256c2.8-2.9 6.5-.8 9.7-1.6 1.7-.4 3.4-.2 5.2-.3 1.6 0 3.2 0 4.9-.5-7.9-.2-15.8 0-23.6-.4 0-.4 0-.9-.1-1.3 1.1-.2 2.2-.4 3.3-.5 8.2-.3 16.5-.6 24.7-.9 1.6-.1 3.1-.6 4.7-.8 8.3-1 16.6.6 24.8-.4 5.7 3.3 11.5-.3 17.3.6.4.1.9.2 1.5.4-4.2 3.4-40.5 7.9-44.6 4.9 2-.7 3.3-1.5 4.8-1.7 7.1-.8 14.2-1.3 21.3-2 0-.3 0-.6-.1-.9-10.8.8-21.5 1.6-32.3 2.3v1l6.3.3c.4 2.5-1.6 2.7-3.2 2.8-7 .5-13.9.8-20.9.9-1.3.2-2.5-1.2-3.7-1.9.1 0 0 0 0 0zm45.6-87.8c-1.2-1.4-1.2-2.6.5-3.5l-.1.1c3-.7 5.6.4 8.3 1.7 2.1 1 4.7.7 6.8 1.6 1.9.8 3.5 2.5 5.7 4.2.1-1.3 0-1.8.1-2.3.1-.9.3-1.8.5-2.7.7.2 1.8.2 2.1.6.5 1 1.1 2.5.7 3.3-.9 1.6-2.4 2.8-4 4.5 1.7.6 3.8 1.1 5.5 2.1 1.5.9 3 2.4 3.7 4 .3.6-1.2 3-2.1 3.1-1.5.3-3.3-.4-4.8-1-1.7-.7-3.2-1.8-4.9-2.7.1 2.3.4 4.1.2 5.9-.4 3.5-2.8 4.8-6.1 3.8-2.8-.9-4.7.4-4.4 2.5-2.4.8-4.7 1.5-7 2.2-.5-2.4 0-2.8 6.3-4.8-3.4-4.9 1.7-7 3.6-10 2.4-3.9 2.9-6.2-1.2-9.5-.4-.3-.9-.6-1.2-1-2-3.7-5.1-3-8.2-2.1zm15.2 18.7c-1.3-2.5 2.9-5.8-1.6-7.8-.5 1.8-.9 3.6-1.3 5.3-.6 2.2.1 3.3 2.9 2.5zM214.4 320.1l-1.8-.9c-1.3 2.3-3.5 2.4-4.5.2-.5-1.2-.7-2.5-1.2-4.2-1 1.3-1.7 2.3-2.5 3.4-3.3-5.6-2.3-7.5 3.9-8.1.6-.1 1.1-1.1 1.6-1.7-.2-.4-.5-.7-.7-1.1l12.3-.9c0 .3.1.6.1.8-3.6 1.3-7.2 2.7-10.6 3.9.7.9 1.5 1.8 2.5 2.9 1.7-.5 3.7-1.1 5.7-1.6-.2-.2-.4-.5-.6-.7.9-1 1.6-2.3 2.7-2.8 2.5-1.1 2.5-3.2 2.5-4.7-2.6-1.7-4.8-3.5-7.2-4.7-1.5-.7-3.3-.7-5-.9-3-.4-5.9-.7-9.3-1 2.6-4 5.4-5.2 8.7-4-1.2.7-2.3 1.4-3.8 2.3 1.4.1 2.3.2 3.5.3-.4.6-.7 1-1.1 1.6h3.4c-.3-.5-.5-1-1-2.1 2.1.7 3.9.9 5.4 1.8 1.9 1.2 3.5 3 5.3 4.4.3.3 1.2.3 1.4.1.4-.5.7-1.3.6-1.8-.4-2.7-1.3-5.4-1.4-8.1-.1-1.6.6-3.7 1.7-4.5.8-.6 3 .2 4.4.7.4.1.7 1.4.6 2.1-.2 2-.7 4-1.2 6.7 1.5-1.8 2.5-3.1 3.6-4.3.8 3.3-1.1 5-2.7 6.9-1.6 1.8-3 3.7-4.6 5.8.4.8.9 1.6 1.4 2.5-2.9 1.4-2.7 1.4-4.3 5-.6 1.4-2 2.5-3.2 3.5-1.2 1.2-2.8 2-4.6 3.2z"/><path d="M466.8 290.9c.6 1 1.2 2 1.9 3.2.2-.4.3-.7.5-1.1.6.8 1.3 1.6 2.1 2.7.8-1 1.5-1.8 2.2-2.7-1.3-.7-2.3-1.2-3.3-1.7.2-.4.4-.7.6-1.1 1.3.7 2.9 1.2 3.8 2.3 1.9 2.1 3.2 1.3 4.3-.6.8-1.3 1.4-1.7 3.1-1.5 1.4.2 3.2-.6 4.6-1.3 3.4-1.8 4-1.7 5.4 1.5-1.8.4-3.8.7-5.6 1.3-.6.2-.7 1.5-1.1 2.2.7.2 1.5.7 2.2.5 1.8-.3 3.6-.8 5.4-1.3.1.3.2.7.3 1-1.4.5-2.9.8-4.3 1.4-1.7.7-2.4 1.9-1.4 3.3 2.3-.3 4.4-.5 6.7-.7-.1-.8-.1-1.7-.2-2.8 1.3-.9 2.7-2.2 4.3-2.6 1.7-.4 4.4 3.5 4.7 6.1-3.3 1.1-6.6 2.3-10 3.3-.9.2-2.1.1-2.8-.3-2-1.1-3.7-2.7-5.6-3.8-.7-.4-1.8-.3-2.7-.4.1.8-.1 1.8.3 2.5.6 1.1 1.6 2.1 2.5 3.1 2.1 2.3 1.6 3.8-1.3 4.7-.6.2-1.1.6-1.3.7.2 1.7.3 3.3.5 5.1-1.7-.4-2.7-.7-3.5-.9v3.6c-.3 0-.5.1-.8.1l-1-2c-.6.5-1.2 1.1-1.9 1.7.7.6 1.3 1 2.5 2.1-2-.4-3.1-.6-4.4-.9l2.7-4.8h-2.6c.5-2.5 1-4.9 1.5-7.2.3 0 .6.1.9.1-.2 1.2-.3 2.5-.5 3.9.9.4 1.8.7 2.7 1.1 2.3-3.9 1.1-8.3-1.9-11.5-3.7-3.8-8-1.2-11.7-1.9.5-2.1 1.4-4.3 2.2-6.4zm16.2 5.5c.4-.2.9-.4 1.3-.7-.5-1.3-1-2.7-1.5-4-.7.3-1.5.7-2.2 1 .9 1.3 1.7 2.5 2.4 3.7zm12.5.4c1.1.6 2.1 1.3 3.2 1.6.6.2 1.5-.2 2.1-.5.2-.1.3-1.2.1-1.3-.6-.4-1.4-.8-2.1-.7-1.1.1-2.1.5-3.3.9zM378 435.9c-67.1 11.8-134.1 12-201.3 1.2 67.2 8.7 134.3 9.2 201.3-1.2zM224.7 118.8c1.1-1 2.1-2.4 3.4-2.9 5.9-2.1 11.9-4.1 17.9-5.8 2.7-.8 5.6-.8 8.3-1.1 3.8-.5 7.5-1.2 11.3-1.3 6.9-.2 13.8-.1 20.7-.1 2 0 4.1-.1 6.1.3 2.4.5 4.8 1.4 7.8 2.4-2.5 1.1-4.2 2.5-5.8 2.4-1.9-.2-3.6-1.8-5.2-2.6-.2 2.3-1.4 2.6-5.6 2-3-.5-6.2-1-9.2-.8-8.1.4-16.3.9-24.4 1.9-4.2.5-8.2 2.2-12.4 3.2-3.9 1-7.9 1.9-11.9 2.8-.2 0-.6-.3-1-.4zm41.5 280.5c-1.3 1.3-4.9 1.2-7.3-.6-1.7-1.3-1.8-1.2-2.5 2-.7-1.3-1.1-2.1-1.2-2.2-7 1.3-13.4-.1-19.8-1.9 33.4.8 66.8.1 100.1-3.8-3.1.8-6.1 2-9.3 2.5-7.6 1.2-15.2 2.2-22.8 3.2-5 .6-9.9 1.1-14.9 1.3-1.7.1-3.4-.9-5.2-1.5-.2.3-.5 1.3-.9 1.4-3.2.3-6.4.3-9.6.4-1.2 0-2.4.1-3.6 0-1-.2-1.8-.5-3-.8zM445 175.1c-1-.5-2-1.3-3-1.3-4 0-4.9-.9-4.4-5 3 1.5 6.1 2.9 8.9 4.6.8.5 1.6 2.1 1.4 3.1-.1.9-1.4 2-2.4 2.3-5.2 1.9-8.1 5.7-9.3 11 0 .2 0 .5-.1.6-.9 1.3-1.7 3-3 3.8-.6.4-2.3-1.1-3.9-1.9-1.2.7-1.6 1.8-1.6 3.9 0 2.5-1.1 4.9-1.9 7.4-.3.9-.8 1.7-1 2.5-.7 2.7-2.5 1.8-4.1 1.3-2.1-.7-1.3-1.8-.7-3.3 1.2-2.8 1.6-6 3-8.7 4.3-8.6 10.1-15.8 19.8-18.8.6-.2 1.3-.5 1.9-.7.2-.2.3-.5.4-.8zm-22 57.8c-1.9 1-3.7 2.4-5.7 3.1-7 2.3-13.9 4.4-21 6.3-5.6 1.5-11.4 2.4-17 3.8-5.8 1.5-11.4 3.5-17.2 4.9-4.7 1.2-9.6 2.6-14.4 2.6-6.6 0-12.6 3.1-19.3 2.3-2.3-.3-2.3.2-2.7-.9 6.2-.9 12.6-1.5 18.7-2.8 10.4-2.1 20.7-5 31.2-7 11.1-2.1 21.5-6.4 32.4-9.1 3.9-1 7.6-2.4 11.5-3.5 1.1-.2 2.4.3 3.5.3.1.1 0 0 0 0zm-102.7 217c3.5-.4 7-.9 10.5-1.3 0-.3 0-.7.1-1-1.8-.4-3.5-.9-5.3-1.3.1-.3.2-.7.3-1 2.8 1.4 6.1-2.6 8.4.8 1.1-.6 2.1-1.6 3.1-1.8 10-1.3 20.1-2.4 30.1-3.6 3.5-.4 7-1.1 10.6-1.6.5-.1 1.1.1 1.7.8-19.4 5.4-39.1 9.3-59.1 11.7-.1-.5-.3-1.1-.4-1.7z"/><path d="M458.6 320.4c-.6-1.5-1.3-3-1.9-4.4-.4-.9-.7-1.9-1.1-3-.5.5-1.1 1.2-2.4 2.5-.3-1.9-.7-3.1-.5-4.2.1-.5 1.8-.5 3.1-.8.9-1.7 1.4-3.7-1.2-5.4.9-1.6 1.8-3.2 2.8-5-2.1-.1-3.9-.3-5.8-.4 2-1.6 2.2-3.1 1.1-5.1-.3-.5.2-1.4.4-2.2.6.2 1.6.4 1.7.7.6 4 4.3 3.6 6.8 4.9 1 .5 2.1.7 3.3 1.2-2.2 3-4.4 5.8-6.2 8.8-.8 1.4-1.5 3.3-1.2 4.8.3 1.1 2.1 1.9 3.3 2.8.2-.2.5-.4.7-.6-.1-.7-.5-1.3-.4-2 .1-.9.6-1.7.9-2.6.5.5.9 1.1 1.5 1.4.7.3 1.5.2 2.3.3-1.1 1.5-2.1 2.9-3.6 5 2.9 1.1 5.3 2.1 7.9 3.1 1.2-2.8 2.8-2.2 4.9-.1-1.2-.1-2-.2-3.2-.4.5.9.8 1.5 1.1 2.2h-3.5c1.1.8 1.8 1.2 2.5 1.8-1.3 1-2.5 2-3.7 2.9l-.6-.6c.1-.3.2-.7.3-1 .3-.7 1.1-1.6.9-1.9-.4-.7-1.3-1.2-2.1-1.5-1.8-.6-3.6-1.2-5.4-1.5-.9-.2-1.9.1-2.7.3zM277.3 165.7c-.6.3-1.3.6-1.9.8-.7-1.6-1.3-3.1-2-4.7-.7.8-1.4 1.5-2.3 2.5-.2-1.1-.3-1.9-.5-3.1-3.1 2-4.2 7.3-8.8 5.3 2-1.9 4.2-4.1 6.4-6.2-.2-.3-.5-.6-.7-.8-.7.2-1.3.4-2 .7-.1-.2-.3-.4-.4-.5.9-.8 1.6-2.1 2.6-2.4 6.1-1.9 6-1.8 5.6-7.8-.2-2.2-1.1-3.1-3.3-4-4.4-1.7-8.2-1.3-12.2.9-.9.5-2.4 0-3.7 0 .8-1.1 1.4-2.6 2.4-3.3 2.1-1.4 4.5-2.3 7.1-3.6 1.2 1.7 2.5 3.7 3.8 5.7.4-.3.7-.7 1.1-1 1.6-1.3 3.1-2.7 4.9-3.7.4-.2 1.7 1.2 2.6 1.9-.1.2-.3.4-.4.6-1 .1-1.9.2-2.3.2.9 3.2 1.6 6.4 2.7 9.6.3.8 1.3 1.4 1.9 2.2.2-.2.4-.3.6-.5.2 1.8.3 3.5.5 5.4-3.8 1-4.3 2.5-1.7 5.8-.1.1 0 0 0 0zm129.9 212.5c3.3.7 6.9-1.2 9.2 2.6 1.7 2.9 2.7 5.7 1.2 8.9 1.2-.1 2.3-.2 3.5-.3.8-4.4 2.8-8.5 6.4-11.4 1.9-1.6 4.6-2.1 7.2-2.7-1.7 5-3.1 9.8-8.5 11.8-2.8 1.1-2.7 2.7-.5 4.8.7.6 1 1.6 1.4 2.5-.2.2-.4.5-.6.7-2.9-1.3-5.7-2.6-9.3-4.2-.4-.4-1.4-1.6-2.6-2.2-2.1-1-4.5-1.4-6.6-2.4-.8-.4-1.6-1.5-1.6-2.3 0-1.8.4-3.6.8-5.8zm1.2 4.5c2.2 1.4 4.4 2.8 6.7 4.1.5.2 1.5 0 1.9-.4.3-.3.1-1.3-.1-1.9-1-2.6-4-3.5-8.5-1.8zm-208.2 7.7l.1-.2c-2.7-.6-5.4-1.2-8.3-1.8-1.8 2.4-1.3 7.1 2 10.2 4.8 4.6 10.1 8.6 16.8 10.4.5.1.9.4 1.6.7-6.8 1-12.4.2-17.2-5-4.4-4.8-8.1-9.5-7.8-16.2.1-1.4 1-2.8 1.8-4.9-1.5-1-3.9-2.5-6.2-4.2-1.1-.8-2-2-2.9-3.1l-.1.1c5.4 3.2 10.7 6.5 16.1 9.7 1 .6 2.2 1.1 3.1 1.9.3.5.6 1.6 1 2.4zm222.5-153.1c-3.1 4.7-71.6 22.5-98.4 23.4 15.5-3.2 32.4-6.3 49-10.3 16.5-3.9 32.9-8.7 49.4-13.1zm76 3.8c.6-1.6 1.2-3.1 1.8-4.6 7.6 1.2 13.7-1.8 19.4-6.9 7.3-6.4 13.8-13.3 17.7-22.2 1.6-3.7 2.4-7.8 3-11.9.8-5.6 1.2-11.4 1.6-17.1.1-1.8-.4-3.6-.7-6 5 9.6 2.1 29.7-6.4 43.6-8.2 13.8-20.9 21.4-36.4 25.1zm-4.3-36.4c.3-10.5 2.1-20.8-2.3-31.1-2.8-6.6-4.5-14.1-3-21.3.6-2.8 3.6-5.2 5.8-7.6 1-1.1 2.6-1.7 4-2.2.9-.3 1.9 0 2.9 0-.6.9-1.2 1.9-2 2.6-1.4 1.1-3 1.9-4.4 3-4.6 3.6-5.1 8.6-3.9 13.8 1.8 7.7 3.6 15.4 5.8 23 1.9 7.1.8 13.6-2.9 19.8zm-368.7 43.5c30.3 6.6 60.8 12.3 91.8 15-5.4 3.1-78.4-8.6-91.8-15zm181.7 9.8c-.8.6-1.6 1.7-2.5 1.7-7.6.5-15.3.8-23 1.2-4.5.2-9.1.5-13.6.6-5.2.2-10.4.4-15.7.4-.8 0-1.6-.8-2.3-1.3.7-.3 1.4-1 2.1-1 11.2-.4 22.5-.7 33.7-1 1.9-.1 3.9-1.8 5.7.5.1.1 1.6-1.2 2.5-1.3 4.2-.4 8.4-.6 12.6-.9.3.5.4.8.5 1.1zM60.2 302c.1 1.1.6 2.3.3 3.3-1.5 5.4-1.4 8 .8 12.2-2.7.3-4-1.8-3.6-5.5.3-3 .3-5.9.5-9.3-1.4.2-2.6.4-3.7.6-2.4-4 2.9-8.5 9.2-10.4-1.4-1-2.6-1.6-3.4-2.5-.5-.6-.9-1.7-.8-2.5 0-.6.7-1.3 1.3-1.7 1-.7 2.6-2.1 3.2-1.7 1.7.9 3.1 2.5 4.4 4 .2.2-.9 1.8-1.7 2.5-.9.8-2 1.3-3.6 2.4 2 .7 3.2 1.1 4.6 1.7-6.1 2.2-6.8 2.8-8.4 6.6l.9.3zm259.2-145c.8 0 1.6-.1 2.3.1 2.1.5 4.1 1.7 6.2 1.7 6.8 0 5.2 0 11 2.8.4-.8.8-1.6 1.3-2.3.4-.7 1-1.3 2-2.7.7 3.3 1.1 5.6 1.6 8.1-.9-.4-1.8-.7-2.8-1.1.8 1.3 1.5 2.5 2.2 3.6l-.8.8c-4.7-2.1-9.4-4.2-13.8-6.2-1.5 1.5-3 3.5-5 4.8-.9.5-2.8-.6-4.3-1 2.1-3.2.8-5.9.1-8.6zm49.4 84.9c1.9-.3 3.8-.7 5.7-.9.7-.1 1.4.4 2.1.7-.5.7-.8 1.7-1.5 2-2 .8-4 1.4-6.1 1.9-5.5 1.2-10.9 2.5-16.4 3.4-2.6.4-5.3.1-8 .2-.6 0-1.2.4-1.8.7-3.6 1.5-7.2 2.5-11.2 1.6.3-3.1 2.7-2.9 4.6-3.2 5.6-1 11.2-1.9 16.7-2.9 4.2-.7 8.4-1.5 12.6-2.4 1.3-.4 2.3-.8 3.3-1.1zM133.3 343.6c-1.5 4.5 2.3 4.9 4.6 6.4.5.3 1.3.2 1.7.6.6.5 1 1.3 1.5 2-.9.4-1.8 1.3-2.6 1.2-1.7-.3-3.2-1.2-4.8-1.7-.9-.3-1.8-.4-2.8-.6.5 2.7 1.3 4.8 1.3 7 0 1.7-.9 3.3-1.4 4.9-1.2-2.1-2.7-3.8-3.2-5.7-.5-1.8.1-3.8.2-6.4-3.1 3.4-5.6 6.2-8.1 9-.3-.2-.6-.5-.9-.7-.1-3.1 2.1-4.8 4.2-6.5 2.4-2 5.5-3.1 6-6.9.1-1 2.2-1.7 3.4-2.6.4-.2.7-.1.9 0zm106.2 44.3c31.3 1.2 62.5-.4 94.3-3.4-5.3 4-80.8 6.5-94.3 3.4zm-132.9-181v-6c0-1.9.2-3.4 2.7-3.5.8 0 1.8-1.7 2.2-2.7.7-1.7 1.3-3.3 3.6-3.9-1.3 3-2.5 5.6-3.5 7.8 2.2.2 4 0 5.4.6.6.2.5 2.1.7 3.4h-1.3c-1.5-.3-3-.6-4.6-.8-.1 2.6-.5 5.2-.3 7.7.1 1.1 1.1 2.1 2 3.5-.8 0-1.4.2-1.8 0-2.9-1.7-5.8-3.3-8.6-5.2-.7-.4-1.4-1.7-1.2-2.2.3-.9 1.4-1.6 2.1-2.4.5.6 1.1 1.2 1.6 1.9.3.5.4 1.1.5 1.7.1 0 .3 0 .5.1zM539 165.6c-.6-1.3-1.1-2.5-1.7-3.8-2.7-5.6-7-10.2-11.9-13.6-3.8-2.6-8.2-5.3-13.4-4.9-1.3.1-2.6-.5-3.8-.8-.4-.1-.8-.4-1.1-.4-2.9.7-2.9.7-3.6-.6 1.3-.5 2.5-1.2 3.8-1.4 1.1-.2 2.7-2.1 3.4.6.1.3 1.3.3 1.9.3 4.8.3 9.6.7 13.6 3.9 1.4 1.1 2.7 2.2 4.2 3.4-.4.7-.7 1.2-.9 1.5 6.5 3.2 7.8 9.7 10.4 15.3-.3.2-.6.3-.9.5zm-257.2 98.3c-3.7 3.2-60.4 2.2-62.8 0h62.8zm65.8-95.5l-1.5-.3-.3.6c3 1.6 5.9 3.3 8.9 4.9.1-.2.3-.4.4-.6-1-.7-2.1-1.5-3.8-2.7 4.7 1.5 8.6 2.7 12.4 3.9-.9 3-3.7 4.4-6.3 3.1-3-1.5-6.1-3-9-4.7-2.5-1.4-4.1-.7-5.7 1.5-.9 1.2-2.2 2.5-3.6 3.1-.8.3-2.1-.6-3.3-.9.6-1.1 1.1-2.2 1.9-3.1.5-.6 1.6-.6 2.2-1 1.8-1.5 3.5-3.2 5.4-4.6.5-.4 1.5.1 2.3.1.1.1 0 .4 0 .7zm182.5 176.8c1.2-3.6 2.2-7.3 3.8-10.7 1.3-2.6 3.2-5 5.2-7.3 2.6-3 2.7-6.9 3.7-10.4.3-1.1.9-2.2 1.4-3.3.4 1.1 1.3 2.2 1.2 3.2-.4 5.1-1.7 9.9-4.9 14.2-3.1 4.1-5.5 8.7-8.3 13-.4.6-1 1.1-1.4 1.7-.3 0-.5-.2-.7-.4zm-297.6 93.9c-3.1 1.6-71.4-5.8-76.5-8.7 25.9 3 51.4 5.9 76.5 8.7zm18.4-215.4c.7-3.1 3.7-3.8 5.8-4.1 2.2-.3 4.7 1.3 7 2.1v.8h-8v1.6c3.2.1 6.4.4 9.6.2 3-.2 5.9-.9 9-1.4-1.2 3.9-2.8 4.7-5.9 3.2-.5-.2-1.2-.4-1.7-.2-2.2.9-4.5 1.8-6.6 2.9-2.9 1.5-4-1.3-5.7-2.3-1-.6-1.2-2.6-1.7-3.9-.7.3-1.2.7-1.8 1.1zm256.5 112.6c-.6-.5-1.1-1-1.5-1.4.1-.2.1-.4.2-.6 1.9.4 3.8.7 6.2 1.2-2.2 3.3-4.1 6.5-6.4 9.2-1.4 1.6-3.6 1.7-5.7.4-.6-.4-1.7-.1-2.9-.1.4-.6.8-1.6 1-1.6 2.8.6 2.1-3.1 4.1-3.3-.5-1.1-1-2.1-1.5-3.4-1.2 1-1.9 1.6-2.6 2.1-2.2-2.3-2.2-2.3.7-4.6 2.5 1.2 4.7 4.3 8.4 2.1z"/><path d="M458.5 320.3c1.8 2.1 3.5 4.3 5.4 6.6-1.7 1.1-3.3.2-4.4-1.1-4.2-4.9-5.4-5.2-11.2-3.3-2.1.7-4.4.4-6.5 1.1s-4 2.1-5.9 3.2c-.8.4-1.5.8-2.7 1.4.6-3.3 1.4-5.4 4.8-5.4 1.9 0 3.2-1 4.8-2.4 1.8-1.6 5.3-1.9 8-1.8 2.5 0 5.1 1.1 7.7 1.7.1.1 0 0 0 0zm-176 72.4c20-1.6 40.2-3.2 60.4-4.8-8.9 3.3-56.5 7-60.4 4.8zm-2 0c-3.5 2.3-46.7 1.5-56.1-1.1 18.6.3 37.1.7 56.1 1.1zm23.4-224.5c-1.1.9-2.2 1.8-3.6 3 2.6.5 5-2.2 7.1.8l-4.4 2.2c.1.3.1.5.2.8 1.5.2 3.1.3 4 .4-.6 1.3-1 2.6-1.7 3.7-1.1 1.8-2.3 3.5-3.3 5.1-2.9-.6-1.5-5.8-5.5-4.1 0-.8 1.1-1.2 6.3-2.3-.5-3.6-3.9-3.6-6.1-4.9 1.3-3.1 4.2-5 7-4.7zm-5.2 215.4c2.3-.4 4.6-1 6.9-1.2 10.1-.9 20.2-1.6 30.3-2.7 9.2-1 18.4-2.5 27.7-3.7.4-.1.8 0 1.2.6-5.5 1-11 2.3-16.6 3-12 1.4-24 2.7-36 3.8-4.4.3-9 .1-13.5.2zm204.5-57.5c-.5 2.1-.8 3.4-1.1 4.6-4.6-2.2-3.5-5.7-2-9.3 3.3 2.8 6.5 5.6 10.6 9 1.3-3 2.3-5.4 3.4-7.8.3 0 .6.1.9.1l2.4 6.3c-5.4 2.2-10.3 2.6-14.2-2.9zm-326-90.1c-.8-5.9-.6-11.8-.6-17.7-.1-6.2-.2-12.4-.2-18.7 0-6.2 0-12.4.4-18.6.6 18.3 1.2 36.5 1.8 54.8-.5.1-1 .1-1.4.2zm237.9 155.7c-1.8 1.4-3.1 3.1-4.7 3.4-3.9.8-7.9.9-12.1 1.3 2.8-5.9 8-7.3 16.8-4.7zm-120.2 48.8c-4.6.2-9.2.6-13.8.6-14.9-.3-29.9-.7-44.8-1.1-.7 0-1.3-.2-1.9-1 3.7.2 7.5.4 11.2.5 7.9.3 15.8.6 23.6.6 7.7.1 15.3-.1 23-.2 1 0 1.8.4 2.7.6zm159.6-184c-1-1.5-2-2.9-3.2-4.6 2.4 1.4 4.6 2.7 6.8 4-4.5 3.2-9 6.4-13.7 9.7-.7-2.6 1.2-4.4 3.4-6-.2-.2-.4-.3-.6-.5-.5.1-1.1.3-2 .6-.1-1.7-.2-3.4-.3-5.2 3.5-.6 5.3 4.9 9.6 2zm-149-43.8c2.2 1.7 3.9 3.1 5.1 4 .2-2.3.4-5.6.6-9.3 2 1.5 3.9 5.7 3.7 7.5-.2 1.4-.4 2.8-.8 4.2-.8 2.9-2.6 3.8-4.6 1.8-2.1-2.1-4.3-4.2-4-8.2zm-100.7 72.1c.2-1.6.3-3.2.5-4.8 4.4-1 3.3 4.1 6.1 5.4.5-.4 1.2-.9 2.1-1.5 4 2.7 2.4 6.9 2.6 10.8-.6-.8-1.2-1.7-1.9-2.4-2.5-2.4-5-4.8-7.6-7.1-.5-.4-1.3-.3-1.8-.4zm-40.7-98.5c-.5-11-1.1-22-1.6-33.1.4-.2.8-.3 1.2-.5.5 1 1.4 2 1.5 3.1.2 2.4 0 4.9.1 7.3.1 2.8.3 5.7.3 8.5 0 2.6-.5 5.2-.6 7.8 0 1.1.4 2.2.4 3.3s-.2 2.3-.3 3.4c-.4.2-.7.2-1 .2zm118.6 78.2c12.1-1.3 24.2-2.9 36.4-4.1 0 .6.1 1.1.1 1.7-12.1 1.6-24.3 2.5-36.5 2.4zM294.1 454c-1.6.2-3.3.7-4.9.5-.5-.1-.8-1.9-1.5-3.5 7.4.4 14-1.6 21.2.5-5 3.6-10 1.4-14.8 2.5zM173.6 234.6c-1.3-4.4-1.9-39.4-.3-41.8.4 14.3.8 28 1.1 41.8h-.8zm26.2 146c15.7 1.1 31.4 2.1 47.7 3.2-3.9 1.1-30.6.2-47.7-3.2zM169 233.3c-.1-3.2-.5-6.4-.4-9.6.3-8.4-.9-16.8 0-25.1h1.1l.9 34.6c-.5 0-1.1 0-1.6.1zm133.2-91c1.2-1.5 2.2-3.1 3.5-4.5.9-1 2-2.3 3.2-2.4 3.2-.3 6.5-.1 9.7 0 .5 0 1.3.9 1.3 1.1-.4.8-.9 1.6-1.5 2.1-.5.4-1.8.6-2.1.3-3.1-3.2-5.5-1.2-8.1.8-1.8 1.3-3.9 2.2-5.8 3.3-.1-.3-.1-.5-.2-.7zm-179.4 73.3c-.7-1.5-.3-2.5 1.4-3.4.5-.3 1.1-1.5 1-2-.9-2.4-.2-4.7-.1-7 .1-2.8-.3-5.5-.4-8.3v-2.3c.4-.1.7-.2 1.1-.3.4 1.6 1.1 3.2 1.2 4.8.3 4.7.5 9.4.6 14.2 0 .8-.3 1.9-.9 2.3-1.1.9-2.5 1.4-3.9 2zm327.7 25.8c-.9.1-1.8.2-2.6.2 0-.8-.2-1.5 0-2.3.5-2.5 1-5 1.6-7.7 2.5-.9 5-1 7.9 1.1-1.8.8-3 1.4-4.8 2.1 1.4.6 2.4 1 3.3 1.4 0 .2.1.5.1.7-1.2.3-2.4.8-3.5.8-3.2.1-3.4.3-2 3.7zM72.4 308.5c-1.2 4.5-2.3 8.7-3.4 12.9-1-2.1-1.8-3.7-2.6-5.3-.4-1.1 3.2-1.3.8-3.5.6-.5 1.2-1 2-1.5-.8-2.6-5.5-4.3-1.4-8.7-1 4.8 1.7 5.9 4.6 6.1zM470.9 340v-4.3c-1.3 1.4-2.1 2.2-3.2 3.5v-3.9c2-.4 3.9-.7 6.5-1.2-2.2-2.1-3.9-3.8-5.7-5.5.2-.3.4-.6.5-.8 2.9-.4 5.5 5.2 8.7.1-.8 2.2-1.3 3.7-1.8 5.1-1.4 2.5-2.8 4.8-4.2 7.2-.2 0-.5-.1-.8-.2zM150.3 173.8c-4.9-4-2.4-8.9-3.1-13.2-.1-.8 0-1.6-.4-2.2-1.3-2.2-.4-3.5 1.7-5.1 2.7 6.7-.4 13.5 1.8 20.5zm78.2 85.5H249c.1.4.2.7.3 1.1-.6.5-1.1 1.2-1.8 1.3-5.3 1-17.4-.4-19-2.4zm-38.2-83.2c.9 1.1 1.9 2.1 2.5 3.2.8 1.4 1.2 3 1.8 4.6.7 1.7 1.3 3.3 3.7 1.7.9-.6 2.3-.2 3.8.2-1.3 1-2.5 2.3-4 3-2.2 1-3.9.2-4.9-2.1l-4.2-9.9c.5-.2.9-.4 1.3-.7zM166 204.7c-.3 9.2 1.4 18.3.4 27.5h-1.6c.4-9.2-.6-18.4-.4-27.5.6-.1 1.1-.1 1.6 0zm17.4 59.8c16.5 1.6 32.9 3.1 49.4 4.7-16.6.1-33-2.1-49.4-4.7zm-71.5 122.7c-2.4 1.9-4.7 3.9-7.2 5.7-1.5 1.1-3.7 1.3-4.4-.8-.3-.8 1.4-2.8 2.6-3.4 2.6-1.3 5.5-2 8.3-3 .2.5.4 1 .7 1.5zM323.6 257c-1.1.4-2.2.9-3.3 1.1-3.5.4-7.1.8-10.6 1-.5 0-1.1-.6-1.7-1 .4-.5.7-1.5 1.2-1.6 4.8-.6 9.5-1.9 14.3-.6 0 .4 0 .7.1 1.1zM160.3 153.1c.4 10.6.7 21.3 1.1 31.9H160c1.1-10.7-1.8-21.3-1.2-32 .4.1 1 .1 1.5.1zm10.2 138.5c-4.3-1.8-6.5-4.5-8.2-7.8-.3-.6-.1-1.8.3-2.4.2-.3 1.5-.1 2.1.2 3.7 2 4.5 5.8 5.8 10zm201.7 79.9c-14.3 2-28.6 3.9-43 5.9 0-.3-.1-.6-.1-.9 14.3-2 28.6-4 43-5.9 0 .3 0 .6.1.9zM224.7 118.8c-4.8.7-9.6 1.5-14.5 2-1 .1-2.1-.7-3.1-1.5 5.9-2.5 11.7-2 17.6-.5zm217.2 68.5v18.2h-.9c-.2-6.1-2.5-12.2-.2-18.3.3 0 .7 0 1.1.1zM258 157.9c1.9 1.1 3.2 1.8 4.6 2.6-2.8.8-4.7-.9-5.4-2.9-.4-1.2.4-3.8 1.5-4.6 2.9-2 5-1.4 7.2 1.5-2.6 1.2-5.1 2.2-7.9 3.4zm-105.4-4.3c.4 7.4.8 14.7 1.2 22.1-.5 0-1.1 0-1.6.1-.7-7.3-.9-14.7-1-22.1.4 0 .9-.1 1.4-.1zm-42.9 40c-2.1-2.5-.9-3.9.1-5.8s1.9-3.6 3.9-3.9c1.7-.2 3.6.3 5.6.5v4.4c-1-1.3-1.6-2.1-1.9-2.5-1.7-.2-3.1-.3-4.2-.4-1 2.3-2.2 4.9-3.5 7.7zm58.4-6.6c-.4-11.1-.8-22.1-1.3-33.2h1.5V187h-.2zm-11.5-34.8v21.9c-1.4-2-2.2-19.7 0-21.9zm315.7 216.1c4.5-3.7 5.1 1.4 7.8 3.4-3.2 1-6 1.9-8.8 2.8-.2-.4-.5-.7-.7-1.1.9-1.2 1.8-2.4 2.8-3.8-.3-.3-.7-.8-1.1-1.3zm-27.1-184.4v19c-1.9-6.3-1.9-12.6-1.9-19h1.9zm18.9 122.8c.3-.7 1-2 1.7-3.4h1.1c.2 1 .4 2 .7 3.7 1.2 1.3 3.1 3.4 5.7 6.1-2.3.9-4.2 1.6-6.2 2.4.8-2 1.9-3.7 1.5-4.4-.9-1.5-2.6-2.5-4.5-4.4zm-252.9 79.1c9.1.6 18.1 1.3 27.2 1.9 0 .5-.1.9-.1 1.4-9.1-.7-18.2-1.5-27.3-2.2 0-.4.1-.7.2-1.1zm-6.5-101c1.8 1.6 3.7 3.2 5.8 5-3.2 1.4-5.6 2.5-8 3.6-.3-.3-.7-.6-1-.9.8-1.3 1.7-2.7 2.8-4.5-.8-1-1.9-2.4-3.4-4.3 1.7.5 2.8.8 3.8 1.1.1 0 0 0 0 0zm-25-93.5v-35.2h.1c.4 11.7.8 23.5 1.2 35.2h-1.3zm-17.1 20.5v18.5c-2.5-2.5-2.4-16 0-18.5zM93.4 390.5c-4.9-.6-7.7-3.2-8.4-7.9 3.6-.5 3.6-.5 8.4 7.9zm59.8-176.1c2.6 2.8 2.6 14.6 0 16.3v-16.3z"/><path d="M121.3 187c2.1 1.4 3.2 13.2 1.8 16.9-1.3-1.7-2.5-12.4-1.8-16.9zm196 182.3c-8 .6-15.9 1.3-23.9 1.9 2.4-1 4.6-2.2 6.9-2.8 1.3-.4 2.8.1 4.2.1h12.8v.8zm94.6-213.7c.4 8.7.7 17.4 1.1 26.1-1.5.1-1.6.1-1.6-2.2-.1-5.7 0-11.4-.1-17.1 0-2.2-.3-4.5-.5-6.7.4 0 .7 0 1.1-.1zm105.6 111.3c-1.9-1.1-3.8-2.2-6.5-3.8 2.5-1.4 4.1-2.3 5.1-2.8 2.4 1.9 4.3 3.4 6.1 4.8-.1.2-.1.4-.2.6-1.5-.3-3.1-.6-5-1 .1.9.2 1.6.4 2.3l.1-.1zm-345.3-113v24.2c-2-2.4-.2-5.3-.8-7.7-.6-2.6-.4-5.4-.5-8.1-.1-2.8 0-5.6 0-8.3.4-.1.9-.1 1.3-.1zm245.1 91l-31.8 9.3-.3-.9c10.6-3.1 21.2-6.2 31.8-9.4.2.3.2.7.3 1zm-219.8-28.4c.3 6.3.6 12.6.8 19 0 .6-.7 1.2-1.1 1.9-.5-.6-1.3-1.2-1.3-1.8.1-3.3.6-6.7.7-10 .1-3 0-6.1 0-9.2.4 0 .6 0 .9.1zm-65.1 7.3c1-1.3 2-2.1 2-2.8.1-2.1-1.2-3.6-3.3-4.4 0-.3.1-.5.1-.8 1.1.2 2.3.2 3.2.7s1.7 1.5 2.3 2.4c1.2 1.7 2.4 3.9.3 5.4-.9.6-2.9-.3-4.6-.5zm236.5 18.1c-1.5 0-3-.1-4.5.1-2 .3-4 .8-6.1 1.3 1.3-1.9 4.6-3.4 9.1-4 3.4-.5 6.8-.7 10.6-1.1-3.3 1.3-6.2 2.5-9.1 3.7-.1 0 0 0 0 0zm97.5 10.4c-6.5-1.4-13.1-2.8-19.6-4.2.1-.3.1-.7.2-1 6.6 1.3 13.1 2.5 19.7 3.8 0 .4-.2.9-.3 1.4zm-132 52.2c2.7-2.5 4.9-4.6 7.1-6.6.3 5.9-.7 8.7-7.1 6.6zm-30.1 14.6c-1.5-1.8-3.1-3.4-4.3-5.3-.4-.6.6-2 .9-3 .9.4 2.2.6 2.5 1.3 1 1.9 1.5 4 2.2 6.1-.3.2-.8.6-1.3.9zM157.6 214.4c2.1 5.7 2 13.8-.1 15.8-.4-5.6-1.2-10.7.1-15.8zm191.2 47.1c3.4-1 6.8-2.3 10.2-3 6.3-1.3 12.6-2.3 19-3.1-9.6 2.5-19.2 5.3-29.2 6.1zm73.5 64.1c-1.9-1.5-2.4-5.6-.7-7.3.4-.4 1.9-.5 2.4-.1 2.2 1.8 1.7 4.8-.8 6-.4.2-.6.9-.9 1.4zm101.3 3.5c-1.1-.2-3.8-.3-3.9-.8-.3-2.1.1-4.4.3-6.6.9.1 2.3-.1 2.6.4.6 1.1.8 2.5 1 3.8.1.9 0 1.8 0 3.2zM74.3 375.5c1.6 2.2 3.4 4.2 4.9 6.5.4.6.1 1.6.1 2.5-.8-.2-1.8-.1-2.3-.5-2.4-2.1-3.2-5-3.6-7.9.2-.2.5-.4.9-.6zm110.6-197.1v35.1h-.6v-35.1h.6zm-5.2 197.9l.1-.1c-.8.1-1.9.6-2.3.3-3.1-2.7-6.1-5.6-9.1-8.4l-.1.1c.5-.1 1.1-.4 1.4-.2 3.1 2.1 6.2 4.3 9.3 6.6.5.3.5 1.1.7 1.7zM423.1 233c3.9-2.6 8.1-4.7 12.9-5.2-3.4 4-8 4.9-12.9 5.2-.1-.1 0 0 0 0zm34.1 8.7c4-1.7 10.7.2 12.8 3.8-4.3-1.2-8.6-2.5-12.8-3.8zm9.6 49.2c-3.4-.5-6.8-1.1-10.4-1.6 1.4-3.4 3.4-2 4.8-1.6 2.5.5 3.9.2 3.8-2.7.6 1.9 1.2 3.9 1.8 5.9zm59.9-31c1.7 1 3.7 1.9 5.2 3.2 1.3 1.2 2.2 2.9 3.3 4.3-2.7.7-5.8-1.6-9-6.6.1-.3.3-.6.5-.9zM294.9 440.5c2.5-.4 5-.9 7.5-1.1 7.4-.5 14.9-.9 22.3-.9-9.9 1.3-19.8 2.1-29.8 2zM149.4 229.7v-15.3h1.1c.3 5.1.5 10.2.8 15.3-.6-.1-1.2 0-1.9 0zm298.1-29.1v-12.2c2.9 3 3 9.3 0 12.2zM69.6 379.5c-4.5-.6-6.7-3.6-9-6.7 3.3-1 6.7 1.6 9 6.7zm281.1 56.1c8.3-1.3 16.7-2.6 25-3.9.1.3.1.7.2 1-8.4 1.2-16.7 2.4-25.1 3.7-.1-.2-.1-.5-.1-.8zm-216-221.7c-2.2-2.4-2.2-8.2 0-14.8v14.8zm182.1 149.7c6.7-.5 13.3-1.1 20-1.6 0 .4.1.8.1 1.2-6.7.5-13.4 1.1-20.1 1.6.1-.3 0-.7 0-1.2zM181.1 193.4v19h-.5c-.3-6.3-.6-12.6-.8-19 .4.1.9.1 1.3 0zM310 144.9c3.7-4 5.4-4.5 8.5-2.3.1.1.2.3.4.8-3.1.5-5.3 4.6-8.9 1.5zm-195.5 61.3c3.1 3 3-2.3 6.1-1.7-1.2 2.2-2.3 4.3-3.5 6.4-3.6-.7-3.7-.9-2.6-4.7zm221.4 178c6.2-.9 12.4-1.7 18.6-2.6.1.3.1.7.2 1-6.2 1-12.4 2-18.5 3-.1-.5-.2-1-.3-1.4zm-154.6-148v-21.1h.4v21c-.1 0-.3.1-.4.1zm18.6-82.4v17c-1.7-.9-1.9-2.1-1.4-5 .3-2 .3-4.1.4-6.1.1-2 0-3.9 0-5.9h1zm-17.3 212l23.1 2.4c0 .3-.1.6-.1 1l-23.1-2.7c.1-.2.1-.5.1-.7zm-40-138.5c-.2-.1-.5-.1-.5-.2-.4-3.3-.7-6.6-1-9.9 0-.3.5-.9.9-1s1.2.4 1.2.6c.1 3.4 0 6.8 0 10.2-.1.2-.4.3-.6.3zm298.8 120.6c4.9 2.5 5.6 6.8 2.4 8.8-.8-3-1.6-5.9-2.4-8.8zm-275.3-85.7c-6.8-1.2-13.7-2.4-20.5-3.7.1-.4.1-.7.2-1.1 6.8 1.3 13.7 2.7 20.5 4-.1.3-.2.5-.2.8zM458 232.5c2.7.4 5.5.7 8.2 1.3.4.1.7 1.1 1 1.6-.6.3-1.2 1-1.7.8-2.6-.8-5.2-1.9-7.7-2.8 0-.3.1-.6.2-.9zM327.1 437.9l20.1-1.8c0 .3.1.6.1.9-6.7.6-13.4 1.3-20.1 1.9 0-.4 0-.7-.1-1zm-67-26.7c-6.2-.5-12.4-.9-18.6-1.4 0-.3 0-.5.1-.8 6.2.3 12.4.7 18.6 1 0 .4 0 .8-.1 1.2zm-75-174v-14.4h.8v14.4h-.8zM294 182c-2.2-3.4-1.6-7.7 1.3-11.8-.4 4.1-.8 8-1.3 11.8zm109.2-9.4v-18.1h.3v18.1h-.3zM268 154.2c-1.2-2.3-2.3-4.3-3.7-6.9 2.3-.3 3.9-.5 5.6-.7.1.3.1.6.2.9-.7.4-1.5.8-2.6 1.4.6 1 1.2 2.1 1.9 3.4-.4.5-.9 1.1-1.4 1.9zm75.8 153.1c1.3-2.9 2.6-5.8 3.9-8.8 1.9 4.2-1 6.4-2.5 9.3-.4-.1-.9-.3-1.4-.5zm-24.4-150.4c-.9.2-1.9.7-2.6.4-3.5-1.5-6.8-1.7-10.1.6-.3.2-.8.1-1.2.1l-.2-.2c1.9-2.6 7.2-3.9 10.2-2.5 1.3.6 2.6 1.1 3.9 1.6 0 .1 0 0 0 0zm36.9 3.7c-2.1 1.6-4.3 3.1-6.9 5-.4-3.3 1.9-4.2 3.3-5.5.7-.7 2.1-.6 3.2-.9.1.5.2.9.4 1.4zm78.5 73.8c-3.4 1.1-6.8 2.3-10.2 3.4-.1-.4-.3-.7-.4-1.1 3.3-1.3 6.7-2.7 10-4 .2.6.4 1.1.6 1.7zm-318.2 92.2c.5-1 .7-1.8 1.2-2.6.8-1.3 1.8-2.6 2.7-3.8.3-.4.9-.5 1.4-.8.2.5.7 1 .7 1.5-.1 2.5-2.8 5.1-6 5.7zm82.3-142.7c-2.8-.3-3.4-4.6-.7-8.2.3 2.6.5 5.3.7 8.2zm-65.2-26.6c3.3-.9 6.6-1.7 9.9-2.6-1.5 2.3-8.5 4.2-9.9 2.6zM60 334.6c-2.1 3.1-4.6 3.9-6.5 2.4-.4-.3-.9-1-.8-1.4.1-.4.8-.9 1.3-.9 1.8-.2 3.6-.1 6-.1zm291.5-60.3c5.3-.8 10.6-1.7 15.8-2.5.1.3.1.5.2.8-1.6.3-3.2.7-4.9 1-1.9.4-3.8.8-5.7 1-1.8.2-3.6.3-5.4.4v-.7zm121.3 10.2c2.9 1.8 4.8 3 7.5 4.7-2.5 0-4.5.5-5.8-.2-.9-.4-1-2.5-1.7-4.5zm-302.4 10.4c-2 .4-4 .9-6.1 1-.6 0-1.2-1.1-1.8-1.6.7-.4 1.6-1.3 2.2-1.2 2 .4 3.9 1.2 5.7 1.8.1.1 0 0 0 0zm84.4-100.6c.9 2.8 1.8 5.7 2.8 8.7.7-.3 1.3-.5 2.4-.9-.4 1-.7 1.7-.9 2.4-1-.5-2.8-.7-3-1.4-1-2.7-1.4-5.6-2.1-8.4.2-.2.5-.3.8-.4zm44.4 184.4l16.8-1.2c0 .3 0 .6.1.9l-16.8 1.2c-.1-.3-.1-.6-.1-.9zM433.6 210c.1-3.9-1.9-7.7-1.3-11.6.4 0 .9 0 1.3-.1V210zM87.7 282.3c1.6-3.3 5.1-3.4 7.8-4.6l.6.9c-2.6 1.5-5.2 3.1-7.8 4.6-.3-.3-.4-.6-.6-.9zm210.9 101.2c-4.7.4-9.5.8-14.2 1.3 0-.4 0-.8-.1-1.2 4.8 0 9.6 0 14.3-.1.1.1 0 0 0 0zM188.9 214.1c-.2-4.2-.6-10.8-1-17.5.3 0 .6 0 1-.1v17.6zM193 226v-14.3h.4V226h-.4zm70.4 158.7h-14.8v-.6h14.8v.6zm-48.1-33.1c.7.6 1.5 1.2 2.2 1.8l-.6.9c-2-1.3-3.9-2.6-5.9-3.9.2-.5.3-.9.5-1.4 1.4.2 2.9.4 4.7.6-.4.9-.7 1.4-.9 2zm29-25.2c-1.2-.3-2.9-.2-3.6-1-2.2-2.4 1.3-2.7 2-4.6.8 1.8 1.4 3.3 2 4.7-.2.3-.3.6-.4.9zm193.5 13.2c3-2.4 6-1.9 9.5 1.2-3-.3-6-.7-9.5-1.2zm91.9-35.3c3 2 6.1 4 9.1 5.9-.2.3-.3.5-.5.8-3.1-1.8-6.3-3.6-9.4-5.4.3-.4.5-.9.8-1.3zm-46 72.4c-3.3 1.5-6.6 3-9.9 4.4-.2-.4-.4-.9-.6-1.3 3.3-1.4 6.7-2.8 10-4.3.2.4.3.8.5 1.2zm-269.2-22.4c1.7.5 3.1.9 4.5 1.3 0 .2-.1.4-.1.7h-3.4c.8.7 1.3 1.1 1.3 1.1-.6 1-1.3 2.1-2.3 3.9v-7zM69 272.4c-3.5 1.6-6.9 3.3-10.4 4.9l-.6-1.2c3.5-1.5 7-3.1 10.5-4.6.2.3.4.6.5.9zm107.1-110.7v13.6h-.6v-13.5c.2-.1.4-.1.6-.1zm-73.5 100.6c3.4-1.1 6.8-2.2 10.2-3.4.1.5.3.9.4 1.4-3.5 1-7 1.9-10.5 2.9 0-.4 0-.7-.1-.9zm347.5 41c-1.6-1.5-2.9-2.7-4.2-3.9.1-.3.1-.7.2-1 1.3-.2 2.6-.4 4-.6v5.5zM203.1 176v-8.4h.9v8.5c-.3-.1-.6-.1-.9-.1zm278.7 186.9v7.6c-.3 0-.6 0-.9-.1.7-2.4-2.5-5.1.9-7.5zm-275.4 9.8c5 .3 10.1.7 15.1 1v.8c-5-.3-10-.7-15.1-1v-.8zm-17.5-135.8v-9.5h.8c.2 3.1.4 6.3.6 9.4-.6 0-1 0-1.4.1zM131 203.6v9.3c-2-3.2-2-7.1 0-9.3zM340.6 342c4.2-.3 8.4-.7 12.7-1 0 .3.1.7.1 1-4.2.3-8.4.6-12.6 1-.1-.4-.2-.7-.2-1zm138.3-15.9l3.3-8.7c1.2 3.8-.7 6.4-3.3 8.7zM114 264.7c-3.4 1.1-6.8 2.1-10.1 3.2-.1-.4-.2-.8-.4-1.2l10.2-3c.1.3.2.6.3 1zm351.2-25c-2.5-.6-4.9-1.3-7.4-1.9.1-.4.2-.9.3-1.3 2.5.6 4.9 1.3 7.4 1.9-.1.4-.2.8-.3 1.3zm-85.3 51.4c-1 1.1-2 2.2-3.1 3.4-.7-1.5-1.1-2.5-1.7-3.8 1.3-.2 2.8-.5 4.4-.7.1.4.2.8.4 1.1zm-207.4-6c-1.9-2.3-.8-4.5.2-6.7.4 0 .8 0 1.2.1-.1 2.2-.2 4.4-.4 6.6-.3-.1-.6-.1-1 0zm166.6 46.3c2.1 1.8 5.8-1.2 7.5 3.5-2.9-.8-5.4-1.5-7.9-2.2.1-.4.3-.9.4-1.3zm93.3-162.3c.4 1.2.8 2.4 1.3 4-1.3.2-2.5.3-4.6.6 1-2 1.6-3.4 2.3-4.8.4.1.7.1 1 .2zM232 379.7c-2.9-.2-5.7-.4-8.6-.6-1.1-.1-2.1-.2-3.1-.8 3.9 0 8-1 11.7 1.4zm116.8-118.3c-3.8 1-7.7 1.9-11.5 2.9-.1-.5-.2-.9-.3-1.4 3.9-.5 7.9-.9 11.8-1.5 0 .1 0 0 0 0zm-153.6-90v-13.2h.5v13.3c-.1-.1-.3-.1-.5-.1zm140.7 116.3c-3.9.3-7.7.6-11.6.9 0-.3 0-.6-.1-.9 3.9-.3 7.7-.7 11.6-1 .1.3.1.6.1 1zm-17.8 123c3.7-.6 7.3-1.3 11-1.9.1.4.1.8.2 1.2-3.7.4-7.3.8-11 1.3-.1-.3-.2-.5-.2-.6zm-15.4-.9c-3.2.2-6.4.3-9.5.5 0-.3 0-.7-.1-1 3.2-.2 6.4-.4 9.5-.6.1.3.1.7.1 1.1zm89.9-229.3c.2 3.5.3 7.1.5 10.6-.3 0-.6 0-.9.1-.2-3.5-.4-7.1-.6-10.6.3 0 .7 0 1-.1zM226.9 370c4.4.2 8.8.4 13.2.7v.8c-4.4-.2-8.8-.5-13.2-.7v-.8zm144.8-7.4l-12.3 2.1c0-.2-.1-.5-.1-.7 4.2-.7 8.3-1.5 12.5-2.2-.1.2-.1.5-.1.8zm-151.4 7.9c-3-.3-6-.6-8.9-.9 0-.3.1-.7.1-1 3 .3 6 .5 9 .8-.1.3-.1.7-.2 1.1zm-29-199.7v-11.6h.4v11.6h-.4zm356.1 145.9c-.3-3.1-.5-6.2-.8-9.4 1.8 3.1 2.2 6.3.8 9.4zM164 336.8c-2.8-.3-5.5-.7-8.3-1 0-.3.1-.6.1-.9 2.8.2 5.6.4 8.4.7-.1.4-.2.8-.2 1.2zm282.9-51.4c3-2.3 5.9-4.7 8.9-7 .2.2.4.5.6.7-2.9 2.4-5.8 4.7-8.7 7.1l-.8-.8zM150.8 282c-3.3-.8-6.7-1.6-10-2.4.1-.3.1-.5.2-.8 3.4.7 6.7 1.3 10.1 2-.2.4-.3.8-.3 1.2zm118.3 128.4h12.5v.4h-12.5c.1-.1 0-.3 0-.4zm-97.2-222.5c-.1-2.8-.3-5.6-.4-8.4.4 0 .8-.1 1.2-.1.2 2.8.3 5.6.5 8.5h-1.3zM55.1 273.4l8.7-4.2c.2.3.3.7.5 1-2.9 1.3-5.9 2.6-8.8 4-.1-.3-.3-.6-.4-.8zm163-45v7.4c-.1 0-.3 0-.4.1-.2-2.4-.5-4.9-.7-7.3.4-.2.8-.2 1.1-.2zm183.3-19.8c.2 3.5.4 6.9.5 10.4h-.9v-10.4h.4zM137.6 217c-.3-1.9-.5-3.8-.9-6.5 2.6 2.3 3.2 4.1 1.9 6.4-.3 0-.6 0-1 .1zm205.8 150c-3.4.4-6.8.9-10.2 1.3 0-.3-.1-.6-.1-.8 3.4-.5 6.8-.9 10.2-1.4.1.3.1.6.1.9zm-70.7 4.8h-13.2v-.5h13.3c-.1.2-.1.3-.1.5zm154.3-206c-.1-2.3-.3-4.6-.4-6.9.4 0 .9 0 1.3-.1l.3 6.9c-.4.1-.8.1-1.2.1zm63.2 206.6c.1 3.5-3.1 2.5-5.3 4.2.5-3.9 4-2.7 5.2-4.4-.1.1.1.2.1.2zm-68.7-160c.6-.8 1.1-1.7 2-2.9.7.9 1.2 1.5 1.7 2.2-1.1.5-2.1 1-3.2 1.5-.2-.2-.3-.5-.5-.8zm-126 56.3c-3.1.3-6.2.5-9.3.8 0-.3 0-.5-.1-.8l9.3-.6c0 .2 0 .4.1.6zm124.6-111.1c.1 1.9.2 3.7.3 5.6h-1.2c-.1-1.9-.2-3.7-.3-5.6h1.2zM192 236.7c.2-2.5.4-5.1.6-7.6h.6c.2 2.6.3 5.1.5 7.7-.5 0-1.1-.1-1.7-.1zm40 143c1.7-.2 3.4-.5 5.2-.6 2.3-.1 4.6 0 6.9.6H232zm86.9-113.3c-3.4.4-6.8.9-10.2 1.3 0-.3-.1-.7-.1-1 3.4-.4 6.8-.8 10.2-1.1 0 .3 0 .6.1.8zm88.5-95.9c-.1-2.5-.2-4.9-.4-7.4.4 0 .7 0 1.1-.1.1 2.4.2 4.9.3 7.3-.4.1-.7.2-1 .2zm39.3 176.4c-1.6-1.1-3.2-2.3-4.9-3.4.2-.3.3-.6.5-.9 1.7 1 3.4 1.9 5.2 2.9-.3.5-.6 1-.8 1.4zm-282-1.1c3.2.5 6.3 1 9.5 1.5 0 .2 0 .3-.1.5-3.2-.3-6.3-.7-9.5-1 0-.4 0-.7.1-1zm24-162.3v7.2h-.7v-7.3c.2 0 .4.1.7.1zm27.9-48.4l-3.6 1.8c-.2-1.8-.5-3.2-.5-4.6 0-.2 1.6-.7 1.8-.5.9.9 1.5 2 2.3 3.3zm136.5-6.6c1 1.2 2 2.4 2.9 3.5-.3.4-.6.7-.9 1.1-1.2-.4-2.7-.6-3.6-1.4-.4-.4.1-1.9.3-2.9.4 0 .8-.2 1.3-.3zm-97.4-8.3c.9.9 1.8 1.7 2.7 2.6-.8.6-1.5 1.7-2.2 1.6-2.4-.2-1.7-1.9-1.5-3.3.3-.3.7-.6 1-.9zm46.2-1.3c1 1.2 1.7 2 2.1 2.9.1.2-1.1 1.4-1.4 1.3-1-.4-1.8-1.2-2.7-1.8.5-.7 1.1-1.3 2-2.4zm-42.3 5c.2-3 1.4-3.7 3.1-3.3.5.1.8 1.1 1.2 1.6-1.2.5-2.5 1-4.3 1.7zm-17.2 2.8c-.9.5-1.7 1.3-2.6 1.3-.7 0-1.8-1.1-1.8-1.7-.1-.7.8-1.6 1.2-2.4.9.5 1.7 1.1 2.6 1.6l.6 1.2zm-22.9 2.3c.9 1.5 1.6 2.4 1.9 3.4.1.2-1.5 1.3-1.5 1.2-.8-.7-1.6-1.5-2-2.5-.2-.2.7-.9 1.6-2.1zm62.1-8.3c-1.2.9-2 1.9-2.5 1.8-.7-.1-1.2-1.2-1.9-1.9.7-.6 1.4-1.4 2.1-1.6.6-.1 1.3.9 2.3 1.7zm10.7 1.6c-1.3-.4-2.7-.7-4-1.1.5-.7 1.1-2 1.5-1.9 1.1.2 2.2 1 3.2 1.5-.2.4-.5.9-.7 1.5zm6.2-.3c-1.8-.1-4 1-4.3-2.2 3.9-.5 3.9-.5 4.3 2.2zm50.6 9.9c-1-.9-2-1.7-2.9-2.6.6-.4 1.6-1.2 1.8-1.1.9.7 1.5 1.7 2.3 2.6-.4.3-.8.7-1.2 1.1zm-100.5-7.6l2.1-2.7c.6.5 1.2 1.1 1.7 1.6l-2.4 2.4c-.5-.4-1-.8-1.4-1.3zm56.7-1.9c.8-.6 1.6-1.6 2.4-1.7.5-.1 1.3 1.2 1.9 1.8l-3.6 1.2c-.3-.5-.5-.9-.7-1.3zm-81.4 9.2c-.3-.9-.6-1.9-.9-2.8.1-.3.3-.6.4-.8.8.4 2.2.7 2.4 1.3.3.8-.5 1.8-.7 2.8-.4-.2-.8-.4-1.2-.5zm87.1-7c.8-4 2.6-3.2 4.6-1.6-1.2.4-2.5.9-4.6 1.6zm103.8 22.6c-.8-.9-1.5-1.8-2.3-2.8.8-.4 1.7-.8 2.5-1.2.4 1 .8 2 1.2 3.1-.4.3-.9.6-1.4.9zm30.4 9.7c1 .3 2.2.4 3.1.9.4.3.1 1.5.1 2.4-1.2-.5-2.5-1.1-3.7-1.6.2-.6.4-1.1.5-1.7zm-24.5-8.4c-.9-.8-1.8-1.7-2.8-2.5.7-.3 1.9-1.2 2.1-1 .8.7 1.2 1.7 1.8 2.6-.4.4-.8.6-1.1.9zm-249.1-7c-1.2.8-2 1.6-2.5 1.5-.9-.2-1.6-1.1-2.4-1.7.8-.6 1.5-1.6 2.4-1.7.6-.2 1.3.9 2.5 1.9zm-6.3 1.1c-1.1.3-2.2.5-3.3.8v-2.8c1.1.1 2.2.3 3.2.4.1.6.1 1.1.1 1.6z"/></svg>