<svg xmlns="http://www.w3.org/2000/svg" viewBox="0 0 566.93 566.93"><radialGradient id="a" cx="281.804" cy="438.954" r="67.067" gradientTransform="matrix(1.2891 0 0 2.69915 -81.998 -707.012)" gradientUnits="userSpaceOnUse"><stop offset="0" stop-color="#8bbac7"/><stop offset=".367" stop-color="#88b9c7"/><stop offset=".662" stop-color="#7eb5c5"/><stop offset=".93" stop-color="#6cafc3"/><stop offset="1" stop-color="#65acc2"/></radialGradient><path d="M281.273 453.584H159.556s39.248 28.772 39.248 41.87c0 0 2.235 6.542 82.47 6.542 79.447 0 82.469-6.542 82.469-6.542 0-13.098 39.248-41.87 39.248-41.87H281.273z" fill="url(#a)"/><radialGradient id="b" cx="129.176" cy="288.737" r="58.504" gradientUnits="userSpaceOnUse"><stop offset="0" stop-color="#8bbac7"/><stop offset=".367" stop-color="#88b9c7"/><stop offset=".662" stop-color="#7eb5c5"/><stop offset=".93" stop-color="#6cafc3"/><stop offset="1" stop-color="#65acc2"/></radialGradient><radialGradient id="c" cx="510.358" cy="303.441" r="86.287" gradientTransform="matrix(0 1 -.52382 0 660.618 -206.917)" gradientUnits="userSpaceOnUse"><stop offset="0" stop-color="#8bbac7"/><stop offset=".367" stop-color="#88b9c7"/><stop offset=".662" stop-color="#7eb5c5"/><stop offset=".93" stop-color="#6cafc3"/><stop offset="1" stop-color="#65acc2"/></radialGradient><path d="M471.667 198.954c-12.04.973-23.818 12.928-23.818 12.928l.94 196.87s108.198-15.978 106.687-119.013-71.77-91.758-83.809-90.785zm-8.117 175.853l-5.817-98.826s-.396-51.21 24.367-51.21c24.764 0 47.148 12.354 47.148 65.849 0 65.898-65.698 84.187-65.698 84.187z" fill="url(#c)"/><radialGradient id="d" cx="281.273" cy="311.136" r="182.691" gradientUnits="userSpaceOnUse"><stop offset="0" stop-color="#b1dde8"/><stop offset=".486" stop-color="#acdae6"/><stop offset=".875" stop-color="#9dd1df"/><stop offset="1" stop-color="#96ccdb"/></radialGradient><path d="M314.228 140.34h-65.909c-88.497 0-160.903 72.406-160.903 160.903v19.786c0 88.497 72.406 160.904 160.903 160.904h65.909c88.496 0 160.903-72.407 160.903-160.904v-19.786c0-88.497-72.407-160.903-160.903-160.903z" fill="url(#d)"/><linearGradient id="e" gradientUnits="userSpaceOnUse" x1="278.698" y1="121.571" x2="278.698" y2="152.642"><stop offset="0" stop-color="#326d7b"/><stop offset=".561" stop-color="#336f7d"/><stop offset=".763" stop-color="#377483"/><stop offset=".906" stop-color="#3d7d8e"/><stop offset="1" stop-color="#45889b"/></linearGradient><path d="M396.13 140.34s.3-11.968-33.703-11.968c-32.359 0-53.305-6.146-81.205-6.742v-.059c-.728 0-1.429.022-2.147.03-.718-.008-1.418-.03-2.146-.03v.06c-27.9.595-48.847 6.74-81.206 6.74-34.003 0-34.457 11.969-34.457 11.969l6.332 7.858 109.28 4.272v.172l2.197-.086 2.198.086v-.172l109.28-4.272 5.577-7.858z" fill="url(#e)"/><radialGradient id="f" cx="281.273" cy="167.812" r="93.019" gradientUnits="userSpaceOnUse"><stop offset="0" stop-color="#8bbac7"/><stop offset=".367" stop-color="#88b9c7"/><stop offset=".662" stop-color="#7eb5c5"/><stop offset=".93" stop-color="#6cafc3"/><stop offset="1" stop-color="#65acc2"/></radialGradient><path d="M152.626 172.107s2.23 23.178 128.595 23.178 128.7-23.178 128.7-23.178-13.79-13.974-13.79-31.767c0 0-4.583 9.703-116.86 9.703s-118.005-9.703-118.005-9.703 4.487 9.15-8.64 31.767z" fill="url(#f)"/><linearGradient id="g" gradientUnits="userSpaceOnUse" x1="279.421" y1="119.916" x2="279.421" y2="134.79"><stop offset="0" stop-color="#265964"/><stop offset=".68" stop-color="#265964"/><stop offset=".797" stop-color="#265964"/></linearGradient><path d="M280.6 134.79s26.735-1.472 26.735-11.164c0 0-4.742-1.365-6.402-3.71H261.51s-1.585 2.595-9.998 3.628c0 0-.984 11.246 29.088 11.246z" fill="url(#g)"/><radialGradient id="h" cx="281.222" cy="97.614" r="31.23" gradientUnits="userSpaceOnUse"><stop offset="0" stop-color="#8bbac7"/><stop offset=".367" stop-color="#88b9c7"/><stop offset=".662" stop-color="#7eb5c5"/><stop offset=".93" stop-color="#6cafc3"/><stop offset="1" stop-color="#65acc2"/></radialGradient><path d="M310.931 94.644c0-16.408-13.301-29.71-29.71-29.71-16.408 0-29.709 13.302-29.709 29.71 0 3.686.702 7.2 1.93 10.457h-.032s7.836 25.192 27.811 25.192c19.976 0 27.815-25.192 27.815-25.192h-.035c1.228-3.257 1.93-6.77 1.93-10.457z" fill="url(#h)"/><path d="M10.678 244.769c-2.741.456-1.929-.396 2.059-10.033 4.368-10.558-5.17-42.19 5.7-42.19l17.891 16.86-7.886 29.135s-12.213 5.053-17.764 6.228z" fill="#265561"/><radialGradient id="i" cx="62.656" cy="300.649" r="84.817" gradientTransform="matrix(0 1 -.6 0 243.046 237.993)" gradientUnits="userSpaceOnUse"><stop offset="0" stop-color="#8bbac7"/><stop offset=".367" stop-color="#88b9c7"/><stop offset=".662" stop-color="#7eb5c5"/><stop offset=".93" stop-color="#6cafc3"/><stop offset="1" stop-color="#65acc2"/></radialGradient><path d="M113.622 408.752s-57.359-4.2-67.997-45.231-19.492-122.793-34.947-118.752c0 0 33.25-11.205 7.759-52.223 0 0 27.993 12.619 44.665 75.234 5.364 20.146 14.612 40.986 24.314 40.404s32.248 92.456 26.206 100.568z" fill="url(#i)"/><path d="M281.221 64.934c16.409 0 29.71 13.302 29.71 29.71 0 3.686-.702 7.2-1.93 10.457h.035s-2.453 7.872-8.103 14.815c1.66 2.345 6.402 3.71 6.402 3.71 16.922 2 33.456 4.746 55.092 4.746 34.004 0 33.703 11.968 33.703 11.968l-.066.093c.05-.06.066-.093.066-.093 0 17.79 13.786 31.762 13.79 31.767a162.937 162.937 0 0 1 37.93 39.782v-.007s11.778-11.955 23.817-12.928c2.453-.198 7.319-.824 13.531-.824 24.28 0 69.074 9.566 70.278 91.61 1.48 100.911-102.259 118.314-106.535 118.988-13.998 21.383-32.933 39.276-55.16 52.017-11.602 9.393-30.038 25.731-30.038 34.709 0 0-3.022 6.541-82.47 6.541-80.234 0-82.47-6.541-82.47-6.541 0-8.978-18.435-25.316-30.036-34.709-22.22-12.736-41.149-30.62-55.146-51.993-.002 0-57.358-4.2-67.996-45.231-10.383-40.05-19.065-118.897-33.847-118.897-.362 0-.73.048-1.1.145-.35.058-.642.095-.877.095-1.605 0-.542-1.722 2.936-10.128 4.368-10.558-5.17-42.19 5.7-42.19 0 0 27.993 12.619 44.665 75.234 5.29 19.872 14.36 40.416 23.916 40.416.132 0 .266-.004.398-.012v-6.94c0-52.732 25.71-99.745 65.21-129.137 13.127-22.618 8.64-31.767 8.64-31.767s.018.027.063.077l-.063-.077s.454-11.968 34.457-11.968c21.933 0 38.623-2.823 55.789-4.828 8.413-1.033 9.998-3.628 9.998-3.628h.001c-5.649-6.943-8.1-14.815-8.1-14.815h.03c-1.227-3.257-1.929-6.77-1.929-10.457 0-16.408 13.301-29.71 29.71-29.71m184.891 309.048c12.11-4.188 63.135-25.282 63.135-83.362 0-53.495-22.384-65.849-47.148-65.849-9.358 0-15.121 7.315-18.673 16.415a159.417 159.417 0 0 1 11.704 60.057v19.786c0 18.53-3.185 36.35-9.018 52.953M281.221 59.934c-19.138 0-34.709 15.571-34.709 34.71 0 3.95.688 7.872 2.046 11.663.023.094.05.188.078.281.088.28 1.753 5.54 5.426 11.453a31.14 31.14 0 0 1-3.16.54c-3.445.403-6.96.85-10.36 1.282-13.574 1.725-27.61 3.509-44.819 3.509-15.13 0-26.168 2.308-32.807 6.86-3.662 2.511-5.308 5.236-6.048 7.217-.977 1.467-1.118 3.342-.157 4.983.287 1.03 1.96 8.939-7.907 26.29-19.997 15.078-36.594 34.735-48.039 56.908-11.814 22.89-18.147 48.58-18.344 74.372-4.238-4.967-9.786-15.849-14.488-33.508-17.086-64.173-46.21-77.95-47.441-78.506a5 5 0 0 0-2.055-.442c-2.66 0-4.999.996-6.76 2.88-4.528 4.839-3.907 14.134-3.188 24.896.447 6.701.954 14.296-.372 17.502a549.97 549.97 0 0 1-1.573 3.755c-2.399 5.682-3.391 8.034-1.547 10.815 1.041 1.57 2.792 2.47 4.804 2.47a10.414 10.414 0 0 0 1.897-.2c.823.483 4.403 3.588 9.484 22.438 3.707 13.754 7.113 31.6 10.406 48.858 3.102 16.252 6.031 31.604 9.197 43.815 4.768 18.388 18.942 32.704 40.992 41.4 12.428 4.9 24.037 6.713 28.986 7.308 14.205 21.02 33.229 38.752 55.165 51.398 20.568 16.695 27.876 26.899 27.876 30.573a5 5 0 0 0 .268 1.616c.95 2.777 3.809 4.85 15.115 6.596 14.304 2.21 38.557 3.33 72.086 3.33 82.646 0 85.703-6.62 87.01-9.445a5 5 0 0 0 .46-2.097c0-3.674 7.308-13.878 27.876-30.573 22.01-12.689 41.085-30.495 55.305-51.607 16.158-3.118 109.99-25.478 108.551-123.608-.547-37.29-10.03-64.291-28.183-80.253-12.29-10.804-28.134-16.283-47.094-16.283-5.188 0-9.42.41-12.222.682-.66.064-1.234.12-1.712.158-8.99.727-17.54 6.44-22.524 10.454a167.336 167.336 0 0 0-35.482-36.066c-1.682-1.825-12.118-13.731-12.128-28 .006-1.099-.29-4.447-3.707-7.95-5.847-5.996-17.622-9.036-34.996-9.036-17.207 0-31.243-1.784-44.818-3.509-3.02-.384-6.14-.78-9.228-1.148-.114-.037-.23-.078-.347-.12 3.917-6.134 5.686-11.717 5.776-12.006.032-.104.06-.208.086-.313a34.491 34.491 0 0 0 2.035-11.632c0-19.139-15.57-34.71-34.71-34.71zm187.603 181.287c5.043-11.45 11.19-11.45 13.276-11.45 12.905 0 22.431 3.66 29.124 11.187 8.642 9.72 13.024 26.428 13.024 49.662 0 23.197-8.547 42.78-25.402 58.202-8.573 7.844-17.72 13.135-24.758 16.473a164.45 164.45 0 0 0 6.043-44.266v-19.786c0-20.666-3.803-40.848-11.307-60.022z"/></svg>