<svg xmlns="http://www.w3.org/2000/svg" xmlns:xlink="http://www.w3.org/1999/xlink" viewBox="0 0 556.45 447.06"><defs><radialGradient id="a" cx="277.76" cy="379.02" r="67.07" gradientTransform="matrix(1.29 0 0 2.7 -80.83 -605.17)" gradientUnits="userSpaceOnUse"><stop offset="0" stop-color="#8bbac7"/><stop offset=".36" stop-color="#88b9c7"/><stop offset=".64" stop-color="#7eb5c5"/><stop offset=".91" stop-color="#6dafc3"/><stop offset="1" stop-color="#65acc2"/></radialGradient><radialGradient id="b" cx="506.32" cy="243.51" r="86.29" gradientTransform="matrix(0 1 -.52 0 625.18 -262.81)" xlink:href="#a"/><radialGradient id="c" cx="277.23" cy="251.2" r="182.69" gradientUnits="userSpaceOnUse"><stop offset="0" stop-color="#b1dde8"/><stop offset=".41" stop-color="#aedbe6"/><stop offset=".74" stop-color="#a4d5e2"/><stop offset="1" stop-color="#96ccdb"/></radialGradient><linearGradient id="d" x1="274.66" y1="61.64" x2="274.66" y2="92.71" gradientUnits="userSpaceOnUse"><stop offset="0" stop-color="#326d7b"/><stop offset=".57" stop-color="#336f7d"/><stop offset=".77" stop-color="#377484"/><stop offset=".91" stop-color="#3e7e8f"/><stop offset="1" stop-color="#45889b"/></linearGradient><radialGradient id="e" cx="277.23" cy="107.88" r="93.02" xlink:href="#a"/><linearGradient id="f" x1="275.38" y1="59.98" x2="275.38" y2="74.86" gradientUnits="userSpaceOnUse"><stop offset="0" stop-color="#265964"/><stop offset=".68" stop-color="#265964"/><stop offset=".8" stop-color="#265964"/></linearGradient><radialGradient id="g" cx="277.18" cy="37.68" r="31.23" xlink:href="#a"/><radialGradient id="h" cx="58.62" cy="240.71" r="84.82" gradientTransform="matrix(0 1 -.6 0 203.04 182.1)" xlink:href="#a"/></defs><path d="M277.23 393.65H155.51s39.25 28.77 39.25 41.87c0 0 2.24 6.54 82.47 6.54 79.45 0 82.47-6.54 82.47-6.54 0-13.1 39.25-41.87 39.25-41.87z" fill="url(#a)"/><path d="M467.63 139c-12 1-23.82 12.93-23.82 12.93l.94 196.87s108.2-16 106.68-119-71.77-91.75-83.8-90.8zm-8.12 175.85l-5.82-98.82s-.39-51.21 24.37-51.21 47.15 12.35 47.15 65.85c0 65.91-65.7 84.2-65.7 84.2z" fill="url(#b)"/><rect x="83.37" y="80.41" width="387.72" height="341.59" rx="160.9" ry="160.9" fill="url(#c)"/><path d="M392.09 80.41s.3-12-33.7-12c-32.36 0-53.31-6.15-81.21-6.74v-.06h-4.29v.06c-27.9.59-48.85 6.74-81.21 6.74-34 0-34.45 12-34.45 12l6.33 7.85 109.28 4.28v.17l2.19-.09 2.2.09v-.17l109.28-4.28z" fill="url(#d)"/><path d="M148.58 112.17s2.23 23.18 128.6 23.18 128.7-23.18 128.7-23.18-13.79-14-13.79-31.76c0 0-4.58 9.7-116.86 9.7s-118-9.7-118-9.7 4.48 9.14-8.65 31.76z" fill="url(#e)"/><path d="M276.56 74.86s26.73-1.48 26.73-11.17c0 0-4.74-1.36-6.4-3.71h-39.42s-1.59 2.6-10 3.63c0 0-.98 11.25 29.09 11.25z" fill="url(#f)"/><path d="M306.89 34.71a29.71 29.71 0 1 0-57.49 10.46s7.84 25.19 27.81 25.19S305 45.17 305 45.17a29.52 29.52 0 0 0 1.89-10.46z" fill="url(#g)"/><path d="M6.64 184.83c-2.74.46-1.93-.39 2.06-10 4.36-10.56-5.17-42.19 5.7-42.19l17.89 16.86-7.89 29.11s-12.21 5.05-17.76 6.22z" fill="#265561"/><path d="M109.58 348.82s-57.36-4.2-68-45.23-19.49-122.8-34.94-118.76c0 0 33.25-11.2 7.76-52.22 0 0 28 12.62 44.66 75.24 5.36 20.14 14.61 41 24.31 40.4s32.25 92.46 26.21 100.57z" fill="url(#h)"/><path d="M277.18 5A29.65 29.65 0 0 1 305 45.17 49.87 49.87 0 0 1 296.89 60c1.66 2.35 6.4 3.71 6.4 3.71 16.93 2 33.46 4.75 55.1 4.75 34 0 33.7 12 33.7 12l-.07.09.07-.09c0 17.79 13.78 31.76 13.79 31.76A163.16 163.16 0 0 1 443.81 152s11.78-12 23.82-12.93c2.45-.2 7.31-.82 13.53-.82 24.28 0 69.07 9.56 70.27 91.6 1.48 100.92-102.25 118.32-106.53 119a162.73 162.73 0 0 1-55.16 52c-11.6 9.39-30 25.73-30 34.71 0 0-3 6.54-82.47 6.54-80.23 0-82.47-6.54-82.47-6.54 0-9-18.43-25.32-30-34.71a162.9 162.9 0 0 1-55.15-52s-57.36-4.2-68-45.23c-10.38-40-19.06-118.9-33.84-118.9a4.61 4.61 0 0 0-1.1.14 5.62 5.62 0 0 1-.88.1c-1.6 0-.54-1.72 2.94-10.13 4.36-10.56-5.17-42.19 5.7-42.19 0 0 28 12.62 44.66 75.24 5.29 19.87 14.36 40.41 23.92 40.41h.39v-6.94a160.94 160.94 0 0 1 65.21-129.14c13.13-22.62 8.65-31.76 8.65-31.76l.06.07-.06-.07s.45-12 34.45-12c21.93 0 38.63-2.83 55.79-4.83 8.41-1 10-3.63 10-3.63a49.87 49.87 0 0 1-8.1-14.81A29.65 29.65 0 0 1 277.18 5m184.89 309.05c12.11-4.19 63.14-25.28 63.14-83.36 0-53.5-22.39-65.85-47.15-65.85-9.36 0-15.12 7.31-18.67 16.41a159.59 159.59 0 0 1 11.7 60.06v19.78a159.53 159.53 0 0 1-9 53M277.18 0a34.63 34.63 0 0 0-32.66 46.37 2.29 2.29 0 0 0 .08.28 54.55 54.55 0 0 0 5.4 11.46c-.86.19-1.9.38-3.16.54-3.44.4-7 .85-10.36 1.28-13.57 1.72-27.61 3.51-44.82 3.51-15.13 0-26.17 2.31-32.81 6.86a15.4 15.4 0 0 0-6 7.21 4.64 4.64 0 0 0-.16 5c.29 1 2 8.94-7.91 26.29a168.56 168.56 0 0 0-48 56.91 165.61 165.61 0 0 0-18.34 74.37c-4.24-5-9.79-15.85-14.49-33.51-17.08-64.17-46.21-77.95-47.44-78.51a5 5 0 0 0-2-.44 9 9 0 0 0-6.76 2.88c-4.53 4.84-3.91 14.14-3.19 24.9.44 6.7 1 14.29-.37 17.5-.6 1.44-1.13 2.68-1.58 3.75-2.4 5.69-3.39 8-1.54 10.82a5.62 5.62 0 0 0 4.8 2.47 11.18 11.18 0 0 0 1.7-.16h.2c.82.48 4.4 3.59 9.48 22.44 3.71 13.75 7.11 31.6 10.41 48.86 3.1 16.25 6 31.6 9.19 43.81 4.77 18.39 18.95 32.7 41 41.4a122.09 122.09 0 0 0 29 7.31 168.48 168.48 0 0 0 55.04 51.4c20.56 16.69 27.87 26.9 27.87 30.57a5 5 0 0 0 .27 1.62c.95 2.77 3.81 4.84 15.12 6.59 14.3 2.21 38.55 3.33 72.08 3.33 82.65 0 85.71-6.62 87-9.44a5.09 5.09 0 0 0 .46-2.1c0-3.67 7.31-13.88 27.88-30.57a168.42 168.42 0 0 0 55.3-51.61c16.16-3.12 110-25.48 108.55-123.61-.54-37.29-10-64.29-28.18-80.25-12.24-10.86-28.12-16.33-47.08-16.33a122 122 0 0 0-12.23.68l-1.71.16c-9 .72-17.54 6.44-22.52 10.45a167.39 167.39 0 0 0-35.48-36.07c-1.69-1.82-12.12-13.73-12.13-28 0-1.1-.29-4.44-3.71-8-5.85-6-17.62-9-35-9-17.21 0-31.25-1.79-44.82-3.51-3-.39-6.14-.78-9.23-1.15l-.35-.12a54.92 54.92 0 0 0 5.78-12 2.81 2.81 0 0 0 .08-.31 34.25 34.25 0 0 0 2-11.63A34.75 34.75 0 0 0 277.18 0zm187.6 181.29c5.05-11.45 11.19-11.45 13.28-11.45 12.9 0 22.43 3.66 29.12 11.18 8.64 9.72 13 26.43 13 49.67s-8.55 42.77-25.41 58.2a101.46 101.46 0 0 1-24.75 16.47 164.56 164.56 0 0 0 6-44.27v-19.78a163.81 163.81 0 0 0-11.31-60z" fill="#1d1d1b"/></svg>