<?xml version="1.0" encoding="utf-8"?>
<!-- Generator: Adobe Illustrator 22.1.0, SVG Export Plug-In . SVG Version: 6.00 Build 0)  -->
<svg version="1.1" xmlns="http://www.w3.org/2000/svg" xmlns:xlink="http://www.w3.org/1999/xlink" x="0px" y="0px"
	 viewBox="0 0 566.9299927 566.9299927" style="enable-background:new 0 0 566.9299927 566.9299927;" xml:space="preserve">
<style type="text/css">
	.st0{display:none;}
	.st1{fill:url(#SVGID_1_);}
	.st2{display:none;fill:url(#SVGID_2_);}
	.st3{fill:url(#SVGID_3_);}
	.st4{fill:url(#SVGID_4_);}
	.st5{fill:url(#SVGID_5_);}
	.st6{fill:url(#SVGID_6_);}
	.st7{fill:url(#SVGID_7_);}
	.st8{fill:url(#SVGID_8_);}
	.st9{fill:#265561;}
	.st10{fill:url(#SVGID_9_);}
</style>
<g id="Laag_2" class="st0">
</g>
<g id="Laag_3">
	
		<radialGradient id="SVGID_1_" cx="281.8040466" cy="438.9536133" r="67.0665131" gradientTransform="matrix(1.2890918 0 0 2.6991508 -81.9978333 -707.012146)" gradientUnits="userSpaceOnUse">
		<stop  offset="0" style="stop-color:#8BBAC7"/>
		<stop  offset="0.3673851" style="stop-color:#88B9C7"/>
		<stop  offset="0.6618047" style="stop-color:#7EB5C5"/>
		<stop  offset="0.9301863" style="stop-color:#6CAFC3"/>
		<stop  offset="1" style="stop-color:#65ACC2"/>
	</radialGradient>
	<path class="st1" d="M281.2734375,453.5842285h-121.717926c0,0,39.2483063,28.7718506,39.2483063,41.8694153
		c0,0,2.2351532,6.5418701,82.4696198,6.5418701c79.4475098,0,82.4696045-6.5418701,82.4696045-6.5418701
		c0-13.0975647,39.2483215-41.8694153,39.2483215-41.8694153H281.2734375z"/>
	<radialGradient id="SVGID_2_" cx="129.1764832" cy="288.7373657" r="58.5038452" gradientUnits="userSpaceOnUse">
		<stop  offset="0" style="stop-color:#8BBAC7"/>
		<stop  offset="0.3673851" style="stop-color:#88B9C7"/>
		<stop  offset="0.6618047" style="stop-color:#7EB5C5"/>
		<stop  offset="0.9301863" style="stop-color:#6CAFC3"/>
		<stop  offset="1" style="stop-color:#65ACC2"/>
	</radialGradient>
	<path class="st2" d="M165.9421539,358.9719238c-23.9011536-0.0203552-47.0367661,3.2107849-57.8985672-26.4895325
		c-10.8618088-29.7002869,0-71.100708-22.447731-103.5010223l32.5854111-10.5727386
		c0,0,13.0341568,10.5727386,13.7582779,33.0729675s13.105423,29.6822205,20.6082001,22.1794434
		C167.2246857,258.9841003,181.6578369,344.1698303,165.9421539,358.9719238z"/>
	
		<radialGradient id="SVGID_3_" cx="510.3583984" cy="303.4411316" r="86.2872543" gradientTransform="matrix(5.345750e-17 1 -0.5238163 3.673941e-17 660.6176758 -206.9172668)" gradientUnits="userSpaceOnUse">
		<stop  offset="0" style="stop-color:#8BBAC7"/>
		<stop  offset="0.3673851" style="stop-color:#88B9C7"/>
		<stop  offset="0.6618047" style="stop-color:#7EB5C5"/>
		<stop  offset="0.9301863" style="stop-color:#6CAFC3"/>
		<stop  offset="1" style="stop-color:#65ACC2"/>
	</radialGradient>
	<path class="st3" d="M471.6669617,198.9540405c-12.039032,0.9727783-23.8177795,12.927948-23.8177795,12.927948
		l0.9395142,196.8701782c0,0,108.1987305-15.9780579,106.6868896-119.0130615S483.7059937,197.9811554,471.6669617,198.9540405z
		 M463.5499878,374.8073425l-5.816864-98.8261108c0,0-0.3963623-51.2097626,24.3672791-51.2097626
		c24.7637329,0,47.1472168,12.3539124,47.1472168,65.8485565
		C529.2476196,356.5179443,463.5499878,374.8073425,463.5499878,374.8073425z"/>
	<radialGradient id="SVGID_4_" cx="281.2734375" cy="311.1361694" r="182.6912689" gradientUnits="userSpaceOnUse">
		<stop  offset="0" style="stop-color:#B1DDE8"/>
		<stop  offset="0.4858902" style="stop-color:#ACDAE6"/>
		<stop  offset="0.8748905" style="stop-color:#9DD1DF"/>
		<stop  offset="1" style="stop-color:#96CCDB"/>
	</radialGradient>
	<path class="st4" d="M314.2275391,140.3397064h-65.9082031c-88.4969177,0-160.9035034,72.4065704-160.9035034,160.9034882
		v19.7859802c0,88.4969177,72.4065781,160.9034729,160.9035034,160.9034729h65.9082031
		c88.4969177,0,160.9035034-72.4065552,160.9035034-160.9034729v-19.7859802
		C475.1310425,212.7462769,402.7244568,140.3397064,314.2275391,140.3397064z"/>
	
		<linearGradient id="SVGID_5_" gradientUnits="userSpaceOnUse" x1="278.6984253" y1="121.5711975" x2="278.6984253" y2="152.6417542">
		<stop  offset="0" style="stop-color:#326D7B"/>
		<stop  offset="0.5606394" style="stop-color:#336F7D"/>
		<stop  offset="0.7625437" style="stop-color:#377483"/>
		<stop  offset="0.9059851" style="stop-color:#3D7D8E"/>
		<stop  offset="1" style="stop-color:#45889B"/>
	</linearGradient>
	<path class="st5" d="M396.130249,140.3397064c0,0,0.300354-11.9678802-33.7027893-11.9678802
		c-32.3590698,0-53.3055725-6.1459961-81.2059021-6.7415085l-0.0000916-0.0591202
		c-0.7278748,0-1.4281311,0.0217285-2.1461792,0.0295105c-0.7180481-0.007782-1.4183044-0.0295105-2.1461792-0.0295105
		l-0.0000916,0.0591202c-27.9003448,0.5955124-48.8468475,6.7415085-81.2059174,6.7415085
		c-34.0031281,0-34.456604,11.9678345-34.456604,11.9678345l6.3317719,7.8582916l109.2791443,4.2719727l-0.0002747,0.1718292
		l2.1981506-0.0859528l2.1981506,0.0859528l-0.0002747-0.1718292l109.2791443-4.2719727L396.130249,140.3397064z"/>
	<radialGradient id="SVGID_6_" cx="281.2734375" cy="167.8122559" r="93.0185471" gradientUnits="userSpaceOnUse">
		<stop  offset="0" style="stop-color:#8BBAC7"/>
		<stop  offset="0.3673851" style="stop-color:#88B9C7"/>
		<stop  offset="0.6618047" style="stop-color:#7EB5C5"/>
		<stop  offset="0.9301863" style="stop-color:#6CAFC3"/>
		<stop  offset="1" style="stop-color:#65ACC2"/>
	</radialGradient>
	<path class="st6" d="M152.6260223,172.106842c0,0,2.2299957,23.1779785,128.5954742,23.1779785
		s128.6993408-23.1779785,128.6993408-23.1779785s-13.7905884-13.9740448-13.7905884-31.7671356
		c0,0-4.5827332,9.7031555-116.8590698,9.7031555s-118.004715-9.7031555-118.004715-9.7031555
		S165.7534332,149.4894104,152.6260223,172.106842z"/>
	
		<linearGradient id="SVGID_7_" gradientUnits="userSpaceOnUse" x1="279.4214478" y1="119.9161835" x2="279.4214478" y2="134.7899933">
		<stop  offset="0" style="stop-color:#265964"/>
		<stop  offset="0.679961" style="stop-color:#265964"/>
		<stop  offset="0.7966947" style="stop-color:#265964"/>
	</linearGradient>
	<path class="st7" d="M280.5999756,134.7899933c0,0,26.7346802-1.4718933,26.7346802-11.1640244
		c0,0-4.7417908-1.3651505-6.4014893-3.7097855h-39.4228821c0,0-1.5855408,2.5947647-9.9983215,3.628006
		C251.5119629,123.5441895,250.5283051,134.7899933,280.5999756,134.7899933z"/>
	<radialGradient id="SVGID_8_" cx="281.2215271" cy="97.6136017" r="31.2296391" gradientUnits="userSpaceOnUse">
		<stop  offset="0" style="stop-color:#8BBAC7"/>
		<stop  offset="0.3673851" style="stop-color:#88B9C7"/>
		<stop  offset="0.6618047" style="stop-color:#7EB5C5"/>
		<stop  offset="0.9301863" style="stop-color:#6CAFC3"/>
		<stop  offset="1" style="stop-color:#65ACC2"/>
	</radialGradient>
	<path class="st8" d="M310.9310608,94.6439972c0-16.4080582-13.3014526-29.7094955-29.7095947-29.7094955
		c-16.4080505,0-29.7095032,13.3014374-29.7095032,29.7094955c0,3.6861267,0.7024841,7.2002563,1.9295654,10.4572372h-0.031311
		c0,0,7.8361816,25.1914597,27.8112488,25.1914597c19.9751587,0,27.8146362-25.1914597,27.8146362-25.1914597h-0.0346069
		C310.2285767,101.8442535,310.9310608,98.3301239,310.9310608,94.6439972z"/>
	<path class="st9" d="M10.6777029,244.7687988c-2.7409701,0.4558716-1.9284382-0.3955841,2.0592937-10.0332184
		c4.3682261-10.5572357-5.1699467-42.189209,5.7000074-42.189209l17.8910179,16.859375l-7.8861446,29.1352539
		C28.4418774,238.5410004,16.2289886,243.593811,10.6777029,244.7687988z"/>
	
		<radialGradient id="SVGID_9_" cx="62.6563416" cy="300.6492615" r="84.8174973" gradientTransform="matrix(6.123234e-17 1 -0.6 3.673941e-17 243.0458984 237.9929199)" gradientUnits="userSpaceOnUse">
		<stop  offset="0" style="stop-color:#8BBAC7"/>
		<stop  offset="0.3673851" style="stop-color:#88B9C7"/>
		<stop  offset="0.6618047" style="stop-color:#7EB5C5"/>
		<stop  offset="0.9301863" style="stop-color:#6CAFC3"/>
		<stop  offset="1" style="stop-color:#65ACC2"/>
	</radialGradient>
	<path class="st10" d="M113.6215286,408.7521667c0,0-57.3583755-4.1999817-67.9961929-45.2315369
		S26.1328812,240.7275085,10.6777029,244.7687988c0,0,33.2496681-11.2052155,7.7593012-52.2224274
		c0,0,27.9932213,12.6186066,44.6647453,75.2338715c5.3638725,20.145752,14.6121483,40.9853821,24.3140907,40.4042053
		S119.6641083,400.6399536,113.6215286,408.7521667z"/>
	<g>
		<path d="M281.2214966,64.9344864c16.4081726,0,29.7095642,13.3014145,29.7095642,29.7095032
			c0,3.6861649-0.7024841,7.2002487-1.9295654,10.4572449h0.034668c0,0-2.4529114,7.8718338-8.103241,14.8149185h0.0002441
			c1.659668,2.3445892,6.4014893,3.7098389,6.4014893,3.7098389c0,0.0000839-0.0000916,0.0002441-0.0000916,0.000412
			c16.9219971,1.9990005,33.4567566,4.7454071,55.092926,4.7454071c34.0031738,0,33.7027588,11.9678345,33.7027588,11.9678345
			l-0.0665894,0.09375c0.0498352-0.0603333,0.0665894-0.09375,0.0665894-0.09375
			c0,17.7900085,13.7856445,31.762085,13.7904053,31.7670135c14.7835999,11.0003204,27.6338501,24.4686584,37.9285889,39.7824097
			v-0.0070801c0,0,11.778656-11.9551697,23.817749-12.9279175c2.4527588-0.1982269,7.3190002-0.8239441,13.5311584-0.8239441
			c24.2792053,0,69.0735779,9.5658112,70.2774353,91.6089478
			c1.4806519,100.9120178-102.2581787,118.3149109-106.5345154,118.9892578
			c-13.9981689,21.3829956-32.9334106,39.2758179-55.160675,52.0167542
			c-11.6009827,9.3927307-30.037323,25.7312317-30.037323,34.7085876c0,0-3.0221558,6.5418091-82.4696655,6.5418091
			c-80.2344208,0-82.4695892-6.5418091-82.4695892-6.5418091c0-8.977356-18.4362488-25.3157654-30.0371552-34.7085876
			c-22.2190857-12.7361755-41.1485062-30.6205139-55.1451721-51.9929199
			c-0.0024185-0.0001831-57.3584976-4.2008362-67.99617-45.2315063
			c-10.383316-40.0498657-19.0656071-118.8963776-33.8473129-118.8963776c-0.3623333,0-0.7304935,0.04776-1.1002684,0.144455
			c-0.350153,0.0582275-0.6421356,0.0951233-0.8770971,0.0951233c-1.6043167,0-0.5419817-1.7218018,2.936347-10.1282959
			c4.3681669-10.557251-5.1699166-42.1892548,5.6999998-42.1892548c0,0,27.9932499,12.6186676,44.6647491,75.234024
			c5.2908287,19.87146,14.3595924,40.4159546,23.9166527,40.4159546c0.1318741,0,0.2653809-0.0039673,0.3974304-0.0118713
			v-6.9412537c0-52.7306824,25.7101669-99.7445221,65.2102432-129.1364288
			c13.1274261-22.6172485,8.6403351-31.7670898,8.6403351-31.7670898s0.0172577,0.0275879,0.0622559,0.0772552l-0.0621643-0.0772552
			c0,0,0.4534912-11.9678345,34.4565735-11.9678345c21.9328461,0,38.6232605-2.822403,55.7889252-4.8273239v-0.0003281
			c8.4127502-1.0331726,9.9982605-3.628006,9.9982605-3.628006h0.0011597
			c-5.6493378-6.9430847-8.1012573-14.8149185-8.1012573-14.8149185h0.0314178
			c-1.2271729-3.2569962-1.9295807-6.77108-1.9295807-10.4572449
			C251.5119934,78.2359009,264.8134155,64.9344864,281.2214966,64.9344864 M466.1134949,373.9823303
			c12.1089172-4.1884155,63.1341858-25.2822571,63.1341858-83.3622437c0-53.4947662-22.383606-65.8486023-47.1472778-65.8486023
			c-9.3583374,0-15.1218262,7.3148346-18.6730652,16.4141693c7.5379028,18.5808258,11.7037354,38.8549957,11.7037354,60.0575104
			v19.7859192C475.131073,339.5596619,471.9457397,357.3798218,466.1134949,373.9823303 M281.2214966,59.9344864
			c-19.138916,0-34.7095032,15.5705872-34.7095032,34.7095032c0,3.9509506,0.6881104,7.871666,2.0458679,11.662796
			c0.0233002,0.0941849,0.0494843,0.1880798,0.0785522,0.2813644c0.0872803,0.2804031,1.7525787,5.5404587,5.4255371,11.4532547
			c-0.8618622,0.1977234-1.9052734,0.3859863-3.1594543,0.5400009c-3.4459229,0.4024963-6.9608459,0.8492508-10.3600006,1.28125
			c-13.574585,1.7251663-27.6112518,3.5091629-44.8194275,3.5091629c-15.1299133,0-26.1677399,2.3080902-32.8068237,6.8600845
			c-3.6623688,2.5110626-5.3087158,5.2357178-6.0479889,7.2175598c-0.9772949,1.4660645-1.1179504,3.3418884-0.1571808,4.9820709
			c0.2866211,1.029892,1.9591217,8.9393616-7.9069977,26.2909393
			c-19.9971466,15.0779114-36.5944366,34.7348175-48.0387497,56.9071808
			c-11.8145676,22.889679-18.1474838,48.5796356-18.3447571,74.3720856
			c-4.2378769-4.9666748-9.7853012-15.8485413-14.4871597-33.507843
			c-17.0862541-64.1730804-46.2102509-77.9507446-47.4416695-78.5058289
			c-0.645916-0.2911682-1.3462505-0.4417572-2.0547504-0.4417572c-2.6608334,0-4.9984999,0.9954987-6.7603331,2.87883
			c-4.5273333,4.8397522-3.9066668,14.1346741-3.1879997,24.8973389c0.4474163,6.7008362,0.9545832,14.2957458-0.3718338,17.5014191
			c-0.5964165,1.4414215-1.1211662,2.6845856-1.573,3.7550049c-2.3985,5.6819916-3.3912499,8.033905-1.5466666,10.8146667
			c1.0413337,1.5699158,2.7921667,2.4703217,4.8034997,2.4703217c0.6364174,0,1.2415009-0.0870819,1.6975842-0.1629181
			c0.0667925-0.0111237,0.133338-0.0236053,0.1996117-0.0374146c0.8228521,0.4830475,4.4029331,3.5886383,9.4838047,22.4381866
			c3.7074165,13.7545776,7.1130009,31.6000671,10.4064999,48.8580933
			c3.1015816,16.252655,6.0311661,31.6040039,9.1971664,43.8156433
			c4.767334,18.3880005,18.9421654,32.7034302,40.9920807,41.3987732c12.4271545,4.9005737,24.036171,6.7137451,28.985939,7.3083801
			c14.2049026,21.0195618,33.2283096,38.7519226,55.1648483,51.3980103
			c20.5675812,16.6950684,27.8756256,26.8992004,27.8756256,30.5730286c0,0.5499878,0.0907593,1.0961609,0.2685852,1.6165771
			c0.9488373,2.7771606,3.8083344,4.8492432,15.1150818,6.5957336c14.3031769,2.209259,38.556427,3.3294983,72.0859222,3.3294983
			c82.6454163,0,85.7030029-6.6186523,87.0087585-9.4449158c0.3036499-0.6573181,0.460907-1.3728333,0.460907-2.0968933
			c0-3.6739197,7.3078308-13.8779297,27.8755188-30.5728455c22.010376-12.6887207,41.0857239-30.4947815,55.3058167-51.6069031
			c16.1575317-3.1181641,109.990509-25.4781494,108.5506897-123.6081848
			c-0.5471802-37.2900085-10.029541-64.2907562-28.1834106-80.2523499
			c-12.2889404-10.8047485-28.1335144-16.2832489-47.0935364-16.2832489c-5.1878357,0-9.42099,0.4102631-12.222168,0.6816711
			c-0.6606445,0.0639954-1.2341614,0.1199188-1.7118225,0.1585083c-8.9899597,0.7263641-17.5404053,6.4403381-22.5246277,10.4533081
			c-9.9370728-13.7554779-21.8508301-25.8678131-35.4816895-36.0654144
			c-1.6817322-1.8249054-12.1179504-13.7316437-12.127594-27.9994507c0.0059814-1.0997009-0.290863-4.4476471-3.7076721-7.9512787
			c-5.8470154-5.9956665-17.6210938-9.0356674-34.9950867-9.0356674c-17.207428,0-31.2437439-1.7837448-44.8179932-3.508667
			c-3.0210876-0.383934-6.1402893-0.7802887-9.2286377-1.1477432c-0.1142273-0.0378799-0.2300415-0.0781631-0.3464355-0.1203842
			c3.9169922-6.1341248,5.6852417-11.7171631,5.7753296-12.0062866c0.0322876-0.1036682,0.0610962-0.2080383,0.0864258-0.3127975
			c1.3505249-3.7817764,2.0348816-7.691864,2.0348816-11.6319504
			C315.9310608,75.5050735,300.3604126,59.9344864,281.2214966,59.9344864L281.2214966,59.9344864z M468.8238525,241.221283
			c5.0428772-11.4505157,11.1903992-11.4497986,13.2765503-11.4497986c12.9046021,0,22.4309082,3.6589966,29.1233521,11.1860809
			c8.6420898,9.7197418,13.0239258,26.4286652,13.0239258,49.6625214c0,23.1972351-8.5463867,42.7790833-25.4015198,58.2016602
			c-8.5728149,7.8441162-17.7203979,13.1348267-24.758606,16.4735107
			c4.0135803-14.3851624,6.0435181-29.2304688,6.0435181-44.2661743v-19.7859192
			C480.131073,280.57724,476.3278198,260.3948059,468.8238525,241.221283L468.8238525,241.221283z"/>
	</g>
</g>
</svg>
