<svg xmlns="http://www.w3.org/2000/svg" viewBox="0 0 566.9 566.9"><linearGradient id="a" gradientUnits="userSpaceOnUse" x1="163.228" y1="385.625" x2="392.289" y2="385.625"><stop offset="0" stop-color="#876238"/><stop offset=".251" stop-color="#9f7242"/><stop offset=".485" stop-color="#b17f4a"/><stop offset=".805" stop-color="#8d673b"/><stop offset="1" stop-color="#795832"/></linearGradient><path d="M275.2 555.9c37.1 9.1 13.5-25.5 13.5-25.5s103.6 33.5 103.6 4.5c0 0-49.6-30-49.6-70.6s-18.4-56.8-18.4-75.4-19.6-175.1-19.6-175.1l-57.6 4.8s3.7 132.1-7.4 163.4c-11 31.3-22.1 61.5-28.2 82.4s-6 43.1-41.1 69.9c-28.1 37 35.3 6.6 48.4 4.4 21.8-5.3 32.5 15.6 56.4 17.2z" fill="url(#a)"/><linearGradient id="b" gradientUnits="userSpaceOnUse" x1="232.319" y1="246.017" x2="209.329" y2="285.836"><stop offset="0" stop-color="#a67745"/><stop offset=".485" stop-color="#b17f4a"/><stop offset=".569" stop-color="#ad7c48"/><stop offset="1" stop-color="#9a7040"/></linearGradient><path d="M259.3 314.7s-54-61.5-96.9-61.5v-18.6s28.2 4.6 48.4 11.6 41.1 20.9 56.4 20.9c0 0 10.2-.2 7.7 17.2-2.4 17.3.6 35.5-15.6 30.4z" fill="url(#b)"/><radialGradient id="c" cx="284.239" cy="167.723" r="98.809" gradientTransform="matrix(1.7544 0 0 1.6594 -210.656 -136.209)" gradientUnits="userSpaceOnUse"><stop offset="0" stop-color="#008d36"/><stop offset=".329" stop-color="#008a35"/><stop offset=".838" stop-color="#008131"/><stop offset="1" stop-color="#007d2f"/></radialGradient><path d="M201.7 218.6S230 245 253.1 245c23.2 0 42.4-17 60.4-10.3 18 6.7 5.6 38.2 42.4 40.5 36.8 2.3 68.2-3.4 68.2-22.8s11.6-33.7 23.2-33.7 41.2-19.8 41.2-43-1.3-32.4-18-53.5c-16.7-21.2-70.7-30.5-60.5-50s16.7-42.6-10.3-42.6-36-17-73.3-17-43.7-12.2-90 6.1S204.3 54 170.8 54s-55.3 6.5-55.3 26.8c0 20.2 20.6 34.1 0 53.5S76.9 165.9 94.9 183s25.7 12.2 51.4 12.2 55.4 23.4 55.4 23.4z" fill="url(#c)"/><radialGradient id="d" cx="195.593" cy="224.826" r="32.744" gradientTransform="matrix(1.7544 0 0 1.6594 -210.656 -136.209)" gradientUnits="userSpaceOnUse"><stop offset="0" stop-color="#008d36"/><stop offset=".329" stop-color="#008a35"/><stop offset=".838" stop-color="#008131"/><stop offset="1" stop-color="#007d2f"/></radialGradient><path d="M184.6 228.7s10.9 5.5 6.2 17.6c-4.7 12.1-12.2 10.3-21.7 19.3s-12.4 28.9-27.5 22.2c-15.1-6.7-15.5-15.5-35.4-15.5S73 289.9 73 265.6s15.7-39.3 7.5-47c-8.1-7.7 3.4-21.3 7-21.3s22.7 1.3 31.1-6.7 47-9.2 52.3 3.4 8.9 34.7 13.7 34.7z" fill="url(#d)"/><path d="M331.1 541.7c-1.8-10.6 14.7-11.7 8.7-25.8s-12.7-27.6-22.8-47.4c-10.1-19.7-39.4-31.8-49.6-8.3-10.3 23.6-12.2 21.8-1.4 42.8 7.9 15.4 15.8 16 21.1 27.4 5.2 11.4 16.8 11.3 44 11.3z"/><path d="M279.5 8.6c14.4 0 25.6 4 46.9 4 37.3 0 46.3 17 73.3 17s20.6 23.1 10.3 42.6 43.7 28.8 60.4 49.9c16.7 21.1 18 30.4 18 53.5s-29.6 43-41.2 43c-11.6 0-23.2 14.2-23.2 33.7 0 16.8-23.4 23.3-53.5 23.3-4.8 0-9.7-.2-14.7-.5-36.8-2.3-24.4-33.8-42.4-40.5-2.1-.8-4.3-1.2-6.5-1.4 5.2 42.5 17.2 141.2 17.2 155.7 0 18.6 18.4 34.8 18.4 75.4 0 40.6 49.6 70.6 49.6 70.6 0 8.8-9.5 11.8-22.7 11.8-11.3 0-25.4-2.2-38.6-5.1h-1.3c-19.3 0-30.5 0-37.2-4.5 3.9 8 7.7 20.3-6.7 20.3-2.8 0-6.3-.5-10.6-1.5-21.3-1.5-32.1-18.1-49.6-18.1-2.2 0-4.5.3-6.9.9-8.2 1.4-36.2 13.8-49 13.8-7.6 0-9.9-4.4.6-18.2 35.2-26.8 35-49 41.1-69.9 6.1-20.9 17.2-51 28.2-82.4 4.8-13.7 6.9-46.9 7.6-79.8-14.5-14.2-40-36.5-65.1-45.3-3.7 2.3-8.1 4.1-13 8.7-8.2 7.8-11.5 23.6-21.8 23.6-1.7 0-3.5-.4-5.7-1.4-15.1-6.7-15.5-15.5-35.4-15.5-11.8 0-21.3 6.2-27 6.2-4 0-6.2-2.9-6.2-12.9 0-24.3 15.7-39.3 7.5-47-8.1-7.7 3.4-21.3 7-21.3.9 0 2.6.1 4.8.1 5.3 0 13.6-.4 20.2-3.1-5.4-1.6-10.8-4.9-17.6-11.4-18-17 0-29.2 20.6-48.7s0-33.3 0-53.5c0-20.2 21.9-26.8 55.3-26.8s19.3-17 65.6-35.3c20.1-7.7 32.6-10 43.3-10m-31.9 253.6c0-6.4-.1-12.4-.1-17.7-21.9-3.6-45.8-25.9-45.8-25.9s-12.3-9.8-28-16.7c3.9 12.2 6.9 26.9 10.9 26.9 0 0 7.5 3.8 7.3 12.1 6.4 1.6 13 3.4 18.9 5.5 12.6 4.2 25.3 11.1 36.8 15.8M279.5 3.6c-13 0-26.5 3.1-45 10.4-23.2 9.1-32.1 18.2-38.6 24.8-6.6 6.7-9.9 10.1-25.2 10.1-18.7 0-32.5 2-42.2 6.2-12 5.2-18.1 13.8-18.1 25.6 0 8 2.8 15 5.2 21.1 4.4 11.1 7.3 18.4-3.7 28.8-2.3 2.2-4.7 4.3-6.9 6.4-12.6 11.6-22.6 20.7-22.6 31.9 0 6.1 2.9 11.8 9 17.6 2.3 2.2 4.5 4 6.6 5.6-1.8.1-3.7.2-5.7.2h-4.9c-5.5 0-11.3 7.5-13.5 12.8-2.6 6.6-1.5 12.8 3 17.1 1.7 1.6.6 5.2-2.4 13-3 8-6.7 17.9-6.7 30.4 0 4.4 0 17.9 11.2 17.9 3.2 0 6.6-1.2 10.5-2.5 4.9-1.7 10.4-3.6 16.5-3.6 11.1 0 14.8 2.8 20.3 7 3.4 2.6 7.2 5.5 13.1 8.1 2.7 1.2 5.2 1.8 7.7 1.8 9.4 0 14.2-8.1 18.4-15.3 2.1-3.6 4.3-7.3 6.8-9.7 3.2-3 6.2-4.7 9.1-6.3.3-.2.6-.4 1-.5 23.1 8.8 46.6 29.2 59.6 41.8-1.2 49.1-4.6 68.5-7.2 76.1-2.2 6.4-4.5 12.7-6.7 18.9-8.6 24.1-16.7 46.9-21.6 63.7-1 3.5-1.9 7-2.7 10.5-4.2 17.4-8.6 35.4-36.7 56.9l-.5.4-.4.5c-9.5 12.5-8.8 17.8-7.2 21 1.2 2.4 4 5.2 10.6 5.2 8.9 0 22.9-4.9 35.2-9.2 6.2-2.2 12-4.2 14.6-4.6h.4c2-.5 3.9-.7 5.8-.7 7.2 0 13.4 3.5 20.5 7.6 7.8 4.5 16.6 9.6 28.3 10.5 4.4 1 8.2 1.6 11.4 1.6 6.4 0 10.9-2 13.4-6.1 1.8-2.9 2.3-6.6 1.5-11.1 7.2 1.3 16.6 1.3 29 1.3h.8c15.8 3.4 29 5.1 39.1 5.1 7.9 0 13.9-1 18.4-3.1 6-2.8 9.3-7.6 9.3-13.7v-2.8l-2.4-1.5c-.5-.3-47.2-29.1-47.2-66.3 0-25.2-6.8-41.3-12.2-54.3-3.4-8.2-6.2-14.7-6.2-21.1 0-13.6-9.9-96.2-16.4-149.1 3.9 2 5.6 6.1 8 12.8 3.9 10.9 9.3 25.9 34.8 27.5 5.2.3 10.2.5 15 .5 16.7 0 30.1-1.9 39.8-5.7 15.4-6 18.6-15.6 18.6-22.6 0-16.9 9.6-28.7 18.2-28.7 7.4 0 18.8-5.7 28.2-14.1 6.7-5.9 17.9-18.2 17.9-33.9 0-24.1-1.6-34.5-19.1-56.6-7.7-9.7-21.5-16.6-34.8-23.3-11.2-5.6-23.8-11.9-25.6-17.5-.2-.8-.4-1.9.5-3.6 9.6-18.2 11.9-31.9 6.7-40.5-3.8-6.3-11-9.4-21.4-9.4-11.4 0-19.3-3.3-28.4-7.1-11.1-4.7-23.8-9.9-44.9-9.9-11.4 0-19.9-1.2-27.5-2.2-6.4-1.2-12.5-2.1-19.4-2.1zm-93.3 220.3c-1.3-2-3-7.6-4.4-12.4 9.1 5.1 15.6 10.1 16.6 10.9 2.2 2.1 23.1 20.8 44.1 26.1v6c-2.3-1.1-4.7-2.2-7.2-3.3-7.5-3.5-15.2-7.1-22.9-9.7-4.6-1.6-9.9-3.2-15.9-4.7-1.4-6.6-6.5-10.9-9.7-12.5l-.6-.4z"/></svg>