<?xml version="1.0" encoding="utf-8"?>
<!-- Generator: Adobe Illustrator 22.1.0, SVG Export Plug-In . SVG Version: 6.00 Build 0)  -->
<svg version="1.1" xmlns="http://www.w3.org/2000/svg" xmlns:xlink="http://www.w3.org/1999/xlink" x="0px" y="0px"
	 viewBox="0 0 566.9 566.9" style="enable-background:new 0 0 566.9 566.9;" xml:space="preserve">
<style type="text/css">
	.st0{display:none;}
	.st1{fill:url(#SVGID_1_);}
	.st2{fill:url(#SVGID_2_);}
	.st3{fill:url(#SVGID_3_);}
	.st4{fill:url(#SVGID_4_);}
</style>
<g id="Laag_5" class="st0">
</g>
<g id="Laag_2">
	<linearGradient id="SVGID_1_" gradientUnits="userSpaceOnUse" x1="163.2281" y1="385.6248" x2="392.2886" y2="385.6248">
		<stop  offset="0" style="stop-color:#876238"/>
		<stop  offset="0.2512" style="stop-color:#9F7242"/>
		<stop  offset="0.4854" style="stop-color:#B17F4A"/>
		<stop  offset="0.805" style="stop-color:#8D673B"/>
		<stop  offset="1" style="stop-color:#795832"/>
	</linearGradient>
	<path class="st1" d="M275.2,555.9c37.1,9.1,13.5-25.5,13.5-25.5s103.6,33.5,103.6,4.5c0,0-49.6-30-49.6-70.6s-18.4-56.8-18.4-75.4
		s-19.6-175.1-19.6-175.1l-57.6,4.8c0,0,3.7,132.1-7.4,163.4c-11,31.3-22.1,61.5-28.2,82.4s-6,43.1-41.1,69.9
		c-28.1,37,35.3,6.6,48.4,4.4C240.6,533.4,251.3,554.3,275.2,555.9z"/>
	<linearGradient id="SVGID_2_" gradientUnits="userSpaceOnUse" x1="232.3189" y1="246.0168" x2="209.3295" y2="285.8358">
		<stop  offset="0" style="stop-color:#A67745"/>
		<stop  offset="0.4854" style="stop-color:#B17F4A"/>
		<stop  offset="0.5687" style="stop-color:#AD7C48"/>
		<stop  offset="1" style="stop-color:#9A7040"/>
	</linearGradient>
	<path class="st2" d="M259.3,314.7c0,0-54-61.5-96.9-61.5v-18.6c0,0,28.2,4.6,48.4,11.6c20.2,7,41.1,20.9,56.4,20.9
		c0,0,10.2-0.2,7.7,17.2C272.5,301.6,275.5,319.8,259.3,314.7z"/>
	
		<radialGradient id="SVGID_3_" cx="284.2387" cy="167.7229" r="98.8092" gradientTransform="matrix(1.7544 0 0 1.6594 -210.6557 -136.209)" gradientUnits="userSpaceOnUse">
		<stop  offset="0" style="stop-color:#008D36"/>
		<stop  offset="0.3287" style="stop-color:#008A35"/>
		<stop  offset="0.8378" style="stop-color:#008131"/>
		<stop  offset="1" style="stop-color:#007D2F"/>
	</radialGradient>
	<path class="st3" d="M201.7,218.6c0,0,28.3,26.4,51.4,26.4c23.2,0,42.4-17,60.4-10.3c18,6.7,5.6,38.2,42.4,40.5
		c36.8,2.3,68.2-3.4,68.2-22.8s11.6-33.7,23.2-33.7c11.6,0,41.2-19.8,41.2-43s-1.3-32.4-18-53.5C453.8,101,399.8,91.7,410,72.2
		s16.7-42.6-10.3-42.6c-27,0-36-17-73.3-17s-43.7-12.2-90,6.1S204.3,54,170.8,54s-55.3,6.5-55.3,26.8c0,20.2,20.6,34.1,0,53.5
		s-38.6,31.6-20.6,48.7s25.7,12.2,51.4,12.2S201.7,218.6,201.7,218.6z"/>
	
		<radialGradient id="SVGID_4_" cx="195.5928" cy="224.8258" r="32.7442" gradientTransform="matrix(1.7544 0 0 1.6594 -210.6557 -136.209)" gradientUnits="userSpaceOnUse">
		<stop  offset="0" style="stop-color:#008D36"/>
		<stop  offset="0.3287" style="stop-color:#008A35"/>
		<stop  offset="0.8378" style="stop-color:#008131"/>
		<stop  offset="1" style="stop-color:#007D2F"/>
	</radialGradient>
	<path class="st4" d="M184.6,228.7c0,0,10.9,5.5,6.2,17.6c-4.7,12.1-12.2,10.3-21.7,19.3c-9.5,9-12.4,28.9-27.5,22.2
		c-15.1-6.7-15.5-15.5-35.4-15.5S73,289.9,73,265.6s15.7-39.3,7.5-47c-8.1-7.7,3.4-21.3,7-21.3c3.6,0,22.7,1.3,31.1-6.7
		s47-9.2,52.3,3.4S179.8,228.7,184.6,228.7z"/>
	<path d="M331.1,541.7c-1.8-10.6,14.7-11.7,8.7-25.8s-12.7-27.6-22.8-47.4c-10.1-19.7-39.4-31.8-49.6-8.3
		c-10.3,23.6-12.2,21.8-1.4,42.8c7.9,15.4,15.8,16,21.1,27.4C292.3,541.8,303.9,541.7,331.1,541.7z"/>
	<g>
		<path d="M279.5,8.6c14.4,0,25.6,4,46.9,4c37.3,0,46.3,17,73.3,17c27,0,20.6,23.1,10.3,42.6c-10.3,19.5,43.7,28.8,60.4,49.9
			c16.7,21.1,18,30.4,18,53.5c0,23.1-29.6,43-41.2,43c-11.6,0-23.2,14.2-23.2,33.7c0,16.8-23.4,23.3-53.5,23.3
			c-4.8,0-9.7-0.2-14.7-0.5c-36.8-2.3-24.4-33.8-42.4-40.5c-2.1-0.8-4.3-1.2-6.5-1.4c5.2,42.5,17.2,141.2,17.2,155.7
			c0,18.6,18.4,34.8,18.4,75.4c0,40.6,49.6,70.6,49.6,70.6c0,8.8-9.5,11.8-22.7,11.8c-11.3,0-25.4-2.2-38.6-5.1c-0.4,0-0.9,0-1.3,0
			c-19.3,0-30.5,0-37.2-4.5c3.9,8,7.7,20.3-6.7,20.3c-2.8,0-6.3-0.5-10.6-1.5c-21.3-1.5-32.1-18.1-49.6-18.1c-2.2,0-4.5,0.3-6.9,0.9
			c-8.2,1.4-36.2,13.8-49,13.8c-7.6,0-9.9-4.4,0.6-18.2c35.2-26.8,35-49,41.1-69.9c6.1-20.9,17.2-51,28.2-82.4
			c4.8-13.7,6.9-46.9,7.6-79.8c-14.5-14.2-40-36.5-65.1-45.3c-3.7,2.3-8.1,4.1-13,8.7c-8.2,7.8-11.5,23.6-21.8,23.6
			c-1.7,0-3.5-0.4-5.7-1.4c-15.1-6.7-15.5-15.5-35.4-15.5c-11.8,0-21.3,6.2-27,6.2c-4,0-6.2-2.9-6.2-12.9c0-24.3,15.7-39.3,7.5-47
			c-8.1-7.7,3.4-21.3,7-21.3c0.9,0,2.6,0.1,4.8,0.1c5.3,0,13.6-0.4,20.2-3.1c-5.4-1.6-10.8-4.9-17.6-11.4c-18-17,0-29.2,20.6-48.7
			s0-33.3,0-53.5c0-20.2,21.9-26.8,55.3-26.8s19.3-17,65.6-35.3C256.3,10.9,268.8,8.6,279.5,8.6 M247.6,262.2
			c0-6.4-0.1-12.4-0.1-17.7c-21.9-3.6-45.8-25.9-45.8-25.9s-12.3-9.8-28-16.7c3.9,12.2,6.9,26.9,10.9,26.9c0,0,7.5,3.8,7.3,12.1
			c6.4,1.6,13,3.4,18.9,5.5C223.4,250.6,236.1,257.5,247.6,262.2 M279.5,3.6c-13,0-26.5,3.1-45,10.4c-23.2,9.1-32.1,18.2-38.6,24.8
			c-6.6,6.7-9.9,10.1-25.2,10.1c-18.7,0-32.5,2-42.2,6.2c-12,5.2-18.1,13.8-18.1,25.6c0,8,2.8,15,5.2,21.1
			c4.4,11.1,7.3,18.4-3.7,28.8c-2.3,2.2-4.7,4.3-6.9,6.4c-12.6,11.6-22.6,20.7-22.6,31.9c0,6.1,2.9,11.8,9,17.6
			c2.3,2.2,4.5,4,6.6,5.6c-1.8,0.1-3.7,0.2-5.7,0.2c-1.3,0-2.5,0-3.4,0c-0.6,0-1.1,0-1.5,0c-5.5,0-11.3,7.5-13.5,12.8
			c-2.6,6.6-1.5,12.8,3,17.1c1.7,1.6,0.6,5.2-2.4,13c-3,8-6.7,17.9-6.7,30.4c0,4.4,0,17.9,11.2,17.9c3.2,0,6.6-1.2,10.5-2.5
			c4.9-1.7,10.4-3.6,16.5-3.6c11.1,0,14.8,2.8,20.3,7c3.4,2.6,7.2,5.5,13.1,8.1c2.7,1.2,5.2,1.8,7.7,1.8c9.4,0,14.2-8.1,18.4-15.3
			c2.1-3.6,4.3-7.3,6.8-9.7c3.2-3,6.2-4.7,9.1-6.3c0.3-0.2,0.6-0.4,1-0.5c23.1,8.8,46.6,29.2,59.6,41.8c-1.2,49.1-4.6,68.5-7.2,76.1
			c-2.2,6.4-4.5,12.7-6.7,18.9c-8.6,24.1-16.7,46.9-21.6,63.7c-1,3.5-1.9,7-2.7,10.5c-4.2,17.4-8.6,35.4-36.7,56.9l-0.5,0.4
			l-0.4,0.5c-9.5,12.5-8.8,17.8-7.2,21c1.2,2.4,4,5.2,10.6,5.2c8.9,0,22.9-4.9,35.2-9.2c6.2-2.2,12-4.2,14.6-4.6l0.2,0l0.2,0
			c2-0.5,3.9-0.7,5.8-0.7c7.2,0,13.4,3.5,20.5,7.6c7.8,4.5,16.6,9.6,28.3,10.5c4.4,1,8.2,1.6,11.4,1.6c6.4,0,10.9-2,13.4-6.1
			c1.8-2.9,2.3-6.6,1.5-11.1c7.2,1.3,16.6,1.3,29,1.3h0.8c15.8,3.4,29,5.1,39.1,5.1c7.9,0,13.9-1,18.4-3.1c6-2.8,9.3-7.6,9.3-13.7
			v-2.8l-2.4-1.5c-0.5-0.3-47.2-29.1-47.2-66.3c0-25.2-6.8-41.3-12.2-54.3c-3.4-8.2-6.2-14.7-6.2-21.1c0-13.6-9.9-96.2-16.4-149.1
			c3.9,2,5.6,6.1,8,12.8c3.9,10.9,9.3,25.9,34.8,27.5c5.2,0.3,10.2,0.5,15,0.5c16.7,0,30.1-1.9,39.8-5.7c15.4-6,18.6-15.6,18.6-22.6
			c0-16.9,9.6-28.7,18.2-28.7c7.4,0,18.8-5.7,28.2-14.1c6.7-5.9,17.9-18.2,17.9-33.9c0-24.1-1.6-34.5-19.1-56.6
			c-7.7-9.7-21.5-16.6-34.8-23.3c-11.2-5.6-23.8-11.9-25.6-17.5c-0.2-0.8-0.4-1.9,0.5-3.6c9.6-18.2,11.9-31.9,6.7-40.5
			c-3.8-6.3-11-9.4-21.4-9.4c-11.4,0-19.3-3.3-28.4-7.1c-11.1-4.7-23.8-9.9-44.9-9.9c-11.4,0-19.9-1.2-27.5-2.2
			C292.5,4.5,286.4,3.6,279.5,3.6L279.5,3.6z M186.2,223.9c-1.3-2-3-7.6-4.4-12.4c9.1,5.1,15.6,10.1,16.6,10.9
			c2.2,2.1,23.1,20.8,44.1,26.1c0,2,0,4,0,6c-2.3-1.1-4.7-2.2-7.2-3.3c-7.5-3.5-15.2-7.1-22.9-9.7c-4.6-1.6-9.9-3.2-15.9-4.7
			c-1.4-6.6-6.5-10.9-9.7-12.5L186.2,223.9L186.2,223.9z"/>
	</g>
</g>
</svg>
