<svg xmlns="http://www.w3.org/2000/svg" xmlns:xlink="http://www.w3.org/1999/xlink" viewBox="0 0 350.16 543.83"><defs><radialGradient id="c" cx="193.62" cy="285.84" r="155.24" gradientUnits="userSpaceOnUse"><stop offset="0" stop-color="#e7e7e7"/><stop offset=".48" stop-color="#e0e0e0"/><stop offset="1" stop-color="#d2d2d2"/></radialGradient><radialGradient id="a" cx="165.6" cy="435.51" r="131.34" gradientUnits="userSpaceOnUse"><stop offset="0" stop-color="#a81326"/><stop offset="1" stop-color="#861009"/></radialGradient><radialGradient id="d" cx="213.04" cy="192.21" r="36.93" xlink:href="#a"/><radialGradient id="b" cx="229.87" cy="164.57" r="25.31" gradientUnits="userSpaceOnUse"><stop offset="0" stop-color="#ffd402"/><stop offset="1" stop-color="#f4c116"/></radialGradient><radialGradient id="e" cx="165.63" cy="107.39" r="40.4" xlink:href="#a"/><radialGradient id="f" cx="165.65" cy="27.63" r="38.01" xlink:href="#b"/><radialGradient id="g" cx="165.63" cy="53.52" r="57.9" xlink:href="#c"/><radialGradient id="h" cx="162.38" cy="299.55" r="69.17" gradientTransform="matrix(.75 0 0 1 44.13 0)" xlink:href="#a"/><radialGradient id="i" cx="159.42" cy="203.36" r="42.07" xlink:href="#b"/><radialGradient id="j" cx="39.82" cy="263.75" r="32.36" gradientTransform="rotate(-2.91 92.586 216.86)" xlink:href="#a"/><radialGradient id="k" cx="42.85" cy="299.09" r="24.82" gradientTransform="rotate(-2.91 92.586 216.86)" xlink:href="#b"/><radialGradient id="l" cx="26.24" cy="213.11" r="16.11" gradientTransform="rotate(-2.91 92.586 216.86)" xlink:href="#c"/></defs><path d="M178.47 438.47h-.91l-.89-.16c-1.11-.19-27.48-5-57-21.13C80 395.5 46.08 340.93 35.82 302.2l20-5.29c8.82 33.41 38.45 82.69 73.18 101.84a192 192 0 0 0 50.44 19.06c61.49-.23 107-21.63 131.78-61.93 26.15-42.58 26.11-103.47-.1-155.12-15-29.58-30.62-45.77-45.15-46.82s-25.51 14.06-25.62 14.23l-17-11.78c.7-1 17.49-24.86 43.92-23.08 22.54 1.52 43.5 21.07 62.29 58.1 29.38 57.91 29.1 126.72-.71 175.29-20.09 32.74-62.5 71.77-150.38 71.77z" transform="translate(-6.24)" fill="url(#c)"/><path d="M320 435.58c0-57.05-69.14-103.39-154.35-103.39S11.24 378.53 11.24 435.58c0 25.13 13.42 48.17 35.72 66.08 12.25 11.34 13.41 16.25 13.41 16.25s.05 20.93 105.23 20.92 105.23-20.92 105.23-20.92 1.15-4.94 13.4-16.25c22.3-17.91 35.77-40.95 35.77-66.08z" transform="translate(-6.24)" fill="url(#a)"/><path d="M227.93 167.28l-20-13.91c-4.33 21-29.79 62.92-29.79 62.92l10.62 7.37 10.61 7.34s30.36-38.45 48.58-49.85z" transform="translate(-6.24)" fill="url(#d)"/><path d="M258.41 180.42l-26.71-18.56-26.7-18.57s-4.75 0-3.77 5.43l6.7 4.65 20 13.91 20 13.91 6.7 4.65c5.45-.98 3.78-5.42 3.78-5.42z" transform="translate(-6.24)" fill="url(#b)"/><path d="M165.6 56.4h15c24.18 56.52 0 102 0 102h-30s-24.18-45.47 0-102z" transform="translate(-6.24)" fill="url(#e)"/><path d="M204.33 7.18c-15.79 8.62-38 7.43-38.7 7.48s-25.77.15-38.7-7.48c-12.41-7.31-9.81 6.12-9.81 6.12 25.18 14.3 18.93 37 18.93 37h59.16s-6.21-22.7 18.93-37c0 0 2.86-13.02-9.81-6.12z" transform="translate(-6.24)" fill="url(#f)"/><path d="M165.6 48.59c18.28 0 70-5.05 76.12-5.05s5.09 3.53 5.09 3.53c-26 0-22 9.33-22 9.33s-31.09 5.66-41.58 6.49c-8.78.69-26.47.89-35.24.1-10.47-.94-41.54-6.59-41.54-6.59s4-9.33-22-9.33c0 0-1.15-3.53 5.1-3.53-.01 0 56.59 5.05 76.05 5.05z" transform="translate(-6.24)" fill="url(#g)"/><path d="M216.88 347.12s7.34-2.52 7.34-25.21-19.61-31.06-19.61-81.07l-39 .07-38.95-.07c0 50-19.61 58.39-19.61 81.07s7.34 25.21 7.34 25.21 12.29 11.14 51.22 11.14c42.61 0 51.27-11.14 51.27-11.14z" transform="translate(-6.24)" fill="url(#h)"/><path fill="url(#i)" d="M198.37 240.84l-23.94-82.45H144.4l-23.94 82.45 38.89 7.49 39.02-7.49z"/><path d="M39.57 228.77s16.4 46.17 30 62.82l-23.42 6.75-23.42 6.74c2.66-21.33-8-69.15-8-69.15z" transform="translate(-6.24)" fill="url(#j)"/><path d="M16.72 313.68l31.26-9 31.26-9s3-3.68-1.83-6.35l-7.84 2.26-23.42 6.75-23.42 6.74-7.84 2.26c-2.67 4.83 1.83 6.34 1.83 6.34z" transform="translate(-6.24)" fill="url(#k)"/><path d="M17.43 199.22l4.9-1.42c9.6 33.15 17.24 31 17.24 31l-24.85 7.16s7.43-2.11-2.19-35.3z" transform="translate(-6.24)" fill="url(#l)"/><path d="M114.61 5c1.46 0 3.43.62 6.08 2.18 12.93 7.63 38 7.43 38.7 7.48h2.77c6.54 0 23.3-.62 35.93-7.51a13.33 13.33 0 0 1 6.07-2c5.5 0 3.74 8.14 3.74 8.14-19.45 11-20.15 27.07-19.46 33.8 20.54-1.49 43.11-3.56 47-3.56 6.24 0 5.09 3.53 5.09 3.53-26 0-22 9.33-22 9.33s-31.09 5.66-41.58 6.49c19.77 53.47-2.58 95.5-2.58 95.5l10.23 35.26c7-13.28 14.79-29.51 17-40.28l-6.7-4.65c-1-5.41 3.72-5.43 3.77-5.43l18.53 12.88c1.76-2.46 17.12-23 41-23 .92 0 1.86 0 2.81.1 22.54 1.52 43.5 21.07 62.29 58.1 29.38 57.91 29.1 126.72-.72 175.29A138.09 138.09 0 0 1 300.69 394c8.36 12.73 13 26.79 13 41.58 0 25.13-13.42 48.17-35.72 66.08-12.25 11.31-13.4 16.25-13.4 16.25s-.06 20.92-105.23 20.92h-.06c-105.12 0-105.17-20.92-105.17-20.92s-1.14-4.91-13.35-16.25c-22.3-17.91-35.72-41-35.72-66.08 0-30.35 19.58-57.68 50.73-76.6-11-17.19-19.6-35.29-24.54-51.26l-20.71 6s-4.5-1.51-1.83-6.34l7.84-2.26c2.66-21.33-8-69.15-8-69.15s7.43-2.11-2.19-35.3l4.9-1.41 4.9-1.42c8.49 29.31 15.44 31 16.94 31a1.16 1.16 0 0 0 .3 0s16.4 46.17 30 62.82l7.84-2.26c4.83 2.67 1.83 6.35 1.83 6.35l-22 6.32c4.54 14.57 12.56 31.5 22.94 47.46a189.93 189.93 0 0 1 29-10.15c-1.2-3.76-2.14-9.29-2.14-17.39 0-22.69 19.61-31.07 19.61-81.08l23.93-82.45s-22.33-42.05-2.63-95.46c-10.47-.94-41.54-6.59-41.54-6.59s4-9.33-22-9.33c0 0-1.15-3.53 5.1-3.53 0 0 24.66 2.2 47 3.7.71-6.65.14-22.82-19.44-33.94 0 0-1.61-8.3 3.73-8.3m133.8 180.84l-6.7-4.65c-15.61 9.76-40.11 39.37-46.82 47.66l3.48 12c0 50 19.61 58.39 19.61 81.08 0 8.13-.94 13.66-2.15 17.42 29.34 7.74 54.3 21.33 71.67 38.62a117 117 0 0 0 17.51-22.08c26.15-42.58 26.11-103.47-.1-155.12-15-29.58-30.62-45.77-45.15-46.82q-.74-.06-1.47-.06c-13 0-22.72 12.34-24 14.09l17.91 12.45s1.67 4.44-3.76 5.42M114.62 0A8.38 8.38 0 0 0 108 3c-3.16 3.82-2.35 9.56-2 11.23a5 5 0 0 0 2.44 3.4c13.12 7.45 16.55 17.15 17 24.24-20.54-1.44-41.47-3.31-41.7-3.33h-.44c-4.1 0-7.06 1.21-8.79 3.6a7.3 7.3 0 0 0-1.06 6.47 5 5 0 0 0 4.75 3.46c13.16 0 16.52 2.51 17.15 3.13a5 5 0 0 0 4 6.12c1.08.19 22.62 4.1 35.71 5.9a133.92 133.92 0 0 0-4.3 64.39 114.91 114.91 0 0 0 8.29 27.27l-23.39 80.57a5 5 0 0 0-.19 1.39c0 28.78-6.75 43.25-12.17 54.88-4 8.56-7.44 16-7.44 26.2a75.91 75.91 0 0 0 1.12 13.86 196.1 196.1 0 0 0-21.07 7.4 197.31 197.31 0 0 1-18.48-37.82l17-4.88a5 5 0 0 0 2.49-1.64 9.26 9.26 0 0 0 1.9-7.33c-.36-1.88-1.55-4.55-5.18-6.56a5 5 0 0 0-3.8-.42l-4.55 1.3c-12.51-17.61-27-58.3-27.2-58.73a5 5 0 0 0-4.54-3.32c-1.08-.74-6.2-5.26-12.61-27.37a5 5 0 0 0-4.8-3.61 5.06 5.06 0 0 0-1.39.19l-4.99 1.42-4.9 1.42A5 5 0 0 0 1.49 202c6.36 21.94 4.62 28.55 4.12 29.81a5 5 0 0 0-2 5.18c.1.45 9.44 42.64 8.21 64.21l-4.54 1.31a5 5 0 0 0-3 2.38c-2 3.63-1.6 6.52-.9 8.31a9.24 9.24 0 0 0 5.51 5.19 4.82 4.82 0 0 0 1.59.26 5.06 5.06 0 0 0 1.39-.19l16.06-4.63a225.68 225.68 0 0 0 20.91 43.55c-14.41 9.41-25.93 20.42-34.3 32.78C4.9 404.42 0 419.69 0 435.55c0 25.59 13.29 50.38 37.41 69.83 9 8.33 11.38 12.74 11.84 13.72.51 2.9 3.31 8.79 16.2 13.9 18 7.17 49.62 10.81 93.85 10.81h.06c44.25 0 75.84-3.64 93.9-10.82 12.89-5.12 15.66-11 16.2-13.88.46-1 2.83-5.39 11.84-13.72 24.13-19.39 37.46-44.22 37.46-69.81a78.75 78.75 0 0 0-11.66-40.84 144.48 144.48 0 0 0 19.84-25.43c30.7-50 31.06-120.73.9-180.17-19.64-38.71-42-59.17-66.41-60.82-1-.07-2.1-.11-3.14-.11-20.83 0-35.7 14-41.93 21.19l-14.71-10.21a4.94 4.94 0 0 0-2.85-.9 9.35 9.35 0 0 0-6.89 3.16 9.57 9.57 0 0 0-1.8 8.15 5 5 0 0 0 2.07 3.22l3.88 2.7c-1.73 6.21-5.14 14.55-10.05 24.61l-6.25-21.33a115.36 115.36 0 0 0 8.26-27.22 134 134 0 0 0-4.26-64.42c13.13-1.74 34.65-5.64 35.72-5.84a5 5 0 0 0 4-6.12c.64-.64 4-3.13 17.15-3.13a5 5 0 0 0 4.76-3.46 7.36 7.36 0 0 0-1.06-6.47c-1.74-2.39-4.69-3.6-8.79-3.6-2.34 0-9.4.57-21.66 1.56-6.38.52-13.43 1.09-20.47 1.62.52-7.06 4-16.68 17-24.07a5 5 0 0 0 2.35-3.28c.25-1.16 1.35-7.14-1.83-11.09a8.51 8.51 0 0 0-6.77-3.12 18 18 0 0 0-8.47 2.63c-11.41 6.21-27.25 6.9-33.53 6.9h-3.21c-15.57-.23-28.92-2.77-35.72-6.78C119.95.94 117.13 0 114.62 0zm127.14 167.06c3.59-3.55 9.61-8.18 16.57-8.18h1.11c12.5.91 27.08 16.57 41.05 44.1 25.44 50.14 25.56 109.11.3 150.25a111.63 111.63 0 0 1-13.39 17.64c-16.93-15.51-39.4-27.55-65.51-35.1a76.19 76.19 0 0 0 1.13-13.89c0-10.24-3.45-17.64-7.44-26.2-5.42-11.63-12.17-26.1-12.17-54.88a5 5 0 0 0-.19-1.39l-2.8-9.41c13.05-15.95 29.82-34.41 41.25-42.72l3.88 2.7a5.06 5.06 0 0 0 2.86.89 4.37 4.37 0 0 0 .88-.08c4.08-.73 6.07-2.87 7-4.54a9.31 9.31 0 0 0 .56-7.56 5.06 5.06 0 0 0-1.83-2.35l-13.26-9.28z" fill="#1d1d1b"/></svg>