<svg xmlns="http://www.w3.org/2000/svg" viewBox="0 0 566.9 566.9"><path d="M389.7 79c.5 1.3 1.1 2.5 1.4 3.9.4 1.7.5 3.5-.1 5.4 2 2.8 5 5.3.6 6.6v14.3c0 6.1 1 12.5-.1 18.4-1.1 5.6 3.5 12.7-3.8 17 1.9 2.6 6.6 5.7-3.3 6.6 7.2 3.2 8.5 5.7 1.9 7.2 1.5 1.8 2.7 3.4 4 4.9-1.4.8-2.7 1.6-3.2 1.9.6 3.6 2 7 1.7 10.1-1.6 12.8-3.8 25.6-5.8 38.4-.2 1.2-.4 2.4-.8 3.5-2.2 5.7-5.6 10.8-12 11.3-7 .5-9.7-5.6-11.8-11-2.6-6.4-4.3-13.2-6.4-19.8h-1.9v49.7c-1 0-2.1 0-3.1.1-5.2-29.3-.6-59.4-5.2-88.9-.9.3-1.7.5-1.7.6.3 13.4.8 26.8.8 40.2 0 7.7-.6 15.3-1 23-.5 10.6-1.3 21.2-1.2 31.8 0 11 1.1 22 1.4 33 .2 8.9-.1 17.7.1 26.6 0 1.4 1.5 3.8 2.5 3.9 2.5.4 5.2-.2 7.6-.8.3-.1-.1-3.3-.4-4.9-3.4-18-7.3-36-1.4-53.6 2.6 21.2 5.4 42.8 8.3 66.1-1.7 0-4.6.1-7.4 0-6.5-.2-8.3 1.9-7.3 8.2.3 1.8.4 3.9-.3 5.5-4 9.7-1.4 18.8 2.9 27.3 1.4 2.7 6.6 3.5 10 5.1.8-3 2.6-6.2 2.1-9.1-1-7.2-3.6-14.1-4.5-21.3-.5-4.3.9-8.8 1.5-13.3 1.1-.1 2.1-.1 3.2-.2 1.3 3.9 2.4 7.9 3.9 11.8 3 7.9 5.5 16 9.4 23.5 3.5 6.8 9.5 10.8 17.1 13.6 11.3 4.1 19.8 11.9 25.9 22.9 11.4 20.8 5.7 39.6-5.8 59.3 4.9 1.1 9.1 1.6 13 3.1 14.9 5.6 30.2 10.6 44.4 17.7 17.5 8.8 18.7 24.4 3 36-34.2 25.4-71.6 42.1-114.8 47.2-46.2 5.5-91.9 2.4-137.8-.2-13.8-.8-28.3-1.8-38.7-13.6-8.5-9.8-13.2-21.2-15.1-33.9-.1-.7.1-1.5-.2-2.2-2.4-6-5.1-12.6-.5-18 5.9-6.8 12.1-15 20-18.1 18.8-7.4 38.5-12.4 58-18 7.5-2.1 15.3-3.1 23.7-4.7-1.3-2.7-1.8-4.2-2.7-5.6-8.2-13.4-11.1-27.8-7.2-43.2 1.3-5-.3-8-4.3-11.1-15.3-11.8-30.8-23.6-45.4-36.2-7.3-6.3-12.2-15.4-19.4-21.8-27.4-24.7-51.7-51.9-70.8-83.4-5.5-9.1-10-18.7-14.9-28.2-6.5-12.5-7.1-26-6.8-39.6.8-36 13.3-67.4 33.7-97.1 10.7-15.7 22.3-30.4 38.5-38.3 37.6-18.1 70.3-19.1 105 12 20.3 18.2 27.6 42 30.4 67.8 2.9 26.7 5.4 53.4 7.6 80.2.7 8.4-.4 17-.2 25.5.1 4.4 1.4 8.8 2.2 13.2.3 1.6 1 3.4.6 4.9-3.2 14-7 27.9-9.8 42-1.2 6.2 0 12.9-.8 19.2-.4 3.5-1.7 7.8-4.2 9.8-4.5 3.7-14.3 2.4-17.9-2.4-1.7-2.2-1.2-6.4-1-9.7.4-6.6 2.1-13.3 1.9-19.9-.5-14.1-2.3-28.2-2.7-42.3-.2-6.6 1.4-13.3 2.9-19.8 5.1-23 .4-45.7-2-68.5-1.1-10.3-3.5-20.6-3.7-30.9-.4-19.4-7.2-35.7-20.2-49.8-9.4-10.2-21.6-13.1-34.5-14.5-32.6-3.6-53.2 14.4-70.9 38.6-14.2 19.3-22.7 40.7-26.8 64.2-3.8 21.6-.7 41.6 10.5 60.6 13.7 23.3 30.2 44.5 49.9 62.8 14.7 13.6 31 25.4 46.6 38.1 2.4 2 5 3.9 7 6.3 11.3 12.9 22.5 25.8 33.4 39.1 3.2 3.9 5.7 4 10.4 2.7 27.1-7.7 34.4-28.5 37.2-53.1 1-8.9 4.2-17.5 5.7-26.3 1.3-7.9 2.2-15.9 2.4-23.9.8-28.4 1.3-56.7 1.8-85.1.3-13.8.7-27.6.7-41.4 0-2.9-1-6.7-2.9-8.5-5.2-4.5-6.9-10-6.4-16.2.7-8.8-3-15.6-7.4-22.8-7.8-12.7-14.4-26.2-21.6-39.6 1.5-1.2 2.2-2.3 3.2-2.5 13.7-4 22.4-15.3 33.4-23.4 7.9-5.8 5.3-15 7.8-22.6.8-2.3 2-4.5 3-6.7 1.7 1.8 3.3 3.6 5.1 5.3 2.5 2.5 5.1 5 7.7 7.5 1.9 1.8 3.8 3.5 5.9 5.4 6.4-3.4 5.2 3.3 6.9 6.4-4-1.4-8-2.8-12.4-4.4 1.5 9.1 29.1 29.8 39.6 28.9-4.8-3.2-8.7-5.2-11.9-8.1-3.5-3.1-10-4-9-10.9 3.9 1.9 8.1 3.6 11.7 5.9 2.8 1.8 4.9 4.6 7.5 6.7 9.4 7.5 11.1 13.5 7.3 25.1-.3.9 1.2 2.5.8 3.1-.7 1.1-2.1 1.7-3.3 2.5V59.2c-4.2 3-7.4 6.8-9.8 11-5.5 9.9-10 20.4-16 30-5.1 8.2-7.8 16.5-7.4 26 .2 5.1 0 10.1-6 12.7-1.4.6-2.2 3.6-2.5 5.6-.6 3.6-1 7.3-.7 10.9.6 7.8-4.3 17.1 5.8 22.6.6.3.5 1.8.7 2.7 2.6 9.4 4.7 19 8.2 28.1 2 5.3 1.9 12.7 10.1 15 1.4-3.5 2.9-6.8 4.1-10.1 6-17 7.4-34.7 8.2-52.5.8-19.1 2.2-38.2 3.5-57.3.5-8.2 1.2-16.5 1.8-24.9zm-40.1 351.8c11 9.9 22.4 14.8 35 7.8 2-15.5 12.8-22.9 25.6-29.5-10.9-2.2-1.2-11.8-7.7-15-1.5 2.5-2.9 4.9-4.2 7.1-4.7 1.2-9.3 3.3-14.1 3.6-7.6.4-14.2 1.3-14.8 12-1.1-3.5-1.7-5.6-2.6-8.6-6 4.7-11.1 8.7-16.1 12.7-.1-.2-.2-.3-.3-.5 1.2-1.6 2.5-3.2 3.7-4.8-.8-.5-1.5-1.1-2.3-1.6-1.5 2.6-3.1 5.1-4.6 7.7 2.3 1 4.5 2.2 6.9 2.8 3 .8 6 1.1 9.1 1.6-.1.6-.2 1.1-.3 1.7-4.3.9-8.5 1.9-13.3 3zm15.5 53.6c-3.6 0-6.9-.3-10.2.1-8.6 1-11 4.6-8.6 12.7 1.2 4.1 1.8 8.7 4.1 12.3 2.5 3.8 6 7.9 10 9.6 5.5 2.3 11.1-5.4 9.8-13.5-1.1-7-3.3-13.9-5.1-21.2zm-11.3 53.4c8.9-.6 15.2-.7 21.3-1.7 2.6-.4 4.9-2.9 7.3-4.5-1.6-2.2-3.2-4.4-5-6.4-.9-1-2.4-2.1-3.6-2.1-5.8.1-12-.6-17.1 1.4-2.1.9-1.8 7.8-2.9 13.3zm.1-449.5c11.1-6.4 12.3-9.5 9.1-25.3-3.5 1-8.9 1-10 3.2-3.6 6.9-6.5 14.7.9 22.1zm-1.9 43c-.7-6.3-1.1-11.4-2-16.3-.3-1.7-1.9-3.2-2.9-4.8-1.7 1.4-4.4 2.5-4.9 4.2-1.4 5.1-1.8 10.4-2.8 15.6-1.1 5.6 2.4 6.8 6.7 6.9 4.5.1 6.5-2.3 5.9-5.6zM251.2 366.7c-4.1 3.3-4.5 7.2.8 11.5 4.3 3.5 8.1 7.6 12.4 11 2.2 1.8 5.1 2.7 7.7 4 .5-.8 1-1.5 1.4-2.3-7.3-8-14.7-16-22.3-24.2zm121-311.4h-26.3v2.3c8.8 1.7 17.6 4.6 26.3-2.3zm-16.1 355.2c.8.6 1.5 1.3 2.3 1.9 2.4-2.9 4.7-5.8 8.1-9.9h-12.8c3.1.9 4.9 1.4 6.9 2-1.8 2.4-3.2 4.2-4.5 6zM186.8 51c1.4 1.1 1.6 1.1 12.1-3.9-6.1-3-8.8 1-12.1 3.9z"/></svg>