<svg xmlns="http://www.w3.org/2000/svg" xmlns:xlink="http://www.w3.org/1999/xlink" viewBox="0 0 417.21 556.13"><defs><linearGradient id="a" x1="132.11" y1="215.41" x2="240.67" y2="215.41" gradientUnits="userSpaceOnUse"><stop offset="0" stop-color="#1692ce"/><stop offset=".5" stop-color="#37a3da"/><stop offset="1" stop-color="#1692ce"/></linearGradient><linearGradient id="b" x1="132.11" y1="77.49" x2="240.67" y2="77.49" xlink:href="#a"/><linearGradient id="c" x1="242.11" y1="223.44" x2="282.63" y2="238.18" gradientUnits="userSpaceOnUse"><stop offset="0" stop-color="#ce6318"/><stop offset=".5" stop-color="#ec6907"/><stop offset="1" stop-color="#ce6318"/></linearGradient><linearGradient id="d" x1="3.92" y1="133.35" x2="26.64" y2="126.83" gradientUnits="userSpaceOnUse"><stop offset="0" stop-color="#dde8f7"/><stop offset=".5" stop-color="#c4def5"/><stop offset="1" stop-color="#dde8f7"/></linearGradient><linearGradient id="e" x1="20.2" y1="205.65" x2="51.79" y2="196.59" gradientTransform="rotate(16.27 35.996 201.127)" xlink:href="#a"/><linearGradient id="f" x1="85.33" y1="417.91" x2="287.45" y2="417.91" gradientUnits="userSpaceOnUse"><stop offset="0" stop-color="#8a4393"/><stop offset=".5" stop-color="#96509a"/><stop offset="1" stop-color="#8a4393"/></linearGradient></defs><path d="M198.55 5a3 3 0 0 1 2.93 3.6l-6 28.61c15.16 1.84 20.3 7.89 20.3 7.89l24.88 73.19s-3.56-1.76-9.41-4l-1.95 12.77a56.79 56.79 0 0 1 11.36 6.68l-37.61 68.39v87.17c9.72 4.51 21.33 12.31 32.78 23.45l55.49-169.12s-17.83-7.63-15.74-12.13c.5-1.1 1.58-1.53 3-1.53 2.72 0 6.71 1.59 10.41 3.23a143.47 143.47 0 0 1 13.12-21c10.89-13.84 21.28-17.86 29.62-17.86a26.71 26.71 0 0 1 8.58 1.44c29.19 9.86 51.86 45.93 63.84 101.56 10.82 50.2 10.76 108.48-.17 155.9-15.24 66.17-32.68 102.63-58.32 121.93-18 13.55-39.58 17.84-62.94 19.21-12 55.81-45.71 56.75-91.47 56.75h-9.75c-56.53 0-94.71-1.45-96.15-106.1a191.56 191.56 0 0 1 10.26-65.89c-23.54-40.38-40.49-84.27-50.43-119.21l-3.91 1.14a4.09 4.09 0 0 1-1.24.18 4.42 4.42 0 0 1-4.26-3.19L5.18 153.25a4.43 4.43 0 0 1 3-5.5l1.92-.56L5.74 104l6.39-1.16 17 38.77 1.61-.47A4.55 4.55 0 0 1 32 141a4.45 4.45 0 0 1 4.26 3.2L66.82 249a4.45 4.45 0 0 1-3 5.5h-.1a526.51 526.51 0 0 0 41.39 102.36c18.27-35.73 45.41-58.07 64.63-67.31v-87.41l-37.61-68.39a56.91 56.91 0 0 1 11.59-6.75l-2.5-12.55c-5.67 2.18-9.11 3.88-9.11 3.88l6.23-18.33-.05-.24h.13L157 45.1s4.26-5 16.46-7.3l-6.59-29.15A3 3 0 0 1 169.79 5h28.76m110.57 141.53a80.37 80.37 0 0 1-12.05-1.17l-49 180.75c21.78 26.63 40.09 66.18 39.36 118.92-.15 11.1-.72 21-1.68 29.9 48.9-3.49 75.58-22.48 99.43-126 10.32-44.8 10.36-99.94.11-147.51-10.19-47.31-29.31-80-51.16-87.34a6.5 6.5 0 0 0-2.15-.35c-8.4 0-18.77 14.68-23.76 24.85 4.86 1 9.11 2.49 8.69 5.32-.31 2.05-3.81 2.65-7.79 2.65M198.55 0h-28.76A8 8 0 0 0 162 9.75l5.5 24.32c-9.84 2.82-13.83 7.23-14.31 7.79a4.9 4.9 0 0 0-.93 1.63L134 97.12a4.92 4.92 0 0 0-.72 2.09l-5.93 17.47a5 5 0 0 0 7 6.09s1.15-.57 3.17-1.44l.56 2.83a55.69 55.69 0 0 0-9.14 5.74 5 5 0 0 0-1.19 6.26l37 67.26v83.08c-18.22 9.57-42 29.61-59.55 59.8a525.66 525.66 0 0 1-35.66-89.68 9.46 9.46 0 0 0 2.11-9L41 142.79a9.5 9.5 0 0 0-8.94-6.8l-15.35-35.12a5 5 0 0 0-4.58-3 5.45 5.45 0 0 0-.89.08l-6.39 1.16a5 5 0 0 0-4.08 5.43l4 39.28a9.44 9.44 0 0 0-4.39 10.83L31 259.46a9.48 9.48 0 0 0 9 6.79 9.31 9.31 0 0 0 1.74-.16c7.36 24.88 22.5 68.68 48.37 113.59a197.91 197.91 0 0 0-9.79 65.42c.36 26 2.94 46.35 7.91 62.16 4.76 15.15 11.75 26.26 21.38 34 18.62 14.9 44.48 14.9 71.86 14.9h9.75c21.3 0 43.34 0 60.49-7.9 17.73-8.17 28.92-23.82 35-49.11a155.76 155.76 0 0 0 30.78-5 91.45 91.45 0 0 0 31.13-15c26.66-20.07 44.66-57.4 60.19-124.81 11.07-48.09 11.14-107.19.18-158.08-12.32-57.39-36.16-94.77-67.08-105.26a31.65 31.65 0 0 0-10.18-1.7c-11.91 0-23.19 6.66-33.54 19.79a135 135 0 0 0-11.47 17.71 23.56 23.56 0 0 0-8.14-1.87c-5 0-6.93 3.1-7.54 4.44a7.07 7.07 0 0 0-.13 5.53c1.72 4.46 8.55 8.6 14.28 11.39l-51.68 157.52a127.28 127.28 0 0 0-25.45-17.62v-82.77l37-67.26a5 5 0 0 0-1.19-6.26 55.23 55.23 0 0 0-9.05-5.69l.44-2.9c2 .88 3.19 1.45 3.21 1.46a4.93 4.93 0 0 0 2.21.51 5 5 0 0 0 4.73-6.6l-24.88-73.19a5.05 5.05 0 0 0-.92-1.63c-.58-.68-5.53-6.1-18.16-8.74l4.92-23.49A8 8 0 0 0 198.55 0zm117 135.49c5.58-9.39 12.62-16.78 16.42-16.78a1.59 1.59 0 0 1 .55.08c9.56 3.23 19 12.39 27.24 26.49 8.61 14.7 15.75 34.47 20.64 57.17 10.1 46.89 10.06 101.22-.1 145.33-11.54 50.12-23.64 80.46-39.22 98.38-13.89 16-30.09 21.25-49.79 23.28.63-7.53 1-15.69 1.13-24.34.79-57.36-20.31-96.73-38.87-120.14l47.18-174a70.85 70.85 0 0 0 8.38.58c7.76 0 12.05-2.32 12.73-6.91.25-1.64.26-5.76-5-8.51-.4-.21-.84-.42-1.31-.62z" fill="#1d1d1b"/><path fill="#ce6318" d="M227.75 137.31l-82.07-.53-7.39-37.05 95.12.42-5.66 37.16z"/><path d="M203.06 312.54v-110.4l37.61-68.39s-18.67-15.52-54.28-15.46-54.28 15.46-54.28 15.46l37.61 68.39v110.4z" fill="url(#a)"/><path d="M175.33 46.09l-8.46-37.44A3 3 0 0 1 169.79 5h28.76a3 3 0 0 1 2.93 3.6l-7.84 37.45a3 3 0 0 1-2.93 2.37h-12.46a3 3 0 0 1-2.92-2.33z" fill="#ce6318"/><path d="M215.79 45.1s-7.13-8.41-29.4-8.41S157 45.1 157 45.1l-24.88 73.19s26.65-13.19 54.28-13.19 54.28 13.19 54.28 13.19z" fill="url(#b)"/><path d="M249.21 495c-109.54 0-180.28-149.48-204.8-237.82L63 252c7 25.09 27.48 89.52 67.3 145.68 36.71 51.77 76.72 78 118.92 78 73.31 0 106.76 0 136-126.81 10.32-44.8 10.36-99.94.11-147.51-10.19-47.31-29.31-80-51.16-87.34-9.33-3.16-22.17 15.88-27 26.77l-19.44-5.09c.19-.45 6.71-13.75 14.4-23.52 15.11-19.15 29.11-19.51 38.2-16.44 29.19 9.86 51.86 45.93 63.84 101.56 10.82 50.2 10.76 108.48-.17 155.9-15.24 66.17-32.68 102.63-58.32 121.93C319.3 495 285.26 495 249.21 495z" fill="#95c11f"/><path d="M246.13 333.29l50.94-187.93s19.1 3.44 19.84-1.48c.8-5.34-15.11-5.91-20.29-7.46s-18.78-9.82-21-4.92c-2.09 4.52 15.75 12.14 15.75 12.14l-60.7 185z" fill="url(#c)"/><path fill="url(#d)" d="M11.33 159.18l-5.59-55.15 6.39-1.16 22.14 50.56-22.94 5.75z"/><rect x="19.83" y="142.09" width="32.34" height="118.06" rx="4.44" ry="4.44" transform="rotate(-16.27 35.996 201.138)" fill="url(#e)"/><path d="M186.39 284.68c-23.16 0-102.52 52.72-101 160.35s41.83 106.1 101 106.1 99.56 1.54 101-106.1-76.26-160.35-101-160.35z" fill="url(#f)"/></svg>