<?xml version="1.0" encoding="utf-8"?>
<!-- Generator: Adobe Illustrator 22.1.0, SVG Export Plug-In . SVG Version: 6.00 Build 0)  -->
<svg version="1.1" id="Laag_1" xmlns="http://www.w3.org/2000/svg" xmlns:xlink="http://www.w3.org/1999/xlink" x="0px" y="0px"
	 viewBox="0 0 566.9 566.9" style="enable-background:new 0 0 566.9 566.9;" xml:space="preserve">
<path d="M389.7,79c0.5,1.3,1.1,2.5,1.4,3.9c0.4,1.7,0.5,3.5-0.1,5.4c2,2.8,5,5.3,0.6,6.6c0,5.2,0,9.8,0,14.3c0,6.1,1,12.5-0.1,18.4
	c-1.1,5.6,3.5,12.7-3.8,17c1.9,2.6,6.6,5.7-3.3,6.6c7.2,3.2,8.5,5.7,1.9,7.2c1.5,1.8,2.7,3.4,4,4.9c-1.4,0.8-2.7,1.6-3.2,1.9
	c0.6,3.6,2,7,1.7,10.1c-1.6,12.8-3.8,25.6-5.8,38.4c-0.2,1.2-0.4,2.4-0.8,3.5c-2.2,5.7-5.6,10.8-12,11.3c-7,0.5-9.7-5.6-11.8-11
	c-2.6-6.4-4.3-13.2-6.4-19.8c-0.6,0-1.3,0-1.9,0c0,16.6,0,33.1,0,49.7c-1,0-2.1,0-3.1,0.1c-5.2-29.3-0.6-59.4-5.2-88.9
	c-0.9,0.3-1.7,0.5-1.7,0.6c0.3,13.4,0.8,26.8,0.8,40.2c0,7.7-0.6,15.3-1,23c-0.5,10.6-1.3,21.2-1.2,31.8c0,11,1.1,22,1.4,33
	c0.2,8.9-0.1,17.7,0.1,26.6c0,1.4,1.5,3.8,2.5,3.9c2.5,0.4,5.2-0.2,7.6-0.8c0.3-0.1-0.1-3.3-0.4-4.9c-3.4-18-7.3-36-1.4-53.6
	c2.6,21.2,5.4,42.8,8.3,66.1c-1.7,0-4.6,0.1-7.4,0c-6.5-0.2-8.3,1.9-7.3,8.2c0.3,1.8,0.4,3.9-0.3,5.5c-4,9.7-1.4,18.8,2.9,27.3
	c1.4,2.7,6.6,3.5,10,5.1c0.8-3,2.6-6.2,2.1-9.1c-1-7.2-3.6-14.1-4.5-21.3c-0.5-4.3,0.9-8.8,1.5-13.3c1.1-0.1,2.1-0.1,3.2-0.2
	c1.3,3.9,2.4,7.9,3.9,11.8c3,7.9,5.5,16,9.4,23.5c3.5,6.8,9.5,10.8,17.1,13.6c11.3,4.1,19.8,11.9,25.9,22.9
	c11.4,20.8,5.7,39.6-5.8,59.3c4.9,1.1,9.1,1.6,13,3.1c14.9,5.6,30.2,10.6,44.4,17.7c17.5,8.8,18.7,24.4,3,36
	c-34.2,25.4-71.6,42.1-114.8,47.2c-46.2,5.5-91.9,2.4-137.8-0.2c-13.8-0.8-28.3-1.8-38.7-13.6c-8.5-9.8-13.2-21.2-15.1-33.9
	c-0.1-0.7,0.1-1.5-0.2-2.2c-2.4-6-5.1-12.6-0.5-18c5.9-6.8,12.1-15,20-18.1c18.8-7.4,38.5-12.4,58-18c7.5-2.1,15.3-3.1,23.7-4.7
	c-1.3-2.7-1.8-4.2-2.7-5.6c-8.2-13.4-11.1-27.8-7.2-43.2c1.3-5-0.3-8-4.3-11.1c-15.3-11.8-30.8-23.6-45.4-36.2
	c-7.3-6.3-12.2-15.4-19.4-21.8c-27.4-24.7-51.7-51.9-70.8-83.4c-5.5-9.1-10-18.7-14.9-28.2c-6.5-12.5-7.1-26-6.8-39.6
	c0.8-36,13.3-67.4,33.7-97.1c10.7-15.7,22.3-30.4,38.5-38.3c37.6-18.1,70.3-19.1,105,12c20.3,18.2,27.6,42,30.4,67.8
	c2.9,26.7,5.4,53.4,7.6,80.2c0.7,8.4-0.4,17-0.2,25.5c0.1,4.4,1.4,8.8,2.2,13.2c0.3,1.6,1,3.4,0.6,4.9c-3.2,14-7,27.9-9.8,42
	c-1.2,6.2,0,12.9-0.8,19.2c-0.4,3.5-1.7,7.8-4.2,9.8c-4.5,3.7-14.3,2.4-17.9-2.4c-1.7-2.2-1.2-6.4-1-9.7c0.4-6.6,2.1-13.3,1.9-19.9
	c-0.5-14.1-2.3-28.2-2.7-42.3c-0.2-6.6,1.4-13.3,2.9-19.8c5.1-23,0.4-45.7-2-68.5c-1.1-10.3-3.5-20.6-3.7-30.9
	c-0.4-19.4-7.2-35.7-20.2-49.8c-9.4-10.2-21.6-13.1-34.5-14.5c-32.6-3.6-53.2,14.4-70.9,38.6c-14.2,19.3-22.7,40.7-26.8,64.2
	c-3.8,21.6-0.7,41.6,10.5,60.6c13.7,23.3,30.2,44.5,49.9,62.8c14.7,13.6,31,25.4,46.6,38.1c2.4,2,5,3.9,7,6.3
	c11.3,12.9,22.5,25.8,33.4,39.1c3.2,3.9,5.7,4,10.4,2.7c27.1-7.7,34.4-28.5,37.2-53.1c1-8.9,4.2-17.5,5.7-26.3
	c1.3-7.9,2.2-15.9,2.4-23.9c0.8-28.4,1.3-56.7,1.8-85.1c0.3-13.8,0.7-27.6,0.7-41.4c0-2.9-1-6.7-2.9-8.5c-5.2-4.5-6.9-10-6.4-16.2
	c0.7-8.8-3-15.6-7.4-22.8c-7.8-12.7-14.4-26.2-21.6-39.6c1.5-1.2,2.2-2.3,3.2-2.5C303.3,54.4,312,43.1,323,35
	c7.9-5.8,5.3-15,7.8-22.6c0.8-2.3,2-4.5,3-6.7c1.7,1.8,3.3,3.6,5.1,5.3c2.5,2.5,5.1,5,7.7,7.5c1.9,1.8,3.8,3.5,5.9,5.4
	c6.4-3.4,5.2,3.3,6.9,6.4c-4-1.4-8-2.8-12.4-4.4c1.5,9.1,29.1,29.8,39.6,28.9c-4.8-3.2-8.7-5.2-11.9-8.1c-3.5-3.1-10-4-9-10.9
	c3.9,1.9,8.1,3.6,11.7,5.9c2.8,1.8,4.9,4.6,7.5,6.7c9.4,7.5,11.1,13.5,7.3,25.1c-0.3,0.9,1.2,2.5,0.8,3.1c-0.7,1.1-2.1,1.7-3.3,2.5
	c0-6.6,0-13.3,0-19.9c-4.2,3-7.4,6.8-9.8,11c-5.5,9.9-10,20.4-16,30c-5.1,8.2-7.8,16.5-7.4,26c0.2,5.1,0,10.1-6,12.7
	c-1.4,0.6-2.2,3.6-2.5,5.6c-0.6,3.6-1,7.3-0.7,10.9c0.6,7.8-4.3,17.1,5.8,22.6c0.6,0.3,0.5,1.8,0.7,2.7c2.6,9.4,4.7,19,8.2,28.1
	c2,5.3,1.9,12.7,10.1,15c1.4-3.5,2.9-6.8,4.1-10.1c6-17,7.4-34.7,8.2-52.5c0.8-19.1,2.2-38.2,3.5-57.3
	C388.4,95.7,389.1,87.4,389.7,79z M349.6,430.8c11,9.9,22.4,14.8,35,7.8c2-15.5,12.8-22.9,25.6-29.5c-10.9-2.2-1.2-11.8-7.7-15
	c-1.5,2.5-2.9,4.9-4.2,7.1c-4.7,1.2-9.3,3.3-14.1,3.6c-7.6,0.4-14.2,1.3-14.8,12c-1.1-3.5-1.7-5.6-2.6-8.6
	c-6,4.7-11.1,8.7-16.1,12.7c-0.1-0.2-0.2-0.3-0.3-0.5c1.2-1.6,2.5-3.2,3.7-4.8c-0.8-0.5-1.5-1.1-2.3-1.6c-1.5,2.6-3.1,5.1-4.6,7.7
	c2.3,1,4.5,2.2,6.9,2.8c3,0.8,6,1.1,9.1,1.6c-0.1,0.6-0.2,1.1-0.3,1.7C358.6,428.7,354.4,429.7,349.6,430.8z M365.1,484.4
	c-3.6,0-6.9-0.3-10.2,0.1c-8.6,1-11,4.6-8.6,12.7c1.2,4.1,1.8,8.7,4.1,12.3c2.5,3.8,6,7.9,10,9.6c5.5,2.3,11.1-5.4,9.8-13.5
	C369.1,498.6,366.9,491.7,365.1,484.4z M353.8,537.8c8.9-0.6,15.2-0.7,21.3-1.7c2.6-0.4,4.9-2.9,7.3-4.5c-1.6-2.2-3.2-4.4-5-6.4
	c-0.9-1-2.4-2.1-3.6-2.1c-5.8,0.1-12-0.6-17.1,1.4C354.6,525.4,354.9,532.3,353.8,537.8z M353.9,88.3c11.1-6.4,12.3-9.5,9.1-25.3
	c-3.5,1-8.9,1-10,3.2C349.4,73.1,346.5,80.9,353.9,88.3z M352,131.3c-0.7-6.3-1.1-11.4-2-16.3c-0.3-1.7-1.9-3.2-2.9-4.8
	c-1.7,1.4-4.4,2.5-4.9,4.2c-1.4,5.1-1.8,10.4-2.8,15.6c-1.1,5.6,2.4,6.8,6.7,6.9C350.6,137,352.6,134.6,352,131.3z M251.2,366.7
	c-4.1,3.3-4.5,7.2,0.8,11.5c4.3,3.5,8.1,7.6,12.4,11c2.2,1.8,5.1,2.7,7.7,4c0.5-0.8,1-1.5,1.4-2.3
	C266.2,382.9,258.8,374.9,251.2,366.7z M372.2,55.3c-8.8,0-17.5,0-26.3,0c0,0.8,0,1.5,0,2.3C354.7,59.3,363.5,62.2,372.2,55.3z
	 M356.1,410.5c0.8,0.6,1.5,1.3,2.3,1.9c2.4-2.9,4.7-5.8,8.1-9.9c-5,0-8.2,0-12.8,0c3.1,0.9,4.9,1.4,6.9,2
	C358.8,406.9,357.4,408.7,356.1,410.5z M186.8,51c1.4,1.1,1.6,1.1,12.1-3.9C192.8,44.1,190.1,48.1,186.8,51z"/>
</svg>
