<svg xmlns="http://www.w3.org/2000/svg" viewBox="0 0 518.01 511.7"><defs><linearGradient id="a" x1="41.8" y1="146.11" x2="172.39" y2="221.5" gradientUnits="userSpaceOnUse"><stop offset="0" stop-color="#faf9e4"/><stop offset=".14" stop-color="#f9f8dd"/><stop offset=".35" stop-color="#f8f4ca"/><stop offset=".59" stop-color="#f5eeab"/><stop offset=".78" stop-color="#f2e88e"/></linearGradient><linearGradient id="b" x1="194.82" y1="42.11" x2="274.21" y2="179.62" gradientUnits="userSpaceOnUse"><stop offset="0" stop-color="#f9faec"/><stop offset=".12" stop-color="#f9f9e5"/><stop offset=".28" stop-color="#f9f6d1"/><stop offset=".48" stop-color="#f9f2b2"/><stop offset=".61" stop-color="#f9ef99"/></linearGradient><linearGradient id="c" x1="105.06" y1="445.85" x2="231.92" y2="319" gradientUnits="userSpaceOnUse"><stop offset="0" stop-color="#faf9dd"/><stop offset=".13" stop-color="#faf9da"/><stop offset=".24" stop-color="#faf7d0"/><stop offset=".34" stop-color="#faf5be"/><stop offset=".44" stop-color="#f9f2a6"/><stop offset=".53" stop-color="#f9ee87"/><stop offset=".58" stop-color="#f9eb72"/></linearGradient><linearGradient id="d" x1="334.53" y1="333.46" x2="439.77" y2="438.69" gradientUnits="userSpaceOnUse"><stop offset=".37" stop-color="#f7ee9d"/><stop offset=".49" stop-color="#f8f2b9"/><stop offset=".65" stop-color="#f8f7d7"/><stop offset=".78" stop-color="#f9fae9"/><stop offset=".88" stop-color="#f9fbef"/></linearGradient><linearGradient id="e" x1="153.34" y1="410.63" x2="225.31" y2="338.66" gradientUnits="userSpaceOnUse"><stop offset="0" stop-color="#fbf6bd"/><stop offset=".07" stop-color="#fbf5b7"/><stop offset=".16" stop-color="#f9f2a7"/><stop offset=".26" stop-color="#f7ed8d"/><stop offset=".32" stop-color="#f6e979"/></linearGradient><linearGradient id="f" x1="451.92" y1="115.12" x2="333.38" y2="233.67" gradientUnits="userSpaceOnUse"><stop offset="0" stop-color="#f9faed"/><stop offset=".11" stop-color="#f9f9e6"/><stop offset=".27" stop-color="#faf8d3"/><stop offset=".46" stop-color="#fcf5b4"/><stop offset=".59" stop-color="#fdf39b"/></linearGradient><linearGradient id="g" x1="290.22" y1="258.73" x2="440.73" y2="258.73" gradientUnits="userSpaceOnUse"><stop offset=".3" stop-color="#f9ef99"/><stop offset=".53" stop-color="#faf2b0"/><stop offset=".82" stop-color="#fbf6c7"/><stop offset="1" stop-color="#fbf7cf"/></linearGradient><linearGradient id="h" x1="275.29" y1="304.01" x2="361.69" y2="406.99" gradientUnits="userSpaceOnUse"><stop offset=".34" stop-color="#faee8d"/><stop offset=".47" stop-color="#faf1a1"/><stop offset=".67" stop-color="#fbf5bb"/><stop offset=".86" stop-color="#fbf7cb"/><stop offset="1" stop-color="#fbf8d1"/></linearGradient><linearGradient id="i" x1="153.09" y1="102.99" x2="240.64" y2="254.63" gradientUnits="userSpaceOnUse"><stop offset="0" stop-color="#fbf8d3"/><stop offset=".18" stop-color="#fbf8cf"/><stop offset=".34" stop-color="#fbf7c5"/><stop offset=".49" stop-color="#fcf5b2"/><stop offset=".64" stop-color="#fcf299"/><stop offset=".78" stop-color="#fdef78"/><stop offset=".82" stop-color="#fdee6e"/></linearGradient><linearGradient id="j" x1="121.21" y1="278.08" x2="235.65" y2="278.08" gradientUnits="userSpaceOnUse"><stop offset="0" stop-color="#fbf7cd"/><stop offset=".07" stop-color="#fbf6c6"/><stop offset=".18" stop-color="#faf4b3"/><stop offset=".3" stop-color="#f9f094"/><stop offset=".44" stop-color="#f8ea68"/><stop offset=".54" stop-color="#f7e646"/></linearGradient><radialGradient id="k" cx="281.63" cy="239.36" r="108.06" gradientUnits="userSpaceOnUse"><stop offset=".46" stop-color="#f7e646"/><stop offset=".55" stop-color="#f7e853"/><stop offset=".7" stop-color="#f8ec77"/><stop offset=".91" stop-color="#faf4b0"/><stop offset="1" stop-color="#fbf7c9"/></radialGradient><radialGradient id="l" cx="281.73" cy="292.5" r="93.39" gradientUnits="userSpaceOnUse"><stop offset=".54" stop-color="#f7e757"/><stop offset=".61" stop-color="#f7e85d"/><stop offset=".71" stop-color="#f8ea6d"/><stop offset=".82" stop-color="#f9ee87"/><stop offset=".93" stop-color="#faf2ab"/><stop offset="1" stop-color="#fbf6c5"/></radialGradient><radialGradient id="m" cx="273.33" cy="279.29" r="29.1" gradientUnits="userSpaceOnUse"><stop offset="0" stop-color="#f5eda7"/><stop offset=".01" stop-color="#f5eda5"/><stop offset=".36" stop-color="#f5e95f"/><stop offset=".66" stop-color="#f6e62b"/><stop offset=".88" stop-color="#f6e40c"/><stop offset="1" stop-color="#f6e300"/></radialGradient><linearGradient id="n" x1="207.69" y1="363.54" x2="270.41" y2="254.9" gradientUnits="userSpaceOnUse"><stop offset="0" stop-color="#fbf7cf"/><stop offset=".02" stop-color="#fbf6cb"/><stop offset=".6" stop-color="#f5e442"/></linearGradient></defs><path d="M56 309.36S55.72 261 47.76 240s-16.15-54-25.09-60.8a57.52 57.52 0 0 1 25.09-17.58c37.67-12.62 40.47-30.77 49.11-49.37 13.92-30 35.57-48.09 50.77-51s46.89 3.62 46.89 3.62l6.67 96.77-75.64 141-33.65 41.79z" fill="url(#a)"/><path d="M118.12 183s-32.69-63.32 20.18-92.41c24.17-13.3 71.86-32.57 84.86-44.15s31.59-28.9 33.11-39.81c0 0 20.27 6.71 28.38 20.27s40.54 23.88 53.56 26.78 22 3.37 29.8 14.71-19 68.05-19 68.05l-107.78 50.93-107-4.64z" fill="url(#b)"/><path d="M294.89 472.4s-33.46 3-43 11S214 507.63 191 502.5s-50.66-46.2-64.56-71.86S42.93 339.72 7 347.78c0 0-6.39-14.75 3.67-33.49s38.86-37.59 55-36.14 35.62 6.78 45.67-2.85S202 344.59 202 344.59l144.45 89z" fill="url(#c)"/><path d="M488.45 242.52s23.26 33.2 13.59 70.39c-15.6 60-55.55 56.29-71.37 102-5.72 16.55-17.89 65.54-40.83 67.18s-114.43 3.7-130.13 21.38c0 0-11.41-17.47-3-41s25.42-29.38 23.38-39.75 147.35-182.2 147.35-182.2l39.67-12.84z" fill="url(#d)"/><path d="M103.15 310.8s5.21 48.91 31 80.63c31.18 0 43 44.15 79.27 47.87 23 0 47.84 2.23 62-1.29s-36.6-85.88-36.6-85.88l-58-38.54z" fill="url(#e)"/><path d="M284.88 125.31s-9.74-27 29-44.11 13.9-41 37-49.93c0 0 20.44 27.57 34.2 30.56s46.59 21.76 51.21 52.76c7.18 48.26 56.68 64.57 71.59 81.72s-6 42.33-22.85 60.88-16.13 44.18-47.43 45.52-39.26-4.06-39.26-4.06z" fill="url(#f)"/><path d="M290.22 112.72s22.61-11.26 39.69-5.59 57.73 15.11 82.5 29 9.3 111.15 21.7 123.69 6 51.23-7.95 86.27-39.83 62.23-75 65.86-60.94-299.23-60.94-299.23z" fill="url(#g)"/><path d="M187.89 377.35s18.25 72.39 87.5 60.66c26.68-4.52 79.1-15.49 94.05-40.13s29-21.52 45.44-46.68c-10.77-29.51 10.61-70.67-8.84-80.74S187.89 377.35 187.89 377.35z" fill="url(#h)"/><path d="M124.34 321.69s-54.81-11.45-33.56-79.11 34.51-61.26 35.67-124.21c21.14-12.84 54.31 15.63 102.4 9.09 44-6 35.67-19.6 73.73-13.84s52.83 29.41 51.65 54.07-229.89 154-229.89 154z" fill="url(#i)"/><path d="M187.89 177.46s-33.61-12.83-47.76 6.76-20.41 50.72-15.23 74.51c5.85 26.84-14.4 48.51 4.77 72.14s46.67 43.76 58.22 46.48 23.67 11.34 45.9-1c12.95-7.17-45.9-198.89-45.9-198.89z" fill="url(#j)"/><path d="M227.4 321.69s-48.4-.83-56-27.94-24.58-40.28-16.35-71.54 8-40 46.8-48.26 59.53-3.68 78.48-6.42 36.32-13.87 57.8-9.48 64.26 39.77 69.75 61 .78 43.06-4 59-11.53 34.64-24.61 38.19z" fill="url(#k)"/><path d="M285.57 288.72s-32.73 25.12-58.17 18.51-42.23-22.39-34.09-40.71 13.77-35.54 33.85-48 43.16-22.17 59.35-22.17 43.16 1 54.36 15.77 16.79 42.46 22.38 58.38 10.48 33.4 8.55 47.82c-2.36 17.66-20.33 26.15-17.51 53.52-25.24 20.72-86.92 19.41-105 11.77s-35.08-17.32-35.08-22.91 71.36-71.98 71.36-71.98z" fill="url(#l)"/><path d="M242.81 275c0 11.56-4.72 32.25 30.28 31.66s47.14-48.38 0-54.69c0 .03-30.28-1.97-30.28 23.03z" fill="url(#m)"/><path d="M304.06 274.48s35.49 17 20.43 34.78-44.62 51.4-103.14 51.4S162.4 304.35 162.4 300c0-20.91 23.81-27.16 30.91-33.43 0-.05 47.15 79.76 110.75 7.91z" fill="url(#n)"/><path d="M256.27 6.63s20.27 6.71 28.38 20.27 40.47 23.86 53.53 26.77c1.62-9.44.95-17.87 12.72-22.4 0 0 20.44 27.57 34.2 30.56s46.59 21.76 51.21 52.76c7.18 48.26 56.68 64.57 71.59 81.72 12.81 14.72-.8 35.39-15.59 52.68 6.16 11.42 16.84 36.59 9.73 63.92-15.6 60-55.55 56.29-71.37 102-5.72 16.55-17.89 65.54-40.83 67.18s-114.43 3.7-130.13 21.38a45.85 45.85 0 0 1-6-21.33 15.8 15.8 0 0 0-1.77 1.27c-8.26 7-30.7 20.06-51.48 20.06a43.11 43.11 0 0 1-9.38-1c-22.95-5.13-50.66-46.2-64.56-71.86-13.1-24.19-75.72-83.54-113-83.54a30 30 0 0 0-6.52.68S.61 333 10.67 314.29c8-15 28-30 43.95-34.7-1.11-14-3.15-29.76-6.86-39.55-8-21-16.15-54-25.09-60.8a57.52 57.52 0 0 1 25.09-17.58c37.67-12.66 40.47-30.81 49.11-49.41 13.92-30 35.57-48.09 50.77-51a52.64 52.64 0 0 1 9.64-.75c12.75 0 28.76 2.76 34.79 3.89 13.66-6.68 25.54-13 31.09-18 13-11.58 31.59-28.9 33.11-39.81M252.14 0l-.83 6c-1.38 10-24 30.13-31.48 36.76-5.44 4.84-18.5 11.58-28.48 16.48-7.21-1.3-22-3.66-34.07-3.66a56.23 56.23 0 0 0-10.58.83C137.88 58 127.8 63.94 118.32 73c-10.26 9.79-19.24 22.64-26 37.17-1.17 2.53-2.23 5-3.26 7.46-6.61 15.57-12.32 29-42.91 39.32a62.38 62.38 0 0 0-27.47 19.3l-3 4 4 3c5.16 3.95 11.72 23.89 16.51 38.44 2.28 6.93 4.63 14.08 6.93 20.16 2.69 7.09 4.83 18.9 6.23 34.29-17 6.35-35.33 21.44-43.05 35.83-11.07 20.63-4.15 37.15-3.85 37.84l1.64 3.8 4-.91a25.22 25.22 0 0 1 5.43-.56c15 0 37.72 11.51 62.38 31.58 22.85 18.59 40.53 38.9 46.19 49.34 6.09 11.25 38 67.68 67.86 74.36a48.43 48.43 0 0 0 10.47 1.11c18.3 0 37.93-9.37 49.39-17.22a47.46 47.46 0 0 0 5.71 15l3.58 5.48 4.35-4.89c2.81-3.17 12.76-9.17 47.8-13.73 23.14-3 48.74-4.35 65.69-5.23 5.37-.28 10-.53 13.25-.76 23.38-1.67 35.47-39.93 42.7-62.8 1-3 1.79-5.65 2.51-7.73 6.73-19.47 18.25-29.51 30.44-40.13 15.06-13.11 32.13-28 41-62.26 6.89-26.5-1.73-50.79-8.59-64.51 8.39-10.11 13.76-18.47 16.81-26.12 4.81-12.1 3.66-22.36-3.43-30.51-4.69-5.4-12-10.39-20.47-16.15-20.11-13.71-45.14-30.76-49.95-63-2.77-18.59-14.51-32-23.88-40-11.85-10.09-24.22-15.44-31.21-17-8.69-1.88-23.77-18.57-31.24-28.65l-2.27-3.06-3.51 1.34c-12.05 4.65-13.93 13.11-15.1 20.9-16.58-4.5-39.44-13.77-45.06-23.17-9-15-30.2-22.15-31.1-22.44L252.14 0z" fill="#1d1d1b"/></svg>